<?xml version="1.0" standalone="no"?>
<!DOCTYPE svg PUBLIC "-//W3C//DTD SVG 1.1//EN" "http://www.w3.org/Graphics/SVG/1.1/DTD/svg11.dtd" >
<svg xmlns="http://www.w3.org/2000/svg" xmlns:xlink="http://www.w3.org/1999/xlink" version="1.1">
<metadata>
Created by FontForge 20170731 at Mon Jan 24 19:00:18 2022
 By Aleksey,,,
Copyright (c) 2011 by Ekaluck Peanpanawate. All rights reserved.
</metadata>
<defs>
<font id="KurryPro-Regular" horiz-adv-x="802" >
  <font-face 
    font-family="Kurry Pro"
    font-weight="400"
    font-stretch="squinchy"
    units-per-em="2048"
    panose-1="2 0 5 6 5 0 0 2 0 4"
    ascent="1638"
    descent="-410"
    x-height="1028"
    cap-height="1438"
    bbox="-375 -741 2068 2171"
    underline-thickness="71"
    underline-position="-173"
    unicode-range="U+0020-FB06"
  />
<missing-glyph horiz-adv-x="643" 
 />
    <glyph glyph-name="ff" unicode="ff" horiz-adv-x="1060" 
d="M840 0h-193v893h-287v-893h-192v893h-137v135h137v125q0 156 84 241t223 85q150 0 232 -101q72 101 227 101q100 0 156.5 -52.5t56.5 -123.5q0 -68 -48 -108t-126 -40v8q26 54 26 97q0 69 -63 69q-50 0 -73 -39.5t-23 -146.5v-115h180v-135h-180v-893zM647 1028v125
q0 197 -139 197q-73 0 -110.5 -49t-37.5 -158v-115h287z" />
    <glyph glyph-name="fi" unicode="fi" horiz-adv-x="937" 
d="M840 0h-193v893h-287v-893h-192v893h-137v135h137v84q0 167 93.5 267t258.5 100q131 0 201 -63t70 -154q0 -77 -48.5 -122.5t-126.5 -45.5v8q4 5 10 13.5t16.5 39t10.5 64.5q0 49 -33.5 79.5t-97.5 30.5q-162 0 -162 -227v-74h480v-1028z" />
    <glyph glyph-name="fl" unicode="fl" horiz-adv-x="940" 
d="M854 0h-192v1194q0 67 -33.5 111.5t-100.5 44.5q-86 0 -127 -56t-41 -180v-86h181v-135h-181v-893h-192v893h-137v135h137v96q0 161 96 258t262 97q160 0 244 -79t84 -206v-1194z" />
    <glyph glyph-name="ffi" unicode="ffi" horiz-adv-x="1437" 
d="M1319 0h-193v893h-286v-893h-193v893h-287v-893h-192v893h-137v135h137v125q0 156 84 241t223 85q167 0 246 -123q93 123 278 123q131 0 201 -63t70 -154q0 -77 -48 -122.5t-126 -45.5v8q4 5 10 13.5t16.5 39t10.5 64.5q0 49 -34 79.5t-98 30.5q-161 0 -161 -227v-74h479
v-1028zM647 1028v84v16q-1 69 -11 114t-29 68t-42 31.5t-57 8.5q-73 0 -110.5 -49t-37.5 -158v-115h287z" />
    <glyph glyph-name="ffl" unicode="ffl" horiz-adv-x="1398" 
d="M1333 0h-192v1141q0 209 -144 209q-86 0 -121.5 -49.5t-35.5 -174.5v-98h180v-135h-180v-893h-193v893h-287v-893h-192v893h-137v135h137v125q0 155 88.5 240.5t228.5 85.5q157 0 234 -113q89 113 276 113q166 0 252 -90t86 -248v-1141zM647 1028v109v16q0 197 -139 197
q-73 0 -110.5 -49t-37.5 -158v-115h287z" />
    <glyph glyph-name="T_h.caron" unicode="&#x164;h" horiz-adv-x="1566" 
d="M659 1636l-256 -110h-8l-256 110v146l260 -113l260 113v-146zM1546 43v-29q-50 -26 -112 -26q-105 0 -148 49.5t-43 167.5v565q0 50 -28.5 86.5t-86.5 36.5q-55 0 -89.5 -36t-34.5 -99v-758h-193v1266h-307v-1266h-205v1266h-246v172h778q51 0 90 10t53 20l13 11h17v-578
h4q63 139 206 139q95 0 158.5 -61.5t63.5 -171.5v-586q0 -107 21 -142.5t89 -35.5z" />
    <glyph glyph-name="T_h.commaaccent" unicode="&#x162;h" horiz-adv-x="1566" 
d="M215 -500v11q102 60 102 249v125h164v-82q0 -140 -65 -221.5t-201 -81.5zM1546 43v-29q-50 -26 -112 -26q-105 0 -148 49.5t-43 167.5v565q0 50 -28.5 86.5t-86.5 36.5q-55 0 -89.5 -36t-34.5 -99v-758h-193v1266h-307v-1266h-205v1266h-246v172h778q51 0 90 10t53 20
l13 11h17v-578h4q63 139 206 139q95 0 158.5 -61.5t63.5 -171.5v-586q0 -107 21 -142.5t89 -35.5z" />
    <glyph glyph-name="f_b" unicode="fb" horiz-adv-x="1378" 
d="M842 0h-180v1194q0 67 -33.5 111.5t-100.5 44.5q-86 0 -127 -56t-41 -180v-86h181v-135h-181v-893h-192v893h-137v135h137v96q0 161 96 258t262 97q160 0 244 -79t84 -206v-965q0 -54 36.5 -86t82.5 -32q67 0 96 44t29 154v416q0 104 -27.5 142t-97.5 38q-48 0 -76 -20
h-8q0 63 45 109t135 46q104 0 162.5 -72t58.5 -247v-445q0 -138 -66.5 -213t-195.5 -75q-127 0 -182 86h-4v-74z" />
    <glyph glyph-name="f_h" unicode="fh" horiz-adv-x="1417" 
d="M1397 43v-29q-50 -26 -113 -26q-105 0 -147.5 49.5t-42.5 167.5v565q0 50 -28.5 86.5t-86.5 36.5q-55 0 -90 -36t-35 -99v-758h-192v1194q0 67 -33.5 111.5t-100.5 44.5q-86 0 -127 -56t-41 -180v-86h181v-135h-181v-893h-192v893h-137v135h137v96q0 161 96 258t262 97
q160 0 244 -79t84 -206v-293h4q63 139 207 139q95 0 158 -61.5t63 -171.5v-586q0 -107 21.5 -142.5t89.5 -35.5z" />
    <glyph glyph-name="f_k" unicode="fk" horiz-adv-x="1376" 
d="M1352 145h4q0 -88 -38 -122.5t-110 -34.5q-78 0 -123 55.5t-45 159.5v127q0 115 -47 162t-135 47h-4v-539h-192v1194q0 67 -33.5 111.5t-100.5 44.5q-86 0 -127 -56t-41 -180v-86h181v-135h-181v-893h-192v893h-137v135h137v96q0 161 96 258t262 97q160 0 244 -79
t84 -206v-592h4l266 426h191l-287 -434q102 0 153.5 -56.5t51.5 -158.5v-184q0 -72 61 -72q17 0 34.5 6t23.5 16z" />
    <glyph glyph-name="f_f_b" unicode="ffb" horiz-adv-x="1857" 
d="M1321 0h-180v1194q0 67 -33.5 111.5t-99.5 44.5q-86 0 -127 -56t-41 -180v-86h180v-135h-180v-893h-193v893h-287v-893h-192v893h-137v135h137v125q0 156 84 241t223 85q156 0 248 -119q96 119 283 119q160 0 243.5 -79t83.5 -206v-965q0 -54 36.5 -86t82.5 -32
q67 0 96 44t29 154v416q0 104 -27.5 142t-97.5 38q-48 0 -76 -20h-8q0 63 45 109t135 46q104 0 162.5 -72t58.5 -247v-445q0 -138 -66.5 -213t-195.5 -75q-127 0 -182 86h-4v-74zM647 1028v96q0 129 -31 177.5t-108 48.5q-73 0 -110.5 -49t-37.5 -158v-115h287z" />
    <glyph glyph-name="f_f_h" unicode="ffh" horiz-adv-x="1896" 
d="M1876 43v-29q-50 -26 -113 -26q-105 0 -147.5 49.5t-42.5 167.5v565q0 50 -28.5 86.5t-86.5 36.5q-55 0 -90 -36t-35 -99v-758h-192v1194q0 67 -33.5 111.5t-99.5 44.5q-86 0 -127 -56t-41 -180v-86h180v-135h-180v-893h-193v893h-287v-893h-192v893h-137v135h137v125
q0 156 84 241t223 85q156 0 248 -119q96 119 283 119q160 0 243.5 -79t83.5 -206v-293h4q63 139 207 139q95 0 158 -61.5t63 -171.5v-586q0 -107 21.5 -142.5t89.5 -35.5zM647 1028v96v15q-1 120 -33 165.5t-106 45.5q-73 0 -110.5 -49t-37.5 -158v-115h287z" />
    <glyph glyph-name="f_f_k" unicode="ffk" horiz-adv-x="1855" 
d="M1831 145h4q0 -88 -37.5 -122.5t-109.5 -34.5q-78 0 -123 55.5t-45 159.5v127q0 115 -47.5 162t-135.5 47h-4v-539h-192v1194q0 67 -33.5 111.5t-99.5 44.5q-86 0 -127 -56t-41 -180v-86h180v-135h-180v-893h-193v893h-287v-893h-192v893h-137v135h137v125q0 156 84 241
t223 85q156 0 248 -119q96 119 283 119q160 0 243.5 -79t83.5 -206v-592h4l267 426h190l-287 -434q102 0 153.5 -56.5t51.5 -158.5v-184q0 -72 62 -72q44 0 57 22zM647 1028v96v15q-1 120 -33 165.5t-106 45.5q-73 0 -110.5 -49t-37.5 -158v-115h287z" />
    <glyph glyph-name="T_h" unicode="Th" horiz-adv-x="1566" 
d="M1546 43v-29q-50 -26 -112 -26q-105 0 -148 49.5t-43 167.5v565q0 50 -28.5 86.5t-86.5 36.5q-55 0 -89.5 -36t-34.5 -99v-758h-193v1266h-307v-1266h-205v1266h-246v172h778q51 0 90 10t53 20l13 11h17v-578h4q63 139 206 139q95 0 158.5 -61.5t63.5 -171.5v-586
q0 -107 21 -142.5t89 -35.5z" />
    <glyph glyph-name="f_j" unicode="fj" horiz-adv-x="958" 
d="M444 -303v29q103 0 153 42t50 162v963h-287v-893h-192v893h-137v135h137v84q0 167 93.5 267t258.5 100q131 0 201 -63t70 -154q0 -77 -48.5 -122.5t-126.5 -45.5v8q4 5 10 13.5t16.5 39t10.5 64.5q0 49 -33.5 79.5t-97.5 30.5q-162 0 -162 -227v-74h480v-1073
q0 -158 -68 -218.5t-203 -60.5q-63 0 -125 21z" />
    <glyph glyph-name="f_f_j" unicode="ffj" horiz-adv-x="1437" 
d="M924 -303v29q50 0 84 8t62.5 29.5t42 62.5t13.5 104v963h-286v-893h-193v893h-287v-893h-192v893h-137v135h137v125q0 156 84 241t223 85q167 0 246 -123q93 123 278 123q131 0 201 -63t70 -154q0 -77 -48 -122.5t-126 -45.5v8q4 5 10 13.5t16.5 39t10.5 64.5
q0 49 -34 79.5t-98 30.5q-161 0 -161 -227v-74h479v-1073q0 -158 -67.5 -218.5t-202.5 -60.5q-63 0 -125 21zM647 1028v84v16q-1 69 -11 114t-29 68t-42 31.5t-57 8.5q-73 0 -110.5 -49t-37.5 -158v-115h287z" />
    <glyph glyph-name=".notdef" horiz-adv-x="643" 
 />
    <glyph glyph-name=".null" horiz-adv-x="0" 
 />
    <glyph glyph-name="nonmarkingreturn" horiz-adv-x="682" 
 />
    <glyph glyph-name="space" unicode=" " horiz-adv-x="385" 
 />
    <glyph glyph-name="exclam" unicode="!" horiz-adv-x="495" 
d="M307 379h-119q-49 661 -49 1059h217q0 -177 -12 -442t-24 -441zM248 -12q-47 0 -81 33.5t-34 80.5t34 81t81 34t80.5 -34t33.5 -81t-33.5 -80.5t-80.5 -33.5z" />
    <glyph glyph-name="quotedbl" unicode="&#x22;" horiz-adv-x="610" 
d="M240 1073h-131q-21 180 -21 289v76h172v-76q0 -48 -5 -120.5t-10 -120.5zM502 1073h-131q-21 180 -21 289v76h172v-76q0 -48 -5 -120.5t-10 -120.5z" />
    <glyph glyph-name="numbersign" unicode="#" 
d="M457 584l32 311h-143l-33 -311h144zM530 0h-135l47 449h-143l-47 -449h-135l47 449h-135v135h149l33 311h-137v135h151l47 449h136l-48 -449h144l47 449h135l-47 -449h135v-135h-149l-33 -311h137v-135h-151z" />
    <glyph glyph-name="dollar" unicode="$" 
d="M449 -172h-111v170q-124 13 -196 84t-72 209q0 106 67.5 157.5t157.5 51.5h8q-31 -78 -31 -168q0 -88 30.5 -131t96.5 -43q77 0 106.5 40t29.5 119q0 45 -25.5 98.5t-66 106t-89.5 109t-97.5 116t-89 118.5t-66 124.5t-25.5 126.5q0 293 262 334v160h111v-160
q129 -12 195.5 -91.5t66.5 -205.5v-113h-193v117q0 133 -115 133q-64 0 -93 -38t-29 -124q0 -59 24.5 -117t64 -108t87 -101t95 -103.5t87 -107t64 -120.5t24.5 -135q0 -154 -71.5 -240t-206.5 -98v-170z" />
    <glyph glyph-name="percent" unicode="%" horiz-adv-x="1320" 
d="M367 760v497q0 41 -19 61.5t-51 20.5t-51 -20.5t-19 -61.5v-497q0 -41 19 -61.5t51 -20.5t51 20.5t19 61.5zM492 -12h-123l467 1462h122zM1094 180v498q0 41 -19 61.5t-51 20.5t-51 -20.5t-19 -61.5v-498q0 -41 19 -61.5t51 -20.5t51 20.5t19 61.5zM92 750v518
q0 83 59 132.5t146 49.5t146 -49.5t59 -132.5v-518q0 -84 -59.5 -133.5t-145.5 -49.5t-145.5 49.5t-59.5 133.5zM819 170v518q0 83 59 132.5t146 49.5t146 -49.5t59 -132.5v-518q0 -83 -59 -132.5t-146 -49.5t-146 49.5t-59 132.5z" />
    <glyph glyph-name="ampersand" unicode="&#x26;" horiz-adv-x="1032" 
d="M1022 0h-193l-378 707q-172 -125 -172 -359q0 -215 188 -215q88 0 162 96h8q12 -34 12 -71q0 -77 -60.5 -127.5t-185.5 -50.5q-156 0 -242.5 90.5t-86.5 246.5q0 153 95 275.5t253 163.5q-53 76 -81 121t-55.5 116.5t-27.5 134.5q0 147 83 228.5t214 81.5q93 0 150 -51.5
t57 -120.5q0 -78 -76 -133h-8q-24 75 -55.5 116t-77.5 41q-113 0 -113 -149q0 -32 5.5 -61.5t22 -65.5t27 -56.5t39.5 -70.5t41 -72z" />
    <glyph glyph-name="quotesingle" unicode="'" horiz-adv-x="401" 
d="M266 1073h-131q-20 180 -20 289v76h172v-76q0 -48 -5.5 -120.5t-10.5 -120.5z" />
    <glyph glyph-name="parenleft" unicode="(" horiz-adv-x="495" 
d="M455 -319h-136q-196 531 -196 899t196 899h136q-46 -135 -93 -424.5t-47 -474.5t47 -474.5t93 -424.5z" />
    <glyph glyph-name="parenright" unicode=")" horiz-adv-x="495" 
d="M176 -319h-135q46 134 92.5 423.5t46.5 475.5t-46.5 475.5t-92.5 423.5h135q197 -533 197 -899t-197 -899z" />
    <glyph glyph-name="asterisk" unicode="*" horiz-adv-x="647" 
d="M545 995l-178 121l8 -215h-103l9 215l-179 -121l-55 103l203 92l-203 92l55 102l179 -120l-9 215h103l-8 -215l178 120l55 -102l-203 -92l203 -92z" />
    <glyph glyph-name="plus" unicode="+" horiz-adv-x="1269" 
d="M690 0h-110v463h-463v110h463v463h110v-463h463v-110h-463v-463z" />
    <glyph glyph-name="comma" unicode="," horiz-adv-x="421" 
d="M20 -246v10q103 60 103 250v187h186v-144q0 -136 -75 -219.5t-214 -83.5z" />
    <glyph glyph-name="hyphen" unicode="-" horiz-adv-x="647" 
d="M571 459h-495v119h495v-119z" />
    <glyph glyph-name="period" unicode="." horiz-adv-x="421" 
d="M211 -6q-53 0 -90 37t-37 90t37 90t90 37t90 -37t37 -90t-37 -90t-90 -37z" />
    <glyph glyph-name="slash" unicode="/" horiz-adv-x="606" 
d="M147 -12h-131l443 1491h131z" />
    <glyph glyph-name="zero" unicode="0" 
d="M514 319v799q0 55 -8 92.5t-34 65t-71 27.5q-34 0 -57 -14.5t-34.5 -42t-16 -58t-4.5 -70.5v-799q0 -55 8 -92.5t33.5 -64.5t70.5 -27t71 27t34 64.5t8 92.5zM96 352v733q0 195 75 280t230 85t230.5 -85t75.5 -280v-733q0 -194 -75.5 -279t-230.5 -85t-230 84.5
t-75 279.5z" />
    <glyph glyph-name="one" unicode="1" 
d="M541 0h-193v1262h-4l-201 -52v131l226 97h172v-1438z" />
    <glyph glyph-name="two" unicode="2" 
d="M674 242h8q43 -50 43 -113q0 -67 -37.5 -104t-99.5 -37q-43 0 -83.5 18t-75 36.5t-62.5 18.5q-26 0 -45.5 -6.5t-29 -15.5t-15.5 -17.5t-7 -15.5l-2 -6h-155v176q0 101 21.5 185.5t56.5 144.5t76.5 114t83.5 106t77 107t56.5 130.5t21.5 164.5q0 98 -25 136.5t-78 38.5
q-56 0 -77 -35t-21 -115v-96h-192v96q0 143 77.5 220t212.5 77q157 0 226 -75.5t69 -252.5q0 -103 -29.5 -196.5t-73.5 -160t-95.5 -134t-95.5 -121t-73.5 -119t-29.5 -129.5v-63l4 -2q9 17 41.5 31t63.5 14q36 0 102 -30t92 -30q59 0 70 60z" />
    <glyph glyph-name="three" unicode="3" 
d="M707 461v-144q0 -329 -320 -329q-140 0 -220.5 63.5t-80.5 167.5q0 98 56.5 144.5t136.5 46.5q27 0 59 -7v-8q-59 -59 -59 -145q0 -53 29 -84t81 -31q71 0 98 46t27 138v175q0 101 -45.5 144.5t-149.5 43.5h-51v131h66q93 0 133.5 45.5t40.5 153.5v135q0 89 -24.5 122.5
t-71.5 33.5q-62 0 -87.5 -37.5t-25.5 -126.5v-70h-193v68q0 313 306 313q149 0 218.5 -74.5t69.5 -228.5v-90q0 -71 -12.5 -124.5t-31 -84t-47 -51.5t-52.5 -29t-57 -14v-4q38 -6 64.5 -14.5t55.5 -28t46.5 -49t29 -79.5t11.5 -118z" />
    <glyph glyph-name="four" unicode="4" 
d="M647 0h-192v360h-389v168l327 910h254v-930h90v-148h-90v-360zM455 508v643h-4l-213 -643h217z" />
    <glyph glyph-name="five" unicode="5" 
d="M520 295v364q0 142 -110 142q-52 0 -82.5 -40t-30.5 -114v-59h-193v850h574v-160h-381v-473h4q27 78 68.5 117t115.5 39q43 0 82 -13.5t72.5 -42.5t53.5 -79.5t20 -118.5v-422q0 -297 -320 -297q-140 0 -220.5 63.5t-80.5 167.5q0 98 56.5 144.5t136.5 46.5q27 0 59 -7
v-8q-59 -59 -59 -145q0 -53 29 -84t81 -31q125 0 125 160z" />
    <glyph glyph-name="six" unicode="6" 
d="M713 584v-232q0 -193 -74.5 -278.5t-253.5 -85.5q-146 0 -220.5 81.5t-74.5 258.5v776q0 171 84 258.5t223 87.5q303 0 303 -320v-71h-192v71q0 88 -25 124t-86 36q-63 0 -88.5 -44.5t-25.5 -139.5v-313h4q47 147 192 147q69 0 116 -25t72.5 -74.5t35.5 -110.5t10 -146z
M508 319v324q0 65 -24 101t-87 36q-60 0 -87 -44t-27 -142v-275q0 -41 4.5 -71t16 -57t35 -41.5t58.5 -14.5q65 0 88 45t23 139z" />
    <glyph glyph-name="seven" unicode="7" 
d="M500 143h4q0 -71 -38.5 -113t-123.5 -42q-77 0 -117.5 50t-40.5 146q0 106 55.5 278t218.5 604q15 40 24 63t22.5 59.5t25.5 68.5h-456v181h639v-168q-312 -861 -312 -1055q0 -37 16.5 -60.5t45.5 -23.5q31 0 37 12z" />
    <glyph glyph-name="eight" unicode="8" 
d="M707 455v-103q0 -200 -69 -282t-237 -82q-172 0 -238.5 81.5t-66.5 282.5v144q0 84 46 142.5t128 88.5q-49 31 -81 64t-56 91.5t-24 135.5v117q0 161 68 238t224 77q163 0 228 -76t65 -239v-168q0 -148 -147 -203q75 -51 117.5 -121t42.5 -188zM514 319v160
q0 71 -37.5 112.5t-111.5 82.5q-76 -69 -76 -185v-170q0 -32 0.5 -46.5t3.5 -41t10 -40t18.5 -28.5t32 -21.5t47.5 -6.5t47.5 6.5t32.5 21.5t19 28.5t10 39.5t3.5 41.5t0.5 46.5zM502 950v174q0 27 -0.5 42t-3.5 38t-9.5 35.5t-17 25.5t-28.5 19t-42 6q-29 0 -49 -10
t-29.5 -23t-15 -39t-6 -43t-0.5 -51v-100q0 -74 36.5 -117t108.5 -84q56 35 56 127z" />
    <glyph glyph-name="nine" unicode="9" 
d="M520 307v379h-4q-26 -72 -69.5 -109.5t-122.5 -37.5q-234 0 -234 333v213q0 192 76 278.5t252 86.5q157 0 226 -75t69 -265v-813q0 -156 -83.5 -232.5t-236.5 -76.5q-140 0 -220.5 63.5t-80.5 167.5q0 98 56.5 144.5t136.5 46.5q27 0 59 -7v-8q-59 -59 -59 -145
q0 -103 110 -103q125 0 125 160zM520 885v233q0 42 -3.5 71t-15 57.5t-35 42.5t-60.5 14q-68 0 -89.5 -44t-21.5 -141v-282q0 -66 24 -102t87 -36q60 0 87 44.5t27 142.5z" />
    <glyph glyph-name="colon" unicode=":" horiz-adv-x="421" 
d="M211 774q-53 0 -90 37t-37 90t37 90t90 37t90 -37t37 -90t-37 -90t-90 -37zM211 -6q-53 0 -90 37t-37 90t37 90t90 37t90 -37t37 -90t-37 -90t-90 -37z" />
    <glyph glyph-name="semicolon" unicode=";" horiz-adv-x="421" 
d="M211 774q-53 0 -90 37t-37 90t37 90t90 37t90 -37t37 -90t-37 -90t-90 -37zM20 -246v10q103 60 103 250v187h186v-144q0 -136 -75 -219.5t-214 -83.5z" />
    <glyph glyph-name="less" unicode="&#x3c;" horiz-adv-x="1269" 
d="M1153 -12l-1036 456v148l1036 457v-172l-825 -359l825 -358v-172z" />
    <glyph glyph-name="equal" unicode="=" horiz-adv-x="1269" 
d="M1153 686h-1036v111h1036v-111zM1153 240h-1036v110h1036v-110z" />
    <glyph glyph-name="greater" unicode="&#x3e;" horiz-adv-x="1269" 
d="M1153 444l-1036 -456v172l825 358l-825 359v172l1036 -457v-148z" />
    <glyph glyph-name="question" unicode="?" horiz-adv-x="759" 
d="M440 334h-159v205q0 67 22 132.5t53.5 119.5t63.5 108.5t54 121.5t22 136q0 56 -30.5 96.5t-84.5 40.5q-65 0 -102 -39t-37 -106q0 -44 21 -81.5t42 -53.5l21 -15l-7 -6q-38 -14 -79 -14q-74 0 -121 52.5t-47 154.5q0 110 80 187t225 77q156 0 233.5 -81t77.5 -216
q0 -74 -25.5 -147t-62 -131.5t-73 -115t-62 -118t-25.5 -119.5v-188zM360 -6q-47 0 -80.5 34t-33.5 81t33.5 80.5t80.5 33.5t81 -33.5t34 -80.5t-34 -81t-81 -34z" />
    <glyph glyph-name="at" unicode="@" horiz-adv-x="1474" 
d="M881 446v252q0 54 -38.5 91.5t-99.5 37.5q-137 0 -137 -129v-262q0 -72 27.5 -96.5t95.5 -24.5q78 0 115 40t37 91zM1096 37v-14q-74 -179 -367 -179q-190 0 -328.5 61.5t-218.5 194t-80 326.5v342q0 257 170 403t465 146t465 -146t170 -403v-342q0 -142 -71 -221.5
t-199 -79.5q-96 0 -147.5 53t-57.5 154q-13 -61 -68 -106.5t-141 -45.5q-114 0 -175.5 66.5t-61.5 181.5v270q0 120 84.5 190t207.5 70q130 0 209.5 -68t79.5 -192v-348q0 -47 19.5 -72.5t54.5 -25.5q49 0 81 43.5t32 124.5v346q0 185 -123.5 298.5t-358.5 113.5
t-358 -113.5t-123 -298.5v-346q0 -213 125.5 -324.5t347.5 -111.5q206 0 367 53z" />
    <glyph glyph-name="A" unicode="A" horiz-adv-x="991" 
d="M924 0h-201l-72 377h-313l-70 -377h-200l309 1438h237zM623 528l-125 672h-4l-127 -672h256z" />
    <glyph glyph-name="B" unicode="B" horiz-adv-x="899" 
d="M319 786h68q195 0 195 263q0 130 -42 179.5t-165 49.5h-56v-492zM319 160h62q118 0 174.5 53.5t56.5 194.5q0 77 -18.5 128t-55 77t-78 36t-100.5 10h-41v-499zM381 0h-266v1438h266q203 0 304 -98t101 -281q0 -283 -241 -316v-4q130 -13 201 -89t71 -236q0 -79 -11 -139
t-40 -113.5t-77.5 -87.5t-125.5 -54t-182 -20z" />
    <glyph glyph-name="C" unicode="C" horiz-adv-x="819" 
d="M600 379h8q70 -9 107 -37t37 -104q0 -99 -79.5 -174.5t-221.5 -75.5q-166 0 -252 97t-86 259v721q0 190 87 287.5t251 97.5q150 0 228.5 -76.5t78.5 -216.5v-149h-193v133q0 72 -30 110.5t-89 38.5q-65 0 -97 -50.5t-32 -178.5v-725q0 -82 35.5 -128t104.5 -46
q140 0 143 217z" />
    <glyph glyph-name="D" unicode="D" horiz-adv-x="915" 
d="M600 397v586q0 170 -50.5 232.5t-193.5 62.5h-34v-1118h59q111 0 165 53.5t54 183.5zM381 0h-264v1438h241q224 0 335.5 -116t111.5 -339v-586q0 -198 -116 -297.5t-308 -99.5z" />
    <glyph glyph-name="E" unicode="E" horiz-adv-x="745" 
d="M588 285h8q40 -6 62 -35.5t22 -73.5q0 -79 -63 -133.5t-195 -54.5q-143 0 -224 78.5t-81 230.5v1141h557v-172h-352v-443h331v-151h-331v-373q0 -137 110 -137q68 0 102 31.5t54 91.5z" />
    <glyph glyph-name="F" unicode="F" horiz-adv-x="727" 
d="M322 0h-205v1438h557v-172h-352v-443h331v-151h-331v-672z" />
    <glyph glyph-name="G" unicode="G" horiz-adv-x="915" 
d="M799 0h-72q-110 31 -127 147h-6q-16 -65 -67.5 -112t-137.5 -47q-131 0 -201.5 92t-70.5 264v717q0 197 91 293t257 96q334 0 334 -274v-168h-205v141q0 141 -131 141q-141 0 -141 -223v-735q0 -91 35.5 -138t95.5 -47q68 0 104.5 35.5t36.5 93.5v340h-135v152h340v-768z
" />
    <glyph glyph-name="H" unicode="H" horiz-adv-x="915" 
d="M799 0h-205v662h-272v-662h-205v1438h205v-625h272v625h205v-1438z" />
    <glyph glyph-name="I" unicode="I" horiz-adv-x="471" 
d="M338 0h-205v1438h205v-1438z" />
    <glyph glyph-name="J" unicode="J" horiz-adv-x="727" 
d="M412 295v1143h204v-1145q0 -155 -80 -230t-225 -75q-124 0 -197 61t-73 150q0 86 55 138t137 52q23 0 50 -6v-8q-50 -72 -50 -146q0 -38 21 -60t59 -22q50 0 74.5 33.5t24.5 114.5z" />
    <glyph glyph-name="K" unicode="K" horiz-adv-x="915" 
d="M829 170h7q15 -7 24.5 -28t9.5 -42q0 -112 -147 -112q-82 0 -133 54.5t-51 182.5v211q0 283 -213 283h-4v-719h-205v1438h205v-654h4l323 654h205l-344 -674q114 0 167.5 -70.5t53.5 -195.5v-279q0 -51 11 -71.5t40 -20.5q19 0 31.5 13t15.5 30z" />
    <glyph glyph-name="L" unicode="L" horiz-adv-x="716" 
d="M686 0h-569v1438h205v-1266h364v-172z" />
    <glyph glyph-name="M" unicode="M" horiz-adv-x="1093" 
d="M977 0h-193v1004h-4l-168 -431h-123l-188 431h-4v-1004h-180v1438h182l250 -594h4l229 594h195v-1438z" />
    <glyph glyph-name="N" unicode="N" horiz-adv-x="954" 
d="M838 0h-162l-375 985h-4v-985h-180v1438h180l344 -881h4v881h193v-1438z" />
    <glyph glyph-name="O" unicode="O" horiz-adv-x="942" 
d="M829 1061v-707q0 -366 -358 -366t-358 366v707q0 81 19 148.5t59.5 123t112 86.5t167.5 31t167.5 -31t112 -86.5t59.5 -123t19 -148.5zM625 342v735q0 213 -154 213t-154 -213v-735q0 -95 43.5 -145t110.5 -50t110.5 50t43.5 145z" />
    <glyph glyph-name="P" unicode="P" horiz-adv-x="858" 
d="M322 0h-205v1438h274q206 0 311 -112t105 -357q0 -126 -22.5 -214.5t-65.5 -138t-98 -71t-127 -21.5q-105 0 -154 80v8q51 4 87 13.5t71 32.5t56.5 61t34.5 101t13 149q0 171 -49 240t-168 69h-63v-1278z" />
    <glyph glyph-name="Q" unicode="Q" horiz-adv-x="917" 
d="M600 342v735q0 112 -35.5 162.5t-107.5 50.5q-71 0 -106.5 -51t-35.5 -162v-735q0 -93 38.5 -144t103.5 -51q66 0 104.5 50.5t38.5 144.5zM903 -309h6q15 -7 25 -28t10 -42q0 -53 -39.5 -88t-107.5 -35q-77 0 -131 54.5t-54 173.5v84q0 97 -36 137.5t-119 40.5
q-346 0 -346 366v707q0 82 17 149t55.5 122.5t108 86.5t165.5 31q183 0 265.5 -94t82.5 -273v-729q0 -121 -49.5 -200t-128.5 -105v-6q92 0 135 -48.5t43 -156.5v-98q0 -51 11 -71.5t40 -20.5q19 0 31.5 13t15.5 30z" />
    <glyph glyph-name="R" unicode="R" horiz-adv-x="878" 
d="M322 791h22q94 0 154.5 60t60.5 189q0 119 -51 172.5t-150 53.5h-36v-475zM821 170h6q15 -7 25 -28t10 -42q0 -112 -147 -112q-82 0 -133.5 54.5t-51.5 182.5v203q0 131 -42 175t-150 44h-16v-647h-205v1438h233q215 0 314.5 -94t99.5 -295q0 -78 -22.5 -138.5t-62 -97
t-86.5 -57.5t-104 -29v-4q234 0 234 -274v-230q0 -51 11 -71.5t40 -20.5q19 0 31.5 13t15.5 30z" />
    <glyph glyph-name="S" unicode="S" horiz-adv-x="839" 
d="M328 514l6 -4q-45 -75 -45 -197q0 -84 32 -117.5t97 -33.5q67 0 100 43t33 147q0 55 -25 108.5t-65.5 99.5t-89.5 92t-97.5 95.5t-89 102t-65.5 119.5t-25 139q0 342 336 342q134 0 216.5 -76t82.5 -215v-151h-192v149q0 133 -115 133q-64 0 -93.5 -36t-29.5 -121
q0 -69 24.5 -129t64 -105t87 -88t95 -87.5t87 -93.5t64 -116.5t24.5 -146.5q0 -182 -82.5 -280.5t-248.5 -98.5q-154 0 -237 81.5t-83 225.5q0 103 54.5 165t130.5 62q28 0 49 -8z" />
    <glyph glyph-name="T" unicode="T" horiz-adv-x="778" 
d="M492 0h-205v1266h-246v172h696v-172h-245v-1266z" />
    <glyph glyph-name="U" unicode="U" horiz-adv-x="942" 
d="M625 319v1119h204v-1084q0 -55 -10 -104.5t-35.5 -98.5t-65 -84t-103 -57t-144.5 -22t-144.5 22t-103 57t-65 84t-35.5 98.5t-10 104.5v1084h204v-1119q0 -79 38.5 -125.5t115.5 -46.5t115.5 46.5t38.5 125.5z" />
    <glyph glyph-name="V" unicode="V" horiz-adv-x="954" 
d="M596 0h-238l-260 1241q-8 39 -20.5 55.5t-40.5 16.5q-13 0 -26 -5.5t-15 -9.5h-4q0 72 42 111t107 39q60 0 96.5 -38t53.5 -126l184 -981h4l213 1135h205z" />
    <glyph glyph-name="W" unicode="W" horiz-adv-x="1417" 
d="M1120 0h-246l-147 977h-4l-158 -977h-243l-203 1241q-6 38 -20 55t-42 17q-13 0 -26 -5.5t-15 -9.5h-4q0 72 42.5 111t107.5 39q62 0 100 -38t49 -126l140 -1008h4l188 1162h176l178 -1162h4l166 1162h193z" />
    <glyph glyph-name="X" unicode="X" horiz-adv-x="954" 
d="M897 0h-217l-201 522l-217 -522h-205l320 748l-213 493q-2 6 -6.5 16.5t-6.5 14.5t-5.5 12t-6 11t-7 7.5t-9 6t-10.5 3t-13 1.5q-13 0 -26 -5.5t-15 -9.5h-4q0 72 41 111t105 39q59 0 88.5 -34.5t66.5 -129.5l133 -346l193 500h205l-295 -711z" />
    <glyph glyph-name="Y" unicode="Y" horiz-adv-x="901" 
d="M561 0h-205v565l-239 676q-14 40 -26 56t-36 16q-13 0 -26 -5.5t-15 -9.5h-4q0 73 39 111.5t103 38.5q59 0 91 -35.5t60 -128.5l154 -504h4l201 658h188l-289 -873v-565z" />
    <glyph glyph-name="Z" unicode="Z" horiz-adv-x="798" 
d="M686 242h8q43 -50 43 -113q0 -67 -37.5 -104t-99.5 -37q-43 0 -97 28.5t-101.5 57t-75.5 28.5q-41 0 -65.5 -25.5t-28.5 -50.5l-5 -26h-135v84q0 44 7.5 84.5t15 63t22.5 59.5l385 975h-403v172h608v-172l-414 -1047h2q22 43 72 43q36 0 119.5 -40t109.5 -40q59 0 70 60z
" />
    <glyph glyph-name="bracketleft" unicode="[" horiz-adv-x="495" 
d="M461 -319h-324v1757h324v-148h-152v-1462h152v-147z" />
    <glyph glyph-name="backslash" unicode="\" horiz-adv-x="606" 
d="M590 -12h-131l-443 1491h131z" />
    <glyph glyph-name="bracketright" unicode="]" horiz-adv-x="495" 
d="M358 -319h-323v147h151v1462h-151v148h323v-1757z" />
    <glyph glyph-name="asciicircum" unicode="^" horiz-adv-x="1269" 
d="M1030 590h-172l-223 676l-223 -676h-172l315 848h160z" />
    <glyph glyph-name="underscore" unicode="_" horiz-adv-x="1064" 
d="M1044 -256h-1024v102h1024v-102z" />
    <glyph glyph-name="grave" unicode="`" horiz-adv-x="716" 
d="M459 1223h-133l-152 256h184z" />
    <glyph glyph-name="a" unicode="a" horiz-adv-x="763" 
d="M674 0h-193v508q-237 0 -237 -238q0 -80 24 -113.5t76 -33.5q26 0 54 9.5t40 21.5h8q0 -68 -42.5 -117t-124.5 -49q-104 0 -166 61t-62 195q0 160 117 253t313 93v207q0 51 -21 79.5t-79 28.5q-102 0 -102 -106v-74h-193v72q0 114 79 178.5t216 64.5t215 -64.5t78 -195.5
v-780z" />
    <glyph glyph-name="b" unicode="b" horiz-adv-x="806" 
d="M270 0h-180v1479h193v-1250q0 -54 36 -86t82 -32q67 0 96 44t29 154v416q0 104 -27.5 142t-97.5 38q-47 0 -75 -20h-9q0 63 45.5 109t135.5 46q104 0 162.5 -72t58.5 -247v-445q0 -138 -66.5 -213t-195.5 -75q-128 0 -183 86h-4v-74z" />
    <glyph glyph-name="c" unicode="c" horiz-adv-x="761" 
d="M604 322h4q76 -19 76 -132q0 -83 -75.5 -142.5t-207.5 -59.5q-164 0 -239.5 91t-75.5 267v326q0 101 25.5 174.5t71.5 114.5t101 60t122 19q144 0 214 -62.5t70 -174.5v-78h-180v74q0 106 -109 106q-56 0 -89 -45.5t-33 -167.5v-334q0 -223 137 -223q82 0 132 54.5
t56 132.5z" />
    <glyph glyph-name="d" unicode="d" 
d="M715 0h-180v74h-5q-55 -86 -182 -86q-129 0 -195.5 75t-66.5 213v445q0 175 58.5 247t162.5 72q90 0 135 -46t45 -109h-8q-28 20 -76 20q-70 0 -97 -38t-27 -142v-416q0 -111 28.5 -154.5t95.5 -43.5q46 0 82.5 32t36.5 86v1250h193v-1479z" />
    <glyph glyph-name="e" unicode="e" horiz-adv-x="792" 
d="M686 317v-73q0 -256 -297 -256q-303 0 -303 256v479q0 145 86.5 231t233.5 86q134 0 217.5 -74t83.5 -212q0 -162 -117.5 -242t-310.5 -80v-199q0 -61 30.5 -91.5t83.5 -30.5q113 0 113 129v77h180zM279 764v-250q117 0 182 53.5t65 190.5q0 73 -28 116.5t-84 43.5
q-67 0 -101 -35t-34 -119z" />
    <glyph glyph-name="f" unicode="f" horiz-adv-x="581" 
d="M360 0h-192v893h-137v135h137v125q0 159 73.5 242.5t213.5 83.5q100 0 156.5 -52.5t56.5 -123.5q0 -68 -48 -108t-126 -40v8q26 54 26 97q0 69 -63 69q-50 0 -73.5 -39.5t-23.5 -146.5v-115h181v-135h-181v-893z" />
    <glyph glyph-name="g" unicode="g" horiz-adv-x="827" 
d="M256 -33v-8q-27 -33 -27 -76q0 -44 52.5 -77t126.5 -33q88 0 133 35t45 86q0 56 -49 87t-119 44t-139.5 27t-118.5 50.5t-49 100.5q0 107 143 139q-166 65 -166 246v149q0 137 91.5 220t232.5 83q98 0 174 -36q24 24 24 69v139h176v-108q0 -68 -29.5 -104t-94.5 -50
q75 -75 75 -192v-150q0 -136 -90.5 -214.5t-232.5 -78.5q-144 0 -144 -55q0 -26 27.5 -42.5t71 -26t96.5 -19t106 -27t96.5 -43.5t71 -74.5t27.5 -115.5q0 -119 -94.5 -207t-268.5 -88q-151 0 -241 59.5t-90 143.5q0 69 49 108t135 39zM545 596v154q0 80 -36 117.5t-95 37.5
q-60 0 -96.5 -37.5t-36.5 -117.5v-154q0 -145 133 -145q131 0 131 145z" />
    <glyph glyph-name="h" unicode="h" horiz-adv-x="845" 
d="M825 43v-16q-42 -39 -112 -39q-105 0 -148 49.5t-43 167.5v565q0 51 -28 87t-86 36q-55 0 -90 -36t-35 -99v-758h-193v1479h193v-578h4q63 139 207 139q95 0 158 -61.5t63 -171.5v-586q0 -107 21 -142.5t89 -35.5z" />
    <glyph glyph-name="i" unicode="i" horiz-adv-x="425" 
d="M309 0h-192v1028h192v-1028zM213 1208q-47 0 -81 34t-34 81t34 81t81 34t81 -34t34 -81t-34 -81t-81 -34z" />
    <glyph glyph-name="j" unicode="j" horiz-adv-x="430" 
d="M-82 -303v29q103 0 153 42t50 162v1098h192v-1073q0 -158 -67.5 -218.5t-202.5 -60.5q-64 0 -125 21zM217 1208q-47 0 -81 34t-34 81t34 81t81 34t81 -34t34 -81t-34 -81t-81 -34z" />
    <glyph glyph-name="k" unicode="k" horiz-adv-x="804" 
d="M780 145h4q0 -88 -37.5 -122.5t-109.5 -34.5q-78 0 -123 55.5t-45 159.5v127q0 115 -47 162t-135 47h-4v-539h-193v1479h193v-877h4l266 426h190l-286 -434q102 0 153.5 -56.5t51.5 -158.5v-184q0 -72 61 -72q44 0 57 22z" />
    <glyph glyph-name="l" unicode="l" horiz-adv-x="425" 
d="M309 0h-192v1479h192v-1479z" />
    <glyph glyph-name="m" unicode="m" horiz-adv-x="1249" 
d="M778 8v29q94 0 133 40t39 144v477q0 108 -28.5 151.5t-96.5 43.5q-114 0 -114 -150v-743h-193v760q0 71 -24.5 102t-79.5 31q-56 0 -85.5 -43t-29.5 -107v-743h-193v1028h181v-127h4q9 23 23.5 44.5t39 44.5t63.5 36.5t87 13.5q78 0 131 -38.5t67 -100.5q22 66 78 102.5
t123 36.5q124 0 182 -74.5t58 -230.5v-489q0 -138 -61.5 -198t-178.5 -60q-66 0 -125 20z" />
    <glyph glyph-name="n" unicode="n" horiz-adv-x="804" 
d="M391 8v29q75 0 103 38t28 146v549q0 51 -28 87t-86 36q-55 0 -90 -36t-35 -99v-758h-193v1028h180v-139h4q20 62 74.5 106.5t145.5 44.5q95 0 158 -61.5t63 -171.5v-561q0 -141 -52.5 -199.5t-166.5 -58.5q-66 0 -105 20z" />
    <glyph glyph-name="o" unicode="o" 
d="M524 272v484q0 149 -123 149q-122 0 -122 -149v-484q0 -149 122 -149q123 0 123 149zM717 743v-458q0 -131 -87 -214t-229 -83t-228.5 83t-86.5 214v458q0 131 86.5 214t228.5 83t229 -83t87 -214z" />
    <glyph glyph-name="p" unicode="p" horiz-adv-x="804" 
d="M283 -373h-193v1401h180v-119h4q23 54 76.5 92.5t143.5 38.5q95 0 158 -61.5t63 -171.5v-541q0 -82 -18.5 -137.5t-55.5 -85.5t-84 -42.5t-113 -12.5t-125 20v29q50 0 84.5 8t62.5 29.5t42 63t14 104.5v528q0 51 -28 87t-86 36q-55 0 -90 -36t-35 -99v-1131z" />
    <glyph glyph-name="q" unicode="q" horiz-adv-x="804" 
d="M715 -373h-193v1131q0 63 -35 99t-90 36q-58 0 -86 -36t-28 -87v-528q0 -121 50 -163t152 -42v-29q-59 -20 -125 -20q-135 0 -202.5 60t-67.5 218v541q0 110 63 171.5t158 61.5q90 0 143 -38.5t76 -92.5h5v119h180v-1401z" />
    <glyph glyph-name="r" unicode="r" horiz-adv-x="675" 
d="M285 0h-193v1028h180v-250h4q10 57 25 99.5t40.5 81.5t66 60t94.5 21q77 0 120.5 -45t43.5 -118q0 -76 -52 -121t-133 -45v8q37 37 37 82q0 35 -12 51t-45 16q-55 0 -96 -57t-60.5 -144.5t-19.5 -189.5v-477z" />
    <glyph glyph-name="s" unicode="s" horiz-adv-x="749" 
d="M662 707h-173v67q0 66 -23 98.5t-85 32.5q-53 0 -83 -25.5t-30 -74.5q0 -40 23 -75t59.5 -63t81 -56t89 -60t81 -68t59.5 -87t23 -111q0 -135 -77.5 -216t-233.5 -81q-147 0 -226 68t-79 175q0 54 22 93t54 56.5t63.5 27t53.5 10.5h22h8q-6 -7 -15 -20t-23.5 -52.5
t-14.5 -77.5q0 -61 36 -93t103 -32q57 0 89 31t32 84q0 48 -22.5 88.5t-59 70t-80 57.5t-87 58.5t-80 65.5t-59 85.5t-22.5 111.5q0 113 82 179t221 66q133 0 202 -69.5t69 -177.5v-86z" />
    <glyph glyph-name="t" unicode="t" horiz-adv-x="614" 
d="M580 180l4 -2q0 -76 -48.5 -127t-156.5 -51q-113 0 -172.5 69.5t-59.5 192.5v631h-116v135h116v303h193v-303h221v-135h-221v-617q0 -79 25.5 -110t80.5 -31q79 0 134 45z" />
    <glyph glyph-name="u" unicode="u" horiz-adv-x="804" 
d="M715 0h-180v147h-5q-16 -35 -31.5 -59.5t-41 -49.5t-62 -37.5t-84.5 -12.5q-114 0 -167.5 64t-53.5 200v776h193v-739q0 -82 31.5 -118t103.5 -36q41 0 72.5 27t31.5 82v784h193v-1028z" />
    <glyph glyph-name="v" unicode="v" horiz-adv-x="819" 
d="M539 0h-226l-207 836q-10 40 -21.5 55.5t-39.5 15.5q-13 0 -26 -5t-15 -9h-4q0 72 40 108.5t105 36.5q59 0 93.5 -37.5t52.5 -126.5l137 -681h4l164 835h192z" />
    <glyph glyph-name="w" unicode="w" horiz-adv-x="1181" 
d="M934 0h-189l-147 717h-4l-164 -717h-180l-144 836q-6 39 -19 55t-42 16q-13 0 -26 -5t-15 -9h-4q0 72 40 108.5t105 36.5q62 0 98 -37.5t48 -126.5l82 -563h4l151 717h138l165 -717h5l75 717h193z" />
    <glyph glyph-name="x" unicode="x" horiz-adv-x="768" 
d="M752 0h-211l-164 362h-4l-164 -362h-193l263 543l-142 293q-20 41 -33.5 56t-40.5 15q-13 0 -25.5 -5t-14.5 -9h-5q0 145 140 145q33 0 55.5 -8t41.5 -31.5t31.5 -48t35.5 -76.5l71 -161h4l158 315h180l-243 -510z" />
    <glyph glyph-name="y" unicode="y" horiz-adv-x="839" 
d="M516 -373h-180l92 400q-103 0 -151.5 61t-73.5 213l-86 533q-6 38 -20 54.5t-42 16.5q-13 0 -26 -5t-15 -9h-4q0 72 42.5 110.5t107.5 38.5q62 0 100 -37.5t49 -125.5l74 -580q10 -77 26 -100t42 -23h4l161 854h193z" />
    <glyph glyph-name="z" unicode="z" horiz-adv-x="675" 
d="M614 242h9q43 -50 43 -113q0 -66 -37.5 -103.5t-100.5 -37.5q-34 0 -72.5 18t-66.5 39t-60 39t-55 18q-42 0 -59.5 -25t-17.5 -77h-156v23q0 102 51 206l320 652h-340v147h530v-127l-340 -682h2q22 43 72 43q36 0 109.5 -40t99.5 -40q58 0 69 60z" />
    <glyph glyph-name="braceleft" unicode="{" horiz-adv-x="577" 
d="M500 -319h-31q-132 0 -201 66.5t-69 193.5v340q0 110 -27.5 170t-93.5 61v135q65 1 93 61.5t28 170.5v340q0 127 69 193.5t201 66.5h31v-45q-129 0 -129 -193v-393q0 -65 -21 -117.5t-52.5 -81.5t-59 -44.5t-50.5 -20.5v-4q18 -4 39 -14.5t47.5 -32t47 -50.5t35 -74
t14.5 -98v-393q0 -192 129 -192v-45z" />
    <glyph glyph-name="bar" unicode="|" horiz-adv-x="495" 
d="M313 -12h-131v1491h131v-1491z" />
    <glyph glyph-name="braceright" unicode="}" horiz-adv-x="577" 
d="M109 -319h-31v45q129 0 129 192v393q0 53 14 98t35 74t47 50.5t47 32t39 14.5v4q-23 5 -50.5 20.5t-59 44.5t-52 81.5t-20.5 117.5v393q0 193 -129 193v45h31q132 0 201 -66.5t69 -193.5v-340q0 -110 28 -170.5t93 -61.5v-135q-66 -1 -93.5 -61t-27.5 -170v-340
q0 -127 -69 -193.5t-201 -66.5z" />
    <glyph glyph-name="asciitilde" unicode="~" horiz-adv-x="1085" 
d="M891 668h24q0 -146 -57.5 -228t-148.5 -82q-48 0 -99 23t-87.5 51t-83 51t-85.5 23q-95 0 -159 -137h-25q0 132 59.5 220.5t147.5 88.5q48 0 97.5 -23t85 -51t82 -51t89.5 -23q49 0 86 31t74 107z" />
    <glyph glyph-name="uni007F" horiz-adv-x="0" 
 />
    <glyph glyph-name="uni00A0" unicode="&#xa0;" horiz-adv-x="577" 
 />
    <glyph glyph-name="exclamdown" unicode="&#xa1;" horiz-adv-x="495" 
d="M188 737h119q49 -661 49 -1059h-217q0 177 12.5 442t24.5 441zM248 1128q47 0 80.5 -33.5t33.5 -80.5t-33.5 -81t-80.5 -34t-81 34t-34 81t34 80.5t81 33.5z" />
    <glyph glyph-name="cent" unicode="&#xa2;" 
d="M459 -178h-94v166q-103 8 -173.5 75.5t-70.5 180.5v520q0 111 69 183.5t175 92.5v142h94v-142q98 -6 170.5 -64.5t72.5 -152.5v-141h-180v113q0 110 -104 110q-46 0 -75.5 -30t-29.5 -91v-565q0 -44 30 -70t75 -26q44 0 74 27t30 73v123h180v-133q0 -102 -65.5 -159.5
t-177.5 -65.5v-166z" />
    <glyph glyph-name="sterling" unicode="&#xa3;" 
d="M803 0h-764v160h92v522h-92v135h92v291q0 342 332 342q158 0 236.5 -87t78.5 -228v-99h-180v99q0 155 -133 155q-76 0 -108.5 -43.5t-32.5 -134.5v-295h225v-135h-225v-522h479v-160z" />
    <glyph glyph-name="currency" unicode="&#xa4;" 
d="M666 418l-72 69q-78 -65 -186 -65q-119 0 -201 63l-70 -67l-57 57l67 70q-63 82 -63 194q0 113 63 195l-67 70l57 57l70 -68q87 64 201 64q104 0 188 -64l70 68l57 -57l-68 -70q64 -84 64 -195q0 -112 -64 -192l68 -72zM401 524q96 0 152.5 59t56.5 156t-56.5 155
t-152.5 58q-97 0 -154 -58t-57 -155t57.5 -156t153.5 -59z" />
    <glyph glyph-name="yen" unicode="&#xa5;" 
d="M498 0h-193v305h-211v135h211v176h-211v136h168l-211 686h180l168 -582h4l189 582h160l-215 -686h172v-136h-211v-176h211v-135h-211v-305z" />
    <glyph glyph-name="brokenbar" unicode="&#xa6;" horiz-adv-x="495" 
d="M313 -12h-131v561h131v-561zM313 930h-131v561h131v-561z" />
    <glyph glyph-name="section" unicode="&#xa7;" horiz-adv-x="669" 
d="M375 596q42 32 58 58.5t16 70.5q0 91 -146 158q-67 -46 -67 -125q0 -36 21.5 -67t45 -48t72.5 -47zM481 510v-4q144 -76 144 -244q0 -130 -85.5 -202t-232.5 -72q-121 0 -191.5 50.5t-70.5 127.5q0 44 22 73t62 35h8q44 -133 168 -133q71 0 105 30t34 81q0 44 -21 79.5
t-54.5 60t-74.5 47.5t-81.5 48.5t-74 56.5t-54.5 78.5t-21 106.5q0 85 23.5 138.5t89.5 95.5q-59 43 -86 91.5t-27 139.5q0 125 76 190.5t205 65.5q137 0 200.5 -65.5t63.5 -172.5v-71h-182v71q0 43 -22.5 73t-59.5 30q-56 0 -78 -26.5t-22 -86.5q0 -42 21 -73.5t54 -51
t73 -37.5t80.5 -41t73.5 -54t54 -83.5t21 -122.5q0 -197 -140 -229z" />
    <glyph glyph-name="dieresis" unicode="&#xa8;" horiz-adv-x="716" 
d="M190 1221q-38 0 -65 27t-27 65t27 65t65 27t65.5 -27t27.5 -65t-27.5 -65t-65.5 -27zM526 1221q-38 0 -65 27t-27 65t27 65t65 27t65 -27t27 -65t-27 -65t-65 -27z" />
    <glyph glyph-name="copyright" unicode="&#xa9;" horiz-adv-x="1679" 
d="M803 98q163 0 299.5 80.5t214.5 219t78 304.5q0 124 -46 236t-125 193t-189 128.5t-232 47.5q-124 0 -234 -47.5t-188.5 -128.5t-124 -193t-45.5 -236q0 -166 77.5 -304.5t213.5 -219t301 -80.5zM981 549h8q68 -35 68 -123q0 -70 -67.5 -123t-180.5 -53q-134 0 -209.5 85
t-75.5 234v256q0 158 75 244t200 86q133 0 198.5 -75.5t65.5 -235.5h-150q0 101 -24.5 136.5t-89.5 35.5q-64 0 -95.5 -43t-31.5 -150v-254q0 -103 34.5 -147.5t104.5 -44.5q75 0 112.5 45.5t57.5 126.5zM803 -12q-193 0 -358 96t-261 260.5t-96 357.5q0 145 57 277t153 228
t228 153t277 57t277 -57t228 -153t153 -228t57 -277q0 -193 -96 -357.5t-261 -260.5t-358 -96z" />
    <glyph glyph-name="ordfeminine" unicode="&#xaa;" horiz-adv-x="483" 
d="M428 883h-135v307q-46 0 -74.5 -32t-28.5 -103q0 -40 10 -53t27 -13q19 0 33 21h4q10 -25 10 -49q0 -39 -23.5 -63t-72.5 -24q-56 0 -89.5 39t-33.5 117q0 100 59.5 155t178.5 58v90q0 64 -47 64q-49 0 -49 -64v-51h-136v47q0 72 49 117t136 45q83 0 132.5 -37.5
t49.5 -120.5v-450z" />
    <glyph glyph-name="guillemotleft" unicode="&#xab;" horiz-adv-x="722" 
d="M375 113h-148l-164 405l164 406h148l-119 -406zM659 113h-147l-164 405l164 406h147l-118 -406z" />
    <glyph glyph-name="logicalnot" unicode="&#xac;" horiz-adv-x="1269" 
d="M1153 219h-111v488h-925v110h1036v-598z" />
    <glyph glyph-name="uni00AD" unicode="&#xad;" horiz-adv-x="647" 
d="M571 438h-495v160h495v-160z" />
    <glyph glyph-name="registered" unicode="&#xae;" horiz-adv-x="1605" 
d="M803 98q163 0 299.5 80.5t214.5 219t78 304.5q0 124 -46 236t-125 193t-189 128.5t-232 47.5q-124 0 -234 -47.5t-188.5 -128.5t-124 -193t-45.5 -236q0 -166 77.5 -304.5t213.5 -219t301 -80.5zM803 -12q-193 0 -358 96t-261 260.5t-96 357.5q0 145 57 277t153 228
t228 153t277 57t277 -57t228 -153t153 -228t57 -277q0 -193 -96 -357.5t-261 -260.5t-358 -96zM1124 383h4q0 -64 -31 -92.5t-83 -28.5q-60 0 -94.5 43t-34.5 123v70q0 87 -34 114t-106 27h-45v-371h-147v858h233q146 0 215.5 -58t69.5 -177q0 -79 -52 -136.5t-136 -64.5
q61 0 105 -40.5t44 -112.5v-115q0 -57 49 -57q32 0 43 18zM700 764h72q69 0 104 30.5t35 98.5q0 113 -129 113h-82v-242z" />
    <glyph glyph-name="macron" unicode="&#xaf;" horiz-adv-x="716" 
d="M608 1233h-499v133h499v-133z" />
    <glyph glyph-name="degree" unicode="&#xb0;" horiz-adv-x="860" 
d="M430 877q-128 0 -217.5 89.5t-89.5 217.5t89.5 217.5t217.5 89.5t217.5 -89.5t89.5 -217.5t-89.5 -217.5t-217.5 -89.5zM614 1184q0 76 -54 130t-130 54t-130 -54t-54 -130q0 -77 54 -131t130 -54t130 54t54 131z" />
    <glyph glyph-name="plusminus" unicode="&#xb1;" horiz-adv-x="972" 
d="M545 213h-117v397h-381v117h381v399h117v-399h381v-117h-381v-397zM926 0h-879v115h879v-115z" />
    <glyph glyph-name="twosuperior" unicode="&#xb2;" horiz-adv-x="532" 
d="M479 1006h-428v122q29 45 59 94t48.5 80.5t47.5 82.5t42 73q42 72 58 131t16 137q0 43 -13.5 57.5t-38.5 14.5q-51 0 -51 -76v-84h-160v91q5 81 59.5 126.5t151.5 45.5q98 0 154.5 -53t56.5 -154q0 -72 -12 -122t-49 -116l-203 -328h262v-122z" />
    <glyph glyph-name="threesuperior" unicode="&#xb3;" horiz-adv-x="532" 
d="M322 1200v105q0 53 -22 73.5t-81 20.5h-31v123h39q53 0 71.5 19t18.5 75v117q0 65 -45 65q-29 0 -43 -14.5t-14 -61.5v-73h-160v73q0 84 58.5 131.5t158.5 47.5q205 0 205 -238q0 -72 -17 -115t-43 -59.5t-69 -24.5v-4q48 -5 74.5 -24t42.5 -73t16 -153q0 -101 -56 -157
t-161 -56q-100 0 -156.5 44.5t-56.5 117.5q0 69 40.5 106.5t94.5 37.5q37 0 64 -19v-6q-43 -37 -43 -98q0 -40 11.5 -60t45.5 -20q30 0 44 23.5t14 76.5z" />
    <glyph glyph-name="acute" unicode="&#xb4;" horiz-adv-x="716" 
d="M391 1223h-135l102 256h185z" />
    <glyph glyph-name="mu" unicode="&#xb5;" horiz-adv-x="804" 
d="M715 0h-180v147h-5q-12 -75 -52 -117t-99 -42q-34 0 -59.5 12.5t-36.5 30.5v-404h-193v1401h193v-715q0 -84 28.5 -131t85.5 -47q61 0 93 35t32 115v743h193v-1028z" />
    <glyph glyph-name="paragraph" unicode="&#xb6;" horiz-adv-x="880" 
d="M762 0h-160v1356h-147v-1356h-160v838q-105 0 -173.5 91.5t-68.5 223.5q0 153 89.5 239.5t230.5 86.5h389v-1479z" />
    <glyph glyph-name="middot" unicode="&#xb7;" horiz-adv-x="872" 
d="M436 565q-43 0 -72.5 30t-29.5 73t29.5 72.5t72.5 29.5t73 -29.5t30 -72.5t-30 -73t-73 -30z" />
    <glyph glyph-name="cedilla" unicode="&#xb8;" horiz-adv-x="716" 
d="M266 -322v5q101 0 101 88q0 80 -91 127l37 118h131l-38 -102q38 -19 66 -62.5t28 -97.5q0 -74 -44 -119t-102 -45q-41 0 -64.5 25t-23.5 63z" />
    <glyph glyph-name="onesuperior" unicode="&#xb9;" horiz-adv-x="532" 
d="M383 1008h-160v692h-4l-121 -47v121l178 106h107v-872z" />
    <glyph glyph-name="ordmasculine" unicode="&#xba;" horiz-adv-x="532" 
d="M453 1323v-270q0 -81 -44 -130t-141 -49q-92 0 -140 43t-48 123v271q0 82 44 131t142 49q92 0 139.5 -43t47.5 -125zM317 1044v277q0 76 -49 76q-53 0 -53 -76v-277q0 -37 12 -56t41 -19q49 0 49 75z" />
    <glyph glyph-name="guillemotright" unicode="&#xbb;" horiz-adv-x="722" 
d="M211 113h-148l119 405l-119 406h148l164 -406zM496 113h-148l119 405l-119 406h148l163 -406z" />
    <glyph glyph-name="onequarter" unicode="&#xbc;" horiz-adv-x="1064" 
d="M950 0h-159v168h-230v115l264 589h125v-585h54v-119h-54v-168zM791 287v262h-3l-108 -262h111zM352 610h-159v693h-5l-120 -48v121l178 107h106v-873zM365 -12h-123l465 1503h122z" />
    <glyph glyph-name="onehalf" unicode="&#xbd;" horiz-adv-x="1153" 
d="M352 610h-159v693h-5l-120 -48v121l178 107h106v-873zM365 -12h-123l465 1503h122zM1090 -8h-428v123q38 58 69.5 110t75.5 129.5t51 89.5q42 72 58 131.5t16 137.5q0 43 -13 57t-38 14q-52 0 -52 -75v-84h-159v90q5 81 59.5 126.5t151.5 45.5q98 0 154.5 -53t56.5 -154
q0 -72 -12.5 -121.5t-49.5 -116.5l-203 -327h263v-123z" />
    <glyph glyph-name="threequarters" unicode="&#xbe;" horiz-adv-x="1200" 
d="M1085 0h-159v168h-230v115l265 589h124v-585h54v-119h-54v-168zM926 287v262h-2l-109 -262h111zM399 858v105q0 53 -21.5 73.5t-80.5 20.5h-31v123h39q53 0 71.5 19t18.5 75v117q0 65 -45 65q-29 0 -43 -14.5t-14 -61.5v-73h-160v73q0 84 58.5 131.5t158.5 47.5
q205 0 205 -238q0 -72 -17 -115t-43 -59.5t-69 -24.5v-4q48 -5 74.5 -24t42.5 -73t16 -153q0 -101 -56 -157t-161 -56q-100 0 -156.5 44.5t-56.5 117.5q0 69 40.5 106.5t94.5 37.5q37 0 64 -19v-6q-43 -37 -43 -98q0 -40 11.5 -60t45.5 -20q30 0 43.5 23.5t13.5 76.5z
M502 -12h-123l465 1503h123z" />
    <glyph glyph-name="questiondown" unicode="&#xbf;" horiz-adv-x="759" 
d="M319 788h160v-204q0 -67 -22 -132.5t-53.5 -119.5t-63.5 -109t-54 -122t-22 -136q0 -56 30.5 -96.5t84.5 -40.5q65 0 102 39t37 106q0 44 -21 81.5t-42 53.5l-21 15l6 6q38 14 80 14q74 0 121 -52t47 -154q0 -110 -80 -187.5t-225 -77.5q-156 0 -233.5 81t-77.5 216
q0 74 25.5 147t62 131.5t72.5 115t61.5 118t25.5 119.5v188zM399 1128q47 0 81 -33.5t34 -80.5t-34 -81t-81 -34t-80.5 34t-33.5 81t33.5 80.5t80.5 33.5z" />
    <glyph glyph-name="Agrave" unicode="&#xc0;" horiz-adv-x="991" 
d="M924 0h-201l-72 377h-313l-70 -377h-200l309 1438h237zM623 528l-125 672h-4l-127 -672h256zM604 1536h-133l-152 256h185z" />
    <glyph glyph-name="Aacute" unicode="&#xc1;" horiz-adv-x="991" 
d="M924 0h-201l-72 377h-313l-70 -377h-200l309 1438h237zM623 528l-125 672h-4l-127 -672h256zM541 1536h-135l102 256h184z" />
    <glyph glyph-name="Acircumflex" unicode="&#xc2;" horiz-adv-x="991" 
d="M924 0h-201l-72 377h-313l-70 -377h-200l309 1438h237zM623 528l-125 672h-4l-127 -672h256zM758 1499l-260 113l-260 -113v146l256 110h8l256 -110v-146z" />
    <glyph glyph-name="Atilde" unicode="&#xc3;" horiz-adv-x="991" 
d="M924 0h-201l-72 377h-313l-70 -377h-200l309 1438h237zM623 528l-125 672h-4l-127 -672h256zM668 1741h80q-1 -36 -5 -64.5t-14 -57.5t-26 -48t-42.5 -31t-62.5 -12q-50 0 -115 32.5t-94 32.5q-48 0 -61 -77h-80q11 213 149 213q53 0 127 -33t92 -33q24 0 35.5 19
t16.5 59z" />
    <glyph glyph-name="Adieresis" unicode="&#xc4;" horiz-adv-x="991" 
d="M924 0h-201l-72 377h-313l-70 -377h-200l309 1438h237zM623 528l-125 672h-4l-127 -672h256zM330 1536q-38 0 -65 27t-27 65t27 65t65 27t65 -27t27 -65t-27 -65t-65 -27zM666 1536q-38 0 -65.5 27t-27.5 65t27.5 65t65.5 27t65 -27t27 -65t-27 -65t-65 -27z" />
    <glyph glyph-name="Aring" unicode="&#xc5;" horiz-adv-x="991" 
d="M924 0h-201l-72 377h-313l-70 -377h-200l299 1397q-56 53 -56 133q0 76 54 130t131 54q76 0 130 -54t54 -130q0 -79 -57 -133zM623 528l-125 672h-4l-127 -672h256zM586 1530q0 37 -26.5 63.5t-63.5 26.5t-63.5 -26.5t-26.5 -63.5t26.5 -63.5t63.5 -26.5t63.5 26.5
t26.5 63.5z" />
    <glyph glyph-name="AE" unicode="&#xc6;" horiz-adv-x="1306" 
d="M1167 285h9q40 -6 62 -35.5t22 -73.5q0 -78 -69.5 -133t-203.5 -55q-139 0 -214.5 78.5t-86.5 230.5l-6 80h-303l-109 -377h-200l444 1438h741v-172h-454l37 -443h397v-151h-385l33 -373q7 -77 34.5 -107t81.5 -30q130 0 170 123zM670 528l-47 672h-5l-196 -672h248z" />
    <glyph glyph-name="Ccedilla" unicode="&#xc7;" horiz-adv-x="819" 
d="M352 -322v5q101 0 101 88q0 80 -91 127l29 94q-137 17 -207.5 111.5t-70.5 240.5v721q0 190 87 287.5t251 97.5q150 0 228.5 -76.5t78.5 -216.5v-149h-193v133q0 72 -30 110.5t-89 38.5q-65 0 -97 -50.5t-32 -178.5v-725q0 -82 35.5 -128t104.5 -46q73 0 107 60t36 149h8
q35 -5 56.5 -10.5t44 -19.5t33 -40.5t10.5 -67.5q0 -78 -63 -148t-167 -89l-30 -82q38 -19 66 -62.5t28 -97.5q0 -74 -44 -119t-102 -45q-41 0 -64.5 25t-23.5 63z" />
    <glyph glyph-name="Egrave" unicode="&#xc8;" horiz-adv-x="745" 
d="M588 285h8q40 -6 62 -35.5t22 -73.5q0 -79 -63 -133.5t-195 -54.5q-143 0 -224 78.5t-81 230.5v1141h557v-172h-352v-443h331v-151h-331v-373q0 -137 110 -137q68 0 102 31.5t54 91.5zM498 1536h-133l-152 256h184z" />
    <glyph glyph-name="Eacute" unicode="&#xc9;" horiz-adv-x="745" 
d="M588 285h8q40 -6 62 -35.5t22 -73.5q0 -79 -63 -133.5t-195 -54.5q-143 0 -224 78.5t-81 230.5v1141h557v-172h-352v-443h331v-151h-331v-373q0 -137 110 -137q68 0 102 31.5t54 91.5zM459 1536h-135l102 256h184z" />
    <glyph glyph-name="Ecircumflex" unicode="&#xca;" horiz-adv-x="745" 
d="M588 285h8q40 -6 62 -35.5t22 -73.5q0 -79 -63 -133.5t-195 -54.5q-143 0 -224 78.5t-81 230.5v1141h557v-172h-352v-443h331v-151h-331v-373q0 -137 110 -137q68 0 102 31.5t54 91.5zM651 1526l-260 112l-260 -112v145l256 111h8l256 -111v-145z" />
    <glyph glyph-name="Edieresis" unicode="&#xcb;" horiz-adv-x="745" 
d="M588 285h8q40 -6 62 -35.5t22 -73.5q0 -79 -63 -133.5t-195 -54.5q-143 0 -224 78.5t-81 230.5v1141h557v-172h-352v-443h331v-151h-331v-373q0 -137 110 -137q68 0 102 31.5t54 91.5zM240 1536q-38 0 -65.5 27t-27.5 65t27.5 65t65.5 27t65 -27t27 -65t-27 -65t-65 -27z
M575 1536q-38 0 -65 27t-27 65t27 65t65 27t65.5 -27t27.5 -65t-27.5 -65t-65.5 -27z" />
    <glyph glyph-name="Igrave" unicode="&#xcc;" horiz-adv-x="450" 
d="M328 0h-205v1438h205v-1438zM256 1546h-133l-152 256h185z" />
    <glyph glyph-name="Iacute" unicode="&#xcd;" horiz-adv-x="450" 
d="M328 0h-205v1438h205v-1438zM330 1536h-135l102 256h184z" />
    <glyph glyph-name="Icircumflex" unicode="&#xce;" horiz-adv-x="450" 
d="M328 0h-205v1438h205v-1438zM483 1526l-260 112l-260 -112v145l256 111h8l256 -111v-145z" />
    <glyph glyph-name="Idieresis" unicode="&#xcf;" horiz-adv-x="450" 
d="M328 0h-205v1438h205v-1438zM57 1536q-38 0 -65 27t-27 65t27 65t65 27t65.5 -27t27.5 -65t-27.5 -65t-65.5 -27zM393 1536q-38 0 -65 27t-27 65t27 65t65 27t65 -27t27 -65t-27 -65t-65 -27z" />
    <glyph glyph-name="Eth" unicode="&#xd0;" horiz-adv-x="956" 
d="M422 0h-264v649h-117v133h117v656h241q224 0 335.5 -116t111.5 -339v-586q0 -198 -116 -297.5t-308 -99.5zM641 397v586q0 170 -50.5 232.5t-193.5 62.5h-35v-496h179v-133h-179v-489h60q111 0 165 53.5t54 183.5z" />
    <glyph glyph-name="Ntilde" unicode="&#xd1;" horiz-adv-x="954" 
d="M838 0h-162l-375 985h-4v-985h-180v1438h180l344 -881h4v881h193v-1438zM651 1739h80q-2 -46 -8 -80t-21.5 -66.5t-45.5 -49.5t-74 -17q-50 0 -115 32.5t-94 32.5q-49 0 -62 -78h-80q11 213 150 213q53 0 127 -32.5t92 -32.5q24 0 35 19t16 59z" />
    <glyph glyph-name="Ograve" unicode="&#xd2;" horiz-adv-x="942" 
d="M829 1061v-707q0 -366 -358 -366t-358 366v707q0 81 19 148.5t59.5 123t112 86.5t167.5 31t167.5 -31t112 -86.5t59.5 -123t19 -148.5zM625 342v735q0 213 -154 213t-154 -213v-735q0 -95 43.5 -145t110.5 -50t110.5 50t43.5 145zM547 1536h-133l-152 256h184z" />
    <glyph glyph-name="Oacute" unicode="&#xd3;" horiz-adv-x="942" 
d="M829 1061v-707q0 -366 -358 -366t-358 366v707q0 81 19 148.5t59.5 123t112 86.5t167.5 31t167.5 -31t112 -86.5t59.5 -123t19 -148.5zM625 342v735q0 213 -154 213t-154 -213v-735q0 -95 43.5 -145t110.5 -50t110.5 50t43.5 145zM539 1536h-136l103 256h184z" />
    <glyph glyph-name="Ocircumflex" unicode="&#xd4;" horiz-adv-x="942" 
d="M829 1061v-707q0 -366 -358 -366t-358 366v707q0 81 19 148.5t59.5 123t112 86.5t167.5 31t167.5 -31t112 -86.5t59.5 -123t19 -148.5zM625 342v735q0 213 -154 213t-154 -213v-735q0 -95 43.5 -145t110.5 -50t110.5 50t43.5 145zM727 1526l-260 112l-260 -112v145
l256 111h8l256 -111v-145z" />
    <glyph glyph-name="Otilde" unicode="&#xd5;" horiz-adv-x="942" 
d="M829 1061v-707q0 -366 -358 -366t-358 366v707q0 81 19 148.5t59.5 123t112 86.5t167.5 31t167.5 -31t112 -86.5t59.5 -123t19 -148.5zM625 342v735q0 213 -154 213t-154 -213v-735q0 -95 43.5 -145t110.5 -50t110.5 50t43.5 145zM641 1739h80q-1 -36 -5 -64.5t-14 -57.5
t-26 -48t-42.5 -31t-62.5 -12q-51 0 -115 32.5t-94 32.5q-48 0 -61 -78h-80q11 213 150 213q53 0 127 -32.5t92 -32.5q24 0 35 19t16 59z" />
    <glyph glyph-name="Odieresis" unicode="&#xd6;" horiz-adv-x="942" 
d="M829 1061v-707q0 -366 -358 -366t-358 366v707q0 81 19 148.5t59.5 123t112 86.5t167.5 31t167.5 -31t112 -86.5t59.5 -123t19 -148.5zM625 342v735q0 213 -154 213t-154 -213v-735q0 -95 43.5 -145t110.5 -50t110.5 50t43.5 145zM303 1536q-38 0 -65 27t-27 65t27 65
t65 27t65 -27t27 -65t-27 -65t-65 -27zM639 1536q-38 0 -65 27t-27 65t27 65t65 27t65 -27t27 -65t-27 -65t-65 -27z" />
    <glyph glyph-name="multiply" unicode="&#xd7;" horiz-adv-x="1269" 
d="M1083 147l-77 -77l-371 370l-371 -370l-78 77l371 371l-371 371l78 78l371 -371l371 371l77 -78l-370 -371z" />
    <glyph glyph-name="Oslash" unicode="&#xd8;" horiz-adv-x="942" 
d="M215 -70h-86l57 168q-73 87 -73 256v707q0 81 19 148.5t59.5 123t112 86.5t167.5 31q90 0 168 -33l39 115h90l-55 -160q116 -102 116 -311v-707q0 -366 -358 -366q-134 0 -219 51zM625 342v735q0 25 -2 35l-295 -854q34 -111 143 -111q67 0 110.5 50t43.5 145zM317 479
l263 766q-39 45 -109 45q-154 0 -154 -213v-598z" />
    <glyph glyph-name="Ugrave" unicode="&#xd9;" horiz-adv-x="942" 
d="M625 319v1119h204v-1084q0 -55 -10 -104.5t-35.5 -98.5t-65 -84t-103 -57t-144.5 -22t-144.5 22t-103 57t-65 84t-35.5 98.5t-10 104.5v1084h204v-1119q0 -79 38.5 -125.5t115.5 -46.5t115.5 46.5t38.5 125.5zM537 1536h-134l-151 256h184z" />
    <glyph glyph-name="Uacute" unicode="&#xda;" horiz-adv-x="942" 
d="M625 319v1119h204v-1084q0 -55 -10 -104.5t-35.5 -98.5t-65 -84t-103 -57t-144.5 -22t-144.5 22t-103 57t-65 84t-35.5 98.5t-10 104.5v1084h204v-1119q0 -79 38.5 -125.5t115.5 -46.5t115.5 46.5t38.5 125.5zM539 1536h-136l103 256h184z" />
    <glyph glyph-name="Ucircumflex" unicode="&#xdb;" horiz-adv-x="942" 
d="M625 319v1119h204v-1084q0 -55 -10 -104.5t-35.5 -98.5t-65 -84t-103 -57t-144.5 -22t-144.5 22t-103 57t-65 84t-35.5 98.5t-10 104.5v1084h204v-1119q0 -79 38.5 -125.5t115.5 -46.5t115.5 46.5t38.5 125.5zM731 1524l-260 112l-260 -112v145l256 111h8l256 -111v-145z
" />
    <glyph glyph-name="Udieresis" unicode="&#xdc;" horiz-adv-x="942" 
d="M625 319v1119h204v-1084q0 -55 -10 -104.5t-35.5 -98.5t-65 -84t-103 -57t-144.5 -22t-144.5 22t-103 57t-65 84t-35.5 98.5t-10 104.5v1084h204v-1119q0 -79 38.5 -125.5t115.5 -46.5t115.5 46.5t38.5 125.5zM303 1536q-38 0 -65 27t-27 65t27 65t65 27t65 -27t27 -65
t-27 -65t-65 -27zM639 1536q-38 0 -65 27t-27 65t27 65t65 27t65 -27t27 -65t-27 -65t-65 -27z" />
    <glyph glyph-name="Yacute" unicode="&#xdd;" horiz-adv-x="901" 
d="M561 0h-205v565l-239 676q-14 40 -26 56t-36 16q-13 0 -26 -5.5t-15 -9.5h-4q0 73 39 111.5t103 38.5q59 0 91 -35.5t60 -128.5l154 -504h4l201 658h188l-289 -873v-565zM512 1534h-135l102 256h185z" />
    <glyph glyph-name="Thorn" unicode="&#xde;" horiz-adv-x="878" 
d="M322 0h-205v1436h205v-248h28q477 0 477 -438q0 -98 -28.5 -173.5t-78 -120t-111 -67t-132.5 -22.5q-76 0 -137 28v8q63 14 110 35.5t88.5 60t63 101.5t21.5 150q0 84 -19 140t-57.5 85.5t-86.5 41t-116 11.5h-22v-1028z" />
    <glyph glyph-name="germandbls" unicode="&#xdf;" horiz-adv-x="878" 
d="M283 0h-193v1167q0 154 90 239t246 85q152 0 229.5 -87.5t77.5 -217.5v-172q-29 -15 -49 -27.5t-44.5 -33.5t-37 -48t-12.5 -59q0 -57 23 -115.5t56 -110t65.5 -103.5t55.5 -114t23 -124q0 -133 -69.5 -212t-204.5 -79q-100 0 -147.5 43.5t-47.5 95.5q0 77 66 90h8
q22 -96 110 -96q48 0 70.5 38t22.5 122q0 60 -23 121t-56 113t-66 103.5t-56 110.5t-23 115q0 49 25 93.5t51.5 68.5t67.5 53v119q0 165 -123 165q-61 0 -98 -37.5t-37 -121.5v-1184z" />
    <glyph glyph-name="agrave" unicode="&#xe0;" horiz-adv-x="763" 
d="M674 0h-193v508q-237 0 -237 -238q0 -80 24 -113.5t76 -33.5q26 0 54 9.5t40 21.5h8q0 -68 -42.5 -117t-124.5 -49q-104 0 -166 61t-62 195q0 160 117 253t313 93v207q0 51 -21 79.5t-79 28.5q-102 0 -102 -106v-74h-193v72q0 114 79 178.5t216 64.5t215 -64.5t78 -195.5
v-780zM453 1223h-134l-151 256h184z" />
    <glyph glyph-name="aacute" unicode="&#xe1;" horiz-adv-x="763" 
d="M674 0h-193v508q-237 0 -237 -238q0 -80 24 -113.5t76 -33.5q26 0 54 9.5t40 21.5h8q0 -68 -42.5 -117t-124.5 -49q-104 0 -166 61t-62 195q0 160 117 253t313 93v207q0 51 -21 79.5t-79 28.5q-102 0 -102 -106v-74h-193v72q0 114 79 178.5t216 64.5t215 -64.5t78 -195.5
v-780zM428 1223h-135l102 256h185z" />
    <glyph glyph-name="acircumflex" unicode="&#xe2;" horiz-adv-x="763" 
d="M674 0h-193v508q-237 0 -237 -238q0 -80 24 -113.5t76 -33.5q26 0 54 9.5t40 21.5h8q0 -68 -42.5 -117t-124.5 -49q-104 0 -166 61t-62 195q0 160 117 253t313 93v207q0 51 -21 79.5t-79 28.5q-102 0 -102 -106v-74h-193v72q0 114 79 178.5t216 64.5t215 -64.5t78 -195.5
v-780zM643 1233l-260 113l-260 -113v145l256 111h8l256 -111v-145z" />
    <glyph glyph-name="atilde" unicode="&#xe3;" horiz-adv-x="763" 
d="M674 0h-193v508q-237 0 -237 -238q0 -80 24 -113.5t76 -33.5q26 0 54 9.5t40 21.5h8q0 -68 -42.5 -117t-124.5 -49q-104 0 -166 61t-62 195q0 160 117 253t313 93v207q0 51 -21 79.5t-79 28.5q-102 0 -102 -106v-74h-193v72q0 114 79 178.5t216 64.5t215 -64.5t78 -195.5
v-780zM547 1481h80q-1 -36 -5 -64.5t-14 -57.5t-26 -48t-42.5 -31t-62.5 -12q-51 0 -115 32.5t-94 32.5q-48 0 -61 -78h-80q11 213 149 213q53 0 127.5 -32.5t92.5 -32.5q24 0 35 19t16 59z" />
    <glyph glyph-name="adieresis" unicode="&#xe4;" horiz-adv-x="763" 
d="M674 0h-193v508q-237 0 -237 -238q0 -80 24 -113.5t76 -33.5q26 0 54 9.5t40 21.5h8q0 -68 -42.5 -117t-124.5 -49q-104 0 -166 61t-62 195q0 160 117 253t313 93v207q0 51 -21 79.5t-79 28.5q-102 0 -102 -106v-74h-193v72q0 114 79 178.5t216 64.5t215 -64.5t78 -195.5
v-780zM213 1221q-38 0 -65 27t-27 65t27 65t65 27t65 -27t27 -65t-27 -65t-65 -27zM549 1221q-38 0 -65 27t-27 65t27 65t65 27t65 -27t27 -65t-27 -65t-65 -27z" />
    <glyph glyph-name="aring" unicode="&#xe5;" horiz-adv-x="763" 
d="M674 0h-193v508q-237 0 -237 -238q0 -80 24 -113.5t76 -33.5q26 0 54 9.5t40 21.5h8q0 -68 -42.5 -117t-124.5 -49q-104 0 -166 61t-62 195q0 160 117 253t313 93v207q0 51 -21 79.5t-79 28.5q-102 0 -102 -106v-74h-193v72q0 114 79 178.5t216 64.5t215 -64.5t78 -195.5
v-780zM389 1165q-76 0 -130 54t-54 131q0 76 53.5 130t130.5 54t130.5 -54t53.5 -130q0 -77 -54 -131t-130 -54zM479 1350q0 37 -26.5 63.5t-63.5 26.5t-63.5 -26.5t-26.5 -63.5t26.5 -63.5t63.5 -26.5t63.5 26.5t26.5 63.5z" />
    <glyph glyph-name="ae" unicode="&#xe6;" horiz-adv-x="1183" 
d="M1081 317v-73q0 -120 -76 -188t-231 -68q-293 0 -293 256v252q-120 0 -178.5 -55t-58.5 -171q0 -80 24 -113.5t76 -33.5q26 0 54 9.5t40 21.5h8q0 -68 -42.5 -117t-124.5 -49q-104 0 -166 61t-62 195q0 159 116 246.5t314 87.5v219q0 51 -21 79.5t-79 28.5
q-102 0 -102 -106v-74h-193v72q0 114 79 178.5t216 64.5q138 0 213 -63q86 63 207 63q134 0 217.5 -74t83.5 -212q0 -83 -32.5 -144t-91.5 -96.5t-134.5 -52.5t-169.5 -17v-211q0 -61 30.5 -91.5t83.5 -30.5q113 0 113 129v77h180zM674 780v-254q58 0 99 9t77 33.5t54 71.5
t18 118q0 73 -28.5 116.5t-84.5 43.5q-64 0 -98 -31.5t-37 -106.5z" />
    <glyph glyph-name="ccedilla" unicode="&#xe7;" horiz-adv-x="761" 
d="M291 -322v5q100 0 100 88q0 81 -90 127l29 96q-244 42 -244 352v326q0 101 25.5 174.5t71.5 114.5t101 60t122 19q144 0 214 -62.5t70 -174.5v-78h-180v74q0 106 -109 106q-56 0 -89 -45.5t-33 -167.5v-334q0 -112 39 -167.5t108 -55.5q81 0 126 53.5t52 133.5h4
q76 -19 76 -132q0 -76 -58 -132t-167 -66l-29 -78q38 -19 66 -62.5t28 -97.5q0 -74 -43.5 -119t-101.5 -45q-41 0 -64.5 25t-23.5 63z" />
    <glyph glyph-name="egrave" unicode="&#xe8;" horiz-adv-x="792" 
d="M686 317v-73q0 -256 -297 -256q-303 0 -303 256v479q0 145 86.5 231t233.5 86q134 0 217.5 -74t83.5 -212q0 -162 -117.5 -242t-310.5 -80v-199q0 -61 30.5 -91.5t83.5 -30.5q113 0 113 129v77h180zM279 764v-250q117 0 182 53.5t65 190.5q0 73 -28 116.5t-84 43.5
q-67 0 -101 -35t-34 -119zM473 1223h-133l-152 256h185z" />
    <glyph glyph-name="eacute" unicode="&#xe9;" horiz-adv-x="792" 
d="M686 317v-73q0 -256 -297 -256q-303 0 -303 256v479q0 145 86.5 231t233.5 86q134 0 217.5 -74t83.5 -212q0 -162 -117.5 -242t-310.5 -80v-199q0 -61 30.5 -91.5t83.5 -30.5q113 0 113 129v77h180zM279 764v-250q117 0 182 53.5t65 190.5q0 73 -28 116.5t-84 43.5
q-67 0 -101 -35t-34 -119zM444 1223h-135l103 256h184z" />
    <glyph glyph-name="ecircumflex" unicode="&#xea;" horiz-adv-x="792" 
d="M686 317v-73q0 -256 -297 -256q-303 0 -303 256v479q0 145 86.5 231t233.5 86q134 0 217.5 -74t83.5 -212q0 -162 -117.5 -242t-310.5 -80v-199q0 -61 30.5 -91.5t83.5 -30.5q113 0 113 129v77h180zM279 764v-250q117 0 182 53.5t65 190.5q0 73 -28 116.5t-84 43.5
q-67 0 -101 -35t-34 -119zM662 1233l-261 113l-260 -113v145l256 111h9l256 -111v-145z" />
    <glyph glyph-name="edieresis" unicode="&#xeb;" horiz-adv-x="792" 
d="M686 317v-73q0 -256 -297 -256q-303 0 -303 256v479q0 145 86.5 231t233.5 86q134 0 217.5 -74t83.5 -212q0 -162 -117.5 -242t-310.5 -80v-199q0 -61 30.5 -91.5t83.5 -30.5q113 0 113 129v77h180zM279 764v-250q117 0 182 53.5t65 190.5q0 73 -28 116.5t-84 43.5
q-67 0 -101 -35t-34 -119zM233 1221q-38 0 -65 27t-27 65t27 65t65 27t65.5 -27t27.5 -65t-27.5 -65t-65.5 -27zM569 1221q-38 0 -65 27t-27 65t27 65t65 27t65.5 -27t27.5 -65t-27.5 -65t-65.5 -27z" />
    <glyph glyph-name="igrave" unicode="&#xec;" horiz-adv-x="425" 
d="M309 0h-192v1028h192v-1028zM301 1223h-133l-152 256h185z" />
    <glyph glyph-name="iacute" unicode="&#xed;" horiz-adv-x="425" 
d="M309 0h-192v1028h192v-1028zM254 1223h-135l102 256h185z" />
    <glyph glyph-name="icircumflex" unicode="&#xee;" horiz-adv-x="425" 
d="M309 0h-192v1028h192v-1028zM469 1233l-260 113l-260 -113v145l256 111h8l256 -111v-145z" />
    <glyph glyph-name="idieresis" unicode="&#xef;" horiz-adv-x="425" 
d="M309 0h-192v1028h192v-1028zM41 1221q-38 0 -65 27t-27 65t27 65t65 27t65 -27t27 -65t-27 -65t-65 -27zM377 1221q-38 0 -65 27t-27 65t27 65t65 27t65 -27t27 -65t-27 -65t-65 -27z" />
    <glyph glyph-name="eth" unicode="&#xf0;" horiz-adv-x="804" 
d="M524 252v524q0 58 -36.5 93.5t-84.5 35.5q-57 0 -89.5 -35t-32.5 -104v-514q0 -59 36.5 -94t85.5 -35q48 0 84.5 35.5t36.5 93.5zM717 815v-551q0 -127 -90 -201.5t-224 -74.5q-58 0 -111.5 14t-100.5 42.5t-75 80t-28 119.5v520q0 128 79.5 202t203.5 74q134 0 180 -100
l4 4q-3 189 -59 283l-148 -72l-61 80l149 74q-63 69 -164 110l142 72q98 -40 161 -115l142 70l61 -80l-147 -72q86 -155 86 -479z" />
    <glyph glyph-name="ntilde" unicode="&#xf1;" horiz-adv-x="804" 
d="M391 8v29q75 0 103 38t28 146v549q0 51 -28 87t-86 36q-55 0 -90 -36t-35 -99v-758h-193v1028h180v-139h4q20 62 74.5 106.5t145.5 44.5q95 0 158 -61.5t63 -171.5v-561q0 -141 -52.5 -199.5t-166.5 -58.5q-66 0 -105 20zM547 1481h80q-1 -36 -5 -64.5t-14 -57.5t-26 -48
t-42.5 -31t-62.5 -12q-51 0 -115 32.5t-94 32.5q-48 0 -61 -78h-80q11 213 149 213q53 0 127.5 -32.5t92.5 -32.5q24 0 35 19t16 59z" />
    <glyph glyph-name="ograve" unicode="&#xf2;" 
d="M524 272v484q0 149 -123 149q-122 0 -122 -149v-484q0 -149 122 -149q123 0 123 149zM717 743v-458q0 -131 -87 -214t-229 -83t-228.5 83t-86.5 214v458q0 131 86.5 214t228.5 83t229 -83t87 -214zM479 1223h-133l-151 256h184z" />
    <glyph glyph-name="oacute" unicode="&#xf3;" 
d="M524 272v484q0 149 -123 149q-122 0 -122 -149v-484q0 -149 122 -149q123 0 123 149zM717 743v-458q0 -131 -87 -214t-229 -83t-228.5 83t-86.5 214v458q0 131 86.5 214t228.5 83t229 -83t87 -214zM463 1223h-135l102 256h184z" />
    <glyph glyph-name="ocircumflex" unicode="&#xf4;" 
d="M524 272v484q0 149 -123 149q-122 0 -122 -149v-484q0 -149 122 -149q123 0 123 149zM717 743v-458q0 -131 -87 -214t-229 -83t-228.5 83t-86.5 214v458q0 131 86.5 214t228.5 83t229 -83t87 -214zM662 1233l-261 113l-260 -113v145l256 111h9l256 -111v-145z" />
    <glyph glyph-name="otilde" unicode="&#xf5;" 
d="M524 272v484q0 149 -123 149q-122 0 -122 -149v-484q0 -149 122 -149q123 0 123 149zM717 743v-458q0 -131 -87 -214t-229 -83t-228.5 83t-86.5 214v458q0 131 86.5 214t228.5 83t229 -83t87 -214zM573 1481h80q-2 -46 -8 -80t-21.5 -66.5t-45.5 -49.5t-74 -17
q-50 0 -115 32.5t-94 32.5q-49 0 -62 -78h-79q11 213 149 213q53 0 127 -32.5t92 -32.5q24 0 35 19t16 59z" />
    <glyph glyph-name="odieresis" unicode="&#xf6;" 
d="M524 272v484q0 149 -123 149q-122 0 -122 -149v-484q0 -149 122 -149q123 0 123 149zM717 743v-458q0 -131 -87 -214t-229 -83t-228.5 83t-86.5 214v458q0 131 86.5 214t228.5 83t229 -83t87 -214zM231 1221q-38 0 -65 27t-27 65t27 65t65 27t65.5 -27t27.5 -65
t-27.5 -65t-65.5 -27zM567 1221q-38 0 -65 27t-27 65t27 65t65 27t65 -27t27 -65t-27 -65t-65 -27z" />
    <glyph glyph-name="divide" unicode="&#xf7;" horiz-adv-x="1269" 
d="M635 0q-47 0 -81 34t-34 81t34 80.5t81 33.5t81 -33.5t34 -80.5t-34 -81t-81 -34zM1153 463h-1036v110h1036v-110zM635 807q-47 0 -81 34t-34 81t34 80.5t81 33.5t81 -33.5t34 -80.5t-34 -81t-81 -34z" />
    <glyph glyph-name="oslash" unicode="&#xf8;" horiz-adv-x="804" 
d="M215 -70h-86l53 133q-94 82 -94 222v458q0 131 86.5 214t228.5 83q83 0 152 -32l41 100h90l-59 -147q92 -80 92 -218v-458q0 -131 -87 -214t-229 -83q-78 0 -153 30zM281 311l217 551q-28 43 -95 43q-122 0 -122 -149v-445zM526 272v435l-217 -543q28 -41 94 -41
q123 0 123 149z" />
    <glyph glyph-name="ugrave" unicode="&#xf9;" horiz-adv-x="804" 
d="M715 0h-180v147h-5q-16 -35 -31.5 -59.5t-41 -49.5t-62 -37.5t-84.5 -12.5q-114 0 -167.5 64t-53.5 200v776h193v-739q0 -82 31.5 -118t103.5 -36q41 0 72.5 27t31.5 82v784h193v-1028zM457 1223h-133l-152 256h184z" />
    <glyph glyph-name="uacute" unicode="&#xfa;" horiz-adv-x="804" 
d="M715 0h-180v147h-5q-16 -35 -31.5 -59.5t-41 -49.5t-62 -37.5t-84.5 -12.5q-114 0 -167.5 64t-53.5 200v776h193v-739q0 -82 31.5 -118t103.5 -36q41 0 72.5 27t31.5 82v784h193v-1028zM446 1223h-135l103 256h184z" />
    <glyph glyph-name="ucircumflex" unicode="&#xfb;" horiz-adv-x="804" 
d="M715 0h-180v147h-5q-16 -35 -31.5 -59.5t-41 -49.5t-62 -37.5t-84.5 -12.5q-114 0 -167.5 64t-53.5 200v776h193v-739q0 -82 31.5 -118t103.5 -36q41 0 72.5 27t31.5 82v784h193v-1028zM657 1233l-260 113l-260 -113v145l256 111h8l256 -111v-145z" />
    <glyph glyph-name="udieresis" unicode="&#xfc;" horiz-adv-x="804" 
d="M715 0h-180v147h-5q-16 -35 -31.5 -59.5t-41 -49.5t-62 -37.5t-84.5 -12.5q-114 0 -167.5 64t-53.5 200v776h193v-739q0 -82 31.5 -118t103.5 -36q41 0 72.5 27t31.5 82v784h193v-1028zM236 1221q-38 0 -65.5 27t-27.5 65t27.5 65t65.5 27t65 -27t27 -65t-27 -65t-65 -27
zM571 1221q-38 0 -65 27t-27 65t27 65t65 27t65.5 -27t27.5 -65t-27.5 -65t-65.5 -27z" />
    <glyph glyph-name="yacute" unicode="&#xfd;" horiz-adv-x="839" 
d="M516 -373h-180l92 400q-103 0 -151.5 61t-73.5 213l-86 533q-6 38 -20 54.5t-42 16.5q-13 0 -26 -5t-15 -9h-4q0 72 42.5 110.5t107.5 38.5q62 0 100 -37.5t49 -125.5l74 -580q10 -77 26 -100t42 -23h4l161 854h193zM496 1223h-136l103 256h184z" />
    <glyph glyph-name="thorn" unicode="&#xfe;" horiz-adv-x="804" 
d="M283 -373h-193v1852h193v-578h4q63 139 207 139q95 0 158 -61.5t63 -171.5v-541q0 -82 -18.5 -137.5t-55.5 -85.5t-84 -42.5t-113 -12.5t-125 20v29q50 0 84.5 8t62.5 29.5t42 63t14 104.5v528q0 51 -28 87t-86 36q-55 0 -90 -36t-35 -99v-1131z" />
    <glyph glyph-name="ydieresis" unicode="&#xff;" horiz-adv-x="839" 
d="M516 -373h-180l92 400q-103 0 -151.5 61t-73.5 213l-86 533q-6 38 -20 54.5t-42 16.5q-13 0 -26 -5t-15 -9h-4q0 72 42.5 110.5t107.5 38.5q62 0 100 -37.5t49 -125.5l74 -580q10 -77 26 -100t42 -23h4l161 854h193zM285 1221q-38 0 -65 27t-27 65t27 65t65 27t65 -27
t27 -65t-27 -65t-65 -27zM621 1221q-38 0 -65.5 27t-27.5 65t27.5 65t65.5 27t65 -27t27 -65t-27 -65t-65 -27z" />
    <glyph glyph-name="Amacron" unicode="&#x100;" horiz-adv-x="991" 
d="M924 0h-201l-72 377h-313l-70 -377h-200l309 1438h237zM623 528l-125 672h-4l-127 -672h256zM748 1554h-500v134h500v-134z" />
    <glyph glyph-name="amacron" unicode="&#x101;" horiz-adv-x="763" 
d="M674 0h-193v508q-237 0 -237 -238q0 -80 24 -113.5t76 -33.5q26 0 54 9.5t40 21.5h8q0 -68 -42.5 -117t-124.5 -49q-104 0 -166 61t-62 195q0 160 117 253t313 93v207q0 51 -21 79.5t-79 28.5q-102 0 -102 -106v-74h-193v72q0 114 79 178.5t216 64.5t215 -64.5t78 -195.5
v-780zM633 1233h-500v133h500v-133z" />
    <glyph glyph-name="Abreve" unicode="&#x102;" horiz-adv-x="991" 
d="M924 0h-201l-72 377h-313l-70 -377h-200l309 1438h237zM623 528l-125 672h-4l-127 -672h256zM614 1741h144q0 -114 -70.5 -171t-189.5 -57t-189.5 57t-70.5 171h143q1 -52 31.5 -78.5t85.5 -26.5q113 0 116 105z" />
    <glyph glyph-name="abreve" unicode="&#x103;" horiz-adv-x="763" 
d="M674 0h-193v508q-237 0 -237 -238q0 -80 24 -113.5t76 -33.5q26 0 54 9.5t40 21.5h8q0 -68 -42.5 -117t-124.5 -49q-104 0 -166 61t-62 195q0 160 117 253t313 93v207q0 51 -21 79.5t-79 28.5q-102 0 -102 -106v-74h-193v72q0 114 79 178.5t216 64.5t215 -64.5t78 -195.5
v-780zM502 1452h143q0 -114 -70 -170.5t-190 -56.5t-190 56.5t-70 170.5h143q3 -104 117 -104t117 104z" />
    <glyph glyph-name="Aogonek" unicode="&#x104;" horiz-adv-x="991" 
d="M623 528l-125 672h-4l-127 -672h256zM913 -287l7 -4q0 -53 -31.5 -79.5t-81.5 -26.5q-137 0 -137 147q0 148 145 250q-44 0 -73 26.5t-37 67.5l-54 283h-313l-70 -377h-200l309 1438h237l310 -1438q-111 -87 -111 -238q0 -65 47 -65q27 0 53 16z" />
    <glyph glyph-name="aogonek" unicode="&#x105;" horiz-adv-x="763" 
d="M666 -287l6 -4q0 -53 -31.5 -79.5t-81.5 -26.5q-137 0 -137 147q0 148 145 250q-44 0 -65 26t-21 68v414q-237 0 -237 -238q0 -80 24 -113.5t76 -33.5q26 0 54 9.5t40 21.5h8q0 -68 -42.5 -117t-124.5 -49q-104 0 -166 61t-62 195q0 160 117 253t313 93v207
q0 51 -21 79.5t-79 28.5q-102 0 -102 -106v-74h-193v72q0 114 79 178.5t216 64.5t215 -64.5t78 -195.5v-780q-109 -86 -109 -238q0 -65 47 -65q28 0 54 16z" />
    <glyph glyph-name="Cacute" unicode="&#x106;" horiz-adv-x="819" 
d="M600 379h8q70 -9 107 -37t37 -104q0 -99 -79.5 -174.5t-221.5 -75.5q-166 0 -252 97t-86 259v721q0 190 87 287.5t251 97.5q150 0 228.5 -76.5t78.5 -216.5v-149h-193v133q0 72 -30 110.5t-89 38.5q-65 0 -97 -50.5t-32 -178.5v-725q0 -82 35.5 -128t104.5 -46
q140 0 143 217zM506 1536h-135l102 256h184z" />
    <glyph glyph-name="cacute" unicode="&#x107;" horiz-adv-x="761" 
d="M604 322h4q76 -19 76 -132q0 -83 -75.5 -142.5t-207.5 -59.5q-164 0 -239.5 91t-75.5 267v326q0 101 25.5 174.5t71.5 114.5t101 60t122 19q144 0 214 -62.5t70 -174.5v-78h-180v74q0 106 -109 106q-56 0 -89 -45.5t-33 -167.5v-334q0 -223 137 -223q82 0 132 54.5
t56 132.5zM496 1223h-136l103 256h184z" />
    <glyph glyph-name="Ccircumflex" unicode="&#x108;" horiz-adv-x="819" 
d="M600 379h8q70 -9 107 -37t37 -104q0 -99 -79.5 -174.5t-221.5 -75.5q-166 0 -252 97t-86 259v721q0 190 87 287.5t251 97.5q150 0 228.5 -76.5t78.5 -216.5v-149h-193v133q0 72 -30 110.5t-89 38.5q-65 0 -97 -50.5t-32 -178.5v-725q0 -82 35.5 -128t104.5 -46
q140 0 143 217zM694 1526l-260 112l-260 -112v145l256 111h8l256 -111v-145z" />
    <glyph glyph-name="ccircumflex" unicode="&#x109;" horiz-adv-x="761" 
d="M604 322h4q76 -19 76 -132q0 -83 -75.5 -142.5t-207.5 -59.5q-164 0 -239.5 91t-75.5 267v326q0 101 25.5 174.5t71.5 114.5t101 60t122 19q144 0 214 -62.5t70 -174.5v-78h-180v74q0 106 -109 106q-56 0 -89 -45.5t-33 -167.5v-334q0 -223 137 -223q82 0 132 54.5
t56 132.5zM676 1233l-260 113l-260 -113v145l256 111h8l256 -111v-145z" />
    <glyph glyph-name="Cdotaccent" unicode="&#x10a;" horiz-adv-x="819" 
d="M600 379h8q70 -9 107 -37t37 -104q0 -99 -79.5 -174.5t-221.5 -75.5q-166 0 -252 97t-86 259v721q0 190 87 287.5t251 97.5q150 0 228.5 -76.5t78.5 -216.5v-149h-193v133q0 72 -30 110.5t-89 38.5q-65 0 -97 -50.5t-32 -178.5v-725q0 -82 35.5 -128t104.5 -46
q140 0 143 217zM449 1536q-43 0 -73 29.5t-30 72.5t30 73t73 30t72.5 -30t29.5 -73t-29.5 -72.5t-72.5 -29.5z" />
    <glyph glyph-name="cdotaccent" unicode="&#x10b;" horiz-adv-x="761" 
d="M604 322h4q76 -19 76 -132q0 -83 -75.5 -142.5t-207.5 -59.5q-164 0 -239.5 91t-75.5 267v326q0 101 25.5 174.5t71.5 114.5t101 60t122 19q144 0 214 -62.5t70 -174.5v-78h-180v74q0 106 -109 106q-56 0 -89 -45.5t-33 -167.5v-334q0 -223 137 -223q82 0 132 54.5
t56 132.5zM420 1221q-43 0 -73 29.5t-30 72.5t30 72.5t73 29.5t72.5 -29.5t29.5 -72.5t-29.5 -72.5t-72.5 -29.5z" />
    <glyph glyph-name="Ccaron" unicode="&#x10c;" horiz-adv-x="819" 
d="M600 379h8q70 -9 107 -37t37 -104q0 -99 -79.5 -174.5t-221.5 -75.5q-166 0 -252 97t-86 259v721q0 190 87 287.5t251 97.5q150 0 228.5 -76.5t78.5 -216.5v-149h-193v133q0 72 -30 110.5t-89 38.5q-65 0 -97 -50.5t-32 -178.5v-725q0 -82 35.5 -128t104.5 -46
q140 0 143 217zM694 1636l-256 -110h-8l-256 110v146l260 -113l260 113v-146z" />
    <glyph glyph-name="ccaron" unicode="&#x10d;" horiz-adv-x="761" 
d="M604 322h4q76 -19 76 -132q0 -83 -75.5 -142.5t-207.5 -59.5q-164 0 -239.5 91t-75.5 267v326q0 101 25.5 174.5t71.5 114.5t101 60t122 19q144 0 214 -62.5t70 -174.5v-78h-180v74q0 106 -109 106q-56 0 -89 -45.5t-33 -167.5v-334q0 -223 137 -223q82 0 132 54.5
t56 132.5zM678 1323l-256 -111h-8l-256 111v145l260 -112l260 112v-145z" />
    <glyph glyph-name="Dcaron" unicode="&#x10e;" horiz-adv-x="915" 
d="M600 397v586q0 170 -50.5 232.5t-193.5 62.5h-34v-1118h59q111 0 165 53.5t54 183.5zM381 0h-264v1438h241q224 0 335.5 -116t111.5 -339v-586q0 -198 -116 -297.5t-308 -99.5zM647 1636l-256 -110h-8l-256 110v146l260 -113l260 113v-146z" />
    <glyph glyph-name="dcaron" unicode="&#x10f;" horiz-adv-x="1024" 
d="M717 0h-180v74h-5q-55 -86 -182 -86q-129 0 -195.5 75t-66.5 213v445q0 175 58.5 247t162.5 72q90 0 135 -46t45 -109h-8q-28 20 -75 20q-70 0 -97.5 -38t-27.5 -142v-416q0 -110 29 -154t96 -44q46 0 82 32t36 86v1250h193v-1479zM799 1094v10q102 60 102 250v125h164
v-82q0 -140 -65 -221.5t-201 -81.5z" />
    <glyph glyph-name="Dcroat" unicode="&#x110;" horiz-adv-x="915" 
d="M381 0h-264v629h-115v133h115v676h241q224 0 335.5 -116t111.5 -339v-586q0 -198 -116 -297.5t-308 -99.5zM600 397v586q0 170 -50.5 232.5t-193.5 62.5h-34v-516h180v-133h-180v-469h59q111 0 165 53.5t54 183.5z" />
    <glyph glyph-name="dcroat" unicode="&#x111;" horiz-adv-x="860" 
d="M717 0h-180v74h-5q-55 -86 -182 -86q-129 0 -195.5 75t-66.5 213v445q0 175 58.5 247t162.5 72q90 0 135 -46t45 -109h-8q-28 20 -75 20q-70 0 -97.5 -38t-27.5 -142v-416q0 -110 29 -154t96 -44q46 0 82 32t36 86v963h-164v133h164v154h193v-154h143v-133h-143v-1192z
" />
    <glyph glyph-name="Emacron" unicode="&#x112;" horiz-adv-x="745" 
d="M588 285h8q40 -6 62 -35.5t22 -73.5q0 -79 -63 -133.5t-195 -54.5q-143 0 -224 78.5t-81 230.5v1141h557v-172h-352v-443h331v-151h-331v-373q0 -137 110 -137q68 0 102 31.5t54 91.5zM645 1554h-500v134h500v-134z" />
    <glyph glyph-name="emacron" unicode="&#x113;" horiz-adv-x="792" 
d="M686 317v-73q0 -256 -297 -256q-303 0 -303 256v479q0 145 86.5 231t233.5 86q134 0 217.5 -74t83.5 -212q0 -162 -117.5 -242t-310.5 -80v-199q0 -61 30.5 -91.5t83.5 -30.5q113 0 113 129v77h180zM279 764v-250q117 0 182 53.5t65 190.5q0 73 -28 116.5t-84 43.5
q-67 0 -101 -35t-34 -119zM637 1233h-500v133h500v-133z" />
    <glyph glyph-name="Ebreve" unicode="&#x114;" horiz-adv-x="745" 
d="M588 285h8q40 -6 62 -35.5t22 -73.5q0 -79 -63 -133.5t-195 -54.5q-143 0 -224 78.5t-81 230.5v1141h557v-172h-352v-443h331v-151h-331v-373q0 -137 110 -137q68 0 102 31.5t54 91.5zM518 1751h144q0 -114 -70.5 -170.5t-190.5 -56.5t-190 56.5t-70 170.5h144
q3 -104 116 -104q114 0 117 104z" />
    <glyph glyph-name="ebreve" unicode="&#x115;" horiz-adv-x="792" 
d="M686 317v-73q0 -256 -297 -256q-303 0 -303 256v479q0 145 86.5 231t233.5 86q134 0 217.5 -74t83.5 -212q0 -162 -117.5 -242t-310.5 -80v-199q0 -61 30.5 -91.5t83.5 -30.5q113 0 113 129v77h180zM279 764v-250q117 0 182 53.5t65 190.5q0 73 -28 116.5t-84 43.5
q-67 0 -101 -35t-34 -119zM526 1452h144q0 -114 -70 -170.5t-190 -56.5t-190 56.5t-70 170.5h143q3 -104 117 -104q113 0 116 104z" />
    <glyph glyph-name="Edotaccent" unicode="&#x116;" horiz-adv-x="745" 
d="M588 285h8q40 -6 62 -35.5t22 -73.5q0 -79 -63 -133.5t-195 -54.5q-143 0 -224 78.5t-81 230.5v1141h557v-172h-352v-443h331v-151h-331v-373q0 -137 110 -137q68 0 102 31.5t54 91.5zM412 1536q-43 0 -73 29.5t-30 72.5t30 73t73 30t72.5 -30t29.5 -73t-29.5 -72.5
t-72.5 -29.5z" />
    <glyph glyph-name="edotaccent" unicode="&#x117;" horiz-adv-x="792" 
d="M686 317v-73q0 -256 -297 -256q-303 0 -303 256v479q0 145 86.5 231t233.5 86q134 0 217.5 -74t83.5 -212q0 -162 -117.5 -242t-310.5 -80v-199q0 -61 30.5 -91.5t83.5 -30.5q113 0 113 129v77h180zM279 764v-250q117 0 182 53.5t65 190.5q0 73 -28 116.5t-84 43.5
q-67 0 -101 -35t-34 -119zM414 1221q-43 0 -73 29.5t-30 72.5t30 72.5t73 29.5t72.5 -29.5t29.5 -72.5t-29.5 -72.5t-72.5 -29.5z" />
    <glyph glyph-name="Eogonek" unicode="&#x118;" horiz-adv-x="745" 
d="M485 -287l7 -4q0 -53 -31.5 -79.5t-81.5 -26.5q-137 0 -137 147q0 64 37.5 129.5t93.5 112.5q-121 11 -188.5 88.5t-67.5 216.5v1141h557v-172h-352v-443h331v-151h-331v-373q0 -137 110 -137q68 0 102 31.5t54 91.5h8q40 -6 62 -35.5t22 -73.5q0 -71 -50 -122.5
t-157 -61.5q-88 -132 -88 -230q0 -65 47 -65q27 0 53 16z" />
    <glyph glyph-name="eogonek" unicode="&#x119;" horiz-adv-x="792" 
d="M465 -287l6 -4q0 -53 -31.5 -79.5t-81.5 -26.5q-137 0 -137 147q0 63 37 127.5t92 112.5q-264 14 -264 254v479q0 145 86.5 231t233.5 86q134 0 217.5 -74t83.5 -212q0 -162 -117.5 -242t-310.5 -80v-199q0 -61 30.5 -91.5t83.5 -30.5q113 0 113 129v77h180v-73
q0 -227 -233 -252q-88 -129 -88 -230q0 -65 47 -65q27 0 53 16zM279 764v-250q117 0 182 53.5t65 190.5q0 73 -28 116.5t-84 43.5q-67 0 -101 -35t-34 -119z" />
    <glyph glyph-name="Ecaron" unicode="&#x11a;" horiz-adv-x="745" 
d="M588 285h8q40 -6 62 -35.5t22 -73.5q0 -79 -63 -133.5t-195 -54.5q-143 0 -224 78.5t-81 230.5v1141h557v-172h-352v-443h331v-151h-331v-373q0 -137 110 -137q68 0 102 31.5t54 91.5zM618 1636l-256 -110h-8l-256 110v146l260 -113l260 113v-146z" />
    <glyph glyph-name="ecaron" unicode="&#x11b;" horiz-adv-x="792" 
d="M686 317v-73q0 -256 -297 -256q-303 0 -303 256v479q0 145 86.5 231t233.5 86q134 0 217.5 -74t83.5 -212q0 -162 -117.5 -242t-310.5 -80v-199q0 -61 30.5 -91.5t83.5 -30.5q113 0 113 129v77h180zM279 764v-250q117 0 182 53.5t65 190.5q0 73 -28 116.5t-84 43.5
q-67 0 -101 -35t-34 -119zM666 1323l-256 -111h-9l-256 111v145l261 -112l260 112v-145z" />
    <glyph glyph-name="Gcircumflex" unicode="&#x11c;" horiz-adv-x="915" 
d="M799 0h-72q-110 31 -127 147h-6q-16 -65 -67.5 -112t-137.5 -47q-131 0 -201.5 92t-70.5 264v717q0 197 91 293t257 96q334 0 334 -274v-168h-205v141q0 141 -131 141q-141 0 -141 -223v-735q0 -91 35.5 -138t95.5 -47q68 0 104.5 35.5t36.5 93.5v340h-135v152h340v-768z
M733 1526l-260 112l-260 -112v145l256 111h8l256 -111v-145z" />
    <glyph glyph-name="gcircumflex" unicode="&#x11d;" horiz-adv-x="827" 
d="M256 -33v-8q-27 -33 -27 -76q0 -44 52.5 -77t126.5 -33q88 0 133 35t45 86q0 56 -49 87t-119 44t-139.5 27t-118.5 50.5t-49 100.5q0 107 143 139q-166 65 -166 246v149q0 137 91.5 220t232.5 83q98 0 174 -36q24 24 24 69v139h176v-108q0 -68 -29.5 -104t-94.5 -50
q75 -75 75 -192v-150q0 -136 -90.5 -214.5t-232.5 -78.5q-144 0 -144 -55q0 -26 27.5 -42.5t71 -26t96.5 -19t106 -27t96.5 -43.5t71 -74.5t27.5 -115.5q0 -119 -94.5 -207t-268.5 -88q-151 0 -241 59.5t-90 143.5q0 69 49 108t135 39zM545 596v154q0 80 -36 117.5t-95 37.5
q-60 0 -96.5 -37.5t-36.5 -117.5v-154q0 -145 133 -145q131 0 131 145zM682 1233l-260 113l-260 -113v145l256 111h8l256 -111v-145z" />
    <glyph glyph-name="Gbreve" unicode="&#x11e;" horiz-adv-x="915" 
d="M799 0h-72q-110 31 -127 147h-6q-16 -65 -67.5 -112t-137.5 -47q-131 0 -201.5 92t-70.5 264v717q0 197 91 293t257 96q334 0 334 -274v-168h-205v141q0 141 -131 141q-141 0 -141 -223v-735q0 -91 35.5 -138t95.5 -47q68 0 104.5 35.5t36.5 93.5v340h-135v152h340v-768z
M590 1751h143q0 -114 -70 -170.5t-190 -56.5t-190 56.5t-70 170.5h143q3 -104 117 -104t117 104z" />
    <glyph glyph-name="gbreve" unicode="&#x11f;" horiz-adv-x="827" 
d="M256 -33v-8q-27 -33 -27 -76q0 -44 52.5 -77t126.5 -33q88 0 133 35t45 86q0 56 -49 87t-119 44t-139.5 27t-118.5 50.5t-49 100.5q0 107 143 139q-166 65 -166 246v149q0 137 91.5 220t232.5 83q98 0 174 -36q24 24 24 69v139h176v-108q0 -68 -29.5 -104t-94.5 -50
q75 -75 75 -192v-150q0 -136 -90.5 -214.5t-232.5 -78.5q-144 0 -144 -55q0 -26 27.5 -42.5t71 -26t96.5 -19t106 -27t96.5 -43.5t71 -74.5t27.5 -115.5q0 -119 -94.5 -207t-268.5 -88q-151 0 -241 59.5t-90 143.5q0 69 49 108t135 39zM545 596v154q0 80 -36 117.5t-95 37.5
q-60 0 -96.5 -37.5t-36.5 -117.5v-154q0 -145 133 -145q131 0 131 145zM528 1452h144q0 -114 -70 -170.5t-190 -56.5t-190 56.5t-70 170.5h143q3 -104 117 -104q113 0 116 104z" />
    <glyph glyph-name="Gdotaccent" unicode="&#x120;" horiz-adv-x="915" 
d="M799 0h-72q-110 31 -127 147h-6q-16 -65 -67.5 -112t-137.5 -47q-131 0 -201.5 92t-70.5 264v717q0 197 91 293t257 96q334 0 334 -274v-168h-205v141q0 141 -131 141q-141 0 -141 -223v-735q0 -91 35.5 -138t95.5 -47q68 0 104.5 35.5t36.5 93.5v340h-135v152h340v-768z
M465 1536q-43 0 -73 29.5t-30 72.5t30 73t73 30t72.5 -30t29.5 -73t-29.5 -72.5t-72.5 -29.5z" />
    <glyph glyph-name="gdotaccent" unicode="&#x121;" horiz-adv-x="827" 
d="M256 -33v-8q-27 -33 -27 -76q0 -44 52.5 -77t126.5 -33q88 0 133 35t45 86q0 56 -49 87t-119 44t-139.5 27t-118.5 50.5t-49 100.5q0 107 143 139q-166 65 -166 246v149q0 137 91.5 220t232.5 83q98 0 174 -36q24 24 24 69v139h176v-108q0 -68 -29.5 -104t-94.5 -50
q75 -75 75 -192v-150q0 -136 -90.5 -214.5t-232.5 -78.5q-144 0 -144 -55q0 -26 27.5 -42.5t71 -26t96.5 -19t106 -27t96.5 -43.5t71 -74.5t27.5 -115.5q0 -119 -94.5 -207t-268.5 -88q-151 0 -241 59.5t-90 143.5q0 69 49 108t135 39zM545 596v154q0 80 -36 117.5t-95 37.5
q-60 0 -96.5 -37.5t-36.5 -117.5v-154q0 -145 133 -145q131 0 131 145zM416 1221q-43 0 -73 29.5t-30 72.5t30 72.5t73 29.5t72.5 -29.5t29.5 -72.5t-29.5 -72.5t-72.5 -29.5z" />
    <glyph glyph-name="Gcommaaccent" unicode="&#x122;" horiz-adv-x="915" 
d="M799 0h-72q-110 31 -127 147h-6q-16 -65 -67.5 -112t-137.5 -47q-131 0 -201.5 92t-70.5 264v717q0 197 91 293t257 96q334 0 334 -274v-168h-205v141q0 141 -131 141q-141 0 -141 -223v-735q0 -91 35.5 -138t95.5 -47q68 0 104.5 35.5t36.5 93.5v340h-135v152h340v-768z
M332 -500v11q102 60 102 249v125h164v-82q0 -140 -65 -221.5t-201 -81.5z" />
    <glyph glyph-name="gcommaaccent" unicode="&#x123;" horiz-adv-x="827" 
d="M256 -33v-8q-27 -33 -27 -76q0 -44 52.5 -77t126.5 -33q88 0 133 35t45 86q0 56 -49 87t-119 44t-139.5 27t-118.5 50.5t-49 100.5q0 107 143 139q-166 65 -166 246v149q0 137 91.5 220t232.5 83q98 0 174 -36q24 24 24 69v139h176v-108q0 -68 -29.5 -104t-94.5 -50
q75 -75 75 -192v-150q0 -136 -90.5 -214.5t-232.5 -78.5q-144 0 -144 -55q0 -26 27.5 -42.5t71 -26t96.5 -19t106 -27t96.5 -43.5t71 -74.5t27.5 -115.5q0 -119 -94.5 -207t-268.5 -88q-151 0 -241 59.5t-90 143.5q0 69 49 108t135 39zM545 596v154q0 80 -36 117.5t-95 37.5
q-60 0 -96.5 -37.5t-36.5 -117.5v-154q0 -145 133 -145q131 0 131 145zM596 1606v-11q-102 -60 -102 -249v-125h-164v82q0 140 65 221.5t201 81.5z" />
    <glyph glyph-name="Hcircumflex" unicode="&#x124;" horiz-adv-x="915" 
d="M799 0h-205v662h-272v-662h-205v1438h205v-625h272v625h205v-1438zM721 1526l-260 112l-260 -112v145l256 111h8l256 -111v-145z" />
    <glyph glyph-name="hcircumflex" unicode="&#x125;" horiz-adv-x="845" 
d="M825 43v-16q-42 -39 -112 -39q-105 0 -148 49.5t-43 167.5v565q0 51 -28 87t-86 36q-55 0 -90 -36t-35 -99v-758h-193v1479h193v-578h4q63 139 207 139q95 0 158 -61.5t63 -171.5v-586q0 -107 21 -142.5t89 -35.5zM446 1493l-260 113l-260 -113v145l256 111h8l256 -111
v-145z" />
    <glyph glyph-name="Hbar" unicode="&#x126;" horiz-adv-x="915" 
d="M799 0h-205v662h-272v-662h-205v1130h-103v113h103v195h205v-195h272v195h205v-195h102v-113h-102v-1130zM594 813v317h-272v-317h272z" />
    <glyph glyph-name="hbar" unicode="&#x127;" horiz-adv-x="845" 
d="M825 43v-16q-42 -39 -112 -39q-105 0 -148 49.5t-43 167.5v565q0 51 -28 87t-86 36q-55 0 -90 -36t-35 -99v-758h-193v1192h-131v133h131v154h193v-154h176v-133h-176v-291h4q63 139 207 139q95 0 158 -61.5t63 -171.5v-586q0 -107 21 -142.5t89 -35.5z" />
    <glyph glyph-name="Itilde" unicode="&#x128;" horiz-adv-x="450" 
d="M328 0h-205v1438h205v-1438zM393 1741h80q-2 -46 -8 -80t-21.5 -66.5t-45.5 -49.5t-74 -17q-51 0 -115.5 32.5t-93.5 32.5q-49 0 -62 -77h-80q11 213 150 213q53 0 127 -33t92 -33q24 0 35 19t16 59z" />
    <glyph glyph-name="itilde" unicode="&#x129;" horiz-adv-x="425" 
d="M309 0h-192v1028h192v-1028zM383 1481h80q-1 -36 -5 -64.5t-14 -57.5t-26 -48t-42.5 -31t-62.5 -12q-51 0 -115 32.5t-94 32.5q-48 0 -61 -78h-80q11 213 150 213q53 0 127 -32.5t92 -32.5q24 0 35 19t16 59z" />
    <glyph glyph-name="Imacron" unicode="&#x12a;" horiz-adv-x="450" 
d="M328 0h-205v1438h205v-1438zM473 1554h-500v134h500v-134z" />
    <glyph glyph-name="imacron" unicode="&#x12b;" horiz-adv-x="425" 
d="M309 0h-192v1028h192v-1028zM459 1233h-500v133h500v-133z" />
    <glyph glyph-name="Ibreve" unicode="&#x12c;" horiz-adv-x="450" 
d="M328 0h-205v1438h205v-1438zM340 1751h143q0 -114 -70 -170.5t-190 -56.5t-190 56.5t-70 170.5h143q3 -104 117 -104t117 104z" />
    <glyph glyph-name="ibreve" unicode="&#x12d;" horiz-adv-x="425" 
d="M309 0h-192v1028h192v-1028zM330 1452h143q0 -114 -70 -170.5t-190 -56.5t-190 56.5t-70 170.5h143q3 -104 117 -104t117 104z" />
    <glyph glyph-name="Iogonek" unicode="&#x12e;" horiz-adv-x="450" 
d="M317 -287l7 -4q0 -53 -31.5 -79.5t-81.5 -26.5q-137 0 -137 147q0 148 145 250q-45 0 -70.5 26.5t-25.5 67.5v1344h205v-1438q-111 -87 -111 -238q0 -65 47 -65q27 0 53 16z" />
    <glyph glyph-name="iogonek" unicode="&#x12f;" horiz-adv-x="425" 
d="M301 -287l6 -4q0 -53 -31 -79.5t-81 -26.5q-69 0 -103.5 38t-34.5 109q0 147 146 250q-44 0 -65 26t-21 68v934h192v-1028q-108 -85 -108 -238q0 -65 47 -65q27 0 53 16zM213 1208q-47 0 -81 34t-34 81t34 81t81 34t81 -34t34 -81t-34 -81t-81 -34z" />
    <glyph glyph-name="Idotaccent" unicode="&#x130;" horiz-adv-x="450" 
d="M328 0h-205v1438h205v-1438zM223 1536q-43 0 -72.5 29.5t-29.5 72.5t29.5 73t72.5 30t73 -30t30 -73t-30 -72.5t-73 -29.5z" />
    <glyph glyph-name="dotlessi" unicode="&#x131;" horiz-adv-x="425" 
d="M309 0h-192v1028h192v-1028z" />
    <glyph glyph-name="IJ" unicode="&#x132;" horiz-adv-x="1157" 
d="M328 0h-205v1438h205v-1438zM842 295v1143h205v-1145q0 -155 -80.5 -230t-225.5 -75q-124 0 -197 61t-73 150q0 86 55.5 138t137.5 52q22 0 49 -6v-8q-49 -70 -49 -146q0 -39 20.5 -60.5t58.5 -21.5q50 0 74.5 33.5t24.5 114.5z" />
    <glyph glyph-name="ij" unicode="&#x133;" horiz-adv-x="860" 
d="M309 0h-192v1028h192v-1028zM213 1208q-47 0 -81 34t-34 81t34 81t81 34t81 -34t34 -81t-34 -81t-81 -34zM352 -303v29q103 0 153 42t50 162v1098h193v-1073q0 -158 -68 -218.5t-203 -60.5q-64 0 -125 21zM651 1208q-47 0 -80.5 34t-33.5 81t33.5 81t80.5 34t81 -34
t34 -81t-34 -81t-81 -34z" />
    <glyph glyph-name="Jcircumflex" unicode="&#x134;" horiz-adv-x="747" 
d="M432 295v1143h205v-1145q0 -155 -80 -230t-225 -75q-124 0 -197.5 61t-73.5 150q0 86 55.5 138t137.5 52q22 0 49 -6v-8q-49 -70 -49 -146q0 -38 21 -60t59 -22q50 0 74 33.5t24 114.5zM791 1526l-261 112l-260 -112v145l256 111h9l256 -111v-145z" />
    <glyph glyph-name="jcircumflex" unicode="&#x135;" horiz-adv-x="487" 
d="M-25 -303v29q103 0 153 42t50 162v1098h193v-1073q0 -158 -68 -218.5t-203 -60.5q-64 0 -125 21zM532 1233l-260 113l-260 -113v145l256 111h8l256 -111v-145z" />
    <glyph glyph-name="Kcommaaccent" unicode="&#x136;" horiz-adv-x="915" 
d="M829 170h7q15 -7 24.5 -28t9.5 -42q0 -112 -147 -112q-82 0 -133 54.5t-51 182.5v211q0 283 -213 283h-4v-719h-205v1438h205v-654h4l323 654h205l-344 -674q114 0 167.5 -70.5t53.5 -195.5v-279q0 -51 11 -71.5t40 -20.5q19 0 31.5 13t15.5 30zM274 -500v11
q103 60 103 249v125h164v-82q0 -140 -65.5 -221.5t-201.5 -81.5z" />
    <glyph glyph-name="kcommaaccent" unicode="&#x137;" horiz-adv-x="804" 
d="M780 145h4q0 -88 -37.5 -122.5t-109.5 -34.5q-78 0 -123 55.5t-45 159.5v127q0 115 -47 162t-135 47h-4v-539h-193v1479h193v-877h4l266 426h190l-286 -434q102 0 153.5 -56.5t51.5 -158.5v-184q0 -72 61 -72q44 0 57 22zM240 -500v11q102 60 102 249v125h164v-82
q0 -140 -65 -221.5t-201 -81.5z" />
    <glyph glyph-name="kgreenlandic" unicode="&#x138;" horiz-adv-x="804" 
d="M780 145h4q0 -88 -37.5 -122.5t-109.5 -34.5q-78 0 -123 55.5t-45 159.5v106q0 115 -47 162t-135 47h-4v-518h-193v1028h193v-446h4l245 446h191l-266 -455q102 0 153.5 -56.5t51.5 -158.5v-163q0 -72 61 -72q44 0 57 22z" />
    <glyph glyph-name="Lacute" unicode="&#x139;" horiz-adv-x="716" 
d="M686 0h-569v1438h205v-1266h364v-172zM264 1536h-135l102 256h185z" />
    <glyph glyph-name="lacute" unicode="&#x13a;" horiz-adv-x="425" 
d="M309 0h-192v1479h192v-1479zM279 1593h-136l103 256h184z" />
    <glyph glyph-name="Lcommaaccent" unicode="&#x13b;" horiz-adv-x="716" 
d="M686 0h-569v1438h205v-1266h364v-172zM244 -500v11q102 60 102 249v125h164v-82q0 -140 -65 -221.5t-201 -81.5z" />
    <glyph glyph-name="lcommaaccent" unicode="&#x13c;" horiz-adv-x="425" 
d="M309 0h-192v1479h192v-1479zM29 -500v11q102 60 102 249v125h164v-82q0 -140 -65 -221.5t-201 -81.5z" />
    <glyph glyph-name="Lcaron" unicode="&#x13d;" horiz-adv-x="716" 
d="M686 0h-569v1438h205v-1266h364v-172zM434 1053v10q103 60 103 250v125h163v-82q0 -140 -65 -221.5t-201 -81.5z" />
    <glyph glyph-name="lcaron" unicode="&#x13e;" horiz-adv-x="675" 
d="M309 0h-192v1479h192v-1479zM369 1094v10q102 60 102 250v125h164v-82q0 -140 -65 -221.5t-201 -81.5z" />
    <glyph glyph-name="Ldot" unicode="&#x13f;" horiz-adv-x="716" 
d="M686 0h-569v1438h205v-1266h364v-172zM584 565q-43 0 -73 30t-30 73t30 72.5t73 29.5t72.5 -29.5t29.5 -72.5t-29.5 -73t-72.5 -30z" />
    <glyph glyph-name="ldot" unicode="&#x140;" horiz-adv-x="653" 
d="M309 0h-192v1479h192v-1479zM551 565q-43 0 -72.5 30t-29.5 73t29.5 72.5t72.5 29.5t72.5 -29.5t29.5 -72.5t-29.5 -73t-72.5 -30z" />
    <glyph glyph-name="Lslash" unicode="&#x141;" horiz-adv-x="716" 
d="M686 0h-569v637l-117 -47v139l117 47v662h205v-580l253 103v-140l-253 -102v-547h364v-172z" />
    <glyph glyph-name="lslash" unicode="&#x142;" horiz-adv-x="446" 
d="M319 0h-192v672l-137 -45v96l137 45v711h192v-648l138 48v-97l-138 -47v-735z" />
    <glyph glyph-name="Nacute" unicode="&#x143;" horiz-adv-x="954" 
d="M838 0h-162l-375 985h-4v-985h-180v1438h180l344 -881h4v881h193v-1438zM524 1536h-135l103 256h184z" />
    <glyph glyph-name="nacute" unicode="&#x144;" horiz-adv-x="804" 
d="M391 8v29q75 0 103 38t28 146v549q0 51 -28 87t-86 36q-55 0 -90 -36t-35 -99v-758h-193v1028h180v-139h4q20 62 74.5 106.5t145.5 44.5q95 0 158 -61.5t63 -171.5v-561q0 -141 -52.5 -199.5t-166.5 -58.5q-66 0 -105 20zM467 1223h-135l102 256h184z" />
    <glyph glyph-name="Ncommaaccent" unicode="&#x145;" horiz-adv-x="954" 
d="M838 0h-162l-375 985h-4v-985h-180v1438h180l344 -881h4v881h193v-1438zM330 -500v11q102 60 102 249v125h164v-82q0 -140 -65 -221.5t-201 -81.5z" />
    <glyph glyph-name="ncommaaccent" unicode="&#x146;" horiz-adv-x="804" 
d="M391 8v29q75 0 103 38t28 146v549q0 51 -28 87t-86 36q-55 0 -90 -36t-35 -99v-758h-193v1028h180v-139h4q20 62 74.5 106.5t145.5 44.5q95 0 158 -61.5t63 -171.5v-561q0 -141 -52.5 -199.5t-166.5 -58.5q-66 0 -105 20zM190 -500v11q103 60 103 249v125h164v-82
q0 -140 -65.5 -221.5t-201.5 -81.5z" />
    <glyph glyph-name="Ncaron" unicode="&#x147;" horiz-adv-x="954" 
d="M838 0h-162l-375 985h-4v-985h-180v1438h180l344 -881h4v881h193v-1438zM731 1636l-256 -110h-8l-256 110v146l260 -113l260 113v-146z" />
    <glyph glyph-name="ncaron" unicode="&#x148;" horiz-adv-x="804" 
d="M391 8v29q75 0 103 38t28 146v549q0 51 -28 87t-86 36q-55 0 -90 -36t-35 -99v-758h-193v1028h180v-139h4q20 62 74.5 106.5t145.5 44.5q95 0 158 -61.5t63 -171.5v-561q0 -141 -52.5 -199.5t-166.5 -58.5q-66 0 -105 20zM662 1323l-256 -111h-9l-256 111v145l260 -112
l261 112v-145z" />
    <glyph glyph-name="napostrophe" unicode="&#x149;" horiz-adv-x="804" 
d="M391 8v29q75 0 103 38t28 146v549q0 51 -28 87t-86 36q-55 0 -90 -36t-35 -99v-758h-193v1028h180v-139h4q20 62 74.5 106.5t145.5 44.5q95 0 158 -61.5t63 -171.5v-561q0 -141 -52.5 -199.5t-166.5 -58.5q-66 0 -105 20zM-18 1153v10q102 60 102 250v125h164v-82
q0 -140 -65 -221.5t-201 -81.5z" />
    <glyph glyph-name="Eng" unicode="&#x14a;" horiz-adv-x="954" 
d="M645 -100v209l-344 907h-4v-1016h-180v1438h180l344 -881h4v881h193v-1540q0 -153 -78.5 -231.5t-220.5 -78.5q-120 0 -186 50.5t-66 128.5q0 44 22 73t62 35h8q19 -59 50 -86t99 -27q117 0 117 138z" />
    <glyph glyph-name="eng" unicode="&#x14b;" horiz-adv-x="804" 
d="M350 -299v29q94 0 133 40t39 144v856q0 51 -28 87t-86 36q-55 0 -90 -36t-35 -99v-758h-193v1028h180v-139h4q20 62 74.5 106.5t145.5 44.5q95 0 158 -61.5t63 -171.5v-868q0 -138 -61.5 -198t-178.5 -60q-66 0 -125 20z" />
    <glyph glyph-name="Omacron" unicode="&#x14c;" horiz-adv-x="942" 
d="M829 1061v-707q0 -366 -358 -366t-358 366v707q0 81 19 148.5t59.5 123t112 86.5t167.5 31t167.5 -31t112 -86.5t59.5 -123t19 -148.5zM625 342v735q0 213 -154 213t-154 -213v-735q0 -95 43.5 -145t110.5 -50t110.5 50t43.5 145zM721 1554h-500v134h500v-134z" />
    <glyph glyph-name="omacron" unicode="&#x14d;" 
d="M524 272v484q0 149 -123 149q-122 0 -122 -149v-484q0 -149 122 -149q123 0 123 149zM717 743v-458q0 -131 -87 -214t-229 -83t-228.5 83t-86.5 214v458q0 131 86.5 214t228.5 83t229 -83t87 -214zM647 1233h-500v133h500v-133z" />
    <glyph glyph-name="Obreve" unicode="&#x14e;" horiz-adv-x="942" 
d="M829 1061v-707q0 -366 -358 -366t-358 366v707q0 81 19 148.5t59.5 123t112 86.5t167.5 31t167.5 -31t112 -86.5t59.5 -123t19 -148.5zM625 342v735q0 213 -154 213t-154 -213v-735q0 -95 43.5 -145t110.5 -50t110.5 50t43.5 145zM586 1751h143q0 -114 -70 -170.5
t-190 -56.5t-190 56.5t-70 170.5h143q3 -104 117 -104t117 104z" />
    <glyph glyph-name="obreve" unicode="&#x14f;" 
d="M524 272v484q0 149 -123 149q-122 0 -122 -149v-484q0 -149 122 -149q123 0 123 149zM717 743v-458q0 -131 -87 -214t-229 -83t-228.5 83t-86.5 214v458q0 131 86.5 214t228.5 83t229 -83t87 -214zM520 1452h144q0 -114 -70.5 -170.5t-190.5 -56.5t-190 56.5t-70 170.5
h144q3 -104 116 -104q114 0 117 104z" />
    <glyph glyph-name="Ohungarumlaut" unicode="&#x150;" horiz-adv-x="942" 
d="M829 1061v-707q0 -366 -358 -366t-358 366v707q0 81 19 148.5t59.5 123t112 86.5t167.5 31t167.5 -31t112 -86.5t59.5 -123t19 -148.5zM625 342v735q0 213 -154 213t-154 -213v-735q0 -95 43.5 -145t110.5 -50t110.5 50t43.5 145zM416 1536h-123l49 256h174zM664 1536
h-123l80 256h174z" />
    <glyph glyph-name="ohungarumlaut" unicode="&#x151;" 
d="M524 272v484q0 149 -123 149q-122 0 -122 -149v-484q0 -149 122 -149q123 0 123 149zM717 743v-458q0 -131 -87 -214t-229 -83t-228.5 83t-86.5 214v458q0 131 86.5 214t228.5 83t229 -83t87 -214zM350 1223h-123l49 256h175zM598 1223h-123l80 256h174z" />
    <glyph glyph-name="OE" unicode="&#x152;" horiz-adv-x="1234" 
d="M1096 285h8q40 -6 62 -35.5t22 -73.5q0 -79 -63 -133.5t-195 -54.5q-70 0 -127.5 32t-85.5 86q-33 -55 -97.5 -86.5t-148.5 -31.5q-358 0 -358 366v707q0 81 19 148.5t59.5 123t112 86.5t167.5 31q129 0 174 -78v66h537v-172h-353v-443h332v-151h-332v-373
q0 -137 111 -137q68 0 102 31.5t54 91.5zM625 342v735q0 213 -154 213t-154 -213v-735q0 -95 43.5 -145t110.5 -50t110.5 50t43.5 145z" />
    <glyph glyph-name="oe" unicode="&#x153;" horiz-adv-x="1220" 
d="M1114 317v-73q0 -120 -76 -188t-231 -68q-132 0 -203 82q-27 -26 -47.5 -40.5t-61.5 -28t-94 -13.5q-142 0 -228.5 83t-86.5 214v458q0 131 86.5 214t228.5 83q141 0 215 -106q78 106 218 106q134 0 217.5 -74t83.5 -212q0 -162 -117.5 -242t-310.5 -80v-199
q0 -61 30.5 -91.5t83.5 -30.5q113 0 113 129v77h180zM524 272v484q0 149 -123 149q-122 0 -122 -149v-484q0 -149 122 -149q123 0 123 149zM707 764v-258q116 0 181.5 57.5t65.5 194.5q0 73 -28 116.5t-84 43.5q-67 0 -101 -35t-34 -119z" />
    <glyph glyph-name="Racute" unicode="&#x154;" horiz-adv-x="878" 
d="M322 791h22q94 0 154.5 60t60.5 189q0 119 -51 172.5t-150 53.5h-36v-475zM821 170h6q15 -7 25 -28t10 -42q0 -112 -147 -112q-82 0 -133.5 54.5t-51.5 182.5v203q0 131 -42 175t-150 44h-16v-647h-205v1438h233q215 0 314.5 -94t99.5 -295q0 -78 -22.5 -138.5t-62 -97
t-86.5 -57.5t-104 -29v-4q234 0 234 -274v-230q0 -51 11 -71.5t40 -20.5q19 0 31.5 13t15.5 30zM430 1536h-135l102 256h185z" />
    <glyph glyph-name="racute" unicode="&#x155;" horiz-adv-x="675" 
d="M285 0h-193v1028h180v-250h4q10 57 25 99.5t40.5 81.5t66 60t94.5 21q77 0 120.5 -45t43.5 -118q0 -76 -52 -121t-133 -45v8q37 37 37 82q0 35 -12 51t-45 16q-55 0 -96 -57t-60.5 -144.5t-19.5 -189.5v-477zM420 1223h-135l102 256h184z" />
    <glyph glyph-name="Rcommaaccent" unicode="&#x156;" horiz-adv-x="878" 
d="M322 791h22q94 0 154.5 60t60.5 189q0 119 -51 172.5t-150 53.5h-36v-475zM821 170h6q15 -7 25 -28t10 -42q0 -112 -147 -112q-82 0 -133.5 54.5t-51.5 182.5v203q0 131 -42 175t-150 44h-16v-647h-205v1438h233q215 0 314.5 -94t99.5 -295q0 -78 -22.5 -138.5t-62 -97
t-86.5 -57.5t-104 -29v-4q234 0 234 -274v-230q0 -51 11 -71.5t40 -20.5q19 0 31.5 13t15.5 30zM254 -500v11q102 60 102 249v125h164v-82q0 -140 -65 -221.5t-201 -81.5z" />
    <glyph glyph-name="rcommaaccent" unicode="&#x157;" horiz-adv-x="675" 
d="M285 0h-193v1028h180v-250h4q10 57 25 99.5t40.5 81.5t66 60t94.5 21q77 0 120.5 -45t43.5 -118q0 -76 -52 -121t-133 -45v8q37 37 37 82q0 35 -12 51t-45 16q-55 0 -96 -57t-60.5 -144.5t-19.5 -189.5v-477zM4 -500v11q102 60 102 249v125h164v-82q0 -140 -65 -221.5
t-201 -81.5z" />
    <glyph glyph-name="Rcaron" unicode="&#x158;" horiz-adv-x="878" 
d="M322 791h22q94 0 154.5 60t60.5 189q0 119 -51 172.5t-150 53.5h-36v-475zM821 170h6q15 -7 25 -28t10 -42q0 -112 -147 -112q-82 0 -133.5 54.5t-51.5 182.5v203q0 131 -42 175t-150 44h-16v-647h-205v1438h233q215 0 314.5 -94t99.5 -295q0 -78 -22.5 -138.5t-62 -97
t-86.5 -57.5t-104 -29v-4q234 0 234 -274v-230q0 -51 11 -71.5t40 -20.5q19 0 31.5 13t15.5 30zM631 1636l-256 -110h-8l-256 110v146l260 -113l260 113v-146z" />
    <glyph glyph-name="rcaron" unicode="&#x159;" horiz-adv-x="675" 
d="M285 0h-193v1028h180v-250h4q10 57 25 99.5t40.5 81.5t66 60t94.5 21q77 0 120.5 -45t43.5 -118q0 -76 -52 -121t-133 -45v8q37 37 37 82q0 35 -12 51t-45 16q-55 0 -96 -57t-60.5 -144.5t-19.5 -189.5v-477zM633 1323l-256 -111h-8l-256 111v145l260 -112l260 112v-145z
" />
    <glyph glyph-name="Sacute" unicode="&#x15a;" horiz-adv-x="839" 
d="M328 514l6 -4q-45 -75 -45 -197q0 -84 32 -117.5t97 -33.5q67 0 100 43t33 147q0 55 -25 108.5t-65.5 99.5t-89.5 92t-97.5 95.5t-89 102t-65.5 119.5t-25 139q0 342 336 342q134 0 216.5 -76t82.5 -215v-151h-192v149q0 133 -115 133q-64 0 -93.5 -36t-29.5 -121
q0 -69 24.5 -129t64 -105t87 -88t95 -87.5t87 -93.5t64 -116.5t24.5 -146.5q0 -182 -82.5 -280.5t-248.5 -98.5q-154 0 -237 81.5t-83 225.5q0 103 54.5 165t130.5 62q28 0 49 -8zM494 1536h-136l103 256h184z" />
    <glyph glyph-name="sacute" unicode="&#x15b;" horiz-adv-x="749" 
d="M662 707h-173v67q0 66 -23 98.5t-85 32.5q-53 0 -83 -25.5t-30 -74.5q0 -40 23 -75t59.5 -63t81 -56t89 -60t81 -68t59.5 -87t23 -111q0 -135 -77.5 -216t-233.5 -81q-147 0 -226 68t-79 175q0 54 22 93t54 56.5t63.5 27t53.5 10.5h22h8q-6 -7 -15 -20t-23.5 -52.5
t-14.5 -77.5q0 -61 36 -93t103 -32q57 0 89 31t32 84q0 48 -22.5 88.5t-59 70t-80 57.5t-87 58.5t-80 65.5t-59 85.5t-22.5 111.5q0 113 82 179t221 66q133 0 202 -69.5t69 -177.5v-86zM397 1223h-135l103 256h184z" />
    <glyph glyph-name="Scircumflex" unicode="&#x15c;" horiz-adv-x="839" 
d="M328 514l6 -4q-45 -75 -45 -197q0 -84 32 -117.5t97 -33.5q67 0 100 43t33 147q0 55 -25 108.5t-65.5 99.5t-89.5 92t-97.5 95.5t-89 102t-65.5 119.5t-25 139q0 342 336 342q134 0 216.5 -76t82.5 -215v-151h-192v149q0 133 -115 133q-64 0 -93.5 -36t-29.5 -121
q0 -69 24.5 -129t64 -105t87 -88t95 -87.5t87 -93.5t64 -116.5t24.5 -146.5q0 -182 -82.5 -280.5t-248.5 -98.5q-154 0 -237 81.5t-83 225.5q0 103 54.5 165t130.5 62q28 0 49 -8zM684 1526l-260 112l-260 -112v145l256 111h8l256 -111v-145z" />
    <glyph glyph-name="scircumflex" unicode="&#x15d;" horiz-adv-x="749" 
d="M662 707h-173v67q0 66 -23 98.5t-85 32.5q-53 0 -83 -25.5t-30 -74.5q0 -40 23 -75t59.5 -63t81 -56t89 -60t81 -68t59.5 -87t23 -111q0 -135 -77.5 -216t-233.5 -81q-147 0 -226 68t-79 175q0 54 22 93t54 56.5t63.5 27t53.5 10.5h22h8q-6 -7 -15 -20t-23.5 -52.5
t-14.5 -77.5q0 -61 36 -93t103 -32q57 0 89 31t32 84q0 48 -22.5 88.5t-59 70t-80 57.5t-87 58.5t-80 65.5t-59 85.5t-22.5 111.5q0 113 82 179t221 66q133 0 202 -69.5t69 -177.5v-86zM641 1233l-260 113l-260 -113v145l256 111h8l256 -111v-145z" />
    <glyph glyph-name="Scedilla" unicode="&#x15e;" horiz-adv-x="839" 
d="M317 -322v5q101 0 101 88q0 81 -90 127l32 94q-129 12 -197.5 91.5t-68.5 211.5q0 103 54.5 165t130.5 62q28 0 49 -8l6 -4q-45 -75 -45 -197q0 -84 32 -117.5t97 -33.5q67 0 100 43t33 147q0 55 -25 108.5t-65.5 99.5t-89.5 92t-97.5 95.5t-89 102t-65.5 119.5t-25 139
q0 342 336 342q134 0 216.5 -76t82.5 -215v-151h-192v149q0 133 -115 133q-64 0 -93.5 -36t-29.5 -121q0 -69 24.5 -129t64 -105t87 -88t95 -87.5t87 -93.5t64 -116.5t24.5 -146.5q0 -160 -63 -256t-190 -117l-35 -80q38 -19 66 -62.5t28 -97.5q0 -74 -43.5 -119t-101.5 -45
q-41 0 -65 25t-24 63z" />
    <glyph glyph-name="scedilla" unicode="&#x15f;" horiz-adv-x="749" 
d="M285 -322v5q100 0 100 88q0 81 -90 127l29 92q-124 12 -190 77.5t-66 163.5q0 54 22 93t54 56.5t63.5 27t53.5 10.5h22h8q-6 -7 -15 -20t-23.5 -52.5t-14.5 -77.5q0 -61 36 -93t103 -32q57 0 89 31t32 84q0 48 -22.5 88.5t-59 70t-80 57.5t-87 58.5t-80 65.5t-59 85.5
t-22.5 111.5q0 113 82 179t221 66q133 0 202 -69.5t69 -177.5v-86h-173v67q0 66 -23 98.5t-85 32.5q-53 0 -83 -25.5t-30 -74.5q0 -40 23 -75t59.5 -63t81 -56t89 -60t81 -68t59.5 -87t23 -111q0 -115 -57.5 -192t-171.5 -97l-31 -82q38 -19 66 -62.5t28 -97.5
q0 -74 -43.5 -119t-101.5 -45q-41 0 -64.5 25t-23.5 63z" />
    <glyph glyph-name="Scaron" unicode="&#x160;" horiz-adv-x="839" 
d="M328 514l6 -4q-45 -75 -45 -197q0 -84 32 -117.5t97 -33.5q67 0 100 43t33 147q0 55 -25 108.5t-65.5 99.5t-89.5 92t-97.5 95.5t-89 102t-65.5 119.5t-25 139q0 342 336 342q134 0 216.5 -76t82.5 -215v-151h-192v149q0 133 -115 133q-64 0 -93.5 -36t-29.5 -121
q0 -69 24.5 -129t64 -105t87 -88t95 -87.5t87 -93.5t64 -116.5t24.5 -146.5q0 -182 -82.5 -280.5t-248.5 -98.5q-154 0 -237 81.5t-83 225.5q0 103 54.5 165t130.5 62q28 0 49 -8zM694 1636l-256 -110h-8l-256 110v146l260 -113l260 113v-146z" />
    <glyph glyph-name="scaron" unicode="&#x161;" horiz-adv-x="749" 
d="M662 707h-173v67q0 66 -23 98.5t-85 32.5q-53 0 -83 -25.5t-30 -74.5q0 -40 23 -75t59.5 -63t81 -56t89 -60t81 -68t59.5 -87t23 -111q0 -135 -77.5 -216t-233.5 -81q-147 0 -226 68t-79 175q0 54 22 93t54 56.5t63.5 27t53.5 10.5h22h8q-6 -7 -15 -20t-23.5 -52.5
t-14.5 -77.5q0 -61 36 -93t103 -32q57 0 89 31t32 84q0 48 -22.5 88.5t-59 70t-80 57.5t-87 58.5t-80 65.5t-59 85.5t-22.5 111.5q0 113 82 179t221 66q133 0 202 -69.5t69 -177.5v-86zM657 1323l-256 -111h-8l-256 111v145l260 -112l260 112v-145z" />
    <glyph glyph-name="Tcommaaccent" unicode="&#x162;" 
d="M504 0h-205v1266h-246v172h697v-172h-246v-1266zM213 -500v11q102 60 102 249v125h164v-82q0 -140 -65 -221.5t-201 -81.5z" />
    <glyph glyph-name="tcommaaccent" unicode="&#x163;" horiz-adv-x="614" 
d="M580 180l4 -2q0 -76 -48.5 -127t-156.5 -51q-113 0 -172.5 69.5t-59.5 192.5v631h-116v135h116v303h193v-303h221v-135h-221v-617q0 -79 25.5 -110t80.5 -31q79 0 134 45zM164 -500v11q102 60 102 249v125h164v-82q0 -140 -65 -221.5t-201 -81.5z" />
    <glyph glyph-name="Tcaron" unicode="&#x164;" 
d="M504 0h-205v1266h-246v172h697v-172h-246v-1266zM659 1636l-256 -110h-8l-256 110v146l260 -113l260 113v-146z" />
    <glyph glyph-name="tcaron" unicode="&#x165;" horiz-adv-x="675" 
d="M580 180l4 -2q0 -76 -48.5 -127t-156.5 -51q-113 0 -172.5 69.5t-59.5 192.5v631h-116v135h116v303h193v-303h221v-135h-221v-617q0 -79 25.5 -110t80.5 -31q79 0 134 45zM449 1153v10q102 60 102 250v125h164v-82q0 -140 -65 -221.5t-201 -81.5z" />
    <glyph glyph-name="Tbar" unicode="&#x166;" 
d="M504 0h-205v649h-147v133h147v484h-246v172h697v-172h-246v-484h147v-133h-147v-649z" />
    <glyph glyph-name="tbar" unicode="&#x167;" horiz-adv-x="614" 
d="M580 180l4 -2q0 -76 -48.5 -127t-156.5 -51q-113 0 -172.5 69.5t-59.5 192.5v313h-116v136h116v182h-116v135h116v303h193v-303h221v-135h-221v-182h221v-136h-221v-299q0 -79 25.5 -110t80.5 -31q79 0 134 45z" />
    <glyph glyph-name="Utilde" unicode="&#x168;" horiz-adv-x="942" 
d="M625 319v1119h204v-1084q0 -55 -10 -104.5t-35.5 -98.5t-65 -84t-103 -57t-144.5 -22t-144.5 22t-103 57t-65 84t-35.5 98.5t-10 104.5v1084h204v-1119q0 -79 38.5 -125.5t115.5 -46.5t115.5 46.5t38.5 125.5zM647 1817h80q-2 -46 -8 -80t-21.5 -66.5t-45.5 -49.5
t-74 -17q-50 0 -115 32.5t-94 32.5q-49 0 -62 -78h-80q11 213 150 213q53 0 127 -32.5t92 -32.5q24 0 35 19t16 59z" />
    <glyph glyph-name="utilde" unicode="&#x169;" horiz-adv-x="804" 
d="M715 0h-180v147h-5q-16 -35 -31.5 -59.5t-41 -49.5t-62 -37.5t-84.5 -12.5q-114 0 -167.5 64t-53.5 200v776h193v-739q0 -82 31.5 -118t103.5 -36q41 0 72.5 27t31.5 82v784h193v-1028zM571 1481h80q-2 -46 -8 -80t-21.5 -66.5t-45.5 -49.5t-74 -17q-50 0 -115 32.5
t-94 32.5q-49 0 -62 -78h-79q11 213 149 213q53 0 127 -32.5t92 -32.5q24 0 35 19t16 59z" />
    <glyph glyph-name="Umacron" unicode="&#x16a;" horiz-adv-x="942" 
d="M625 319v1119h204v-1084q0 -55 -10 -104.5t-35.5 -98.5t-65 -84t-103 -57t-144.5 -22t-144.5 22t-103 57t-65 84t-35.5 98.5t-10 104.5v1084h204v-1119q0 -79 38.5 -125.5t115.5 -46.5t115.5 46.5t38.5 125.5zM721 1622h-500v133h500v-133z" />
    <glyph glyph-name="umacron" unicode="&#x16b;" horiz-adv-x="804" 
d="M715 0h-180v147h-5q-16 -35 -31.5 -59.5t-41 -49.5t-62 -37.5t-84.5 -12.5q-114 0 -167.5 64t-53.5 200v776h193v-739q0 -82 31.5 -118t103.5 -36q41 0 72.5 27t31.5 82v784h193v-1028zM653 1233h-499v133h499v-133z" />
    <glyph glyph-name="Ubreve" unicode="&#x16c;" horiz-adv-x="942" 
d="M625 319v1119h204v-1084q0 -55 -10 -104.5t-35.5 -98.5t-65 -84t-103 -57t-144.5 -22t-144.5 22t-103 57t-65 84t-35.5 98.5t-10 104.5v1084h204v-1119q0 -79 38.5 -125.5t115.5 -46.5t115.5 46.5t38.5 125.5zM588 1749h143q0 -114 -70 -170.5t-190 -56.5t-190 56.5
t-70 170.5h143q3 -104 117 -104t117 104z" />
    <glyph glyph-name="ubreve" unicode="&#x16d;" horiz-adv-x="804" 
d="M715 0h-180v147h-5q-16 -35 -31.5 -59.5t-41 -49.5t-62 -37.5t-84.5 -12.5q-114 0 -167.5 64t-53.5 200v776h193v-739q0 -82 31.5 -118t103.5 -36q41 0 72.5 27t31.5 82v784h193v-1028zM518 1452h144q0 -114 -70.5 -170.5t-190.5 -56.5t-190 56.5t-70 170.5h144
q3 -104 116 -104q114 0 117 104z" />
    <glyph glyph-name="Uring" unicode="&#x16e;" horiz-adv-x="942" 
d="M625 319v1119h204v-1084q0 -55 -10 -104.5t-35.5 -98.5t-65 -84t-103 -57t-144.5 -22t-144.5 22t-103 57t-65 84t-35.5 98.5t-10 104.5v1084h204v-1119q0 -79 38.5 -125.5t115.5 -46.5t115.5 46.5t38.5 125.5zM471 1511q-76 0 -130 54t-54 131q0 76 53.5 130t130.5 54
t130.5 -54t53.5 -130q0 -77 -54 -131t-130 -54zM561 1696q0 37 -26.5 63.5t-63.5 26.5t-63.5 -26.5t-26.5 -63.5t26.5 -63.5t63.5 -26.5t63.5 26.5t26.5 63.5z" />
    <glyph glyph-name="uring" unicode="&#x16f;" horiz-adv-x="804" 
d="M715 0h-180v147h-5q-16 -35 -31.5 -59.5t-41 -49.5t-62 -37.5t-84.5 -12.5q-114 0 -167.5 64t-53.5 200v776h193v-739q0 -82 31.5 -118t103.5 -36q41 0 72.5 27t31.5 82v784h193v-1028zM401 1165q-76 0 -130 54t-54 131q0 76 53.5 130t130.5 54t131 -54t54 -130
t-54 -130.5t-131 -54.5zM492 1350q0 37 -27 63.5t-64 26.5t-63.5 -26.5t-26.5 -63.5t26.5 -63.5t63.5 -26.5t64 26.5t27 63.5z" />
    <glyph glyph-name="Uhungarumlaut" unicode="&#x170;" horiz-adv-x="942" 
d="M625 319v1119h204v-1084q0 -55 -10 -104.5t-35.5 -98.5t-65 -84t-103 -57t-144.5 -22t-144.5 22t-103 57t-65 84t-35.5 98.5t-10 104.5v1084h204v-1119q0 -79 38.5 -125.5t115.5 -46.5t115.5 46.5t38.5 125.5zM410 1536h-123l49 256h174zM657 1536h-122l79 256h174z" />
    <glyph glyph-name="uhungarumlaut" unicode="&#x171;" horiz-adv-x="804" 
d="M715 0h-180v147h-5q-16 -35 -31.5 -59.5t-41 -49.5t-62 -37.5t-84.5 -12.5q-114 0 -167.5 64t-53.5 200v776h193v-739q0 -82 31.5 -118t103.5 -36q41 0 72.5 27t31.5 82v784h193v-1028zM301 1223h-123l49 256h174zM549 1223h-123l80 256h174z" />
    <glyph glyph-name="Uogonek" unicode="&#x172;" horiz-adv-x="942" 
d="M561 -287l6 -4q0 -53 -31 -79.5t-81 -26.5q-69 0 -103.5 38t-34.5 109q0 64 35 128t90 110q-75 3 -133 27t-94.5 59t-60 83t-32.5 96t-9 101v1084h204v-1119q0 -79 38.5 -125.5t115.5 -46.5t115.5 46.5t38.5 125.5v1119h204v-1084q0 -49 -8.5 -94.5t-29 -90.5t-52 -80
t-81.5 -60.5t-113 -34.5q-84 -126 -84 -232q0 -65 47 -65q27 0 53 16z" />
    <glyph glyph-name="uogonek" unicode="&#x173;" horiz-adv-x="804" 
d="M707 -287l6 -4q0 -53 -31.5 -79.5t-81.5 -26.5q-137 0 -137 147q0 148 145 250q-73 0 -73 94v53h-5q-16 -35 -31.5 -59.5t-41 -49.5t-62 -37.5t-84.5 -12.5q-114 0 -167.5 64t-53.5 200v776h193v-739q0 -82 31.5 -118t103.5 -36q41 0 72.5 27t31.5 82v784h193v-1028
q-109 -86 -109 -238q0 -65 47 -65q28 0 54 16z" />
    <glyph glyph-name="Wcircumflex" unicode="&#x174;" horiz-adv-x="1447" 
d="M1120 0h-246l-147 977h-4l-158 -977h-243l-203 1241q-6 38 -20 55t-42 17q-13 0 -26 -5.5t-15 -9.5h-4q0 72 42.5 111t107.5 39q62 0 100 -38t49 -126l140 -1008h4l188 1162h176l178 -1162h4l166 1162h193zM985 1526l-260 112l-260 -112v145l256 111h8l256 -111v-145z
" />
    <glyph glyph-name="wcircumflex" unicode="&#x175;" horiz-adv-x="1181" 
d="M934 0h-189l-147 717h-4l-164 -717h-180l-144 836q-6 39 -19 55t-42 16q-13 0 -26 -5t-15 -9h-4q0 72 40 108.5t105 36.5q62 0 98 -37.5t48 -126.5l82 -563h4l151 717h138l165 -717h5l75 717h193zM856 1233l-260 113l-260 -113v145l256 111h8l256 -111v-145z" />
    <glyph glyph-name="Ycircumflex" unicode="&#x176;" horiz-adv-x="901" 
d="M561 0h-205v565l-239 676q-14 40 -26 56t-36 16q-13 0 -26 -5.5t-15 -9.5h-4q0 73 39 111.5t103 38.5q59 0 91 -35.5t60 -128.5l154 -504h4l201 658h188l-289 -873v-565zM719 1526l-260 112l-260 -112v145l256 111h8l256 -111v-145z" />
    <glyph glyph-name="ycircumflex" unicode="&#x177;" horiz-adv-x="839" 
d="M516 -373h-180l92 400q-103 0 -151.5 61t-73.5 213l-86 533q-6 38 -20 54.5t-42 16.5q-13 0 -26 -5t-15 -9h-4q0 72 42.5 110.5t107.5 38.5q62 0 100 -37.5t49 -125.5l74 -580q10 -77 26 -100t42 -23h4l161 854h193zM723 1233l-260 113l-260 -113v145l256 111h8l256 -111
v-145z" />
    <glyph glyph-name="Ydieresis" unicode="&#x178;" horiz-adv-x="901" 
d="M561 0h-205v565l-239 676q-14 40 -26 56t-36 16q-13 0 -26 -5.5t-15 -9.5h-4q0 73 39 111.5t103 38.5q59 0 91 -35.5t60 -128.5l154 -504h4l201 658h188l-289 -873v-565zM291 1536q-38 0 -65 27t-27 65t27 65t65 27t65 -27t27 -65t-27 -65t-65 -27zM627 1536
q-38 0 -65 27t-27 65t27 65t65 27t65 -27t27 -65t-27 -65t-65 -27z" />
    <glyph glyph-name="Zacute" unicode="&#x179;" 
d="M686 242h8q43 -50 43 -113q0 -67 -37.5 -104t-99.5 -37q-43 0 -97 28.5t-101.5 57t-75.5 28.5q-41 0 -65.5 -25.5t-28.5 -50.5l-5 -26h-135v84q0 44 7.5 84.5t15 63t22.5 59.5l385 975h-403v172h608v-172l-414 -1047h2q22 43 72 43q36 0 119.5 -40t109.5 -40q59 0 70 60z
M457 1536h-135l102 256h184z" />
    <glyph glyph-name="zacute" unicode="&#x17a;" horiz-adv-x="675" 
d="M614 242h9q43 -50 43 -113q0 -66 -37.5 -103.5t-100.5 -37.5q-34 0 -72.5 18t-66.5 39t-60 39t-55 18q-42 0 -59.5 -25t-17.5 -77h-156v23q0 102 51 206l320 652h-340v147h530v-127l-340 -682h2q22 43 72 43q36 0 109.5 -40t99.5 -40q58 0 69 60zM397 1223h-135l103 256
h184z" />
    <glyph glyph-name="Zdotaccent" unicode="&#x17b;" 
d="M686 242h8q43 -50 43 -113q0 -67 -37.5 -104t-99.5 -37q-43 0 -97 28.5t-101.5 57t-75.5 28.5q-41 0 -65.5 -25.5t-28.5 -50.5l-5 -26h-135v84q0 44 7.5 84.5t15 63t22.5 59.5l385 975h-403v172h608v-172l-414 -1047h2q22 43 72 43q36 0 119.5 -40t109.5 -40q59 0 70 60z
M428 1536q-43 0 -72.5 29.5t-29.5 72.5t29.5 73t72.5 30t72.5 -30t29.5 -73t-29.5 -72.5t-72.5 -29.5z" />
    <glyph glyph-name="zdotaccent" unicode="&#x17c;" horiz-adv-x="675" 
d="M614 242h9q43 -50 43 -113q0 -66 -37.5 -103.5t-100.5 -37.5q-34 0 -72.5 18t-66.5 39t-60 39t-55 18q-42 0 -59.5 -25t-17.5 -77h-156v23q0 102 51 206l320 652h-340v147h530v-127l-340 -682h2q22 43 72 43q36 0 109.5 -40t99.5 -40q58 0 69 60zM362 1221
q-43 0 -72.5 29.5t-29.5 72.5t29.5 72.5t72.5 29.5t73 -29.5t30 -72.5t-30 -72.5t-73 -29.5z" />
    <glyph glyph-name="Zcaron" unicode="&#x17d;" 
d="M686 242h8q43 -50 43 -113q0 -67 -37.5 -104t-99.5 -37q-43 0 -97 28.5t-101.5 57t-75.5 28.5q-41 0 -65.5 -25.5t-28.5 -50.5l-5 -26h-135v84q0 44 7.5 84.5t15 63t22.5 59.5l385 975h-403v172h608v-172l-414 -1047h2q22 43 72 43q36 0 119.5 -40t109.5 -40q59 0 70 60z
M696 1636l-256 -110h-8l-256 110v146l260 -113l260 113v-146z" />
    <glyph glyph-name="zcaron" unicode="&#x17e;" horiz-adv-x="675" 
d="M614 242h9q43 -50 43 -113q0 -66 -37.5 -103.5t-100.5 -37.5q-34 0 -72.5 18t-66.5 39t-60 39t-55 18q-42 0 -59.5 -25t-17.5 -77h-156v23q0 102 51 206l320 652h-340v147h530v-127l-340 -682h2q22 43 72 43q36 0 109.5 -40t99.5 -40q58 0 69 60zM610 1323l-256 -111h-8
l-256 111v145l260 -112l260 112v-145z" />
    <glyph glyph-name="longs" unicode="&#x17f;" horiz-adv-x="622" 
d="M360 0h-192v893h-137v135h137v125q0 159 73.5 242.5t213.5 83.5q100 0 156.5 -52.5t56.5 -123.5q0 -68 -48 -108t-126 -40v8q26 54 26 97q0 69 -63 69q-50 0 -73.5 -39.5t-23.5 -146.5v-1143z" />
    <glyph glyph-name="florin" unicode="&#x192;" 
d="M197 -88l86 770h-138v135h152l39 348q15 145 90 215t199 70q113 0 174 -90l-99 -94q-4 5 -10.5 13.5t-28 22t-43.5 13.5q-48 0 -70 -36t-34 -144l-35 -318h146v-135h-162l-90 -821q-14 -127 -70 -186.5t-135 -59.5q-70 0 -109 42t-45 110l9 8q25 -25 71 -25
q38 0 55.5 10.5t28.5 44t19 107.5z" />
    <glyph glyph-name="AEacute" unicode="&#x1fc;" horiz-adv-x="1306" 
d="M1167 285h9q40 -6 62 -35.5t22 -73.5q0 -78 -69.5 -133t-203.5 -55q-139 0 -214.5 78.5t-86.5 230.5l-6 80h-303l-109 -377h-200l444 1438h741v-172h-454l37 -443h397v-151h-385l33 -373q7 -77 34.5 -107t81.5 -30q130 0 170 123zM670 528l-47 672h-5l-196 -672h248z
M909 1536h-135l103 256h184z" />
    <glyph glyph-name="aeacute" unicode="&#x1fd;" horiz-adv-x="1183" 
d="M1081 317v-73q0 -120 -76 -188t-231 -68q-293 0 -293 256v252q-120 0 -178.5 -55t-58.5 -171q0 -80 24 -113.5t76 -33.5q26 0 54 9.5t40 21.5h8q0 -68 -42.5 -117t-124.5 -49q-104 0 -166 61t-62 195q0 159 116 246.5t314 87.5v219q0 51 -21 79.5t-79 28.5
q-102 0 -102 -106v-74h-193v72q0 114 79 178.5t216 64.5q138 0 213 -63q86 63 207 63q134 0 217.5 -74t83.5 -212q0 -83 -32.5 -144t-91.5 -96.5t-134.5 -52.5t-169.5 -17v-211q0 -61 30.5 -91.5t83.5 -30.5q113 0 113 129v77h180zM674 780v-254q58 0 99 9t77 33.5t54 71.5
t18 118q0 73 -28.5 116.5t-84.5 43.5q-64 0 -98 -31.5t-37 -106.5zM664 1223h-136l103 256h184z" />
    <glyph glyph-name="Oslashacute" unicode="&#x1fe;" horiz-adv-x="942" 
d="M530 1536h-135l103 256h184zM215 -70h-86l57 168q-73 87 -73 256v707q0 81 19 148.5t59.5 123t112 86.5t167.5 31q90 0 168 -33l39 115h90l-55 -160q116 -102 116 -311v-707q0 -366 -358 -366q-134 0 -219 51zM625 342v735q0 25 -2 35l-295 -854q34 -111 143 -111
q67 0 110.5 50t43.5 145zM317 479l263 766q-39 45 -109 45q-154 0 -154 -213v-598z" />
    <glyph glyph-name="oslashacute" unicode="&#x1ff;" horiz-adv-x="804" 
d="M467 1223h-135l102 256h184zM215 -70h-86l53 133q-94 82 -94 222v458q0 131 86.5 214t228.5 83q83 0 152 -32l41 100h90l-59 -147q92 -80 92 -218v-458q0 -131 -87 -214t-229 -83q-78 0 -153 30zM281 311l217 551q-28 43 -95 43q-122 0 -122 -149v-445zM526 272v435
l-217 -543q28 -41 94 -41q123 0 123 149z" />
    <glyph glyph-name="Scommaaccent" unicode="&#x218;" horiz-adv-x="839" 
d="M328 514l6 -4q-45 -75 -45 -197q0 -84 32 -117.5t97 -33.5q67 0 100 43t33 147q0 55 -25 108.5t-65.5 99.5t-89.5 92t-97.5 95.5t-89 102t-65.5 119.5t-25 139q0 342 336 342q134 0 216.5 -76t82.5 -215v-151h-192v149q0 133 -115 133q-64 0 -93.5 -36t-29.5 -121
q0 -69 24.5 -129t64 -105t87 -88t95 -87.5t87 -93.5t64 -116.5t24.5 -146.5q0 -182 -82.5 -280.5t-248.5 -98.5q-154 0 -237 81.5t-83 225.5q0 103 54.5 165t130.5 62q28 0 49 -8zM223 -500v11q103 60 103 249v125h163v-82q0 -140 -65 -221.5t-201 -81.5z" />
    <glyph glyph-name="scommaaccent" unicode="&#x219;" horiz-adv-x="749" 
d="M662 707h-173v67q0 66 -23 98.5t-85 32.5q-53 0 -83 -25.5t-30 -74.5q0 -40 23 -75t59.5 -63t81 -56t89 -60t81 -68t59.5 -87t23 -111q0 -135 -77.5 -216t-233.5 -81q-147 0 -226 68t-79 175q0 54 22 93t54 56.5t63.5 27t53.5 10.5h22h8q-6 -7 -15 -20t-23.5 -52.5
t-14.5 -77.5q0 -61 36 -93t103 -32q57 0 89 31t32 84q0 48 -22.5 88.5t-59 70t-80 57.5t-87 58.5t-80 65.5t-59 85.5t-22.5 111.5q0 113 82 179t221 66q133 0 202 -69.5t69 -177.5v-86zM205 -500v11q102 60 102 249v125h164v-82q0 -140 -65 -221.5t-201 -81.5z" />
    <glyph glyph-name="uni021A" unicode="&#x21a;" 
d="M504 0h-205v1266h-246v172h697v-172h-246v-1266zM221 -500v11q103 60 103 249v125h163v-82q0 -140 -65 -221.5t-201 -81.5z" />
    <glyph glyph-name="uni021B" unicode="&#x21b;" horiz-adv-x="614" 
d="M580 180l4 -2q0 -76 -48.5 -127t-156.5 -51q-113 0 -172.5 69.5t-59.5 192.5v631h-116v135h116v303h193v-303h221v-135h-221v-617q0 -79 25.5 -110t80.5 -31q79 0 134 45zM207 -500v11q102 60 102 249v125h164v-82q0 -140 -65 -221.5t-201 -81.5z" />
    <glyph glyph-name="dotlessj" unicode="&#x237;" horiz-adv-x="487" 
d="M-25 -303v29q103 0 153 42t50 162v1098h193v-1073q0 -158 -68 -218.5t-203 -60.5q-64 0 -125 21z" />
    <glyph glyph-name="circumflex" unicode="&#x2c6;" horiz-adv-x="716" 
d="M618 1233l-260 113l-260 -113v145l256 111h8l256 -111v-145z" />
    <glyph glyph-name="caron" unicode="&#x2c7;" horiz-adv-x="716" 
d="M618 1323l-256 -111h-8l-256 111v145l260 -112l260 112v-145z" />
    <glyph glyph-name="uni02C9" unicode="&#x2c9;" horiz-adv-x="716" 
d="M629 1294h-541v144h541v-144z" />
    <glyph glyph-name="breve" unicode="&#x2d8;" horiz-adv-x="716" 
d="M475 1452h143q0 -114 -70 -170.5t-190 -56.5t-190 56.5t-70 170.5h144q3 -104 116 -104q114 0 117 104z" />
    <glyph glyph-name="dotaccent" unicode="&#x2d9;" horiz-adv-x="716" 
d="M358 1221q-43 0 -72.5 29.5t-29.5 72.5t29.5 72.5t72.5 29.5t73 -29.5t30 -72.5t-30 -72.5t-73 -29.5z" />
    <glyph glyph-name="ring" unicode="&#x2da;" horiz-adv-x="716" 
d="M358 1165q-76 0 -130 54t-54 131q0 76 54 130t130 54q77 0 131 -54t54 -130t-54.5 -130.5t-130.5 -54.5zM449 1350q0 37 -27 63.5t-64 26.5t-63.5 -26.5t-26.5 -63.5t26.5 -63.5t63.5 -26.5t64 26.5t27 63.5z" />
    <glyph glyph-name="ogonek" unicode="&#x2db;" horiz-adv-x="716" 
d="M504 -287l6 -4q0 -53 -31.5 -79.5t-81.5 -26.5q-137 0 -137 147q0 67 41.5 134.5t101.5 115.5h95q-95 -140 -95 -238q0 -65 48 -65q27 0 53 16z" />
    <glyph glyph-name="tilde" unicode="&#x2dc;" horiz-adv-x="716" 
d="M528 1481h80q-2 -46 -8 -80t-21.5 -66.5t-45.5 -49.5t-74 -17q-51 0 -115 32.5t-94 32.5q-49 0 -62 -78h-79q11 213 149 213q53 0 127 -32.5t92 -32.5q24 0 35 19t16 59z" />
    <glyph glyph-name="hungarumlaut" unicode="&#x2dd;" horiz-adv-x="716" 
d="M287 1223h-123l49 256h174zM535 1223h-123l80 256h174z" />
    <glyph glyph-name="uni037E" unicode="&#x37e;" horiz-adv-x="571" 
d="M211 774q-53 0 -90 37t-37 90t37 90t90 37t90 -37t37 -90t-37 -90t-90 -37zM20 -246v10q103 60 103 250v187h186v-144q0 -136 -75 -219.5t-214 -83.5z" />
    <glyph glyph-name="tonos" unicode="&#x384;" horiz-adv-x="716" 
d="M391 1223h-135l102 256h185z" />
    <glyph glyph-name="dieresistonos" unicode="&#x385;" horiz-adv-x="716" 
d="M115 1221q-38 0 -65 27t-27 65t27 65t65 27t65 -27t27 -65t-27 -65t-65 -27zM614 1221q-38 0 -65 27t-27 65t27 65t65 27t65.5 -27t27.5 -65t-27.5 -65t-65.5 -27zM379 1223h-123l80 256h184z" />
    <glyph glyph-name="anoteleia" unicode="&#x387;" horiz-adv-x="555" 
d="M201 563q-53 0 -90 37.5t-37 89.5t37 89.5t90 37.5t90 -37.5t37 -89.5t-37 -89.5t-90 -37.5z" />
    <glyph glyph-name="uni03A9" unicode="&#x3a9;" horiz-adv-x="989" 
d="M905 0h-342v111q67 83 111.5 257.5t44.5 397.5v205q0 165 -60 242t-165 77q-50 0 -88 -13.5t-72.5 -46.5t-53 -99t-18.5 -162v-203q0 -207 47 -391t111 -264v-111h-344v152h192v8q-172 262 -172 606v203q0 481 406 481q86 0 154.5 -27t121 -83t81 -150t28.5 -221v-203
q0 -340 -172 -606v-8h190v-152z" />
    <glyph glyph-name="pi" unicode="&#x3c0;" horiz-adv-x="925" 
d="M803 0h-156q-26 63 -26 268v656h-267v-924h-159v924q-47 0 -77 -6.5t-42.5 -14.5t-34.5 -26l-6 2q0 89 56.5 147.5t150.5 58.5h649v-161h-109v-654q0 -174 21 -270z" />
    <glyph glyph-name="Wgrave" unicode="&#x1e80;" horiz-adv-x="1447" 
d="M1120 0h-246l-147 977h-4l-158 -977h-243l-203 1241q-6 38 -20 55t-42 17q-13 0 -26 -5.5t-15 -9.5h-4q0 72 42.5 111t107.5 39q62 0 100 -38t49 -126l140 -1008h4l188 1162h176l178 -1162h4l166 1162h193zM799 1536h-133l-152 256h184z" />
    <glyph glyph-name="wgrave" unicode="&#x1e81;" horiz-adv-x="1181" 
d="M934 0h-189l-147 717h-4l-164 -717h-180l-144 836q-6 39 -19 55t-42 16q-13 0 -26 -5t-15 -9h-4q0 72 40 108.5t105 36.5q62 0 98 -37.5t48 -126.5l82 -563h4l151 717h138l165 -717h5l75 717h193zM709 1223h-134l-151 256h184z" />
    <glyph glyph-name="Wacute" unicode="&#x1e82;" horiz-adv-x="1447" 
d="M1120 0h-246l-147 977h-4l-158 -977h-243l-203 1241q-6 38 -20 55t-42 17q-13 0 -26 -5.5t-15 -9.5h-4q0 72 42.5 111t107.5 39q62 0 100 -38t49 -126l140 -1008h4l188 1162h176l178 -1162h4l166 1162h193zM786 1546h-135l103 256h184z" />
    <glyph glyph-name="wacute" unicode="&#x1e83;" horiz-adv-x="1181" 
d="M934 0h-189l-147 717h-4l-164 -717h-180l-144 836q-6 39 -19 55t-42 16q-13 0 -26 -5t-15 -9h-4q0 72 40 108.5t105 36.5q62 0 98 -37.5t48 -126.5l82 -563h4l151 717h138l165 -717h5l75 717h193zM672 1223h-135l102 256h184z" />
    <glyph glyph-name="Wdieresis" unicode="&#x1e84;" horiz-adv-x="1447" 
d="M1120 0h-246l-147 977h-4l-158 -977h-243l-203 1241q-6 38 -20 55t-42 17q-13 0 -26 -5.5t-15 -9.5h-4q0 72 42.5 111t107.5 39q62 0 100 -38t49 -126l140 -1008h4l188 1162h176l178 -1162h4l166 1162h193zM557 1536q-38 0 -65 27t-27 65t27 65t65 27t65 -27t27 -65
t-27 -65t-65 -27zM893 1536q-38 0 -65 27t-27 65t27 65t65 27t65 -27t27 -65t-27 -65t-65 -27z" />
    <glyph glyph-name="wdieresis" unicode="&#x1e85;" horiz-adv-x="1181" 
d="M934 0h-189l-147 717h-4l-164 -717h-180l-144 836q-6 39 -19 55t-42 16q-13 0 -26 -5t-15 -9h-4q0 72 40 108.5t105 36.5q62 0 98 -37.5t48 -126.5l82 -563h4l151 717h138l165 -717h5l75 717h193zM428 1221q-38 0 -65 27t-27 65t27 65t65 27t65 -27t27 -65t-27 -65
t-65 -27zM764 1221q-38 0 -65 27t-27 65t27 65t65 27t65 -27t27 -65t-27 -65t-65 -27z" />
    <glyph glyph-name="Ygrave" unicode="&#x1ef2;" horiz-adv-x="901" 
d="M561 0h-205v565l-239 676q-14 40 -26 56t-36 16q-13 0 -26 -5.5t-15 -9.5h-4q0 73 39 111.5t103 38.5q59 0 91 -35.5t60 -128.5l154 -504h4l201 658h188l-289 -873v-565zM522 1538h-133l-151 256h184z" />
    <glyph glyph-name="ygrave" unicode="&#x1ef3;" horiz-adv-x="839" 
d="M516 -373h-180l92 400q-103 0 -151.5 61t-73.5 213l-86 533q-6 38 -20 54.5t-42 16.5q-13 0 -26 -5t-15 -9h-4q0 72 42.5 110.5t107.5 38.5q62 0 100 -37.5t49 -125.5l74 -580q10 -77 26 -100t42 -23h4l161 854h193zM524 1223h-133l-151 256h184z" />
    <glyph glyph-name="figuredash" unicode="&#x2012;" horiz-adv-x="647" 
d="M571 641h-495v119h495v-119z" />
    <glyph glyph-name="endash" unicode="&#x2013;" horiz-adv-x="1064" 
d="M1044 451h-1024v135h1024v-135z" />
    <glyph glyph-name="emdash" unicode="&#x2014;" horiz-adv-x="2088" 
d="M2068 451h-2048v135h2048v-135z" />
    <glyph glyph-name="quoteleft" unicode="&#x2018;" horiz-adv-x="421" 
d="M297 1073h-217l115 365h147z" />
    <glyph glyph-name="quoteright" unicode="&#x2019;" horiz-adv-x="421" 
d="M227 1073h-147l45 365h217z" />
    <glyph glyph-name="quotesinglbase" unicode="&#x201a;" horiz-adv-x="421" 
d="M227 -123h-147l45 365h217z" />
    <glyph glyph-name="quotedblleft" unicode="&#x201c;" horiz-adv-x="610" 
d="M252 1073h-211l139 365h123zM524 1073h-217l115 365h147z" />
    <glyph glyph-name="quotedblright" unicode="&#x201d;" horiz-adv-x="610" 
d="M164 1073h-123l51 365h211zM430 1073h-123l51 365h211z" />
    <glyph glyph-name="quotedblbase" unicode="&#x201e;" horiz-adv-x="610" 
d="M455 -123h-148l45 365h217zM188 -123h-147l45 365h217z" />
    <glyph glyph-name="dagger" unicode="&#x2020;" horiz-adv-x="798" 
d="M469 0h-139v973h-273v131h273v375h139v-375h272v-131h-272v-973z" />
    <glyph glyph-name="daggerdbl" unicode="&#x2021;" horiz-adv-x="798" 
d="M469 0h-139v418h-273v131h273v424h-273v131h273v375h139v-375h272v-131h-272v-424h272v-131h-272v-418z" />
    <glyph glyph-name="bullet" unicode="&#x2022;" horiz-adv-x="1067" 
d="M770 502h-139l-99 -99l-98 99h-137v137l-100 100l100 101v137h135l100 100l101 -100h137v-137l100 -101l-100 -100v-137z" />
    <glyph glyph-name="onedotenleader" unicode="&#x2024;" horiz-adv-x="421" 
d="M211 -6q-53 0 -90 37t-37 90t37 90t90 37t90 -37t37 -90t-37 -90t-90 -37z" />
    <glyph glyph-name="twodotenleader" unicode="&#x2025;" horiz-adv-x="841" 
d="M211 -6q-53 0 -90 37t-37 90t37 90t90 37t90 -37t37 -90t-37 -90t-90 -37zM631 -6q-53 0 -90 37t-37 90t37 90t90 37t90 -37t37 -90t-37 -90t-90 -37z" />
    <glyph glyph-name="ellipsis" unicode="&#x2026;" horiz-adv-x="1261" 
d="M211 -6q-53 0 -90 37t-37 90t37 90t90 37t90 -37t37 -90t-37 -90t-90 -37zM631 -6q-53 0 -90 37t-37 90t37 90t90 37t90 -37t37 -90t-37 -90t-90 -37zM1051 -6q-53 0 -90 37t-37 90t37 90t90 37t90 -37t37 -90t-37 -90t-90 -37z" />
    <glyph glyph-name="perthousand" unicode="&#x2030;" horiz-adv-x="1812" 
d="M367 760v497q0 41 -19 61.5t-51 20.5t-51 -20.5t-19 -61.5v-497q0 -41 19 -61.5t51 -20.5t51 20.5t19 61.5zM92 750v518q0 83 59 132.5t146 49.5t146 -49.5t59 -132.5v-518q0 -84 -59.5 -133.5t-145.5 -49.5t-145.5 49.5t-59.5 133.5zM1094 180v498q0 41 -19 61.5
t-51 20.5t-51 -20.5t-19 -61.5v-498q0 -41 19 -61.5t51 -20.5t51 20.5t19 61.5zM819 170v518q0 83 59 132.5t146 49.5t146 -49.5t59 -132.5v-518q0 -83 -59 -132.5t-146 -49.5t-146 49.5t-59 132.5zM1585 180v498q0 82 -69 82q-32 0 -51 -20.5t-19 -61.5v-498
q0 -41 19 -61.5t51 -20.5q69 0 69 82zM1311 170v518q0 83 59 132.5t146 49.5t145.5 -49t58.5 -133v-518q0 -84 -58.5 -133t-145.5 -49t-146 49.5t-59 132.5zM492 -12h-123l467 1462h122z" />
    <glyph glyph-name="guilsinglleft" unicode="&#x2039;" horiz-adv-x="458" 
d="M385 113h-147l-164 405l164 406h147l-119 -406z" />
    <glyph glyph-name="guilsinglright" unicode="&#x203a;" horiz-adv-x="458" 
d="M221 113h-147l119 405l-119 406h147l164 -406z" />
    <glyph glyph-name="exclamdbl" unicode="&#x203c;" horiz-adv-x="1001" 
d="M307 379h-119q-49 661 -49 1059h217q0 -177 -12 -442t-24 -441zM248 -12q-47 0 -81 33.5t-34 80.5t34 81t81 34t80.5 -34t33.5 -81t-33.5 -80.5t-80.5 -33.5zM788 379h-118q-49 661 -49 1059h217q0 -177 -12.5 -442t-25.5 -441zM729 -12q-47 0 -81 33.5t-34 80.5t34 81
t81 34t81 -34t34 -81t-34 -80.5t-81 -33.5z" />
    <glyph glyph-name="fraction" unicode="&#x2044;" horiz-adv-x="382" 
d="M20 -12h-122l464 1503h123z" />
    <glyph glyph-name="zerosuperior" unicode="&#x2070;" horiz-adv-x="532" 
d="M322 1178v542q0 78 -56 78q-55 0 -55 -78v-542q0 -78 53 -78q58 0 58 78zM51 1196v506q0 98 56 148.5t159 50.5t159 -50.5t56 -148.5v-506q0 -98 -56 -148.5t-159 -50.5t-159 50.5t-56 148.5z" />
    <glyph glyph-name="foursuperior" unicode="&#x2074;" horiz-adv-x="532" 
d="M444 1008h-159v168h-230v114l264 590h125v-586h54v-118h-54v-168zM285 1294v262h-2l-109 -262h111z" />
    <glyph glyph-name="fivesuperior" unicode="&#x2075;" horiz-adv-x="532" 
d="M322 1194v229q0 72 -54 72q-22 0 -39.5 -23t-17.5 -71h-156v479h426v-119h-274v-229h4q6 27 38 56.5t77 29.5q78 0 116.5 -47t38.5 -148v-219q0 -101 -56 -157t-161 -56q-96 0 -147 43t-51 107q0 55 33 87t87 32q24 0 54 -15v-8q-29 -25 -29 -84t53 -59q30 0 44 23.5
t14 76.5z" />
    <glyph glyph-name="sixsuperior" unicode="&#x2076;" horiz-adv-x="532" 
d="M481 1341v-151q0 -98 -55 -148.5t-158 -50.5q-105 0 -161 56t-56 157v463q0 117 57.5 172t157.5 55t155.5 -46.5t55.5 -131.5v-53h-160v53q0 76 -51 76q-22 0 -36.5 -20t-14.5 -56v-266h4q6 28 36.5 57t74.5 29q77 0 114 -46.5t37 -148.5zM322 1192v149q0 72 -54 72
q-22 0 -39.5 -23t-17.5 -71v-125q0 -53 13.5 -76.5t43.5 -23.5q54 0 54 98z" />
    <glyph glyph-name="sevensuperior" unicode="&#x2077;" horiz-adv-x="532" 
d="M322 1008h-160l174 753h-268v119h417v-94z" />
    <glyph glyph-name="eightsuperior" unicode="&#x2078;" horiz-adv-x="532" 
d="M483 1280v-86q0 -100 -55.5 -151.5t-161.5 -51.5t-161.5 51.5t-55.5 151.5v86q0 85 37.5 131.5t95.5 52.5v4q-129 23 -129 179v59q0 89 60 138.5t153 49.5t153 -49.5t60 -138.5v-59q0 -156 -129 -179v-4q58 -6 95.5 -52.5t37.5 -131.5zM319 1620v106q0 66 -53 66t-53 -66
v-106q0 -45 11 -65.5t40 -26.5q32 6 43.5 26.5t11.5 65.5zM324 1184v114q0 88 -56 101q-33 -7 -46 -32.5t-13 -68.5v-114q0 -90 57 -90q58 0 58 90z" />
    <glyph glyph-name="ninesuperior" unicode="&#x2079;" horiz-adv-x="532" 
d="M322 1567v125q0 53 -14 76.5t-44 23.5q-27 0 -40 -22.5t-13 -75.5v-150q0 -71 53 -71q22 0 40 23t18 71zM317 1169v267h-4q-6 -28 -36 -57t-74 -29q-78 0 -115 46.5t-37 147.5v152q0 98 55 148t158 50q105 0 161 -56t56 -157v-462q0 -118 -59.5 -173t-163.5 -55
q-96 0 -144 38.5t-48 98.5q0 49 36 78t88 29q18 0 39 -6v-8q-28 -24 -28 -68q0 -59 57 -59q29 0 44 20t15 55z" />
    <glyph glyph-name="parenleftsuperior" unicode="&#x207d;" horiz-adv-x="532" 
d="M399 788h-98q-73 137 -120.5 316t-47.5 377t47.5 375t120.5 315h98q-112 -244 -112 -690q0 -447 112 -693z" />
    <glyph glyph-name="parenrightsuperior" unicode="&#x207e;" horiz-adv-x="532" 
d="M231 788h-98q113 249 113 693t-113 690h98q73 -138 120.5 -315t47.5 -375t-47.5 -377t-120.5 -316z" />
    <glyph glyph-name="nsuperior" unicode="&#x207f;" horiz-adv-x="497" 
d="M223 897v12q49 0 63.5 26t14.5 103v260q0 44 -11 65t-40 21q-53 0 -53 -94v-407h-136v598h125v-99h4q10 55 45 81t78 26q123 0 123 -164v-270q0 -99 -31.5 -140t-101.5 -41q-47 0 -80 23z" />
    <glyph glyph-name="zeroinferior" unicode="&#x2080;" horiz-adv-x="532" 
d="M322 -276v542q0 78 -56 78q-55 0 -55 -78v-542q0 -78 53 -78q58 0 58 78zM51 -258v506q0 98 56 148t159 50t159 -50t56 -148v-506q0 -98 -56 -148.5t-159 -50.5t-159 50.5t-56 148.5z" />
    <glyph glyph-name="oneinferior" unicode="&#x2081;" horiz-adv-x="532" 
d="M383 -440h-160v692h-4l-121 -47v121l178 106h107v-872z" />
    <glyph glyph-name="twoinferior" unicode="&#x2082;" horiz-adv-x="532" 
d="M479 -449h-428v123q29 45 59 94t48.5 80.5t47.5 82.5t42 73q42 72 58 131t16 137q0 43 -13.5 57.5t-38.5 14.5q-51 0 -51 -76v-84h-160v90q5 81 59.5 126.5t151.5 45.5q98 0 154.5 -53t56.5 -153q0 -72 -12 -122t-49 -116l-203 -328h262v-123z" />
    <glyph glyph-name="threeinferior" unicode="&#x2083;" horiz-adv-x="532" 
d="M322 -254v104q0 53 -22 74t-81 21h-31v123h39q53 0 71.5 19t18.5 75v117q0 65 -45 65q-29 0 -43 -14.5t-14 -61.5v-73h-160v73q0 84 58 131t159 47q205 0 205 -237q0 -72 -17 -115t-43 -59.5t-69 -24.5v-4q48 -5 74.5 -24t42.5 -73t16 -153q0 -101 -56 -157t-161 -56
q-100 0 -156.5 44.5t-56.5 117.5q0 69 40 106t95 37q39 0 64 -18v-6q-43 -37 -43 -98q0 -40 11.5 -60t45.5 -20q30 0 44 23.5t14 76.5z" />
    <glyph glyph-name="fourinferior" unicode="&#x2084;" horiz-adv-x="532" 
d="M444 -440h-159v168h-230v114l264 590h125v-586h54v-118h-54v-168zM285 -154v263h-2l-109 -263h111z" />
    <glyph glyph-name="fiveinferior" unicode="&#x2085;" horiz-adv-x="532" 
d="M322 -254v229q0 72 -54 72q-22 0 -39.5 -23t-17.5 -71h-156v479h426v-119h-274v-229h4q6 27 38 56.5t77 29.5q78 0 116.5 -47t38.5 -148v-219q0 -101 -56 -157t-161 -56q-96 0 -147 43t-51 107q0 55 33 87t87 32q24 0 54 -15v-8q-29 -25 -29 -84t53 -59q30 0 44 23.5
t14 76.5z" />
    <glyph glyph-name="sixinferior" unicode="&#x2086;" horiz-adv-x="532" 
d="M481 -106v-152q0 -98 -55 -148.5t-158 -50.5q-105 0 -161 56t-56 157v463q0 117 57.5 172t157.5 55t155.5 -46.5t55.5 -131.5v-53h-160v53q0 76 -51 76q-22 0 -36.5 -20t-14.5 -56v-266h4q6 28 36.5 57t74.5 29q77 0 114 -46t37 -148zM322 -256v150q0 71 -54 71
q-22 0 -39.5 -23t-17.5 -71v-125q0 -53 13.5 -76.5t43.5 -23.5q54 0 54 98z" />
    <glyph glyph-name="seveninferior" unicode="&#x2087;" horiz-adv-x="532" 
d="M322 -440h-160l174 753h-268v119h417v-94z" />
    <glyph glyph-name="eightinferior" unicode="&#x2088;" horiz-adv-x="532" 
d="M483 -168v-86q0 -100 -55.5 -151.5t-161.5 -51.5t-161.5 51.5t-55.5 151.5v86q0 85 37.5 131.5t95.5 52.5v4q-129 23 -129 179v59q0 89 60 138.5t153 49.5t153 -49.5t60 -138.5v-59q0 -156 -129 -179v-4q58 -6 95.5 -52.5t37.5 -131.5zM319 172v107q0 65 -53 65t-53 -65
v-107q0 -45 11 -65.5t40 -26.5q32 6 43.5 26.5t11.5 65.5zM324 -264v114q0 88 -56 101q-33 -7 -46 -32.5t-13 -68.5v-114q0 -90 57 -90q58 0 58 90z" />
    <glyph glyph-name="nineinferior" unicode="&#x2089;" horiz-adv-x="532" 
d="M322 119v125q0 53 -14 76.5t-44 23.5q-27 0 -40 -22.5t-13 -75.5v-150q0 -71 53 -71q22 0 40 23t18 71zM317 -279v267h-4q-6 -28 -36 -57t-74 -29q-78 0 -115 46.5t-37 147.5v152q0 98 55 148t158 50q105 0 161 -56t56 -157v-462q0 -118 -59.5 -173t-163.5 -55
q-96 0 -144 39t-48 99q0 49 36 77.5t88 28.5q18 0 39 -6v-8q-28 -24 -28 -68q0 -59 57 -59q29 0 44 20t15 55z" />
    <glyph glyph-name="parenleftinferior" unicode="&#x208d;" horiz-adv-x="532" 
d="M399 -741h-98q-73 137 -120.5 315.5t-47.5 376.5t47.5 375t120.5 315h98q-112 -244 -112 -690t112 -692z" />
    <glyph glyph-name="parenrightinferior" unicode="&#x208e;" horiz-adv-x="532" 
d="M231 -741h-98q113 249 113 692q0 444 -113 690h98q73 -138 120.5 -315t47.5 -375t-47.5 -376.5t-120.5 -315.5z" />
    <glyph glyph-name="colonmonetary" unicode="&#x20a1;" 
d="M614 -178h-94v178q-46 -12 -102 -12q-26 0 -62 4v-170h-94v198q-66 31 -103.5 89.5t-37.5 134.5v520q0 77 37 141t104 99v178h94v-148q27 6 62 6q52 0 102 -12v154h94v-197q88 -61 88 -162v-141h-180v113q0 110 -104 110q-46 0 -75.5 -30t-29.5 -91v-565q0 -44 30 -70
t75 -26q44 0 74 27t30 73v123h180v-133q0 -116 -88 -176v-215z" />
    <glyph glyph-name="cruzeiro" unicode="&#x20a2;" 
d="M600 371h29q35 -5 56 -10.5t43.5 -19.5t33 -40.5t10.5 -67.5q0 -91 -91.5 -168t-227.5 -77q-168 0 -263.5 98.5t-95.5 257.5v721q0 188 96 286.5t263 98.5q152 0 238.5 -77.5t86.5 -215.5v-149h-192v133q0 69 -38 109t-99 40q-150 0 -150 -229v-725q0 -121 63 -156v654
h160v-136h4q7 68 46.5 102t103.5 34q46 0 74 -27.5t28 -81.5q0 -21 -3 -37.5t-6 -22.5l-3 -6q-33 11 -96 11q-72 0 -103.5 -43.5t-31.5 -145.5v-303q62 38 65 193z" />
    <glyph glyph-name="franc" unicode="&#x20a3;" 
d="M383 0h-205v492h-98v135h98v176h-98v135h98v500h557v-172h-352v-328h207v-135h-207v-176h207v-135h-207v-492z" />
    <glyph glyph-name="lira" unicode="&#x20a4;" 
d="M778 0h-739v160h92v252h-92v135h92v176h-92v135h92v250q0 342 332 342q158 0 236.5 -87t78.5 -228v-99h-180v99q0 155 -133 155q-76 0 -108.5 -43.5t-32.5 -134.5v-254h225v-135h-225v-176h225v-135h-225v-252h454v-160z" />
    <glyph glyph-name="mill" unicode="&#x20a5;" horiz-adv-x="1249" 
d="M778 8v29q94 0 133 40t39 144v477q0 108 -28.5 151.5t-96.5 43.5q-114 0 -114 -150v-743h-193v188l-137 -364h-123l260 692v244q0 71 -24.5 102t-79.5 31q-56 0 -85.5 -43t-29.5 -107v-743h-193v1028h181v-127h4q9 23 23.5 44.5t39 44.5t63.5 36.5t87 13.5
q60 0 106 -24.5t72 -65.5l102 275h123l-73 -195q38 10 69 10q124 0 182 -74.5t58 -230.5v-489q0 -138 -61.5 -198t-178.5 -60q-66 0 -125 20z" />
    <glyph glyph-name="naira" unicode="&#x20a6;" horiz-adv-x="954" 
d="M838 0h-162l-189 492h-190v-492h-180v492h-103v135h103v114h-103v136h103v561h180l219 -561h129v561h193v-561h100v-136h-100v-114h100v-135h-100v-492zM436 627l-43 114h-96v-114h139zM645 557v184h-76l72 -184h4zM342 877l-41 108h-4v-108h45z" />
    <glyph glyph-name="peseta" unicode="&#x20a7;" horiz-adv-x="1964" 
d="M1876 707h-172v67q0 65 -23.5 98t-85.5 33q-53 0 -82.5 -25.5t-29.5 -74.5q0 -40 23 -75t59.5 -63t80.5 -56t88.5 -60t81 -68t59.5 -87t23 -111q0 -135 -77.5 -216t-233.5 -81q-198 0 -272 121q-41 -109 -191 -109q-112 0 -166.5 69t-54.5 193v631h-98
q-7 -104 -32 -177.5t-67 -114.5t-93.5 -59t-118.5 -18q-105 0 -154 80v8q51 4 87 13.5t71 32.5t56.5 61t34.5 101t13 149q0 171 -49 240t-168 69h-63v-1278h-205v1438h274q193 0 297.5 -98.5t116.5 -311.5h98v303h193v-303h207v-135h-207v-617q0 -74 24.5 -107.5t73.5 -33.5
q53 0 98 25q-10 29 -10 71q0 54 22 93t54 56.5t63.5 27t53.5 10.5h22h8q-6 -7 -15 -20t-23.5 -52.5t-14.5 -77.5q0 -61 36 -93t103 -32q57 0 89 31t32 84q0 48 -22.5 88.5t-58.5 70t-79.5 57.5t-87.5 58.5t-80 65.5t-58.5 85.5t-22.5 111.5q0 113 82 179t221 66
q133 0 201.5 -69.5t68.5 -177.5v-86z" />
    <glyph glyph-name="rupee" unicode="&#x20a8;" horiz-adv-x="1495" 
d="M1407 707h-172v67q0 65 -23.5 98t-85.5 33q-53 0 -82.5 -25.5t-29.5 -74.5q0 -40 23 -75t59.5 -63t81 -56t89 -60t81 -68t59.5 -87t23 -111q0 -135 -78 -216t-234 -81q-175 0 -256 98q-10 -98 -147 -98q-82 0 -133.5 54.5t-51.5 182.5v203q0 131 -42 175t-150 44h-16
v-647h-205v971h-103v135h103v332h233q198 0 298 -81t114 -251h90v-135h-94q-11 -59 -36.5 -104t-62.5 -73t-79 -44.5t-91 -22.5v-4q234 0 234 -274v-230q0 -51 11 -71.5t40 -20.5q17 0 29.5 12t17.5 29q-8 27 -8 63q0 39 12 71t31 51t41.5 32.5t45.5 19.5t42 9.5t31 3.5h12
h8q-6 -7 -15 -20t-23.5 -52.5t-14.5 -77.5q0 -61 36 -93t103 -32q57 0 89 31t32 84q0 48 -22.5 88.5t-58.5 70t-80 57.5t-87.5 58.5t-79.5 65.5t-58.5 85.5t-22.5 111.5q0 113 82 179t221 66q133 0 201.5 -69.5t68.5 -177.5v-86zM555 971h-233v-180h22q86 0 141.5 38.5
t69.5 141.5zM322 1106h231q-13 84 -62 122t-133 38h-36v-160z" />
    <glyph glyph-name="won" unicode="&#x20a9;" horiz-adv-x="1236" 
d="M950 0h-239l-86 950h-4l-103 -950h-237l-70 512h-156v135h138l-19 135h-119v136h101l-70 520h205l51 -520h141l60 520h176l55 -520h137l52 520h192l-74 -520h101v-136h-121l-19 -135h140v-135h-160zM453 647l16 135h-115l15 -135h84zM885 647l14 135h-111l15 -135h82z
M410 262l28 250h-57l25 -250h4zM848 262l24 250h-55l27 -250h4z" />
    <glyph glyph-name="dong" unicode="&#x20ab;" horiz-adv-x="903" 
d="M721 0h-180v74h-4q-55 -86 -183 -86q-129 0 -195.5 75t-66.5 213v445q0 175 58.5 247t162.5 72q90 0 135.5 -46t45.5 -109h-9q-28 20 -75 20q-70 0 -97.5 -38t-27.5 -142v-416q0 -110 29 -154t96 -44q46 0 82 32t36 86v975h-166v135h166v140h193v-140h151v-135h-151
v-1204zM717 -240h-510v136h510v-136z" />
    <glyph glyph-name="Euro" unicode="&#x20ac;" 
d="M641 305h8q42 -15 66 -47t24 -74q0 -81 -62.5 -138.5t-193.5 -57.5q-151 0 -220.5 80t-69.5 239v185h-113v135h113v176h-113v135h113v135q0 201 75 289t232 88q136 0 203 -73t67 -195v-95h-192v82q0 66 -16.5 93.5t-69.5 27.5q-57 0 -76 -42t-19 -175v-135h193v-135h-193
v-176h193v-135h-193v-183q0 -80 19 -113.5t84 -33.5q27 0 49 10t36 23t26 35.5t17.5 37t12.5 37.5z" />
    <glyph glyph-name="litre" unicode="&#x2113;" horiz-adv-x="765" 
d="M567 305h8q25 -20 41.5 -55t16.5 -68q0 -80 -56.5 -133t-148.5 -53q-109 0 -176.5 77.5t-67.5 237.5v84q-52 -57 -82 -84l-43 97q80 83 125 143v598q0 197 68 287t174 90q89 0 139.5 -78t50.5 -219q0 -178 -69 -341.5t-205 -346.5v-222q0 -108 19.5 -146t70.5 -38
q105 0 135 170zM342 1149v-426q85 137 128.5 258t43.5 250q0 88 -19.5 123t-64.5 35q-44 0 -66 -50t-22 -190z" />
    <glyph glyph-name="afii61352" unicode="&#x2116;" horiz-adv-x="1492" 
d="M1018 856v414q0 76 48 118t138 42q85 0 136 -35.5t51 -112.5v-414q0 -75 -48 -116t-137 -41q-85 0 -136.5 35t-51.5 110zM1255 881v379q0 75 -49 75q-29 0 -41 -19t-12 -56v-379q0 -76 53 -76q49 0 49 76zM1391 459h-373v119h373v-119zM838 0h-162l-375 985h-4v-985h-180
v1438h180l344 -881h4v881h193v-1438z" />
    <glyph glyph-name="trademark" unicode="&#x2122;" horiz-adv-x="1280" 
d="M381 768h-143v557h-150v113h442v-113h-149v-557zM1167 768h-133v475h-4l-121 -233h-57l-121 233h-4v-475h-133v670h143l144 -269l141 269h145v-670z" />
    <glyph glyph-name="Omega" unicode="&#x2126;" horiz-adv-x="989" 
d="M905 0h-342v111q67 83 111.5 257.5t44.5 397.5v205q0 165 -60 242t-165 77q-50 0 -88 -13.5t-72.5 -46.5t-53 -99t-18.5 -162v-203q0 -207 47 -391t111 -264v-111h-344v152h192v8q-172 262 -172 606v203q0 481 406 481q86 0 154.5 -27t121 -83t81 -150t28.5 -221v-203
q0 -340 -172 -606v-8h190v-152z" />
    <glyph glyph-name="estimated" unicode="&#x212e;" horiz-adv-x="1751" 
d="M1456 281l6 2q25 -7 25 -31q0 -20 -14 -37q-96 -102 -253.5 -163.5t-336.5 -61.5q-168 0 -310.5 59t-238.5 160t-149.5 238t-53.5 292t53.5 292.5t149.5 239.5t238.5 161t310.5 59q170 0 316 -59t246 -160.5t157 -239.5t57 -293v-20h-1262v-447q0 -19 7.5 -39.5
t19.5 -29.5q94 -79 213 -125.5t250 -46.5q178 0 338.5 73.5t230.5 176.5zM1393 758v452q0 33 -21 54q-185 182 -485 182q-151 0 -261.5 -42.5t-207.5 -141.5q-21 -18 -21 -58v-446h996z" />
    <glyph glyph-name="onethird" unicode="&#x2153;" horiz-adv-x="1177" 
d="M956 186v105q0 53 -21.5 73.5t-80.5 20.5h-31v123h39q53 0 71.5 19t18.5 75v117q0 65 -45 65q-29 0 -43 -14t-14 -61v-74h-160v74q0 84 58 131t159 47q205 0 205 -238q0 -105 -31.5 -145.5t-97.5 -52.5v-5q48 -5 74.5 -23.5t42.5 -72.5t16 -153q0 -101 -56 -157t-161 -56
q-100 0 -156.5 44t-56.5 117q0 69 40.5 106.5t94.5 37.5q37 0 64 -19v-6q-43 -37 -43 -98q0 -40 11.5 -60t45.5 -20q30 0 43.5 23.5t13.5 76.5zM352 610h-159v693h-5l-120 -48v121l178 107h106v-873zM365 -12h-123l465 1503h122z" />
    <glyph glyph-name="twothirds" unicode="&#x2154;" horiz-adv-x="1310" 
d="M530 664h-428v122q29 45 59 94t48.5 80.5t47.5 82.5t42 73q42 72 58 131t16 137q0 43 -13 57.5t-38 14.5q-52 0 -52 -76v-84h-159v90q5 81 59.5 127t151.5 46t153.5 -53t56.5 -154q0 -72 -12 -122t-49 -116l-203 -328h262v-122zM1090 186v105q0 53 -22 73.5t-81 20.5h-31
v123h39q53 0 71.5 19t18.5 75v117q0 65 -45 65q-29 0 -43 -14t-14 -61v-74h-160v74q0 84 58 131t159 47q205 0 205 -238q0 -105 -31.5 -145.5t-97.5 -52.5v-5q48 -5 74.5 -23.5t42.5 -72.5t16 -153q0 -101 -56 -157t-161 -56q-100 0 -156.5 44t-56.5 117q0 69 40.5 106.5
t94.5 37.5q37 0 64 -19v-6q-43 -37 -43 -98q0 -40 11.5 -60t45.5 -20q30 0 44 23.5t14 76.5zM528 -12h-122l464 1503h123z" />
    <glyph glyph-name="oneeighth" unicode="&#x215b;" horiz-adv-x="1202" 
d="M1141 272v-86q0 -99 -55.5 -150.5t-161.5 -51.5t-161.5 51.5t-55.5 150.5v86q0 85 37.5 132t95.5 53v4q-129 23 -129 178v59q0 89 60 139t153 50t153 -50t60 -139v-59q0 -155 -129 -178v-4q58 -6 95.5 -53t37.5 -132zM977 612v107q0 65 -53 65q-54 0 -54 -65v-107
q0 -45 11.5 -65.5t40.5 -26.5q32 6 43.5 26.5t11.5 65.5zM981 176v115q0 87 -55 100q-60 -13 -60 -100v-115q0 -90 58 -90q57 0 57 90zM352 610h-159v693h-5l-120 -48v121l178 107h106v-873zM365 -12h-123l465 1503h122z" />
    <glyph glyph-name="threeeighths" unicode="&#x215c;" horiz-adv-x="1325" 
d="M399 858v105q0 53 -21.5 73.5t-80.5 20.5h-31v123h39q53 0 71.5 19t18.5 75v117q0 65 -45 65q-29 0 -43 -14.5t-14 -61.5v-73h-160v73q0 84 58.5 131.5t158.5 47.5q205 0 205 -238q0 -72 -17 -115t-43 -59.5t-69 -24.5v-4q48 -5 74.5 -24t42.5 -73t16 -153
q0 -101 -56 -157t-161 -56q-100 0 -156.5 44.5t-56.5 117.5q0 69 40.5 106.5t94.5 37.5q37 0 64 -19v-6q-43 -37 -43 -98q0 -40 11.5 -60t45.5 -20q30 0 43.5 23.5t13.5 76.5zM1264 272v-86q0 -99 -55.5 -150.5t-161.5 -51.5t-162 51.5t-56 150.5v86q0 85 38 132t96 53v4
q-129 23 -129 178v59q0 89 60 139t153 50t153 -50t60 -139v-59q0 -155 -130 -178v-4q58 -6 96 -53t38 -132zM1100 612v107q0 65 -53 65q-54 0 -54 -65v-107q0 -45 11 -65.5t40 -26.5q32 6 44 26.5t12 65.5zM1104 176v115q0 87 -55 100q-60 -13 -60 -100v-115q0 -90 58 -90
q57 0 57 90zM502 -12h-123l465 1503h123z" />
    <glyph glyph-name="fiveeighths" unicode="&#x215d;" horiz-adv-x="1265" 
d="M1204 272v-86q0 -99 -55.5 -150.5t-161.5 -51.5t-161.5 51.5t-55.5 150.5v86q0 85 37.5 132t95.5 53v4q-129 23 -129 178v59q0 89 60 139t153 50t153 -50t60 -139v-59q0 -155 -129 -178v-4q58 -6 95.5 -53t37.5 -132zM1040 612v107q0 65 -53 65t-53 -65v-107
q0 -45 11 -65.5t40 -26.5q32 6 43.5 26.5t11.5 65.5zM1044 176v115q0 87 -55 100q-33 -7 -46 -32t-13 -68v-115q0 -90 57 -90t57 90zM346 858v229q0 72 -53 72q-22 0 -39.5 -23t-17.5 -71h-156v479h426v-119h-275v-229h5q6 27 38 56.5t76 29.5q78 0 117 -47t39 -148v-219
q0 -101 -56 -157t-161 -56q-96 0 -147.5 43t-51.5 107q0 55 33 87t88 32q23 0 53 -15v-8q-28 -24 -28 -84q0 -59 53 -59q30 0 43.5 23.5t13.5 76.5zM455 -12h-123l465 1503h123z" />
    <glyph glyph-name="seveneighths" unicode="&#x215e;" horiz-adv-x="1232" 
d="M1171 272v-86q0 -99 -55.5 -150.5t-161.5 -51.5t-161.5 51.5t-55.5 150.5v86q0 85 37.5 132t95.5 53v4q-129 23 -129 178v59q0 89 60 139t153 50t153 -50t60 -139v-59q0 -155 -129 -178v-4q58 -6 95.5 -53t37.5 -132zM1008 612v107q0 65 -54 65q-53 0 -53 -65v-107
q0 -45 11 -65.5t40 -26.5q32 6 44 26.5t12 65.5zM1012 176v115q0 87 -56 100q-33 -7 -46 -32t-13 -68v-115q0 -90 57 -90q58 0 58 90zM319 672h-159l174 753h-268v119h417v-94zM385 -12h-123l465 1503h123z" />
    <glyph glyph-name="arrowleft" unicode="&#x2190;" horiz-adv-x="1024" 
d="M557 113h-8l-447 610l447 610h8v-370h365l-152 -242l152 -242h-365v-366z" />
    <glyph glyph-name="arrowup" unicode="&#x2191;" horiz-adv-x="1024" 
d="M745 307l-241 152l-242 -152v375h-252v8l492 549l512 -549v-8h-269v-375z" />
    <glyph glyph-name="arrowright" unicode="&#x2192;" horiz-adv-x="1024" 
d="M475 113h-8v366h-365l152 242l-152 242h365v370h8l447 -610z" />
    <glyph glyph-name="arrowdown" unicode="&#x2193;" horiz-adv-x="1024" 
d="M502 307l-492 549v8h252v375l242 -152l241 152v-375h269v-8z" />
    <glyph glyph-name="partialdiff" unicode="&#x2202;" horiz-adv-x="862" 
d="M764 938v-416q0 -248 -86 -385t-250 -137q-69 0 -129 28t-108 83.5t-75.5 147.5t-27.5 210q0 116 18 210t48.5 156.5t72.5 105t88 61t97 18.5q71 0 120 -42t70 -104h2v66q0 453 -201 453q-61 0 -103.5 -33.5t-57.5 -99.5h-154q0 125 98 205.5t224 80.5q160 0 257 -150.5
t97 -457.5zM604 524v164q0 63 -53 120.5t-115 57.5q-43 0 -75 -18.5t-57.5 -62t-38.5 -125t-13 -199.5q0 -303 174 -303q178 0 178 366z" />
    <glyph glyph-name="uni2206" unicode="&#x2206;" horiz-adv-x="954" 
d="M887 0h-817v111l321 1327h187l309 -1323v-115zM723 147l-162 703q-6 32 -39 191.5t-41 218.5h-6q-5 -42 -18 -109.5t-30.5 -152.5t-25.5 -128l-172 -723h494z" />
    <glyph glyph-name="product" unicode="&#x220f;" horiz-adv-x="1069" 
d="M864 -201h-164v1467h-335v-1467h-164v1467h-133v170h929v-170h-133v-1467z" />
    <glyph glyph-name="summation" unicode="&#x2211;" horiz-adv-x="841" 
d="M788 -201h-725v107l365 702l-352 697v131h684v-152h-496v-6l326 -655l-344 -662v-6h542v-156z" />
    <glyph glyph-name="minus" unicode="&#x2212;" horiz-adv-x="1269" 
d="M1153 463h-1036v110h1036v-110z" />
    <glyph glyph-name="uni2215" unicode="&#x2215;" horiz-adv-x="382" 
d="M20 -12h-122l464 1503h123z" />
    <glyph glyph-name="uni2219" unicode="&#x2219;" horiz-adv-x="421" 
d="M211 471q-60 0 -101.5 41.5t-41.5 101.5t41.5 102t101.5 42q59 0 101 -42t42 -102t-42 -101.5t-101 -41.5z" />
    <glyph glyph-name="radical" unicode="&#x221a;" horiz-adv-x="929" 
d="M567 -297h-141l-213 995h-178v111h287l139 -703q16 -78 26 -190h5q4 83 22 190l266 1594h125z" />
    <glyph glyph-name="infinity" unicode="&#x221e;" horiz-adv-x="1329" 
d="M668 510q-50 -60 -90 -97t-99 -65.5t-123 -28.5q-106 0 -182 79t-76 198q0 123 76 202t195 79q87 0 158 -49t145 -142q32 38 47 55t49 48.5t60.5 46.5t66.5 28t82 13q110 0 181 -75.5t71 -195.5q0 -129 -77.5 -208t-184.5 -79q-77 0 -146.5 43t-152.5 148zM582 590
q-29 40 -47 62t-46 48t-58 38t-64 12q-64 0 -99 -43.5t-35 -112.5q0 -64 41 -106t101 -42q29 0 57 11.5t56.5 36.5t46 43.5t47.5 52.5zM754 600q72 -87 114.5 -120.5t96.5 -33.5q59 0 95 46.5t36 103.5q0 70 -36.5 112t-98.5 42q-29 0 -58.5 -14t-60.5 -43t-46 -45t-42 -48z
" />
    <glyph glyph-name="integral" unicode="&#x222b;" horiz-adv-x="677" 
d="M70 -315l24 135q3 -1 15 -5.5t23 -7t22 -2.5q108 0 108 388q0 181 -9 512t-9 499q0 50 1 86t6.5 96.5t15.5 104t30 94t47.5 82t70.5 53t97 21.5q50 0 88 -21l-22 -129q-23 13 -50 13q-120 0 -120 -414q0 -164 9 -488t9 -503q0 -48 -1 -84.5t-6.5 -96t-15 -104.5t-28 -96
t-44.5 -83.5t-66.5 -54.5t-90.5 -22q-64 0 -104 27z" />
    <glyph glyph-name="approxequal" unicode="&#x2248;" horiz-adv-x="1269" 
d="M977 422h104q0 -104 -62.5 -170t-174.5 -66q-51 0 -98 14t-83.5 34t-72 40t-78 34t-86.5 14q-61 0 -93.5 -33.5t-37.5 -91.5h-107q0 103 63 169t175 66q51 0 97 -14t81.5 -33.5t70.5 -39.5t78.5 -34t90.5 -14q61 0 94.5 33.5t38.5 91.5zM977 836h104q0 -104 -62.5 -170
t-174.5 -66q-62 0 -120.5 21t-97.5 46.5t-93 46.5t-107 21q-61 0 -93.5 -33.5t-37.5 -91.5h-107q0 103 63 169.5t175 66.5q51 0 97 -14t81.5 -34t70.5 -39.5t78.5 -33.5t90.5 -14q61 0 94.5 33.5t38.5 91.5z" />
    <glyph glyph-name="notequal" unicode="&#x2260;" horiz-adv-x="1269" 
d="M1153 240h-606l-127 -240h-133l125 240h-295v110h352l174 336h-526v111h583l123 233h146l-125 -233h309v-111h-369l-178 -336h547v-110z" />
    <glyph glyph-name="lessequal" unicode="&#x2264;" horiz-adv-x="1269" 
d="M1130 199l-1021 415v115l1021 416v-156l-776 -313v-6l776 -316v-155zM1137 0h-1035v127h1035v-127z" />
    <glyph glyph-name="greaterequal" unicode="&#x2265;" horiz-adv-x="1269" 
d="M1130 614l-1021 -415v155l776 316v6l-776 313v156l1021 -416v-115zM1137 0h-1035v127h1035v-127z" />
    <glyph glyph-name="triagup" unicode="&#x25b2;" horiz-adv-x="1280" 
d="M1180 375l-25 -74q-115 38 -514.5 38t-515.5 -38l-25 74q124 148 224.5 277.5t155.5 207.5t93 135t50 80l12 23h10q4 -8 13 -24t48.5 -78t93.5 -137.5t155 -205.5t225 -278z" />
    <glyph glyph-name="triagrt" unicode="&#x25ba;" horiz-adv-x="1280" 
d="M1096 709v-11q-8 -4 -24 -12.5t-78 -48.5t-137.5 -93.5t-205.5 -154.5t-278 -225l-74 24q38 116 38 516t-38 515l74 24q236 -196 416.5 -329.5t243.5 -169.5z" />
    <glyph glyph-name="triagdn" unicode="&#x25bc;" horiz-adv-x="1280" 
d="M645 301h-10q-4 8 -13 24t-48.5 78t-93.5 137.5t-155 205.5t-225 278l25 74q115 -38 515 -38t515 38l25 -74q-124 -148 -224.5 -277.5t-155.5 -207.5t-93 -135t-50 -80z" />
    <glyph glyph-name="triaglf" unicode="&#x25c4;" horiz-adv-x="1280" 
d="M981 188l-74 -24q-236 196 -416.5 329.5t-243.5 168.5l-63 36v11q8 4 24 12.5t78 48.5t137.5 93.5t205.5 154.5t278 225l74 -24q-38 -115 -38 -515t38 -516z" />
    <glyph glyph-name="lozenge" unicode="&#x25ca;" horiz-adv-x="929" 
d="M530 -70h-141l-285 775l297 776h140l284 -776zM459 92h8q8 65 27 123l180 485l-174 482q-17 61 -29 135h-6q-12 -80 -31 -135l-178 -473l176 -490q17 -55 27 -127z" />
    <glyph glyph-name="commaaccent" unicode="&#xf6c3;" horiz-adv-x="716" 
d="M184 -500v11q103 60 103 249v125h164v-82q0 -140 -65.5 -221.5t-201.5 -81.5z" />
    <glyph glyph-name="Acute" unicode="&#xf6c9;" horiz-adv-x="716" 
d="M391 1546h-135l102 256h185z" />
    <glyph glyph-name="Caron" unicode="&#xf6ca;" horiz-adv-x="716" 
d="M618 1669l-256 -110h-8l-256 110v146l260 -113l260 113v-146z" />
    <glyph glyph-name="Dieresis" unicode="&#xf6cb;" horiz-adv-x="716" 
d="M190 1507q-38 0 -65 27t-27 65t27 65.5t65 27.5t65.5 -27.5t27.5 -65.5t-27.5 -65t-65.5 -27zM526 1507q-38 0 -65 27t-27 65t27 65.5t65 27.5t65 -27.5t27 -65.5t-27 -65t-65 -27z" />
    <glyph glyph-name="DieresisAcute" unicode="&#xf6cc;" horiz-adv-x="716" 
d="M115 1520q-38 0 -65 27t-27 65t27 65t65 27t65 -27t27 -65t-27 -65t-65 -27zM614 1520q-38 0 -65 27t-27 65t27 65t65 27t65.5 -27t27.5 -65t-27.5 -65t-65.5 -27zM379 1522h-123l80 256h184z" />
    <glyph glyph-name="DieresisGrave" unicode="&#xf6cd;" horiz-adv-x="716" 
d="M614 1522q-38 0 -65 27t-27 65t27 65t65 27t65.5 -27t27.5 -65t-27.5 -65t-65.5 -27zM115 1522q-38 0 -65 27t-27 65t27 65t65 27t65 -27t27 -65t-27 -65t-65 -27zM473 1524h-123l-141 256h184z" />
    <glyph glyph-name="Grave" unicode="&#xf6ce;" horiz-adv-x="716" 
d="M459 1548h-133l-152 256h184z" />
    <glyph glyph-name="Hungarumlaut" unicode="&#xf6cf;" horiz-adv-x="716" 
d="M287 1563h-123l49 256h174zM535 1563h-123l80 256h174z" />
    <glyph glyph-name="Macron" unicode="&#xf6d0;" horiz-adv-x="716" 
d="M608 1495h-499v133h499v-133z" />
    <glyph glyph-name="cyrBreve" unicode="&#xf6d1;" horiz-adv-x="716" 
d="M475 1751h143q0 -114 -70 -170.5t-190 -56.5t-190 56.5t-70 170.5h144q3 -104 116 -104q114 0 117 104z" />
    <glyph glyph-name="cyrFlex" unicode="&#xf6d2;" horiz-adv-x="716" 
d="M618 1520l-260 112l-260 -112v145l256 111h8l256 -111v-145z" />
    <glyph glyph-name="dblGrave" unicode="&#xf6d3;" horiz-adv-x="716" 
d="M553 1546h-123l-100 256h174zM305 1546h-123l-131 256h174z" />
    <glyph glyph-name="cyrbreve" unicode="&#xf6d4;" horiz-adv-x="716" 
d="M475 1452h143q0 -114 -70 -170.5t-190 -56.5t-190 56.5t-70 170.5h144q3 -104 116 -104q114 0 117 104z" />
    <glyph glyph-name="cyrflex" unicode="&#xf6d5;" horiz-adv-x="716" 
d="M618 1233l-260 113l-260 -113v145l256 111h8l256 -111v-145z" />
    <glyph glyph-name="dblgrave" unicode="&#xf6d6;" horiz-adv-x="716" 
d="M553 1223h-123l-100 256h174zM305 1223h-123l-131 256h174z" />
    <glyph glyph-name="dieresisacute" unicode="&#xf6d7;" horiz-adv-x="716" 
d="M115 1221q-38 0 -65 27t-27 65t27 65t65 27t65 -27t27 -65t-27 -65t-65 -27zM614 1221q-38 0 -65 27t-27 65t27 65t65 27t65.5 -27t27.5 -65t-27.5 -65t-65.5 -27zM379 1223h-123l80 256h184z" />
    <glyph glyph-name="dieresisgrave" unicode="&#xf6d8;" horiz-adv-x="716" 
d="M614 1221q-38 0 -65 27t-27 65t27 65t65 27t65.5 -27t27.5 -65t-27.5 -65t-65.5 -27zM115 1221q-38 0 -65 27t-27 65t27 65t65 27t65 -27t27 -65t-27 -65t-65 -27zM473 1223h-123l-141 256h184z" />
    <glyph glyph-name="rupiah" unicode="&#xf6dd;" horiz-adv-x="1642" 
d="M322 791h22q94 0 154.5 60t60.5 189q0 119 -51 172.5t-150 53.5h-36v-475zM821 170h6q15 -7 25 -28t10 -42q0 -112 -147 -112q-82 0 -133.5 54.5t-51.5 182.5v203q0 131 -42 175t-150 44h-16v-647h-205v1438h233q215 0 314.5 -94t99.5 -295q0 -78 -22.5 -138.5t-62 -97
t-86.5 -57.5t-104 -29v-4q234 0 234 -274v-230q0 -51 11 -71.5t40 -20.5q19 0 31.5 13t15.5 30zM1120 -373h-192v1401h180v-119h4q23 54 76 92.5t143 38.5q95 0 158 -61.5t63 -171.5v-541q0 -158 -67.5 -218t-202.5 -60q-66 0 -125 20v29q50 0 84.5 8t62.5 29.5t42 63
t14 104.5v528q0 50 -28.5 86.5t-86.5 36.5q-55 0 -90 -36t-35 -99v-1131z" />
    <glyph glyph-name="threequartersemdash" unicode="&#xf6de;" horiz-adv-x="1064" 
d="M1044 612h-1024v136h1024v-136z" />
    <glyph glyph-name="centinferior" unicode="&#xf6df;" horiz-adv-x="622" 
d="M367 -590h-84v137q-107 9 -164.5 74t-57.5 180v342q0 63 9 111t32 93t68.5 72.5t112.5 33.5v112h84v-112q98 -10 146 -65t48 -148v-119h-147v82q0 123 -95 123q-62 0 -82 -45t-20 -158v-320q0 -57 29.5 -87.5t85.5 -30.5q51 0 87.5 35.5t51.5 78.5h6q72 -27 72 -96
q0 -55 -48 -99.5t-134 -54.5v-139z" />
    <glyph glyph-name="centsuperior" unicode="&#xf6e0;" horiz-adv-x="622" 
d="M367 879h-84v137q-107 9 -164.5 74t-57.5 180v342q0 63 9 111t32 92.5t68.5 72t112.5 33.5v113h84v-113q98 -10 146 -65t48 -148v-119h-147v82q0 123 -95 123q-62 0 -82 -45t-20 -158v-319q0 -57 30 -88t85 -31q51 0 87.5 36t51.5 79h6q72 -27 72 -97q0 -55 -48 -99
t-134 -54v-139z" />
    <glyph glyph-name="commainferior" unicode="&#xf6e1;" horiz-adv-x="307" 
d="M20 -645v8q82 49 82 199v100h134v-65q0 -111 -53.5 -176.5t-162.5 -65.5z" />
    <glyph glyph-name="commasuperior" unicode="&#xf6e2;" horiz-adv-x="307" 
d="M20 864v8q82 49 82 199v100h134v-65q0 -111 -53.5 -176.5t-162.5 -65.5z" />
    <glyph glyph-name="dollarinferior" unicode="&#xf6e3;" horiz-adv-x="641" 
d="M365 -590h-84v137q-98 9 -155.5 66.5t-57.5 153.5q0 75 46.5 112t123.5 37h6q-25 -49 -25 -121q0 -66 24.5 -88t78.5 -22q52 0 78 27t26 89q0 41 -19.5 71.5t-51.5 50t-70 37.5t-76 39t-70 47.5t-51.5 70.5t-19.5 102q0 103 54.5 163.5t158.5 70.5v112h84v-112
q90 -9 142 -69.5t52 -162.5v-94h-145v92q0 107 -92 107q-50 0 -74.5 -21.5t-24.5 -81.5q0 -41 19.5 -70.5t50 -48t68 -34.5t75 -35.5t68 -45.5t50 -70.5t19.5 -104.5q0 -243 -208 -265v-139z" />
    <glyph glyph-name="dollarsuperior" unicode="&#xf6e4;" horiz-adv-x="641" 
d="M365 879h-84v137q-98 9 -155.5 66t-57.5 153q0 75 46.5 112t123.5 37h6q-25 -48 -25 -120q0 -66 24.5 -88.5t78.5 -22.5q52 0 78 27.5t26 89.5q0 41 -19.5 71.5t-51.5 50t-70 37t-76 39t-70 48t-51.5 70.5t-19.5 102q0 103 54.5 163t158.5 70v113h84v-113
q90 -9 142 -69.5t52 -161.5v-95h-145v93q0 106 -92 106q-51 0 -75 -21t-24 -81q0 -41 19.5 -71t50 -48t68 -34t75 -36t68 -46t50 -70.5t19.5 -104.5q0 -242 -208 -264v-139z" />
    <glyph glyph-name="hypheninferior" unicode="&#xf6e5;" horiz-adv-x="532" 
d="M461 -66h-389v111h389v-111z" />
    <glyph glyph-name="hyphensuperior" unicode="&#xf6e6;" horiz-adv-x="532" 
d="M461 1382h-389v111h389v-111z" />
    <glyph glyph-name="periodinferior" unicode="&#xf6e7;" horiz-adv-x="307" 
d="M154 -446q-34 0 -58 23.5t-24 57.5t24 58t58 24t58 -24t24 -58t-24 -57.5t-58 -23.5z" />
    <glyph glyph-name="periodsuperior" unicode="&#xf6e8;" horiz-adv-x="307" 
d="M154 1001q-34 0 -58 24t-24 58t24 58t58 24t58 -24t24 -58t-24 -58t-58 -24z" />
    <glyph glyph-name="asuperior" unicode="&#xf6e9;" horiz-adv-x="483" 
d="M428 883h-135v295q-62 0 -82.5 -28t-20.5 -95q0 -50 10 -68t31 -18q19 0 41 18h4q0 -47 -26.5 -80t-69.5 -33q-59 0 -92 41t-33 121q0 34 9 63.5t32.5 62t73.5 52.5t123 21v94q0 68 -47 68q-45 0 -45 -68v-26h-135v26q0 73 46 117.5t132 44.5q82 0 133 -40.5t51 -123.5
v-444z" />
    <glyph glyph-name="bsuperior" unicode="&#xf6ea;" horiz-adv-x="522" 
d="M188 883h-127v809h136v-648q0 -38 17.5 -60.5t43.5 -22.5q68 0 68 118v201q0 70 -11 92.5t-39 22.5q-29 0 -49 -15h-6q0 44 25.5 76.5t79.5 32.5q71 0 103 -43.5t32 -167.5v-201q0 -97 -38.5 -150t-115.5 -53q-93 0 -117 103h-2v-94z" />
    <glyph glyph-name="dsuperior" unicode="&#xf6eb;" horiz-adv-x="522" 
d="M461 883h-127v94h-2q-24 -103 -117 -103q-77 0 -115.5 53t-38.5 150v201q0 115 38.5 163t109.5 48q92 0 92 -109h-6q-20 15 -49 15q-28 0 -38.5 -22.5t-10.5 -92.5v-201q0 -59 15 -88.5t52 -29.5q26 0 44 22.5t18 60.5v648h135v-809z" />
    <glyph glyph-name="esuperior" unicode="&#xf6ec;" horiz-adv-x="532" 
d="M442 1085v-30q0 -91 -35.5 -136t-138.5 -45q-92 0 -140 43t-48 123v271q0 82 44 131t142 49q85 0 130.5 -48t45.5 -138q0 -167 -227 -170v-91q0 -37 12 -56t41 -19q24 0 35.5 12t11.5 49v55h127zM215 1321v-141q100 7 100 125q0 55 -11 73.5t-36 18.5q-53 0 -53 -76z" />
    <glyph glyph-name="isuperior" unicode="&#xf6ed;" horiz-adv-x="323" 
d="M229 883h-135v598h135v-598zM162 1606q-33 0 -56.5 23.5t-23.5 56.5q0 34 23 57.5t57 23.5t57 -23.5t23 -57.5q0 -33 -23.5 -56.5t-56.5 -23.5z" />
    <glyph glyph-name="lsuperior" unicode="&#xf6ee;" horiz-adv-x="319" 
d="M227 883h-135v809h135v-809z" />
    <glyph glyph-name="msuperior" unicode="&#xf6ef;" horiz-adv-x="765" 
d="M489 895v14q46 0 63 27.5t17 101.5v211q0 82 -11 108.5t-54 26.5q-39 0 -50.5 -23t-11.5 -81v-397h-133v409q0 55 -9 73.5t-44 18.5q-26 0 -39.5 -15.5t-16.5 -35t-3 -53.5v-397h-136v598h125v-90h4q7 19 10 25.5t14 24t22.5 25.5t33.5 15.5t49 7.5q95 0 119 -98
q30 98 119 98q84 0 116 -50.5t32 -162.5v-221q0 -181 -144 -181q-41 0 -72 21z" />
    <glyph glyph-name="osuperior" unicode="&#xf6f0;" horiz-adv-x="532" 
d="M453 1323v-270q0 -81 -44 -130t-141 -49q-92 0 -140 43t-48 123v271q0 82 44 131t142 49q92 0 139.5 -43t47.5 -125zM317 1044v277q0 76 -49 76q-53 0 -53 -76v-277q0 -37 12 -56t41 -19q49 0 49 75z" />
    <glyph glyph-name="rsuperior" unicode="&#xf6f1;" horiz-adv-x="442" 
d="M197 883h-136v598h127v-95h2q31 103 132 103q55 0 85.5 -31.5t30.5 -83.5q0 -54 -36 -85.5t-93 -31.5v7q27 22 27 57q0 47 -37 47q-102 0 -102 -172v-313z" />
    <glyph glyph-name="ssuperior" unicode="&#xf6f2;" horiz-adv-x="514" 
d="M430 1286h-121v55q0 56 -49 56q-24 0 -37.5 -14t-13.5 -40q0 -37 24 -62.5t58.5 -42.5t68.5 -37t58 -58.5t24 -95.5q0 -85 -45.5 -127.5t-148.5 -42.5q-87 0 -131.5 39t-44.5 98q0 34 14.5 57t38.5 33t44 14t40 4h4q-20 -27 -20 -86q0 -71 59 -71q26 0 42.5 17.5
t16.5 43.5q0 46 -23.5 75.5t-57.5 46.5t-67.5 36t-57 57t-23.5 96q0 75 47 114.5t139 39.5q162 0 162 -150v-55z" />
    <glyph glyph-name="tsuperior" unicode="&#xf6f3;" horiz-adv-x="409" 
d="M375 1004l4 -5q0 -48 -35 -85t-88 -37q-77 0 -110 42t-33 130v337h-82v95h82v170h135v-170h114v-95h-114v-325q0 -53 11 -71.5t40 -18.5q47 0 76 33z" />
    <glyph glyph-name="Brevesmall" unicode="&#xf6f4;" horiz-adv-x="716" 
d="M475 1567h143q0 -114 -70.5 -171t-189.5 -57t-189.5 57t-70.5 171h144q3 -105 116 -105q55 0 85.5 26.5t31.5 78.5z" />
    <glyph glyph-name="Caronsmall" unicode="&#xf6f5;" horiz-adv-x="716" 
d="M618 1438l-256 -111h-8l-256 111v145l260 -113l260 113v-145z" />
    <glyph glyph-name="Circumflexsmall" unicode="&#xf6f6;" horiz-adv-x="716" 
d="M618 1348l-260 112l-260 -112v145l256 111h8l256 -111v-145z" />
    <glyph glyph-name="Dotaccentsmall" unicode="&#xf6f7;" horiz-adv-x="716" 
d="M358 1335q-43 0 -72.5 30t-29.5 73t29.5 72.5t72.5 29.5t73 -29.5t30 -72.5t-30 -73t-73 -30z" />
    <glyph glyph-name="Hungarumlautsmall" unicode="&#xf6f8;" horiz-adv-x="716" 
d="M287 1337h-123l49 256h174zM535 1337h-123l80 256h174z" />
    <glyph glyph-name="Lslashsmall" unicode="&#xf6f9;" horiz-adv-x="696" 
d="M666 0h-549v449l-117 -48v138l117 47v524h194v-446l178 71v-137l-178 -72v-354h355v-172z" />
    <glyph glyph-name="OEsmall" unicode="&#xf6fa;" horiz-adv-x="1214" 
d="M1075 285h8q40 -6 62 -35.5t22 -73.5q0 -79 -63 -133.5t-195 -54.5q-69 0 -121.5 31.5t-80.5 86.5q-33 -55 -97.5 -86.5t-148.5 -31.5q-182 0 -265 94t-83 272v379q0 82 17.5 149t56 122.5t108.5 86.5t166 31q129 0 174 -78v66h526v-172h-352v-279h332v-151h-332v-209
q0 -137 111 -137q68 0 101.5 31.5t53.5 91.5zM614 342v408q0 213 -153 213q-154 0 -154 -213v-408q0 -95 43.5 -145t110.5 -50t110 50t43 145z" />
    <glyph glyph-name="Ogoneksmall" unicode="&#xf6fb;" horiz-adv-x="716" 
d="M504 -287l6 -4q0 -53 -31.5 -79.5t-81.5 -26.5q-137 0 -137 147q0 67 41.5 134.5t101.5 115.5h95q-95 -140 -95 -238q0 -65 48 -65q27 0 53 16z" />
    <glyph glyph-name="Ringsmall" unicode="&#xf6fc;" horiz-adv-x="716" 
d="M358 1280q-76 0 -130 54t-54 130q0 77 54 131t130 54t130.5 -54.5t54.5 -130.5t-54 -130t-131 -54zM449 1464q0 37 -27 63.5t-64 26.5t-63.5 -26.5t-26.5 -63.5t26.5 -63.5t63.5 -26.5t64 26.5t27 63.5z" />
    <glyph glyph-name="Scaronsmall" unicode="&#xf6fd;" horiz-adv-x="819" 
d="M709 713h-183v116q0 134 -114 134q-123 0 -123 -127q0 -51 24.5 -89t63.5 -61.5t86.5 -44.5t95 -46.5t86.5 -58.5t63.5 -89.5t24.5 -131.5q0 -154 -82 -240.5t-243 -86.5q-150 0 -236 68t-86 198q0 176 207 176h8q-27 -51 -27 -141q0 -67 36.5 -102t99.5 -35
q139 0 139 149q0 50 -25 88.5t-65 64t-88.5 48.5t-97.5 50t-89 61.5t-65 90t-25 127.5q0 135 86.5 213t235.5 78q137 0 215 -75.5t78 -215.5v-118zM672 1356l-256 -111h-8l-256 111v145l260 -112l260 112v-145z" />
    <glyph glyph-name="Tildesmall" unicode="&#xf6fe;" horiz-adv-x="716" 
d="M528 1595h80q-2 -46 -8 -80t-21.5 -66.5t-45.5 -49.5t-74 -17q-51 0 -115 33t-94 33q-49 0 -62 -78h-79q11 213 149 213q53 0 127 -32.5t92 -32.5q24 0 35 18.5t16 58.5z" />
    <glyph glyph-name="Zcaronsmall" unicode="&#xf6ff;" horiz-adv-x="782" 
d="M649 242h8q52 -44 52 -113q0 -68 -37 -104.5t-107 -36.5q-43 0 -95.5 28.5t-98.5 57t-74 28.5q-26 0 -45.5 -10.5t-29 -25.5t-15.5 -30t-7 -26l-1 -10h-136v84q0 102 46 207l374 653h-383v166h588v-166l-403 -725h2q22 43 71 43q36 0 116 -40t106 -40q58 0 69 60z
M672 1356l-256 -111h-8l-256 111v145l260 -112l260 112v-145z" />
    <glyph glyph-name="exclamsmall" unicode="&#xf721;" horiz-adv-x="495" 
d="M307 338h-119q-5 37 -13.5 103.5t-22 258.5t-13.5 369h217q0 -177 -12 -360t-24 -277zM248 -12q-47 0 -81 33.5t-34 80.5t34 81t81 34t80.5 -34t33.5 -81t-33.5 -80.5t-80.5 -33.5z" />
    <glyph glyph-name="dollaroldstyle" unicode="&#xf724;" horiz-adv-x="819" 
d="M479 -178h-94v166q-139 6 -215 72.5t-76 193.5q0 176 207 176h8q-26 -51 -26 -141q0 -137 127 -137q131 0 131 155q0 45 -19 80t-50.5 57t-72 44t-82 40t-82 45.5t-72 59t-50.5 82t-19 114.5q0 128 77.5 206t213.5 85v144h94v-148q109 -15 169.5 -88.5t60.5 -196.5v-118
h-183v116q0 134 -114 134q-123 0 -123 -129q0 -51 24 -88.5t62.5 -60t85 -43t93 -45t85 -56.5t62.5 -88t24 -131q0 -137 -61.5 -223.5t-184.5 -104.5v-172z" />
    <glyph glyph-name="ampersandsmall" unicode="&#xf726;" horiz-adv-x="940" 
d="M930 0h-203l-338 547q-110 -95 -110 -264q0 -148 118 -148q76 0 131 84h9q18 -41 18 -74q0 -70 -51 -117.5t-166 -47.5q-122 0 -193 73t-71 203q0 122 74.5 213t199.5 141q-52 82 -81 147.5t-29 127.5q0 66 22 115.5t59.5 76.5t79 40t86.5 13q109 0 160 -48.5t51 -125.5
t-75 -131h-9q-21 80 -44 119t-68 39q-42 0 -65 -25.5t-23 -70.5q0 -14 1 -26.5t5 -26.5t6.5 -23.5t11.5 -26.5t12.5 -24.5t16.5 -29t18 -29t22.5 -35t24.5 -37.5z" />
    <glyph glyph-name="zerooldstyle" unicode="&#xf730;" 
d="M514 319v431q0 55 -8 92.5t-34 64.5t-71 27t-70.5 -27t-33.5 -64.5t-8 -92.5v-431q0 -55 8 -92.5t33.5 -64.5t70.5 -27t71 27t34 64.5t8 92.5zM707 717v-365q0 -194 -75.5 -279t-230.5 -85t-230 84.5t-75 279.5v365q0 195 75 279.5t230 84.5t230.5 -85t75.5 -279z" />
    <glyph glyph-name="oneoldstyle" unicode="&#xf731;" 
d="M541 0h-193v893h-4l-201 -51v131l226 96h172v-1069z" />
    <glyph glyph-name="twooldstyle" unicode="&#xf732;" 
d="M674 242h8q43 -50 43 -113q0 -67 -37.5 -104t-99.5 -37q-43 0 -89.5 21t-86.5 42t-68 21q-26 0 -45.5 -7.5t-29 -18t-15.5 -21t-7 -17.5l-1 -8h-156v104q0 85 23 155t59.5 117.5t81 88.5t89 75.5t81 69.5t59.5 81t23 100q0 49 -9 80.5t-25.5 45t-31.5 17.5t-37 4
q-49 0 -73.5 -25.5t-24.5 -97.5v-96h-192v96q0 129 77.5 199.5t212.5 70.5q157 0 226 -69t69 -232q0 -58 -22 -112.5t-57 -97t-77.5 -82.5t-85.5 -75t-78 -68t-57 -68.5t-22 -69.5l4 -2q20 39 90 39q34 0 106 -33t105 -33q59 0 70 60z" />
    <glyph glyph-name="threeoldstyle" unicode="&#xf733;" 
d="M707 137v-143q0 -330 -320 -330q-140 0 -220.5 64t-80.5 168q0 98 56.5 144t136.5 46q32 0 59 -6v-8q-59 -59 -59 -146q0 -53 29 -83.5t81 -30.5q71 0 98 46t27 138v174q0 101 -45.5 144.5t-149.5 43.5h-51v131h66q93 0 133.5 45.5t40.5 153.5v135q0 89 -24.5 122.5
t-71.5 33.5q-62 0 -87.5 -37.5t-25.5 -126.5v-70h-193v68q0 313 306 313q149 0 218.5 -74.5t69.5 -228.5v-90q0 -71 -12.5 -124.5t-31 -84t-47 -51.5t-52.5 -29t-57 -14v-4q38 -6 64.5 -14.5t55.5 -28t46.5 -49t29 -79.5t11.5 -118z" />
    <glyph glyph-name="fouroldstyle" unicode="&#xf734;" 
d="M647 -362h-192v360h-389v168l327 909h254v-930h90v-147h-90v-360zM455 145v643h-4l-213 -643h217z" />
    <glyph glyph-name="fiveoldstyle" unicode="&#xf735;" 
d="M520 -29v365q0 141 -110 141q-52 0 -82.5 -39.5t-30.5 -113.5v-60h-193v850h574v-160h-381v-473h4q27 78 68.5 117t115.5 39q43 0 82 -13.5t72.5 -42.5t53.5 -79.5t20 -118.5v-422q0 -297 -320 -297q-140 0 -220.5 64t-80.5 168q0 98 56.5 144t136.5 46q32 0 59 -6v-8
q-59 -59 -59 -146q0 -53 29 -83.5t81 -30.5q125 0 125 159z" />
    <glyph glyph-name="sixoldstyle" unicode="&#xf736;" 
d="M713 584v-232q0 -193 -74.5 -278.5t-253.5 -85.5q-146 0 -220.5 81.5t-74.5 258.5v776q0 171 84 258.5t223 87.5q303 0 303 -320v-71h-192v71q0 88 -25 124t-86 36q-63 0 -88.5 -44.5t-25.5 -139.5v-313h4q47 147 192 147q69 0 116 -25t72.5 -74.5t35.5 -110.5t10 -146z
M508 319v324q0 65 -24 101t-87 36q-60 0 -87 -44t-27 -142v-275q0 -41 4.5 -71t16 -57t35 -41.5t58.5 -14.5q65 0 88 45t23 139z" />
    <glyph glyph-name="sevenoldstyle" unicode="&#xf737;" 
d="M500 -180h4q0 -71 -39 -113.5t-123 -42.5q-77 0 -117.5 50.5t-40.5 146.5q0 106 55.5 278t218.5 604q47 123 72 191h-456v180h639v-168q-312 -861 -312 -1055q0 -37 16.5 -60.5t45.5 -23.5q31 0 37 13z" />
    <glyph glyph-name="eightoldstyle" unicode="&#xf738;" 
d="M707 455v-103q0 -200 -69 -282t-237 -82q-172 0 -238.5 81.5t-66.5 282.5v144q0 84 46 142.5t128 88.5q-49 31 -81 64t-56 91.5t-24 135.5v117q0 161 68 238t224 77q163 0 228 -76t65 -239v-168q0 -148 -147 -203q75 -51 117.5 -121t42.5 -188zM514 319v160
q0 71 -37.5 112.5t-111.5 82.5q-76 -69 -76 -185v-170q0 -32 0.5 -46.5t3.5 -41t10 -40t18.5 -28.5t32 -21.5t47.5 -6.5t47.5 6.5t32.5 21.5t19 28.5t10 39.5t3.5 41.5t0.5 46.5zM502 950v174q0 27 -0.5 42t-3.5 38t-9.5 35.5t-17 25.5t-28.5 19t-42 6q-29 0 -49 -10
t-29.5 -23t-15 -39t-6 -43t-0.5 -51v-100q0 -74 36.5 -117t108.5 -84q56 35 56 127z" />
    <glyph glyph-name="nineoldstyle" unicode="&#xf739;" 
d="M520 -16v378h-4q-26 -72 -69.5 -109.5t-122.5 -37.5q-234 0 -234 334v213q0 192 76 278t252 86q157 0 226 -75t69 -265v-813q0 -156 -83.5 -232.5t-236.5 -76.5q-140 0 -220.5 64t-80.5 168q0 98 56.5 144t136.5 46q32 0 59 -6v-8q-59 -59 -59 -146q0 -102 110 -102
q125 0 125 160zM520 561v234q0 42 -3.5 71t-15 57t-35 42t-60.5 14q-68 0 -89.5 -43.5t-21.5 -140.5v-283q0 -65 24 -101t87 -36q60 0 87 44t27 142z" />
    <glyph glyph-name="questionsmall" unicode="&#xf73f;" horiz-adv-x="759" 
d="M360 -6q-47 0 -80.5 34t-33.5 81t33.5 80.5t80.5 33.5t81 -33.5t34 -80.5t-34 -81t-81 -34zM440 293h-159v41q0 49 12 91.5t31 74t41.5 60.5t45.5 58.5t42 61.5t31 75.5t12 94.5q0 54 -29.5 85.5t-85.5 31.5q-139 0 -139 -125q0 -44 21 -81.5t42 -52.5l21 -16l-7 -6
q-38 -14 -79 -14q-74 0 -121 52.5t-47 154.5q0 107 79 175t226 68q158 0 234.5 -72t76.5 -204q0 -74 -25.5 -136.5t-62 -106t-73 -85t-62 -92.5t-25.5 -109v-24z" />
    <glyph glyph-name="Gravesmall" unicode="&#xf760;" horiz-adv-x="716" 
d="M459 1337h-133l-152 256h184z" />
    <glyph glyph-name="Asmall" unicode="&#xf761;" horiz-adv-x="897" 
d="M829 0h-194l-49 233h-275l-49 -233h-194l272 1110h217zM555 385l-104 504h-5l-104 -504h213z" />
    <glyph glyph-name="Bsmall" unicode="&#xf762;" horiz-adv-x="878" 
d="M309 618h68q89 0 141.5 46t52.5 129q0 80 -45 118.5t-161 38.5h-56v-332zM309 0h-194v1110h256q189 0 286 -75t97 -222q0 -101 -60 -161t-166 -72v-5q122 -14 189 -87.5t67 -206.5q0 -143 -79.5 -218t-202.5 -75q-53 0 -95 18.5t-57 46.5v19q121 5 181.5 53.5t60.5 155.5
q0 114 -55.5 166.5t-165.5 52.5h-62v-500z" />
    <glyph glyph-name="Csmall" unicode="&#xf763;" horiz-adv-x="782" 
d="M604 305h8q42 -15 66 -47t24 -74q0 -77 -76 -136.5t-210 -59.5q-154 0 -238 82t-84 237v426q0 68 7.5 120.5t28.5 105t57 87t96 55.5t141 21q148 0 220.5 -70t72.5 -198v-147h-182v102q0 154 -119 154q-76 0 -101.5 -56.5t-25.5 -197.5v-400q0 -71 36.5 -109t106.5 -38
q64 0 109.5 45.5t62.5 97.5z" />
    <glyph glyph-name="Dsmall" unicode="&#xf764;" horiz-adv-x="894" 
d="M328 0h-211v1110h211q230 0 343 -114t113 -345v-192q0 -234 -112.5 -346.5t-343.5 -112.5zM311 160h15q135 0 199.5 64.5t64.5 219.5v222q0 155 -64.5 219.5t-199.5 64.5h-15v-790z" />
    <glyph glyph-name="Esmall" unicode="&#xf765;" horiz-adv-x="724" 
d="M567 285h8q40 -6 62 -35.5t22 -73.5q0 -81 -58 -134.5t-189 -53.5q-142 0 -218.5 78t-76.5 231v813h536v-172h-342v-279h322v-151h-322v-209q0 -137 111 -137q67 0 95.5 30t49.5 93z" />
    <glyph glyph-name="Fsmall" unicode="&#xf766;" horiz-adv-x="706" 
d="M311 0h-194v1110h536v-172h-342v-279h322v-151h-322v-508z" />
    <glyph glyph-name="Gsmall" unicode="&#xf767;" horiz-adv-x="894" 
d="M778 0h-59q-52 9 -86 41t-43 86h-6q-15 -61 -66 -100t-139 -39q-129 0 -195.5 91.5t-66.5 264.5v389q0 389 338 389q165 0 244 -66.5t79 -207.5v-129h-194v102q0 142 -131 142q-142 0 -142 -224v-407q0 -91 35.5 -138t95.5 -47q68 0 105 35.5t37 93.5v166h-135v152h329
v-594z" />
    <glyph glyph-name="Hsmall" unicode="&#xf768;" horiz-adv-x="894" 
d="M778 0h-194v498h-273v-498h-194v1110h194v-461h273v461h194v-1110z" />
    <glyph glyph-name="Ismall" unicode="&#xf769;" horiz-adv-x="440" 
d="M317 0h-194v1110h194v-1110z" />
    <glyph glyph-name="Jsmall" unicode="&#xf76a;" horiz-adv-x="731" 
d="M424 295v815h194v-817q0 -156 -77.5 -230.5t-221.5 -74.5q-124 0 -193 61t-69 150q0 86 52 138t133 52q22 0 49 -6v-8q-49 -70 -49 -146q0 -38 21 -60t59 -22q50 0 76 33.5t26 114.5z" />
    <glyph glyph-name="Ksmall" unicode="&#xf76b;" horiz-adv-x="894" 
d="M829 176h5q14 -32 14 -63q0 -125 -154 -125q-79 0 -123.5 54t-44.5 183v107q0 211 -170 211h-45v-543h-194v1110h194v-475h4l322 475h197l-353 -502q114 0 172 -59.5t58 -155.5v-174q0 -51 13.5 -73.5t43.5 -22.5q23 0 40 17.5t21 35.5z" />
    <glyph glyph-name="Lsmall" unicode="&#xf76c;" horiz-adv-x="696" 
d="M666 0h-549v1110h194v-938h355v-172z" />
    <glyph glyph-name="Msmall" unicode="&#xf76d;" horiz-adv-x="1077" 
d="M924 0h-185v758h-4l-157 -328h-123l-158 328h-4v-758h-180v1110h182l219 -451h4l219 451h187v-1110z" />
    <glyph glyph-name="Nsmall" unicode="&#xf76e;" horiz-adv-x="937" 
d="M805 0h-143l-365 729h-4v-729h-180v1110h180l323 -635h5v635h184v-1110z" />
    <glyph glyph-name="Osmall" unicode="&#xf76f;" horiz-adv-x="921" 
d="M809 739v-385q0 -366 -348 -366t-348 366v385q0 175 85.5 279t262.5 104t262.5 -104t85.5 -279zM614 346v399q0 218 -153 218q-154 0 -154 -218v-399q0 -98 40.5 -148.5t113.5 -50.5t113 50.5t40 148.5z" />
    <glyph glyph-name="Psmall" unicode="&#xf770;" horiz-adv-x="858" 
d="M311 0h-194v1110h223q81 0 148.5 -12t127.5 -40t101.5 -72t65.5 -110.5t24 -152.5q0 -88 -25 -156.5t-67 -110t-95 -62.5t-112 -21q-96 0 -178 49v8q67 13 112 30t87 49t62.5 85t20.5 129q0 109 -69.5 168t-208.5 59h-23v-950z" />
    <glyph glyph-name="Qsmall" unicode="&#xf771;" horiz-adv-x="894" 
d="M930 -203h4q0 -157 -148 -157q-79 0 -118 44t-39 146v27q0 39 -8.5 64t-19.5 38.5t-37.5 20t-45.5 7.5t-61 1q-346 0 -346 366v379q0 82 17 149t55.5 122.5t108 86.5t165.5 31q183 0 265.5 -93.5t82.5 -272.5v-402q0 -123 -45.5 -201t-122.5 -104v-6q86 0 130 -40.5
t44 -117.5v-39q0 -71 61 -71q17 0 34.5 6t23.5 16zM610 342v408q0 115 -37.5 164t-115.5 49q-76 0 -114 -49t-38 -164v-408q0 -97 41 -146t111 -49q71 0 112 49t41 146z" />
    <glyph glyph-name="Rsmall" unicode="&#xf772;" horiz-adv-x="860" 
d="M780 176h4q15 -35 15 -63q0 -54 -39 -89.5t-115 -35.5q-77 0 -122.5 46t-45.5 142v129q0 87 -26 121.5t-97 34.5h-43v-461h-194v1110h264q172 0 257 -80.5t85 -218.5q0 -122 -62.5 -193t-166.5 -94v-4q89 0 128.5 -48t39.5 -146v-140q0 -36 13.5 -49.5t43.5 -13.5
q23 0 40 17.5t21 35.5zM311 604h43q86 0 130 49.5t44 132.5q0 79 -35.5 115.5t-123.5 36.5h-58v-334z" />
    <glyph glyph-name="Ssmall" unicode="&#xf773;" horiz-adv-x="819" 
d="M709 713h-183v116q0 134 -114 134q-123 0 -123 -127q0 -51 24.5 -89t63.5 -61.5t86.5 -44.5t95 -46.5t86.5 -58.5t63.5 -89.5t24.5 -131.5q0 -154 -82 -240.5t-243 -86.5q-150 0 -236 68t-86 198q0 176 207 176h8q-27 -51 -27 -141q0 -67 36.5 -102t99.5 -35
q139 0 139 149q0 50 -25 88.5t-65 64t-88.5 48.5t-97.5 50t-89 61.5t-65 90t-25 127.5q0 135 86.5 213t235.5 78q137 0 215 -75.5t78 -215.5v-118z" />
    <glyph glyph-name="Tsmall" unicode="&#xf774;" horiz-adv-x="788" 
d="M492 0h-195v938h-246v172h686v-172h-245v-938z" />
    <glyph glyph-name="Usmall" unicode="&#xf775;" horiz-adv-x="921" 
d="M614 319v791h195v-756q0 -56 -9 -104.5t-33 -98t-62 -84.5t-100.5 -57t-143.5 -22t-143.5 22t-100.5 57t-62 84.5t-33 98t-9 104.5v756h194v-791q0 -79 38.5 -125.5t115.5 -46.5q76 0 114.5 46.5t38.5 125.5z" />
    <glyph glyph-name="Vsmall" unicode="&#xf776;" horiz-adv-x="913" 
d="M596 0h-238l-256 913q-8 38 -22.5 55t-42.5 17q-13 0 -26 -5t-15 -9h-4q0 72 42 110.5t107 38.5q61 0 99 -38t55 -126l180 -714h4l172 868h205z" />
    <glyph glyph-name="Wsmall" unicode="&#xf777;" horiz-adv-x="1335" 
d="M1053 0h-250l-117 745h-4l-133 -745h-248l-172 913q-8 39 -20.5 55.5t-40.5 16.5q-14 0 -26.5 -5t-14.5 -9h-4q0 72 42 110.5t107 38.5q129 0 150 -164l104 -735h4l174 889h176l154 -889h4l147 889h193z" />
    <glyph glyph-name="Xsmall" unicode="&#xf778;" horiz-adv-x="913" 
d="M856 0h-217l-180 379l-197 -379h-205l299 563l-182 350q-17 39 -32 55.5t-42 16.5q-14 0 -26.5 -5t-14.5 -9h-4q0 72 40.5 110.5t105.5 38.5q60 0 94 -36.5t72 -127.5l102 -243l172 397h205l-275 -567z" />
    <glyph glyph-name="Ysmall" unicode="&#xf779;" horiz-adv-x="854" 
d="M528 0h-194v401l-217 512q-13 39 -26 55.5t-38 16.5q-13 0 -26 -5t-15 -9h-4q0 73 39 111t103 38q58 0 88.5 -34.5t64.5 -129.5l125 -346h4l180 500h181l-265 -709v-401z" />
    <glyph glyph-name="Zsmall" unicode="&#xf77a;" horiz-adv-x="782" 
d="M649 242h8q52 -44 52 -113q0 -68 -37 -104.5t-107 -36.5q-43 0 -95.5 28.5t-98.5 57t-74 28.5q-26 0 -45.5 -10.5t-29 -25.5t-15.5 -30t-7 -26l-1 -10h-136v84q0 102 46 207l374 653h-383v166h588v-166l-403 -725h2q22 43 71 43q36 0 116 -40t106 -40q58 0 69 60z" />
    <glyph glyph-name="exclamdownsmall" unicode="&#xf7a1;" horiz-adv-x="520" 
d="M188 866h119q5 -37 13.5 -103.5t22 -258.5t13.5 -369h-217q0 177 12.5 360t24.5 277zM248 1217q47 0 80.5 -34t33.5 -81t-33.5 -81t-80.5 -34t-81 34t-34 81t34 81t81 34z" />
    <glyph glyph-name="centoldstyle" unicode="&#xf7a2;" horiz-adv-x="782" 
d="M479 -178h-94v168q-140 8 -215.5 89t-75.5 228v426q0 64 6.5 115t25.5 101.5t50.5 85t84 57.5t124.5 28v144h94v-146q120 -12 179 -80t59 -184v-147h-182v102q0 154 -119 154q-76 0 -101.5 -56.5t-25.5 -197.5v-400q0 -71 36.5 -109t106.5 -38q64 0 109.5 45.5t62.5 97.5
h8q42 -15 66 -47t24 -74q0 -67 -59 -122.5t-164 -69.5v-170z" />
    <glyph glyph-name="Dieresissmall" unicode="&#xf7a8;" horiz-adv-x="716" 
d="M190 1335q-38 0 -65 27t-27 65t27 65.5t65 27.5t65.5 -27.5t27.5 -65.5t-27.5 -65t-65.5 -27zM526 1335q-38 0 -65 27t-27 65t27 65.5t65 27.5t65 -27.5t27 -65.5t-27 -65t-65 -27z" />
    <glyph glyph-name="Macronsmall" unicode="&#xf7af;" horiz-adv-x="716" 
d="M608 1348h-499v133h499v-133z" />
    <glyph glyph-name="Acutesmall" unicode="&#xf7b4;" horiz-adv-x="716" 
d="M391 1337h-135l102 256h185z" />
    <glyph glyph-name="Cedillasmall" unicode="&#xf7b8;" horiz-adv-x="716" 
d="M266 -322v5q101 0 101 88q0 80 -91 127l37 118h131l-38 -102q38 -19 66 -62.5t28 -97.5q0 -74 -44 -119t-102 -45q-41 0 -64.5 25t-23.5 63z" />
    <glyph glyph-name="questiondownsmall" unicode="&#xf7bf;" horiz-adv-x="1030" 
d="M659 1249q47 0 81 -33.5t34 -80.5t-34 -81t-81 -34t-80.5 34t-33.5 81t33.5 80.5t80.5 33.5zM580 950h159v-41q0 -49 -12 -91.5t-31 -74t-41.5 -60.5t-45.5 -58.5t-42 -61.5t-31 -75.5t-12 -94.5q0 -54 29.5 -85.5t85.5 -31.5q139 0 139 125q0 44 -21 81.5t-42 53.5
l-21 15l6 6q38 14 80 14q74 0 121 -52t47 -154q0 -108 -79 -176t-226 -68q-158 0 -234.5 72t-76.5 204q0 74 25.5 136.5t62 106t73 85t62 92.5t25.5 109v24z" />
    <glyph glyph-name="Agravesmall" unicode="&#xf7e0;" horiz-adv-x="897" 
d="M829 0h-194l-49 233h-275l-49 -233h-194l272 1110h217zM555 385l-104 504h-5l-104 -504h213zM549 1255h-133l-152 256h185z" />
    <glyph glyph-name="Aacutesmall" unicode="&#xf7e1;" horiz-adv-x="897" 
d="M829 0h-194l-49 233h-275l-49 -233h-194l272 1110h217zM555 385l-104 504h-5l-104 -504h213zM545 1255h-135l102 256h184z" />
    <glyph glyph-name="Acircumflexsmall" unicode="&#xf7e2;" horiz-adv-x="897" 
d="M829 0h-194l-49 233h-275l-49 -233h-194l272 1110h217zM555 385l-104 504h-5l-104 -504h213zM711 1266l-260 112l-261 -112v145l256 111h9l256 -111v-145z" />
    <glyph glyph-name="Atildesmall" unicode="&#xf7e3;" horiz-adv-x="897" 
d="M829 0h-194l-49 233h-275l-49 -233h-194l272 1110h217zM555 385l-104 504h-5l-104 -504h213zM621 1513h79q-2 -46 -8 -80t-21.5 -66.5t-45.5 -49.5t-74 -17q-51 0 -115 33t-94 33q-48 0 -61 -78h-80q11 213 149 213q53 0 127 -32.5t92 -32.5q24 0 35.5 18.5t16.5 58.5z
" />
    <glyph glyph-name="Adieresissmall" unicode="&#xf7e4;" horiz-adv-x="897" 
d="M829 0h-194l-49 233h-275l-49 -233h-194l272 1110h217zM555 385l-104 504h-5l-104 -504h213zM283 1253q-38 0 -65.5 27.5t-27.5 65.5t27.5 65t65.5 27t65 -27t27 -65t-27 -65.5t-65 -27.5zM618 1253q-38 0 -65 27.5t-27 65.5t27 65t65 27t65.5 -27t27.5 -65t-27.5 -65.5
t-65.5 -27.5z" />
    <glyph glyph-name="Aringsmall" unicode="&#xf7e5;" horiz-adv-x="897" 
d="M829 0h-194l-49 233h-275l-49 -233h-194l260 1065q-64 57 -64 141q0 76 54 130.5t131 54.5q76 0 130 -54t54 -131q0 -82 -66 -141zM555 385l-104 504h-5l-104 -504h213zM539 1206q0 37 -26.5 63.5t-63.5 26.5t-64 -26.5t-27 -63.5t27 -63.5t64 -26.5t63.5 26.5t26.5 63.5
z" />
    <glyph glyph-name="AEsmall" unicode="&#xf7e6;" horiz-adv-x="1255" 
d="M1096 285h8q40 -6 62 -35.5t22 -73.5q0 -78 -69.5 -133t-203.5 -55q-132 0 -200.5 71.5t-87.5 214.5h-273l-86 -274h-200l383 1110h710v-172h-430l33 -279h377v-151h-359l25 -209q9 -77 36.5 -107t82.5 -30q130 0 170 123zM610 426l-49 487h-4l-154 -487h207z" />
    <glyph glyph-name="Ccedillasmall" unicode="&#xf7e7;" horiz-adv-x="782" 
d="M303 -322v5q100 0 100 88q0 81 -90 127l29 96q-121 17 -184.5 97t-63.5 216v426q0 68 7.5 120.5t28.5 105t57 87t96 55.5t141 21q148 0 220.5 -70t72.5 -198v-147h-182v102q0 154 -119 154q-76 0 -101.5 -56.5t-25.5 -197.5v-400q0 -71 36.5 -109t106.5 -38
q64 0 109.5 45.5t62.5 97.5h8q42 -15 66 -47t24 -74q0 -68 -61 -124.5t-170 -67.5l-29 -78q38 -19 66.5 -62.5t28.5 -97.5q0 -74 -44 -119t-102 -45q-41 0 -64.5 25t-23.5 63z" />
    <glyph glyph-name="Egravesmall" unicode="&#xf7e8;" horiz-adv-x="724" 
d="M567 285h8q40 -6 62 -35.5t22 -73.5q0 -81 -58 -134.5t-189 -53.5q-142 0 -218.5 78t-76.5 231v813h536v-172h-342v-279h322v-151h-322v-209q0 -137 111 -137q67 0 95.5 30t49.5 93zM473 1255h-133l-152 256h185z" />
    <glyph glyph-name="Eacutesmall" unicode="&#xf7e9;" horiz-adv-x="724" 
d="M567 285h8q40 -6 62 -35.5t22 -73.5q0 -81 -58 -134.5t-189 -53.5q-142 0 -218.5 78t-76.5 231v813h536v-172h-342v-279h322v-151h-322v-209q0 -137 111 -137q67 0 95.5 30t49.5 93zM365 1255h-136l103 256h184z" />
    <glyph glyph-name="Ecircumflexsmall" unicode="&#xf7ea;" horiz-adv-x="724" 
d="M567 285h8q40 -6 62 -35.5t22 -73.5q0 -81 -58 -134.5t-189 -53.5q-142 0 -218.5 78t-76.5 231v813h536v-172h-342v-279h322v-151h-322v-209q0 -137 111 -137q67 0 95.5 30t49.5 93zM627 1266l-260 112l-261 -112v145l256 111h9l256 -111v-145z" />
    <glyph glyph-name="Edieresissmall" unicode="&#xf7eb;" horiz-adv-x="724" 
d="M567 285h8q40 -6 62 -35.5t22 -73.5q0 -81 -58 -134.5t-189 -53.5q-142 0 -218.5 78t-76.5 231v813h536v-172h-342v-279h322v-151h-322v-209q0 -137 111 -137q67 0 95.5 30t49.5 93zM217 1253q-38 0 -65 27.5t-27 65.5t27 65t65 27t65 -27t27 -65t-27 -65.5t-65 -27.5z
M553 1253q-38 0 -65 27.5t-27 65.5t27 65t65 27t65 -27t27 -65t-27 -65.5t-65 -27.5z" />
    <glyph glyph-name="Igravesmall" unicode="&#xf7ec;" horiz-adv-x="440" 
d="M317 0h-194v1110h194v-1110zM289 1255h-133l-152 256h184z" />
    <glyph glyph-name="Iacutesmall" unicode="&#xf7ed;" horiz-adv-x="440" 
d="M317 0h-194v1110h194v-1110zM274 1255h-135l103 256h184z" />
    <glyph glyph-name="Icircumflexsmall" unicode="&#xf7ee;" horiz-adv-x="440" 
d="M317 0h-194v1110h194v-1110zM477 1266l-260 112l-260 -112v145l256 111h8l256 -111v-145z" />
    <glyph glyph-name="Idieresissmall" unicode="&#xf7ef;" horiz-adv-x="440" 
d="M317 0h-194v1110h194v-1110zM55 1253q-38 0 -65 27.5t-27 65.5t27 65t65 27t65 -27t27 -65t-27 -65.5t-65 -27.5zM391 1253q-38 0 -65 27.5t-27 65.5t27 65t65 27t65 -27t27 -65t-27 -65.5t-65 -27.5z" />
    <glyph glyph-name="Ethsmall" unicode="&#xf7f0;" horiz-adv-x="935" 
d="M352 160h15q136 0 200 68.5t64 236.5v180q0 168 -64 236.5t-200 68.5h-15v-346h148v-133h-148v-311zM369 0h-211v471h-117v133h117v506h211q234 0 345 -121.5t111 -357.5v-172q0 -230 -110 -344.5t-346 -114.5z" />
    <glyph glyph-name="Ntildesmall" unicode="&#xf7f1;" horiz-adv-x="937" 
d="M805 0h-143l-365 729h-4v-729h-180v1110h180l323 -635h5v635h184v-1110zM631 1513h80q-1 -36 -5 -64.5t-14 -57.5t-26 -48t-42.5 -31t-62.5 -12q-51 0 -115 33t-94 33q-48 0 -61 -78h-80q11 213 149 213q53 0 127.5 -32.5t92.5 -32.5q24 0 35 18.5t16 58.5z" />
    <glyph glyph-name="Ogravesmall" unicode="&#xf7f2;" horiz-adv-x="921" 
d="M809 739v-385q0 -366 -348 -366t-348 366v385q0 175 85.5 279t262.5 104t262.5 -104t85.5 -279zM614 346v399q0 218 -153 218q-154 0 -154 -218v-399q0 -98 40.5 -148.5t113.5 -50.5t113 50.5t40 148.5zM537 1255h-134l-151 256h184z" />
    <glyph glyph-name="Oacutesmall" unicode="&#xf7f3;" horiz-adv-x="921" 
d="M809 739v-385q0 -366 -348 -366t-348 366v385q0 175 85.5 279t262.5 104t262.5 -104t85.5 -279zM614 346v399q0 218 -153 218q-154 0 -154 -218v-399q0 -98 40.5 -148.5t113.5 -50.5t113 50.5t40 148.5zM532 1255h-135l103 256h184z" />
    <glyph glyph-name="Ocircumflexsmall" unicode="&#xf7f4;" horiz-adv-x="921" 
d="M809 739v-385q0 -366 -348 -366t-348 366v385q0 175 85.5 279t262.5 104t262.5 -104t85.5 -279zM614 346v399q0 218 -153 218q-154 0 -154 -218v-399q0 -98 40.5 -148.5t113.5 -50.5t113 50.5t40 148.5zM725 1266l-260 112l-260 -112v145l256 111h8l256 -111v-145z" />
    <glyph glyph-name="Otildesmall" unicode="&#xf7f5;" horiz-adv-x="921" 
d="M809 739v-385q0 -366 -348 -366t-348 366v385q0 175 85.5 279t262.5 104t262.5 -104t85.5 -279zM614 346v399q0 218 -153 218q-154 0 -154 -218v-399q0 -98 40.5 -148.5t113.5 -50.5t113 50.5t40 148.5zM635 1513h80q-1 -36 -5 -64.5t-14 -57.5t-26 -48t-42.5 -31
t-62.5 -12q-51 0 -115 33t-94 33q-48 0 -61 -78h-80q11 213 150 213q53 0 127 -32.5t92 -32.5q24 0 35 18.5t16 58.5z" />
    <glyph glyph-name="Odieresissmall" unicode="&#xf7f6;" horiz-adv-x="921" 
d="M809 739v-385q0 -366 -348 -366t-348 366v385q0 175 85.5 279t262.5 104t262.5 -104t85.5 -279zM614 346v399q0 218 -153 218q-154 0 -154 -218v-399q0 -98 40.5 -148.5t113.5 -50.5t113 50.5t40 148.5zM295 1253q-38 0 -65 27.5t-27 65.5t27 65t65 27t65 -27t27 -65
t-27 -65.5t-65 -27.5zM631 1253q-38 0 -65 27.5t-27 65.5t27 65t65 27t65 -27t27 -65t-27 -65.5t-65 -27.5z" />
    <glyph glyph-name="Oslashsmall" unicode="&#xf7f8;" horiz-adv-x="921" 
d="M215 -70h-86l66 152q-82 91 -82 272v379q0 82 17.5 149t56 122.5t108.5 86.5t166 31t168 -32l49 114h90l-70 -160q111 -103 111 -311v-379q0 -178 -83 -272t-265 -94q-127 0 -203 43zM614 342v408q0 35 -8 81l-268 -618q43 -66 123 -66q67 0 110 50t43 145zM307 344
l252 584q-41 35 -98 35q-154 0 -154 -213v-406z" />
    <glyph glyph-name="Ugravesmall" unicode="&#xf7f9;" horiz-adv-x="921" 
d="M614 319v791h195v-756q0 -56 -9 -104.5t-33 -98t-62 -84.5t-100.5 -57t-143.5 -22t-143.5 22t-100.5 57t-62 84.5t-33 98t-9 104.5v756h194v-791q0 -79 38.5 -125.5t115.5 -46.5q76 0 114.5 46.5t38.5 125.5zM526 1255h-133l-151 256h184z" />
    <glyph glyph-name="Uacutesmall" unicode="&#xf7fa;" horiz-adv-x="921" 
d="M614 319v791h195v-756q0 -56 -9 -104.5t-33 -98t-62 -84.5t-100.5 -57t-143.5 -22t-143.5 22t-100.5 57t-62 84.5t-33 98t-9 104.5v756h194v-791q0 -79 38.5 -125.5t115.5 -46.5q76 0 114.5 46.5t38.5 125.5zM502 1255h-135l102 256h184z" />
    <glyph glyph-name="Ucircumflexsmall" unicode="&#xf7fb;" horiz-adv-x="921" 
d="M614 319v791h195v-756q0 -56 -9 -104.5t-33 -98t-62 -84.5t-100.5 -57t-143.5 -22t-143.5 22t-100.5 57t-62 84.5t-33 98t-9 104.5v756h194v-791q0 -79 38.5 -125.5t115.5 -46.5q76 0 114.5 46.5t38.5 125.5zM725 1266l-260 112l-260 -112v145l256 111h8l256 -111v-145z
" />
    <glyph glyph-name="Udieresissmall" unicode="&#xf7fc;" horiz-adv-x="921" 
d="M614 319v791h195v-756q0 -56 -9 -104.5t-33 -98t-62 -84.5t-100.5 -57t-143.5 -22t-143.5 22t-100.5 57t-62 84.5t-33 98t-9 104.5v756h194v-791q0 -79 38.5 -125.5t115.5 -46.5q76 0 114.5 46.5t38.5 125.5zM295 1251q-38 0 -65 27t-27 65t27 65.5t65 27.5t65 -27.5
t27 -65.5t-27 -65t-65 -27zM631 1251q-38 0 -65 27t-27 65t27 65.5t65 27.5t65 -27.5t27 -65.5t-27 -65t-65 -27z" />
    <glyph glyph-name="Yacutesmall" unicode="&#xf7fd;" horiz-adv-x="854" 
d="M528 0h-194v401l-217 512q-13 39 -26 55.5t-38 16.5q-13 0 -26 -5t-15 -9h-4q0 73 39 111t103 38q58 0 88.5 -34.5t64.5 -129.5l125 -346h4l180 500h181l-265 -709v-401zM496 1255h-136l103 256h184z" />
    <glyph glyph-name="Thornsmall" unicode="&#xf7fe;" horiz-adv-x="878" 
d="M322 0h-205v1110h205v-145h28q477 0 477 -377q0 -84 -28.5 -149.5t-78 -104.5t-111 -58.5t-132.5 -19.5q-74 0 -137 29v8q51 11 89 24t76.5 36t63 53t39.5 76.5t15 105.5q0 109 -73.5 163t-205.5 54h-22v-805z" />
    <glyph glyph-name="Ydieresissmall" unicode="&#xf7ff;" horiz-adv-x="854" 
d="M528 0h-194v401l-217 512q-13 39 -26 55.5t-38 16.5q-13 0 -26 -5t-15 -9h-4q0 73 39 111t103 38q58 0 88.5 -34.5t64.5 -129.5l125 -346h4l180 500h181l-265 -709v-401zM264 1253q-38 0 -65 27.5t-27 65.5t27 65t65 27t65 -27t27 -65t-27 -65.5t-65 -27.5zM600 1253
q-38 0 -65 27.5t-27 65.5t27 65t65 27t65 -27t27 -65t-27 -65.5t-65 -27.5z" />
    <glyph glyph-name="apple" unicode="&#xf8ff;" horiz-adv-x="2050" 
d="M1915 231l-653 -360q-30 -6 -41 -6h-396q-4 0 -34 6l-648 358q-28 6 -28 45v0v0v0v0v0v0v0v0v0v0v0v0v0v0v0v0v0v0v0v0v0v0v0v0v0v0v0v0v0v0v0v0v0v0v0v0v0v0v0v0v0v0v0v0v0v0v1v0v0v0v0v0v0v0v0v0v0v0v0v0v0v0v0v0v0v1v0v0v0v0v0v0v0v0v0v0v0v1v0v0v0v0v0v0v0v0v1v0v0v0
v0v0v0v0v1v0v0v0v0v0v0v1v0v0v0v0v0v1v0v0v0v0v0v1v0v0v0v0v1v0v0v0v0v1v0v0v0v0v1v0v0v0v1v0v0v0v1v0v0v0v1v0v0v0v1v0v0v0v1v0v0v1v0v0v0v1v0v0v1v0v0v1v0v0v1v0v0v1v0v0v1v0v0v1v0v0v1v0v0v1v0v0v1v0v0v1v0v1v0v0v1v0v0v1v0v0v1v0v1v0v0v1v0v1v0v1v0v0v1v0v1v0v1v0v1v0v1
v0v1v0v1v0v1v0v1v0v1v0v1v0v1v0v1v0v1v0v1v0v1v0v1v0v1v0v1v0v1v0v1v0v1v0v1v0v1v0v1v0v1v0v1v0v1v0v1v0v1v0v1v0v1v0v1v0v1v0v1v0v1v0v1v0v1v0v1v0v1v0v1v0v1v1v0v1v0v1v0v1v0v1v1v0v1v0v1v0v1v1v0v1v0v1v1v0v1v0v1v1v0v1v0v1v1v0v1v1v0v1v1v0v1v1v0v1v1v0v1v1v0v1v1v0v1v1
v1v0v1v1v0v1v1v1v0v1v1v1v0v1v1v1v1v0v1v1v1v0v1v1v1v1v1v0v1v1v1v1v1v0v1v1v1v1v1v1v0v1v1v1v1v1v1v1v1v1v1v0v1v1v1v1v1v1v1v1v1v1v1v1v1v1v1v1v1v1v1v1v1v1v1v1v1v1v1v1v1v1v1v1v1v1v1v1v1v1v1v1v1v1v1v1v1v1v1v1v1v1v1v1v1v1v1v1v1v1v1v1v1v1v1v1v1v1v1v1v1v1v1v1v1v1v1
v1v1v1v1v1v1v1v1v1v1v1v1v1v1v1v1v1v1v1v1v1v1v1v1v1v1v1v1v1v1v1v1v1v1v1v1v1v1v1v1v1v1v1v1v1v1v1v1v1v1v1v1v1v1v1v1v1v1v1v1v1v1v1v1v1v1v1v1v1v1v1v1v1v1v1v1v1v1v1v1v1v1v1v1v1v1v1v1v1v1v1v1v1v1v1v1v1v1v1v1v1v1v1v1v1v1v1v1v1v1v1v1v1v1v1v1v1v1v1v1v1v1v1v1v1v1v1
v1v1v1v1v1v1v1v1v1v1v1v1v1v1v1v1v1v1v1v1v1v1v1v1v1v1v1v1v1v1v1v1v1v1v1v1v1v1v1v1v1v1v1v1v1v1v1v1v1v1v1v1v1v1v1v1v1v1v1v1v1v1v1v1v1v1v1v1v1v1v1v1v1v1v1v1v1v1v1v1v1v1v1v1v1v1v1v1v1v1v1v1v1v1v1v1v1v1v1v1v1v1v1v1v1v1v1v1v1v1v1v1v1v1v1v1v1v1v1v1v1v1v1v1v1v1v1
v1v1v1v1v1v1v1v1v1v1v1v1v1v1v1v1v1v1v1v1v1v1v1v1v1v1v1v1v1v1v1v1v1v1v1v1v1v1v1v1v1v1v1v1v1v1v1v1v1v1v1v1v1v1v1v1v1v1v1v1v1v1v1v1v1v1v1v1v1v1v1v1v1v1v1v1v1v1v1v1v1v1v1v1v1v1v1v1v1v1v1v1v1v1v1v1v1v1v1v1v1v1v1v1v1v1v1v1v1v1v1v1v1v1v1v1v1v1v1v1v1v1v1v1v1v1v1
v1v1v1v1v1v1v1v1v1v1v1v1v1v1v1v1v1v1v1v1v1v1v1v1v1v1v1v1v1v1v1v1v1v1v1v1v1v1v1v1v1v1v1v1v1v1v1v1v1v1v1v1v1v1v1v1v1v1v1v1v1v1v1v1v1v1v1v1v1v1v1v1v1v1v1v1v1v1v1v1v1v1v1v1v1v1v1v1v1v1v1v1v1v1v1v1v1v1v1v1v1v1v1v1v1v1v1v1v1v1v1v1v1v1v1v1v1v1v1v1v1v1v1v1v1v1v1
v1v1v1v1v1v1v1v1v1v1v1v1v1v1v1v1v1v1v1v1v1v1v1v1v1v1v1v1v1v1v1v1v1v1v1v1v1v1v1v1v1v1v1v1v1v1v1v1v1v1v1v1v1v1v1v1v1v1v1v1v1v1v1v1v1v1v1v1v1v1v1v1v1v1v1v1v1v1v1v1v1v1v1v1v1v1v1v1v1v1v1v1v1v1v1v1v1v1v1v1v1v1v1v1v1v1v1v1v1v1v1v1v1v1v1v1v1v1v1v1v1v1v1v1v1v1v1
v1v1v1v1v1v1v1v1v1v1v1v1v1v1v1v1v1v1v1v1v1v1v1v1v1v1v1v1v1v1v1v1v1v1v1v1v1v1v1v1v1v1v1v1v1v1v1v1v1v1v1v1v1v1v1v1v1v1v1v1v1v1v1v1v1v1v1v1v1v1v1v1v1v1v10q0 4 0.5 7.5t1 6t2 5.5l2 4t3.5 3.5t3.5 3t4.5 3t5 3.5l957 474q16 4 24 4q11 0 19 -4l702 -355
q21 -11 43 -28l51 -105q2 -10 2 -22v-959q0 -25 -20 -31zM1853 1241l-38 78l-697 350l-897 -448l602 -326h406l160 88v119q0 14 9 24.5t21 10.5h250zM1866 281v888l-596 -331v-371l295 162v207q0 10 9 17t23 7q17 0 28 -6.5t11 -17.5v-226q0 -22 -18 -35l-348 -178v-168
l317 168q8 2 17 2q32 0 32 -32q0 -7 -6 -16.5t-12 -12.5l-346 -180q-3 -1 -10 -5.5t-14 -7t-13 -2.5q-27 0 -27 35v0v0v0v0v0v0v0v0v0v0v0v0v0v0v0v0v0v0v0v0v0v0v0v0v0v0v0v0v0v0v0v0v0v0v0v0v0v0v0v0v0v0v0v0v0v0v0v0v0v0v0v0v0v0v0v0v0v0v0v0v0v0v0v0v1v0v0v0v0v0v0v0v0
v0v1v0v0v0v0v0v0v0v1v0v0v0v0v0v0v1v0v0v0v0v0v1v0v0v0v0v1v0v0v0v0v1v0v0v0v1v0v0v0v1v0v0v0v1v0v0v1v0v0v0v1v0v0v1v0v0v1v0v0v1v0v0v1v0v0v1v0v0v1v0v0v1v0v1v0v0v1v0v0v1v0v1v0v1v0v1v0v0v1v0v1v0v1v0v1v0v1v0v1v0v1v0v1v0v1v0v1v0v1v0v1v0v1v0v1v0v1v0v1v0v1v0v1v0v1v0
v1v0v1v0v1v0v1v0v1v0v1v0v1v0v1v0v1v0v1v0v1v1v0v1v0v1v0v1v1v0v1v0v1v1v0v1v1v0v1v0v1v1v0v1v1v0v1v1v1v0v1v1v0v1v1v1v0v1v1v1v0v1v1v1v0v1v1v1v1v0v1v1v1v1v1v1v0v1v1v1v1v1v1v1v1v1v0v1v1v1v1v1v1v1v1v1v1v1v1v1v1v1v1v1v1v1v1v1v1v1v1v1v1v1v1v1v1v1v1v1v1v1v1v1v1v1v1
v1v1v1v1v1v1v1v1v1v1v1v1v1v1v1v1v1v1v1v1v1v1v1v1v1v1v1v1v1v1v1v1v1v1v1v1v1v1v1v1v1v1v1v1v1v1v1v1v1v1v1v1v1v1v1v1v1v1v1v1v1v1v1v1v1v1v1v1v1v1v1v1v1v1v1v1v1v1v1v1v1v1v1v1v1v1v1v1v1v1v1v1v1v1v1v1v1v1v1v1v1v1v1v1v1v1v1v1v1v1v1v1v1v1v1v1v1v1v1v1v1v1v1v1v1v1v1
v1v1v1v1v1v1v1v1v1v1v1v1v1v1v1v1v1v1v1v1v1v1v1v1v1v1v1v1v1v1v1v1v1v1v1v1v1v1v1v1v1v1v1v1v1v1v1v1v1v1v1v1v1v1v1v1v1v1v1v1v1v1v1v1v1v1v1v1v1v1v1v1v1v1v1v1v1v1v1v1v1v1v1v1v1v1v1v1v1v1v1v1v1v1v1v1v1v1v1v1v1v1v1v1v1v1v1v1v1v1v1v1v1v1v1v1v1v1v1v1v1v1v1v1v1v1v1
v1v1v1v1v1v1v1v1v1v1v1v1v1v1v1v1v1v1v1v1v1v1v1v1v1v1v1v1v1v1v1v1v1v1v1v1v1v1v1v1v1v1v1v1v1v1v1v1v1v1v1v1v1v1v1v1v1v1v1v1v1v1v1v1v1v1v1v1v1v1v1v1v1v1v1v1v1v1v1v1v1v1v1v1v1v1v1v1v1v1v1v1v1v1v1v1v1v1v1v1v1v1v1v1v1v1v1v1v1v1v1v1v1v1v1v1v1v1v1v1v1v1v1v1v1v1v1
v1v1v1v1v1v1v1v1v1v1v1v1v1v1v1v1v1v1v1v1v1v1v1v1v1v1v1v1v1v1v1v1v1v1v1v1v1v1v1v1v1v1v1v1v1v1v1v1v1v1v1v1v1v1v1v1v1v1v1v1v1v1v1v1v1v1v1v1v1v1v1v1v1v1v1v1v1v1v1v1v1v1v1v1v1v1v1v1v1v1v1v1v1v1v1v1v1v1v1v1v1v1v1v1v1v1v1v1v1v1v1v10h-379q-7 0 -45 15l-596 331
v-450l287 -162q12 -9 12 -31v-227q0 -14 -7.5 -24.5t-20.5 -10.5q-15 0 -25 10.5t-10 24.5v211l-236 133v-362l594 -324v602q-14 12 -114.5 71.5t-194.5 113.5l-94 53q-19 5 -19 22q0 39 33 39q12 0 21 -6l415 -240q15 -10 15 -26v-656h385zM1044 1133q0 -16 -29 -37
t-46 -21q-20 0 -103.5 50.5t-83.5 62.5q0 17 31 37t55 20q23 0 99.5 -45.5t76.5 -66.5zM1407 1317q0 -14 -31.5 -35.5t-46.5 -21.5q-20 0 -104 49t-84 61q0 18 30 37.5t56 19.5q24 0 102 -43.5t78 -66.5z" />
    <glyph glyph-name="longs_t" unicode="&#xfb05;" horiz-adv-x="1126" 
d="M1092 180l4 -2q0 -76 -48.5 -127t-156.5 -51q-113 0 -172.5 69.5t-59.5 192.5v631h-116v135h116v166q0 67 -33.5 111.5t-99.5 44.5q-86 0 -126 -55.5t-40 -180.5v-1114h-192v893h-137v135h137v96q0 161 95 258t261 97q160 0 244 -79t84 -206v-166h221v-135h-221v-617
q0 -79 25.5 -110t80.5 -31q79 0 134 45z" />
    <glyph glyph-name="s_t" unicode="&#xfb06;" horiz-adv-x="1333" 
d="M1303 182v-4q0 -76 -48.5 -127t-156.5 -51q-113 0 -172.5 69.5t-59.5 192.5v631h-116v135h116v248q-120 63 -241 63q-94 0 -147.5 -42t-53.5 -109q0 -41 13 -71.5t34 -50.5t46.5 -37t51 -36.5t46.5 -44t34 -64t13 -91.5v-86h-173v67q0 66 -23 98.5t-85 32.5
q-53 0 -83 -25.5t-30 -74.5q0 -40 23 -75t59.5 -63t81 -56t89 -60t81 -68t59.5 -87t23 -111q0 -135 -77.5 -216t-233.5 -81q-147 0 -226 68t-79 175q0 54 22 93t54 56.5t63.5 27t53.5 10.5h22h8q-6 -7 -15 -20t-23.5 -52.5t-14.5 -77.5q0 -61 36 -93t103 -32q57 0 89 31
t32 84q0 48 -22.5 88.5t-59 70t-80 57.5t-87 58.5t-80 65.5t-59 85.5t-22.5 111.5q0 108 75 175.5t212 67.5v2q-123 78 -123 195q0 114 84.5 179t228.5 65q72 0 151.5 -25.5t148 -50.5t112.5 -25q23 0 39 6t21 12l5 7h17v-375h221v-135h-221v-614q0 -73 29 -108.5t79 -35.5
q63 0 136 47z" />
    <glyph glyph-name="undercommaaccent" horiz-adv-x="716" 
d="M184 -500v11q103 60 103 249v125h164v-82q0 -140 -65.5 -221.5t-201.5 -81.5z" />
    <glyph glyph-name="Breve" horiz-adv-x="716" 
d="M475 1751h143q0 -114 -70 -170.5t-190 -56.5t-190 56.5t-70 170.5h144q3 -104 116 -104q114 0 117 104z" />
    <glyph glyph-name="Cedilla" horiz-adv-x="716" 
d="M266 -322v5q101 0 101 88q0 80 -91 127l37 118h131l-38 -102q38 -19 66 -62.5t28 -97.5q0 -74 -44 -119t-102 -45q-41 0 -64.5 25t-23.5 63z" />
    <glyph glyph-name="Circumflex" horiz-adv-x="716" 
d="M618 1546l-260 113l-260 -113v146l256 110h8l256 -110v-146z" />
    <glyph glyph-name="commaaccent.cap" horiz-adv-x="716" 
d="M184 -500v11q103 60 103 249v125h164v-82q0 -140 -65.5 -221.5t-201.5 -81.5z" />
    <glyph glyph-name="Dotaccent" horiz-adv-x="716" 
d="M358 1503q-43 0 -72.5 30t-29.5 73t29.5 72.5t72.5 29.5t73 -29.5t30 -72.5t-30 -73t-73 -30z" />
    <glyph glyph-name="Ogonek" horiz-adv-x="716" 
d="M504 -287l6 -4q0 -53 -31.5 -79.5t-81.5 -26.5q-137 0 -137 147q0 67 41.5 134.5t101.5 115.5h95q-95 -140 -95 -238q0 -65 48 -65q27 0 53 16z" />
    <glyph glyph-name="Ring" horiz-adv-x="716" 
d="M358 1511q-76 0 -130 54t-54 131q0 76 54 130t130 54q77 0 131 -54t54 -130t-54.5 -130.5t-130.5 -54.5zM449 1696q0 37 -27 63.5t-64 26.5t-63.5 -26.5t-26.5 -63.5t26.5 -63.5t63.5 -26.5t64 26.5t27 63.5z" />
    <glyph glyph-name="Tilde" horiz-adv-x="716" 
d="M528 1817h80q-2 -46 -8 -80t-21.5 -66.5t-45.5 -49.5t-74 -17q-51 0 -115 32.5t-94 32.5q-49 0 -62 -78h-79q11 213 149 213q53 0 127 -32.5t92 -32.5q24 0 35 19t16 59z" />
    <glyph glyph-name="commaaccent.small" horiz-adv-x="716" 
d="M184 -500v11q103 60 103 249v125h164v-82q0 -140 -65.5 -221.5t-201.5 -81.5z" />
    <glyph glyph-name="DieresisAcute.small" horiz-adv-x="716" 
d="M115 1335q-38 0 -65 27t-27 65t27 65.5t65 27.5t65 -27.5t27 -65.5t-27 -65t-65 -27zM614 1335q-38 0 -65 27t-27 65t27 65.5t65 27.5t65.5 -27.5t27.5 -65.5t-27.5 -65t-65.5 -27zM379 1337h-123l80 256h184z" />
    <glyph glyph-name="DieresisGrave.small" horiz-adv-x="716" 
d="M614 1335q-38 0 -65 27t-27 65t27 65.5t65 27.5t65.5 -27.5t27.5 -65.5t-27.5 -65t-65.5 -27zM115 1335q-38 0 -65 27t-27 65t27 65.5t65 27.5t65 -27.5t27 -65.5t-27 -65t-65 -27zM473 1337h-123l-141 256h184z" />
    <glyph glyph-name="dblGrave.small" horiz-adv-x="716" 
d="M553 1337h-123l-100 256h174zM305 1337h-123l-131 256h174z" />
    <glyph glyph-name="K.alt" horiz-adv-x="915" 
d="M829 -309h7q15 -7 24.5 -28t9.5 -42q0 -53 -39.5 -88t-107.5 -35q-77 0 -130.5 54.5t-53.5 173.5v710q0 283 -213 283h-4v-719h-205v1438h205v-654h4l323 654h205l-344 -674q114 0 167.5 -70.5t53.5 -195.5v-758q0 -51 11 -71.5t40 -20.5q19 0 31.5 13t15.5 30z" />
    <glyph glyph-name="Kcommaaccent.alt" horiz-adv-x="915" 
d="M829 -309h7q15 -7 24.5 -28t9.5 -42q0 -53 -39.5 -88t-107.5 -35q-77 0 -130.5 54.5t-53.5 173.5v710q0 283 -213 283h-4v-719h-205v1438h205v-654h4l323 654h205l-344 -674q114 0 167.5 -70.5t53.5 -195.5v-758q0 -51 11 -71.5t40 -20.5q19 0 31.5 13t15.5 30zM45 -500
v11q102 60 102 249v125h164v-82q0 -140 -65 -221.5t-201 -81.5z" />
    <glyph glyph-name="Q.alt" horiz-adv-x="921" 
d="M1038 -168h11q35 -10 56 -45.5t21 -75.5q0 -74 -53 -117t-151 -43q-67 0 -120 31.5t-83.5 67t-59.5 114.5t-39 119.5t-30 137.5q-1 5 -2 8q-80 -41 -178 -41q-78 0 -137 22t-92.5 60t-49.5 84t-16 100q0 109 72.5 179.5t195.5 70.5q124 0 213 -96q4 41 4 143v440
q0 153 -34 220t-115 67q-84 0 -120 -65.5t-36 -221.5q0 -146 46 -213.5t134 -72.5l2 -11q-37 -108 -151 -108q-105 0 -168.5 95t-63.5 296q0 240 90 352.5t267 112.5q100 0 169.5 -30t109.5 -89.5t57.5 -138.5t17.5 -187v-434q0 -256 -86 -403q11 -35 24.5 -86.5t22.5 -87
t22 -78t26.5 -70.5t31 -53t39.5 -37t49 -12q37 0 67 24t37 72zM543 209q-49 151 -144 151q-50 0 -73 -29t-23 -77q0 -49 26 -81t83 -32q89 0 131 68z" />
    <glyph glyph-name="R.alt" horiz-adv-x="878" 
d="M322 791h22q94 0 154.5 60t60.5 189q0 119 -51 172.5t-150 53.5h-36v-475zM821 -319h6q15 -7 25 -28t10 -42q0 -113 -147 -113q-82 0 -133.5 55t-51.5 183v692q0 131 -42 175t-150 44h-16v-647h-205v1438h233q215 0 314.5 -94t99.5 -295q0 -78 -22.5 -138.5t-62 -97
t-86.5 -57.5t-104 -29v-4q234 0 234 -274v-719q0 -51 11 -71.5t40 -20.5q19 0 31.5 13t15.5 30z" />
    <glyph glyph-name="Racute.alt" horiz-adv-x="878" 
d="M322 791h22q94 0 154.5 60t60.5 189q0 119 -51 172.5t-150 53.5h-36v-475zM821 -319h6q15 -7 25 -28t10 -42q0 -113 -147 -113q-82 0 -133.5 55t-51.5 183v692q0 131 -42 175t-150 44h-16v-647h-205v1438h233q215 0 314.5 -94t99.5 -295q0 -78 -22.5 -138.5t-62 -97
t-86.5 -57.5t-104 -29v-4q234 0 234 -274v-719q0 -51 11 -71.5t40 -20.5q19 0 31.5 13t15.5 30zM494 1536h-136l103 256h184z" />
    <glyph glyph-name="Rcaron.alt" horiz-adv-x="878" 
d="M322 791h22q94 0 154.5 60t60.5 189q0 119 -51 172.5t-150 53.5h-36v-475zM821 -319h6q15 -7 25 -28t10 -42q0 -113 -147 -113q-82 0 -133.5 55t-51.5 183v692q0 131 -42 175t-150 44h-16v-647h-205v1438h233q215 0 314.5 -94t99.5 -295q0 -78 -22.5 -138.5t-62 -97
t-86.5 -57.5t-104 -29v-4q234 0 234 -274v-719q0 -51 11 -71.5t40 -20.5q19 0 31.5 13t15.5 30zM641 1636l-256 -110h-8l-256 110v146l260 -113l260 113v-146z" />
    <glyph glyph-name="Rcommaaccent.alt" horiz-adv-x="878" 
d="M322 791h22q94 0 154.5 60t60.5 189q0 119 -51 172.5t-150 53.5h-36v-475zM821 -319h6q15 -7 25 -28t10 -42q0 -113 -147 -113q-82 0 -133.5 55t-51.5 183v692q0 131 -42 175t-150 44h-16v-647h-205v1438h233q215 0 314.5 -94t99.5 -295q0 -78 -22.5 -138.5t-62 -97
t-86.5 -57.5t-104 -29v-4q234 0 234 -274v-719q0 -51 11 -71.5t40 -20.5q19 0 31.5 13t15.5 30zM57 -500v11q103 60 103 249v125h164v-82q0 -140 -65.5 -221.5t-201.5 -81.5z" />
    <glyph glyph-name="Abreve.small" horiz-adv-x="897" 
d="M829 0h-194l-49 233h-275l-49 -233h-194l272 1110h217zM555 385l-104 504h-5l-104 -504h213zM567 1485h144q0 -114 -70.5 -171t-189.5 -57q-120 0 -190.5 57t-70.5 171h144q1 -52 31.5 -78.5t85.5 -26.5q113 0 116 105z" />
    <glyph glyph-name="Amacron.small" horiz-adv-x="897" 
d="M829 0h-194l-49 233h-275l-49 -233h-194l272 1110h217zM555 385l-104 504h-5l-104 -504h213zM700 1286h-499v133h499v-133z" />
    <glyph glyph-name="Aogonek.small" horiz-adv-x="897" 
d="M555 385l-104 504h-5l-104 -504h213zM819 -287l6 -4q0 -53 -31 -79.5t-81 -26.5q-69 0 -103.5 38t-34.5 109q0 147 146 250q-44 0 -71.5 25t-35.5 67l-28 141h-275l-49 -233h-194l272 1110h217l272 -1110q-110 -87 -110 -238q0 -65 47 -65q27 0 53 16z" />
    <glyph glyph-name="AEacute.small" horiz-adv-x="1255" 
d="M1096 285h8q40 -6 62 -35.5t22 -73.5q0 -78 -69.5 -133t-203.5 -55q-132 0 -200.5 71.5t-87.5 214.5h-273l-86 -274h-200l383 1110h710v-172h-430l33 -279h377v-151h-359l25 -209q9 -77 36.5 -107t82.5 -30q130 0 170 123zM610 426l-49 487h-4l-154 -487h207zM762 1255
h-135l102 256h184z" />
    <glyph glyph-name="Cacute.small" horiz-adv-x="782" 
d="M604 305h8q42 -15 66 -47t24 -74q0 -77 -76 -136.5t-210 -59.5q-154 0 -238 82t-84 237v426q0 68 7.5 120.5t28.5 105t57 87t96 55.5t141 21q148 0 220.5 -70t72.5 -198v-147h-182v102q0 154 -119 154q-76 0 -101.5 -56.5t-25.5 -197.5v-400q0 -71 36.5 -109t106.5 -38
q64 0 109.5 45.5t62.5 97.5zM504 1255h-135l102 256h184z" />
    <glyph glyph-name="Ccaron.small" horiz-adv-x="782" 
d="M604 305h8q42 -15 66 -47t24 -74q0 -77 -76 -136.5t-210 -59.5q-154 0 -238 82t-84 237v426q0 68 7.5 120.5t28.5 105t57 87t96 55.5t141 21q148 0 220.5 -70t72.5 -198v-147h-182v102q0 154 -119 154q-76 0 -101.5 -56.5t-25.5 -197.5v-400q0 -71 36.5 -109t106.5 -38
q64 0 109.5 45.5t62.5 97.5zM678 1356l-256 -111h-8l-256 111v145l260 -112l260 112v-145z" />
    <glyph glyph-name="Ccircumflex.small" horiz-adv-x="782" 
d="M604 305h8q42 -15 66 -47t24 -74q0 -77 -76 -136.5t-210 -59.5q-154 0 -238 82t-84 237v426q0 68 7.5 120.5t28.5 105t57 87t96 55.5t141 21q148 0 220.5 -70t72.5 -198v-147h-182v102q0 154 -119 154q-76 0 -101.5 -56.5t-25.5 -197.5v-400q0 -71 36.5 -109t106.5 -38
q64 0 109.5 45.5t62.5 97.5zM672 1266l-260 112l-260 -112v145l256 111h8l256 -111v-145z" />
    <glyph glyph-name="Cdotaccent.small" horiz-adv-x="782" 
d="M604 305h8q42 -15 66 -47t24 -74q0 -77 -76 -136.5t-210 -59.5q-154 0 -238 82t-84 237v426q0 68 7.5 120.5t28.5 105t57 87t96 55.5t141 21q148 0 220.5 -70t72.5 -198v-147h-182v102q0 154 -119 154q-76 0 -101.5 -56.5t-25.5 -197.5v-400q0 -71 36.5 -109t106.5 -38
q64 0 109.5 45.5t62.5 97.5zM418 1253q-43 0 -73 30t-30 73t30 72.5t73 29.5t72.5 -29.5t29.5 -72.5t-29.5 -73t-72.5 -30z" />
    <glyph glyph-name="Dcaron.small" horiz-adv-x="894" 
d="M328 0h-211v1110h211q230 0 343 -114t113 -345v-192q0 -234 -112.5 -346.5t-343.5 -112.5zM311 160h15q135 0 199.5 64.5t64.5 219.5v222q0 155 -64.5 219.5t-199.5 64.5h-15v-790zM647 1356l-256 -111h-8l-256 111v145l260 -112l260 112v-145z" />
    <glyph glyph-name="Dcroat.small" horiz-adv-x="894" 
d="M328 0h-211v461h-99v133h99v516h211q230 0 343 -114t113 -345v-192q0 -234 -112.5 -346.5t-343.5 -112.5zM311 160h15q135 0 199.5 64.5t64.5 219.5v222q0 155 -64.5 219.5t-199.5 64.5h-15v-356h187v-133h-187v-301z" />
    <glyph glyph-name="Ebreve.small" horiz-adv-x="724" 
d="M567 285h8q40 -6 62 -35.5t22 -73.5q0 -81 -58 -134.5t-189 -53.5q-142 0 -218.5 78t-76.5 231v813h536v-172h-342v-279h322v-151h-322v-209q0 -137 111 -137q67 0 95.5 30t49.5 93zM498 1485h143q0 -114 -70.5 -171t-189.5 -57t-189.5 57t-70.5 171h143
q1 -52 31.5 -78.5t85.5 -26.5t85.5 26.5t31.5 78.5z" />
    <glyph glyph-name="Ecaron.small" horiz-adv-x="724" 
d="M567 285h8q40 -6 62 -35.5t22 -73.5q0 -81 -58 -134.5t-189 -53.5q-142 0 -218.5 78t-76.5 231v813h536v-172h-342v-279h322v-151h-322v-209q0 -137 111 -137q67 0 95.5 30t49.5 93zM637 1356l-256 -111h-8l-256 111v145l260 -112l260 112v-145z" />
    <glyph glyph-name="Edotaccent.small" horiz-adv-x="724" 
d="M567 285h8q40 -6 62 -35.5t22 -73.5q0 -81 -58 -134.5t-189 -53.5q-142 0 -218.5 78t-76.5 231v813h536v-172h-342v-279h322v-151h-322v-209q0 -137 111 -137q67 0 95.5 30t49.5 93zM399 1253q-43 0 -72.5 30t-29.5 73t29.5 72.5t72.5 29.5t73 -29.5t30 -72.5t-30 -73
t-73 -30z" />
    <glyph glyph-name="Emacron.small" horiz-adv-x="724" 
d="M567 285h8q40 -6 62 -35.5t22 -73.5q0 -81 -58 -134.5t-189 -53.5q-142 0 -218.5 78t-76.5 231v813h536v-172h-342v-279h322v-151h-322v-209q0 -137 111 -137q67 0 95.5 30t49.5 93zM621 1286h-500v133h500v-133z" />
    <glyph glyph-name="Eogonek.small" horiz-adv-x="724" 
d="M489 -287l7 -4q0 -53 -31.5 -79.5t-81.5 -26.5q-137 0 -137 147q0 64 37 128t92 112q-125 9 -191.5 86t-66.5 221v813h536v-172h-342v-279h322v-151h-322v-209q0 -137 111 -137q67 0 95.5 30t49.5 93h8q40 -6 62 -35.5t22 -73.5q0 -70 -42.5 -120.5t-139.5 -63.5
q-88 -129 -88 -230q0 -65 47 -65q27 0 53 16z" />
    <glyph glyph-name="Gbreve.small" horiz-adv-x="894" 
d="M778 0h-59q-52 9 -86 41t-43 86h-6q-15 -61 -66 -100t-139 -39q-129 0 -195.5 91.5t-66.5 264.5v389q0 389 338 389q165 0 244 -66.5t79 -207.5v-129h-194v102q0 142 -131 142q-142 0 -142 -224v-407q0 -91 35.5 -138t95.5 -47q68 0 105 35.5t37 93.5v166h-135v152h329
v-594zM578 1485h143q0 -114 -70.5 -171t-189.5 -57t-189.5 57t-70.5 171h143q1 -52 31.5 -78.5t85.5 -26.5t85.5 26.5t31.5 78.5z" />
    <glyph glyph-name="Gcircumflex.small" horiz-adv-x="894" 
d="M778 0h-59q-52 9 -86 41t-43 86h-6q-15 -61 -66 -100t-139 -39q-129 0 -195.5 91.5t-66.5 264.5v389q0 389 338 389q165 0 244 -66.5t79 -207.5v-129h-194v102q0 142 -131 142q-142 0 -142 -224v-407q0 -91 35.5 -138t95.5 -47q68 0 105 35.5t37 93.5v166h-135v152h329
v-594zM713 1266l-260 112l-260 -112v145l256 111h8l256 -111v-145z" />
    <glyph glyph-name="Gcommaaccent.small" horiz-adv-x="894" 
d="M778 0h-59q-52 9 -86 41t-43 86h-6q-15 -61 -66 -100t-139 -39q-129 0 -195.5 91.5t-66.5 264.5v389q0 389 338 389q165 0 244 -66.5t79 -207.5v-129h-194v102q0 142 -131 142q-142 0 -142 -224v-407q0 -91 35.5 -138t95.5 -47q68 0 105 35.5t37 93.5v166h-135v152h329
v-594zM313 -500v11q103 60 103 249v125h164v-82q0 -140 -65.5 -221.5t-201.5 -81.5z" />
    <glyph glyph-name="Gdotaccent.small" horiz-adv-x="894" 
d="M778 0h-59q-52 9 -86 41t-43 86h-6q-15 -61 -66 -100t-139 -39q-129 0 -195.5 91.5t-66.5 264.5v389q0 389 338 389q165 0 244 -66.5t79 -207.5v-129h-194v102q0 142 -131 142q-142 0 -142 -224v-407q0 -91 35.5 -138t95.5 -47q68 0 105 35.5t37 93.5v166h-135v152h329
v-594zM461 1253q-43 0 -73 30t-30 73t30 72.5t73 29.5t72.5 -29.5t29.5 -72.5t-29.5 -73t-72.5 -30z" />
    <glyph glyph-name="Hbar.small" horiz-adv-x="894" 
d="M778 0h-194v498h-273v-498h-194v854h-82v111h82v145h194v-145h273v145h194v-145h82v-111h-82v-854zM584 649v205h-273v-205h273z" />
    <glyph glyph-name="Hcircumflex.small" horiz-adv-x="894" 
d="M778 0h-194v498h-273v-498h-194v1110h194v-461h273v461h194v-1110zM719 1266l-260 112l-260 -112v145l256 111h8l256 -111v-145z" />
    <glyph glyph-name="Ibreve.small" horiz-adv-x="440" 
d="M317 0h-194v1110h194v-1110zM334 1485h143q0 -114 -70.5 -171t-189.5 -57t-189.5 57t-70.5 171h143q1 -52 31.5 -78.5t85.5 -26.5t85.5 26.5t31.5 78.5z" />
    <glyph glyph-name="Idotaccent.small" horiz-adv-x="440" 
d="M317 0h-194v1110h194v-1110zM215 1253q-43 0 -72.5 30t-29.5 73t29.5 72.5t72.5 29.5t72.5 -29.5t29.5 -72.5t-29.5 -73t-72.5 -30z" />
    <glyph glyph-name="Imacron.small" horiz-adv-x="440" 
d="M317 0h-194v1110h194v-1110zM465 1286h-500v133h500v-133z" />
    <glyph glyph-name="Iogonek.small" horiz-adv-x="440" 
d="M307 -287l6 -4q0 -53 -31 -79.5t-81 -26.5q-69 0 -103.5 38t-34.5 109q0 147 146 250q-44 0 -65 26t-21 68v1016h194v-1110q-110 -87 -110 -238q0 -65 47 -65q27 0 53 16z" />
    <glyph glyph-name="Itilde.small" horiz-adv-x="440" 
d="M317 0h-194v1110h194v-1110zM389 1513h80q-1 -36 -5 -64.5t-14 -57.5t-26 -48t-42.5 -31t-62.5 -12q-51 0 -115 33t-93 33q-49 0 -62 -78h-80q11 213 150 213q53 0 127 -32.5t92 -32.5q24 0 35 18.5t16 58.5z" />
    <glyph glyph-name="IJ.small" horiz-adv-x="1126" 
d="M317 0h-194v1110h194v-1110zM819 295v815h195v-817q0 -156 -77.5 -230.5t-221.5 -74.5q-124 0 -193 61t-69 150q0 86 51.5 138t132.5 52q22 0 49 -6v-8q-49 -70 -49 -146q0 -38 21 -60t59 -22q50 0 76 33.5t26 114.5z" />
    <glyph glyph-name="Jcircumflex.small" horiz-adv-x="731" 
d="M424 295v815h194v-817q0 -156 -77.5 -230.5t-221.5 -74.5q-124 0 -193 61t-69 150q0 86 52 138t133 52q22 0 49 -6v-8q-49 -70 -49 -146q0 -38 21 -60t59 -22q50 0 76 33.5t26 114.5zM778 1266l-260 112l-260 -112v145l256 111h8l256 -111v-145z" />
    <glyph glyph-name="Kcommaaccent.small" horiz-adv-x="894" 
d="M829 176h5q14 -32 14 -63q0 -125 -154 -125q-79 0 -123.5 54t-44.5 183v107q0 211 -170 211h-45v-543h-194v1110h194v-475h4l322 475h197l-353 -502q114 0 172 -59.5t58 -155.5v-174q0 -51 13.5 -73.5t43.5 -22.5q23 0 40 17.5t21 35.5zM248 -500v11q102 60 102 249v125
h164v-82q0 -140 -65 -221.5t-201 -81.5z" />
    <glyph glyph-name="Ksmall.alt" horiz-adv-x="894" 
d="M829 -172h5q14 -32 14 -64q0 -124 -154 -124q-79 0 -123.5 54t-44.5 183v455q0 211 -170 211h-45v-543h-194v1110h194v-475h4l322 475h197l-353 -502q114 0 172 -59.5t58 -155.5v-522q0 -51 13.5 -73.5t43.5 -22.5q23 0 40 17.5t21 35.5z" />
    <glyph glyph-name="Kcommaaccent.smallalt" horiz-adv-x="894" 
d="M829 -172h5q14 -32 14 -64q0 -124 -154 -124q-79 0 -123.5 54t-44.5 183v455q0 211 -170 211h-45v-543h-194v1110h194v-475h4l322 475h197l-353 -502q114 0 172 -59.5t58 -155.5v-522q0 -51 13.5 -73.5t43.5 -22.5q23 0 40 17.5t21 35.5zM39 -500v11q102 60 102 249v125
h164v-82q0 -140 -65 -221.5t-201 -81.5z" />
    <glyph glyph-name="Lacute.small" horiz-adv-x="696" 
d="M666 0h-549v1110h194v-938h355v-172zM260 1255h-135l102 256h185z" />
    <glyph glyph-name="Lcaron.small" horiz-adv-x="696" 
d="M666 0h-549v1110h194v-938h355v-172zM387 725v10q102 60 102 250v125h164v-82q0 -140 -65 -221.5t-201 -81.5z" />
    <glyph glyph-name="Lcommaaccent.small" horiz-adv-x="696" 
d="M666 0h-549v1110h194v-938h355v-172zM221 -500v11q103 60 103 249v125h163v-82q0 -140 -65 -221.5t-201 -81.5z" />
    <glyph glyph-name="Ldot.small" horiz-adv-x="696" 
d="M666 0h-549v1110h194v-938h355v-172zM584 524q-43 0 -73 30t-30 73t30 72.5t73 29.5t72.5 -29.5t29.5 -72.5t-29.5 -73t-72.5 -30z" />
    <glyph glyph-name="Nacute.small" horiz-adv-x="937" 
d="M805 0h-143l-365 729h-4v-729h-180v1110h180l323 -635h5v635h184v-1110zM514 1255h-135l102 256h185z" />
    <glyph glyph-name="Ncaron.small" horiz-adv-x="937" 
d="M805 0h-143l-365 729h-4v-729h-180v1110h180l323 -635h5v635h184v-1110zM705 1356l-256 -111h-9l-256 111v145l260 -112l261 112v-145z" />
    </font>
</defs>
</svg>
