<?xml version="1.0" standalone="no"?>
<!DOCTYPE svg PUBLIC "-//W3C//DTD SVG 1.1//EN" "http://www.w3.org/Graphics/SVG/1.1/DTD/svg11.dtd" >
<svg xmlns="http://www.w3.org/2000/svg" xmlns:xlink="http://www.w3.org/1999/xlink" version="1.1">
<metadata>
Created by FontForge 20170731 at Mon Jan 24 19:00:21 2022
 By Aleksey,,,
Copyright (c) 2011 by Ekaluck Peanpanawate. All rights reserved.
</metadata>
<defs>
<font id="KurryPro-LightItalic" horiz-adv-x="802" >
  <font-face 
    font-family="Kurry Pro"
    font-weight="300"
    font-style="italic"
    font-stretch="squinchy"
    units-per-em="2048"
    panose-1="2 0 5 6 4 0 0 9 0 4"
    ascent="1638"
    descent="-410"
    x-height="1028"
    cap-height="1438"
    bbox="-291 -721 2185 2212"
    underline-thickness="71"
    underline-position="-173"
    slope="-9"
    unicode-range="U+0020-FB06"
  />
<missing-glyph horiz-adv-x="643" 
 />
    <glyph glyph-name="ff" unicode="ff" horiz-adv-x="1009" 
d="M764 0h-117l150 946h-361l-149 -946h-117l149 946h-145l12 82h146l20 135q22 148 110.5 232t231.5 84q74 0 137 -32t84 -83q32 55 86.5 85t122.5 30q79 0 124.5 -44t45.5 -112q0 -49 -31.5 -90t-78.5 -41q-17 0 -29 4v4q53 39 53 103q0 30 -21 51.5t-67 21.5
q-139 0 -172 -211l-22 -137h188l-12 -82h-189zM809 1028l25 150q4 36 4 51q0 74 -40.5 110.5t-115.5 36.5q-177 0 -211 -211l-22 -137h360z" />
    <glyph glyph-name="fi" unicode="fi" horiz-adv-x="937" 
d="M756 0h-117l149 946h-352l-149 -946h-117l149 946h-145l12 82h146l20 125q25 160 121 243t236 83q106 0 167.5 -51.5t61.5 -137.5q0 -64 -37.5 -112t-101.5 -48l2 5q51 44 51 116q0 60 -38.5 92.5t-111.5 32.5q-199 0 -235 -231l-18 -117h469z" />
    <glyph glyph-name="fl" unicode="fl" horiz-adv-x="927" 
d="M778 0h-116l186 1188q4 32 4 45q0 70 -41 106.5t-117 36.5q-189 0 -223 -211l-22 -137h188l-12 -82h-189l-149 -946h-117l149 946h-145l12 82h146l20 135q23 153 114 234.5t232 81.5q116 0 193.5 -65.5t77.5 -176.5q0 -17 -4 -49z" />
    <glyph glyph-name="ffi" unicode="ffi" horiz-adv-x="1437" 
d="M1233 0h-117l150 946h-353l-149 -946h-117l150 946h-361l-149 -946h-117l149 946h-145l12 82h146l20 135q22 148 110.5 232t231.5 84q89 0 148 -42.5t71 -111.5q37 71 110 112.5t163 41.5q106 0 167.5 -51.5t61.5 -137.5q0 -64 -37.5 -112t-101.5 -48l2 5q51 44 51 116
q0 60 -38 92.5t-111 32.5q-200 0 -236 -231l-18 -117h469zM809 1028l25 150q4 20 4 57q0 141 -146 141q-90 0 -147 -53t-74 -158l-22 -137h360z" />
    <glyph glyph-name="ffl" unicode="ffl" horiz-adv-x="1374" 
d="M809 1028l25 150q4 20 4 59q0 139 -146 139q-187 0 -221 -211l-22 -137h360zM1225 0h-117l184 1167q6 30 6 72q0 137 -147 137q-84 0 -136 -54.5t-67 -156.5l-22 -137h188l-12 -82h-189l-149 -946h-117l150 946h-361l-149 -946h-117l149 946h-145l12 82h146l20 135
q24 156 117 236t236 80q71 0 129.5 -35.5t80.5 -89.5q41 56 108 90.5t134 34.5q260 0 260 -226q0 -40 -8 -86z" />
    <glyph glyph-name="T_h.caron" unicode="&#x164;h" horiz-adv-x="1433" 
d="M883 1663l-260 -127h-9l-231 131l14 94l230 -123l270 123zM1430 12v-10q-40 -14 -74 -14q-57 0 -90 34.5t-33 106.5q0 27 6 61l92 582q4 28 4 41q0 125 -141 125q-75 0 -132 -47t-69 -121l-121 -770h-116l209 1325h-314l-209 -1325h-127l209 1325h-254l19 113h694
q36 0 64.5 10t38.5 20l10 11h10l-92 -580h6q18 25 27.5 38t33 36t46.5 35t60 22t81 10q83 0 135.5 -55.5t52.5 -146.5q0 -15 -4 -47l-96 -605q-6 -44 -6 -75q0 -50 18.5 -73t61.5 -26z" />
    <glyph glyph-name="T_h.commaaccent" unicode="&#x162;h" horiz-adv-x="1433" 
d="M127 -500l2 11q72 40 97 88.5t44 160.5l21 125h112l-16 -102q-19 -122 -90 -202.5t-170 -80.5zM1430 12v-10q-40 -14 -74 -14q-57 0 -90 34.5t-33 106.5q0 27 6 61l92 582q4 28 4 41q0 125 -141 125q-75 0 -132 -47t-69 -121l-121 -770h-116l209 1325h-314l-209 -1325
h-127l209 1325h-254l19 113h694q36 0 64.5 10t38.5 20l10 11h10l-92 -580h6q18 25 27.5 38t33 36t46.5 35t60 22t81 10q83 0 135.5 -55.5t52.5 -146.5q0 -15 -4 -47l-96 -605q-6 -44 -6 -75q0 -50 18.5 -73t61.5 -26z" />
    <glyph glyph-name="f_b" unicode="fb" horiz-adv-x="1337" 
d="M1163 291l70 444q8 44 8 86q0 69 -29.5 99t-95.5 30q-45 0 -81.5 -14.5t-55.5 -34.5h-4q9 58 64.5 99.5t129.5 41.5q84 0 136.5 -50t52.5 -163q0 -45 -8 -92l-74 -471q-23 -136 -95.5 -207t-207.5 -71q-69 0 -116 28.5t-64 69.5h-5l-12 -86h-114l186 1188q4 32 4 45
q0 70 -41 106.5t-117 36.5q-189 0 -223 -211l-22 -137h188l-12 -82h-189l-149 -946h-117l149 946h-145l12 82h146l20 135q23 153 114 234.5t232 81.5q116 0 193.5 -65.5t77.5 -176.5q0 -17 -4 -49l-150 -944q-2 -12 -2 -35q0 -65 38 -104t107 -39q91 0 137.5 48.5
t67.5 176.5z" />
    <glyph glyph-name="f_h" unicode="fh" horiz-adv-x="1339" 
d="M778 0h-116l186 1188q4 32 4 45q0 70 -41 106.5t-117 36.5q-189 0 -223 -211l-22 -137h188l-12 -82h-189l-149 -946h-117l149 946h-145l12 82h146l20 135q23 153 114 234.5t232 81.5q116 0 193.5 -65.5t77.5 -176.5q0 -17 -4 -49l-45 -289h6q19 27 27.5 38.5t32 35.5
t45 35.5t57 21.5t77.5 10q88 0 142.5 -54.5t54.5 -149.5q0 -39 -53.5 -350t-53.5 -375q0 -50 18.5 -73t61.5 -26v-10q-40 -14 -73 -14q-57 0 -90 34.5t-33 106.5q0 59 51 348t51 328q0 60 -34.5 96.5t-106.5 36.5q-75 0 -132 -47t-69 -121z" />
    <glyph glyph-name="f_k" unicode="fk" horiz-adv-x="1337" 
d="M1315 113h4q0 -56 -32.5 -90.5t-90.5 -34.5q-55 0 -85 35t-30 98q0 41 12.5 126.5t12.5 131.5q0 75 -34.5 105t-117.5 30h-96l-80 -514h-116l186 1188q4 32 4 45q0 70 -41 106.5t-117 36.5q-189 0 -223 -211l-22 -137h188l-12 -82h-189l-149 -946h-117l149 946h-145
l12 82h146l20 135q23 153 114 234.5t232 81.5q116 0 193.5 -65.5t77.5 -176.5q0 -17 -4 -49l-95 -602l387 442h142l-404 -442q230 0 230 -201q0 -39 -13.5 -123t-13.5 -127q0 -57 43 -57q20 0 38.5 9t26.5 17z" />
    <glyph glyph-name="f_f_b" unicode="ffb" horiz-adv-x="1783" 
d="M809 1028l25 150q4 20 4 59q0 139 -146 139q-187 0 -221 -211l-22 -137h360zM1610 291l69 444q9 49 9 86q0 69 -29.5 99t-95.5 30q-45 0 -82 -14.5t-56 -34.5h-4q9 58 65 99.5t130 41.5q84 0 136 -50t52 -163q0 -45 -8 -92l-74 -471q-23 -136 -95.5 -207t-207.5 -71
q-69 0 -116 28.5t-64 69.5h-4l-12 -86h-115l184 1167q6 30 6 72q0 137 -147 137q-84 0 -136 -54.5t-67 -156.5l-22 -137h188l-12 -82h-189l-149 -946h-117l150 946h-361l-149 -946h-117l149 946h-145l12 82h146l20 135q24 156 117 236t236 80q71 0 129.5 -35.5t80.5 -89.5
q41 56 108 90.5t134 34.5q260 0 260 -226q0 -40 -8 -86l-147 -923q-2 -12 -2 -35q0 -65 38 -104t107 -39q91 0 137.5 48.5t67.5 176.5z" />
    <glyph glyph-name="f_f_h" unicode="ffh" horiz-adv-x="1785" 
d="M809 1028l25 150q4 20 4 59q0 139 -146 139q-187 0 -221 -211l-22 -137h360zM1225 0h-117l184 1167q6 30 6 72q0 137 -147 137q-84 0 -136 -54.5t-67 -156.5l-22 -137h188l-12 -82h-189l-149 -946h-117l150 946h-361l-149 -946h-117l149 946h-145l12 82h146l20 135
q24 156 117 236t236 80q71 0 129.5 -35.5t80.5 -89.5q41 56 108 90.5t134 34.5q260 0 260 -226q0 -40 -8 -86l-43 -268h6q18 26 27 38.5t32.5 36t45.5 35t57.5 21.5t77.5 10q88 0 142 -54.5t54 -149.5q0 -39 -53 -350t-53 -375q0 -50 18.5 -73t61.5 -26v-10q-40 -14 -74 -14
q-57 0 -90 34.5t-33 106.5q0 59 51.5 348t51.5 328q0 60 -34.5 96.5t-107.5 36.5q-74 0 -131 -47t-69 -121z" />
    <glyph glyph-name="f_f_k" unicode="ffk" horiz-adv-x="1787" 
d="M809 1028l25 150q4 20 4 59q0 139 -146 139q-187 0 -221 -211l-22 -137h360zM1761 113h4q0 -56 -32.5 -90.5t-90.5 -34.5q-55 0 -84.5 35t-29.5 98q0 41 12 126.5t12 131.5q0 76 -34 105.5t-117 29.5h-96l-80 -514h-117l184 1167q6 30 6 72q0 137 -147 137
q-84 0 -136 -54.5t-67 -156.5l-22 -137h188l-12 -82h-189l-149 -946h-117l150 946h-361l-149 -946h-117l149 946h-145l12 82h146l20 135q24 156 117 236t236 80q71 0 129.5 -35.5t80.5 -89.5q41 56 108 90.5t134 34.5q260 0 260 -226q0 -40 -8 -86l-94 -581l389 442h141
l-403 -442q229 0 229 -201q0 -39 -13 -123t-13 -127q0 -57 43 -57q20 0 38 9t26 17z" />
    <glyph glyph-name="T_h" unicode="Th" horiz-adv-x="1433" 
d="M1430 12v-10q-40 -14 -74 -14q-57 0 -90 34.5t-33 106.5q0 27 6 61l92 582q4 28 4 41q0 125 -141 125q-75 0 -132 -47t-69 -121l-121 -770h-116l209 1325h-314l-209 -1325h-127l209 1325h-254l19 113h694q36 0 64.5 10t38.5 20l10 11h10l-92 -580h6q18 25 27.5 38t33 36
t46.5 35t60 22t81 10q83 0 135.5 -55.5t52.5 -146.5q0 -15 -4 -47l-96 -605q-6 -44 -6 -75q0 -50 18.5 -73t61.5 -26z" />
    <glyph glyph-name="f_j" unicode="fj" horiz-adv-x="937" 
d="M397 -330l4 21q93 13 149 64.5t75 166.5l163 1024h-352l-149 -946h-117l149 946h-145l12 82h146l20 125q25 160 121 243t236 83q106 0 167.5 -51.5t61.5 -137.5q0 -64 -37.5 -112t-101.5 -48l2 5q51 44 51 116q0 60 -38.5 92.5t-111.5 32.5q-199 0 -235 -231l-18 -117
h469l-175 -1102q-23 -145 -92 -205.5t-172 -60.5q-42 0 -82 10z" />
    <glyph glyph-name="f_f_j" unicode="ffj" horiz-adv-x="1437" 
d="M874 -330l5 21q93 13 149 64.5t74 166.5l164 1024h-353l-149 -946h-117l150 946h-361l-149 -946h-117l149 946h-145l12 82h146l20 135q22 148 110.5 232t231.5 84q89 0 148 -42.5t71 -111.5q37 71 110 112.5t163 41.5q106 0 167.5 -51.5t61.5 -137.5q0 -64 -37.5 -112
t-101.5 -48l2 5q51 44 51 116q0 60 -38 92.5t-111 32.5q-200 0 -236 -231l-18 -117h469l-174 -1102q-23 -145 -92 -205.5t-173 -60.5q-42 0 -82 10zM809 1028l25 150q4 20 4 57q0 141 -146 141q-90 0 -147 -53t-74 -158l-22 -137h360z" />
    <glyph glyph-name=".notdef" horiz-adv-x="643" 
 />
    <glyph glyph-name=".null" horiz-adv-x="0" 
 />
    <glyph glyph-name="nonmarkingreturn" horiz-adv-x="682" 
 />
    <glyph glyph-name="space" unicode=" " horiz-adv-x="380" 
 />
    <glyph glyph-name="exclam" unicode="!" horiz-adv-x="495" 
d="M326 379h-37q45 661 108 1059h156q-28 -177 -84.5 -442t-99.5 -441zM252 -6q-39 0 -62.5 22.5t-23.5 57.5q0 41 30 72.5t72 31.5q39 0 62.5 -22.5t23.5 -57.5q0 -42 -28.5 -73t-73.5 -31z" />
    <glyph glyph-name="quotedbl" unicode="&#x22;" horiz-adv-x="610" 
d="M381 1073h-66q9 197 23 289l12 76h115l-12 -76q-7 -43 -25 -115t-32 -123zM629 1073h-66q9 197 23 289l12 76h115l-13 -76q-7 -43 -25 -115t-32 -123z" />
    <glyph glyph-name="numbersign" unicode="#" 
d="M530 0h-94l117 449h-225l-117 -449h-94l116 449h-131l15 94h141l104 393h-141l15 94h151l119 449h94l-119 -449h226l118 449h95l-119 -449h135l-14 -94h-146l-104 -393h145l-14 -94h-156zM578 543l104 393h-225l-105 -393h226z" />
    <glyph glyph-name="dollar" unicode="$" 
d="M414 -172h-99l27 160q-101 11 -164 82.5t-63 177.5q0 92 58 166.5t155 74.5h8q-35 -35 -62.5 -106t-27.5 -127q0 -73 42.5 -119.5t117.5 -46.5q98 0 163.5 66.5t65.5 171.5q0 67 -38.5 146.5t-93.5 154.5t-109.5 151t-93 162.5t-38.5 163.5q0 150 84 242.5t227 101.5
l25 160h98l-24 -160q103 -10 155 -78t52 -170q0 -46 -25 -162h-125q23 142 23 162q0 70 -35 108t-103 38q-103 0 -163 -67t-60 -175q0 -74 38 -154.5t92.5 -152.5t108.5 -144.5t92 -155.5t38 -161q0 -153 -83.5 -248t-236.5 -102z" />
    <glyph glyph-name="percent" unicode="%" horiz-adv-x="1312" 
d="M385 1260q-80 -482 -80 -519q0 -41 24.5 -66.5t69.5 -25.5q113 0 131 111q12 74 27 163t23.5 139.5t16.5 101t11.5 77t3.5 37.5q0 42 -24.5 66t-73.5 24q-114 0 -129 -108zM481 -12h-92l686 1462h92zM623 760q-30 -193 -230 -193q-86 0 -133 47.5t-47 126.5q0 33 82 523
q17 94 76 140t147 46q80 0 133.5 -44.5t53.5 -119.5q0 -14 -3 -40t-11 -74.5t-16 -97.5t-23.5 -140.5t-28.5 -173.5zM1163 180q12 74 27 163t23.5 139.5t16.5 101t11.5 77t3.5 37.5q0 42 -24.5 66t-73.5 24q-114 0 -129 -108q-80 -482 -80 -518q0 -41 24.5 -66.5t69.5 -25.5
q59 0 91 30t40 80zM1255 180q-30 -192 -229 -192q-86 0 -133 47.5t-47 126.5q0 32 82 522q17 94 76 140t147 46q80 0 133 -44t53 -119q0 -14 -3 -40t-11 -75l-16 -98t-23.5 -141t-28.5 -173z" />
    <glyph glyph-name="ampersand" unicode="&#x26;" horiz-adv-x="940" 
d="M991 0h-141l-289 719q-301 -149 -301 -443q0 -88 42 -135t124 -47q45 0 83.5 17t61.5 43.5t37 51.5t19 48h8q10 -7 20.5 -29.5t10.5 -42.5q0 -91 -70 -145.5t-195 -54.5q-134 0 -208 83.5t-74 208.5q0 177 115.5 302t306.5 192q-109 228 -109 358q0 80 31.5 150t97 116
t152.5 46q90 0 141 -45.5t51 -104.5q0 -98 -86 -121h-8q0 5 2 23.5t2 23.5q0 62 -23.5 89.5t-82.5 27.5q-73 0 -114.5 -57.5t-41.5 -147.5q0 -39 12.5 -88.5t23.5 -79.5t38.5 -94.5t34.5 -81.5z" />
    <glyph glyph-name="quotesingle" unicode="'" horiz-adv-x="401" 
d="M401 1073h-65q8 197 22 289l13 76h114l-12 -76q-7 -43 -25 -115t-32 -123z" />
    <glyph glyph-name="parenleft" unicode="(" horiz-adv-x="495" 
d="M369 -319h-95q-77 356 -77 604q0 152 22 295q37 231 119.5 434.5t220.5 464.5h94q-105 -192 -185.5 -427t-117.5 -472q-26 -175 -26 -361q0 -257 45 -538z" />
    <glyph glyph-name="parenright" unicode=")" horiz-adv-x="495" 
d="M119 -319h-94q240 512 301 899q32 199 32 426q0 267 -49 473h94q78 -357 78 -598q0 -142 -24 -301q-36 -231 -117.5 -434t-220.5 -465z" />
    <glyph glyph-name="asterisk" unicode="*" horiz-adv-x="647" 
d="M700 995l-157 121l-27 -215h-102l43 215l-199 -121l-39 103l219 92l-188 92l72 102l157 -120l27 215h102l-43 -215l199 120l39 -102l-217 -92l186 -92z" />
    <glyph glyph-name="plus" unicode="+" horiz-adv-x="1269" 
d="M1227 477h-477l-74 -477h-82l74 477h-478l15 82h477l76 477h82l-76 -477h477z" />
    <glyph glyph-name="comma" unicode="," horiz-adv-x="421" 
d="M-8 -184l2 10q57 33 85 55.5t51 64.5t34 109l22 146h119l-16 -103q-20 -129 -100 -205.5t-197 -76.5z" />
    <glyph glyph-name="hyphen" unicode="-" horiz-adv-x="647" 
d="M647 479h-495l14 99h496z" />
    <glyph glyph-name="period" unicode="." horiz-adv-x="421" 
d="M315 90q0 -44 -28 -70t-72 -26q-36 0 -60 24t-24 62q0 44 29 71t73 27q35 0 58.5 -25t23.5 -63z" />
    <glyph glyph-name="slash" unicode="/" horiz-adv-x="606" 
d="M125 -12h-90l674 1462h90z" />
    <glyph glyph-name="zero" unicode="0" 
d="M610 309l131 819q7 47 7 78q0 67 -30.5 104.5t-103.5 37.5q-39 0 -70.5 -12t-52 -31.5t-35.5 -49t-23.5 -59.5t-14.5 -68l-131 -819q-6 -41 -6 -78q0 -141 133 -141q49 0 85 17.5t57.5 50t34 68.5t19.5 83zM176 344l121 760q30 193 105 270.5t223 77.5q117 0 177 -57
t60 -181q0 -45 -10 -120l-121 -760q-31 -194 -101.5 -270t-217.5 -76q-246 0 -246 237q0 44 10 119z" />
    <glyph glyph-name="one" unicode="1" horiz-adv-x="577" 
d="M403 0h-116l207 1317l-224 -53l15 86l260 88h86z" />
    <glyph glyph-name="two" unicode="2" 
d="M227 0h-100l18 129q17 118 60 217t97.5 167t117 129t121.5 117.5t107 117.5t77 144t29 183q0 69 -35.5 105.5t-95.5 36.5q-86 0 -124 -40.5t-50 -136.5l-11 -82h-114l10 82q17 138 93 209.5t206 71.5q117 0 176 -63.5t59 -174.5q0 -105 -28 -194t-75 -155t-105 -126
t-121 -121t-118.5 -125t-102.5 -153t-70 -191l6 -2q12 22 48 38t77 16q40 0 125.5 -35t130.5 -35q48 0 86 23q6 -6 6 -31q0 -56 -33 -94.5t-90 -38.5q-54 0 -137.5 50t-134.5 50q-93 0 -105 -88z" />
    <glyph glyph-name="three" unicode="3" 
d="M348 379l2 -6q-76 -69 -76 -166q0 -55 35.5 -86t102.5 -31q98 0 145.5 55.5t63.5 163.5q36 228 36 260q0 75 -41 107.5t-145 32.5h-45l14 86h45q115 0 169.5 52t74.5 181q27 168 27 199q0 68 -31 94.5t-90 26.5q-90 0 -133 -45t-60 -152l-8 -49h-115l7 45
q23 160 103 232.5t220 72.5q112 0 165.5 -59t53.5 -166q0 -36 -22 -191q-8 -50 -20.5 -90t-26.5 -67.5t-33.5 -48.5t-36 -32.5t-40 -20t-39.5 -12t-40 -7.5v-2q158 -30 158 -209q0 -47 -31 -248q-23 -155 -100 -233t-236 -78q-120 0 -184.5 62t-64.5 151q0 77 46.5 128.5
t116.5 51.5q23 0 33 -2z" />
    <glyph glyph-name="four" unicode="4" 
d="M627 0h-117l51 324h-428l10 65l596 1049h115l-162 -1012h115l-14 -102h-115zM575 426l121 758h-8l-414 -758h301z" />
    <glyph glyph-name="five" unicode="5" 
d="M625 285l61 393q4 36 4 49q0 63 -33 89t-96 26q-74 0 -131 -53t-70 -138l-6 -33h-114l131 820h516l-19 -115h-401l-86 -535h4q24 68 87 119t144 51q90 0 141.5 -54.5t51.5 -160.5q0 -15 -4 -55l-66 -414q-25 -152 -101.5 -219t-227.5 -67q-124 0 -188 59t-64 148
q0 83 52.5 130.5t143.5 53.5l4 -6q-77 -81 -77 -166q0 -54 37 -85.5t104 -31.5q85 0 135.5 47t67.5 148z" />
    <glyph glyph-name="six" unicode="6" 
d="M854 1090h-115q15 98 15 122q0 66 -28.5 93.5t-100.5 27.5q-90 0 -138.5 -54t-66.5 -165l-55 -346h8q32 74 93 121t134 47q96 0 149.5 -55.5t53.5 -165.5q0 -47 -55 -391q-29 -186 -105.5 -261t-234.5 -75q-108 0 -174 62.5t-66 182.5q0 48 135 889q51 328 334 328
q233 0 233 -223q0 -46 -16 -137zM334 578q-49 -308 -49 -345q0 -68 30.5 -105.5t104.5 -37.5q94 0 136 54t58 165q58 365 58 389q0 62 -27.5 91.5t-85.5 29.5q-87 0 -146.5 -62.5t-78.5 -178.5z" />
    <glyph glyph-name="seven" unicode="7" horiz-adv-x="720" 
d="M446 86v-4q-11 -46 -38.5 -70t-81.5 -24q-51 0 -81 34.5t-30 92.5q0 46 7 89.5t29 105t45 114.5t73.5 155.5t94.5 187.5t129 250.5t157 307.5h-471l18 113h586l-19 -107q-69 -141 -155.5 -315t-131.5 -264t-95.5 -197.5t-73.5 -167.5t-38.5 -119t-15.5 -104q0 -71 92 -78
z" />
    <glyph glyph-name="eight" unicode="8" 
d="M211 504q28 181 240 231q-70 42 -109 95.5t-39 142.5q0 29 27 186q27 155 95.5 221t211.5 66q119 0 171 -58t52 -165q0 -54 -37 -281q-11 -78 -58.5 -117.5t-143.5 -62.5q139 -91 139 -266q0 -37 -23 -181q-21 -132 -56.5 -201.5t-95 -97.5t-165.5 -28q-244 0 -244 237
q0 61 35 279zM625 309q20 122 20 197q0 72 -35 116t-108 85q-72 -38 -119 -89.5t-59 -130.5q-37 -238 -37 -268q0 -129 137 -129q47 0 81.5 13.5t54 31t33.5 51.5t19.5 57.5t12.5 65.5zM573 793q118 41 136 153q39 252 39 273q0 53 -28 81.5t-99 28.5q-31 0 -56.5 -6.5
t-42.5 -15t-30.5 -26t-21 -31t-14 -39t-9 -40l-7.5 -43.5q-20 -132 -20 -147q0 -34 12 -62t38.5 -52.5t45.5 -37.5t57 -36z" />
    <glyph glyph-name="nine" unicode="9" 
d="M625 297l65 408h-10q-39 -69 -89 -104.5t-124 -35.5q-97 0 -151 57t-54 173q0 50 45 331q29 186 103.5 255t238.5 69q230 0 230 -221q0 -32 -6 -88.5t-20.5 -153.5t-28.5 -182.5t-39.5 -245.5t-43.5 -272q-25 -155 -107 -227t-233 -72q-119 0 -180 61.5t-61 155.5
q0 83 52 132.5t138 49.5l6 -4q-73 -70 -73 -166q0 -55 35 -85t102 -30q88 0 138 47t67 148zM721 901q3 21 12.5 73t14.5 82.5t9.5 75.5t4.5 82q0 63 -29.5 97.5t-105.5 34.5q-51 0 -86 -14.5t-56 -46t-32 -67.5t-19 -92q-47 -291 -47 -313q0 -131 135 -131q86 0 133 51.5
t66 167.5z" />
    <glyph glyph-name="colon" unicode=":" horiz-adv-x="421" 
d="M315 90q0 -44 -28 -70t-72 -26q-36 0 -60 24t-24 62q0 44 29 71t73 27q35 0 58.5 -25t23.5 -63zM451 940q0 -43 -28.5 -69.5t-72.5 -26.5q-36 0 -60 24t-24 62q0 43 29.5 70.5t73.5 27.5q35 0 58.5 -25t23.5 -63z" />
    <glyph glyph-name="semicolon" unicode=";" horiz-adv-x="421" 
d="M-4 -164l2 10q83 47 117.5 90.5t48.5 139.5l20 125h135l-12 -82q-21 -128 -102 -205.5t-209 -77.5zM451 940q0 -43 -28.5 -69.5t-72.5 -26.5q-36 0 -60 24t-24 62q0 43 29.5 70.5t73.5 27.5q35 0 58.5 -25t23.5 -63z" />
    <glyph glyph-name="less" unicode="&#x3c;" horiz-adv-x="1269" 
d="M1151 -12l-958 497l10 66l1116 498l-19 -111l-931 -420l798 -420z" />
    <glyph glyph-name="equal" unicode="=" horiz-adv-x="1269" 
d="M1264 707h-1037l13 81h1036zM1192 248h-1036l12 82h1036z" />
    <glyph glyph-name="greater" unicode="&#x3e;" horiz-adv-x="1269" 
d="M1229 485l-1114 -497l16 110l934 420l-801 420l19 111l956 -498z" />
    <glyph glyph-name="question" unicode="?" horiz-adv-x="686" 
d="M461 350h-82l27 164q10 65 40 130t66 114.5l76 104.5t73 101.5t54.5 104t21.5 113.5q0 72 -39 113.5t-112 41.5q-96 0 -150.5 -48.5t-54.5 -141.5q0 -92 57 -170q-63 5 -105 53t-42 131q0 124 83 206.5t218 82.5q124 0 193 -72t69 -186q0 -71 -24 -135.5t-60.5 -111.5
t-81.5 -99.5t-85 -97.5t-72.5 -108t-43.5 -130zM457 84q0 -38 -25.5 -64t-69.5 -26q-33 0 -51 21t-18 53q0 38 26.5 65t69.5 27q29 0 48.5 -22.5t19.5 -53.5z" />
    <glyph glyph-name="at" unicode="@" horiz-adv-x="1433" 
d="M956 389q43 225 43 275q0 57 -39 95t-106 38q-84 0 -129 -37t-57 -115q-50 -304 -50 -315q0 -59 32 -88t104 -29q178 0 202 176zM1053 -51l6 -4q-45 -74 -134 -119t-210 -45q-256 0 -399.5 115.5t-143.5 334.5q0 66 64 474q40 253 216.5 401.5t452.5 148.5
q249 0 397 -123t148 -327q0 -53 -8 -100l-60 -379q-22 -139 -84.5 -202t-183.5 -63q-72 0 -118 39t-46 115q0 29 2 43h-6q-56 -141 -211 -141q-103 0 -161 58t-58 151q0 40 47 325q20 116 99.5 180t195.5 64q120 0 183 -62.5t63 -168.5q0 -17 -5 -48.5t-19.5 -116
t-28.5 -184.5q-7 -47 -7 -84q0 -77 76 -77q59 0 98 40.5t56 147.5l59 373q6 43 6 88q0 162 -120 258t-328 96q-227 0 -369 -125.5t-174 -329.5q-63 -400 -63 -466q0 -157 112.5 -257t333.5 -100q166 0 322 70z" />
    <glyph glyph-name="A" unicode="A" horiz-adv-x="911" 
d="M840 0h-119l-23 391h-356l-141 -391h-129l546 1438h121zM692 494l-41 727h-6l-266 -727h313z" />
    <glyph glyph-name="B" unicode="B" horiz-adv-x="870" 
d="M403 780h72q155 0 239.5 92t84.5 254q0 98 -58 148.5t-194 50.5h-58zM297 113h68q179 0 266.5 81t87.5 263q0 117 -67.5 167t-192.5 50h-72zM360 0h-206l227 1438h180q185 0 275 -84t90 -224q0 -96 -28 -176t-94.5 -141t-164.5 -82v-2q98 -19 151.5 -89.5t53.5 -184.5
q0 -224 -122 -339.5t-362 -115.5z" />
    <glyph glyph-name="C" unicode="C" horiz-adv-x="798" 
d="M182 313l123 781q55 356 359 356q122 0 181.5 -60.5t59.5 -162.5q0 -20 -4 -56l-18 -100h-111l16 98q5 35 5 41q0 127 -146 127q-88 0 -141.5 -59t-75.5 -201l-123 -772q-4 -36 -4 -51q0 -154 158 -154q87 0 141.5 58t81.5 145q24 -6 39.5 -26.5t15.5 -49.5
q0 -96 -81 -167.5t-214 -71.5q-132 0 -200 70t-68 190q0 30 6 65z" />
    <glyph glyph-name="D" unicode="D" horiz-adv-x="911" 
d="M297 113h55q166 0 253.5 76.5t113.5 240.5q96 607 96 657q0 126 -62 182t-206 56h-58zM356 0h-202l227 1438h188q371 0 371 -332q0 -70 -94 -678q-37 -231 -159.5 -329.5t-330.5 -98.5z" />
    <glyph glyph-name="E" unicode="E" horiz-adv-x="737" 
d="M733 696h-344l-63 -401q-4 -24 -4 -49q0 -146 135 -146q138 0 200 125q13 -6 23 -24.5t10 -40.5q0 -79 -68 -125.5t-169 -46.5q-128 0 -193 67t-65 191q0 19 4 47l182 1145h491l-18 -113h-365l-81 -522h344z" />
    <glyph glyph-name="F" unicode="F" horiz-adv-x="706" 
d="M281 0h-127l227 1438h491l-18 -113h-365l-81 -522h344l-19 -107h-344z" />
    <glyph glyph-name="G" unicode="G" horiz-adv-x="901" 
d="M758 0h-29q-18 5 -29.5 12.5t-21.5 30t-10 57.5q0 31 2 43h-4q-80 -155 -248 -155q-104 0 -172 64t-68 186q0 59 10 114l117 742q30 189 125 272.5t250 83.5q128 0 195 -62.5t67 -170.5q0 -39 -6 -74l-8 -60h-127l12 80q4 32 4 43q0 129 -158 129q-101 0 -154 -60
t-75 -196l-121 -762q-6 -44 -6 -75q0 -73 33.5 -106.5t114.5 -33.5q88 0 151.5 62.5t75.5 136.5l53 340h-164l17 102h290z" />
    <glyph glyph-name="H" unicode="H" horiz-adv-x="931" 
d="M778 0h-127l107 684h-371l-106 -684h-127l227 1438h127l-102 -647h370l103 647h127z" />
    <glyph glyph-name="I" unicode="I" horiz-adv-x="454" 
d="M291 0h-127l227 1438h127z" />
    <glyph glyph-name="J" unicode="J" horiz-adv-x="737" 
d="M500 281l184 1157h127l-184 -1159q-24 -150 -103 -220.5t-211 -70.5q-112 0 -166.5 58.5t-54.5 146.5q0 69 42.5 117t111.5 48q17 0 37 -4v-2q-31 -27 -48.5 -66.5t-17.5 -76.5q0 -107 115 -107q67 0 109.5 40.5t58.5 138.5z" />
    <glyph glyph-name="K" unicode="K" horiz-adv-x="911" 
d="M803 127h2q26 -13 26 -47q0 -43 -28 -67.5t-82 -24.5q-57 0 -95 31.5t-38 99.5q0 63 25.5 196t25.5 199q0 168 -168 168h-84l-106 -682h-127l227 1438h127l-107 -672h5l464 672h140l-473 -674q117 -1 174 -66t57 -176q0 -64 -26.5 -199t-26.5 -186q0 -27 8.5 -37
t28.5 -10q38 0 51 37z" />
    <glyph glyph-name="L" unicode="L" horiz-adv-x="716" 
d="M655 0h-501l227 1438h127l-211 -1325h375z" />
    <glyph glyph-name="M" unicode="M" horiz-adv-x="1085" 
d="M932 0h-119l184 1176h-2l-331 -603h-62l-143 603h-2l-185 -1176h-118l227 1438h131l152 -656h4l360 656h131z" />
    <glyph glyph-name="N" unicode="N" horiz-adv-x="972" 
d="M819 0h-86l-272 1145h-8l-181 -1145h-118l227 1438h127l246 -1047h8l166 1047h119z" />
    <glyph glyph-name="O" unicode="O" horiz-adv-x="921" 
d="M676 1450q143 0 215 -72.5t72 -210.5q0 -41 -16.5 -161.5t-34 -232t-42.5 -261t-30 -180.5q-18 -115 -57 -188.5t-114.5 -114.5t-191.5 -41q-145 0 -217 76.5t-72 211.5q0 47 14 153.5t30 205.5t42.5 256.5t38.5 232.5q26 168 113.5 247t249.5 79zM483 100
q105 0 160 55.5t74 176.5q5 31 23 140t32.5 197.5t30.5 195t25.5 185t9.5 113.5q0 84 -44 129t-128 45q-197 0 -232 -221q-10 -67 -48 -292.5t-56.5 -355t-18.5 -187.5q0 -87 46 -134t126 -47z" />
    <glyph glyph-name="P" unicode="P" horiz-adv-x="880" 
d="M281 0h-127l227 1438h199q175 0 283 -97.5t108 -283.5q0 -71 -16 -140t-50.5 -133t-83 -112.5t-118.5 -77.5t-152 -29q-78 0 -125 23v4q202 24 309 137.5t107 319.5q0 133 -73.5 203.5t-213.5 70.5h-66z" />
    <glyph glyph-name="Q" unicode="Q" horiz-adv-x="901" 
d="M782 -367h2q29 -25 29 -53q0 -36 -25 -60t-75 -24q-56 0 -91.5 32.5t-35.5 100.5q0 38 13 119t13 125q0 65 -31 90t-104 25q-145 0 -218 75.5t-73 210.5q0 47 13.5 154t28 198t42 258.5t37.5 229.5q26 169 117 252.5t252 83.5q143 0 216 -72.5t73 -210.5q0 -53 -22 -205
t-61 -381.5t-40 -238.5q-9 -54 -19.5 -94.5t-28.5 -79t-42 -65t-58.5 -46.5t-79.5 -30v-4q55 -5 85 -40.5t30 -97.5q0 -41 -15.5 -122t-15.5 -125q0 -54 41 -54q35 0 43 49zM483 100q104 0 157.5 55t72.5 177q5 32 30.5 183t43 258.5t33.5 227t16 162.5q0 84 -43 129
t-127 45q-195 0 -230 -221q-10 -67 -48 -292.5t-56.5 -355t-18.5 -187.5q0 -87 45 -134t125 -47z" />
    <glyph glyph-name="R" unicode="R" horiz-adv-x="880" 
d="M401 768h68q141 0 228 99.5t87 254.5q0 103 -61.5 153t-173.5 50h-60zM813 127h2q27 -13 27 -47q0 -42 -28.5 -67t-82.5 -25q-57 0 -95 31.5t-38 99.5q0 63 24.5 189t24.5 192q0 91 -49.5 128.5t-151.5 37.5h-61l-104 -666h-127l227 1438h168q178 0 272 -80t94 -234
q0 -155 -82.5 -265t-234.5 -142v-4q80 -3 129 -57t49 -148q0 -64 -25.5 -192t-25.5 -179q0 -27 8.5 -37t28.5 -10q38 0 51 37z" />
    <glyph glyph-name="S" unicode="S" horiz-adv-x="839" 
d="M874 1077h-114q18 116 18 140q0 120 -137 120q-99 0 -153 -66t-54 -171q0 -77 36.5 -151.5t88 -136.5t103 -125t88 -140t36.5 -158q0 -79 -20.5 -149.5t-61 -127.5t-108 -90.5t-154.5 -33.5q-114 0 -193 64.5t-79 176.5q0 95 44 155t138 60q-63 -76 -63 -196
q0 -73 40.5 -110.5t114.5 -37.5q105 0 160 74.5t55 202.5q0 66 -36.5 137.5t-88 136.5t-103 131.5t-88 147t-36.5 160.5q0 160 89 260t251 100q106 0 176 -55.5t70 -157.5q0 -39 -19 -160z" />
    <glyph glyph-name="T" unicode="T" horiz-adv-x="757" 
d="M442 0h-127l209 1325h-254l19 113h635l-19 -113h-254z" />
    <glyph glyph-name="U" unicode="U" horiz-adv-x="962" 
d="M733 326l176 1112h127l-178 -1116q-11 -68 -34 -123.5t-64.5 -105t-109.5 -77.5t-158 -28q-149 0 -220 77.5t-71 200.5q0 44 6 78l174 1094h127l-174 -1100q-6 -30 -6 -72q0 -164 168 -164q110 0 164.5 55.5t72.5 168.5z" />
    <glyph glyph-name="V" unicode="V" horiz-adv-x="931" 
d="M561 0h-139l-88 1296q-3 60 -47 60q-34 0 -68 -27q10 53 46 84t83 31q58 0 82 -34t29 -114l55 -1077h4l443 1219h126z" />
    <glyph glyph-name="W" unicode="W" horiz-adv-x="1433" 
d="M1098 0h-131l-72 1075h-6l-395 -1075h-123l-17 1296q0 30 -13 45t-34 15q-33 0 -67 -27q10 53 46 84t83 31q60 0 86 -35t26 -113l-2 -1009h8l420 1151h74l84 -1151h8l377 1151h129z" />
    <glyph glyph-name="X" unicode="X" horiz-adv-x="942" 
d="M870 0h-131l-145 618l-346 -618h-137l432 745l-144 551q-9 35 -18.5 47.5t-30.5 12.5q-35 0 -69 -27q22 115 118 115q56 0 79 -32.5t44 -115.5l109 -450l323 592h133l-405 -719z" />
    <glyph glyph-name="Y" unicode="Y" horiz-adv-x="880" 
d="M526 0h-127l86 547l-118 749q-9 60 -50 60q-33 0 -67 -27q11 54 42 84.5t77 30.5q61 0 82.5 -31.5t31.5 -114.5l88 -596l342 736h123l-424 -891z" />
    <glyph glyph-name="Z" unicode="Z" horiz-adv-x="808" 
d="M203 0h-101l7 41q18 122 77 223l602 1061h-417l18 113h545l-16 -99l-642 -1167l3 -2q25 41 96 41q39 0 116 -42t121 -42q39 0 72 33q21 -18 21 -56q0 -51 -36 -83.5t-96 -32.5q-38 0 -74.5 17t-61 37t-57.5 37t-63 17q-95 0 -114 -96z" />
    <glyph glyph-name="bracketleft" unicode="[" horiz-adv-x="495" 
d="M410 -319h-324l279 1757h323l-18 -107h-201l-244 -1544h201z" />
    <glyph glyph-name="backslash" unicode="\" horiz-adv-x="606" 
d="M567 -12h-90l-211 1462h90z" />
    <glyph glyph-name="bracketright" unicode="]" horiz-adv-x="495" 
d="M307 -319h-321l14 106h201l243 1544h-200l18 107h324z" />
    <glyph glyph-name="asciicircum" unicode="^" horiz-adv-x="1269" 
d="M1122 590h-104l-174 737l-395 -737h-117l465 848h118z" />
    <glyph glyph-name="underscore" unicode="_" horiz-adv-x="1064" 
d="M1004 -256h-1022l16 102h1022z" />
    <glyph glyph-name="grave" unicode="`" horiz-adv-x="716" 
d="M629 1223h-90l-95 258h115z" />
    <glyph glyph-name="a" unicode="a" horiz-adv-x="774" 
d="M672 0h-117l80 510q-85 -1 -153.5 -18t-122.5 -53.5t-83.5 -98.5t-29.5 -147q0 -63 31 -94t83 -31q76 0 140 41h8q-13 -52 -60.5 -87.5t-128.5 -35.5q-83 0 -138.5 57.5t-55.5 155.5q0 97 42.5 170.5t116.5 116.5t164.5 64t196.5 21l37 236q4 24 4 37q0 59 -34.5 90
t-98.5 31q-75 0 -127.5 -40.5t-65.5 -123.5l-10 -74h-108l14 82q18 111 95.5 172t211.5 61q112 0 174 -53.5t62 -146.5q0 -15 -4 -51z" />
    <glyph glyph-name="b" unicode="b" horiz-adv-x="798" 
d="M627 293l67 436q8 44 8 86q0 70 -29.5 102.5t-94.5 32.5q-45 0 -82 -14.5t-56 -34.5h-4q9 58 65 99.5t130 41.5q186 0 186 -215q0 -45 -8 -92l-70 -461q-22 -144 -93.5 -215t-207.5 -71t-184 98h-4l-12 -86h-115l233 1479h117l-194 -1227q-3 -18 -3 -41q0 -65 37.5 -105
t106.5 -40q92 0 139 48t68 179z" />
    <glyph glyph-name="c" unicode="c" horiz-adv-x="778" 
d="M676 283h2q45 -32 45 -99q0 -78 -75.5 -137t-196.5 -59q-127 0 -195 68t-68 184q0 72 70 483q54 319 330 319q111 0 169 -54t58 -152q0 -44 -14 -109h-103q15 79 15 109q0 114 -133 114q-169 0 -209 -235q-11 -69 -24.5 -154t-20 -123.5t-13 -82t-8.5 -66.5t-2 -41
q0 -83 41 -125.5t115 -42.5q165 0 217 203z" />
    <glyph glyph-name="d" unicode="d" horiz-adv-x="804" 
d="M680 0h-115l13 86h-5q-69 -98 -208 -98q-106 0 -164 60.5t-58 168.5q0 39 4 59l74 472q47 294 279 294q72 0 111.5 -31t39.5 -87q0 -15 -2 -23h-4q-11 20 -43.5 34.5t-77.5 14.5q-83 0 -126 -49t-62 -166l-70 -436q-6 -43 -6 -88q0 -79 34 -112t107 -33q78 0 133 50.5
t66 127.5l197 1235h116z" />
    <glyph glyph-name="e" unicode="e" horiz-adv-x="784" 
d="M721 303l-12 -84q-38 -231 -303 -231q-112 0 -182 53t-70 154q0 9 0.5 19t2.5 26.5t4 32t6.5 44t8.5 54t11 70.5t13.5 84.5t17.5 105.5t20 125q24 148 105.5 217t223.5 69q107 0 175.5 -66.5t68.5 -180.5q0 -98 -38.5 -169.5t-109.5 -112.5t-160 -60t-200 -19
q-8 -55 -17.5 -110.5t-13.5 -82t-4 -46.5q0 -59 36.5 -90t105.5 -31q161 0 184 141l14 88h113zM354 756l-39 -248q185 2 288.5 72.5t103.5 214.5q0 74 -36.5 117.5t-105.5 43.5q-176 0 -211 -200z" />
    <glyph glyph-name="f" unicode="f" horiz-adv-x="532" 
d="M287 0h-117l149 946h-145l12 82h146l22 148q23 151 99 227t192 76q79 0 124.5 -44t45.5 -112q0 -49 -31.5 -90t-78.5 -41q-17 0 -29 4v4q53 39 53 103q0 30 -21 51.5t-67 21.5q-69 0 -109.5 -47.5t-60.5 -163.5l-22 -137h188l-12 -82h-189z" />
    <glyph glyph-name="g" unicode="g" horiz-adv-x="827" 
d="M219 -49v-6q-57 -45 -57 -103q0 -125 213 -125q118 0 189 48t71 114q0 51 -48.5 84t-118 51.5t-139.5 38.5t-118.5 59t-48.5 99q0 63 50 107t126 53q-121 49 -121 186q0 37 29 221q21 131 110 197.5t222 66.5q118 0 184 -55q72 37 86 121l16 104h99l-17 -104
q-17 -123 -147 -162q45 -42 45 -139q0 -43 -29 -213q-23 -129 -112.5 -195.5t-221.5 -66.5q-207 0 -207 -105q0 -27 26 -46.5t67.5 -31t92 -23t100.5 -28.5t91.5 -41t67.5 -67t26 -101q0 -110 -101.5 -190t-278.5 -80q-140 0 -217.5 57t-77.5 148q0 56 44.5 93t104.5 34z
M698 598q29 174 29 209q0 73 -43.5 108t-112.5 35q-181 0 -211 -180q-28 -174 -28 -213q0 -135 157 -135q179 0 209 176z" />
    <glyph glyph-name="h" unicode="h" horiz-adv-x="804" 
d="M244 0h-117l233 1479h115l-92 -580h6q17 25 27 38t33.5 36t46 35t58 22t77.5 10q88 0 142 -54.5t54 -149.5q0 -39 -53 -350t-53 -375q0 -50 18.5 -73t61.5 -26v-10q-40 -14 -74 -14q-57 0 -90 34.5t-33 106.5q0 59 51.5 348t51.5 328q0 60 -34.5 96.5t-107.5 36.5
q-74 0 -131 -47t-69 -121z" />
    <glyph glyph-name="i" unicode="i" horiz-adv-x="425" 
d="M276 0h-116l162 1028h116zM510 1323q0 -42 -26 -68t-70 -26q-30 0 -51 19t-21 50q0 42 26 68.5t70 26.5q30 0 51 -19.5t21 -50.5z" />
    <glyph glyph-name="j" unicode="j" horiz-adv-x="487" 
d="M-14 -330l4 21q92 13 147 64.5t74 166.5l176 1106h117l-174 -1102q-23 -145 -92 -205.5t-172 -60.5q-45 0 -80 10zM575 1323q0 -42 -26 -68t-70 -26q-30 0 -50.5 19t-20.5 50q0 42 26 68.5t70 26.5q30 0 50.5 -19.5t20.5 -50.5z" />
    <glyph glyph-name="k" unicode="k" horiz-adv-x="804" 
d="M780 113h4q0 -56 -32 -90.5t-90 -34.5q-55 0 -85 35t-30 98q0 41 12 126.5t12 131.5q0 76 -34 105.5t-117 29.5h-96l-80 -514h-117l233 1479h117l-141 -893l387 442h141l-403 -442q229 0 229 -201q0 -39 -13 -123t-13 -127q0 -57 43 -57q20 0 38.5 9t26.5 17z" />
    <glyph glyph-name="l" unicode="l" horiz-adv-x="425" 
d="M276 0h-116l233 1479h117z" />
    <glyph glyph-name="m" unicode="m" horiz-adv-x="1249" 
d="M688 0h-117l119 756q6 40 6 71q0 57 -27.5 86t-93.5 29q-81 0 -135.5 -57.5t-68.5 -149.5l-115 -735h-117l162 1028h115l-21 -129h6q71 141 222 141q74 0 124 -37t60 -106q19 27 38 48t49.5 45t72.5 37t92 13q87 0 138.5 -54t51.5 -150q0 -39 -53 -350t-53 -375
q0 -50 18.5 -73t61.5 -26v-10q-40 -14 -74 -14q-57 0 -90 34.5t-33 106.5q0 59 51 345t51 325q0 66 -25 104.5t-95 38.5q-77 0 -133 -53.5t-68 -134.5z" />
    <glyph glyph-name="n" unicode="n" horiz-adv-x="804" 
d="M244 0h-117l162 1028h114l-20 -129h6q17 25 27 38t33.5 36t46 35t58 22t77.5 10q88 0 142 -54.5t54 -149.5q0 -39 -53 -350t-53 -375q0 -50 18.5 -73t61.5 -26v-10q-40 -14 -74 -14q-57 0 -90 34.5t-33 106.5q0 59 51.5 348t51.5 328q0 60 -34.5 96.5t-107.5 36.5
q-74 0 -131 -47t-69 -121z" />
    <glyph glyph-name="o" unicode="o" 
d="M360 768q-81 -516 -81 -543q0 -71 38 -108t107 -37q91 0 137.5 41t63.5 139q82 484 82 543q0 71 -39 109t-107 38q-88 0 -137 -43t-64 -139zM739 258q-48 -270 -317 -270q-118 0 -187 62t-69 167q0 13 1.5 29.5t5 44t7 54t11 75t14.5 91t19 118t22 141.5q43 272 319 272
q119 0 186.5 -63t67.5 -170q0 -79 -80 -551z" />
    <glyph glyph-name="p" unicode="p" horiz-adv-x="804" 
d="M184 -373h-116l221 1401h114l-20 -129h6q18 25 27.5 38t33 36t46.5 35t60 22t81 10q86 0 137 -58t51 -155q0 -19 -4 -51l-82 -504q-14 -84 -41.5 -141.5t-66 -87.5t-80.5 -42.5t-96 -12.5q-78 0 -124 41.5t-38 99.5h4q13 -20 45.5 -34.5t77.5 -14.5q88 0 137.5 45.5
t67.5 157.5l77 489q5 35 5 41q0 125 -142 125q-74 0 -131 -47t-69 -121z" />
    <glyph glyph-name="q" unicode="q" horiz-adv-x="804" 
d="M639 -373h-117l180 1143q3 15 3 31q0 62 -41.5 99.5t-108.5 37.5q-86 0 -132.5 -45t-57.5 -121l-78 -489q-6 -35 -6 -62q0 -76 38.5 -108.5t110.5 -32.5q45 0 82 14.5t53 34.5h4q-8 -60 -57.5 -100.5t-130.5 -40.5q-39 0 -74.5 11t-68.5 35t-52.5 70.5t-19.5 110.5
q0 33 6 76l82 508q18 109 94.5 175t171.5 66q154 0 199 -141h6l20 129h115z" />
    <glyph glyph-name="r" unicode="r" horiz-adv-x="655" 
d="M246 0h-115l162 1028h115l-37 -229h4q34 108 99.5 173.5t154.5 65.5q68 0 105.5 -36t37.5 -87q0 -65 -38 -102t-93 -37q-36 0 -66 15v4q39 9 58.5 34t19.5 58q0 49 -55 49q-82 0 -166 -144t-115 -337z" />
    <glyph glyph-name="s" unicode="s" horiz-adv-x="749" 
d="M758 727h-105q13 86 13 107q0 114 -140 114q-75 0 -121.5 -38.5t-46.5 -118.5q0 -47 26 -91.5t64.5 -78.5t84 -74t84 -77t64.5 -88.5t26 -107.5q0 -132 -85 -209t-235 -77q-120 0 -187 63t-67 152q0 75 42.5 128.5t115.5 53.5q-60 -74 -60 -166q0 -62 44.5 -100.5
t121.5 -38.5q87 0 141 46.5t54 137.5q0 41 -19 78.5t-49.5 68t-67 61t-73 63.5t-67 68.5t-49.5 83t-19 101.5q0 121 79 186.5t212 65.5q111 0 171 -52.5t60 -147.5q0 -37 -12 -113z" />
    <glyph glyph-name="t" unicode="t" horiz-adv-x="614" 
d="M227 242l113 704h-123l12 82h123l47 303h117l-47 -303h231l-12 -82h-231l-111 -700q-6 -40 -6 -70q0 -52 23.5 -75t80.5 -23q68 0 123 37q-5 -57 -47.5 -90t-118.5 -33q-85 0 -132.5 47.5t-47.5 132.5q0 32 6 70z" />
    <glyph glyph-name="u" unicode="u" horiz-adv-x="804" 
d="M698 0h-114l18 129h-6q-17 -25 -26.5 -38t-32 -36t-45.5 -35t-59.5 -22t-80.5 -10q-90 0 -140 56.5t-50 156.5q0 17 4 49l123 778h117l-123 -772q-4 -28 -4 -41q0 -125 141 -125q75 0 132 47t69 121l122 770h117z" />
    <glyph glyph-name="v" unicode="v" horiz-adv-x="763" 
d="M467 0h-148l-73 887q-3 36 -13.5 52.5t-31.5 16.5q-33 0 -64 -26h-4q10 52 41.5 78t75.5 26q95 0 104 -131l56 -772h4l340 897h120z" />
    <glyph glyph-name="w" unicode="w" horiz-adv-x="1181" 
d="M926 0h-107l-88 766h-4l-346 -766h-102v887q0 69 -46 69q-32 0 -63 -26h-4q10 51 43.5 77.5t77.5 26.5q48 0 74 -33.5t26 -97.5l-2 -657h6l340 782h70l92 -782h6l256 782h107z" />
    <glyph glyph-name="x" unicode="x" horiz-adv-x="768" 
d="M735 0h-112l-148 459h-4l-287 -459h-121l347 539l-107 348q-12 36 -23.5 52.5t-31.5 16.5q-34 0 -60 -26h-4q10 52 42.5 78t76.5 26q45 0 71 -33t42 -98l80 -278h4l241 403h131l-315 -489z" />
    <glyph glyph-name="y" unicode="y" horiz-adv-x="839" 
d="M438 -389h-110l157 418q-89 0 -128.5 61.5t-39.5 204.5v592q0 36 -10 49.5t-37 13.5q-35 0 -65 -32h-4q10 59 38.5 90.5t84.5 31.5q54 0 84 -32.5t30 -98.5q0 -95 -8 -302t-8 -314q0 -97 15 -136.5t59 -39.5h16l322 911h118z" />
    <glyph glyph-name="z" unicode="z" horiz-adv-x="677" 
d="M635 168h4q37 -25 37 -72t-29 -75.5t-88 -28.5q-40 0 -78.5 17.5t-64 38.5t-58.5 38.5t-63 17.5q-90 0 -117 -104h-98q15 101 80 205l458 731h-370l14 92h471l-14 -94l-469 -778h4q38 30 90 30q45 0 105 -41t106 -41q31 0 51.5 18t28.5 46z" />
    <glyph glyph-name="braceleft" unicode="{" horiz-adv-x="577" 
d="M453 -295l-4 -24q-127 0 -187.5 43t-60.5 137q0 88 36.5 260t36.5 266q0 73 -28 119t-82 47l8 53q69 1 116 64t62 168l64 401q20 127 96.5 183.5t222.5 56.5l-4 -25q-86 0 -123.5 -36t-52.5 -136l-74 -455q-20 -115 -87.5 -172.5t-151.5 -70.5v-4q20 -5 45 -18.5
t53 -38.5t46.5 -67.5t18.5 -95.5q0 -93 -39.5 -280t-39.5 -268q0 -59 29.5 -83t99.5 -24z" />
    <glyph glyph-name="bar" unicode="|" horiz-adv-x="495" 
d="M291 -12h-90l237 1503h90z" />
    <glyph glyph-name="braceright" unicode="}" horiz-adv-x="577" 
d="M27 -319l4 24q85 0 123 36.5t53 135.5l74 447q11 65 36.5 113.5t59.5 77t69 44t74 21.5l2 4q-22 5 -46.5 17.5t-53.5 36.5t-47.5 66t-18.5 95q0 67 40 264.5t40 286.5q0 60 -29 82t-100 22l4 25q128 0 188 -42.5t60 -136.5q0 -81 -38 -273.5t-38 -260.5
q0 -74 28.5 -116.5t82.5 -43.5l-8 -53q-143 -3 -178 -231l-64 -402q-20 -127 -95.5 -183t-221.5 -56z" />
    <glyph glyph-name="asciitilde" unicode="~" horiz-adv-x="1085" 
d="M993 647h25q-21 -122 -87 -183t-159 -61q-48 0 -96.5 16t-81.5 35.5t-77 35.5t-83 16q-107 0 -178 -117h-25q17 108 86 176t158 68q48 0 95.5 -16t80 -35.5t77 -35.5t87.5 -16q53 0 91 22t87 95z" />
    <glyph glyph-name="uni007F" horiz-adv-x="0" 
 />
    <glyph glyph-name="uni00A0" unicode="&#xa0;" horiz-adv-x="577" 
 />
    <glyph glyph-name="exclamdown" unicode="&#xa1;" horiz-adv-x="495" 
d="M338 737h37q-46 -661 -109 -1059h-155q28 177 84.5 442t99.5 441zM412 1122q39 0 62.5 -22.5t23.5 -57.5q0 -41 -30.5 -72.5t-72.5 -31.5q-39 0 -62.5 22.5t-23.5 57.5q0 42 29 73t74 31z" />
    <glyph glyph-name="cent" unicode="&#xa2;" 
d="M430 -178h-94l26 166q-96 6 -150 65.5t-54 161.5q0 21 4 53l78 488q21 134 96 204.5t192 79.5l23 142h94l-22 -142q93 -6 148.5 -60.5t55.5 -152.5q0 -35 -4 -53l-14 -92h-102l14 92q4 28 4 39q0 63 -39 98t-119 35q-189 0 -219 -203l-78 -491q-4 -24 -4 -37
q0 -62 40.5 -97.5t119.5 -35.5q92 0 146 41t65 113l16 110h103l-17 -110q-18 -107 -91.5 -174t-190.5 -74z" />
    <glyph glyph-name="sterling" unicode="&#xa3;" 
d="M780 0h-741l14 102h92l97 600h-92l14 95h92l49 311q27 166 129.5 254t257.5 88q132 0 201.5 -69t69.5 -181q0 -25 -7 -65l-14 -99h-119l15 99q6 35 6 61q0 156 -166 156q-104 0 -166 -57t-82 -183l-51 -315h295l-15 -95h-294l-97 -600h527z" />
    <glyph glyph-name="currency" unicode="&#xa4;" 
d="M772 311l-67 -57l-60 70q-92 -66 -194 -66q-121 0 -195 64l-80 -68l-47 57l78 70q-37 63 -37 149q0 133 98 240l-57 70l68 57l59 -68q97 64 207 64q108 0 182 -64l80 68l47 -57l-78 -70q37 -63 37 -149q0 -146 -98 -238zM455 340q114 0 194 82.5t80 200.5q0 86 -53.5 136
t-147.5 50q-115 0 -195.5 -80.5t-80.5 -198.5q0 -87 55 -138.5t148 -51.5z" />
    <glyph glyph-name="yen" unicode="&#xa5;" 
d="M457 0h-111l51 326h-252l15 94h252l37 237h-252l16 95h229l-159 686h112l129 -613h4l312 613h125l-371 -686h233l-16 -95h-252l-37 -237h252l-14 -94h-252z" />
    <glyph glyph-name="brokenbar" unicode="&#xa6;" horiz-adv-x="495" 
d="M291 -12h-90l88 561h90zM438 930h-90l90 561h90z" />
    <glyph glyph-name="section" unicode="&#xa7;" horiz-adv-x="669" 
d="M461 537q64 23 112 76.5t48 123.5q0 31 -12 59t-27.5 46.5t-41 37t-41 27t-38.5 19.5q-170 -73 -170 -211q0 -65 44.5 -105t125.5 -73zM147 274h9q24 -174 192 -174q80 0 134.5 45t54.5 131q0 36 -20.5 66t-53 52.5t-71.5 44.5t-78.5 47t-72 54t-53 72t-20.5 95
q0 91 56 159t151 109q-51 34 -88 86.5t-37 120.5q0 128 81.5 198t219.5 70q118 0 185 -55.5t67 -137.5q0 -13 -4 -45l-11 -71h-131l11 71q2 10 2 31q0 51 -32.5 82t-92.5 31q-75 0 -121.5 -43t-46.5 -123q0 -39 20 -71t52 -54.5t71 -44t78 -45.5t71 -51.5t52 -69t20 -92.5
q0 -92 -53.5 -165t-148.5 -110q131 -73 131 -196q0 -134 -93.5 -218.5t-234.5 -84.5q-114 0 -194 55t-80 125q0 41 21.5 70.5t57.5 35.5z" />
    <glyph glyph-name="dieresis" unicode="&#xa8;" horiz-adv-x="716" 
d="M469 1319q0 -37 -26.5 -63.5t-65.5 -26.5q-33 0 -52.5 20.5t-19.5 53.5q0 37 26.5 63.5t65.5 26.5q33 0 52.5 -20.5t19.5 -53.5zM825 1319q0 -37 -26.5 -63.5t-65.5 -26.5q-33 0 -52 20.5t-19 53.5q0 37 26.5 63.5t65.5 26.5q33 0 52 -20.5t19 -53.5z" />
    <glyph glyph-name="copyright" unicode="&#xa9;" horiz-adv-x="1679" 
d="M829 68q144 0 275 55.5t226.5 150t151.5 226t56 276.5q0 253 -146 407t-393 154q-193 0 -356.5 -95.5t-258.5 -260t-95 -358.5q0 -159 59 -282.5t183 -198t298 -74.5zM1077 553h8q24 -8 40 -30.5t16 -55.5q0 -97 -82 -157t-197 -60q-119 0 -187.5 59t-68.5 174
q0 43 51 363q25 151 107 230t209 79q119 0 179 -58t60 -167q0 -47 -8 -86h-104q6 44 6 78q0 71 -32 103t-105 32q-92 0 -138.5 -50.5t-66.5 -172.5q-49 -299 -49 -351q0 -77 36 -112t111 -35q80 0 131.5 55t83.5 162zM1632 778q0 -160 -61.5 -305.5t-167 -252t-256 -169.5
t-320.5 -63q-193 0 -338.5 84.5t-219.5 226.5t-74 319q0 155 62 300.5t168 255.5t258 176.5t323 66.5q276 0 451 -179.5t175 -459.5z" />
    <glyph glyph-name="ordfeminine" unicode="&#xaa;" horiz-adv-x="483" 
d="M567 883h-94l49 307q-82 0 -147.5 -54.5t-65.5 -140.5q0 -27 12 -42t31 -15q38 0 72 29h4q-12 -93 -111 -93q-45 0 -74.5 33t-29.5 86q0 59 25.5 104t70.5 71.5t99 39.5t118 15l17 102q2 10 2 29q0 63 -78 63q-46 0 -68 -21t-30 -67l-4 -26h-95l4 26q13 74 62 118t135 44
q74 0 121 -32.5t47 -98.5q0 -25 -2 -37z" />
    <glyph glyph-name="guillemotleft" unicode="&#xab;" horiz-adv-x="681" 
d="M330 113h-86l-99 415l228 396h94l-201 -396zM573 113h-86l-98 415l227 396h95l-201 -396z" />
    <glyph glyph-name="logicalnot" unicode="&#xac;" horiz-adv-x="1269" 
d="M1186 219h-90l82 508h-947l15 90h1036z" />
    <glyph glyph-name="uni00AD" unicode="&#xad;" horiz-adv-x="647" 
d="M647 479h-495l12 78h495z" />
    <glyph glyph-name="registered" unicode="&#xae;" horiz-adv-x="1605" 
d="M1178 344h4q-14 -82 -101 -82q-46 0 -72 25t-26 69q0 32 13.5 97t13.5 100q0 63 -37.5 84.5t-104.5 21.5h-106l-62 -391h-106l137 858h234q249 0 249 -194q0 -97 -59.5 -162t-173.5 -80q60 0 97.5 -37t37.5 -100q0 -30 -13 -96t-13 -92q0 -41 38 -41q34 0 50 20zM776 743
h113q88 0 147.5 45t59.5 136q0 123 -150 123h-123zM829 68q144 0 275 55.5t226.5 150t151.5 226t56 276.5q0 253 -146 407t-393 154q-193 0 -356.5 -95.5t-258.5 -260t-95 -358.5q0 -159 59 -282.5t183 -198t298 -74.5zM1632 778q0 -160 -61.5 -305.5t-167 -252t-256 -169.5
t-320.5 -63q-193 0 -338.5 84.5t-219.5 226.5t-74 319q0 155 62 300.5t168 255.5t258 176.5t323 66.5q276 0 451 -179.5t175 -459.5z" />
    <glyph glyph-name="macron" unicode="&#xaf;" horiz-adv-x="716" 
d="M815 1317h-500l15 90h499z" />
    <glyph glyph-name="degree" unicode="&#xb0;" horiz-adv-x="860" 
d="M588 877q-125 0 -202 80t-77 194q0 138 96 239t240 101q122 0 200.5 -75t78.5 -202q0 -145 -96.5 -241t-239.5 -96zM590 963q107 0 176.5 67.5t69.5 183.5q0 84 -52 137.5t-139 53.5q-106 0 -176 -69.5t-70 -184.5q0 -82 50.5 -135t140.5 -53z" />
    <glyph glyph-name="plusminus" unicode="&#xb1;" horiz-adv-x="972" 
d="M1024 629h-397l-66 -416h-86l66 416h-396l13 80h395l68 417h86l-68 -417h397zM926 0h-879l12 82h879z" />
    <glyph glyph-name="twosuperior" unicode="&#xb2;" horiz-adv-x="532" 
d="M639 1014h-428l12 82q31 38 100.5 123.5t116.5 144t80 102.5q34 47 55.5 82.5t40.5 88.5t19 102q0 41 -20 64.5t-58 23.5q-46 0 -71.5 -21.5t-34.5 -74.5l-15 -84h-119l15 90q12 82 73.5 127t159.5 45q89 0 138 -45t49 -127q0 -141 -125 -293l-279 -348h303z" />
    <glyph glyph-name="threesuperior" unicode="&#xb3;" horiz-adv-x="532" 
d="M578 1462v-4q102 -14 102 -147q0 -43 -6 -90q-20 -123 -77 -173.5t-173 -50.5q-90 0 -139 39t-49 113q0 39 12 98h119q-13 -66 -13 -96q0 -82 78 -82q54 0 80.5 24.5t36.5 90.5q18 117 18 137q0 43 -25 70.5t-79 27.5h-51l12 82h59q62 0 90.5 25t38.5 90q19 120 19 137
q0 32 -20.5 54t-55.5 22q-51 0 -77 -27t-34 -80l-8 -53h-119l9 53q12 85 73 132t160 47q186 0 186 -172q0 -26 -12 -101q-16 -84 -55.5 -119.5t-99.5 -46.5z" />
    <glyph glyph-name="acute" unicode="&#xb4;" horiz-adv-x="716" 
d="M565 1223h-92l121 258h125z" />
    <glyph glyph-name="mu" unicode="&#xb5;" horiz-adv-x="804" 
d="M698 0h-114l18 129h-6q-93 -141 -207 -141q-100 0 -135 88l-70 -449h-116l221 1401h117l-123 -772q-2 -10 -2 -31q0 -60 36.5 -97.5t102.5 -37.5q74 0 132.5 51.5t70.5 126.5l120 760h117z" />
    <glyph glyph-name="paragraph" unicode="&#xb6;" horiz-adv-x="819" 
d="M700 0h-118l217 1376h-168l-217 -1376h-119l131 838q-90 0 -143.5 69t-53.5 176q0 103 46 193t133.5 146.5t197.5 56.5h328z" />
    <glyph glyph-name="middot" unicode="&#xb7;" horiz-adv-x="716" 
d="M545 672q-6 -37 -33 -59.5t-61 -22.5t-55 22.5t-15 59.5t34 59.5t62 22.5t54 -22.5t14 -59.5z" />
    <glyph glyph-name="cedilla" unicode="&#xb8;" horiz-adv-x="716" 
d="M197 -342l2 4q24 -4 41 -4q52 0 81 34.5t29 88.5q0 78 -69 117l55 118h90l-55 -102q28 -15 48.5 -58t20.5 -92q0 -72 -42 -123t-115 -51q-40 0 -63 20.5t-23 47.5z" />
    <glyph glyph-name="onesuperior" unicode="&#xb9;" horiz-adv-x="532" 
d="M520 1008h-112l116 745h-4l-155 -53l12 80l215 100h65z" />
    <glyph glyph-name="ordmasculine" unicode="&#xba;" horiz-adv-x="532" 
d="M664 1309l-43 -269q-25 -166 -209 -166q-80 0 -124 39t-44 105q0 23 2 35l43 266q12 78 67.5 125t143.5 47q81 0 123.5 -41.5t42.5 -103.5q0 -25 -2 -37zM526 1044l43 271q2 10 2 31q0 81 -77 81q-94 0 -113 -112l-43 -271q-2 -10 -2 -26q0 -80 80 -80q95 0 110 106z" />
    <glyph glyph-name="guillemotright" unicode="&#xbb;" horiz-adv-x="681" 
d="M471 113h-92l201 395l-66 416h86l100 -416zM227 113h-92l201 395l-66 416h86l101 -416z" />
    <glyph glyph-name="onequarter" unicode="&#xbc;" horiz-adv-x="1064" 
d="M950 0h-112l32 209h-297l11 74l420 589h83l-92 -585h64l-12 -78h-64zM883 287l55 358h-2l-252 -358h199zM428 610h-113l117 746h-4l-156 -53l13 79l215 101h65zM352 -12h-100l700 1503h103z" />
    <glyph glyph-name="onehalf" unicode="&#xbd;" horiz-adv-x="1153" 
d="M428 610h-113l117 746h-4l-156 -53l13 79l215 101h65zM352 -12h-100l700 1503h103zM1090 0h-428l12 82q266 330 297 371q53 73 83.5 137t30.5 135q0 41 -20 64.5t-57 23.5q-47 0 -72.5 -21.5t-34.5 -74.5l-14 -84h-119l14 90q12 82 74 127t160 45q89 0 137.5 -45
t48.5 -127q0 -141 -125 -293l-278 -348h303z" />
    <glyph glyph-name="threequarters" unicode="&#xbe;" horiz-adv-x="1200" 
d="M1085 0h-112l33 209h-297l10 74l420 589h84l-93 -585h64l-12 -78h-64zM1018 287l55 358h-2l-252 -358h199zM600 1120v-4q102 -14 102 -147q0 -43 -6 -90q-20 -123 -77 -173.5t-173 -50.5q-90 0 -139 39t-49 113q0 39 12 98h119q-12 -61 -12 -96q0 -82 78 -82
q54 0 80 24.5t36 90.5q19 124 19 137q0 43 -25 70.5t-80 27.5h-51l12 82h60q62 0 90.5 25t38.5 90q18 113 18 137q0 32 -20 54t-55 22q-51 0 -77 -27t-34 -80l-8 -53h-119l8 53q12 85 73 132t161 47q186 0 186 -173q0 -25 -12 -100q-16 -84 -56 -119.5t-100 -46.5zM489 -12
h-100l701 1503h102z" />
    <glyph glyph-name="questiondown" unicode="&#xbf;" horiz-adv-x="759" 
d="M475 772h82l-27 -164q-12 -77 -51 -152.5t-85 -136t-91 -119.5t-74.5 -126t-29.5 -133q0 -72 39 -114t112 -42q96 0 150.5 48.5t54.5 141.5q0 92 -57 170q63 -5 105 -53t42 -131q0 -124 -83 -206.5t-218 -82.5q-124 0 -193 72t-69 186q0 71 24 135.5t60.5 111.5
t81.5 99.5t85 97.5t72.5 108t43.5 130zM479 1038q0 38 25 64t69 26q33 0 51.5 -20.5t18.5 -52.5q0 -38 -26.5 -65t-69.5 -27q-29 0 -48.5 22t-19.5 53z" />
    <glyph glyph-name="Agrave" unicode="&#xc0;" horiz-adv-x="911" 
d="M840 0h-119l-23 391h-356l-141 -391h-129l546 1438h121zM692 494l-41 727h-6l-266 -727h313zM754 1536h-90l-95 258h115z" />
    <glyph glyph-name="Aacute" unicode="&#xc1;" horiz-adv-x="911" 
d="M840 0h-119l-23 391h-356l-141 -391h-129l546 1438h121zM692 494l-41 727h-6l-266 -727h313zM754 1536h-92l120 258h125z" />
    <glyph glyph-name="Acircumflex" unicode="&#xc2;" horiz-adv-x="911" 
d="M840 0h-119l-23 391h-356l-141 -391h-129l546 1438h121zM692 494l-41 727h-6l-266 -727h313zM946 1516l-229 122l-271 -122l11 94l256 131h8l237 -131z" />
    <glyph glyph-name="Atilde" unicode="&#xc3;" horiz-adv-x="911" 
d="M840 0h-119l-23 391h-356l-141 -391h-129l546 1438h121zM692 494l-41 727h-6l-266 -727h313zM899 1710h70q-19 -89 -59.5 -135.5t-118.5 -46.5q-39 0 -74 19t-65.5 38t-59.5 19q-62 0 -84 -88h-70q19 90 64.5 136t113.5 46q40 0 79.5 -19t72 -38t55.5 -19q25 0 45 24
t31 64z" />
    <glyph glyph-name="Adieresis" unicode="&#xc4;" horiz-adv-x="911" 
d="M840 0h-119l-23 391h-356l-141 -391h-129l546 1438h121zM692 494l-41 727h-6l-266 -727h313zM616 1634q0 -37 -26.5 -63.5t-65.5 -26.5q-33 0 -52 20.5t-19 53.5q0 37 26.5 63.5t65.5 26.5q33 0 52 -20.5t19 -53.5zM973 1634q0 -37 -26.5 -63.5t-65.5 -26.5
q-33 0 -52.5 20.5t-19.5 53.5q0 37 26.5 63.5t65.5 26.5q33 0 52.5 -20.5t19.5 -53.5z" />
    <glyph glyph-name="Aring" unicode="&#xc5;" horiz-adv-x="911" 
d="M811 1552q0 2 1 7.5t1 7.5q0 40 -26.5 67t-67.5 27q-44 0 -81.5 -32.5t-43.5 -76.5q-2 -6 -2 -18q0 -38 26 -64t66 -26q44 0 82 32t45 76zM840 0h-119l-23 391h-356l-141 -391h-129l528 1382q-39 19 -61.5 56t-22.5 84q0 20 2 30q10 76 73 130.5t140 54.5q70 0 114 -45
t44 -113q0 -19 -2 -27q-9 -57 -48.5 -103t-93.5 -67zM692 494l-41 727h-6l-266 -727h313z" />
    <glyph glyph-name="AE" unicode="&#xc6;" horiz-adv-x="1269" 
d="M1264 696h-385q-25 -418 -25 -436q0 -85 31.5 -122.5t101.5 -37.5q139 0 201 125q13 -6 23 -24.5t10 -40.5q0 -79 -68.5 -125.5t-169.5 -46.5q-122 0 -189 68t-67 194q0 18 8 141h-356l-186 -391h-132l701 1438h641l-19 -113h-466l-31 -522h395zM743 494l52 757h-7
l-360 -757h315z" />
    <glyph glyph-name="Ccedilla" unicode="&#xc7;" horiz-adv-x="798" 
d="M264 -342l2 4q24 -4 41 -4q52 0 81.5 34.5t29.5 88.5q0 77 -70 117l43 94q-107 13 -161 80.5t-54 175.5q0 30 6 65l123 781q55 356 359 356q122 0 181.5 -60.5t59.5 -162.5q0 -20 -4 -56l-18 -100h-111l16 98q5 35 5 41q0 127 -146 127q-88 0 -141.5 -59t-75.5 -201
l-123 -772q-4 -36 -4 -51q0 -154 158 -154q87 0 141.5 58t81.5 145q24 -6 39.5 -26.5t15.5 -49.5q0 -90 -71 -159t-189 -78l-41 -76q28 -15 49 -58.5t21 -91.5q0 -72 -42.5 -123t-115.5 -51q-40 0 -63 20.5t-23 47.5z" />
    <glyph glyph-name="Egrave" unicode="&#xc8;" horiz-adv-x="737" 
d="M733 696h-344l-63 -401q-4 -24 -4 -49q0 -146 135 -146q138 0 200 125q13 -6 23 -24.5t10 -40.5q0 -79 -68 -125.5t-169 -46.5q-128 0 -193 67t-65 191q0 19 4 47l182 1145h491l-18 -113h-365l-81 -522h344zM715 1536h-90l-95 258h115z" />
    <glyph glyph-name="Eacute" unicode="&#xc9;" horiz-adv-x="737" 
d="M733 696h-344l-63 -401q-4 -24 -4 -49q0 -146 135 -146q138 0 200 125q13 -6 23 -24.5t10 -40.5q0 -79 -68 -125.5t-169 -46.5q-128 0 -193 67t-65 191q0 19 4 47l182 1145h491l-18 -113h-365l-81 -522h344zM680 1536h-92l121 258h125z" />
    <glyph glyph-name="Ecircumflex" unicode="&#xca;" horiz-adv-x="737" 
d="M733 696h-344l-63 -401q-4 -24 -4 -49q0 -146 135 -146q138 0 200 125q13 -6 23 -24.5t10 -40.5q0 -79 -68 -125.5t-169 -46.5q-128 0 -193 67t-65 191q0 19 4 47l182 1145h491l-18 -113h-365l-81 -522h344zM885 1516l-230 122l-270 -122l10 94l256 131h8l238 -131z" />
    <glyph glyph-name="Edieresis" unicode="&#xcb;" horiz-adv-x="737" 
d="M733 696h-344l-63 -401q-4 -24 -4 -49q0 -146 135 -146q138 0 200 125q13 -6 23 -24.5t10 -40.5q0 -79 -68 -125.5t-169 -46.5q-128 0 -193 67t-65 191q0 19 4 47l182 1145h491l-18 -113h-365l-81 -522h344zM565 1634q0 -37 -26.5 -63.5t-65.5 -26.5q-33 0 -52.5 20.5
t-19.5 53.5q0 37 27 63.5t66 26.5q33 0 52 -20.5t19 -53.5zM922 1634q0 -37 -27 -63.5t-66 -26.5q-33 0 -52 20.5t-19 53.5q0 37 26.5 63.5t65.5 26.5q33 0 52.5 -20.5t19.5 -53.5z" />
    <glyph glyph-name="Igrave" unicode="&#xcc;" horiz-adv-x="454" 
d="M291 0h-127l227 1438h127zM537 1536h-91l-94 258h115z" />
    <glyph glyph-name="Iacute" unicode="&#xcd;" horiz-adv-x="454" 
d="M291 0h-127l227 1438h127zM485 1536h-92l121 258h125z" />
    <glyph glyph-name="Icircumflex" unicode="&#xce;" horiz-adv-x="454" 
d="M291 0h-127l227 1438h127zM719 1516l-230 122l-270 -122l10 94l256 131h9l237 -131z" />
    <glyph glyph-name="Idieresis" unicode="&#xcf;" horiz-adv-x="454" 
d="M291 0h-127l227 1438h127zM387 1634q0 -37 -26.5 -63.5t-65.5 -26.5q-33 0 -52.5 20.5t-19.5 53.5q0 37 26.5 63.5t65.5 26.5q33 0 52.5 -20.5t19.5 -53.5zM743 1634q0 -37 -26.5 -63.5t-65.5 -26.5q-33 0 -52 20.5t-19 53.5q0 37 26.5 63.5t65.5 26.5q33 0 52 -20.5
t19 -53.5z" />
    <glyph glyph-name="Eth" unicode="&#xd0;" horiz-adv-x="911" 
d="M356 0h-202l102 651h-135l14 90h135l111 697h188q371 0 371 -332q0 -70 -94 -678q-37 -231 -159.5 -329.5t-330.5 -98.5zM297 113h55q166 0 253.5 76.5t113.5 240.5q96 607 96 657q0 126 -62 182t-206 56h-58l-92 -584h238l-14 -90h-238z" />
    <glyph glyph-name="Ntilde" unicode="&#xd1;" horiz-adv-x="972" 
d="M819 0h-86l-272 1145h-8l-181 -1145h-118l227 1438h127l246 -1047h8l166 1047h119zM928 1708h69q-19 -89 -59.5 -135.5t-118.5 -46.5q-39 0 -73.5 19t-65 38t-59.5 19q-62 0 -84 -89h-70q19 90 64.5 136.5t113.5 46.5q40 0 79.5 -19t72 -38t55.5 -19q25 0 45 24t31 64z
" />
    <glyph glyph-name="Ograve" unicode="&#xd2;" horiz-adv-x="921" 
d="M676 1450q143 0 215 -72.5t72 -210.5q0 -41 -16.5 -161.5t-34 -232t-42.5 -261t-30 -180.5q-18 -115 -57 -188.5t-114.5 -114.5t-191.5 -41q-145 0 -217 76.5t-72 211.5q0 47 14 153.5t30 205.5t42.5 256.5t38.5 232.5q26 168 113.5 247t249.5 79zM483 100
q105 0 160 55.5t74 176.5q5 31 23 140t32.5 197.5t30.5 195t25.5 185t9.5 113.5q0 84 -44 129t-128 45q-197 0 -232 -221q-10 -67 -48 -292.5t-56.5 -355t-18.5 -187.5q0 -87 46 -134t126 -47zM725 1536h-90l-94 258h114z" />
    <glyph glyph-name="Oacute" unicode="&#xd3;" horiz-adv-x="921" 
d="M676 1450q143 0 215 -72.5t72 -210.5q0 -41 -16.5 -161.5t-34 -232t-42.5 -261t-30 -180.5q-18 -115 -57 -188.5t-114.5 -114.5t-191.5 -41q-145 0 -217 76.5t-72 211.5q0 47 14 153.5t30 205.5t42.5 256.5t38.5 232.5q26 168 113.5 247t249.5 79zM483 100
q105 0 160 55.5t74 176.5q5 31 23 140t32.5 197.5t30.5 195t25.5 185t9.5 113.5q0 84 -44 129t-128 45q-197 0 -232 -221q-10 -67 -48 -292.5t-56.5 -355t-18.5 -187.5q0 -87 46 -134t126 -47zM743 1536h-92l121 258h125z" />
    <glyph glyph-name="Ocircumflex" unicode="&#xd4;" horiz-adv-x="921" 
d="M676 1450q143 0 215 -72.5t72 -210.5q0 -41 -16.5 -161.5t-34 -232t-42.5 -261t-30 -180.5q-18 -115 -57 -188.5t-114.5 -114.5t-191.5 -41q-145 0 -217 76.5t-72 211.5q0 47 14 153.5t30 205.5t42.5 256.5t38.5 232.5q26 168 113.5 247t249.5 79zM483 100
q105 0 160 55.5t74 176.5q5 31 23 140t32.5 197.5t30.5 195t25.5 185t9.5 113.5q0 84 -44 129t-128 45q-197 0 -232 -221q-10 -67 -48 -292.5t-56.5 -355t-18.5 -187.5q0 -87 46 -134t126 -47zM938 1516l-229 122l-271 -122l11 94l256 131h8l237 -131z" />
    <glyph glyph-name="Otilde" unicode="&#xd5;" horiz-adv-x="921" 
d="M676 1450q143 0 215 -72.5t72 -210.5q0 -41 -16.5 -161.5t-34 -232t-42.5 -261t-30 -180.5q-18 -115 -57 -188.5t-114.5 -114.5t-191.5 -41q-145 0 -217 76.5t-72 211.5q0 47 14 153.5t30 205.5t42.5 256.5t38.5 232.5q26 168 113.5 247t249.5 79zM483 100
q105 0 160 55.5t74 176.5q5 31 23 140t32.5 197.5t30.5 195t25.5 185t9.5 113.5q0 84 -44 129t-128 45q-197 0 -232 -221q-10 -67 -48 -292.5t-56.5 -355t-18.5 -187.5q0 -87 46 -134t126 -47zM901 1708h70q-19 -89 -59.5 -135.5t-118.5 -46.5q-39 0 -74 19t-65.5 38
t-59.5 19q-62 0 -84 -89h-70q19 90 64.5 136.5t113.5 46.5q40 0 79.5 -19t72 -38t55.5 -19q25 0 45 24t31 64z" />
    <glyph glyph-name="Odieresis" unicode="&#xd6;" horiz-adv-x="921" 
d="M676 1450q143 0 215 -72.5t72 -210.5q0 -41 -16.5 -161.5t-34 -232t-42.5 -261t-30 -180.5q-18 -115 -57 -188.5t-114.5 -114.5t-191.5 -41q-145 0 -217 76.5t-72 211.5q0 47 14 153.5t30 205.5t42.5 256.5t38.5 232.5q26 168 113.5 247t249.5 79zM483 100
q105 0 160 55.5t74 176.5q5 31 23 140t32.5 197.5t30.5 195t25.5 185t9.5 113.5q0 84 -44 129t-128 45q-197 0 -232 -221q-10 -67 -48 -292.5t-56.5 -355t-18.5 -187.5q0 -87 46 -134t126 -47zM612 1634q0 -37 -26.5 -63.5t-65.5 -26.5q-33 0 -52 20.5t-19 53.5
q0 37 26.5 63.5t65.5 26.5q33 0 52 -20.5t19 -53.5zM969 1634q0 -37 -26.5 -63.5t-65.5 -26.5q-33 0 -52.5 20.5t-19.5 53.5q0 37 26.5 63.5t65.5 26.5q33 0 52.5 -20.5t19.5 -53.5z" />
    <glyph glyph-name="multiply" unicode="&#xd7;" horiz-adv-x="1269" 
d="M1094 137l-66 -57l-317 377l-420 -361l-58 66l422 360l-317 377l65 57l318 -376l420 360l57 -66l-420 -360z" />
    <glyph glyph-name="Oslash" unicode="&#xd8;" horiz-adv-x="921" 
d="M250 -70h-96l77 168q-45 68 -45 176q0 47 13.5 154t28 198t42 258.5t37.5 229.5q26 169 117 252.5t252 83.5q89 0 160 -33l53 115h100l-80 -174q56 -71 56 -191q0 -53 -22 -205t-61 -381.5t-40 -238.5q-28 -176 -112 -265t-253 -89q-115 0 -180 45zM834 1194l-482 -1040
q45 -54 131 -54q104 0 157.5 55t72.5 177q5 32 30.5 183t43 258.5t33.5 227t16 162.5q0 5 -1 15.5t-1 15.5zM313 276l469 1024q-40 37 -116 37q-195 0 -230 -221q-11 -69 -48.5 -292.5t-56 -353t-18.5 -187.5v-7z" />
    <glyph glyph-name="Ugrave" unicode="&#xd9;" horiz-adv-x="962" 
d="M733 326l176 1112h127l-178 -1116q-11 -68 -34 -123.5t-64.5 -105t-109.5 -77.5t-158 -28q-149 0 -220 77.5t-71 200.5q0 44 6 78l174 1094h127l-174 -1100q-6 -30 -6 -72q0 -164 168 -164q110 0 164.5 55.5t72.5 168.5zM778 1536h-90l-94 258h115z" />
    <glyph glyph-name="Uacute" unicode="&#xda;" horiz-adv-x="962" 
d="M733 326l176 1112h127l-178 -1116q-11 -68 -34 -123.5t-64.5 -105t-109.5 -77.5t-158 -28q-149 0 -220 77.5t-71 200.5q0 44 6 78l174 1094h127l-174 -1100q-6 -30 -6 -72q0 -164 168 -164q110 0 164.5 55.5t72.5 168.5zM764 1536h-92l121 258h125z" />
    <glyph glyph-name="Ucircumflex" unicode="&#xdb;" horiz-adv-x="962" 
d="M733 326l176 1112h127l-178 -1116q-11 -68 -34 -123.5t-64.5 -105t-109.5 -77.5t-158 -28q-149 0 -220 77.5t-71 200.5q0 44 6 78l174 1094h127l-174 -1100q-6 -30 -6 -72q0 -164 168 -164q110 0 164.5 55.5t72.5 168.5zM967 1513l-230 123l-270 -123l10 95l256 131h8
l238 -131z" />
    <glyph glyph-name="Udieresis" unicode="&#xdc;" horiz-adv-x="962" 
d="M733 326l176 1112h127l-178 -1116q-11 -68 -34 -123.5t-64.5 -105t-109.5 -77.5t-158 -28q-149 0 -220 77.5t-71 200.5q0 44 6 78l174 1094h127l-174 -1100q-6 -30 -6 -72q0 -164 168 -164q110 0 164.5 55.5t72.5 168.5zM637 1634q0 -37 -26.5 -63.5t-65.5 -26.5
q-33 0 -52.5 20.5t-19.5 53.5q0 37 26.5 63.5t65.5 26.5q33 0 52.5 -20.5t19.5 -53.5zM993 1634q0 -37 -26.5 -63.5t-65.5 -26.5q-33 0 -52.5 20.5t-19.5 53.5q0 37 27 63.5t66 26.5q33 0 52 -20.5t19 -53.5z" />
    <glyph glyph-name="Yacute" unicode="&#xdd;" horiz-adv-x="880" 
d="M526 0h-127l86 547l-118 749q-9 60 -50 60q-33 0 -67 -27q11 54 42 84.5t77 30.5q61 0 82.5 -31.5t31.5 -114.5l88 -596l342 736h123l-424 -891zM731 1536h-92l121 258h125z" />
    <glyph glyph-name="Thorn" unicode="&#xde;" horiz-adv-x="878" 
d="M283 0h-127l227 1438h127l-45 -287h72q176 0 282.5 -95t106.5 -272q0 -194 -104 -309t-302 -115q-78 0 -125 23v4q88 9 159.5 36t126 74t84.5 119.5t30 165.5q0 254 -283 254h-66z" />
    <glyph glyph-name="germandbls" unicode="&#xdf;" horiz-adv-x="878" 
d="M207 0h-117l184 1167q27 166 112.5 245t246.5 79q128 0 197 -65t69 -181q0 -57 -4 -86l-23 -145q-46 -11 -81 -24.5t-72.5 -37t-58.5 -61t-21 -86.5q0 -56 34 -123.5t74.5 -121.5t74.5 -127t34 -140q0 -136 -81 -220.5t-230 -84.5q-105 0 -162 34t-57 80q0 32 18 56
t47 28h8q3 -48 41.5 -77t106.5 -29q87 0 138.5 55t51.5 146q0 47 -21.5 101t-52.5 103.5t-62.5 100t-53 108.5t-21.5 111q0 97 65.5 162.5t170.5 91.5l16 98q6 43 6 78q0 79 -40 116.5t-126 37.5q-99 0 -154 -56t-73 -166z" />
    <glyph glyph-name="agrave" unicode="&#xe0;" horiz-adv-x="774" 
d="M672 0h-117l80 510q-85 -1 -153.5 -18t-122.5 -53.5t-83.5 -98.5t-29.5 -147q0 -63 31 -94t83 -31q76 0 140 41h8q-13 -52 -60.5 -87.5t-128.5 -35.5q-83 0 -138.5 57.5t-55.5 155.5q0 97 42.5 170.5t116.5 116.5t164.5 64t196.5 21l37 236q4 24 4 37q0 59 -34.5 90
t-98.5 31q-75 0 -127.5 -40.5t-65.5 -123.5l-10 -74h-108l14 82q18 111 95.5 172t211.5 61q112 0 174 -53.5t62 -146.5q0 -15 -4 -51zM664 1223h-91l-94 258h115z" />
    <glyph glyph-name="aacute" unicode="&#xe1;" horiz-adv-x="774" 
d="M672 0h-117l80 510q-85 -1 -153.5 -18t-122.5 -53.5t-83.5 -98.5t-29.5 -147q0 -63 31 -94t83 -31q76 0 140 41h8q-13 -52 -60.5 -87.5t-128.5 -35.5q-83 0 -138.5 57.5t-55.5 155.5q0 97 42.5 170.5t116.5 116.5t164.5 64t196.5 21l37 236q4 24 4 37q0 59 -34.5 90
t-98.5 31q-75 0 -127.5 -40.5t-65.5 -123.5l-10 -74h-108l14 82q18 111 95.5 172t211.5 61q112 0 174 -53.5t62 -146.5q0 -15 -4 -51zM643 1223h-92l121 258h125z" />
    <glyph glyph-name="acircumflex" unicode="&#xe2;" horiz-adv-x="774" 
d="M672 0h-117l80 510q-85 -1 -153.5 -18t-122.5 -53.5t-83.5 -98.5t-29.5 -147q0 -63 31 -94t83 -31q76 0 140 41h8q-13 -52 -60.5 -87.5t-128.5 -35.5q-83 0 -138.5 57.5t-55.5 155.5q0 97 42.5 170.5t116.5 116.5t164.5 64t196.5 21l37 236q4 24 4 37q0 59 -34.5 90
t-98.5 31q-75 0 -127.5 -40.5t-65.5 -123.5l-10 -74h-108l14 82q18 111 95.5 172t211.5 61q112 0 174 -53.5t62 -146.5q0 -15 -4 -51zM848 1223l-230 123l-270 -123l10 94l256 131h9l237 -131z" />
    <glyph glyph-name="atilde" unicode="&#xe3;" horiz-adv-x="774" 
d="M672 0h-117l80 510q-85 -1 -153.5 -18t-122.5 -53.5t-83.5 -98.5t-29.5 -147q0 -63 31 -94t83 -31q76 0 140 41h8q-13 -52 -60.5 -87.5t-128.5 -35.5q-83 0 -138.5 57.5t-55.5 155.5q0 97 42.5 170.5t116.5 116.5t164.5 64t196.5 21l37 236q4 24 4 37q0 59 -34.5 90
t-98.5 31q-75 0 -127.5 -40.5t-65.5 -123.5l-10 -74h-108l14 82q18 111 95.5 172t211.5 61q112 0 174 -53.5t62 -146.5q0 -15 -4 -51zM807 1450h70q-19 -89 -60 -135.5t-119 -46.5q-39 0 -73.5 19t-65 37.5t-59.5 18.5q-62 0 -84 -88h-70q19 90 64.5 136.5t113.5 46.5
q40 0 79.5 -19t72 -38t55.5 -19q25 0 45 24t31 64z" />
    <glyph glyph-name="adieresis" unicode="&#xe4;" horiz-adv-x="774" 
d="M672 0h-117l80 510q-85 -1 -153.5 -18t-122.5 -53.5t-83.5 -98.5t-29.5 -147q0 -63 31 -94t83 -31q76 0 140 41h8q-13 -52 -60.5 -87.5t-128.5 -35.5q-83 0 -138.5 57.5t-55.5 155.5q0 97 42.5 170.5t116.5 116.5t164.5 64t196.5 21l37 236q4 24 4 37q0 59 -34.5 90
t-98.5 31q-75 0 -127.5 -40.5t-65.5 -123.5l-10 -74h-108l14 82q18 111 95.5 172t211.5 61q112 0 174 -53.5t62 -146.5q0 -15 -4 -51zM512 1319q0 -37 -26.5 -63.5t-65.5 -26.5q-33 0 -52.5 20.5t-19.5 53.5q0 37 26.5 63.5t65.5 26.5q33 0 52.5 -20.5t19.5 -53.5zM868 1319
q0 -37 -26.5 -63.5t-65.5 -26.5q-33 0 -52 20.5t-19 53.5q0 37 26.5 63.5t65.5 26.5q33 0 52 -20.5t19 -53.5z" />
    <glyph glyph-name="aring" unicode="&#xe5;" horiz-adv-x="774" 
d="M672 0h-117l80 510q-85 -1 -153.5 -18t-122.5 -53.5t-83.5 -98.5t-29.5 -147q0 -63 31 -94t83 -31q76 0 140 41h8q-13 -52 -60.5 -87.5t-128.5 -35.5q-83 0 -138.5 57.5t-55.5 155.5q0 97 42.5 170.5t116.5 116.5t164.5 64t196.5 21l37 236q4 24 4 37q0 59 -34.5 90
t-98.5 31q-75 0 -127.5 -40.5t-65.5 -123.5l-10 -74h-108l14 82q18 111 95.5 172t211.5 61q112 0 174 -53.5t62 -146.5q0 -15 -4 -51zM807 1358q0 -84 -55 -138.5t-142 -54.5q-73 0 -122.5 51.5t-49.5 122.5q0 81 56.5 138t142.5 57q76 0 123 -46.5t47 -129.5zM729 1354
q0 50 -25 77t-71 27q-52 0 -84.5 -32t-32.5 -85q0 -42 24.5 -71t71.5 -29q54 0 85.5 31.5t31.5 81.5z" />
    <glyph glyph-name="ae" unicode="&#xe6;" horiz-adv-x="1230" 
d="M1167 303l-14 -92q-35 -223 -299 -223q-112 0 -184 54t-72 155q0 21 4 51t17.5 107t23.5 145q-63 -1 -118 -10t-107.5 -31.5t-89.5 -56t-59.5 -86.5t-22.5 -121q0 -63 31 -95t83 -32q76 0 140 41h8q-13 -52 -60.5 -87.5t-128.5 -35.5q-84 0 -139 53.5t-55 150.5t45 172.5
t121 120t168.5 66.5t195.5 22l35 222q4 24 4 36q0 60 -34 93.5t-97 33.5q-168 0 -192 -155l-11 -74h-108l10 70q37 245 311 245q158 0 201 -104q91 104 244 104q107 0 175.5 -62t68.5 -167q0 -99 -40 -172t-111.5 -115t-160.5 -62t-198 -20q-6 -36 -16 -96.5t-15.5 -95.5
t-5.5 -51q0 -59 34.5 -93t104.5 -34q166 0 186 141l15 88h112zM801 756l-37 -240q385 0 385 291q0 69 -33.5 109t-97.5 40q-185 0 -217 -200z" />
    <glyph glyph-name="ccedilla" unicode="&#xe7;" horiz-adv-x="778" 
d="M238 -342l2 4q24 -4 41 -4q52 0 81 34.5t29 88.5q0 78 -69 117l45 100q-87 20 -133 83.5t-46 158.5q0 72 70 483q54 319 330 319q111 0 169 -54t58 -152q0 -44 -14 -109h-103q15 79 15 109q0 114 -133 114q-169 0 -209 -235q-11 -69 -24.5 -154t-20 -123.5t-13 -82
t-8.5 -66.5t-2 -41q0 -83 41 -125.5t115 -42.5q71 0 132 54.5t85 148.5h2q45 -32 45 -99q0 -75 -81 -135.5t-191 -60.5l-39 -74q28 -15 48.5 -58t20.5 -92q0 -72 -42 -123t-115 -51q-40 0 -63 20.5t-23 47.5z" />
    <glyph glyph-name="egrave" unicode="&#xe8;" horiz-adv-x="784" 
d="M721 303l-12 -84q-38 -231 -303 -231q-112 0 -182 53t-70 154q0 9 0.5 19t2.5 26.5t4 32t6.5 44t8.5 54t11 70.5t13.5 84.5t17.5 105.5t20 125q24 148 105.5 217t223.5 69q107 0 175.5 -66.5t68.5 -180.5q0 -98 -38.5 -169.5t-109.5 -112.5t-160 -60t-200 -19
q-8 -55 -17.5 -110.5t-13.5 -82t-4 -46.5q0 -59 36.5 -90t105.5 -31q161 0 184 141l14 88h113zM354 756l-39 -248q185 2 288.5 72.5t103.5 214.5q0 74 -36.5 117.5t-105.5 43.5q-176 0 -211 -200zM639 1223h-90l-94 258h114z" />
    <glyph glyph-name="eacute" unicode="&#xe9;" horiz-adv-x="784" 
d="M721 303l-12 -84q-38 -231 -303 -231q-112 0 -182 53t-70 154q0 9 0.5 19t2.5 26.5t4 32t6.5 44t8.5 54t11 70.5t13.5 84.5t17.5 105.5t20 125q24 148 105.5 217t223.5 69q107 0 175.5 -66.5t68.5 -180.5q0 -98 -38.5 -169.5t-109.5 -112.5t-160 -60t-200 -19
q-8 -55 -17.5 -110.5t-13.5 -82t-4 -46.5q0 -59 36.5 -90t105.5 -31q161 0 184 141l14 88h113zM354 756l-39 -248q185 2 288.5 72.5t103.5 214.5q0 74 -36.5 117.5t-105.5 43.5q-176 0 -211 -200zM614 1223h-92l121 258h125z" />
    <glyph glyph-name="ecircumflex" unicode="&#xea;" horiz-adv-x="784" 
d="M721 303l-12 -84q-38 -231 -303 -231q-112 0 -182 53t-70 154q0 9 0.5 19t2.5 26.5t4 32t6.5 44t8.5 54t11 70.5t13.5 84.5t17.5 105.5t20 125q24 148 105.5 217t223.5 69q107 0 175.5 -66.5t68.5 -180.5q0 -98 -38.5 -169.5t-109.5 -112.5t-160 -60t-200 -19
q-8 -55 -17.5 -110.5t-13.5 -82t-4 -46.5q0 -59 36.5 -90t105.5 -31q161 0 184 141l14 88h113zM354 756l-39 -248q185 2 288.5 72.5t103.5 214.5q0 74 -36.5 117.5t-105.5 43.5q-176 0 -211 -200zM842 1223l-230 123l-270 -123l10 94l256 131h8l238 -131z" />
    <glyph glyph-name="edieresis" unicode="&#xeb;" horiz-adv-x="784" 
d="M721 303l-12 -84q-38 -231 -303 -231q-112 0 -182 53t-70 154q0 9 0.5 19t2.5 26.5t4 32t6.5 44t8.5 54t11 70.5t13.5 84.5t17.5 105.5t20 125q24 148 105.5 217t223.5 69q107 0 175.5 -66.5t68.5 -180.5q0 -98 -38.5 -169.5t-109.5 -112.5t-160 -60t-200 -19
q-8 -55 -17.5 -110.5t-13.5 -82t-4 -46.5q0 -59 36.5 -90t105.5 -31q161 0 184 141l14 88h113zM354 756l-39 -248q185 2 288.5 72.5t103.5 214.5q0 74 -36.5 117.5t-105.5 43.5q-176 0 -211 -200zM508 1319q0 -37 -26.5 -63.5t-65.5 -26.5q-33 0 -52.5 20.5t-19.5 53.5
q0 37 26.5 63.5t65.5 26.5q33 0 52.5 -20.5t19.5 -53.5zM864 1319q0 -37 -26.5 -63.5t-65.5 -26.5q-33 0 -52.5 20.5t-19.5 53.5q0 37 27 63.5t66 26.5q33 0 52 -20.5t19 -53.5z" />
    <glyph glyph-name="igrave" unicode="&#xec;" horiz-adv-x="425" 
d="M276 0h-116l162 1028h116zM465 1223h-90l-94 258h114z" />
    <glyph glyph-name="iacute" unicode="&#xed;" horiz-adv-x="425" 
d="M276 0h-116l162 1028h116zM449 1223h-93l121 258h125z" />
    <glyph glyph-name="icircumflex" unicode="&#xee;" horiz-adv-x="425" 
d="M276 0h-116l162 1028h116zM664 1223l-230 123l-270 -123l10 94l256 131h8l238 -131z" />
    <glyph glyph-name="idieresis" unicode="&#xef;" horiz-adv-x="425" 
d="M276 0h-116l162 1028h116zM330 1319q0 -37 -26.5 -63.5t-65.5 -26.5q-33 0 -52.5 20.5t-19.5 53.5q0 37 26.5 63.5t65.5 26.5q33 0 52.5 -20.5t19.5 -53.5zM686 1319q0 -37 -26.5 -63.5t-65.5 -26.5q-33 0 -52.5 20.5t-19.5 53.5q0 37 26.5 63.5t65.5 26.5
q33 0 52.5 -20.5t19.5 -53.5z" />
    <glyph glyph-name="eth" unicode="&#xf0;" horiz-adv-x="804" 
d="M842 795l-82 -510q-21 -137 -110.5 -217t-248.5 -80q-125 0 -197.5 69.5t-72.5 184.5q0 17 4 53l70 448q23 142 115.5 219.5t230.5 77.5q87 0 139.5 -35t67.5 -85l4 4q8 47 8 98q0 143 -72 250l-186 -96l-31 59l176 90q-52 57 -139 105l60 61q101 -50 161 -121l189 96
l30 -59l-178 -92q80 -129 80 -318q0 -94 -18 -202zM649 283l76 473q2 12 2 32q0 68 -46.5 113t-131.5 45q-104 0 -161.5 -55t-72.5 -146l-71 -452q-4 -28 -4 -43q0 -77 42 -122.5t128 -45.5q210 0 239 201z" />
    <glyph glyph-name="ntilde" unicode="&#xf1;" horiz-adv-x="804" 
d="M244 0h-117l162 1028h114l-20 -129h6q17 25 27 38t33.5 36t46 35t58 22t77.5 10q88 0 142 -54.5t54 -149.5q0 -39 -53 -350t-53 -375q0 -50 18.5 -73t61.5 -26v-10q-40 -14 -74 -14q-57 0 -90 34.5t-33 106.5q0 59 51.5 348t51.5 328q0 60 -34.5 96.5t-107.5 36.5
q-74 0 -131 -47t-69 -121zM786 1450h70q-19 -89 -59.5 -135.5t-118.5 -46.5q-39 0 -74 19t-65.5 37.5t-59.5 18.5q-62 0 -84 -88h-69q19 90 64.5 136.5t113.5 46.5q40 0 79.5 -19t72 -38t55.5 -19q51 0 75 88z" />
    <glyph glyph-name="ograve" unicode="&#xf2;" 
d="M360 768q-81 -516 -81 -543q0 -71 38 -108t107 -37q91 0 137.5 41t63.5 139q82 484 82 543q0 71 -39 109t-107 38q-88 0 -137 -43t-64 -139zM739 258q-48 -270 -317 -270q-118 0 -187 62t-69 167q0 13 1.5 29.5t5 44t7 54t11 75t14.5 91t19 118t22 141.5q43 272 319 272
q119 0 186.5 -63t67.5 -170q0 -79 -80 -551zM659 1223h-90l-94 258h115z" />
    <glyph glyph-name="oacute" unicode="&#xf3;" 
d="M360 768q-81 -516 -81 -543q0 -71 38 -108t107 -37q91 0 137.5 41t63.5 139q82 484 82 543q0 71 -39 109t-107 38q-88 0 -137 -43t-64 -139zM739 258q-48 -270 -317 -270q-118 0 -187 62t-69 167q0 13 1.5 29.5t5 44t7 54t11 75t14.5 91t19 118t22 141.5q43 272 319 272
q119 0 186.5 -63t67.5 -170q0 -79 -80 -551zM637 1223h-92l121 258h125z" />
    <glyph glyph-name="ocircumflex" unicode="&#xf4;" 
d="M360 768q-81 -516 -81 -543q0 -71 38 -108t107 -37q91 0 137.5 41t63.5 139q82 484 82 543q0 71 -39 109t-107 38q-88 0 -137 -43t-64 -139zM739 258q-48 -270 -317 -270q-118 0 -187 62t-69 167q0 13 1.5 29.5t5 44t7 54t11 75t14.5 91t19 118t22 141.5q43 272 319 272
q119 0 186.5 -63t67.5 -170q0 -79 -80 -551zM856 1223l-229 123l-271 -123l11 94l256 131h8l237 -131z" />
    <glyph glyph-name="otilde" unicode="&#xf5;" 
d="M360 768q-81 -516 -81 -543q0 -71 38 -108t107 -37q91 0 137.5 41t63.5 139q82 484 82 543q0 71 -39 109t-107 38q-88 0 -137 -43t-64 -139zM739 258q-48 -270 -317 -270q-118 0 -187 62t-69 167q0 13 1.5 29.5t5 44t7 54t11 75t14.5 91t19 118t22 141.5q43 272 319 272
q119 0 186.5 -63t67.5 -170q0 -79 -80 -551zM817 1450h70q-19 -89 -59.5 -135.5t-118.5 -46.5q-39 0 -74 19t-65.5 37.5t-59.5 18.5q-62 0 -84 -88h-70q19 90 65 136.5t114 46.5q40 0 79.5 -19t71.5 -38t55 -19q25 0 45 24t31 64z" />
    <glyph glyph-name="odieresis" unicode="&#xf6;" 
d="M360 768q-81 -516 -81 -543q0 -71 38 -108t107 -37q91 0 137.5 41t63.5 139q82 484 82 543q0 71 -39 109t-107 38q-88 0 -137 -43t-64 -139zM739 258q-48 -270 -317 -270q-118 0 -187 62t-69 167q0 13 1.5 29.5t5 44t7 54t11 75t14.5 91t19 118t22 141.5q43 272 319 272
q119 0 186.5 -63t67.5 -170q0 -79 -80 -551zM520 1319q0 -37 -26.5 -63.5t-65.5 -26.5q-33 0 -52.5 20.5t-19.5 53.5q0 37 27 63.5t66 26.5q33 0 52 -20.5t19 -53.5zM877 1319q0 -37 -27 -63.5t-66 -26.5q-33 0 -52 20.5t-19 53.5q0 37 26.5 63.5t65.5 26.5q33 0 52.5 -20.5
t19.5 -53.5z" />
    <glyph glyph-name="divide" unicode="&#xf7;" horiz-adv-x="1269" 
d="M1227 477h-1037l15 82h1036zM754 119q0 -48 -31 -77.5t-78 -29.5q-40 0 -67 27.5t-27 69.5q0 48 33 77t80 29q40 0 65 -26.5t25 -69.5zM881 928q0 -48 -31 -77.5t-78 -29.5q-40 0 -67 27.5t-27 69.5q0 48 33 77t80 29q40 0 65 -26.5t25 -69.5z" />
    <glyph glyph-name="oslash" unicode="&#xf8;" horiz-adv-x="804" 
d="M223 -70h-86l74 144q-45 61 -45 143q0 13 1.5 29.5t5 44t7 54t11 75t14.5 91t19 118t22 141.5q43 272 319 272q77 0 135 -28l50 94h90l-76 -143q55 -58 55 -156q0 -79 -80 -551q-48 -270 -317 -270q-90 0 -152 35zM702 846l-383 -731q35 -35 105 -35q91 0 137.5 41
t63.5 139q82 484 82 543q0 8 -5 43zM279 203l374 721q-41 26 -92 26q-88 0 -137 -43t-64 -139q-81 -516 -81 -543v-22z" />
    <glyph glyph-name="ugrave" unicode="&#xf9;" horiz-adv-x="804" 
d="M698 0h-114l18 129h-6q-17 -25 -26.5 -38t-32 -36t-45.5 -35t-59.5 -22t-80.5 -10q-90 0 -140 56.5t-50 156.5q0 17 4 49l123 778h117l-123 -772q-4 -28 -4 -41q0 -125 141 -125q75 0 132 47t69 121l122 770h117zM627 1223h-90l-95 258h115z" />
    <glyph glyph-name="uacute" unicode="&#xfa;" horiz-adv-x="804" 
d="M698 0h-114l18 129h-6q-17 -25 -26.5 -38t-32 -36t-45.5 -35t-59.5 -22t-80.5 -10q-90 0 -140 56.5t-50 156.5q0 17 4 49l123 778h117l-123 -772q-4 -28 -4 -41q0 -125 141 -125q75 0 132 47t69 121l122 770h117zM621 1223h-93l121 258h125z" />
    <glyph glyph-name="ucircumflex" unicode="&#xfb;" horiz-adv-x="804" 
d="M698 0h-114l18 129h-6q-17 -25 -26.5 -38t-32 -36t-45.5 -35t-59.5 -22t-80.5 -10q-90 0 -140 56.5t-50 156.5q0 17 4 49l123 778h117l-123 -772q-4 -28 -4 -41q0 -125 141 -125q75 0 132 47t69 121l122 770h117zM842 1223l-230 123l-270 -123l10 94l256 131h8l238 -131z
" />
    <glyph glyph-name="udieresis" unicode="&#xfc;" horiz-adv-x="804" 
d="M698 0h-114l18 129h-6q-17 -25 -26.5 -38t-32 -36t-45.5 -35t-59.5 -22t-80.5 -10q-90 0 -140 56.5t-50 156.5q0 17 4 49l123 778h117l-123 -772q-4 -28 -4 -41q0 -125 141 -125q75 0 132 47t69 121l122 770h117zM514 1319q0 -37 -26.5 -63.5t-65.5 -26.5
q-33 0 -52.5 20.5t-19.5 53.5q0 37 26.5 63.5t65.5 26.5q33 0 52.5 -20.5t19.5 -53.5zM870 1319q0 -37 -26.5 -63.5t-65.5 -26.5q-33 0 -52 20.5t-19 53.5q0 37 26.5 63.5t65.5 26.5q33 0 52 -20.5t19 -53.5z" />
    <glyph glyph-name="yacute" unicode="&#xfd;" horiz-adv-x="839" 
d="M438 -389h-110l157 418q-89 0 -128.5 61.5t-39.5 204.5v592q0 36 -10 49.5t-37 13.5q-35 0 -65 -32h-4q10 59 38.5 90.5t84.5 31.5q54 0 84 -32.5t30 -98.5q0 -95 -8 -302t-8 -314q0 -97 15 -136.5t59 -39.5h16l322 911h118zM670 1223h-92l120 258h125z" />
    <glyph glyph-name="thorn" unicode="&#xfe;" horiz-adv-x="804" 
d="M184 -373h-116l297 1874h116l-96 -602h6q18 25 27.5 38t33 36t46.5 35t60 22t81 10q83 0 135.5 -55.5t52.5 -146.5q0 -15 -4 -47l-82 -508q-11 -70 -35.5 -124t-54 -85.5t-67 -51.5t-71 -27t-69.5 -7q-74 0 -116.5 41.5t-34.5 99.5h4q13 -20 45.5 -34.5t77.5 -14.5
q84 0 135.5 46t69.5 157l77 489q5 35 5 41q0 125 -142 125q-74 0 -131 -47t-69 -121z" />
    <glyph glyph-name="ydieresis" unicode="&#xff;" horiz-adv-x="839" 
d="M438 -389h-110l157 418q-89 0 -128.5 61.5t-39.5 204.5v592q0 36 -10 49.5t-37 13.5q-35 0 -65 -32h-4q10 59 38.5 90.5t84.5 31.5q54 0 84 -32.5t30 -98.5q0 -95 -8 -302t-8 -314q0 -97 15 -136.5t59 -39.5h16l322 911h118zM563 1319q0 -37 -26.5 -63.5t-65.5 -26.5
q-33 0 -52.5 20.5t-19.5 53.5q0 37 27 63.5t66 26.5q33 0 52 -20.5t19 -53.5zM920 1319q0 -37 -27 -63.5t-66 -26.5q-33 0 -52 20.5t-19 53.5q0 37 26.5 63.5t65.5 26.5q33 0 52.5 -20.5t19.5 -53.5z" />
    <glyph glyph-name="Amacron" unicode="&#x100;" horiz-adv-x="911" 
d="M840 0h-119l-23 391h-356l-141 -391h-129l546 1438h121zM692 494l-41 727h-6l-266 -727h313zM950 1556h-499l14 91h500z" />
    <glyph glyph-name="amacron" unicode="&#x101;" horiz-adv-x="774" 
d="M672 0h-117l80 510q-85 -1 -153.5 -18t-122.5 -53.5t-83.5 -98.5t-29.5 -147q0 -63 31 -94t83 -31q76 0 140 41h8q-13 -52 -60.5 -87.5t-128.5 -35.5q-83 0 -138.5 57.5t-55.5 155.5q0 97 42.5 170.5t116.5 116.5t164.5 64t196.5 21l37 236q4 24 4 37q0 59 -34.5 90
t-98.5 31q-75 0 -127.5 -40.5t-65.5 -123.5l-10 -74h-108l14 82q18 111 95.5 172t211.5 61q112 0 174 -53.5t62 -146.5q0 -15 -4 -51zM858 1307h-500l15 90h499z" />
    <glyph glyph-name="Abreve" unicode="&#x102;" horiz-adv-x="911" 
d="M840 0h-119l-23 391h-356l-141 -391h-129l546 1438h121zM692 494l-41 727h-6l-266 -727h313zM905 1718h88q-22 -94 -94.5 -149.5t-183.5 -55.5q-107 0 -167.5 55.5t-60.5 149.5h88q5 -57 37 -84.5t105 -27.5q76 0 120.5 26.5t67.5 85.5z" />
    <glyph glyph-name="abreve" unicode="&#x103;" horiz-adv-x="774" 
d="M672 0h-117l80 510q-85 -1 -153.5 -18t-122.5 -53.5t-83.5 -98.5t-29.5 -147q0 -63 31 -94t83 -31q76 0 140 41h8q-13 -52 -60.5 -87.5t-128.5 -35.5q-83 0 -138.5 57.5t-55.5 155.5q0 97 42.5 170.5t116.5 116.5t164.5 64t196.5 21l37 236q4 24 4 37q0 59 -34.5 90
t-98.5 31q-75 0 -127.5 -40.5t-65.5 -123.5l-10 -74h-108l14 82q18 111 95.5 172t211.5 61q112 0 174 -53.5t62 -146.5q0 -15 -4 -51zM793 1430h88q-22 -93 -95 -149t-184 -56q-107 0 -167 55.5t-60 149.5h88q5 -57 36.5 -85t104.5 -28q76 0 121 27t68 86z" />
    <glyph glyph-name="Aogonek" unicode="&#x104;" horiz-adv-x="911" 
d="M791 -307l4 -4q-5 -35 -36 -60.5t-81 -25.5t-77.5 27.5t-27.5 78.5q0 144 187 291q-15 0 -27.5 12.5t-13.5 34.5l-21 344h-356l-141 -391h-129l551 1438h120l97 -1438q-164 -152 -164 -270q0 -26 13.5 -40t35.5 -14q35 0 66 17zM692 494l-41 727h-6l-266 -727h313z" />
    <glyph glyph-name="aogonek" unicode="&#x105;" horiz-adv-x="774" 
d="M631 -307l4 -4q-5 -35 -36 -60.5t-81 -25.5t-79 28.5t-29 79.5q0 141 188 289q-15 0 -26 12t-11 27q0 12 6 47l68 424q-389 -4 -389 -307q0 -62 30 -98.5t84 -36.5q76 0 140 41h8q-14 -53 -58 -88t-124 -35q-89 0 -145 60t-56 157t42.5 170t116.5 115t164.5 62.5
t196.5 20.5l37 236q4 24 4 37q0 59 -34.5 90t-98.5 31q-75 0 -127.5 -40.5t-65.5 -123.5l-10 -74h-108l14 82q18 111 95.5 172t211.5 61q112 0 174 -53.5t62 -146.5q0 -15 -4 -51l-123 -791q-160 -144 -160 -270q0 -54 53 -54q35 0 66 17z" />
    <glyph glyph-name="Cacute" unicode="&#x106;" horiz-adv-x="798" 
d="M182 313l123 781q55 356 359 356q122 0 181.5 -60.5t59.5 -162.5q0 -20 -4 -56l-18 -100h-111l16 98q5 35 5 41q0 127 -146 127q-88 0 -141.5 -59t-75.5 -201l-123 -772q-4 -36 -4 -51q0 -154 158 -154q87 0 141.5 58t81.5 145q24 -6 39.5 -26.5t15.5 -49.5
q0 -96 -81 -167.5t-214 -71.5q-132 0 -200 70t-68 190q0 30 6 65zM711 1536h-93l121 258h125z" />
    <glyph glyph-name="cacute" unicode="&#x107;" horiz-adv-x="778" 
d="M676 283h2q45 -32 45 -99q0 -78 -75.5 -137t-196.5 -59q-127 0 -195 68t-68 184q0 72 70 483q54 319 330 319q111 0 169 -54t58 -152q0 -44 -14 -109h-103q15 79 15 109q0 114 -133 114q-169 0 -209 -235q-11 -69 -24.5 -154t-20 -123.5t-13 -82t-8.5 -66.5t-2 -41
q0 -83 41 -125.5t115 -42.5q165 0 217 203zM686 1223h-92l121 258h125z" />
    <glyph glyph-name="Ccircumflex" unicode="&#x108;" horiz-adv-x="798" 
d="M182 313l123 781q55 356 359 356q122 0 181.5 -60.5t59.5 -162.5q0 -20 -4 -56l-18 -100h-111l16 98q5 35 5 41q0 127 -146 127q-88 0 -141.5 -59t-75.5 -201l-123 -772q-4 -36 -4 -51q0 -154 158 -154q87 0 141.5 58t81.5 145q24 -6 39.5 -26.5t15.5 -49.5
q0 -96 -81 -167.5t-214 -71.5q-132 0 -200 70t-68 190q0 30 6 65zM905 1516l-229 122l-270 -122l10 94l256 131h8l238 -131z" />
    <glyph glyph-name="ccircumflex" unicode="&#x109;" horiz-adv-x="778" 
d="M676 283h2q45 -32 45 -99q0 -78 -75.5 -137t-196.5 -59q-127 0 -195 68t-68 184q0 72 70 483q54 319 330 319q111 0 169 -54t58 -152q0 -44 -14 -109h-103q15 79 15 109q0 114 -133 114q-169 0 -209 -235q-11 -69 -24.5 -154t-20 -123.5t-13 -82t-8.5 -66.5t-2 -41
q0 -83 41 -125.5t115 -42.5q165 0 217 203zM877 1223l-230 123l-270 -123l10 94l256 131h8l238 -131z" />
    <glyph glyph-name="Cdotaccent" unicode="&#x10a;" horiz-adv-x="798" 
d="M182 313l123 781q55 356 359 356q122 0 181.5 -60.5t59.5 -162.5q0 -20 -4 -56l-18 -100h-111l16 98q5 35 5 41q0 127 -146 127q-88 0 -141.5 -59t-75.5 -201l-123 -772q-4 -36 -4 -51q0 -154 158 -154q87 0 141.5 58t81.5 145q24 -6 39.5 -26.5t15.5 -49.5
q0 -96 -81 -167.5t-214 -71.5q-132 0 -200 70t-68 190q0 30 6 65zM676 1546q-33 0 -52.5 20.5t-19.5 53.5q0 37 26.5 63.5t65.5 26.5q33 0 52.5 -20.5t19.5 -53.5q0 -37 -26.5 -63.5t-65.5 -26.5z" />
    <glyph glyph-name="cdotaccent" unicode="&#x10b;" horiz-adv-x="778" 
d="M676 283h2q45 -32 45 -99q0 -78 -75.5 -137t-196.5 -59q-127 0 -195 68t-68 184q0 72 70 483q54 319 330 319q111 0 169 -54t58 -152q0 -44 -14 -109h-103q15 79 15 109q0 114 -133 114q-169 0 -209 -235q-11 -69 -24.5 -154t-20 -123.5t-13 -82t-8.5 -66.5t-2 -41
q0 -83 41 -125.5t115 -42.5q165 0 217 203zM633 1229q-33 0 -52.5 20.5t-19.5 53.5q0 37 26.5 63.5t65.5 26.5q33 0 52.5 -20.5t19.5 -53.5q0 -37 -26.5 -63.5t-65.5 -26.5z" />
    <glyph glyph-name="Ccaron" unicode="&#x10c;" horiz-adv-x="798" 
d="M182 313l123 781q55 356 359 356q122 0 181.5 -60.5t59.5 -162.5q0 -20 -4 -56l-18 -100h-111l16 98q5 35 5 41q0 127 -146 127q-88 0 -141.5 -59t-75.5 -201l-123 -772q-4 -36 -4 -51q0 -154 158 -154q87 0 141.5 58t81.5 145q24 -6 39.5 -26.5t15.5 -49.5
q0 -96 -81 -167.5t-214 -71.5q-132 0 -200 70t-68 190q0 30 6 65zM928 1663l-260 -127h-9l-231 131l14 94l230 -123l270 123z" />
    <glyph glyph-name="ccaron" unicode="&#x10d;" horiz-adv-x="778" 
d="M676 283h2q45 -32 45 -99q0 -78 -75.5 -137t-196.5 -59q-127 0 -195 68t-68 184q0 72 70 483q54 319 330 319q111 0 169 -54t58 -152q0 -44 -14 -109h-103q15 79 15 109q0 114 -133 114q-169 0 -209 -235q-11 -69 -24.5 -154t-20 -123.5t-13 -82t-8.5 -66.5t-2 -41
q0 -83 41 -125.5t115 -42.5q165 0 217 203zM897 1350l-260 -127h-8l-232 131l15 94l229 -123l270 123z" />
    <glyph glyph-name="Dcaron" unicode="&#x10e;" horiz-adv-x="911" 
d="M297 113h55q166 0 253.5 76.5t113.5 240.5q96 607 96 657q0 126 -62 182t-206 56h-58zM356 0h-202l227 1438h188q371 0 371 -332q0 -70 -94 -678q-37 -231 -159.5 -329.5t-330.5 -98.5zM897 1663l-260 -127h-8l-232 131l15 94l229 -123l270 123z" />
    <glyph glyph-name="dcaron" unicode="&#x10f;" horiz-adv-x="1044" 
d="M680 0h-115l13 86h-5q-69 -98 -208 -98q-106 0 -164 60.5t-58 168.5q0 39 4 59l74 472q47 294 279 294q72 0 111.5 -31t39.5 -87q0 -15 -2 -23h-4q-11 20 -43.5 34.5t-77.5 14.5q-83 0 -126 -49t-62 -166l-70 -436q-6 -43 -6 -88q0 -79 34 -112t107 -33q78 0 133 50.5
t66 127.5l197 1235h116zM991 1094l2 10q72 40 97.5 89.5t44.5 160.5l20 125h113l-17 -103q-19 -122 -90 -202t-170 -80z" />
    <glyph glyph-name="Dcroat" unicode="&#x110;" horiz-adv-x="911" 
d="M356 0h-202l106 682h-133l14 90h133l107 666h188q371 0 371 -332q0 -70 -94 -678q-37 -231 -159.5 -329.5t-330.5 -98.5zM297 113h55q166 0 253.5 76.5t113.5 240.5q96 607 96 657q0 126 -62 182t-206 56h-58l-88 -553h240l-14 -90h-240z" />
    <glyph glyph-name="dcroat" unicode="&#x111;" horiz-adv-x="882" 
d="M680 0h-115l13 86h-5q-69 -98 -208 -98q-106 0 -164 60.5t-58 168.5q0 39 4 59l74 472q47 294 279 294q72 0 111.5 -31t39.5 -87q0 -15 -2 -23h-4q-11 20 -43.5 34.5t-77.5 14.5q-83 0 -126 -49t-62 -166l-70 -436q-6 -43 -6 -88q0 -79 34 -112t107 -33q78 0 132.5 50.5
t66.5 127.5l158 985h-201l12 90h201l27 160h116l-26 -160h182l-12 -90h-183z" />
    <glyph glyph-name="Emacron" unicode="&#x112;" horiz-adv-x="737" 
d="M733 696h-344l-63 -401q-4 -24 -4 -49q0 -146 135 -146q138 0 200 125q13 -6 23 -24.5t10 -40.5q0 -79 -68 -125.5t-169 -46.5q-128 0 -193 67t-65 191q0 19 4 47l182 1145h491l-18 -113h-365l-81 -522h344zM887 1556h-500l14 91h500z" />
    <glyph glyph-name="emacron" unicode="&#x113;" horiz-adv-x="784" 
d="M721 303l-12 -84q-38 -231 -303 -231q-112 0 -182 53t-70 154q0 9 0.5 19t2.5 26.5t4 32t6.5 44t8.5 54t11 70.5t13.5 84.5t17.5 105.5t20 125q24 148 105.5 217t223.5 69q107 0 175.5 -66.5t68.5 -180.5q0 -98 -38.5 -169.5t-109.5 -112.5t-160 -60t-200 -19
q-8 -55 -17.5 -110.5t-13.5 -82t-4 -46.5q0 -59 36.5 -90t105.5 -31q161 0 184 141l14 88h113zM354 756l-39 -248q185 2 288.5 72.5t103.5 214.5q0 74 -36.5 117.5t-105.5 43.5q-176 0 -211 -200zM858 1307h-500l15 90h499z" />
    <glyph glyph-name="Ebreve" unicode="&#x114;" horiz-adv-x="737" 
d="M733 696h-344l-63 -401q-4 -24 -4 -49q0 -146 135 -146q138 0 200 125q13 -6 23 -24.5t10 -40.5q0 -79 -68 -125.5t-169 -46.5q-128 0 -193 67t-65 191q0 19 4 47l182 1145h491l-18 -113h-365l-81 -522h344zM834 1729h88q-22 -93 -95 -149t-184 -56q-107 0 -167 55.5
t-60 149.5h88q5 -57 36.5 -85t104.5 -28q76 0 121 27t68 86z" />
    <glyph glyph-name="ebreve" unicode="&#x115;" horiz-adv-x="784" 
d="M721 303l-12 -84q-38 -231 -303 -231q-112 0 -182 53t-70 154q0 9 0.5 19t2.5 26.5t4 32t6.5 44t8.5 54t11 70.5t13.5 84.5t17.5 105.5t20 125q24 148 105.5 217t223.5 69q107 0 175.5 -66.5t68.5 -180.5q0 -98 -38.5 -169.5t-109.5 -112.5t-160 -60t-200 -19
q-8 -55 -17.5 -110.5t-13.5 -82t-4 -46.5q0 -59 36.5 -90t105.5 -31q161 0 184 141l14 88h113zM354 756l-39 -248q185 2 288.5 72.5t103.5 214.5q0 74 -36.5 117.5t-105.5 43.5q-176 0 -211 -200zM793 1430h88q-22 -93 -95 -149t-184 -56q-107 0 -167 55.5t-60 149.5h88
q5 -57 36.5 -85t104.5 -28q76 0 121 27t68 86z" />
    <glyph glyph-name="Edotaccent" unicode="&#x116;" horiz-adv-x="737" 
d="M733 696h-344l-63 -401q-4 -24 -4 -49q0 -146 135 -146q138 0 200 125q13 -6 23 -24.5t10 -40.5q0 -79 -68 -125.5t-169 -46.5q-128 0 -193 67t-65 191q0 19 4 47l182 1145h491l-18 -113h-365l-81 -522h344zM655 1546q-33 0 -52 20.5t-19 53.5q0 37 26.5 63.5t65.5 26.5
q33 0 52.5 -20.5t19.5 -53.5q0 -37 -27 -63.5t-66 -26.5z" />
    <glyph glyph-name="edotaccent" unicode="&#x117;" horiz-adv-x="784" 
d="M721 303l-12 -84q-38 -231 -303 -231q-112 0 -182 53t-70 154q0 9 0.5 19t2.5 26.5t4 32t6.5 44t8.5 54t11 70.5t13.5 84.5t17.5 105.5t20 125q24 148 105.5 217t223.5 69q107 0 175.5 -66.5t68.5 -180.5q0 -98 -38.5 -169.5t-109.5 -112.5t-160 -60t-200 -19
q-8 -55 -17.5 -110.5t-13.5 -82t-4 -46.5q0 -59 36.5 -90t105.5 -31q161 0 184 141l14 88h113zM354 756l-39 -248q185 2 288.5 72.5t103.5 214.5q0 74 -36.5 117.5t-105.5 43.5q-176 0 -211 -200zM606 1229q-33 0 -52 20.5t-19 53.5q0 37 26.5 63.5t65.5 26.5q33 0 52 -20.5
t19 -53.5q0 -37 -26.5 -63.5t-65.5 -26.5z" />
    <glyph glyph-name="Eogonek" unicode="&#x118;" horiz-adv-x="737" 
d="M457 -307l4 -4q2 -36 -25 -61t-80 -25q-54 0 -85 27.5t-31 78.5q0 79 48 157.5t113 125.5q-103 12 -154.5 77.5t-51.5 176.5q0 19 4 47l182 1145h491l-18 -113h-365l-81 -522h344l-19 -107h-344l-63 -401q-4 -24 -4 -49q0 -146 135 -146q138 0 200 125q13 -6 23 -24.5
t10 -40.5q0 -74 -61 -120t-154 -52q-133 -142 -133 -258q0 -26 13.5 -40t35.5 -14q35 0 66 17z" />
    <glyph glyph-name="eogonek" unicode="&#x119;" horiz-adv-x="784" 
d="M416 -307l4 -4q2 -36 -25 -61t-80 -25q-57 0 -86.5 31.5t-29.5 84.5q0 122 161 271q-94 9 -150 61t-56 144q0 17 4 53l80 508q24 150 107.5 218t223.5 68q108 0 175 -62.5t67 -176.5q0 -354 -508 -369l-31 -190q-4 -28 -4 -49q0 -60 37 -94.5t105 -34.5q160 0 184 149
l14 88h113l-12 -84q-38 -218 -275 -229q-47 -47 -90 -126.5t-43 -133.5q0 -26 13.5 -40t35.5 -14q35 0 66 17zM354 756l-41 -260q394 4 394 307q0 74 -36.5 118t-105.5 44q-90 0 -142 -51t-69 -158z" />
    <glyph glyph-name="Ecaron" unicode="&#x11a;" horiz-adv-x="737" 
d="M733 696h-344l-63 -401q-4 -24 -4 -49q0 -146 135 -146q138 0 200 125q13 -6 23 -24.5t10 -40.5q0 -79 -68 -125.5t-169 -46.5q-128 0 -193 67t-65 191q0 19 4 47l182 1145h491l-18 -113h-365l-81 -522h344zM889 1663l-260 -127h-8l-232 131l14 94l230 -123l270 123z" />
    <glyph glyph-name="ecaron" unicode="&#x11b;" horiz-adv-x="784" 
d="M721 303l-12 -84q-38 -231 -303 -231q-112 0 -182 53t-70 154q0 9 0.5 19t2.5 26.5t4 32t6.5 44t8.5 54t11 70.5t13.5 84.5t17.5 105.5t20 125q24 148 105.5 217t223.5 69q107 0 175.5 -66.5t68.5 -180.5q0 -98 -38.5 -169.5t-109.5 -112.5t-160 -60t-200 -19
q-8 -55 -17.5 -110.5t-13.5 -82t-4 -46.5q0 -59 36.5 -90t105.5 -31q161 0 184 141l14 88h113zM354 756l-39 -248q185 2 288.5 72.5t103.5 214.5q0 74 -36.5 117.5t-105.5 43.5q-176 0 -211 -200zM864 1350l-260 -127h-8l-231 131l14 94l229 -123l271 123z" />
    <glyph glyph-name="Gcircumflex" unicode="&#x11c;" horiz-adv-x="901" 
d="M940 1516l-229 122l-271 -122l11 94l256 131h8l237 -131zM758 0h-29q-18 5 -29.5 12.5t-21.5 30t-10 57.5q0 31 2 43h-4q-80 -155 -248 -155q-104 0 -172 64t-68 186q0 59 10 114l117 742q30 189 125 272.5t250 83.5q128 0 195 -62.5t67 -170.5q0 -39 -6 -74l-8 -60h-127
l12 80q4 32 4 43q0 129 -158 129q-101 0 -154 -60t-75 -196l-121 -762q-6 -44 -6 -75q0 -73 33.5 -106.5t114.5 -33.5q88 0 151.5 62.5t75.5 136.5l53 340h-164l17 102h290z" />
    <glyph glyph-name="gcircumflex" unicode="&#x11d;" horiz-adv-x="827" 
d="M219 -49v-6q-57 -45 -57 -103q0 -125 213 -125q118 0 189 48t71 114q0 51 -48.5 84t-118 51.5t-139.5 38.5t-118.5 59t-48.5 99q0 63 50 107t126 53q-121 49 -121 186q0 37 29 221q21 131 110 197.5t222 66.5q118 0 184 -55q72 37 86 121l16 104h99l-17 -104
q-17 -123 -147 -162q45 -42 45 -139q0 -43 -29 -213q-23 -129 -112.5 -195.5t-221.5 -66.5q-207 0 -207 -105q0 -27 26 -46.5t67.5 -31t92 -23t100.5 -28.5t91.5 -41t67.5 -67t26 -101q0 -110 -101.5 -190t-278.5 -80q-140 0 -217.5 57t-77.5 148q0 56 44.5 93t104.5 34z
M698 598q29 174 29 209q0 73 -43.5 108t-112.5 35q-181 0 -211 -180q-28 -174 -28 -213q0 -135 157 -135q179 0 209 176zM866 1223l-229 123l-270 -123l10 94l256 131h8l238 -131z" />
    <glyph glyph-name="Gbreve" unicode="&#x11e;" horiz-adv-x="901" 
d="M885 1729h88q-22 -93 -95 -149t-184 -56q-107 0 -167 55.5t-60 149.5h88q5 -57 36.5 -85t104.5 -28q76 0 121 27t68 86zM758 0h-29q-18 5 -29.5 12.5t-21.5 30t-10 57.5q0 31 2 43h-4q-80 -155 -248 -155q-104 0 -172 64t-68 186q0 59 10 114l117 742q30 189 125 272.5
t250 83.5q128 0 195 -62.5t67 -170.5q0 -39 -6 -74l-8 -60h-127l12 80q4 32 4 43q0 129 -158 129q-101 0 -154 -60t-75 -196l-121 -762q-6 -44 -6 -75q0 -73 33.5 -106.5t114.5 -33.5q88 0 151.5 62.5t75.5 136.5l53 340h-164l17 102h290z" />
    <glyph glyph-name="gbreve" unicode="&#x11f;" horiz-adv-x="827" 
d="M219 -49v-6q-57 -45 -57 -103q0 -125 213 -125q118 0 189 48t71 114q0 51 -48.5 84t-118 51.5t-139.5 38.5t-118.5 59t-48.5 99q0 63 50 107t126 53q-121 49 -121 186q0 37 29 221q21 131 110 197.5t222 66.5q118 0 184 -55q72 37 86 121l16 104h99l-17 -104
q-17 -123 -147 -162q45 -42 45 -139q0 -43 -29 -213q-23 -129 -112.5 -195.5t-221.5 -66.5q-207 0 -207 -105q0 -27 26 -46.5t67.5 -31t92 -23t100.5 -28.5t91.5 -41t67.5 -67t26 -101q0 -110 -101.5 -190t-278.5 -80q-140 0 -217.5 57t-77.5 148q0 56 44.5 93t104.5 34z
M698 598q29 174 29 209q0 73 -43.5 108t-112.5 35q-181 0 -211 -180q-28 -174 -28 -213q0 -135 157 -135q179 0 209 176zM799 1430h88q-22 -93 -95 -149t-184 -56q-107 0 -167 55.5t-60 149.5h88q5 -57 36.5 -85t104.5 -28q76 0 121 27t68 86z" />
    <glyph glyph-name="Gdotaccent" unicode="&#x120;" horiz-adv-x="901" 
d="M688 1544q-33 0 -52.5 20.5t-19.5 53.5q0 37 27 63.5t66 26.5q33 0 52 -20.5t19 -53.5q0 -37 -26.5 -63.5t-65.5 -26.5zM758 0h-29q-18 5 -29.5 12.5t-21.5 30t-10 57.5q0 31 2 43h-4q-80 -155 -248 -155q-104 0 -172 64t-68 186q0 59 10 114l117 742q30 189 125 272.5
t250 83.5q128 0 195 -62.5t67 -170.5q0 -39 -6 -74l-8 -60h-127l12 80q4 32 4 43q0 129 -158 129q-101 0 -154 -60t-75 -196l-121 -762q-6 -44 -6 -75q0 -73 33.5 -106.5t114.5 -33.5q88 0 151.5 62.5t75.5 136.5l53 340h-164l17 102h290z" />
    <glyph glyph-name="gdotaccent" unicode="&#x121;" horiz-adv-x="827" 
d="M219 -49v-6q-57 -45 -57 -103q0 -125 213 -125q118 0 189 48t71 114q0 51 -48.5 84t-118 51.5t-139.5 38.5t-118.5 59t-48.5 99q0 63 50 107t126 53q-121 49 -121 186q0 37 29 221q21 131 110 197.5t222 66.5q118 0 184 -55q72 37 86 121l16 104h99l-17 -104
q-17 -123 -147 -162q45 -42 45 -139q0 -43 -29 -213q-23 -129 -112.5 -195.5t-221.5 -66.5q-207 0 -207 -105q0 -27 26 -46.5t67.5 -31t92 -23t100.5 -28.5t91.5 -41t67.5 -67t26 -101q0 -110 -101.5 -190t-278.5 -80q-140 0 -217.5 57t-77.5 148q0 56 44.5 93t104.5 34z
M698 598q29 174 29 209q0 73 -43.5 108t-112.5 35q-181 0 -211 -180q-28 -174 -28 -213q0 -135 157 -135q179 0 209 176zM612 1229q-33 0 -52 20.5t-19 53.5q0 37 26.5 63.5t65.5 26.5q33 0 52.5 -20.5t19.5 -53.5q0 -37 -27 -63.5t-66 -26.5z" />
    <glyph glyph-name="Gcommaaccent" unicode="&#x122;" horiz-adv-x="901" 
d="M250 -500l2 11q72 40 97 88.5t44 160.5l21 125h112l-16 -102q-19 -122 -90 -202.5t-170 -80.5zM758 0h-29q-18 5 -29.5 12.5t-21.5 30t-10 57.5q0 31 2 43h-4q-80 -155 -248 -155q-104 0 -172 64t-68 186q0 59 10 114l117 742q30 189 125 272.5t250 83.5q128 0 195 -62.5
t67 -170.5q0 -39 -6 -74l-8 -60h-127l12 80q4 32 4 43q0 129 -158 129q-101 0 -154 -60t-75 -196l-121 -762q-6 -44 -6 -75q0 -73 33.5 -106.5t114.5 -33.5q88 0 151.5 62.5t75.5 136.5l53 340h-164l17 102h290z" />
    <glyph glyph-name="gcommaaccent" unicode="&#x123;" horiz-adv-x="827" 
d="M219 -49v-6q-57 -45 -57 -103q0 -125 213 -125q118 0 189 48t71 114q0 51 -48.5 84t-118 51.5t-139.5 38.5t-118.5 59t-48.5 99q0 63 50 107t126 53q-121 49 -121 186q0 37 29 221q21 131 110 197.5t222 66.5q118 0 184 -55q72 37 86 121l16 104h99l-17 -104
q-17 -123 -147 -162q45 -42 45 -139q0 -43 -29 -213q-23 -129 -112.5 -195.5t-221.5 -66.5q-207 0 -207 -105q0 -27 26 -46.5t67.5 -31t92 -23t100.5 -28.5t91.5 -41t67.5 -67t26 -101q0 -110 -101.5 -190t-278.5 -80q-140 0 -217.5 57t-77.5 148q0 56 44.5 93t104.5 34z
M698 598q29 174 29 209q0 73 -43.5 108t-112.5 35q-181 0 -211 -180q-28 -174 -28 -213q0 -135 157 -135q179 0 209 176zM823 1606l-2 -11q-72 -40 -97 -88.5t-44 -160.5l-21 -125h-112l16 102q19 122 90 202.5t170 80.5z" />
    <glyph glyph-name="Hcircumflex" unicode="&#x124;" horiz-adv-x="931" 
d="M778 0h-127l107 684h-371l-106 -684h-127l227 1438h127l-102 -647h370l103 647h127zM948 1516l-229 122l-270 -122l10 94l256 131h8l238 -131z" />
    <glyph glyph-name="hcircumflex" unicode="&#x125;" horiz-adv-x="804" 
d="M244 0h-117l233 1479h115l-92 -580h6q17 25 27 38t33.5 36t46 35t58 22t77.5 10q88 0 142 -54.5t54 -149.5q0 -39 -53 -350t-53 -375q0 -50 18.5 -73t61.5 -26v-10q-40 -14 -74 -14q-57 0 -90 34.5t-33 106.5q0 59 51.5 348t51.5 328q0 60 -34.5 96.5t-107.5 36.5
q-74 0 -131 -47t-69 -121zM674 1483l-230 123l-270 -123l10 94l256 131h9l237 -131z" />
    <glyph glyph-name="Hbar" unicode="&#x126;" horiz-adv-x="931" 
d="M778 0h-127l107 684h-371l-106 -684h-127l182 1151h-123l14 92h123l31 195h127l-31 -195h371l31 195h127l-31 -195h123l-15 -92h-122zM776 791l58 360h-371l-57 -360h370z" />
    <glyph glyph-name="hbar" unicode="&#x127;" horiz-adv-x="804" 
d="M801 12v-10q-40 -14 -74 -14q-57 0 -90 34.5t-33 106.5q0 59 51.5 348t51.5 328q0 60 -34.5 96.5t-107.5 36.5q-74 0 -131 -47t-69 -121l-121 -770h-117l199 1255h-136l15 91h135l20 133h115l-22 -133h252l-15 -91h-252l-55 -356h6q17 25 27 38t33.5 36t46 35t58 22
t77.5 10q88 0 142 -54.5t54 -149.5q0 -39 -53 -350t-53 -375q0 -50 18.5 -73t61.5 -26z" />
    <glyph glyph-name="Itilde" unicode="&#x128;" horiz-adv-x="454" 
d="M291 0h-127l227 1438h127zM676 1710h69q-19 -89 -59.5 -135.5t-118.5 -46.5q-39 0 -73.5 19t-65 38t-59.5 19q-62 0 -84 -88h-70q19 90 64.5 136t113.5 46q40 0 79.5 -19t72 -38t55.5 -19q25 0 45 24t31 64z" />
    <glyph glyph-name="itilde" unicode="&#x129;" horiz-adv-x="425" 
d="M276 0h-116l162 1028h116zM625 1450h69q-19 -89 -59.5 -135.5t-118.5 -46.5q-39 0 -74 19t-65.5 37.5t-59.5 18.5q-62 0 -84 -88h-69q19 90 64.5 136.5t113.5 46.5q40 0 79.5 -19t72 -38t55.5 -19q25 0 45 24t31 64z" />
    <glyph glyph-name="Imacron" unicode="&#x12a;" horiz-adv-x="454" 
d="M291 0h-127l227 1438h127zM721 1556h-500l15 91h499z" />
    <glyph glyph-name="imacron" unicode="&#x12b;" horiz-adv-x="425" 
d="M276 0h-116l162 1028h116zM674 1307h-500l14 90h500z" />
    <glyph glyph-name="Ibreve" unicode="&#x12c;" horiz-adv-x="454" 
d="M291 0h-127l227 1438h127zM666 1729h88q-22 -93 -95 -149t-184 -56q-107 0 -167 55.5t-60 149.5h88q5 -57 36.5 -85t104.5 -28q76 0 121 27t68 86z" />
    <glyph glyph-name="ibreve" unicode="&#x12d;" horiz-adv-x="425" 
d="M276 0h-116l162 1028h116zM606 1430h88q-22 -94 -94.5 -149.5t-183.5 -55.5q-107 0 -167.5 55.5t-60.5 149.5h88q5 -57 37 -85t105 -28q76 0 120.5 27t67.5 86z" />
    <glyph glyph-name="Iogonek" unicode="&#x12e;" horiz-adv-x="454" 
d="M246 -307l4 -4q2 -36 -25 -61t-80 -25q-55 0 -85.5 29.5t-30.5 84.5q0 78 53 154.5t129 128.5q-15 0 -28 12t-13 31l8 61l213 1334h127l-227 -1438q-68 -60 -114 -136t-46 -134q0 -26 13.5 -40t35.5 -14q35 0 66 17z" />
    <glyph glyph-name="iogonek" unicode="&#x12f;" horiz-adv-x="425" 
d="M276 0h-116l162 1028h116zM510 1323q0 -42 -26 -68t-70 -26q-30 0 -51 19t-21 50q0 42 26 68.5t70 26.5q30 0 51 -19.5t21 -50.5zM227 -307l4 -4q2 -36 -24.5 -61t-79.5 -25q-55 0 -86 27.5t-31 78.5q0 132 172 291h74q-55 -65 -99 -140.5t-44 -129.5q0 -26 13.5 -40
t35.5 -14q34 0 65 17z" />
    <glyph glyph-name="Idotaccent" unicode="&#x130;" horiz-adv-x="454" 
d="M291 0h-127l227 1438h127zM473 1544q-33 0 -52.5 20.5t-19.5 53.5q0 37 27 63.5t66 26.5q33 0 52 -20.5t19 -53.5q0 -37 -26.5 -63.5t-65.5 -26.5z" />
    <glyph glyph-name="dotlessi" unicode="&#x131;" horiz-adv-x="425" 
d="M276 0h-116l162 1028h116z" />
    <glyph glyph-name="IJ" unicode="&#x132;" horiz-adv-x="1146" 
d="M291 0h-127l227 1438h127zM909 281l185 1157h127l-185 -1159q-24 -151 -102.5 -221t-210.5 -70q-112 0 -166.5 58.5t-54.5 146.5q0 70 42 117.5t111 47.5q17 0 37 -4v-2q-31 -27 -48 -66.5t-17 -76.5q0 -107 114 -107q67 0 109.5 40.5t58.5 138.5z" />
    <glyph glyph-name="ij" unicode="&#x133;" horiz-adv-x="860" 
d="M276 0h-116l162 1028h116zM510 1323q0 -42 -26 -68t-70 -26q-30 0 -51 19t-21 50q0 42 26 68.5t70 26.5q30 0 51 -19.5t21 -50.5zM362 -330l5 21q92 13 147 64.5t74 166.5l176 1106h117l-174 -1102q-23 -145 -92 -205.5t-173 -60.5q-45 0 -80 10zM952 1323q0 -42 -26 -68
t-70 -26q-30 0 -51 19t-21 50q0 42 26.5 68.5t70.5 26.5q30 0 50.5 -19.5t20.5 -50.5z" />
    <glyph glyph-name="Jcircumflex" unicode="&#x134;" horiz-adv-x="737" 
d="M500 281l184 1157h127l-184 -1159q-24 -150 -103 -220.5t-211 -70.5q-112 0 -166.5 58.5t-54.5 146.5q0 69 42.5 117t111.5 48q17 0 37 -4v-2q-31 -27 -48.5 -66.5t-17.5 -76.5q0 -107 115 -107q67 0 109.5 40.5t58.5 138.5zM999 1546l-229 123l-270 -123l10 94l256 132
h8l238 -132z" />
    <glyph glyph-name="jcircumflex" unicode="&#x135;" horiz-adv-x="487" 
d="M-14 -330l4 21q92 13 147.5 64.5t73.5 166.5l176 1106h117l-174 -1102q-23 -145 -92 -205.5t-172 -60.5q-45 0 -80 10zM727 1223l-229 123l-271 -123l11 94l256 131h8l237 -131z" />
    <glyph glyph-name="Kcommaaccent" unicode="&#x136;" horiz-adv-x="911" 
d="M803 127h2q26 -13 26 -47q0 -43 -28 -67.5t-82 -24.5q-57 0 -95 31.5t-38 99.5q0 63 25.5 196t25.5 199q0 168 -168 168h-84l-106 -682h-127l227 1438h127l-107 -672h5l464 672h140l-473 -674q117 -1 174 -66t57 -176q0 -64 -26.5 -199t-26.5 -186q0 -27 8.5 -37
t28.5 -10q38 0 51 37zM215 -500l2 11q72 40 97 88.5t44 160.5l21 125h113l-17 -102q-19 -122 -90 -202.5t-170 -80.5z" />
    <glyph glyph-name="kcommaaccent" unicode="&#x137;" horiz-adv-x="804" 
d="M780 113h4q0 -56 -32 -90.5t-90 -34.5q-55 0 -85 35t-30 98q0 41 12 126.5t12 131.5q0 76 -34 105.5t-117 29.5h-96l-80 -514h-117l233 1479h117l-141 -893l387 442h141l-403 -442q229 0 229 -201q0 -39 -13 -123t-13 -127q0 -57 43 -57q20 0 38.5 9t26.5 17zM164 -500
l2 11q72 40 97 88.5t44 160.5l21 125h112l-16 -102q-19 -122 -90 -202.5t-170 -80.5z" />
    <glyph glyph-name="kgreenlandic" unicode="&#x138;" horiz-adv-x="804" 
d="M780 113h4q0 -56 -32 -90.5t-90 -34.5q-55 0 -85 35t-30 98q0 41 12 116t12 121q0 76 -35 106t-118 30h-96l-78 -494h-117l162 1028h117l-74 -463l379 463h139l-393 -463q113 0 173 -47t60 -153q0 -39 -13 -113t-13 -117q0 -57 43 -57q20 0 38.5 9t26.5 17z" />
    <glyph glyph-name="Lacute" unicode="&#x139;" horiz-adv-x="716" 
d="M655 0h-501l227 1438h127l-211 -1325h375zM510 1536h-92l121 258h125z" />
    <glyph glyph-name="lacute" unicode="&#x13a;" horiz-adv-x="425" 
d="M276 0h-116l233 1479h117zM518 1634h-92l121 258h125z" />
    <glyph glyph-name="Lcommaaccent" unicode="&#x13b;" horiz-adv-x="716" 
d="M655 0h-501l227 1438h127l-211 -1325h375zM182 -500l2 11q72 40 97.5 89t44.5 160l20 125h113l-17 -102q-19 -122 -90 -202.5t-170 -80.5z" />
    <glyph glyph-name="lcommaaccent" unicode="&#x13c;" horiz-adv-x="425" 
d="M276 0h-116l233 1479h117zM-23 -500l3 11q72 40 97 88.5t44 160.5l20 125h113l-16 -102q-19 -122 -90.5 -202.5t-170.5 -80.5z" />
    <glyph glyph-name="Lcaron" unicode="&#x13d;" horiz-adv-x="716" 
d="M655 0h-501l227 1438h127l-211 -1325h375zM618 1053l3 10q72 40 97 89t44 161l20 125h113l-16 -103q-19 -122 -90.5 -202t-170.5 -80z" />
    <glyph glyph-name="lcaron" unicode="&#x13e;" horiz-adv-x="600" 
d="M276 0h-116l233 1479h117zM557 1094l2 10q72 40 97 89t44 161l21 125h113l-17 -103q-19 -122 -90 -202t-170 -80z" />
    <glyph glyph-name="Ldot" unicode="&#x13f;" horiz-adv-x="716" 
d="M655 0h-501l227 1438h127l-211 -1325h375zM741 672q-6 -37 -33 -59.5t-61 -22.5t-54.5 22.5t-14.5 59.5t34 59.5t62 22.5q33 0 53 -22.5t14 -59.5z" />
    <glyph glyph-name="ldot" unicode="&#x140;" horiz-adv-x="614" 
d="M276 0h-116l233 1479h117zM668 672q-6 -37 -33.5 -59.5t-61.5 -22.5t-54.5 22.5t-14.5 59.5t34 59.5t62 22.5t54 -22.5t14 -59.5z" />
    <glyph glyph-name="Lslash" unicode="&#x141;" horiz-adv-x="716" 
d="M655 0h-501l102 649l-154 -59l17 98l151 60l111 690h127l-102 -637l249 98l-16 -98l-248 -99l-94 -589h375z" />
    <glyph glyph-name="lslash" unicode="&#x142;" horiz-adv-x="425" 
d="M276 0h-116l110 711l-147 -54l14 86l148 54l108 682h117l-100 -637l157 57l-14 -86l-158 -57z" />
    <glyph glyph-name="Nacute" unicode="&#x143;" horiz-adv-x="972" 
d="M819 0h-86l-272 1145h-8l-181 -1145h-118l227 1438h127l246 -1047h8l166 1047h119zM745 1536h-92l121 258h125z" />
    <glyph glyph-name="nacute" unicode="&#x144;" horiz-adv-x="804" 
d="M244 0h-117l162 1028h114l-20 -129h6q17 25 27 38t33.5 36t46 35t58 22t77.5 10q88 0 142 -54.5t54 -149.5q0 -39 -53 -350t-53 -375q0 -50 18.5 -73t61.5 -26v-10q-40 -14 -74 -14q-57 0 -90 34.5t-33 106.5q0 59 51.5 348t51.5 328q0 60 -34.5 96.5t-107.5 36.5
q-74 0 -131 -47t-69 -121zM641 1223h-92l121 258h125z" />
    <glyph glyph-name="Ncommaaccent" unicode="&#x145;" horiz-adv-x="972" 
d="M819 0h-86l-272 1145h-8l-181 -1145h-118l227 1438h127l246 -1047h8l166 1047h119zM268 -500l2 11q72 40 97.5 89t44.5 160l20 125h113l-17 -102q-19 -122 -90 -202.5t-170 -80.5z" />
    <glyph glyph-name="ncommaaccent" unicode="&#x146;" horiz-adv-x="804" 
d="M244 0h-117l162 1028h114l-20 -129h6q17 25 27 38t33.5 36t46 35t58 22t77.5 10q88 0 142 -54.5t54 -149.5q0 -39 -53 -350t-53 -375q0 -50 18.5 -73t61.5 -26v-10q-40 -14 -74 -14q-57 0 -90 34.5t-33 106.5q0 59 51.5 348t51.5 328q0 60 -34.5 96.5t-107.5 36.5
q-74 0 -131 -47t-69 -121zM141 -500l2 11q72 40 97.5 89t44.5 160l20 125h113l-17 -102q-19 -122 -90 -202.5t-170 -80.5z" />
    <glyph glyph-name="Ncaron" unicode="&#x147;" horiz-adv-x="972" 
d="M819 0h-86l-272 1145h-8l-181 -1145h-118l227 1438h127l246 -1047h8l166 1047h119zM981 1663l-260 -127h-8l-232 131l15 94l229 -123l270 123z" />
    <glyph glyph-name="ncaron" unicode="&#x148;" horiz-adv-x="804" 
d="M244 0h-117l162 1028h114l-20 -129h6q17 25 27 38t33.5 36t46 35t58 22t77.5 10q88 0 142 -54.5t54 -149.5q0 -39 -53 -350t-53 -375q0 -50 18.5 -73t61.5 -26v-10q-40 -14 -74 -14q-57 0 -90 34.5t-33 106.5q0 59 51.5 348t51.5 328q0 60 -34.5 96.5t-107.5 36.5
q-74 0 -131 -47t-69 -121zM864 1350l-260 -127h-8l-231 131l14 94l229 -123l271 123z" />
    <glyph glyph-name="napostrophe" unicode="&#x149;" horiz-adv-x="804" 
d="M244 0h-117l162 1028h114l-20 -129h6q17 25 27 38t33.5 36t46 35t58 22t77.5 10q88 0 142 -54.5t54 -149.5q0 -39 -53 -350t-53 -375q0 -50 18.5 -73t61.5 -26v-10q-40 -14 -74 -14q-57 0 -90 34.5t-33 106.5q0 59 51.5 348t51.5 328q0 60 -34.5 96.5t-107.5 36.5
q-74 0 -131 -47t-69 -121zM199 1094l2 10q72 40 97 89t44 161l20 125h113l-16 -103q-19 -122 -90 -202t-170 -80z" />
    <glyph glyph-name="Eng" unicode="&#x14a;" horiz-adv-x="954" 
d="M682 -106l33 208l-252 1043h-8l-181 -1145h-118l227 1438h127l252 -1047h8l166 1047h119l-246 -1547q-24 -148 -113 -226.5t-215 -78.5q-104 0 -157.5 38.5t-53.5 96.5q0 60 43 97q34 -119 176 -119q161 0 193 195z" />
    <glyph glyph-name="eng" unicode="&#x14b;" horiz-adv-x="804" 
d="M340 -330l4 21q93 13 149 64.5t74 166.5l135 850q5 35 5 41q0 125 -142 125q-74 0 -131 -47t-69 -121l-121 -770h-117l162 1028h114l-20 -129h6q21 31 36.5 48.5t45.5 42.5t72 37.5t96 12.5q86 0 136 -56t50 -153q0 -19 -4 -51l-135 -854q-23 -145 -92 -205.5t-172 -60.5
q-42 0 -82 10z" />
    <glyph glyph-name="Omacron" unicode="&#x14c;" horiz-adv-x="921" 
d="M676 1450q143 0 215 -72.5t72 -210.5q0 -41 -16.5 -161.5t-34 -232t-42.5 -261t-30 -180.5q-18 -115 -57 -188.5t-114.5 -114.5t-191.5 -41q-145 0 -217 76.5t-72 211.5q0 47 14 153.5t30 205.5t42.5 256.5t38.5 232.5q26 168 113.5 247t249.5 79zM483 100
q105 0 160 55.5t74 176.5q5 31 23 140t32.5 197.5t30.5 195t25.5 185t9.5 113.5q0 84 -44 129t-128 45q-197 0 -232 -221q-10 -67 -48 -292.5t-56.5 -355t-18.5 -187.5q0 -87 46 -134t126 -47zM952 1556h-499l14 91h500z" />
    <glyph glyph-name="omacron" unicode="&#x14d;" 
d="M360 768q-81 -516 -81 -543q0 -71 38 -108t107 -37q91 0 137.5 41t63.5 139q82 484 82 543q0 71 -39 109t-107 38q-88 0 -137 -43t-64 -139zM739 258q-48 -270 -317 -270q-118 0 -187 62t-69 167q0 13 1.5 29.5t5 44t7 54t11 75t14.5 91t19 118t22 141.5q43 272 319 272
q119 0 186.5 -63t67.5 -170q0 -79 -80 -551zM864 1307h-499l14 90h500z" />
    <glyph glyph-name="Obreve" unicode="&#x14e;" horiz-adv-x="921" 
d="M676 1450q143 0 215 -72.5t72 -210.5q0 -41 -16.5 -161.5t-34 -232t-42.5 -261t-30 -180.5q-18 -115 -57 -188.5t-114.5 -114.5t-191.5 -41q-145 0 -217 76.5t-72 211.5q0 47 14 153.5t30 205.5t42.5 256.5t38.5 232.5q26 168 113.5 247t249.5 79zM483 100
q105 0 160 55.5t74 176.5q5 31 23 140t32.5 197.5t30.5 195t25.5 185t9.5 113.5q0 84 -44 129t-128 45q-197 0 -232 -221q-10 -67 -48 -292.5t-56.5 -355t-18.5 -187.5q0 -87 46 -134t126 -47zM885 1729h88q-22 -93 -95 -149t-184 -56q-107 0 -167 55.5t-60 149.5h88
q5 -57 36.5 -85t104.5 -28q76 0 121 27t68 86z" />
    <glyph glyph-name="obreve" unicode="&#x14f;" 
d="M360 768q-81 -516 -81 -543q0 -71 38 -108t107 -37q91 0 137.5 41t63.5 139q82 484 82 543q0 71 -39 109t-107 38q-88 0 -137 -43t-64 -139zM739 258q-48 -270 -317 -270q-118 0 -187 62t-69 167q0 13 1.5 29.5t5 44t7 54t11 75t14.5 91t19 118t22 141.5q43 272 319 272
q119 0 186.5 -63t67.5 -170q0 -79 -80 -551zM797 1430h88q-22 -93 -95 -149t-184 -56q-107 0 -167 55.5t-60 149.5h88q5 -57 36.5 -85t104.5 -28q76 0 121 27t68 86z" />
    <glyph glyph-name="Ohungarumlaut" unicode="&#x150;" horiz-adv-x="921" 
d="M676 1450q143 0 215 -72.5t72 -210.5q0 -41 -16.5 -161.5t-34 -232t-42.5 -261t-30 -180.5q-18 -115 -57 -188.5t-114.5 -114.5t-191.5 -41q-145 0 -217 76.5t-72 211.5q0 47 14 153.5t30 205.5t42.5 256.5t38.5 232.5q26 168 113.5 247t249.5 79zM483 100
q105 0 160 55.5t74 176.5q5 31 23 140t32.5 197.5t30.5 195t25.5 185t9.5 113.5q0 84 -44 129t-128 45q-197 0 -232 -221q-10 -67 -48 -292.5t-56.5 -355t-18.5 -187.5q0 -87 46 -134t126 -47zM659 1536h-92l111 258h113zM862 1536h-92l121 258h113z" />
    <glyph glyph-name="ohungarumlaut" unicode="&#x151;" 
d="M360 768q-81 -516 -81 -543q0 -71 38 -108t107 -37q91 0 137.5 41t63.5 139q82 484 82 543q0 71 -39 109t-107 38q-88 0 -137 -43t-64 -139zM739 258q-48 -270 -317 -270q-118 0 -187 62t-69 167q0 13 1.5 29.5t5 44t7 54t11 75t14.5 91t19 118t22 141.5q43 272 319 272
q119 0 186.5 -63t67.5 -170q0 -79 -80 -551zM563 1223h-92l111 258h112zM766 1223h-92l121 258h112z" />
    <glyph glyph-name="OE" unicode="&#x152;" horiz-adv-x="1245" 
d="M713 332l123 774q4 23 4 61q0 170 -168 170q-95 0 -157.5 -57t-80.5 -174l-123 -774q-4 -23 -4 -62q0 -170 168 -170q95 0 157.5 57.5t80.5 174.5zM735 98h-4q-95 -110 -270 -110q-137 0 -207 72.5t-70 201.5q0 18 9 88l118 764q53 336 379 336q60 0 114.5 -20t78.5 -48
l10 56h487l-18 -113h-365l-82 -522h345l-19 -107h-344l-63 -401q-5 -30 -5 -49q0 -146 136 -146q138 0 200 125q13 -6 23 -24.5t10 -40.5q0 -79 -68 -125.5t-169 -46.5q-166 0 -226 110z" />
    <glyph glyph-name="oe" unicode="&#x153;" horiz-adv-x="1249" 
d="M1186 303l-12 -84q-38 -231 -304 -231q-166 0 -215 106q-74 -106 -233 -106q-118 0 -187 62t-69 167q0 13 1.5 29.5t5 44t7 54t11 75t14.5 91t19 118t22 141.5q43 272 319 272q161 0 213 -120q73 120 256 120q107 0 174.5 -66t67.5 -181q0 -361 -508 -361
q-8 -55 -17.5 -110.5t-13.5 -82t-4 -46.5q0 -59 36 -90t105 -31q162 0 185 141l14 88h113zM625 260q82 484 82 543q0 71 -39 109t-107 38q-88 0 -137 -43t-64 -139q-81 -516 -81 -543q0 -71 38 -108t107 -37q91 0 137.5 41t63.5 139zM819 756l-39 -248q67 1 120 7.5
t105.5 25t87.5 49.5t56.5 83t21.5 122q0 74 -36 117.5t-105 43.5q-176 0 -211 -200z" />
    <glyph glyph-name="Racute" unicode="&#x154;" horiz-adv-x="880" 
d="M401 768h68q141 0 228 99.5t87 254.5q0 103 -61.5 153t-173.5 50h-60zM813 127h2q27 -13 27 -47q0 -42 -28.5 -67t-82.5 -25q-57 0 -95 31.5t-38 99.5q0 63 24.5 189t24.5 192q0 91 -49.5 128.5t-151.5 37.5h-61l-104 -666h-127l227 1438h168q178 0 272 -80t94 -234
q0 -155 -82.5 -265t-234.5 -142v-4q80 -3 129 -57t49 -148q0 -64 -25.5 -192t-25.5 -179q0 -27 8.5 -37t28.5 -10q38 0 51 37zM653 1536h-92l121 258h125z" />
    <glyph glyph-name="racute" unicode="&#x155;" horiz-adv-x="655" 
d="M246 0h-115l162 1028h115l-37 -229h4q34 108 99.5 173.5t154.5 65.5q68 0 105.5 -36t37.5 -87q0 -65 -38 -102t-93 -37q-36 0 -66 15v4q39 9 58.5 34t19.5 58q0 49 -55 49q-82 0 -166 -144t-115 -337zM594 1223h-92l121 258h125z" />
    <glyph glyph-name="Rcommaaccent" unicode="&#x156;" horiz-adv-x="880" 
d="M401 768h68q141 0 228 99.5t87 254.5q0 103 -61.5 153t-173.5 50h-60zM813 127h2q27 -13 27 -47q0 -42 -28.5 -67t-82.5 -25q-57 0 -95 31.5t-38 99.5q0 63 24.5 189t24.5 192q0 91 -49.5 128.5t-151.5 37.5h-61l-104 -666h-127l227 1438h168q178 0 272 -80t94 -234
q0 -155 -82.5 -265t-234.5 -142v-4q80 -3 129 -57t49 -148q0 -64 -25.5 -192t-25.5 -179q0 -27 8.5 -37t28.5 -10q38 0 51 37zM195 -500l2 11q72 40 97 88.5t44 160.5l20 125h113l-16 -102q-19 -122 -90 -202.5t-170 -80.5z" />
    <glyph glyph-name="rcommaaccent" unicode="&#x157;" horiz-adv-x="655" 
d="M246 0h-115l162 1028h115l-37 -229h4q34 108 99.5 173.5t154.5 65.5q68 0 105.5 -36t37.5 -87q0 -65 -38 -102t-93 -37q-36 0 -66 15v4q39 9 58.5 34t19.5 58q0 49 -55 49q-82 0 -166 -144t-115 -337zM-49 -500l2 11q72 40 97 88.5t44 160.5l21 125h112l-16 -102
q-19 -122 -90 -202.5t-170 -80.5z" />
    <glyph glyph-name="Rcaron" unicode="&#x158;" horiz-adv-x="880" 
d="M401 768h68q141 0 228 99.5t87 254.5q0 103 -61.5 153t-173.5 50h-60zM813 127h2q27 -13 27 -47q0 -42 -28.5 -67t-82.5 -25q-57 0 -95 31.5t-38 99.5q0 63 24.5 189t24.5 192q0 91 -49.5 128.5t-151.5 37.5h-61l-104 -666h-127l227 1438h168q178 0 272 -80t94 -234
q0 -155 -82.5 -265t-234.5 -142v-4q80 -3 129 -57t49 -148q0 -64 -25.5 -192t-25.5 -179q0 -27 8.5 -37t28.5 -10q38 0 51 37zM883 1663l-260 -127h-9l-231 131l14 94l230 -123l270 123z" />
    <glyph glyph-name="rcaron" unicode="&#x159;" horiz-adv-x="655" 
d="M246 0h-115l162 1028h115l-37 -229h4q34 108 99.5 173.5t154.5 65.5q68 0 105.5 -36t37.5 -87q0 -65 -38 -102t-93 -37q-36 0 -66 15v4q39 9 58.5 34t19.5 58q0 49 -55 49q-82 0 -166 -144t-115 -337zM836 1350l-261 -127h-8l-231 131l14 94l230 -123l270 123z" />
    <glyph glyph-name="Sacute" unicode="&#x15a;" horiz-adv-x="839" 
d="M874 1077h-114q18 116 18 140q0 120 -137 120q-99 0 -153 -66t-54 -171q0 -77 36.5 -151.5t88 -136.5t103 -125t88 -140t36.5 -158q0 -79 -20.5 -149.5t-61 -127.5t-108 -90.5t-154.5 -33.5q-114 0 -193 64.5t-79 176.5q0 95 44 155t138 60q-63 -76 -63 -196
q0 -73 40.5 -110.5t114.5 -37.5q105 0 160 74.5t55 202.5q0 66 -36.5 137.5t-88 136.5t-103 131.5t-88 147t-36.5 160.5q0 160 89 260t251 100q106 0 176 -55.5t70 -157.5q0 -39 -19 -160zM717 1536h-92l120 258h125z" />
    <glyph glyph-name="sacute" unicode="&#x15b;" horiz-adv-x="749" 
d="M758 727h-105q13 86 13 107q0 114 -140 114q-75 0 -121.5 -38.5t-46.5 -118.5q0 -47 26 -91.5t64.5 -78.5t84 -74t84 -77t64.5 -88.5t26 -107.5q0 -132 -85 -209t-235 -77q-120 0 -187 63t-67 152q0 75 42.5 128.5t115.5 53.5q-60 -74 -60 -166q0 -62 44.5 -100.5
t121.5 -38.5q87 0 141 46.5t54 137.5q0 41 -19 78.5t-49.5 68t-67 61t-73 63.5t-67 68.5t-49.5 83t-19 101.5q0 121 79 186.5t212 65.5q111 0 171 -52.5t60 -147.5q0 -37 -12 -113zM571 1223h-92l121 258h125z" />
    <glyph glyph-name="Scircumflex" unicode="&#x15c;" horiz-adv-x="839" 
d="M874 1077h-114q18 116 18 140q0 120 -137 120q-99 0 -153 -66t-54 -171q0 -77 36.5 -151.5t88 -136.5t103 -125t88 -140t36.5 -158q0 -79 -20.5 -149.5t-61 -127.5t-108 -90.5t-154.5 -33.5q-114 0 -193 64.5t-79 176.5q0 95 44 155t138 60q-63 -76 -63 -196
q0 -73 40.5 -110.5t114.5 -37.5q105 0 160 74.5t55 202.5q0 66 -36.5 137.5t-88 136.5t-103 131.5t-88 147t-36.5 160.5q0 160 89 260t251 100q106 0 176 -55.5t70 -157.5q0 -39 -19 -160zM913 1516l-229 122l-270 -122l10 94l256 131h8l238 -131z" />
    <glyph glyph-name="scircumflex" unicode="&#x15d;" horiz-adv-x="749" 
d="M758 727h-105q13 86 13 107q0 114 -140 114q-75 0 -121.5 -38.5t-46.5 -118.5q0 -47 26 -91.5t64.5 -78.5t84 -74t84 -77t64.5 -88.5t26 -107.5q0 -132 -85 -209t-235 -77q-120 0 -187 63t-67 152q0 75 42.5 128.5t115.5 53.5q-60 -74 -60 -166q0 -62 44.5 -100.5
t121.5 -38.5q87 0 141 46.5t54 137.5q0 41 -19 78.5t-49.5 68t-67 61t-73 63.5t-67 68.5t-49.5 83t-19 101.5q0 121 79 186.5t212 65.5q111 0 171 -52.5t60 -147.5q0 -37 -12 -113zM825 1223l-229 123l-270 -123l10 94l256 131h8l238 -131z" />
    <glyph glyph-name="Scedilla" unicode="&#x15e;" horiz-adv-x="839" 
d="M262 -342l2 4q24 -4 41 -4q52 0 81.5 34.5t29.5 88.5q0 77 -70 117l43 94q-96 14 -157.5 76t-61.5 161q0 95 44 155t138 60q-63 -76 -63 -196q0 -73 40.5 -110.5t114.5 -37.5q105 0 160 74.5t55 202.5q0 66 -36.5 137.5t-88 136.5t-103 131.5t-88 147t-36.5 160.5
q0 160 89 260t251 100q106 0 176 -55.5t70 -157.5q0 -39 -19 -160h-114q18 116 18 140q0 120 -137 120q-99 0 -153 -66t-54 -171q0 -77 36.5 -151.5t88 -136.5t103 -125t88 -140t36.5 -158q0 -102 -31.5 -187t-103.5 -144.5t-176 -67.5l-39 -76q28 -15 49 -58.5t21 -91.5
q0 -72 -42.5 -123t-115.5 -51q-40 0 -63 20.5t-23 47.5z" />
    <glyph glyph-name="scedilla" unicode="&#x15f;" horiz-adv-x="749" 
d="M217 -342l2 4q24 -4 41 -4q52 0 81.5 34.5t29.5 88.5q0 77 -70 117l43 94q-100 10 -155.5 70.5t-55.5 140.5q0 75 42.5 128.5t115.5 53.5q-60 -74 -60 -166q0 -62 44.5 -100.5t121.5 -38.5q87 0 141 46.5t54 137.5q0 41 -19 78.5t-48.5 68t-66 61t-73 63.5t-66 68.5
t-48.5 83t-19 101.5q0 122 77.5 187t209.5 65q111 0 171 -52.5t60 -147.5q0 -37 -12 -113h-105q13 86 13 107q0 114 -140 114q-75 0 -121.5 -38.5t-46.5 -118.5q0 -47 26 -91.5t64.5 -78.5t84 -74t84 -77t64.5 -88.5t26 -107.5q0 -119 -75.5 -195.5t-199.5 -88.5l-41 -76
q28 -15 49 -58.5t21 -91.5q0 -72 -42.5 -123t-115.5 -51q-40 0 -63 20.5t-23 47.5z" />
    <glyph glyph-name="Scaron" unicode="&#x160;" horiz-adv-x="839" 
d="M874 1077h-114q18 116 18 140q0 120 -137 120q-99 0 -153 -66t-54 -171q0 -77 36.5 -151.5t88 -136.5t103 -125t88 -140t36.5 -158q0 -79 -20.5 -149.5t-61 -127.5t-108 -90.5t-154.5 -33.5q-114 0 -193 64.5t-79 176.5q0 95 44 155t138 60q-63 -76 -63 -196
q0 -73 40.5 -110.5t114.5 -37.5q105 0 160 74.5t55 202.5q0 66 -36.5 137.5t-88 136.5t-103 131.5t-88 147t-36.5 160.5q0 160 89 260t251 100q106 0 176 -55.5t70 -157.5q0 -39 -19 -160zM946 1663l-260 -127h-8l-232 131l15 94l229 -123l271 123z" />
    <glyph glyph-name="scaron" unicode="&#x161;" horiz-adv-x="749" 
d="M758 727h-105q13 86 13 107q0 114 -140 114q-75 0 -121.5 -38.5t-46.5 -118.5q0 -47 26 -91.5t64.5 -78.5t84 -74t84 -77t64.5 -88.5t26 -107.5q0 -132 -85 -209t-235 -77q-120 0 -187 63t-67 152q0 75 42.5 128.5t115.5 53.5q-60 -74 -60 -166q0 -62 44.5 -100.5
t121.5 -38.5q87 0 141 46.5t54 137.5q0 41 -19 78.5t-49.5 68t-67 61t-73 63.5t-67 68.5t-49.5 83t-19 101.5q0 121 79 186.5t212 65.5q111 0 171 -52.5t60 -147.5q0 -37 -12 -113zM860 1350l-260 -127h-8l-232 131l15 94l229 -123l270 123z" />
    <glyph glyph-name="Tcommaaccent" unicode="&#x162;" horiz-adv-x="757" 
d="M442 0h-127l209 1325h-254l19 113h635l-19 -113h-254zM141 -500l2 11q72 40 97.5 89t44.5 160l20 125h113l-17 -102q-19 -122 -90 -202.5t-170 -80.5z" />
    <glyph glyph-name="tcommaaccent" unicode="&#x163;" horiz-adv-x="614" 
d="M227 242l113 704h-123l12 82h123l47 303h117l-47 -303h231l-12 -82h-231l-111 -700q-6 -40 -6 -70q0 -52 23.5 -75t80.5 -23q68 0 123 37q-5 -57 -47.5 -90t-118.5 -33q-85 0 -132.5 47.5t-47.5 132.5q0 32 6 70zM104 -500l2 11q72 40 97.5 89t44.5 160l20 125h113
l-16 -102q-19 -122 -90.5 -202.5t-170.5 -80.5z" />
    <glyph glyph-name="Tcaron" unicode="&#x164;" horiz-adv-x="757" 
d="M442 0h-127l209 1325h-254l19 113h635l-19 -113h-254zM883 1663l-260 -127h-9l-231 131l14 94l230 -123l270 123z" />
    <glyph glyph-name="tcaron" unicode="&#x165;" horiz-adv-x="675" 
d="M227 242l113 704h-123l12 82h123l47 303h117l-47 -303h231l-12 -82h-231l-111 -700q-6 -40 -6 -70q0 -52 23.5 -75t80.5 -23q68 0 123 37q-5 -57 -47.5 -90t-118.5 -33q-85 0 -132.5 47.5t-47.5 132.5q0 32 6 70zM649 1153l2 10q72 40 97.5 89.5t44.5 160.5l20 125h113
l-17 -102q-19 -122 -90 -202.5t-170 -80.5z" />
    <glyph glyph-name="Tbar" unicode="&#x166;" horiz-adv-x="757" 
d="M442 0h-127l105 672h-187l15 90h186l90 563h-254l19 113h635l-19 -113h-254l-90 -563h187l-15 -90h-186z" />
    <glyph glyph-name="tbar" unicode="&#x167;" horiz-adv-x="614" 
d="M637 629h-231l-60 -383q-6 -40 -6 -70q0 -52 23.5 -75t80.5 -23q68 0 123 37q-5 -57 -47.5 -90t-118.5 -33q-85 0 -132.5 47.5t-47.5 132.5q0 32 6 70l62 387h-123l12 82h123l39 235h-123l12 82h123l47 303h117l-47 -303h231l-12 -82h-231l-39 -235h231z" />
    <glyph glyph-name="Utilde" unicode="&#x168;" horiz-adv-x="962" 
d="M733 326l176 1112h127l-178 -1116q-11 -68 -34 -123.5t-64.5 -105t-109.5 -77.5t-158 -28q-149 0 -220 77.5t-71 200.5q0 44 6 78l174 1094h127l-174 -1100q-6 -30 -6 -72q0 -164 168 -164q110 0 164.5 55.5t72.5 168.5zM934 1710h70q-19 -89 -60 -135.5t-119 -46.5
q-39 0 -73.5 19t-65 38t-59.5 19q-62 0 -84 -88h-70q19 90 64.5 136t113.5 46q40 0 79.5 -19t72 -38t55.5 -19q25 0 45 24t31 64z" />
    <glyph glyph-name="utilde" unicode="&#x169;" horiz-adv-x="804" 
d="M698 0h-114l18 129h-6q-17 -25 -26.5 -38t-32 -36t-45.5 -35t-59.5 -22t-80.5 -10q-90 0 -140 56.5t-50 156.5q0 17 4 49l123 778h117l-123 -772q-4 -28 -4 -41q0 -125 141 -125q75 0 132 47t69 121l122 770h117zM811 1450h70q-19 -89 -60 -135.5t-119 -46.5
q-39 0 -73.5 19t-65 37.5t-59.5 18.5q-62 0 -84 -88h-70q19 90 64.5 136.5t113.5 46.5q40 0 79.5 -19t72 -38t55.5 -19q25 0 45 24t31 64z" />
    <glyph glyph-name="Umacron" unicode="&#x16a;" horiz-adv-x="962" 
d="M733 326l176 1112h127l-178 -1116q-11 -68 -34 -123.5t-64.5 -105t-109.5 -77.5t-158 -28q-149 0 -220 77.5t-71 200.5q0 44 6 78l174 1094h127l-174 -1100q-6 -30 -6 -72q0 -164 168 -164q110 0 164.5 55.5t72.5 168.5zM975 1556h-500l14 91h500z" />
    <glyph glyph-name="umacron" unicode="&#x16b;" horiz-adv-x="804" 
d="M698 0h-114l18 129h-6q-17 -25 -26.5 -38t-32 -36t-45.5 -35t-59.5 -22t-80.5 -10q-90 0 -140 56.5t-50 156.5q0 17 4 49l123 778h117l-123 -772q-4 -28 -4 -41q0 -125 141 -125q75 0 132 47t69 121l122 770h117zM864 1307h-499l14 90h500z" />
    <glyph glyph-name="Ubreve" unicode="&#x16c;" horiz-adv-x="962" 
d="M733 326l176 1112h127l-178 -1116q-11 -68 -34 -123.5t-64.5 -105t-109.5 -77.5t-158 -28q-149 0 -220 77.5t-71 200.5q0 44 6 78l174 1094h127l-174 -1100q-6 -30 -6 -72q0 -164 168 -164q110 0 164.5 55.5t72.5 168.5zM907 1726h88q-22 -93 -94.5 -148.5t-183.5 -55.5
q-107 0 -167.5 55.5t-60.5 148.5h89q5 -57 36.5 -84.5t104.5 -27.5q76 0 120.5 26.5t67.5 85.5z" />
    <glyph glyph-name="ubreve" unicode="&#x16d;" horiz-adv-x="804" 
d="M698 0h-114l18 129h-6q-17 -25 -26.5 -38t-32 -36t-45.5 -35t-59.5 -22t-80.5 -10q-90 0 -140 56.5t-50 156.5q0 17 4 49l123 778h117l-123 -772q-4 -28 -4 -41q0 -125 141 -125q75 0 132 47t69 121l122 770h117zM788 1430h89q-22 -93 -95 -149t-184 -56
q-107 0 -167 55.5t-60 149.5h88q5 -57 36.5 -85t104.5 -28q76 0 120.5 27t67.5 86z" />
    <glyph glyph-name="Uring" unicode="&#x16e;" horiz-adv-x="962" 
d="M733 326l176 1112h127l-178 -1116q-11 -68 -34 -123.5t-64.5 -105t-109.5 -77.5t-158 -28q-149 0 -220 77.5t-71 200.5q0 44 6 78l174 1094h127l-174 -1100q-6 -30 -6 -72q0 -164 168 -164q110 0 164.5 55.5t72.5 168.5zM924 1704q0 -84 -55 -138.5t-142 -54.5
q-73 0 -122.5 52t-49.5 123q0 81 56.5 137.5t142.5 56.5q76 0 123 -46.5t47 -129.5zM846 1700q0 50 -25 77t-71 27q-52 0 -84.5 -31.5t-32.5 -84.5q0 -42 24.5 -71.5t71.5 -29.5q55 0 86 31.5t31 81.5z" />
    <glyph glyph-name="uring" unicode="&#x16f;" horiz-adv-x="804" 
d="M698 0h-114l18 129h-6q-17 -25 -26.5 -38t-32 -36t-45.5 -35t-59.5 -22t-80.5 -10q-90 0 -140 56.5t-50 156.5q0 17 4 49l123 778h117l-123 -772q-4 -28 -4 -41q0 -125 141 -125q75 0 132 47t69 121l122 770h117zM799 1358q0 -84 -55 -138.5t-142 -54.5
q-73 0 -122.5 51.5t-49.5 122.5q0 81 56.5 138t142.5 57q76 0 123 -46.5t47 -129.5zM721 1354q0 50 -25 77t-71 27q-52 0 -84.5 -32t-32.5 -85q0 -42 24.5 -71t71.5 -29q54 0 85.5 31.5t31.5 81.5z" />
    <glyph glyph-name="Uhungarumlaut" unicode="&#x170;" horiz-adv-x="962" 
d="M733 326l176 1112h127l-178 -1116q-11 -68 -34 -123.5t-64.5 -105t-109.5 -77.5t-158 -28q-149 0 -220 77.5t-71 200.5q0 44 6 78l174 1094h127l-174 -1100q-6 -30 -6 -72q0 -164 168 -164q110 0 164.5 55.5t72.5 168.5zM653 1536h-92l111 258h112zM856 1536h-92l121 258
h112z" />
    <glyph glyph-name="uhungarumlaut" unicode="&#x171;" horiz-adv-x="804" 
d="M698 0h-114l18 129h-6q-17 -25 -26.5 -38t-32 -36t-45.5 -35t-59.5 -22t-80.5 -10q-90 0 -140 56.5t-50 156.5q0 17 4 49l123 778h117l-123 -772q-4 -28 -4 -41q0 -125 141 -125q75 0 132 47t69 121l122 770h117zM514 1223h-92l110 258h113zM717 1223h-92l120 258h113z
" />
    <glyph glyph-name="Uogonek" unicode="&#x172;" horiz-adv-x="962" 
d="M496 -307l4 -4q-5 -35 -36 -60.5t-81 -25.5q-57 0 -84.5 37.5t-17.5 101.5q6 46 34.5 96t55 80.5t67.5 71.5q-74 6 -126.5 38.5t-76.5 80t-33 106t3 117.5l176 1106h127l-176 -1112q-16 -103 24 -163.5t140 -60.5q101 0 161 60.5t76 163.5l176 1112h127l-176 -1106
q-10 -62 -35.5 -118.5t-66.5 -105.5t-104 -80.5t-140 -37.5q-56 -70 -89 -125.5t-42 -116.5q-6 -34 7.5 -53t39.5 -19q35 0 66 17z" />
    <glyph glyph-name="uogonek" unicode="&#x173;" horiz-adv-x="804" 
d="M657 -307l5 -4q-5 -35 -36 -60.5t-81 -25.5t-79.5 28.5t-29.5 79.5q0 139 191 289q-16 0 -26.5 11t-10.5 30q0 21 12 88h-6q-17 -25 -26.5 -38t-32 -36t-45.5 -35t-59.5 -22t-80.5 -10q-90 0 -140 56.5t-50 156.5q0 17 4 49l123 778h117l-123 -772q-4 -28 -4 -41
q0 -125 141 -125q75 0 132 47t69 121l122 770h117l-162 -1028q-63 -56 -111 -130t-48 -140q0 -54 53 -54q34 0 65 17z" />
    <glyph glyph-name="Wcircumflex" unicode="&#x174;" horiz-adv-x="1433" 
d="M1098 0h-131l-72 1075h-6l-395 -1075h-123l-17 1296q0 30 -13 45t-34 15q-33 0 -67 -27q10 53 46 84t83 31q60 0 86 -35t26 -113l-2 -1009h8l420 1151h74l84 -1151h8l377 1151h129zM1233 1516l-229 122l-271 -122l10 94l256 131h9l237 -131z" />
    <glyph glyph-name="wcircumflex" unicode="&#x175;" horiz-adv-x="1181" 
d="M926 0h-107l-88 766h-4l-346 -766h-102v887q0 69 -46 69q-32 0 -63 -26h-4q10 51 43.5 77.5t77.5 26.5q48 0 74 -33.5t26 -97.5l-2 -657h6l340 782h70l92 -782h6l256 782h107zM1061 1223l-230 123l-270 -123l10 94l256 131h9l237 -131z" />
    <glyph glyph-name="Ycircumflex" unicode="&#x176;" horiz-adv-x="880" 
d="M526 0h-127l86 547l-118 749q-9 60 -50 60q-33 0 -67 -27q11 54 42 84.5t77 30.5q61 0 82.5 -31.5t31.5 -114.5l88 -596l342 736h123l-424 -891zM952 1516l-229 122l-270 -122l10 94l256 131h8l238 -131z" />
    <glyph glyph-name="ycircumflex" unicode="&#x177;" horiz-adv-x="839" 
d="M438 -389h-110l157 418q-89 0 -128.5 61.5t-39.5 204.5v592q0 36 -10 49.5t-37 13.5q-35 0 -65 -32h-4q10 59 38.5 90.5t84.5 31.5q54 0 84 -32.5t30 -98.5q0 -95 -8 -302t-8 -314q0 -97 15 -136.5t59 -39.5h16l322 911h118zM907 1223l-229 123l-270 -123l10 94l256 131
h8l238 -131z" />
    <glyph glyph-name="Ydieresis" unicode="&#x178;" horiz-adv-x="880" 
d="M526 0h-127l86 547l-118 749q-9 60 -50 60q-33 0 -67 -27q11 54 42 84.5t77 30.5q61 0 82.5 -31.5t31.5 -114.5l88 -596l342 736h123l-424 -891zM621 1626q0 -37 -27 -63.5t-66 -26.5q-33 0 -52 20.5t-19 53.5q0 37 26.5 63.5t65.5 26.5q33 0 52.5 -20.5t19.5 -53.5z
M977 1626q0 -37 -26.5 -63.5t-65.5 -26.5q-33 0 -52.5 20.5t-19.5 53.5q0 37 26.5 63.5t65.5 26.5q33 0 52.5 -20.5t19.5 -53.5z" />
    <glyph glyph-name="Zacute" unicode="&#x179;" horiz-adv-x="808" 
d="M203 0h-101l7 41q18 122 77 223l602 1061h-417l18 113h545l-16 -99l-642 -1167l3 -2q25 41 96 41q39 0 116 -42t121 -42q39 0 72 33q21 -18 21 -56q0 -51 -36 -83.5t-96 -32.5q-38 0 -74.5 17t-61 37t-57.5 37t-63 17q-95 0 -114 -96zM682 1536h-92l121 258h125z" />
    <glyph glyph-name="zacute" unicode="&#x17a;" horiz-adv-x="677" 
d="M635 168h4q37 -25 37 -72t-29 -75.5t-88 -28.5q-40 0 -78.5 17.5t-64 38.5t-58.5 38.5t-63 17.5q-90 0 -117 -104h-98q15 101 80 205l458 731h-370l14 92h471l-14 -94l-469 -778h4q38 30 90 30q45 0 105 -41t106 -41q31 0 51.5 18t28.5 46zM573 1223h-92l121 258h125z
" />
    <glyph glyph-name="Zdotaccent" unicode="&#x17b;" horiz-adv-x="808" 
d="M203 0h-101l7 41q18 122 77 223l602 1061h-417l18 113h545l-16 -99l-642 -1167l3 -2q25 41 96 41q39 0 116 -42t121 -42q39 0 72 33q21 -18 21 -56q0 -51 -36 -83.5t-96 -32.5q-38 0 -74.5 17t-61 37t-57.5 37t-63 17q-95 0 -114 -96zM674 1532q-33 0 -52.5 20.5
t-19.5 53.5q0 37 26.5 63.5t65.5 26.5q33 0 52.5 -20.5t19.5 -53.5q0 -37 -26.5 -63.5t-65.5 -26.5z" />
    <glyph glyph-name="zdotaccent" unicode="&#x17c;" horiz-adv-x="677" 
d="M635 168h4q37 -25 37 -72t-29 -75.5t-88 -28.5q-40 0 -78.5 17.5t-64 38.5t-58.5 38.5t-63 17.5q-90 0 -117 -104h-98q15 101 80 205l458 731h-370l14 92h471l-14 -94l-469 -778h4q38 30 90 30q45 0 105 -41t106 -41q31 0 51.5 18t28.5 46zM561 1229q-33 0 -52.5 20.5
t-19.5 53.5q0 37 27 63.5t66 26.5q33 0 52 -20.5t19 -53.5q0 -37 -26.5 -63.5t-65.5 -26.5z" />
    <glyph glyph-name="Zcaron" unicode="&#x17d;" horiz-adv-x="808" 
d="M203 0h-101l7 41q18 122 77 223l602 1061h-417l18 113h545l-16 -99l-642 -1167l3 -2q25 41 96 41q39 0 116 -42t121 -42q39 0 72 33q21 -18 21 -56q0 -51 -36 -83.5t-96 -32.5q-38 0 -74.5 17t-61 37t-57.5 37t-63 17q-95 0 -114 -96zM950 1663l-260 -127h-8l-231 131
l14 94l229 -123l271 123z" />
    <glyph glyph-name="zcaron" unicode="&#x17e;" horiz-adv-x="677" 
d="M635 168h4q37 -25 37 -72t-29 -75.5t-88 -28.5q-40 0 -78.5 17.5t-64 38.5t-58.5 38.5t-63 17.5q-90 0 -117 -104h-98q15 101 80 205l458 731h-370l14 92h471l-14 -94l-469 -778h4q38 30 90 30q45 0 105 -41t106 -41q31 0 51.5 18t28.5 46zM815 1350l-260 -127h-8
l-232 131l15 94l229 -123l270 123z" />
    <glyph glyph-name="longs" unicode="&#x17f;" horiz-adv-x="532" 
d="M287 0h-117l149 946h-145l12 82h146l22 148q23 151 99 227t192 76q79 0 124.5 -44t45.5 -112q0 -49 -31.5 -90t-78.5 -41q-17 0 -29 4v4q53 39 53 103q0 30 -21 51.5t-67 21.5q-69 0 -109.5 -47.5t-60.5 -163.5z" />
    <glyph glyph-name="florin" unicode="&#x192;" 
d="M227 -129l222 834h-142l15 92h151l98 368q38 141 101.5 213t165.5 72q116 0 170 -98l-76 -54q-1 2 -3.5 6.5t-11 14.5t-19 18t-28.5 14.5t-39 6.5q-53 0 -88 -47t-69 -174l-92 -340h157l-14 -92h-168l-233 -885q-28 -103 -77 -154t-136 -51q-68 0 -105 40t-37 109l11 5
q12 -31 42 -51.5t66 -20.5q50 0 80.5 35t58.5 139z" />
    <glyph glyph-name="AEacute" unicode="&#x1fc;" horiz-adv-x="1290" 
d="M1284 696h-385q-25 -418 -25 -436q0 -85 32 -122.5t102 -37.5q138 0 200 125q13 -6 23 -24.5t10 -40.5q0 -79 -68 -125.5t-169 -46.5q-122 0 -189 68t-67 194q0 18 8 141h-357l-186 -391h-131l700 1438h641l-18 -113h-467l-31 -522h396zM764 494l51 757h-6l-360 -757h315
zM1133 1536h-93l121 258h125z" />
    <glyph glyph-name="aeacute" unicode="&#x1fd;" horiz-adv-x="1193" 
d="M1167 303l-14 -92q-35 -223 -299 -223q-112 0 -184 54t-72 155q0 21 4 51t17.5 107t23.5 145q-63 -1 -118 -10t-107.5 -31.5t-89.5 -56t-59.5 -86.5t-22.5 -121q0 -63 31 -95t83 -32q76 0 140 41h8q-13 -52 -60.5 -87.5t-128.5 -35.5q-84 0 -139 53.5t-55 150.5t45 172.5
t121 120t168.5 66.5t195.5 22l35 222q4 24 4 36q0 60 -34 93.5t-97 33.5q-168 0 -192 -155l-11 -74h-108l10 70q37 245 311 245q158 0 201 -104q91 104 244 104q107 0 175.5 -62t68.5 -167q0 -99 -40 -172t-111.5 -115t-160.5 -62t-198 -20q-6 -36 -16 -96.5t-15.5 -95.5
t-5.5 -51q0 -59 34.5 -93t104.5 -34q166 0 186 141l15 88h112zM801 756l-37 -240q385 0 385 291q0 69 -33.5 109t-97.5 40q-185 0 -217 -200zM848 1223h-92l121 258h124z" />
    <glyph glyph-name="Oslashacute" unicode="&#x1fe;" horiz-adv-x="921" 
d="M754 1536h-92l120 258h125zM250 -70h-96l77 168q-45 68 -45 176q0 47 13.5 154t28 198t42 258.5t37.5 229.5q26 169 117 252.5t252 83.5q89 0 160 -33l53 115h100l-80 -174q56 -71 56 -191q0 -53 -22 -205t-61 -381.5t-40 -238.5q-28 -176 -112 -265t-253 -89
q-115 0 -180 45zM834 1194l-482 -1040q45 -54 131 -54q104 0 157.5 55t72.5 177q5 32 30.5 183t43 258.5t33.5 227t16 162.5q0 5 -1 15.5t-1 15.5zM313 276l469 1024q-40 37 -116 37q-195 0 -230 -221q-11 -69 -48.5 -292.5t-56 -353t-18.5 -187.5v-7z" />
    <glyph glyph-name="oslashacute" unicode="&#x1ff;" horiz-adv-x="804" 
d="M621 1223h-93l121 258h125zM223 -70h-86l74 144q-45 61 -45 143q0 13 1.5 29.5t5 44t7 54t11 75t14.5 91t19 118t22 141.5q43 272 319 272q77 0 135 -28l50 94h90l-76 -143q55 -58 55 -156q0 -79 -80 -551q-48 -270 -317 -270q-90 0 -152 35zM702 846l-383 -731
q35 -35 105 -35q91 0 137.5 41t63.5 139q82 484 82 543q0 8 -5 43zM279 203l374 721q-41 26 -92 26q-88 0 -137 -43t-64 -139q-81 -516 -81 -543v-22z" />
    <glyph glyph-name="Scommaaccent" unicode="&#x218;" horiz-adv-x="839" 
d="M874 1077h-114q18 116 18 140q0 120 -137 120q-99 0 -153 -66t-54 -171q0 -77 36.5 -151.5t88 -136.5t103 -125t88 -140t36.5 -158q0 -79 -20.5 -149.5t-61 -127.5t-108 -90.5t-154.5 -33.5q-114 0 -193 64.5t-79 176.5q0 95 44 155t138 60q-63 -76 -63 -196
q0 -73 40.5 -110.5t114.5 -37.5q105 0 160 74.5t55 202.5q0 66 -36.5 137.5t-88 136.5t-103 131.5t-88 147t-36.5 160.5q0 160 89 260t251 100q106 0 176 -55.5t70 -157.5q0 -39 -19 -160zM184 -500l2 11q72 40 97.5 89t44.5 160l20 125h113l-17 -102q-19 -122 -90 -202.5
t-170 -80.5z" />
    <glyph glyph-name="scommaaccent" unicode="&#x219;" horiz-adv-x="749" 
d="M758 727h-105q13 86 13 107q0 114 -140 114q-75 0 -121.5 -38.5t-46.5 -118.5q0 -47 26 -91.5t64.5 -78.5t84 -74t84 -77t64.5 -88.5t26 -107.5q0 -132 -85 -209t-235 -77q-120 0 -187 63t-67 152q0 75 42.5 128.5t115.5 53.5q-60 -74 -60 -166q0 -62 44.5 -100.5
t121.5 -38.5q87 0 141 46.5t54 137.5q0 41 -19 78.5t-49.5 68t-67 61t-73 63.5t-67 68.5t-49.5 83t-19 101.5q0 121 79 186.5t212 65.5q111 0 171 -52.5t60 -147.5q0 -37 -12 -113zM156 -500l2 11q72 40 97 88.5t44 160.5l20 125h113l-16 -102q-19 -122 -90 -202.5
t-170 -80.5z" />
    <glyph glyph-name="uni021A" unicode="&#x21a;" horiz-adv-x="757" 
d="M442 0h-127l209 1325h-254l19 113h635l-19 -113h-254zM141 -500l2 11q72 40 97.5 89t44.5 160l20 125h113l-17 -102q-19 -122 -90 -202.5t-170 -80.5z" />
    <glyph glyph-name="uni021B" unicode="&#x21b;" horiz-adv-x="614" 
d="M227 242l113 704h-123l12 82h123l47 303h117l-47 -303h231l-12 -82h-231l-111 -700q-6 -40 -6 -70q0 -52 23.5 -75t80.5 -23q68 0 123 37q-5 -57 -47.5 -90t-118.5 -33q-85 0 -132.5 47.5t-47.5 132.5q0 32 6 70zM127 -500l2 11q72 40 97 88.5t44 160.5l21 125h112
l-16 -102q-19 -122 -90 -202.5t-170 -80.5z" />
    <glyph glyph-name="dotlessj" unicode="&#x237;" horiz-adv-x="487" 
d="M-14 -330l4 21q92 13 147.5 64.5t73.5 166.5l176 1106h117l-174 -1102q-23 -145 -92 -205.5t-172 -60.5q-45 0 -80 10z" />
    <glyph glyph-name="circumflex" unicode="&#x2c6;" horiz-adv-x="716" 
d="M803 1223l-230 123l-270 -123l10 94l256 131h9l237 -131z" />
    <glyph glyph-name="caron" unicode="&#x2c7;" horiz-adv-x="716" 
d="M821 1350l-260 -127h-8l-231 131l14 94l229 -123l271 123z" />
    <glyph glyph-name="uni02C9" unicode="&#x2c9;" horiz-adv-x="716" 
d="M815 1317h-500l15 90h499z" />
    <glyph glyph-name="breve" unicode="&#x2d8;" horiz-adv-x="716" 
d="M745 1430h89q-22 -93 -95 -149t-184 -56q-107 0 -167 55.5t-60 149.5h88q5 -57 36.5 -85t104.5 -28q76 0 120.5 27t67.5 86z" />
    <glyph glyph-name="dotaccent" unicode="&#x2d9;" horiz-adv-x="716" 
d="M555 1229q-33 0 -52.5 20.5t-19.5 53.5q0 37 26.5 63.5t65.5 26.5q33 0 52.5 -20.5t19.5 -53.5q0 -37 -26.5 -63.5t-65.5 -26.5z" />
    <glyph glyph-name="ring" unicode="&#x2da;" horiz-adv-x="716" 
d="M756 1358q0 -84 -55 -138.5t-142 -54.5q-73 0 -122.5 51.5t-49.5 122.5q0 81 56.5 138t142.5 57q76 0 123 -46.5t47 -129.5zM678 1354q0 50 -25 77t-71 27q-52 0 -84.5 -32t-32.5 -85q0 -42 24.5 -71t71.5 -29q55 0 86 31.5t31 81.5z" />
    <glyph glyph-name="ogonek" unicode="&#x2db;" horiz-adv-x="716" 
d="M457 -307l4 -4q2 -36 -25 -61t-80 -25q-54 0 -85 27.5t-31 78.5q0 132 172 291h73q-55 -65 -99 -140.5t-44 -129.5q0 -26 13.5 -40t35.5 -14q35 0 66 17z" />
    <glyph glyph-name="tilde" unicode="&#x2dc;" horiz-adv-x="716" 
d="M768 1450h70q-19 -89 -60 -135.5t-119 -46.5q-39 0 -73.5 19t-65 37.5t-59.5 18.5q-62 0 -84 -88h-70q19 90 64.5 136.5t113.5 46.5q40 0 79.5 -19t72 -38t55.5 -19q25 0 45 24t31 64z" />
    <glyph glyph-name="hungarumlaut" unicode="&#x2dd;" horiz-adv-x="716" 
d="M502 1223h-92l110 258h113zM705 1223h-93l121 258h113z" />
    <glyph glyph-name="uni037E" unicode="&#x37e;" horiz-adv-x="571" 
d="M-4 -164l2 10q83 47 117.5 90.5t48.5 139.5l20 125h135l-12 -82q-21 -128 -102 -205.5t-209 -77.5zM451 940q0 -43 -28.5 -69.5t-72.5 -26.5q-36 0 -60 24t-24 62q0 43 29.5 70.5t73.5 27.5q35 0 58.5 -25t23.5 -63z" />
    <glyph glyph-name="tonos" unicode="&#x384;" horiz-adv-x="716" 
d="M561 1223h-102l141 256h135z" />
    <glyph glyph-name="dieresistonos" unicode="&#x385;" horiz-adv-x="716" 
d="M561 1223h-102l121 256h133zM408 1319q0 -37 -27 -63.5t-66 -26.5q-33 0 -52 20.5t-19 53.5q0 37 26.5 63.5t65.5 26.5q33 0 52.5 -20.5t19.5 -53.5zM887 1319q0 -37 -26.5 -63.5t-65.5 -26.5q-33 0 -52.5 20.5t-19.5 53.5q0 37 26.5 63.5t65.5 26.5q33 0 52.5 -20.5
t19.5 -53.5z" />
    <glyph glyph-name="anoteleia" unicode="&#x387;" horiz-adv-x="555" 
d="M395 659q0 -44 -28 -70t-72 -26q-36 0 -60 24t-24 62q0 44 29.5 71.5t72.5 27.5q35 0 58.5 -25.5t23.5 -63.5z" />
    <glyph glyph-name="uni03A9" unicode="&#x3a9;" horiz-adv-x="989" 
d="M928 0h-344l8 61q84 87 183.5 296.5t129.5 408.5l31 203q12 77 12 135q0 131 -59 182t-176 51q-70 0 -122 -16t-97 -56t-75.5 -113.5t-47.5 -182.5l-31 -203q-14 -88 -14 -191q0 -160 31 -305.5t71 -208.5l-8 -61h-344l14 102h197l2 9q-40 81 -65 195t-25 241
q0 106 18 223l31 203q71 477 483 477q72 0 130 -17.5t106.5 -56.5t75 -109.5t26.5 -168.5q0 -74 -10 -135l-31 -203q-31 -194 -105 -365t-167 -284l-2 -9h188z" />
    <glyph glyph-name="pi" unicode="&#x3c0;" horiz-adv-x="925" 
d="M803 0h-94q-18 72 14 268l115 725h-389l-156 -993h-98l155 993q-111 0 -166 -88l-6 2q13 86 74.5 132t159.5 46h649l-14 -92h-109l-115 -723q-27 -168 -20 -270z" />
    <glyph glyph-name="Wgrave" unicode="&#x1e80;" horiz-adv-x="1433" 
d="M1098 0h-131l-72 1075h-6l-395 -1075h-123l-17 1296q0 30 -13 45t-34 15q-33 0 -67 -27q10 53 46 84t83 31q60 0 86 -35t26 -113l-2 -1009h8l420 1151h74l84 -1151h8l377 1151h129zM1028 1536h-90l-94 258h114z" />
    <glyph glyph-name="wgrave" unicode="&#x1e81;" horiz-adv-x="1181" 
d="M926 0h-107l-88 766h-4l-346 -766h-102v887q0 69 -46 69q-32 0 -63 -26h-4q10 51 43.5 77.5t77.5 26.5q48 0 74 -33.5t26 -97.5l-2 -657h6l340 782h70l92 -782h6l256 782h107zM846 1200h-90l-94 258h114z" />
    <glyph glyph-name="Wacute" unicode="&#x1e82;" horiz-adv-x="1433" 
d="M1098 0h-131l-72 1075h-6l-395 -1075h-123l-17 1296q0 30 -13 45t-34 15q-33 0 -67 -27q10 53 46 84t83 31q60 0 86 -35t26 -113l-2 -1009h8l420 1151h74l84 -1151h8l377 1151h129zM1034 1536h-92l121 258h125z" />
    <glyph glyph-name="wacute" unicode="&#x1e83;" horiz-adv-x="1181" 
d="M926 0h-107l-88 766h-4l-346 -766h-102v887q0 69 -46 69q-32 0 -63 -26h-4q10 51 43.5 77.5t77.5 26.5q48 0 74 -33.5t26 -97.5l-2 -657h6l340 782h70l92 -782h6l256 782h107zM848 1223h-92l121 258h124z" />
    <glyph glyph-name="Wdieresis" unicode="&#x1e84;" horiz-adv-x="1433" 
d="M1098 0h-131l-72 1075h-6l-395 -1075h-123l-17 1296q0 30 -13 45t-34 15q-33 0 -67 -27q10 53 46 84t83 31q60 0 86 -35t26 -113l-2 -1009h8l420 1151h74l84 -1151h8l377 1151h129zM903 1634q0 -37 -26.5 -63.5t-65.5 -26.5q-33 0 -52.5 20.5t-19.5 53.5q0 37 26.5 63.5
t65.5 26.5q33 0 52.5 -20.5t19.5 -53.5zM1260 1634q0 -37 -27 -63.5t-66 -26.5q-33 0 -52 20.5t-19 53.5q0 37 26.5 63.5t65.5 26.5q33 0 52.5 -20.5t19.5 -53.5z" />
    <glyph glyph-name="wdieresis" unicode="&#x1e85;" horiz-adv-x="1181" 
d="M926 0h-107l-88 766h-4l-346 -766h-102v887q0 69 -46 69q-32 0 -63 -26h-4q10 51 43.5 77.5t77.5 26.5q48 0 74 -33.5t26 -97.5l-2 -657h6l340 782h70l92 -782h6l256 782h107zM727 1319q0 -37 -26.5 -63.5t-65.5 -26.5q-33 0 -52.5 20.5t-19.5 53.5q0 37 26.5 63.5
t65.5 26.5q33 0 52.5 -20.5t19.5 -53.5zM1083 1319q0 -37 -26.5 -63.5t-65.5 -26.5q-33 0 -52 20.5t-19 53.5q0 37 26.5 63.5t65.5 26.5q33 0 52 -20.5t19 -53.5z" />
    <glyph glyph-name="Ygrave" unicode="&#x1ef2;" horiz-adv-x="880" 
d="M526 0h-127l86 547l-118 749q-9 60 -50 60q-33 0 -67 -27q11 54 42 84.5t77 30.5q61 0 82.5 -31.5t31.5 -114.5l88 -596l342 736h123l-424 -891zM750 1538h-91l-94 258h115z" />
    <glyph glyph-name="ygrave" unicode="&#x1ef3;" horiz-adv-x="839" 
d="M438 -389h-110l157 418q-89 0 -128.5 61.5t-39.5 204.5v592q0 36 -10 49.5t-37 13.5q-35 0 -65 -32h-4q10 59 38.5 90.5t84.5 31.5q54 0 84 -32.5t30 -98.5q0 -95 -8 -302t-8 -314q0 -97 15 -136.5t59 -39.5h16l322 911h118zM694 1223h-90l-94 258h115z" />
    <glyph glyph-name="figuredash" unicode="&#x2012;" horiz-adv-x="647" 
d="M676 662h-496l15 98h495z" />
    <glyph glyph-name="endash" unicode="&#x2013;" horiz-adv-x="1064" 
d="M1118 471h-1024l15 94h1024z" />
    <glyph glyph-name="emdash" unicode="&#x2014;" horiz-adv-x="2088" 
d="M2142 471h-2048l15 94h2048z" />
    <glyph glyph-name="quoteleft" unicode="&#x2018;" horiz-adv-x="421" 
d="M444 1073h-176l174 365h107z" />
    <glyph glyph-name="quoteright" unicode="&#x2019;" horiz-adv-x="421" 
d="M375 1073h-107l105 365h176z" />
    <glyph glyph-name="quotesinglbase" unicode="&#x201a;" horiz-adv-x="421" 
d="M186 -123h-106l102 365h176z" />
    <glyph glyph-name="quotedblleft" unicode="&#x201c;" horiz-adv-x="610" 
d="M666 1073h-170l198 365h82zM399 1073h-170l199 365h82z" />
    <glyph glyph-name="quotedblright" unicode="&#x201d;" horiz-adv-x="610" 
d="M311 1073h-82l111 365h170zM578 1073h-82l110 365h170z" />
    <glyph glyph-name="quotedblbase" unicode="&#x201e;" horiz-adv-x="610" 
d="M414 -123h-107l103 365h176zM147 -123h-106l102 365h176z" />
    <glyph glyph-name="dagger" unicode="&#x2020;" horiz-adv-x="798" 
d="M449 0h-99l154 973h-293l14 90h293l66 416h98l-66 -416h293l-14 -90h-293z" />
    <glyph glyph-name="daggerdbl" unicode="&#x2021;" horiz-adv-x="798" 
d="M449 0h-99l72 459h-293l14 90h293l68 424h-293l14 90h293l66 416h98l-66 -416h293l-14 -90h-293l-67 -424h292l-14 -90h-293z" />
    <glyph glyph-name="bullet" unicode="&#x2022;" horiz-adv-x="1067" 
d="M840 510h-135l-107 -92l-78 92h-135l21 135l-78 94l108 95l21 133h131l112 96l80 -96h131l-20 -131l82 -97l-113 -96z" />
    <glyph glyph-name="onedotenleader" unicode="&#x2024;" horiz-adv-x="421" 
d="M315 90q0 -44 -28 -70t-72 -26q-36 0 -60 24t-24 62q0 44 29 71t73 27q35 0 58.5 -25t23.5 -63z" />
    <glyph glyph-name="twodotenleader" unicode="&#x2025;" horiz-adv-x="849" 
d="M315 90q0 -44 -28 -70t-72 -26q-36 0 -60 24t-24 62q0 44 29 71t73 27q35 0 58.5 -25t23.5 -63zM743 90q0 -44 -28 -70t-72 -26q-36 0 -60 24t-24 62q0 43 29.5 70.5t73.5 27.5q35 0 58 -25t23 -63z" />
    <glyph glyph-name="ellipsis" unicode="&#x2026;" horiz-adv-x="1277" 
d="M315 90q0 -44 -28 -70t-72 -26q-36 0 -60 24t-24 62q0 44 29 71t73 27q35 0 58.5 -25t23.5 -63zM743 90q0 -44 -28 -70t-72 -26q-36 0 -60 24t-24 62q0 43 29.5 70.5t73.5 27.5q35 0 58 -25t23 -63zM1171 90q0 -44 -28 -70t-72 -26q-36 0 -60 24t-24 62q0 43 29.5 70.5
t73.5 27.5q35 0 58 -25t23 -63z" />
    <glyph glyph-name="perthousand" unicode="&#x2030;" horiz-adv-x="1826" 
d="M530 760q12 74 27 163t23.5 139.5t16.5 101t11.5 77t3.5 37.5q0 42 -24.5 66t-73.5 24q-114 0 -129 -108q-80 -482 -80 -519q0 -41 24.5 -66.5t69.5 -25.5q113 0 131 111zM481 -12h-92l686 1462h92zM623 760q-30 -193 -230 -193q-86 0 -133 47.5t-47 126.5q0 33 82 523
q17 94 76 140t147 46q80 0 133.5 -44.5t53.5 -119.5q0 -14 -3 -40t-11 -74.5t-16 -97.5t-23.5 -140.5t-28.5 -173.5zM1163 180q12 74 27 163t23.5 139.5t16.5 101t11.5 77t3.5 37.5q0 42 -24.5 66t-73.5 24q-114 0 -129 -108q-80 -482 -80 -518q0 -41 24.5 -66.5t69.5 -25.5
q59 0 91 30t40 80zM1255 180q-30 -192 -229 -192q-86 0 -133 47.5t-47 126.5q0 32 82 522q17 94 76 140t147 46q80 0 133 -44t53 -119q0 -14 -3 -40t-11 -75l-16 -98t-23.5 -141t-28.5 -173zM1677 180q12 74 27 163t23.5 139.5t16.5 101t11.5 77t3.5 37.5q0 42 -24.5 66
t-73.5 24q-114 0 -129 -108q-80 -482 -80 -518q0 -41 24.5 -66.5t69.5 -25.5q59 0 91 30t40 80zM1769 180q-30 -192 -229 -192q-86 0 -133 47.5t-47 126.5q0 32 82 522q17 94 76 140t147 46q80 0 133 -44t53 -119q0 -14 -3 -40t-11 -75l-16 -98t-23.5 -141t-28.5 -173z" />
    <glyph glyph-name="guilsinglleft" unicode="&#x2039;" horiz-adv-x="458" 
d="M371 113h-86l-99 415l228 396h92l-199 -396z" />
    <glyph glyph-name="guilsinglright" unicode="&#x203a;" horiz-adv-x="458" 
d="M207 113h-92l200 395l-65 416h86l100 -416z" />
    <glyph glyph-name="exclamdbl" unicode="&#x203c;" horiz-adv-x="1001" 
d="M326 379h-37q45 661 108 1059h156q-28 -177 -84.5 -442t-99.5 -441zM252 -6q-39 0 -62.5 22.5t-23.5 57.5q0 41 30 72.5t72 31.5q39 0 62.5 -22.5t23.5 -57.5q0 -42 -28.5 -73t-73.5 -31zM807 379h-37q46 661 109 1059h155q-28 -177 -85 -442t-99 -441zM733 -6
q-39 0 -62.5 22.5t-23.5 57.5q0 41 30.5 72.5t72.5 31.5q39 0 62.5 -22.5t23.5 -57.5q0 -42 -29 -73t-74 -31z" />
    <glyph glyph-name="fraction" unicode="&#x2044;" horiz-adv-x="382" 
d="M8 -12h-100l700 1503h103z" />
    <glyph glyph-name="zerosuperior" unicode="&#x2070;" horiz-adv-x="532" 
d="M547 1182q57 340 70.5 428.5t13.5 124.5q0 42 -20 65t-58 23q-45 0 -75.5 -30t-37.5 -83q-25 -167 -48.5 -304t-31.5 -183.5t-8 -67.5q0 -80 80 -80q52 0 79.5 26t35.5 81zM666 1180q-29 -183 -238 -183q-88 0 -137 47t-49 125q0 51 82 549q34 183 239 183q89 0 138 -42
t49 -120q0 -47 -57 -396q-17 -102 -27 -163z" />
    <glyph glyph-name="foursuperior" unicode="&#x2074;" horiz-adv-x="532" 
d="M602 1008h-113l33 209h-297l11 73l419 590h84l-92 -586h64l-13 -77h-63zM535 1294l55 359h-2l-252 -359h199z" />
    <glyph glyph-name="fivesuperior" unicode="&#x2075;" horiz-adv-x="532" 
d="M246 1241h119q-13 -59 -13 -92q0 -86 78 -86q49 0 78 30.5t41 100.5q39 240 39 260q0 82 -80 82q-43 0 -76 -35.5t-43 -99.5h-115l76 479h426l-12 -82h-315l-43 -266h4q16 37 55.5 61.5t95.5 24.5q146 0 146 -152q0 -34 -39 -272q-18 -102 -75 -152.5t-165 -50.5
q-91 0 -143 39t-52 113q0 37 13 98z" />
    <glyph glyph-name="sixsuperior" unicode="&#x2076;" horiz-adv-x="532" 
d="M735 1663h-119q11 51 11 76q0 84 -74 84q-47 0 -75 -30.5t-38 -96.5l-39 -246h5q15 38 51.5 62t91.5 24q67 0 105 -39t38 -113q0 -40 -26 -200q-29 -193 -234 -193q-95 0 -145.5 44.5t-50.5 123.5q0 27 75 508q37 227 240 227q93 0 143.5 -39.5t50.5 -115.5
q0 -30 -10 -76zM377 1319q-25 -149 -25 -164q0 -92 84 -92q50 0 76.5 30.5t36.5 102.5q26 166 26 182q0 76 -79 76q-46 0 -77.5 -35t-41.5 -100z" />
    <glyph glyph-name="sevensuperior" unicode="&#x2077;" horiz-adv-x="532" 
d="M438 1008h-114l338 794h-312l12 78h418l-10 -63z" />
    <glyph glyph-name="eightsuperior" unicode="&#x2078;" horiz-adv-x="532" 
d="M575 1464v-4q48 -5 80.5 -44.5t32.5 -104.5q0 -25 -18 -133q-15 -98 -73 -142.5t-165 -44.5q-94 0 -147.5 43t-53.5 119q0 13 21 145q24 147 164 162v4q-107 23 -107 148q0 4 17 112q25 170 229 170q84 0 137 -43t53 -118q0 -31 -12 -103q-13 -80 -52 -117.5t-106 -48.5z
M514 1501q46 9 68.5 35.5t31.5 83.5q19 121 19 127q0 38 -24 57t-60 19q-92 0 -107 -99q-18 -115 -18 -129q0 -25 8.5 -43t24 -28t28 -14.5t29.5 -8.5zM473 1425q-38 -8 -65.5 -41t-36.5 -86q-23 -134 -23 -149q0 -86 88 -86q53 0 77.5 26t35.5 91q20 123 20 139
q0 82 -96 106z" />
    <glyph glyph-name="ninesuperior" unicode="&#x2079;" horiz-adv-x="532" 
d="M608 1567l19 123q4 28 4 43q0 90 -82 90q-49 0 -76.5 -30t-36.5 -93q-26 -164 -26 -184q0 -84 77 -84q45 0 78.5 38.5t42.5 96.5zM549 1192l39 244h-4q-12 -30 -48 -58t-92 -28q-76 0 -115.5 40t-39.5 117q0 25 28 201q15 91 75 138.5t161 47.5q195 0 195 -161
q0 -12 -5 -52l-73 -473q-19 -117 -77.5 -167t-172.5 -50q-83 0 -130.5 37t-47.5 100q0 44 32 75.5t86 31.5q20 0 41 -6l-2 -8q-43 -29 -43 -88q0 -29 20.5 -49.5t55.5 -20.5q95 0 117 129z" />
    <glyph glyph-name="parenleftsuperior" unicode="&#x207d;" horiz-adv-x="532" 
d="M549 829h-98q-78 209 -78 457q0 113 18 236q31 198 107 375.5t172 314.5h98q-208 -332 -264 -690q-21 -129 -21 -250q0 -227 66 -443z" />
    <glyph glyph-name="parenrightsuperior" unicode="&#x207e;" horiz-adv-x="532" 
d="M340 829h-98q204 339 262 693q18 111 18 250q0 233 -61 440h98q76 -203 76 -455q0 -105 -19 -235q-31 -198 -106.5 -377t-169.5 -316z" />
    <glyph glyph-name="nsuperior" unicode="&#x207f;" horiz-adv-x="497" 
d="M502 1018l45 280q4 32 4 43q0 76 -78 76q-42 0 -75 -41.5t-42 -105.5l-61 -387h-94l94 598h84l-17 -99h5q20 54 68 80.5t93 26.5q56 0 87.5 -35t31.5 -100q0 -11 -4 -39l-47 -297q-11 -74 -53.5 -109t-102.5 -35q-45 0 -75 23l2 12q60 0 92.5 21t42.5 88z" />
    <glyph glyph-name="zeroinferior" unicode="&#x2080;" horiz-adv-x="532" 
d="M317 -272q57 340 70.5 428.5t13.5 124.5q0 42 -19.5 65t-57.5 23q-45 0 -75.5 -30t-37.5 -83q-25 -167 -48.5 -304t-31.5 -183.5t-8 -67.5q0 -80 80 -80q52 0 79 26t35 81zM436 -274q-29 -183 -237 -183q-88 0 -137.5 47t-49.5 125q0 51 82 549q34 182 240 182
q89 0 137.5 -41.5t48.5 -119.5q0 -47 -57 -396q-17 -102 -27 -163z" />
    <glyph glyph-name="oneinferior" unicode="&#x2081;" horiz-adv-x="532" 
d="M293 -440h-113l117 745h-4l-156 -53l13 80l215 100h65z" />
    <glyph glyph-name="twoinferior" unicode="&#x2082;" horiz-adv-x="532" 
d="M410 -440h-428l12 82q31 38 100.5 123.5t116.5 144t80 102.5q34 47 55.5 82.5t40.5 88.5t19 102q0 41 -20 64.5t-58 23.5q-46 0 -72 -22t-35 -75l-14 -83h-119l14 90q12 82 74 127t160 45q89 0 137.5 -45t48.5 -127q0 -141 -125 -293l-278 -348h303z" />
    <glyph glyph-name="threeinferior" unicode="&#x2083;" horiz-adv-x="532" 
d="M348 8v-4q103 -14 103 -147q0 -36 -7 -90q-20 -123 -76.5 -173.5t-172.5 -50.5q-90 0 -139.5 39t-49.5 113q0 39 12 98h119q-12 -61 -12 -96q0 -82 78 -82q54 0 80 24.5t36 90.5q19 123 19 137q0 43 -25 70.5t-80 27.5h-51l13 82h59q62 0 90.5 25t38.5 90q18 113 18 137
q0 32 -20 54t-55 22q-51 0 -77 -27t-34 -80l-8 -53h-119l8 53q12 85 73 131.5t161 46.5q186 0 186 -172q0 -25 -12 -100q-16 -84 -56 -119.5t-100 -46.5z" />
    <glyph glyph-name="fourinferior" unicode="&#x2084;" horiz-adv-x="532" 
d="M375 -440h-113l33 209h-297l10 73l420 590h84l-92 -586h63l-12 -77h-63zM307 -154l55 359h-2l-251 -359h198z" />
    <glyph glyph-name="fiveinferior" unicode="&#x2085;" horiz-adv-x="532" 
d="M18 -207h119q-12 -54 -12 -92q0 -86 78 -86q49 0 78 30.5t41 100.5q38 234 38 260q0 82 -79 82q-43 0 -76 -35.5t-43 -99.5h-115l76 479h426l-12 -82h-316l-43 -266h4q16 37 56 61.5t96 24.5q145 0 145 -152q0 -34 -39 -272q-18 -102 -74.5 -152.5t-164.5 -50.5
q-91 0 -143 39t-52 113q0 42 12 98z" />
    <glyph glyph-name="sixinferior" unicode="&#x2086;" horiz-adv-x="532" 
d="M508 215h-119q10 46 10 76q0 84 -73 84q-47 0 -75 -30.5t-38 -96.5l-39 -246h4q14 38 51 62t93 24q67 0 105 -38.5t38 -112.5q0 -35 -27 -201q-29 -193 -233 -193q-95 0 -146 44.5t-51 123.5q0 20 76 508q37 227 240 227q93 0 143.5 -39.5t50.5 -115.5q0 -30 -10 -76z
M150 -129q-25 -149 -25 -164q0 -92 84 -92q50 0 76.5 30.5t36.5 102.5q26 166 26 182q0 76 -80 76q-46 0 -77 -34.5t-41 -100.5z" />
    <glyph glyph-name="seveninferior" unicode="&#x2087;" horiz-adv-x="532" 
d="M211 -440h-115l338 794h-311l12 78h418l-10 -63z" />
    <glyph glyph-name="eightinferior" unicode="&#x2088;" horiz-adv-x="532" 
d="M348 16v-4q48 -5 80.5 -44.5t32.5 -104.5q0 -19 -19 -133q-15 -98 -72.5 -142.5t-164.5 -44.5q-94 0 -147.5 43t-53.5 119q0 13 21 145q14 83 56.5 119t106.5 43v4q-106 22 -106 148q0 11 16 112q25 170 230 170q84 0 137 -43t53 -118q0 -31 -12 -103q-13 -80 -52 -117.5
t-106 -48.5zM287 53q46 9 68.5 35.5t31.5 83.5q19 121 19 127q0 38 -24 57t-60 19q-92 0 -107 -99q-18 -115 -18 -129q0 -25 8.5 -43t24 -28t28 -14.5t29.5 -8.5zM246 -23q-38 -8 -66 -41.5t-37 -85.5q-22 -128 -22 -149q0 -86 88 -86q53 0 77.5 26t35.5 91q20 123 20 139
q0 82 -96 106z" />
    <glyph glyph-name="nineinferior" unicode="&#x2089;" horiz-adv-x="532" 
d="M381 119l18 123q4 28 4 43q0 90 -81 90q-49 0 -76.5 -30t-36.5 -93q-27 -171 -27 -184q0 -84 78 -84q45 0 78.5 38.5t42.5 96.5zM322 -256l38 244h-4q-13 -30 -48 -58t-91 -28q-76 0 -116 40t-40 117q0 18 29 201q15 91 75 138.5t161 47.5q194 0 194 -161q0 -20 -4 -52
l-74 -473q-19 -117 -77 -167t-172 -50q-83 0 -131 37.5t-48 100.5q0 44 32 75t87 31q20 0 41 -6l-2 -8q-43 -29 -43 -88q0 -29 20.5 -49.5t55.5 -20.5q95 0 117 129z" />
    <glyph glyph-name="parenleftinferior" unicode="&#x208d;" horiz-adv-x="532" 
d="M305 -721h-98q-78 209 -78 457q0 112 18 235q31 198 107.5 376t171.5 315h98q-208 -331 -264 -691q-20 -123 -20 -250q0 -229 65 -442z" />
    <glyph glyph-name="parenrightinferior" unicode="&#x208e;" horiz-adv-x="532" 
d="M96 -721h-98q205 340 262 692q19 117 19 250q0 230 -62 441h98q76 -203 76 -455q0 -113 -18 -236q-31 -198 -107 -376t-170 -316z" />
    <glyph glyph-name="colonmonetary" unicode="&#x20a1;" 
d="M545 -178h-94l24 170q-32 -4 -53 -4q-38 0 -68 6l-26 -172h-95l31 201q-106 62 -106 192q0 15 4 51l78 488q13 90 61 156.5t119 99.5l29 172h94l-25 -146q36 4 57 4q36 0 66 -6l25 148h94l-29 -183q94 -64 94 -180q0 -36 -16 -137h-102q18 113 18 131q0 63 -39 98
t-119 35q-90 0 -147 -51.5t-72 -151.5l-78 -491q-4 -24 -4 -37q0 -62 40.5 -97.5t119.5 -35.5q92 0 146 41t65 113l16 110h103l-17 -110q-27 -164 -166 -222z" />
    <glyph glyph-name="cruzeiro" unicode="&#x20a2;" 
d="M399 106l119 728h98l-20 -136h4q18 67 64.5 101.5t111.5 34.5q39 0 60.5 -14t21.5 -38q0 -38 -20 -61q-32 10 -95 10q-124 0 -170 -250l-69 -377q68 14 112.5 69t67.5 130q24 -6 39.5 -26.5t15.5 -49.5q0 -96 -81 -167.5t-214 -71.5q-132 0 -200 70t-68 190q0 30 6 65
l123 781q55 356 359 356q122 0 181.5 -60.5t59.5 -162.5q0 -20 -4 -56l-18 -100h-111l16 98q5 35 5 41q0 127 -146 127q-88 0 -141.5 -59t-75.5 -201l-123 -772q-4 -36 -4 -51q0 -123 96 -148z" />
    <glyph glyph-name="franc" unicode="&#x20a3;" 
d="M301 0h-123l80 512h-98l14 94h100l33 217h-98l14 95h101l82 520h557l-19 -113h-434l-66 -407h289l-14 -95h-289l-35 -217h289l-14 -94h-289z" />
    <glyph glyph-name="lira" unicode="&#x20a4;" 
d="M780 0h-741l14 102h92l60 369h-92l14 94h92l35 217h-92l14 95h92l37 231q27 166 129.5 254t257.5 88q132 0 201.5 -69t69.5 -181q0 -25 -7 -65l-14 -99h-119l15 99q6 35 6 61q0 156 -166 156q-104 0 -166 -57t-82 -183l-39 -235h295l-14 -95h-295l-35 -217h295l-14 -94
h-295l-60 -369h527z" />
    <glyph glyph-name="mill" unicode="&#x20a5;" horiz-adv-x="1249" 
d="M848 -8l2 10q83 11 126 57.5t58 147.5l88 555q6 34 6 61q0 125 -120 125q-56 0 -101.5 -28.5t-72.5 -77.5l-7 -13q-13 -26 -20 -69l-119 -760h-117l72 469l-328 -645h-102l475 934q8 41 8 76q0 57 -27.5 85.5t-93.5 28.5q-81 0 -135.5 -60t-68.5 -153l-115 -735h-117
l162 1028h115l-21 -129h6q71 141 222 141q117 0 165 -88l140 273h102l-112 -219q63 34 141 34q86 0 137 -54t51 -150q0 -16 -4 -56l-88 -549q-21 -131 -82.5 -187t-163.5 -56q-41 0 -61 4z" />
    <glyph glyph-name="naira" unicode="&#x20a6;" horiz-adv-x="972" 
d="M819 0h-86l-127 532h-250l-84 -532h-118l84 532h-123l14 95h123l24 155h-122l14 95h123l90 561h127l131 -561h199l90 561h119l-91 -561h123l-14 -95h-123l-24 -155h122l-14 -95h-123zM584 627l-37 155h-152l-24 -155h213zM799 627l24 155h-161l36 -155h101zM524 877
l-63 268h-8l-43 -268h114zM762 391l22 141h-63l33 -141h8z" />
    <glyph glyph-name="peseta" unicode="&#x20a7;" horiz-adv-x="2041" 
d="M281 0h-127l227 1438h199q175 0 283 -97.5t108 -283.5q0 -71 -16 -140t-50.5 -133t-83 -112.5t-118.5 -77.5t-152 -29q-78 0 -125 23v4q202 24 309 137.5t107 319.5q0 133 -73.5 203.5t-213.5 70.5h-66zM1010 242l112 704h-123l13 82h123l47 303h116l-47 -303h232
l-13 -82h-231l-111 -700q-6 -41 -6 -70q0 -52 23.5 -75t81.5 -23q67 0 123 37q-5 -57 -47.5 -90t-118.5 -33q-85 0 -132.5 47.5t-47.5 132.5q0 32 6 70zM2052 727h-104q12 79 12 107q0 114 -139 114q-75 0 -121.5 -38.5t-46.5 -118.5q0 -41 19 -79t50 -69.5t68 -63t74 -64.5
t68 -68t50 -79.5t19 -93.5q0 -132 -85 -209t-235 -77q-120 0 -187 63t-67 152q0 75 42.5 128.5t115.5 53.5q-59 -72 -59 -166q0 -62 44.5 -100.5t121.5 -38.5q87 0 140.5 46.5t53.5 137.5q0 41 -19 78.5t-49.5 68t-67 61t-73 63.5t-67 68.5t-49.5 83t-19 101.5
q0 121 79 186.5t212 65.5q111 0 171 -52.5t60 -147.5q0 -37 -12 -113z" />
    <glyph glyph-name="rupee" unicode="&#x20a8;" horiz-adv-x="1495" 
d="M813 127h2q27 -13 27 -47q0 -42 -28.5 -67t-82.5 -25q-57 0 -95 31.5t-38 99.5q0 63 24.5 189t24.5 192q0 91 -49.5 128.5t-151.5 37.5h-61l-104 -666h-127l161 1028h-139l14 94h140l51 316h168q178 0 272 -80t94 -234v-2h113l-14 -94h-109q-24 -120 -102.5 -202.5
t-204.5 -108.5v-4q80 -3 129 -57t49 -148q0 -64 -25.5 -192t-25.5 -179q0 -27 8.5 -37t28.5 -10q38 0 51 37zM1501 727h-104q12 79 12 107q0 114 -139 114q-75 0 -121.5 -38.5t-46.5 -118.5q0 -41 19 -79t50 -69.5t68 -63t74 -64.5t68 -68t50 -79.5t19 -93.5
q0 -132 -85 -209t-235 -77q-120 0 -186.5 63t-66.5 152q0 75 42 128.5t115 53.5q-59 -72 -59 -166q0 -62 44.5 -100.5t121.5 -38.5q87 0 140.5 46.5t53.5 137.5q0 41 -19 78.5t-49.5 68t-67 61t-73 63.5t-67 68.5t-49.5 83t-19 101.5q0 121 79 186.5t212 65.5
q111 0 171 -52.5t60 -147.5q0 -37 -12 -113zM774 1028h-332l-41 -260h68q118 0 199 70.5t106 189.5zM457 1122h327q0 103 -61.5 153t-173.5 50h-60z" />
    <glyph glyph-name="won" unicode="&#x20a9;" horiz-adv-x="1198" 
d="M932 0h-137q0 108 -15 573h-170l-182 -573h-135l-10 573h-162l14 95h146l-2 155h-119l14 95h105l-9 520h121q0 -54 4 -520h209q84 291 164 520h92l21 -520h217l151 520h121l-160 -520h101l-15 -95h-114l-47 -155h137l-15 -95h-151zM1026 668l45 155h-186l6 -155h135z
M575 823h-178v-155h133q26 82 45 155zM639 668h139q0 65 -4 155h-86zM401 281h9q37 109 92 292h-103zM913 281l84 292h-104l12 -292h8zM719 918h53l-4 133h-6z" />
    <glyph glyph-name="dong" unicode="&#x20ab;" horiz-adv-x="901" 
d="M680 0h-115l13 86h-5q-69 -98 -208 -98q-106 0 -164 60.5t-58 168.5q0 39 4 59l74 472q47 294 279 294q72 0 111.5 -31t39.5 -87q0 -15 -2 -23h-4q-11 20 -43.5 34.5t-77.5 14.5q-83 0 -126 -49t-62 -166l-70 -436q-6 -43 -6 -88q0 -79 34 -112t107 -33q78 0 133 50.5
t66 127.5l160 1001h-207l14 94h207l23 140h116l-22 -140h170l-14 -94h-170zM627 -199h-510l14 95h510z" />
    <glyph glyph-name="Euro" unicode="&#x20ac;" 
d="M709 305h8q55 -19 55 -86q0 -107 -77 -169t-203 -62q-259 0 -259 250q0 62 31 274h-104l14 94h107q11 78 34 217h-106l14 95h109l28 167q35 202 117.5 283.5t239.5 81.5q119 0 182.5 -58.5t63.5 -154.5q0 -26 -7 -61l-14 -89h-111l13 82q4 20 4 56q0 63 -33 95t-110 32
q-99 0 -148 -61.5t-74 -217.5q-6 -32 -13.5 -84.5t-10.5 -70.5h274l-14 -95h-277l-32 -217h274l-14 -94h-277q-37 -236 -37 -268q0 -144 148 -144q86 0 133.5 51t71.5 154z" />
    <glyph glyph-name="litre" unicode="&#x2113;" horiz-adv-x="765" 
d="M684 305h21q-21 -134 -95.5 -221.5t-185.5 -87.5q-93 0 -146 58t-53 163q0 47 8 94l15 90l-94 -73l-39 90l153 121l101 630q16 103 41 174t60 110.5t75 56t92 16.5q92 0 145.5 -66.5t53.5 -177.5q0 -109 -37 -220.5t-101 -209.5t-144 -182.5t-173 -155.5l-29 -188
q-10 -72 -10 -111q0 -65 25.5 -93t83.5 -28q85 0 139.5 57t93.5 154zM485 1167l-82 -514q318 303 318 627q0 73 -25.5 111.5t-66.5 38.5q-52 0 -87 -59.5t-57 -203.5z" />
    <glyph glyph-name="afii61352" unicode="&#x2116;" horiz-adv-x="972" 
d="M1587 1251l-59 -372q-14 -86 -63 -127t-146 -41q-71 0 -117.5 40t-46.5 105q0 19 2 29l60 372q28 173 210 173q71 0 116.5 -40.5t45.5 -107.5q0 -21 -2 -31zM1436 881l59 379q2 8 2 22q0 36 -22 55t-58 19q-49 0 -73.5 -23t-32.5 -73l-60 -379q-2 -8 -2 -25q0 -72 82 -72
q46 0 72 22.5t33 74.5zM1468 500h-372l12 78h373zM819 0h-86l-272 1145h-8l-181 -1145h-118l227 1438h127l246 -1047h8l166 1047h119z" />
    <glyph glyph-name="trademark" unicode="&#x2122;" horiz-adv-x="1228" 
d="M481 768h-102l92 588h-170l14 82h443l-15 -82h-170zM1247 768h-92l84 532h-4l-174 -233h-57l-109 233h-4l-84 -532h-92l106 670h99l120 -275l205 275h109z" />
    <glyph glyph-name="Omega" unicode="&#x2126;" horiz-adv-x="989" 
d="M928 0h-344l8 61q84 87 183.5 296.5t129.5 408.5l31 203q12 77 12 135q0 131 -59 182t-176 51q-70 0 -122 -16t-97 -56t-75.5 -113.5t-47.5 -182.5l-31 -203q-14 -88 -14 -191q0 -160 31 -305.5t71 -208.5l-8 -61h-344l14 102h197l2 9q-40 81 -65 195t-25 241
q0 106 18 223l31 203q71 477 483 477q72 0 130 -17.5t106.5 -56.5t75 -109.5t26.5 -168.5q0 -74 -10 -135l-31 -203q-31 -194 -105 -365t-167 -284l-2 -9h188z" />
    <glyph glyph-name="estimated" unicode="&#x212e;" horiz-adv-x="1751" 
d="M1499 281l6 2q24 -7 21 -31q-2 -18 -21 -37q-111 -102 -278 -163.5t-346 -61.5q-200 0 -347.5 81.5t-221.5 220t-74 314.5q0 135 42.5 266.5t122.5 242t187 195.5t243.5 133t284.5 48q153 0 279.5 -48t211 -132t131 -199t46.5 -248q0 -57 -14 -145h-1262l-70 -447
q-3 -20 1 -40t14 -29q80 -79 192.5 -125.5t243.5 -46.5q178 0 349.5 73.5t258.5 176.5zM1511 758l72 452q4 35 -12 54q-82 95 -194 138.5t-263 43.5t-268 -42.5t-230 -141.5q-24 -18 -28 -58l-72 -446h995z" />
    <glyph glyph-name="onethird" unicode="&#x2153;" horiz-adv-x="1177" 
d="M1053 449v-5q102 -14 102 -147q0 -44 -6 -90q-20 -122 -77 -172.5t-173 -50.5q-90 0 -139 38.5t-49 112.5q0 39 12 98h119q-13 -66 -13 -96q0 -82 78 -82q54 0 80.5 24.5t36.5 90.5q18 117 18 137q0 43 -25 71t-79 28h-51l12 81h59q62 0 90.5 25t38.5 90q19 120 19 137
q0 32 -20.5 54t-55.5 22q-51 0 -76.5 -26.5t-33.5 -79.5l-9 -54h-118l8 54q12 85 72.5 131.5t160.5 46.5q187 0 187 -172q0 -20 -13 -101q-16 -84 -55.5 -119t-99.5 -46zM428 610h-113l117 746h-4l-156 -53l13 79l215 101h65zM352 -12h-100l700 1503h103z" />
    <glyph glyph-name="twothirds" unicode="&#x2154;" horiz-adv-x="1310" 
d="M635 672h-428l12 82q31 38 100.5 123.5t116.5 144t80 102.5q34 47 55.5 82.5t40.5 88.5t19 102q0 41 -20 64.5t-58 23.5q-47 0 -72.5 -21.5t-34.5 -74.5l-14 -84h-119l15 90q12 82 73.5 127t159.5 45q89 0 138 -45t49 -127q0 -141 -125 -293l-279 -348h303zM1186 449v-5
q102 -14 102 -147q0 -44 -6 -90q-20 -122 -77 -172.5t-173 -50.5q-90 0 -139 38.5t-49 112.5q0 39 12 98h119q-12 -61 -12 -96q0 -43 18.5 -62.5t58.5 -19.5q54 0 80.5 24.5t36.5 90.5q19 124 19 137q0 43 -25.5 71t-79.5 28h-51l12 81h60q62 0 90.5 25t38.5 90
q18 113 18 137q0 32 -20.5 54t-55.5 22q-51 0 -76.5 -26.5t-33.5 -79.5l-9 -54h-118l8 54q12 85 72.5 131.5t160.5 46.5q187 0 187 -172q0 -20 -13 -101q-16 -84 -55.5 -119t-99.5 -46zM516 -12h-100l700 1503h103z" />
    <glyph glyph-name="oneeighth" unicode="&#x215b;" horiz-adv-x="1202" 
d="M1075 457v-4q48 -5 80.5 -45t32.5 -105q0 -19 -19 -133q-15 -98 -72.5 -142t-164.5 -44q-94 0 -147.5 42.5t-53.5 118.5q0 14 21 146q14 83 56.5 119t106.5 43v4q-106 22 -106 147q0 12 16 113q25 170 230 170q84 0 137 -43.5t53 -118.5q0 -30 -12 -102
q-13 -80 -52 -117.5t-106 -48.5zM1014 494q46 9 68.5 35t31.5 83q19 121 19 127q0 38 -24 57t-60 19q-93 0 -107 -98q-18 -115 -18 -129q0 -25 8.5 -43t24 -28t28 -14.5t29.5 -8.5zM973 418q-38 -8 -66 -41.5t-37 -85.5q-22 -128 -22 -150q0 -86 88 -86q53 0 77.5 26
t35.5 91q20 123 20 139q0 83 -96 107zM428 610h-113l117 746h-4l-156 -53l13 79l215 101h65zM352 -12h-100l700 1503h103z" />
    <glyph glyph-name="threeeighths" unicode="&#x215c;" horiz-adv-x="1325" 
d="M600 1120v-4q102 -14 102 -147q0 -43 -6 -90q-20 -123 -77 -173.5t-173 -50.5q-90 0 -139 39t-49 113q0 39 12 98h119q-12 -61 -12 -96q0 -82 78 -82q54 0 80 24.5t36 90.5q19 124 19 137q0 43 -25 70.5t-80 27.5h-51l12 82h60q62 0 90.5 25t38.5 90q18 113 18 137
q0 32 -20 54t-55 22q-51 0 -77 -27t-34 -80l-8 -53h-119l8 53q12 85 73 132t161 47q186 0 186 -173q0 -25 -12 -100q-16 -84 -56 -119.5t-100 -46.5zM1198 457v-4q48 -5 80.5 -45t32.5 -105q0 -19 -19 -133q-15 -98 -72.5 -142t-164.5 -44q-94 0 -147.5 42.5t-53.5 118.5
q0 20 20 146q24 147 164 162v4q-106 22 -106 147q0 12 16 113q25 170 230 170q84 0 137 -43.5t53 -118.5q0 -30 -12 -102q-13 -80 -52 -117.5t-106 -48.5zM1137 494q46 9 68.5 35t31.5 83q18 115 18 127q0 38 -24 57t-60 19q-92 0 -106 -98q-18 -115 -18 -129q0 -25 8.5 -43
t24 -28t28 -14.5t29.5 -8.5zM1096 418q-38 -8 -66 -41.5t-37 -85.5q-22 -128 -22 -150q0 -86 88 -86q53 0 77 26t35 91q21 129 21 139q0 83 -96 107zM489 -12h-100l701 1503h102z" />
    <glyph glyph-name="fiveeighths" unicode="&#x215d;" horiz-adv-x="1265" 
d="M1139 457v-4q48 -5 80 -45t32 -105q0 -25 -18 -133q-15 -98 -72.5 -142t-165.5 -44q-94 0 -147 42.5t-53 118.5q0 20 20 146q24 147 164 162v4q-107 23 -107 147q0 5 17 113q25 170 229 170q84 0 137.5 -43.5t53.5 -118.5q0 -24 -13 -102q-13 -80 -52 -117.5t-105 -48.5z
M1077 494q46 9 69 35.5t32 82.5q18 115 18 127q0 38 -24 57t-60 19q-92 0 -106 -98q-19 -121 -19 -129q0 -25 8.5 -43t24 -28t28 -14.5t29.5 -8.5zM1036 418q-38 -8 -65.5 -41t-36.5 -86q-23 -134 -23 -150q0 -86 88 -86q53 0 77.5 26t35.5 91q21 129 21 139q0 83 -97 107z
M217 905h119q-12 -54 -12 -92q0 -86 77 -86q49 0 78 30.5t41 100.5q39 240 39 260q0 82 -80 82q-43 0 -76 -35.5t-43 -99.5h-114l76 479h426l-13 -82h-315l-43 -266h4q16 37 55.5 61.5t95.5 24.5q146 0 146 -152q0 -34 -39 -272q-18 -102 -75 -152.5t-165 -50.5
q-91 0 -142.5 39t-51.5 113q0 42 12 98zM442 -12h-100l700 1503h103z" />
    <glyph glyph-name="seveneighths" unicode="&#x215e;" horiz-adv-x="1232" 
d="M1106 457v-4q48 -5 80.5 -45t32.5 -105q0 -19 -19 -133q-15 -98 -72.5 -142t-164.5 -44q-94 0 -147.5 42.5t-53.5 118.5q0 20 20 146q24 147 164 162v4q-106 22 -106 147q0 12 16 113q25 170 229 170q84 0 137.5 -43.5t53.5 -118.5q0 -30 -12 -102q-13 -80 -52 -117.5
t-106 -48.5zM1044 494q46 9 69 35.5t32 82.5q18 115 18 127q0 38 -24 57t-60 19q-92 0 -106 -98q-19 -121 -19 -129q0 -25 8.5 -43t24 -28t28 -14.5t29.5 -8.5zM1004 418q-38 -8 -66 -41.5t-37 -85.5q-22 -128 -22 -150q0 -86 88 -86q53 0 77 26t35 91q21 129 21 139
q0 83 -96 107zM383 672h-115l338 794h-311l12 78h418l-10 -63zM373 -12h-101l701 1503h102z" />
    <glyph glyph-name="arrowleft" unicode="&#x2190;" horiz-adv-x="1024" 
d="M557 113h-8l-447 610l447 610h8v-370h365l-152 -242l152 -242h-365v-366z" />
    <glyph glyph-name="arrowup" unicode="&#x2191;" horiz-adv-x="1024" 
d="M745 307l-241 152l-242 -152v375h-252v8l492 549l512 -549v-8h-269v-375z" />
    <glyph glyph-name="arrowright" unicode="&#x2192;" horiz-adv-x="1024" 
d="M475 113h-8v366h-365l152 242l-152 242h365v370h8l447 -610z" />
    <glyph glyph-name="arrowdown" unicode="&#x2193;" horiz-adv-x="1024" 
d="M502 307l-492 549v8h252v375l242 -152l241 152v-375h269v-8z" />
    <glyph glyph-name="partialdiff" unicode="&#x2202;" horiz-adv-x="862" 
d="M911 938l-65 -416q-39 -253 -141 -387.5t-265 -134.5q-120 0 -199 95t-79 263q0 93 15 185t48.5 178.5t81 152.5t118.5 106t155 40q75 0 136 -44.5t70 -101.5h2l11 66q22 145 22 234q0 142 -46 204t-140 62q-81 0 -138 -49.5t-85 -130.5h-113q36 132 129 209t221 77
q283 0 283 -377q0 -99 -21 -231zM733 524l25 150q2 12 2 37q0 82 -47.5 142t-132.5 60q-83 0 -145 -51.5t-95 -136t-48.5 -175.5t-15.5 -188q0 -121 44 -188.5t122 -67.5q224 0 291 418z" />
    <glyph glyph-name="uni2206" unicode="&#x2206;" horiz-adv-x="954" 
d="M866 0h-776l10 70l549 1368h105l123 -1364zM764 86l-66 823q-16 195 -12 391h-6q-56 -199 -129 -387l-322 -827h535z" />
    <glyph glyph-name="product" unicode="&#x220f;" horiz-adv-x="1069" 
d="M811 -201h-102l243 1544h-417l-244 -1544h-103l244 1544h-153l16 93h930l-17 -93h-153z" />
    <glyph glyph-name="summation" unicode="&#x2211;" horiz-adv-x="841" 
d="M756 -201h-725l8 54l536 755l-282 766l10 62h684l-14 -82h-557v-6l272 -746l-502 -715l-2 -6h584z" />
    <glyph glyph-name="minus" unicode="&#x2212;" horiz-adv-x="1269" 
d="M1227 477h-1037l15 82h1036z" />
    <glyph glyph-name="uni2215" unicode="&#x2215;" horiz-adv-x="382" 
d="M18 -12h-120l700 1503h123z" />
    <glyph glyph-name="uni2219" unicode="&#x2219;" horiz-adv-x="421" 
d="M449 621q0 -66 -43.5 -107t-108.5 -41q-57 0 -93 37.5t-36 91.5q0 66 47.5 109t114.5 43q51 0 85 -36.5t34 -96.5z" />
    <glyph glyph-name="radical" unicode="&#x221a;" horiz-adv-x="929" 
d="M508 -297h-100l-64 1008h-199l13 77h291l36 -710q-1 -31 -2 -104.5t-2 -94.5l2 -2q40 156 54 201l522 1622h102z" />
    <glyph glyph-name="infinity" unicode="&#x221e;" horiz-adv-x="1329" 
d="M774 686q39 43 65.5 68.5t69.5 58t90 48.5t99 16q98 0 163.5 -71.5t65.5 -182.5q0 -129 -75.5 -216.5t-209.5 -87.5q-168 0 -288 191q-82 -91 -159 -141t-169 -50q-104 0 -171 75.5t-67 180.5q0 127 83 214.5t216 87.5q163 0 287 -191zM709 594q-26 46 -44 72.5t-46 56.5
t-62 43.5t-76 13.5q-83 0 -137.5 -55.5t-54.5 -142.5q0 -70 40.5 -118t110.5 -48q67 0 133 49t136 129zM813 596q64 -99 115 -139.5t119 -40.5q78 0 129 57.5t51 142.5q0 73 -39 118.5t-103 45.5q-111 0 -272 -184z" />
    <glyph glyph-name="integral" unicode="&#x222b;" horiz-adv-x="677" 
d="M18 -315l37 71q30 -20 66 -20q51 0 84.5 39.5t60.5 136.5t56 281q30 186 75 528t70 504q82 516 309 516q48 0 86 -21l-35 -67q-18 12 -67 12q-20 0 -36.5 -7.5t-38 -33.5t-39.5 -72t-38.5 -129t-38.5 -198q-24 -158 -69 -500.5t-74 -525.5q-15 -93 -31 -165.5t-42 -145.5
t-57.5 -121.5t-76.5 -78.5t-100 -30q-65 0 -101 27z" />
    <glyph glyph-name="approxequal" unicode="&#x2248;" horiz-adv-x="1085" 
d="M1038 418h78q-16 -96 -89.5 -162t-184.5 -66q-51 0 -95.5 15t-77.5 37t-64.5 44t-71.5 37t-84 15q-80 0 -121.5 -36.5t-61.5 -100.5h-78q14 95 89 161t186 66q51 0 94.5 -15t75.5 -37t63.5 -43.5t72 -36.5t87.5 -15q79 0 120.5 36.5t61.5 100.5zM1104 836h78
q-14 -96 -88 -162t-185 -66q-51 0 -95.5 15t-78 37t-65.5 44t-72 37t-84 15q-79 0 -120.5 -37t-61.5 -101h-78q16 96 89.5 162t184.5 66q51 0 94.5 -15t76 -37t64.5 -44t73 -37t88 -15q79 0 119.5 37t60.5 101z" />
    <glyph glyph-name="notequal" unicode="&#x2260;" horiz-adv-x="1269" 
d="M1192 248h-617l-176 -248h-88l174 248h-329l12 82h375l264 377h-580l13 81h624l172 242h94l-172 -242h318l-12 -81h-363l-268 -377h571z" />
    <glyph glyph-name="lessequal" unicode="&#x2264;" horiz-adv-x="1269" 
d="M1161 199l-954 426l14 94l1090 426l-17 -105l-956 -364l-2 -6l842 -367zM1137 0h-1035l13 82h1034z" />
    <glyph glyph-name="greaterequal" unicode="&#x2265;" horiz-adv-x="1269" 
d="M1229 625l-1090 -426l17 104l956 367l2 6l-842 364l17 105l954 -426zM1137 0h-1035l13 82h1034z" />
    <glyph glyph-name="triagup" unicode="&#x25b2;" horiz-adv-x="1280" 
d="M1180 375l-25 -74q-115 38 -514.5 38t-515.5 -38l-25 74q124 148 224.5 277.5t155.5 207.5t93 135t50 80l12 23h10q4 -8 13 -24t48.5 -78t93.5 -137.5t155 -205.5t225 -278z" />
    <glyph glyph-name="triagrt" unicode="&#x25ba;" horiz-adv-x="1280" 
d="M1096 709v-11q-8 -4 -24 -12.5t-78 -48.5t-137.5 -93.5t-205.5 -154.5t-278 -225l-74 24q38 116 38 516t-38 515l74 24q236 -196 416.5 -329.5t243.5 -169.5z" />
    <glyph glyph-name="triagdn" unicode="&#x25bc;" horiz-adv-x="1280" 
d="M645 301h-10q-4 8 -13 24t-48.5 78t-93.5 137.5t-155 205.5t-225 278l25 74q115 -38 515 -38t515 38l25 -74q-124 -148 -224.5 -277.5t-155.5 -207.5t-93 -135t-50 -80z" />
    <glyph glyph-name="triaglf" unicode="&#x25c4;" horiz-adv-x="1280" 
d="M981 188l-74 -24q-236 196 -416.5 329.5t-243.5 168.5l-63 36v11q8 4 24 12.5t78 48.5t137.5 93.5t205.5 154.5t278 225l74 -24q-38 -115 -38 -515t38 -516z" />
    <glyph glyph-name="lozenge" unicode="&#x25ca;" horiz-adv-x="929" 
d="M498 -70h-101l-182 775l440 776h99l182 -776zM465 51h8q8 26 55 123l297 526l-125 523q-14 100 -14 135h-6q-20 -57 -62 -135l-292 -514l125 -531q16 -92 14 -127z" />
    <glyph glyph-name="commaaccent" unicode="&#xf6c3;" horiz-adv-x="716" 
d="M127 -500l2 11q72 40 97 88.5t44 160.5l21 125h112l-16 -102q-19 -122 -90 -202.5t-170 -80.5z" />
    <glyph glyph-name="Acute" unicode="&#xf6c9;" horiz-adv-x="716" 
d="M616 1546h-92l121 258h125z" />
    <glyph glyph-name="Caron" unicode="&#xf6ca;" horiz-adv-x="716" 
d="M874 1696l-260 -127h-8l-231 131l14 94l229 -123l271 123z" />
    <glyph glyph-name="Dieresis" unicode="&#xf6cb;" horiz-adv-x="716" 
d="M514 1606q0 -37 -26.5 -63.5t-65.5 -26.5q-33 0 -52.5 20t-19.5 53q0 37 26.5 63.5t65.5 26.5q33 0 52.5 -20t19.5 -53zM870 1606q0 -37 -26.5 -63.5t-65.5 -26.5q-33 0 -52 20t-19 53q0 37 26.5 63.5t65.5 26.5q33 0 52 -20t19 -53z" />
    <glyph glyph-name="DieresisAcute" unicode="&#xf6cc;" horiz-adv-x="716" 
d="M561 1522h-102l121 256h133zM408 1618q0 -37 -27 -63.5t-66 -26.5q-33 0 -52 20.5t-19 53.5q0 37 26.5 63.5t65.5 26.5q33 0 52.5 -20.5t19.5 -53.5zM887 1618q0 -37 -26.5 -63.5t-65.5 -26.5q-33 0 -52.5 20.5t-19.5 53.5q0 37 26.5 63.5t65.5 26.5q33 0 52.5 -20.5
t19.5 -53.5z" />
    <glyph glyph-name="DieresisGrave" unicode="&#xf6cd;" horiz-adv-x="716" 
d="M643 1524h-102l-90 256h122zM408 1620q0 -37 -27 -63.5t-66 -26.5q-33 0 -52 20.5t-19 53.5q0 37 26.5 63.5t65.5 26.5q33 0 52.5 -20.5t19.5 -53.5zM887 1620q0 -37 -26.5 -63.5t-65.5 -26.5q-33 0 -52.5 20.5t-19.5 53.5q0 37 26.5 63.5t65.5 26.5q33 0 52.5 -20.5
t19.5 -53.5z" />
    <glyph glyph-name="Grave" unicode="&#xf6ce;" horiz-adv-x="716" 
d="M680 1548h-90l-94 258h114z" />
    <glyph glyph-name="Hungarumlaut" unicode="&#xf6cf;" horiz-adv-x="716" 
d="M555 1563h-92l110 258h113zM758 1563h-92l120 258h113z" />
    <glyph glyph-name="Macron" unicode="&#xf6d0;" horiz-adv-x="716" 
d="M856 1579h-500l15 90h499z" />
    <glyph glyph-name="cyrBreve" unicode="&#xf6d1;" horiz-adv-x="716" 
d="M793 1729h88q-22 -93 -95 -149t-184 -56q-107 0 -167 55.5t-60 149.5h88q5 -57 36.5 -85t104.5 -28q76 0 121 27t68 86z" />
    <glyph glyph-name="cyrFlex" unicode="&#xf6d2;" horiz-adv-x="716" 
d="M852 1536l-229 123l-271 -123l10 94l256 131h9l237 -131z" />
    <glyph glyph-name="dblGrave" unicode="&#xf6d3;" horiz-adv-x="716" 
d="M743 1546h-92l-49 258h113zM541 1546h-92l-60 258h113z" />
    <glyph glyph-name="cyrbreve" unicode="&#xf6d4;" horiz-adv-x="716" 
d="M745 1430h89q-22 -93 -95 -149t-184 -56q-107 0 -167 55.5t-60 149.5h88q5 -57 36.5 -85t104.5 -28q76 0 120.5 27t67.5 86z" />
    <glyph glyph-name="cyrflex" unicode="&#xf6d5;" horiz-adv-x="716" 
d="M803 1223l-230 123l-270 -123l10 94l256 131h9l237 -131z" />
    <glyph glyph-name="dblgrave" unicode="&#xf6d6;" horiz-adv-x="716" 
d="M692 1223h-92l-49 258h113zM489 1223h-92l-59 258h113z" />
    <glyph glyph-name="dieresisacute" unicode="&#xf6d7;" horiz-adv-x="716" 
d="M561 1223h-102l121 256h133zM408 1319q0 -37 -27 -63.5t-66 -26.5q-33 0 -52 20.5t-19 53.5q0 37 26.5 63.5t65.5 26.5q33 0 52.5 -20.5t19.5 -53.5zM887 1319q0 -37 -26.5 -63.5t-65.5 -26.5q-33 0 -52.5 20.5t-19.5 53.5q0 37 26.5 63.5t65.5 26.5q33 0 52.5 -20.5
t19.5 -53.5z" />
    <glyph glyph-name="dieresisgrave" unicode="&#xf6d8;" horiz-adv-x="716" 
d="M643 1223h-102l-90 256h122zM408 1319q0 -37 -27 -63.5t-66 -26.5q-33 0 -52 20.5t-19 53.5q0 37 26.5 63.5t65.5 26.5q33 0 52.5 -20.5t19.5 -53.5zM887 1319q0 -37 -26.5 -63.5t-65.5 -26.5q-33 0 -52.5 20.5t-19.5 53.5q0 37 26.5 63.5t65.5 26.5q33 0 52.5 -20.5
t19.5 -53.5z" />
    <glyph glyph-name="rupiah" unicode="&#xf6dd;" horiz-adv-x="1642" 
d="M401 768h68q141 0 228 99.5t87 254.5q0 103 -61.5 153t-173.5 50h-60zM813 127h2q27 -13 27 -47q0 -42 -28.5 -67t-82.5 -25q-57 0 -95 31.5t-38 99.5q0 63 24.5 189t24.5 192q0 91 -49.5 128.5t-151.5 37.5h-61l-104 -666h-127l227 1438h168q178 0 272 -80t94 -234
q0 -155 -82.5 -265t-234.5 -142v-4q80 -3 129 -57t49 -148q0 -64 -25.5 -192t-25.5 -179q0 -27 8.5 -37t28.5 -10q38 0 51 37zM1022 -373h-117l221 1401h115l-20 -129h6q18 25 27.5 38t33 36t46.5 35t60 22t81 10q86 0 137 -58t51 -155q0 -19 -4 -51l-82 -504
q-14 -84 -41.5 -141.5t-66.5 -87.5t-81 -42.5t-96 -12.5q-78 0 -124 41.5t-38 99.5h5q13 -20 45.5 -34.5t76.5 -14.5q88 0 137.5 45.5t67.5 157.5l78 489q4 28 4 41q0 125 -141 125q-75 0 -132 -47t-69 -121z" />
    <glyph glyph-name="threequartersemdash" unicode="&#xf6de;" horiz-adv-x="1064" 
d="M1143 633h-1024l14 94h1024z" />
    <glyph glyph-name="centinferior" unicode="&#xf6df;" horiz-adv-x="622" 
d="M272 -590h-84l23 137q-89 7 -136.5 62.5t-47.5 144.5q0 40 4 60l55 342q21 129 88 208t178 89l19 112h84l-17 -114q80 -9 120 -58.5t40 -124.5q0 -26 -18 -147h-107q19 117 19 139q0 52 -29 77t-78 25q-72 0 -119.5 -47t-66.5 -168l-56 -340q-4 -32 -4 -47
q0 -122 127 -122q77 0 119 41t74 120h6q39 -16 39 -67q0 -77 -59.5 -127t-149.5 -56z" />
    <glyph glyph-name="centsuperior" unicode="&#xf6e0;" horiz-adv-x="622" 
d="M500 858h-84l22 137q-89 7 -136.5 62.5t-47.5 144.5q0 40 4 60l55 342q21 129 88.5 208t178.5 89l18 112h84l-16 -115q80 -9 119.5 -58t39.5 -124q0 -26 -18 -147h-107q19 117 19 139q0 52 -29 77t-78 25q-72 0 -119.5 -47t-66.5 -168l-55 -340q-4 -32 -4 -47
q0 -123 127 -123q76 0 118 41t74 121h6q39 -16 39 -67q0 -77 -59.5 -127t-149.5 -56z" />
    <glyph glyph-name="commainferior" unicode="&#xf6e1;" horiz-adv-x="366" 
d="M-51 -645v8q62 28 90.5 68t42.5 131l14 100h92l-14 -96q-12 -76 -76.5 -139t-148.5 -72z" />
    <glyph glyph-name="commasuperior" unicode="&#xf6e2;" horiz-adv-x="366" 
d="M176 803v8q62 28 90.5 68t42.5 131l15 100h92l-15 -96q-12 -76 -76.5 -139t-148.5 -72z" />
    <glyph glyph-name="dollarinferior" unicode="&#xf6e3;" horiz-adv-x="641" 
d="M270 -590h-84l23 137q-83 7 -133.5 62t-50.5 135q0 69 41 117t116 55l6 -4q-22 -25 -36.5 -69.5t-14.5 -82.5q0 -56 33 -86t94 -30q70 0 117 38.5t47 108.5q0 41 -24 78t-59.5 63t-77.5 58t-77.5 62t-59.5 74.5t-24 96.5q0 101 69 164t175 68l19 110h84l-17 -114
q160 -19 160 -170q0 -66 -18 -154h-105q19 108 19 133q0 54 -28 78t-89 24q-66 0 -110 -36.5t-44 -104.5q0 -47 32.5 -86.5t78.5 -70.5t92 -64.5t78.5 -83.5t32.5 -113q0 -113 -62 -183t-180 -71z" />
    <glyph glyph-name="dollarsuperior" unicode="&#xf6e4;" horiz-adv-x="641" 
d="M498 858h-84l22 137q-83 7 -133.5 62t-50.5 135q0 69 41.5 117t116.5 55l6 -4q-22 -25 -36.5 -69.5t-14.5 -82.5q0 -56 33 -86t94 -30q70 0 116.5 38.5t46.5 108.5q0 36 -17.5 67.5t-46 56.5t-63 50t-68.5 51t-62.5 55t-46 68t-17.5 84q0 101 69 164t175 68l18 110h84
l-16 -115q159 -19 159 -169q0 -66 -18 -154h-105q19 108 19 133q0 54 -28.5 78t-88.5 24q-66 0 -109.5 -36t-43.5 -105q0 -35 17.5 -65t45 -53.5t61 -46.5t66.5 -48t60.5 -53t45 -67t17.5 -85q0 -113 -62 -183t-180 -71z" />
    <glyph glyph-name="hypheninferior" unicode="&#xf6e5;" horiz-adv-x="532" 
d="M463 -47h-410l13 74h409z" />
    <glyph glyph-name="hyphensuperior" unicode="&#xf6e6;" horiz-adv-x="532" 
d="M690 1401h-409l12 74h409z" />
    <glyph glyph-name="periodinferior" unicode="&#xf6e7;" horiz-adv-x="366" 
d="M180 -379q0 -31 -19 -49t-50 -18q-26 0 -43 16t-17 43q0 30 21 51t51 21q26 0 41.5 -18t15.5 -46z" />
    <glyph glyph-name="periodsuperior" unicode="&#xf6e8;" horiz-adv-x="366" 
d="M406 1049q0 -31 -19.5 -49.5t-50.5 -18.5q-26 0 -43 16t-17 43q0 30 21 51t51 21q26 0 42 -17.5t16 -45.5z" />
    <glyph glyph-name="asuperior" unicode="&#xf6e9;" horiz-adv-x="483" 
d="M567 883h-94l47 297q-80 0 -145.5 -50t-65.5 -133q0 -59 47 -59q35 0 68 33h4q0 -45 -32 -71t-79 -26q-45 0 -74.5 34.5t-29.5 88.5q0 59 26 103t72 69t99 38t116 16l17 104q4 24 4 33q0 65 -76 65q-51 0 -72.5 -22t-29.5 -74l-7 -37h-94l6 37q13 74 63 118t136 44
q78 0 122 -35.5t44 -99.5q0 -23 -2 -35z" />
    <glyph glyph-name="bsuperior" unicode="&#xf6ea;" horiz-adv-x="522" 
d="M537 1079l34 226q4 32 4 43q0 77 -69 77q-20 0 -38 -6.5t-28.5 -13.5t-20.5 -15.5t-11 -9.5h-7q7 42 46 75.5t94 33.5q129 0 129 -127q0 -19 -4 -59l-37 -236q-15 -95 -64.5 -144t-128.5 -49q-48 0 -88.5 27t-44.5 76h-2l-14 -94h-86l127 809h94l-98 -627q-2 -10 -2 -31
q0 -42 22.5 -68t61.5 -26q108 0 131 139z" />
    <glyph glyph-name="dsuperior" unicode="&#xf6eb;" horiz-adv-x="522" 
d="M600 883h-86l14 94h-2q-19 -50 -62 -76.5t-89 -26.5q-71 0 -109.5 41.5t-38.5 114.5q0 15 4 51l35 224q31 184 183 184q55 0 84 -33.5t22 -75.5h-6q-1 1 -5.5 7t-10 11.5t-14.5 12t-22.5 10.5t-29.5 4q-89 0 -107 -120l-34 -226q-4 -28 -4 -41q0 -98 90 -98q47 0 80.5 35
t42.5 90l98 627h94z" />
    <glyph glyph-name="esuperior" unicode="&#xf6ec;" horiz-adv-x="532" 
d="M612 1085l-8 -57q-24 -154 -190 -154q-80 0 -125 39t-45 103q0 23 2 35l43 270q12 78 66.5 124t146.5 46q72 0 109.5 -39.5t37.5 -105.5q0 -58 -24.5 -102.5t-67 -71t-94.5 -41t-113 -17.5l-12 -70q-2 -8 -2 -24q0 -38 21 -59t59 -21q90 0 102 90l8 55h86zM383 1321
l-25 -154q83 2 145 45.5t62 128.5q0 84 -71 84q-97 0 -111 -104z" />
    <glyph glyph-name="isuperior" unicode="&#xf6ed;" horiz-adv-x="323" 
d="M348 883h-94l94 598h94zM420 1622q-24 0 -41 17t-17 40q0 33 22 52.5t52 19.5q24 0 40 -16.5t16 -40.5q0 -34 -21 -53t-51 -19z" />
    <glyph glyph-name="lsuperior" unicode="&#xf6ee;" horiz-adv-x="319" 
d="M346 883h-94l127 809h94z" />
    <glyph glyph-name="msuperior" unicode="&#xf6ef;" horiz-adv-x="765" 
d="M631 895l2 14q66 0 97.5 28.5t43.5 100.5l37 238q6 37 6 65q0 39 -15.5 56.5t-49.5 17.5q-51 0 -85 -40t-46 -115l-60 -377h-92l63 409q5 25 5 54q0 37 -14 53t-44 16q-46 0 -80.5 -42.5t-44.5 -112.5l-59 -377h-94l94 598h84l-14 -90h4q16 37 54.5 67.5t88.5 30.5
q52 0 79 -27t32 -71q22 48 63.5 73t87.5 25q137 0 137 -143q0 -34 -6 -74l-35 -217q-27 -181 -172 -181q-39 0 -67 21z" />
    <glyph glyph-name="osuperior" unicode="&#xf6f0;" horiz-adv-x="532" 
d="M662 1307l-41 -267q-25 -166 -211 -166q-80 0 -123 40.5t-43 107.5q0 23 2 35l43 268q12 76 68 121t145 45q81 0 121.5 -40.5t40.5 -107.5q0 -24 -2 -36zM526 1042l43 273q2 10 2 31q0 40 -18 59.5t-59 19.5q-50 0 -76 -24t-35 -78l-45 -279q-2 -10 -2 -26q0 -78 80 -78
q50 0 76.5 24t33.5 78z" />
    <glyph glyph-name="rsuperior" unicode="&#xf6f1;" horiz-adv-x="409" 
d="M295 883h-94l94 598h86l-25 -156h2q21 72 62.5 118t105.5 46q52 0 78.5 -25.5t26.5 -66.5q0 -47 -26 -78t-70 -31q-41 0 -62 21l2 6q32 5 48 19t16 44q0 14 -11 23.5t-28 9.5q-55 0 -98 -59.5t-58 -155.5z" />
    <glyph glyph-name="ssuperior" unicode="&#xf6f2;" horiz-adv-x="514" 
d="M629 1286h-80l8 55q2 8 2 27q0 57 -76 57q-44 0 -72 -22t-28 -66q0 -31 23 -60t55.5 -53.5t64.5 -50t55 -60t23 -73.5q0 -82 -55.5 -122.5t-147.5 -40.5q-83 0 -126.5 40.5t-43.5 100.5q0 49 31 77t86 31h4q-41 -41 -41 -108q0 -33 24 -54.5t71 -21.5q106 0 106 96
q0 30 -22.5 58t-54 51.5t-63.5 49t-54.5 60.5t-22.5 76q0 77 53.5 117.5t140.5 40.5q68 0 109 -34t41 -87q0 -19 -2 -29z" />
    <glyph glyph-name="tsuperior" unicode="&#xf6f3;" horiz-adv-x="378" 
d="M528 973l2 -4q-6 -42 -36.5 -67t-75.5 -25q-58 0 -91.5 28.5t-33.5 85.5q0 13 4 49l59 377h-102l10 64h103l26 170h94l-26 -170h135l-10 -64h-135l-60 -383q-4 -28 -4 -39q0 -32 12.5 -43.5t36.5 -11.5q56 0 92 33z" />
    <glyph glyph-name="Brevesmall" unicode="&#xf6f4;" horiz-adv-x="716" 
d="M762 1544h88q-22 -93 -95 -149t-184 -56q-107 0 -167 55.5t-60 149.5h88q5 -57 36.5 -84.5t104.5 -27.5q76 0 121 26.5t68 85.5z" />
    <glyph glyph-name="Caronsmall" unicode="&#xf6f5;" horiz-adv-x="716" 
d="M838 1464l-260 -127h-9l-231 131l14 95l230 -123l270 123z" />
    <glyph glyph-name="Circumflexsmall" unicode="&#xf6f6;" horiz-adv-x="716" 
d="M819 1337l-229 123l-271 -123l11 95l256 131h8l237 -131z" />
    <glyph glyph-name="Dotaccentsmall" unicode="&#xf6f7;" horiz-adv-x="716" 
d="M571 1343q-33 0 -52 20.5t-19 53.5q0 37 26.5 63.5t65.5 26.5q33 0 52.5 -20t19.5 -53q0 -37 -27 -64t-66 -27z" />
    <glyph glyph-name="Hungarumlautsmall" unicode="&#xf6f8;" horiz-adv-x="716" 
d="M518 1337h-92l111 258h112zM721 1337h-92l121 258h112z" />
    <glyph glyph-name="Lslashsmall" unicode="&#xf6f9;" horiz-adv-x="716" 
d="M666 0h-512l75 479l-147 -57l16 96l146 57l84 535h127l-76 -483l223 88l-16 -97l-221 -88l-68 -417h385z" />
    <glyph glyph-name="OEsmall" unicode="&#xf6fa;" horiz-adv-x="1189" 
d="M1180 512h-344l-35 -217q-4 -24 -4 -49q0 -146 135 -146q139 0 201 125q13 -6 22.5 -24.5t9.5 -40.5q0 -79 -68 -125.5t-169 -46.5q-160 0 -221 116q-48 -60 -105.5 -88t-144.5 -28q-132 0 -195 70.5t-63 195.5q0 53 8 100l67 424q27 175 112 259.5t245 84.5
q66 0 108 -16.5t76 -52.5l8 57h471l-16 -113h-365l-61 -379h344zM690 332l72 446q6 40 6 72q0 160 -154 160q-92 0 -143 -56t-70 -176l-71 -446q-6 -41 -6 -72q0 -160 149 -160q181 0 217 232z" />
    <glyph glyph-name="Ogoneksmall" unicode="&#xf6fb;" horiz-adv-x="716" 
d="M457 -307l4 -4q2 -36 -25 -61t-80 -25q-54 0 -85 27.5t-31 78.5q0 132 172 291h73q-55 -65 -99 -140.5t-44 -129.5q0 -26 13.5 -40t35.5 -14q35 0 66 17z" />
    <glyph glyph-name="Ringsmall" unicode="&#xf6fc;" horiz-adv-x="716" 
d="M772 1473q0 -84 -55 -138.5t-142 -54.5q-73 0 -122.5 51.5t-49.5 122.5q0 81 56.5 138t142.5 57q76 0 123 -46.5t47 -129.5zM694 1468q0 50 -25 77.5t-71 27.5q-52 0 -84.5 -32t-32.5 -85q0 -41 25 -70.5t72 -29.5q54 0 85 31t31 81z" />
    <glyph glyph-name="Scaronsmall" unicode="&#xf6fd;" horiz-adv-x="839" 
d="M825 770h-114q16 101 16 125q0 115 -143 115q-187 0 -187 -160q0 -49 20.5 -92.5t53.5 -78t72.5 -68t79.5 -67.5t73 -70t53.5 -83t20.5 -100q0 -141 -89 -222t-243 -81q-122 0 -196 73t-74 183q0 86 50.5 139t131.5 49q-59 -88 -59 -174q0 -74 42.5 -116t117.5 -42
q192 0 192 187q0 50 -27.5 95.5t-68.5 80t-89.5 76t-89.5 81t-68.5 98t-27.5 124.5q0 133 83.5 206.5t234.5 73.5q122 0 188 -58t66 -165q0 -17 -19 -129zM899 1382l-260 -127h-8l-232 131l15 95l229 -123l270 123z" />
    <glyph glyph-name="Tildesmall" unicode="&#xf6fe;" horiz-adv-x="716" 
d="M784 1565h70q-19 -89 -59.5 -136t-118.5 -47q-39 0 -74 19t-65.5 38t-59.5 19q-62 0 -84 -88h-69q19 90 64.5 136t113.5 46q40 0 79.5 -19t72 -37.5t55.5 -18.5q51 0 75 88z" />
    <glyph glyph-name="Zcaronsmall" unicode="&#xf6ff;" horiz-adv-x="798" 
d="M199 0h-101l8 61q7 52 28 103.5t40.5 82t52.5 75.5l504 675h-416l17 113h542l-14 -98l-534 -723q-82 -98 -88 -139l2 -3q45 48 112 48q39 0 122.5 -42t127.5 -42q40 0 72 32q7 -6 12.5 -22t5.5 -29q0 -104 -123 -104q-48 0 -92.5 26t-85 52t-78.5 26q-96 0 -114 -92z
M883 1382l-260 -127h-9l-231 131l14 95l230 -123l270 123z" />
    <glyph glyph-name="exclamsmall" unicode="&#xf721;" horiz-adv-x="495" 
d="M326 379h-37q0 345 55 731h156q-28 -177 -71.5 -360t-72.5 -277zM252 -6q-39 0 -62.5 22.5t-23.5 57.5q0 41 30 72.5t72 31.5q39 0 62.5 -22.5t23.5 -57.5q0 -42 -28.5 -73t-73.5 -31z" />
    <glyph glyph-name="dollaroldstyle" unicode="&#xf724;" horiz-adv-x="819" 
d="M451 -178h-95l27 170q-99 17 -157 86.5t-58 165.5q0 86 50.5 139t131.5 49q-59 -88 -59 -174q0 -74 42.5 -116t117.5 -42q192 0 192 187q0 50 -27.5 95.5t-68.5 80t-89.5 76t-89.5 81t-68.5 98t-27.5 124.5q0 127 75.5 199.5t213.5 78.5l23 144h94l-23 -148
q91 -14 140 -69.5t49 -147.5q0 -17 -19 -129h-114q16 101 16 125q0 115 -143 115q-187 0 -187 -160q0 -49 20.5 -92.5t53.5 -78t72.5 -68t79.5 -67.5t73 -70t53.5 -83t20.5 -100q0 -132 -79 -212t-216 -89z" />
    <glyph glyph-name="ampersandsmall" unicode="&#xf726;" horiz-adv-x="940" 
d="M907 0h-131l-274 565q-108 -49 -179 -134.5t-71 -199.5q0 -60 36 -98.5t99 -38.5q125 0 150 137h8q12 -9 24.5 -36t12.5 -56q0 -67 -57.5 -112t-159.5 -45q-119 0 -186.5 68.5t-67.5 172.5q0 147 102 248.5t262 151.5q-5 10 -19.5 37.5t-19.5 38t-16 33.5t-15 36t-10 33
t-8 37.5t-2 35.5q0 116 61 183t166 73q103 0 152 -45.5t49 -99.5q0 -42 -23.5 -77t-62.5 -48h-8q2 14 2 39q0 61 -23.5 93t-79.5 32q-51 0 -82.5 -37t-31.5 -100q0 -29 10.5 -64t21 -57.5t41.5 -84.5t46 -93z" />
    <glyph glyph-name="zerooldstyle" unicode="&#xf730;" 
d="M621 309l75 492q6 41 6 78q0 67 -30 104t-103 37q-49 0 -85 -17t-57.5 -49.5t-34 -68.5t-19.5 -84l-76 -492q-6 -41 -6 -78q0 -141 133 -141q93 0 137 59.5t60 159.5zM807 766l-66 -432q-31 -194 -101.5 -270t-217.5 -76q-246 0 -246 237q0 44 10 119l66 432
q30 193 105 270.5t223 77.5q118 0 177.5 -56.5t59.5 -180.5q0 -46 -10 -121z" />
    <glyph glyph-name="oneoldstyle" unicode="&#xf731;" 
d="M516 0h-117l156 989l-223 -53l14 86l258 88h86z" />
    <glyph glyph-name="twooldstyle" unicode="&#xf732;" 
d="M227 0h-100l8 61q10 73 46.5 140.5t87 120t109.5 103.5t115.5 102t103 104t75 120t28.5 140q0 127 -133 127q-82 0 -121 -43t-51 -139l-10 -76h-111l9 76q29 286 295 286q239 0 239 -231q0 -71 -26.5 -140.5t-70.5 -127t-97.5 -112t-109 -102.5t-103.5 -90t-84 -84
t-47 -77l6 -2q43 37 98 37q40 0 114 -39t119 -39q22 0 44.5 11.5t33.5 27.5q29 -23 29 -62q0 -46 -34 -74t-85 -28q-35 0 -72.5 16t-64 35t-63 35t-70.5 16q-50 0 -76 -26.5t-31 -65.5z" />
    <glyph glyph-name="threeoldstyle" unicode="&#xf733;" 
d="M297 55l2 -6q-76 -69 -76 -166q0 -55 35 -85.5t102 -30.5q98 0 145.5 55.5t63.5 163.5q37 234 37 260q0 75 -41 107t-145 32h-45l14 86h45q115 0 169.5 52.5t74.5 181.5q27 168 27 198q0 68 -31 94.5t-90 26.5q-90 0 -133 -45t-60 -152l-8 -49h-115l6 45
q23 160 103.5 232.5t220.5 72.5q112 0 165.5 -59t53.5 -166q0 -35 -22 -190q-9 -58 -23.5 -103t-34.5 -73.5t-39.5 -47.5t-46.5 -30t-45.5 -16t-46.5 -9v-2q158 -30 158 -209q0 -47 -31 -248q-23 -155 -100 -233t-236 -78q-120 0 -185 62t-65 151q0 77 47 128.5t117 51.5
q23 0 33 -2z" />
    <glyph glyph-name="fouroldstyle" unicode="&#xf734;" 
d="M575 -324h-116l51 324h-428l10 66l596 1048h115l-162 -1012h115l-15 -102h-114zM524 102l121 758h-8l-414 -758h301z" />
    <glyph glyph-name="fiveoldstyle" unicode="&#xf735;" 
d="M573 -39l62 393q4 36 4 49q0 63 -33 89t-96 26q-75 0 -131.5 -52.5t-69.5 -137.5l-6 -33h-115l131 819h517l-19 -115h-401l-86 -534h4q24 68 87 119t144 51q90 0 141.5 -54.5t51.5 -160.5q0 -15 -4 -55l-66 -414q-25 -152 -102 -219.5t-228 -67.5q-124 0 -188 59t-64 148
q0 83 53 130.5t144 53.5l4 -6q-78 -82 -78 -166q0 -54 37.5 -85t104.5 -31q85 0 135 46.5t67 147.5z" />
    <glyph glyph-name="sixoldstyle" unicode="&#xf736;" 
d="M854 1090h-115q15 98 15 122q0 66 -28.5 93.5t-100.5 27.5q-90 0 -138.5 -54t-66.5 -165l-55 -346h8q32 74 93 121t134 47q96 0 149.5 -55.5t53.5 -165.5q0 -47 -55 -391q-29 -186 -105.5 -261t-234.5 -75q-108 0 -174 62.5t-66 182.5q0 48 135 889q51 328 334 328
q233 0 233 -223q0 -46 -16 -137zM334 578q-49 -308 -49 -345q0 -68 30.5 -105.5t104.5 -37.5q94 0 136 54t58 165q58 365 58 389q0 62 -27.5 91.5t-85.5 29.5q-87 0 -146.5 -62.5t-78.5 -178.5z" />
    <glyph glyph-name="sevenoldstyle" unicode="&#xf737;" 
d="M436 -240v-4q-11 -46 -39 -70t-82 -24q-51 0 -80.5 34t-29.5 93q0 46 7 89t29 105t44.5 115t73.5 155.5t94.5 187.5t129 251t156.5 307h-471l19 113h585l-18 -106q-75 -154 -181.5 -367.5t-150 -303t-94.5 -204t-67.5 -177.5t-16.5 -116q0 -71 92 -78z" />
    <glyph glyph-name="eightoldstyle" unicode="&#xf738;" 
d="M211 504q28 181 240 231q-70 42 -109 95.5t-39 142.5q0 29 27 186q27 155 95.5 221t211.5 66q119 0 171 -58t52 -165q0 -54 -37 -281q-11 -78 -58.5 -117.5t-143.5 -62.5q139 -91 139 -266q0 -37 -23 -181q-21 -132 -56.5 -201.5t-95 -97.5t-165.5 -28q-244 0 -244 237
q0 61 35 279zM625 309q20 122 20 197q0 72 -35 116t-108 85q-72 -38 -119 -89.5t-59 -130.5q-37 -238 -37 -268q0 -129 137 -129q47 0 81.5 13.5t54 31t33.5 51.5t19.5 57.5t12.5 65.5zM573 793q118 41 136 153q39 252 39 273q0 53 -28 81.5t-99 28.5q-31 0 -56.5 -6.5
t-42.5 -15t-30.5 -26t-21 -31t-14 -39t-9 -40l-7.5 -43.5q-20 -132 -20 -147q0 -34 12 -62t38.5 -52.5t45.5 -37.5t57 -36z" />
    <glyph glyph-name="nineoldstyle" unicode="&#xf739;" 
d="M573 -27l66 408h-10q-39 -69 -89 -104t-124 -35q-97 0 -151 56.5t-54 172.5q0 51 45 332q29 186 103 254.5t239 68.5q229 0 229 -221q0 -32 -6 -87.5t-20.5 -155.5t-27.5 -180.5t-39.5 -247t-43.5 -271.5q-25 -155 -107 -227t-233 -72q-119 0 -180 61.5t-61 155.5
q0 83 52 132.5t138 49.5l6 -4q-74 -71 -74 -165q0 -55 35.5 -85t102.5 -30q88 0 137.5 46.5t66.5 147.5zM670 578q3 21 12.5 73t14.5 82.5t9.5 75.5t4.5 82q0 63 -30 97t-106 34q-52 0 -86.5 -14.5t-55 -45.5t-31.5 -67t-19 -92q-47 -291 -47 -314q0 -131 135 -131
q86 0 133 52t66 168z" />
    <glyph glyph-name="questionsmall" unicode="&#xf73f;" horiz-adv-x="686" 
d="M453 309h-82l10 66q8 51 29 97t49 80t59.5 66t61 61.5t54 59.5t39.5 66t15 76q0 61 -41 97t-115 36q-95 0 -147.5 -52t-52.5 -128t37 -148q-54 6 -91.5 60t-37.5 118q0 113 85.5 185.5t215.5 72.5q125 0 192.5 -64t67.5 -173q0 -51 -16.5 -94.5t-43 -76t-59.5 -62.5
t-67.5 -59t-64.5 -59.5t-53.5 -70.5t-31.5 -86zM457 84q0 -38 -25.5 -64t-69.5 -26q-33 0 -51 21t-18 53q0 38 26.5 65t69.5 27q29 0 48.5 -22.5t19.5 -53.5z" />
    <glyph glyph-name="Gravesmall" unicode="&#xf760;" horiz-adv-x="716" 
d="M645 1337h-90l-94 258h114z" />
    <glyph glyph-name="Asmall" unicode="&#xf761;" horiz-adv-x="890" 
d="M809 0h-113l-34 289h-336l-117 -289h-127l475 1110h121zM651 391l-59 522h-6l-217 -522h282z" />
    <glyph glyph-name="Bsmall" unicode="&#xf762;" horiz-adv-x="880" 
d="M377 608h74q61 0 113.5 12t98.5 38t72.5 73.5t26.5 112.5q0 78 -56.5 119t-189.5 41h-78zM324 25l2 10q362 23 362 284q0 191 -254 191h-74l-79 -510h-127l174 1110h211q93 0 161 -21.5t105.5 -59.5t54.5 -83.5t17 -99.5q0 -118 -70.5 -188.5t-198.5 -92.5v-2
q203 -41 203 -239q0 -147 -95.5 -241.5t-254.5 -94.5q-39 0 -78.5 11t-58.5 26z" />
    <glyph glyph-name="Csmall" unicode="&#xf763;" 
d="M829 743h-112l14 97q4 32 4 47q0 121 -141 121q-88 0 -140 -53t-73 -185l-74 -455q-4 -20 -4 -59q0 -70 41.5 -113t122.5 -43q157 0 217 199q53 -37 53 -96q0 -90 -82 -152.5t-200 -62.5q-128 0 -203.5 74t-75.5 190q0 32 6 70l76 475q51 325 356 325q114 0 175 -63
t61 -164q0 -19 -4 -55z" />
    <glyph glyph-name="Dsmall" unicode="&#xf764;" horiz-adv-x="911" 
d="M317 25l2 10q166 0 265.5 87t130.5 288q49 308 49 350q0 126 -66.5 181.5t-201.5 55.5h-58l-157 -997h-127l174 1110h186q191 0 281 -81.5t90 -260.5q0 -53 -41 -358q-16 -118 -50.5 -201t-86 -129t-111.5 -66t-137 -20t-142 31z" />
    <glyph glyph-name="Esmall" unicode="&#xf765;" horiz-adv-x="727" 
d="M705 512h-345q-38 -228 -38 -266q0 -146 135 -146q138 0 200 125q13 -6 23 -24.5t10 -40.5q0 -79 -68 -125.5t-169 -46.5q-128 0 -193 67t-65 191q0 12 1.5 27.5t6 47.5t10 68t17 107.5t23.5 146t33 204t42 263.5h491l-16 -113h-365l-61 -379h344z" />
    <glyph glyph-name="Fsmall" unicode="&#xf766;" horiz-adv-x="696" 
d="M281 0h-127l174 1110h491l-16 -113h-365l-63 -399h342l-17 -106h-342z" />
    <glyph glyph-name="Gsmall" unicode="&#xf767;" horiz-adv-x="917" 
d="M774 0h-29q-25 7 -45 35t-20 71q0 25 2 37h-4q-75 -155 -246 -155q-104 0 -169.5 64t-65.5 186q0 14 1.5 31.5t5 45.5t7 54t11 72.5t13.5 85t17 109t20 126.5q30 189 125 274.5t250 85.5q128 0 195 -59.5t67 -167.5q0 -65 -18 -139h-125q16 85 16 125q0 127 -155 127
q-94 0 -150.5 -61.5t-77.5 -194.5q-75 -463 -75 -510q0 -72 35 -106t116 -34q87 0 147 62t72 137l25 156h-160l16 102h287z" />
    <glyph glyph-name="Hsmall" unicode="&#xf768;" horiz-adv-x="921" 
d="M768 0h-127l82 522h-361l-81 -522h-127l174 1110h127l-76 -485h360l76 485h127z" />
    <glyph glyph-name="Ismall" unicode="&#xf769;" horiz-adv-x="454" 
d="M291 0h-127l174 1110h127z" />
    <glyph glyph-name="Jsmall" unicode="&#xf76a;" horiz-adv-x="716" 
d="M500 281l131 829h127l-131 -831q-24 -150 -103 -220.5t-211 -70.5q-112 0 -166.5 58.5t-54.5 146.5q0 69 42.5 117t111.5 48q17 0 37 -4v-2q-31 -27 -48.5 -66.5t-17.5 -76.5q0 -107 115 -107q67 0 109.5 40.5t58.5 138.5z" />
    <glyph glyph-name="Ksmall" unicode="&#xf76b;" horiz-adv-x="915" 
d="M803 127h2q22 -11 22 -53q0 -35 -28 -60.5t-80 -25.5q-54 0 -86.5 33.5t-32.5 99.5q0 40 12.5 118.5t12.5 110.5q0 93 -42 135.5t-124 42.5h-97l-81 -528h-127l174 1110h127l-78 -498h4l428 498h145l-440 -500q112 -4 171.5 -69.5t59.5 -173.5q0 -41 -16 -120.5
t-16 -123.5q0 -47 39 -47q33 0 51 51z" />
    <glyph glyph-name="Lsmall" unicode="&#xf76c;" horiz-adv-x="716" 
d="M666 0h-512l174 1110h127l-158 -997h385z" />
    <glyph glyph-name="Msmall" unicode="&#xf76d;" horiz-adv-x="1064" 
d="M911 0h-118l137 868h-2l-291 -438h-62l-163 438h-2l-138 -868h-118l174 1110h106l187 -524h4l340 524h120z" />
    <glyph glyph-name="Nsmall" unicode="&#xf76e;" horiz-adv-x="948" 
d="M795 0h-86l-291 879h-8l-138 -879h-118l174 1110h127l264 -780h8l123 780h119z" />
    <glyph glyph-name="Osmall" unicode="&#xf76f;" horiz-adv-x="901" 
d="M874 754l-67 -432q-27 -172 -107.5 -253t-246.5 -81q-133 0 -198 68t-65 192q0 50 11 114l67 424q27 171 110.5 253.5t242.5 82.5q132 0 197 -70t65 -196q0 -46 -9 -102zM682 332l70 428q8 58 8 90q0 160 -152 160q-91 0 -143 -50.5t-72 -171.5l-71 -440q-7 -51 -7 -92
q0 -156 150 -156q97 0 147 53.5t70 178.5z" />
    <glyph glyph-name="Psmall" unicode="&#xf770;" horiz-adv-x="837" 
d="M283 0h-127l174 1110h198q166 0 264.5 -86t98.5 -244q0 -79 -25 -153.5t-71 -134.5t-118.5 -96t-160.5 -36q-78 0 -125 23v4q163 20 268 123.5t105 269.5q0 109 -64.5 167.5t-193.5 58.5h-66z" />
    <glyph glyph-name="Qsmall" unicode="&#xf771;" horiz-adv-x="894" 
d="M666 328l67 434q10 65 10 102q0 76 -33.5 111t-107.5 35q-94 0 -141 -54.5t-68 -193.5l-67 -434q-7 -44 -7 -70q0 -158 138 -158q91 0 140.5 50t68.5 178zM553 23v-5q67 0 107 -32.5t40 -94.5q0 -33 -8 -92t-8 -80q0 -53 41 -53q39 0 51 49q23 -20 23 -53
q0 -36 -27.5 -60t-77.5 -24q-55 0 -89 32.5t-34 100.5q0 27 7.5 80.5t7.5 87.5q0 63 -34.5 86t-111.5 23q-247 0 -247 262q0 44 10 112l63 404q13 82 35 141.5t61 110.5t103.5 77.5t152.5 26.5q252 0 252 -258q0 -44 -10 -116l-67 -431q-13 -81 -35.5 -136.5t-54.5 -87.5
t-67.5 -48t-82.5 -22z" />
    <glyph glyph-name="Rsmall" unicode="&#xf772;" horiz-adv-x="862" 
d="M799 117h2q26 -13 26 -43q0 -39 -27.5 -62.5t-80.5 -23.5q-59 0 -95 32.5t-36 98.5q0 38 13 120.5t13 125.5q0 81 -46.5 112t-147.5 31h-60l-79 -508h-127l174 1110h178q177 0 265.5 -69.5t88.5 -190.5q0 -246 -289 -297v-4q77 -3 118.5 -48.5t41.5 -123.5
q0 -35 -13 -116t-13 -126q0 -27 12.5 -41t32.5 -14q36 0 49 37zM375 598h65q127 0 210 62.5t83 189.5q0 80 -54.5 119t-180.5 39h-60z" />
    <glyph glyph-name="Ssmall" unicode="&#xf773;" horiz-adv-x="839" 
d="M825 770h-114q16 101 16 125q0 115 -143 115q-187 0 -187 -160q0 -49 20.5 -92.5t53.5 -78t72.5 -68t79.5 -67.5t73 -70t53.5 -83t20.5 -100q0 -141 -89 -222t-243 -81q-122 0 -196 73t-74 183q0 86 50.5 139t131.5 49q-59 -88 -59 -174q0 -74 42.5 -116t117.5 -42
q192 0 192 187q0 50 -27.5 95.5t-68.5 80t-89.5 76t-89.5 81t-68.5 98t-27.5 124.5q0 133 83.5 206.5t234.5 73.5q122 0 188 -58t66 -165q0 -17 -19 -129z" />
    <glyph glyph-name="Tsmall" unicode="&#xf774;" horiz-adv-x="757" 
d="M442 0h-127l158 997h-254l17 113h634l-16 -113h-254z" />
    <glyph glyph-name="Usmall" unicode="&#xf775;" horiz-adv-x="921" 
d="M713 326l123 784h127l-123 -784q-11 -73 -36.5 -131t-68 -106t-110.5 -74.5t-156 -26.5q-144 0 -216.5 80t-72.5 198q0 36 6 70l121 774h127l-123 -784q-4 -20 -4 -58q0 -77 42.5 -121.5t125.5 -44.5q205 0 238 224z" />
    <glyph glyph-name="Vsmall" unicode="&#xf776;" horiz-adv-x="884" 
d="M543 0h-144l-98 969q-6 59 -45 59q-34 0 -68 -27q9 53 44.5 84t82.5 31q51 0 76 -32t31 -105l65 -813h5l372 944h123z" />
    <glyph glyph-name="Wsmall" unicode="&#xf777;" horiz-adv-x="1316" 
d="M1032 0h-145l-76 829h-6l-293 -829h-139l-51 969q-3 59 -46 59q-33 0 -67 -27q9 53 43.5 84t81.5 31q59 0 84.5 -34t27.5 -113q17 -666 23 -762h8l314 903h96l92 -901h8l311 901h121z" />
    <glyph glyph-name="Xsmall" unicode="&#xf778;" horiz-adv-x="899" 
d="M807 0h-125l-131 475l-285 -475h-135l367 580l-123 389q-11 32 -23.5 45.5t-34.5 13.5q-33 0 -67 -27q9 54 40 84.5t77 30.5q52 0 78.5 -33t50.5 -110l88 -297l252 434h135l-340 -547z" />
    <glyph glyph-name="Ysmall" unicode="&#xf779;" horiz-adv-x="864" 
d="M526 0h-127l62 397l-129 572q-8 34 -18 46.5t-31 12.5q-32 0 -64 -27q3 51 35.5 83t75.5 32q52 0 75.5 -27.5t38.5 -103.5l97 -457l301 582h125l-379 -713z" />
    <glyph glyph-name="Zsmall" unicode="&#xf77a;" horiz-adv-x="798" 
d="M199 0h-101l8 61q7 52 28 103.5t40.5 82t52.5 75.5l504 675h-416l17 113h542l-14 -98l-534 -723q-82 -98 -88 -139l2 -3q45 48 112 48q39 0 122.5 -42t127.5 -42q40 0 72 32q7 -6 12.5 -22t5.5 -29q0 -104 -123 -104q-48 0 -92.5 26t-85 52t-78.5 26q-96 0 -114 -92z" />
    <glyph glyph-name="exclamdownsmall" unicode="&#xf7a1;" horiz-adv-x="520" 
d="M336 731h37q0 -338 -56 -731h-155q28 177 71.5 360t72.5 277zM410 1116q39 0 62.5 -22.5t23.5 -57.5q0 -41 -30.5 -72.5t-72.5 -31.5q-39 0 -62.5 22.5t-23.5 57.5q0 42 29 73t74 31z" />
    <glyph glyph-name="centoldstyle" unicode="&#xf7a2;" horiz-adv-x="782" 
d="M451 -178h-95l27 174q-97 18 -152 88t-55 168q0 32 6 70l76 475q48 296 303 321l23 146h94l-23 -146q95 -12 145 -72t50 -151q0 -19 -4 -55l-17 -97h-112l14 97q4 32 4 47q0 121 -141 121q-88 0 -140 -53t-73 -185l-74 -455q-4 -20 -4 -59q0 -70 41.5 -113t122.5 -43
q157 0 217 199q53 -37 53 -96q0 -86 -75.5 -146.5t-186.5 -66.5z" />
    <glyph glyph-name="Dieresissmall" unicode="&#xf7a8;" horiz-adv-x="716" 
d="M485 1434q0 -37 -26.5 -64t-65.5 -27q-33 0 -52 20.5t-19 53.5q0 37 26.5 63.5t65.5 26.5q33 0 52 -20t19 -53zM842 1434q0 -37 -26.5 -64t-65.5 -27q-33 0 -52.5 20.5t-19.5 53.5q0 37 26.5 63.5t65.5 26.5q33 0 52.5 -20t19.5 -53z" />
    <glyph glyph-name="Macronsmall" unicode="&#xf7af;" horiz-adv-x="716" 
d="M831 1432h-499l14 90h500z" />
    <glyph glyph-name="Acutesmall" unicode="&#xf7b4;" horiz-adv-x="716" 
d="M582 1337h-93l121 258h125z" />
    <glyph glyph-name="Cedillasmall" unicode="&#xf7b8;" horiz-adv-x="716" 
d="M197 -342l2 4q24 -4 41 -4q52 0 81 34.5t29 88.5q0 78 -69 117l55 118h90l-55 -102q28 -15 48.5 -58t20.5 -92q0 -72 -42 -123t-115 -51q-40 0 -63 20.5t-23 47.5z" />
    <glyph glyph-name="questiondownsmall" unicode="&#xf7bf;" horiz-adv-x="686" 
d="M430 934h82l-10 -66q-8 -51 -29 -97t-49 -80t-59.5 -66t-61 -61.5t-54 -59.5t-39.5 -66t-15 -76q0 -61 40.5 -97t114.5 -36q95 0 148 52.5t53 128.5q0 75 -37 147q54 -6 91.5 -60t37.5 -118q0 -113 -85.5 -185.5t-215.5 -72.5q-125 0 -192.5 64t-67.5 173q0 51 16.5 94.5
t43 76t59.5 62.5t67.5 59t64.5 59.5t53.5 70.5t31.5 86zM426 1159q0 38 25 64t69 26q33 0 51.5 -20.5t18.5 -52.5q0 -38 -26.5 -65.5t-69.5 -27.5q-29 0 -48.5 22.5t-19.5 53.5z" />
    <glyph glyph-name="Agravesmall" unicode="&#xf7e0;" horiz-adv-x="890" 
d="M809 0h-113l-34 289h-336l-117 -289h-127l475 1110h121zM651 391l-59 522h-6l-217 -522h282zM717 1255h-90l-95 258h115z" />
    <glyph glyph-name="Aacutesmall" unicode="&#xf7e1;" horiz-adv-x="890" 
d="M809 0h-113l-34 289h-336l-117 -289h-127l475 1110h121zM651 391l-59 522h-6l-217 -522h282zM717 1255h-92l120 258h125z" />
    <glyph glyph-name="Acircumflexsmall" unicode="&#xf7e2;" horiz-adv-x="890" 
d="M809 0h-113l-34 289h-336l-117 -289h-127l475 1110h121zM651 391l-59 522h-6l-217 -522h282zM893 1255l-229 123l-271 -123l10 95l256 131h9l237 -131z" />
    <glyph glyph-name="Atildesmall" unicode="&#xf7e3;" horiz-adv-x="890" 
d="M809 0h-113l-34 289h-336l-117 -289h-127l475 1110h121zM651 391l-59 522h-6l-217 -522h282zM858 1483h70q-19 -89 -59.5 -136t-118.5 -47q-39 0 -74 19t-65.5 38t-59.5 19q-62 0 -84 -88h-70q19 90 64.5 136t113.5 46q40 0 79.5 -19t72 -37.5t55.5 -18.5q25 0 45 24
t31 64z" />
    <glyph glyph-name="Adieresissmall" unicode="&#xf7e4;" horiz-adv-x="890" 
d="M809 0h-113l-34 289h-336l-117 -289h-127l475 1110h121zM651 391l-59 522h-6l-217 -522h282zM559 1352q0 -37 -26.5 -63.5t-65.5 -26.5q-33 0 -52.5 20t-19.5 53q0 37 26.5 63.5t65.5 26.5q33 0 52.5 -20t19.5 -53zM915 1352q0 -37 -26.5 -63.5t-65.5 -26.5q-33 0 -52 20
t-19 53q0 37 26.5 63.5t65.5 26.5q33 0 52 -20t19 -53z" />
    <glyph glyph-name="Aringsmall" unicode="&#xf7e5;" horiz-adv-x="890" 
d="M809 0h-121l-31 289h-333l-121 -289h-121l469 1092q-50 20 -75.5 67.5t-16.5 106.5q12 76 75 130t140 54q76 0 120.5 -53.5t32.5 -130.5q-9 -59 -49 -106t-96 -68zM647 391l-55 522h-6l-219 -522h280zM752 1266q7 44 -19.5 76t-70.5 32t-82 -32t-45 -76q-6 -44 21 -76.5
t71 -32.5t81.5 32.5t43.5 76.5z" />
    <glyph glyph-name="AEsmall" unicode="&#xf7e6;" horiz-adv-x="1167" 
d="M1116 532h-338q-2 -121 -2 -286q0 -146 133 -146q139 0 201 125q13 -6 23 -24.5t10 -40.5q0 -79 -68.5 -125.5t-169.5 -46.5q-128 0 -192 66t-64 190v45h-299l-137 -289h-131l545 1110h600l-17 -113h-432v-358h355zM399 391h250l13 533h-7z" />
    <glyph glyph-name="Ccedillasmall" unicode="&#xf7e7;" 
d="M248 -352l2 4q118 0 135 106q15 93 -68 140l43 96q-106 20 -153 101.5t-27 207.5l76 473q26 166 121 256t237 90q131 0 191 -77.5t41 -200.5l-17 -101h-112l14 95q27 170 -137 170q-88 0 -140 -53t-73 -185l-74 -465q-15 -98 18.5 -151.5t129.5 -53.5q90 0 154 45t96 105
q24 -27 18 -76q-10 -66 -86.5 -122t-187.5 -62l-41 -76q34 -18 54 -67.5t13 -104.5q-11 -69 -60.5 -110.5t-103.5 -41.5q-33 0 -49.5 17t-13.5 41z" />
    <glyph glyph-name="Egravesmall" unicode="&#xf7e8;" horiz-adv-x="727" 
d="M705 512h-345q-38 -228 -38 -266q0 -146 135 -146q138 0 200 125q13 -6 23 -24.5t10 -40.5q0 -79 -68 -125.5t-169 -46.5q-128 0 -193 67t-65 191q0 12 1.5 27.5t6 47.5t10 68t17 107.5t23.5 146t33 204t42 263.5h491l-16 -113h-365l-61 -379h344zM686 1255h-90l-94 258
h114z" />
    <glyph glyph-name="Eacutesmall" unicode="&#xf7e9;" horiz-adv-x="727" 
d="M705 512h-345q-38 -228 -38 -266q0 -146 135 -146q138 0 200 125q13 -6 23 -24.5t10 -40.5q0 -79 -68 -125.5t-169 -46.5q-128 0 -193 67t-65 191q0 12 1.5 27.5t6 47.5t10 68t17 107.5t23.5 146t33 204t42 263.5h491l-16 -113h-365l-61 -379h344zM623 1255h-93l121 258
h125z" />
    <glyph glyph-name="Ecircumflexsmall" unicode="&#xf7ea;" horiz-adv-x="727" 
d="M705 512h-345q-38 -228 -38 -266q0 -146 135 -146q138 0 200 125q13 -6 23 -24.5t10 -40.5q0 -79 -68 -125.5t-169 -46.5q-128 0 -193 67t-65 191q0 12 1.5 27.5t6 47.5t10 68t17 107.5t23.5 146t33 204t42 263.5h491l-16 -113h-365l-61 -379h344zM834 1255l-230 123
l-270 -123l10 95l256 131h8l238 -131z" />
    <glyph glyph-name="Edieresissmall" unicode="&#xf7eb;" horiz-adv-x="727" 
d="M705 512h-345q-38 -228 -38 -266q0 -146 135 -146q138 0 200 125q13 -6 23 -24.5t10 -40.5q0 -79 -68 -125.5t-169 -46.5q-128 0 -193 67t-65 191q0 12 1.5 27.5t6 47.5t10 68t17 107.5t23.5 146t33 204t42 263.5h491l-16 -113h-365l-61 -379h344zM518 1352
q0 -37 -26.5 -63.5t-65.5 -26.5q-33 0 -52.5 20t-19.5 53q0 37 26.5 63.5t65.5 26.5q33 0 52.5 -20t19.5 -53zM874 1352q0 -37 -26.5 -63.5t-65.5 -26.5q-33 0 -52 20t-19 53q0 37 26.5 63.5t65.5 26.5q33 0 52 -20t19 -53z" />
    <glyph glyph-name="Igravesmall" unicode="&#xf7ec;" horiz-adv-x="454" 
d="M291 0h-127l174 1110h127zM471 1255h-90l-94 258h114z" />
    <glyph glyph-name="Iacutesmall" unicode="&#xf7ed;" horiz-adv-x="454" 
d="M291 0h-127l174 1110h127zM453 1255h-93l121 258h125z" />
    <glyph glyph-name="Icircumflexsmall" unicode="&#xf7ee;" horiz-adv-x="454" 
d="M291 0h-127l174 1110h127zM676 1255l-230 123l-270 -123l10 95l256 131h9l237 -131z" />
    <glyph glyph-name="Idieresissmall" unicode="&#xf7ef;" horiz-adv-x="454" 
d="M291 0h-127l174 1110h127zM342 1352q0 -37 -26.5 -63.5t-65.5 -26.5q-33 0 -52.5 20t-19.5 53q0 37 26.5 63.5t65.5 26.5q33 0 52.5 -20t19.5 -53zM698 1352q0 -37 -26.5 -63.5t-65.5 -26.5q-33 0 -52 20t-19 53q0 37 26.5 63.5t65.5 26.5q33 0 52 -20t19 -53z" />
    <glyph glyph-name="Ethsmall" unicode="&#xf7f0;" horiz-adv-x="911" 
d="M317 25l2 10q166 0 265.5 87t130.5 288q49 308 49 350q0 126 -66.5 181.5t-201.5 55.5h-58l-67 -430h237l-14 -90h-238l-75 -477h-127l73 477h-133l15 90h133l86 543h186q191 0 281 -81.5t90 -260.5q0 -53 -41 -358q-16 -118 -50.5 -201t-86 -129t-111.5 -66t-137 -20
t-142 31z" />
    <glyph glyph-name="Ntildesmall" unicode="&#xf7f1;" horiz-adv-x="948" 
d="M795 0h-86l-291 879h-8l-138 -879h-118l174 1110h127l264 -780h8l123 780h119zM893 1483h70q-19 -89 -60 -136t-119 -47q-39 0 -73.5 19t-65 38t-59.5 19q-62 0 -84 -88h-70q19 90 64.5 136t113.5 46q40 0 79.5 -19t72 -37.5t55.5 -18.5q25 0 45 24t31 64z" />
    <glyph glyph-name="Ogravesmall" unicode="&#xf7f2;" horiz-adv-x="901" 
d="M874 754l-67 -432q-27 -172 -107.5 -253t-246.5 -81q-133 0 -198 68t-65 192q0 50 11 114l67 424q27 171 110.5 253.5t242.5 82.5q132 0 197 -70t65 -196q0 -46 -9 -102zM682 332l70 428q8 58 8 90q0 160 -152 160q-91 0 -143 -50.5t-72 -171.5l-71 -440q-7 -51 -7 -92
q0 -156 150 -156q97 0 147 53.5t70 178.5zM723 1255h-90l-94 258h114z" />
    <glyph glyph-name="Oacutesmall" unicode="&#xf7f3;" horiz-adv-x="901" 
d="M874 754l-67 -432q-27 -172 -107.5 -253t-246.5 -81q-133 0 -198 68t-65 192q0 50 11 114l67 424q27 171 110.5 253.5t242.5 82.5q132 0 197 -70t65 -196q0 -46 -9 -102zM682 332l70 428q8 58 8 90q0 160 -152 160q-91 0 -143 -50.5t-72 -171.5l-71 -440q-7 -51 -7 -92
q0 -156 150 -156q97 0 147 53.5t70 178.5zM702 1255h-92l121 258h125z" />
    <glyph glyph-name="Ocircumflexsmall" unicode="&#xf7f4;" horiz-adv-x="901" 
d="M874 754l-67 -432q-27 -172 -107.5 -253t-246.5 -81q-133 0 -198 68t-65 192q0 50 11 114l67 424q27 171 110.5 253.5t242.5 82.5q132 0 197 -70t65 -196q0 -46 -9 -102zM682 332l70 428q8 58 8 90q0 160 -152 160q-91 0 -143 -50.5t-72 -171.5l-71 -440q-7 -51 -7 -92
q0 -156 150 -156q97 0 147 53.5t70 178.5zM905 1255l-229 123l-270 -123l10 95l256 131h8l238 -131z" />
    <glyph glyph-name="Otildesmall" unicode="&#xf7f5;" horiz-adv-x="901" 
d="M874 754l-67 -432q-27 -172 -107.5 -253t-246.5 -81q-133 0 -198 68t-65 192q0 50 11 114l67 424q27 171 110.5 253.5t242.5 82.5q132 0 197 -70t65 -196q0 -46 -9 -102zM682 332l70 428q8 58 8 90q0 160 -152 160q-91 0 -143 -50.5t-72 -171.5l-71 -440q-7 -51 -7 -92
q0 -156 150 -156q97 0 147 53.5t70 178.5zM870 1483h70q-19 -89 -59.5 -136t-118.5 -47q-39 0 -74 19t-65.5 38t-59.5 19q-62 0 -84 -88h-69q19 90 64.5 136t113.5 46q40 0 79.5 -19t72 -37.5t55.5 -18.5q51 0 75 88z" />
    <glyph glyph-name="Odieresissmall" unicode="&#xf7f6;" horiz-adv-x="901" 
d="M874 754l-67 -432q-27 -172 -107.5 -253t-246.5 -81q-133 0 -198 68t-65 192q0 50 11 114l67 424q27 171 110.5 253.5t242.5 82.5q132 0 197 -70t65 -196q0 -46 -9 -102zM682 332l70 428q8 58 8 90q0 160 -152 160q-91 0 -143 -50.5t-72 -171.5l-71 -440q-7 -51 -7 -92
q0 -156 150 -156q97 0 147 53.5t70 178.5zM567 1352q0 -37 -26.5 -63.5t-65.5 -26.5q-33 0 -52.5 20t-19.5 53q0 37 27 63.5t66 26.5q33 0 52 -20t19 -53zM924 1352q0 -37 -27 -63.5t-66 -26.5q-33 0 -52 20t-19 53q0 37 26.5 63.5t65.5 26.5q33 0 52.5 -20t19.5 -53z" />
    <glyph glyph-name="Oslashsmall" unicode="&#xf7f8;" horiz-adv-x="921" 
d="M285 -70h-86l59 123q-68 65 -68 195q0 50 11 114l67 424q27 171 110.5 253.5t242.5 82.5q75 0 135 -26l51 108h90l-76 -157q62 -68 62 -191q0 -46 -9 -102l-67 -432q-27 -172 -107.5 -253t-246.5 -81q-73 0 -131 22zM324 190l378 795q-39 25 -94 25q-91 0 -143 -50.5
t-72 -171.5l-71 -440q-7 -51 -7 -92q0 -39 9 -66zM682 332l70 428q8 58 8 90q0 33 -6 57l-379 -788q40 -19 90 -19q97 0 147 53.5t70 178.5z" />
    <glyph glyph-name="Ugravesmall" unicode="&#xf7f9;" horiz-adv-x="921" 
d="M713 326l123 784h127l-123 -784q-11 -73 -36.5 -131t-68 -106t-110.5 -74.5t-156 -26.5q-144 0 -216.5 80t-72.5 198q0 36 6 70l121 774h127l-123 -784q-4 -20 -4 -58q0 -77 42.5 -121.5t125.5 -44.5q205 0 238 224zM702 1255h-90l-94 258h115z" />
    <glyph glyph-name="Uacutesmall" unicode="&#xf7fa;" horiz-adv-x="921" 
d="M713 326l123 784h127l-123 -784q-11 -73 -36.5 -131t-68 -106t-110.5 -74.5t-156 -26.5q-144 0 -216.5 80t-72.5 198q0 36 6 70l121 774h127l-123 -784q-4 -20 -4 -58q0 -77 42.5 -121.5t125.5 -44.5q205 0 238 224zM662 1255h-93l121 258h125z" />
    <glyph glyph-name="Ucircumflexsmall" unicode="&#xf7fb;" horiz-adv-x="921" 
d="M713 326l123 784h127l-123 -784q-11 -73 -36.5 -131t-68 -106t-110.5 -74.5t-156 -26.5q-144 0 -216.5 80t-72.5 198q0 36 6 70l121 774h127l-123 -784q-4 -20 -4 -58q0 -77 42.5 -121.5t125.5 -44.5q205 0 238 224zM895 1255l-229 123l-271 -123l11 95l256 131h8
l237 -131z" />
    <glyph glyph-name="Udieresissmall" unicode="&#xf7fc;" horiz-adv-x="921" 
d="M713 326l123 784h127l-123 -784q-11 -73 -36.5 -131t-68 -106t-110.5 -74.5t-156 -26.5q-144 0 -216.5 80t-72.5 198q0 36 6 70l121 774h127l-123 -784q-4 -20 -4 -58q0 -77 42.5 -121.5t125.5 -44.5q205 0 238 224zM561 1350q0 -37 -26.5 -63.5t-65.5 -26.5
q-33 0 -52.5 20t-19.5 53q0 37 26.5 63.5t65.5 26.5q33 0 52.5 -20t19.5 -53zM918 1350q0 -37 -27 -63.5t-66 -26.5q-33 0 -52 20t-19 53q0 37 26.5 63.5t65.5 26.5q33 0 52.5 -20t19.5 -53z" />
    <glyph glyph-name="Yacutesmall" unicode="&#xf7fd;" horiz-adv-x="864" 
d="M526 0h-127l62 397l-129 572q-8 34 -18 46.5t-31 12.5q-32 0 -64 -27q3 51 35.5 83t75.5 32q52 0 75.5 -27.5t38.5 -103.5l97 -457l301 582h125l-379 -713zM672 1255h-92l120 258h125z" />
    <glyph glyph-name="Thornsmall" unicode="&#xf7fe;" horiz-adv-x="878" 
d="M283 0h-127l174 1110h127l-29 -184h72q395 0 395 -324q0 -182 -102.5 -283.5t-294.5 -101.5q-78 0 -125 23v4q391 36 391 356q0 114 -67 162.5t-222 48.5h-65z" />
    </font>
</defs>
</svg>
