<?xml version="1.0" standalone="no"?>
<!DOCTYPE svg PUBLIC "-//W3C//DTD SVG 1.1//EN" "http://www.w3.org/Graphics/SVG/1.1/DTD/svg11.dtd" >
<svg xmlns="http://www.w3.org/2000/svg" xmlns:xlink="http://www.w3.org/1999/xlink" version="1.1">
<metadata>
Created by FontForge 20170731 at Mon Jan 24 19:00:19 2022
 By Aleksey,,,
Copyright (c) 2011 by Ekaluck Peanpanawate. All rights reserved.
</metadata>
<defs>
<font id="KurryPro-HeavyItalic" horiz-adv-x="942" >
  <font-face 
    font-family="Kurry Pro"
    font-weight="900"
    font-style="italic"
    font-stretch="squinchy"
    units-per-em="2048"
    panose-1="2 0 5 6 5 0 0 9 0 4"
    ascent="1638"
    descent="-410"
    x-height="1028"
    cap-height="1438"
    bbox="-477 -721 2292 2191"
    underline-thickness="71"
    underline-position="-173"
    slope="-9"
    unicode-range="U+0020-FB06"
  />
<missing-glyph horiz-adv-x="643" 
 />
    <glyph glyph-name="ff" unicode="ff" horiz-adv-x="1212" 
d="M850 1028l16 107q4 28 4 39q0 92 -100 92q-68 0 -99 -36.5t-42 -115.5l-15 -86h236zM1004 0h-316l133 852h-235l-133 -852h-316l133 852h-137l29 176h137l14 86q28 178 139.5 281.5t315.5 103.5q98 0 163 -35.5t83 -89.5q41 49 117 77t149 28q136 0 203 -63t67 -152
q0 -80 -51.5 -132.5t-148.5 -52.5q-51 0 -95 23l2 10q4 3 10 9t16.5 29.5t10.5 51.5q0 43 -32 43q-62 0 -80 -110l-17 -107h181l-29 -176h-180z" />
    <glyph glyph-name="fi" unicode="fi" horiz-adv-x="1124" 
d="M1047 0h-312l133 852h-282l-133 -852h-316l133 852h-137l29 176h137l10 66q29 187 151.5 296t340.5 109q148 0 222.5 -63.5t74.5 -157.5q0 -89 -56 -138.5t-153 -49.5q-58 0 -101 24l3 10q43 31 43 90q0 22 -17 37t-53 15q-55 0 -89.5 -41t-49.5 -131l-11 -66h594z" />
    <glyph glyph-name="fl" unicode="fl" horiz-adv-x="1124" 
d="M1006 0h-312l176 1114q7 40 7 64q0 43 -23 65.5t-84 22.5q-68 0 -99 -36.5t-42 -115.5l-15 -86h181l-29 -176h-180l-133 -852h-316l133 852h-137l29 176h137l14 86q28 177 147.5 281t336.5 104q188 0 289.5 -85t101.5 -228q0 -34 -6 -72z" />
    <glyph glyph-name="ffi" unicode="ffi" horiz-adv-x="1679" 
d="M1597 0h-311l133 852h-282l-133 -852h-316l133 852h-235l-133 -852h-316l133 852h-137l29 176h137l14 86q28 177 141.5 281t317.5 104q102 0 164.5 -32t77.5 -91q45 53 136.5 88t201.5 35q148 0 222.5 -63.5t74.5 -157.5q0 -89 -56 -138.5t-153 -49.5q-58 0 -101 24l2 10
q43 31 43 90q0 23 -16.5 37.5t-52.5 14.5q-55 0 -89.5 -41t-49.5 -131l-11 -66h594zM850 1028l16 107q4 28 4 39q0 92 -100 92q-68 0 -99 -36.5t-42 -115.5l-15 -86h236z" />
    <glyph glyph-name="ffl" unicode="ffl" horiz-adv-x="1634" 
d="M1556 0h-311l176 1114q6 38 6 66q0 43 -22.5 64.5t-83.5 21.5q-60 0 -95 -41t-46 -111l-15 -86h181l-29 -176h-180l-133 -852h-316l133 852h-235l-133 -852h-316l133 852h-137l29 176h137l14 86q28 177 141.5 281t317.5 104q101 0 172.5 -32t97.5 -89q58 57 148.5 89
t187.5 32q182 0 271.5 -81.5t89.5 -223.5q0 -36 -6 -80zM850 1028l16 107q4 28 4 39q0 92 -100 92q-68 0 -99 -36.5t-42 -115.5l-15 -86h236z" />
    <glyph glyph-name="T_h.caron" unicode="&#x164;h" horiz-adv-x="1734" 
d="M991 1667l-323 -131h-9l-278 152l27 165l278 -106l336 106zM1755 115l-2 -21q-63 -104 -205 -104q-100 0 -147 49t-47 135q0 77 43 306.5t43 279.5q0 22 -14 36.5t-40 14.5q-74 0 -86 -76l-114 -735h-316l187 1182h-275l-186 -1182h-332l187 1182h-234l41 256h881
q88 0 153 10t86 20l21 11h20l-98 -619h8q28 80 95 129t151 49q94 0 142 -48t48 -138q0 -67 -47 -344.5t-47 -319.5q0 -48 19 -60.5t65 -12.5z" />
    <glyph glyph-name="T_h.commaaccent" unicode="&#x162;h" horiz-adv-x="1734" 
d="M137 -520l2 10q53 29 79.5 89t41.5 161l25 145h245l-16 -102q-27 -168 -116 -235.5t-261 -67.5zM1755 115l-2 -21q-63 -104 -205 -104q-100 0 -147 49t-47 135q0 77 43 306.5t43 279.5q0 22 -14 36.5t-40 14.5q-74 0 -86 -76l-114 -735h-316l187 1182h-275l-186 -1182
h-332l187 1182h-234l41 256h881q88 0 153 10t86 20l21 11h20l-98 -619h8q28 80 95 129t151 49q94 0 142 -48t48 -138q0 -67 -47 -344.5t-47 -319.5q0 -48 19 -60.5t65 -12.5z" />
    <glyph glyph-name="f_b" unicode="fb" horiz-adv-x="1517" 
d="M995 0h-301l176 1114q7 44 7 66q0 43 -23 64.5t-84 21.5q-68 0 -99 -36.5t-42 -115.5l-15 -86h181l-29 -176h-180l-133 -852h-316l133 852h-137l29 176h137l14 86q28 176 152 280.5t342 104.5q188 0 285.5 -86t97.5 -233q0 -20 -4 -66l-137 -860v-12q0 -24 13 -39t32 -15
q36 0 54.5 23t29.5 96q2 14 22 134t34.5 215t14.5 120q0 47 -51 47q-23 0 -41 -6l4 33q22 82 80 135t148 53q182 0 182 -202q0 -28 -6 -76.5t-15 -100.5t-27 -160t-34 -208q-25 -158 -84 -232.5t-188 -74.5q-82 0 -131.5 43t-61.5 104h-8z" />
    <glyph glyph-name="f_h" unicode="fh" horiz-adv-x="1558" 
d="M1579 115l-2 -21q-63 -104 -205 -104q-100 0 -147 49t-47 135q0 77 43 306.5t43 279.5q0 22 -14 36.5t-40 14.5q-74 0 -86 -76l-114 -735h-316l176 1114q7 40 7 64q0 43 -23 65.5t-84 22.5q-68 0 -99 -36.5t-42 -115.5l-15 -86h181l-29 -176h-180l-133 -852h-316l133 852
h-137l29 176h137l14 86q28 176 152 280.5t342 104.5q187 0 286 -85t99 -230q0 -32 -6 -70l-41 -254h8q28 80 95 129t151 49q94 0 142 -48t48 -138q0 -67 -47 -344.5t-47 -319.5q0 -48 19 -60.5t65 -12.5z" />
    <glyph glyph-name="f_k" unicode="fk" horiz-adv-x="1523" 
d="M1507 244l6 -2q27 -21 27 -88q0 -31 -10 -59t-32 -54t-63.5 -41.5t-97.5 -15.5q-116 0 -164.5 53.5t-48.5 136.5q0 34 13.5 112.5t13.5 104.5q0 38 -17.5 53t-52.5 15l-71 -459h-316l176 1114q7 40 7 64q0 43 -23 65.5t-84 22.5q-68 0 -99 -36.5t-42 -115.5l-15 -86h181
l-29 -176h-180l-133 -852h-316l133 852h-137l29 176h137l14 86q28 176 152 280.5t342 104.5q188 0 285.5 -86t97.5 -233q0 -20 -4 -66l-58 -352h7l198 266h338l-377 -446q88 -3 130 -43t42 -119q0 -31 -12 -95.5t-12 -80.5q0 -41 28 -41q23 0 37 41z" />
    <glyph glyph-name="f_f_b" unicode="ffb" horiz-adv-x="2068" 
d="M1546 0h-301l176 1114q6 34 6 64q0 44 -22.5 66t-83.5 22q-60 0 -95 -41t-46 -111l-15 -86h181l-29 -176h-180l-133 -852h-316l133 852h-235l-133 -852h-316l133 852h-137l29 176h137l14 86q28 177 141.5 281t317.5 104q101 0 172.5 -32t97.5 -89q58 57 148.5 89
t187.5 32q183 0 274 -82.5t91 -224.5q0 -38 -6 -78l-138 -860v-12q0 -24 13.5 -39t32.5 -15q36 0 54.5 23t29.5 96q2 14 22 134t34.5 215t14.5 120q0 47 -51 47q-23 0 -41 -6l4 33q22 82 79.5 135t147.5 53q183 0 183 -202q0 -28 -6 -76.5t-15 -100.5t-27 -160t-34 -208
q-25 -158 -84.5 -232.5t-188.5 -74.5q-82 0 -131 43t-61 104h-8zM850 1028l16 107q4 28 4 39q0 92 -100 92q-68 0 -99 -36.5t-42 -115.5l-15 -86h236z" />
    <glyph glyph-name="f_f_h" unicode="ffh" horiz-adv-x="2109" 
d="M2130 115l-2 -21q-63 -104 -205 -104q-100 0 -147 49t-47 135q0 77 43 306.5t43 279.5q0 22 -14 36.5t-40 14.5q-74 0 -86 -76l-114 -735h-316l176 1114q6 34 6 64q0 44 -22.5 66t-83.5 22q-60 0 -95 -41t-46 -111l-15 -86h181l-29 -176h-180l-133 -852h-316l133 852
h-235l-133 -852h-316l133 852h-137l29 176h137l14 86q28 177 141.5 281t317.5 104q101 0 172.5 -32t97.5 -89q58 57 148.5 89t187.5 32q183 0 274 -82.5t91 -224.5q0 -38 -6 -78l-41 -254h8q28 80 95 129t151 49q94 0 142 -48t48 -138q0 -67 -47 -344.5t-47 -319.5
q0 -48 19 -60.5t65 -12.5zM850 1028l16 107q4 28 4 39q0 92 -100 92q-68 0 -99 -36.5t-42 -115.5l-15 -86h236z" />
    <glyph glyph-name="f_f_k" unicode="ffk" horiz-adv-x="2072" 
d="M850 1028l16 107q4 28 4 39q0 92 -100 92q-68 0 -99 -36.5t-42 -115.5l-15 -86h236zM2062 264l6 -2q27 -21 27 -88q0 -31 -10 -59t-32 -54t-63.5 -41.5t-97.5 -15.5q-116 0 -164.5 54t-48.5 137q0 34 13.5 112.5t13.5 104.5q0 38 -17.5 52.5t-52.5 14.5l-75 -479h-316
l176 1114q6 34 6 64q0 44 -22.5 66t-83.5 22q-60 0 -95 -41t-46 -111l-15 -86h181l-29 -176h-180l-133 -852h-316l133 852h-235l-133 -852h-316l133 852h-137l29 176h137l14 86q28 177 141.5 281t317.5 104q101 0 172.5 -32t97.5 -89q58 57 148.5 89t187.5 32
q183 0 274 -82.5t91 -224.5q0 -38 -6 -78l-54 -332h7l198 267h338l-377 -447q88 -3 130 -43t42 -119q0 -31 -12 -95.5t-12 -80.5q0 -41 28 -41q23 0 37 41z" />
    <glyph glyph-name="T_h" unicode="Th" horiz-adv-x="1734" 
d="M1755 115l-2 -21q-63 -104 -205 -104q-100 0 -147 49t-47 135q0 77 43 306.5t43 279.5q0 22 -14 36.5t-40 14.5q-74 0 -86 -76l-114 -735h-316l187 1182h-275l-186 -1182h-332l187 1182h-234l41 256h881q88 0 153 10t86 20l21 11h20l-98 -619h8q28 80 95 129t151 49
q94 0 142 -48t48 -138q0 -67 -47 -344.5t-47 -319.5q0 -48 19 -60.5t65 -12.5z" />
    <glyph glyph-name="f_j" unicode="fj" horiz-adv-x="1124" 
d="M727 -47l141 899h-282l-133 -852h-316l133 852h-137l29 176h137l10 66q29 187 151.5 296t340.5 109q148 0 222.5 -63.5t74.5 -157.5q0 -89 -56 -138.5t-153 -49.5q-58 0 -101 24l3 10q43 31 43 90q0 22 -17 37t-53 15q-55 0 -89.5 -41t-49.5 -131l-11 -66h594l-166 -1053
q-50 -311 -378 -311q-91 0 -183 45l4 23q100 0 163.5 60.5t78.5 160.5z" />
    <glyph glyph-name="f_f_j" unicode="ffj" horiz-adv-x="1679" 
d="M1278 -47l141 899h-282l-133 -852h-316l133 852h-235l-133 -852h-316l133 852h-137l29 176h137l14 86q28 177 141.5 281t317.5 104q102 0 164.5 -32t77.5 -91q45 53 136.5 88t201.5 35q148 0 222.5 -63.5t74.5 -157.5q0 -89 -56 -138.5t-153 -49.5q-58 0 -101 24l2 10
q43 31 43 90q0 23 -16.5 37.5t-52.5 14.5q-55 0 -89.5 -41t-49.5 -131l-11 -66h594l-166 -1053q-50 -311 -379 -311q-90 0 -182 45l4 23q100 0 163.5 60.5t78.5 160.5zM850 1028l16 107q4 28 4 39q0 92 -100 92q-68 0 -99 -36.5t-42 -115.5l-15 -86h236z" />
    <glyph glyph-name=".notdef" horiz-adv-x="643" 
 />
    <glyph glyph-name=".null" horiz-adv-x="0" 
 />
    <glyph glyph-name="nonmarkingreturn" horiz-adv-x="682" 
 />
    <glyph glyph-name="space" unicode=" " horiz-adv-x="389" 
 />
    <glyph glyph-name="exclam" unicode="!" horiz-adv-x="507" 
d="M397 379h-151q47 671 104 1059h279q-29 -173 -87 -437.5t-102 -442.5zM418 139q0 -65 -43 -108t-113 -43q-52 0 -85.5 32.5t-33.5 79.5q0 64 44 107t112 43q52 0 85.5 -32t33.5 -79z" />
    <glyph glyph-name="quotedbl" unicode="&#x22;" horiz-adv-x="634" 
d="M397 1044h-118q-12 197 4 299l16 95h205l-17 -95q-7 -45 -29.5 -120t-41.5 -127zM664 1044h-119q-12 197 4 299l16 95h205l-16 -95q-7 -45 -29.5 -120t-41.5 -127z" />
    <glyph glyph-name="numbersign" unicode="#" horiz-adv-x="905" 
d="M600 584l82 309h-143l-82 -309h143zM643 0h-197l117 449h-143l-117 -449h-197l117 449h-135l23 135h149l82 309h-137l20 135h152l119 451h196l-119 -451h144l119 451h196l-119 -451h136l-21 -135h-149l-82 -309h137l-23 -135h-151z" />
    <glyph glyph-name="dollar" unicode="$" horiz-adv-x="921" 
d="M498 -172h-152l25 162q-137 17 -204 91.5t-67 192.5t77 194.5t206 76.5q34 0 64.5 -7.5t44.5 -15.5l14 -8l-2 -6q-25 -31 -39.5 -52.5t-27.5 -57.5t-13 -72q0 -37 17 -60.5t51 -23.5q40 0 64.5 26.5t33 62t8.5 81.5q0 43 -20 85.5t-52.5 80t-72 76.5t-78.5 82.5t-71.5 90
t-52.5 106t-20 124.5q0 176 97 273.5t274 115.5l27 164h151l-26 -164q128 -17 195 -90.5t67 -194.5q0 -44 -23 -149h-323q20 110 20 141q0 51 -43 51q-76 0 -76 -127q0 -52 20 -98.5t52.5 -82.5t71.5 -72.5t78.5 -76t72 -84.5t52.5 -107t20 -134q0 -196 -106.5 -307.5
t-309.5 -126.5z" />
    <glyph glyph-name="percent" unicode="%" horiz-adv-x="1400" 
d="M551 -12h-164l696 1462h164zM662 762q-15 -94 -82 -144.5t-170 -50.5q-95 0 -146 43.5t-51 132.5q0 18 7 60l28.5 171t44.5 286q14 90 79.5 140t170.5 50q96 0 146 -48.5t50 -135.5q0 -12 -1 -27t-4.5 -39.5t-7.5 -49t-11 -68t-13.5 -83t-18 -108t-21.5 -129.5zM555 1255
q0 31 -35 31q-41 0 -47 -41q-76 -450 -76 -483q0 -31 35 -31q41 0 47 41q76 452 76 483zM1335 182q-15 -94 -82 -144t-170 -50q-196 0 -196 176q0 18 7 60t28.5 170.5t44.5 285.5q14 90 79.5 140t170.5 50q96 0 146 -48.5t50 -135.5q0 -16 -2.5 -39t-9.5 -68.5t-14.5 -88.5
t-23 -135t-28.5 -173zM1153 193q76 452 76 483t-35 31q-41 0 -47 -41q-76 -451 -76 -484q0 -30 35 -30q41 0 47 41z" />
    <glyph glyph-name="ampersand" unicode="&#x26;" horiz-adv-x="1175" 
d="M1165 0h-295l-245 643q-187 -115 -187 -295q0 -60 28 -95.5t81 -35.5q44 0 79.5 27.5t55.5 64.5h8q15 -13 28 -46t13 -64q0 -97 -73 -154t-207 -57q-153 0 -239.5 92.5t-86.5 230.5q0 179 119 304t311 161q-111 206 -111 338q0 169 98 256.5t273 87.5q119 0 187.5 -56.5
t68.5 -146.5q0 -89 -56.5 -138t-154.5 -54l-8 6q16 46 16 82q0 82 -59 82q-38 0 -61 -31.5t-23 -77.5q0 -22 5 -47.5t21 -72.5t34 -93.5t58 -143t78 -186t108.5 -257t135.5 -324.5z" />
    <glyph glyph-name="quotesingle" unicode="'" horiz-adv-x="368" 
d="M397 1044h-118q-12 197 4 299l16 95h205l-17 -95q-7 -45 -29.5 -120t-41.5 -127z" />
    <glyph glyph-name="parenleft" unicode="(" horiz-adv-x="495" 
d="M399 -319h-155q-90 416 -90 688q0 116 14 211q30 189 124.5 410.5t235.5 488.5h156q-67 -134 -159.5 -423.5t-121.5 -475.5q-28 -181 -28 -478q0 -292 24 -421z" />
    <glyph glyph-name="parenright" unicode=")" horiz-adv-x="495" 
d="M150 -319h-154q66 135 157.5 424.5t120.5 474.5q29 187 29 477q0 293 -24 422h155q90 -430 90 -682q0 -105 -16 -217q-29 -189 -122.5 -410.5t-235.5 -488.5z" />
    <glyph glyph-name="asterisk" unicode="*" horiz-adv-x="675" 
d="M719 969l-144 110l-10 -186h-172l47 186l-180 -110l-55 143l205 76l-181 82l103 143l143 -113l17 189h163l-45 -189l181 113l57 -143l-209 -82l184 -76z" />
    <glyph glyph-name="plus" unicode="+" horiz-adv-x="1290" 
d="M1257 444h-456l-70 -444h-172l70 444h-457l23 148h456l72 444h172l-72 -444h457z" />
    <glyph glyph-name="comma" unicode="," horiz-adv-x="421" 
d="M-10 -205v10q52 28 79.5 97t43.5 174l20 125h227l-12 -82q-52 -324 -358 -324z" />
    <glyph glyph-name="hyphen" unicode="-" horiz-adv-x="626" 
d="M629 438h-496l27 160h495z" />
    <glyph glyph-name="period" unicode="." horiz-adv-x="421" 
d="M213 -6q-54 0 -88.5 35t-34.5 86q0 66 45.5 111.5t114.5 45.5q55 0 89 -34t34 -84q0 -67 -43.5 -113.5t-116.5 -46.5z" />
    <glyph glyph-name="slash" unicode="/" horiz-adv-x="624" 
d="M203 -12h-203l651 1491h207z" />
    <glyph glyph-name="zero" unicode="0" horiz-adv-x="880" 
d="M473 213q53 0 72 115q20 129 40 252t32 196t23 141t16.5 103.5t10 66.5t6 46.5t1.5 27.5q0 64 -41 64q-52 0 -72 -117q-17 -103 -33.5 -207t-27.5 -170t-21.5 -132t-17 -104t-12.5 -76t-8.5 -57.5t-5 -38.5t-3 -29t-0.5 -20q0 -61 41 -61zM862 344
q-31 -195 -138.5 -275.5t-285.5 -80.5q-151 0 -232 76t-81 229q0 13 1.5 29.5t5.5 48.5t9 66t16 102t21.5 135t29 185.5t36.5 234.5q31 196 139 277t287 81q157 0 234 -76t77 -231q0 -13 -1.5 -29.5t-5.5 -48.5t-9 -66t-16 -102t-21.5 -135t-29 -185.5t-36.5 -234.5z" />
    <glyph glyph-name="one" unicode="1" horiz-adv-x="716" 
d="M582 0h-316l187 1182l-213 -47l32 198l291 105h246z" />
    <glyph glyph-name="two" unicode="2" horiz-adv-x="880" 
d="M772 313h12q28 -14 52 -56t24 -95q0 -78 -50.5 -125t-139.5 -47q-41 0 -83 16t-70 35t-60.5 35t-57.5 16q-28 0 -51.5 -25t-23.5 -67h-254l28 184q17 105 57.5 195t91.5 154.5t109.5 123.5t113 113.5t99.5 111.5t72 131.5t27 160.5q0 51 -31 51q-21 0 -32 -21t-19 -69
l-21 -136h-315l20 136q24 148 125.5 232.5t272.5 84.5q313 0 313 -268q0 -106 -28.5 -197t-76 -157t-104.5 -123.5t-117 -108.5t-112 -99.5t-91 -108.5t-51 -124l2 -2q28 49 111 49q30 0 91 -27.5t95 -27.5q55 0 72 55z" />
    <glyph glyph-name="three" unicode="3" horiz-adv-x="880" 
d="M502 416l-4 -19q-76 -65 -76 -131q0 -21 12.5 -37t30.5 -16q35 0 51.5 29t28.5 92q37 194 37 237q0 95 -117 95h-113l31 198h127q59 0 91 33.5t44 108.5q25 158 25 176q0 43 -27 43q-29 0 -43 -24t-22 -79l-17 -112h-313l14 110q22 171 131.5 251.5t278.5 80.5
q150 0 229.5 -69.5t79.5 -194.5q0 -39 -20 -162q-18 -110 -82.5 -175.5t-153.5 -84.5v-4q79 -20 120.5 -75.5t41.5 -137.5q0 -28 -33 -236q-26 -168 -118.5 -246.5t-301.5 -78.5q-159 0 -241 69t-82 168q0 108 65.5 173t175.5 65q45 0 87.5 -14t62.5 -33z" />
    <glyph glyph-name="four" unicode="4" horiz-adv-x="860" 
d="M727 0h-315l51 328h-387l33 202l526 908h319l-141 -883h90l-35 -227h-90zM498 555l61 383h-6l-209 -383h154z" />
    <glyph glyph-name="five" unicode="5" horiz-adv-x="880" 
d="M508 416l-4 -19q-76 -65 -76 -131q0 -21 12.5 -37t30.5 -16q36 0 53 29.5t27 91.5q57 355 57 381q0 51 -37 51q-50 0 -65 -92l-10 -60h-316l131 824h697l-39 -238h-381l-49 -342q19 75 78.5 111.5t125.5 36.5q193 0 193 -195q0 -41 -76 -498q-13 -83 -39 -140.5
t-74 -100.5t-124.5 -63.5t-186.5 -20.5q-83 0 -148.5 21.5t-104 57.5t-58 79t-19.5 90q0 105 70 166t182 61q45 0 87.5 -14t62.5 -33z" />
    <glyph glyph-name="six" unicode="6" horiz-adv-x="880" 
d="M956 1001h-311q23 138 23 162q0 27 -9 39t-30 12q-30 0 -46.5 -29t-25.5 -93l-47 -295h4q18 55 75.5 103t135.5 48q184 0 184 -246q0 -66 -45 -358q-31 -196 -133 -276t-299 -80q-148 0 -229.5 75t-81.5 218q0 23 4.5 63t16.5 121t23.5 151.5t36.5 224.5t44 271
q54 340 418 340q167 0 242 -75t75 -203q0 -68 -25 -173zM537 322q53 332 53 340q0 47 -41 47q-28 0 -44.5 -29t-27.5 -94q-47 -283 -47 -316q0 -57 41 -57q28 0 43 26t23 83z" />
    <glyph glyph-name="seven" unicode="7" horiz-adv-x="839" 
d="M594 238h4q20 -36 20 -80q0 -70 -52 -120t-158 -50q-103 0 -157 57.5t-54 155.5q0 66 34 164.5t78 187.5t121.5 219.5t127 206.5t132.5 203h-454l40 256h742l-33 -203q-56 -105 -127.5 -236t-110 -201.5t-84.5 -157t-68.5 -134.5t-44.5 -100t-30 -86.5t-8 -63.5
q0 -43 35 -43q22 0 47 25z" />
    <glyph glyph-name="eight" unicode="8" horiz-adv-x="880" 
d="M756 739q26 -21 44.5 -41t39.5 -49.5t32 -68.5t11 -84q0 -36 -23 -174q-31 -187 -128.5 -260.5t-291.5 -73.5q-317 0 -317 278q0 41 27 203q14 98 71.5 171.5t153.5 100.5q-28 21 -47.5 39t-42 46.5t-34 65t-11.5 79.5q0 41 20 168q26 163 127.5 238t280.5 75
q315 0 315 -274q0 -48 -25 -199q-13 -84 -63.5 -148t-138.5 -92zM524 600q-22 -19 -38 -53t-19 -64q-35 -205 -35 -217q0 -53 43 -53q54 0 64 74q4 24 12.5 72.5t14 83t5.5 46.5q0 71 -47 111zM606 879q32 32 41 84q27 173 27 194q0 57 -41 57q-29 0 -44.5 -20.5
t-23.5 -67.5q-18 -109 -18 -145q0 -61 59 -102z" />
    <glyph glyph-name="nine" unicode="9" horiz-adv-x="880" 
d="M551 324l57 372h-2q-21 -76 -73 -122t-130 -46q-97 0 -147.5 66t-50.5 192q0 64 41 318q29 176 128.5 262t301.5 86q155 0 233 -73.5t78 -207.5q0 -35 -4.5 -81t-17 -131.5t-23.5 -152.5t-36.5 -224t-43.5 -267q-28 -171 -127 -249t-295 -78q-159 0 -247.5 66.5
t-88.5 168.5q0 101 73.5 166.5t189.5 65.5q90 0 143 -49l-4 -19q-32 -17 -55 -47.5t-23 -67.5q0 -47 45 -47q32 0 50.5 22t27.5 77zM569 766q28 0 44 27.5t26 95.5q5 31 17.5 107t18 114t5.5 55q0 60 -41 60q-30 0 -44 -27t-24 -88q-5 -33 -17.5 -108.5t-19 -121t-6.5 -61.5
q0 -53 41 -53z" />
    <glyph glyph-name="colon" unicode=":" horiz-adv-x="421" 
d="M213 -6q-54 0 -88.5 35t-34.5 86q0 66 45.5 111.5t114.5 45.5q55 0 89 -34t34 -84q0 -67 -43.5 -113.5t-116.5 -46.5zM334 750q-54 0 -88.5 34.5t-34.5 85.5q0 66 45.5 112t114.5 46q55 0 89 -34t34 -85q0 -67 -43.5 -113t-116.5 -46z" />
    <glyph glyph-name="semicolon" unicode=";" horiz-adv-x="421" 
d="M-10 -205v10q52 28 79.5 97t43.5 174l20 125h227l-12 -82q-52 -324 -358 -324zM334 750q-54 0 -88.5 34.5t-34.5 85.5q0 66 45.5 112t114.5 46q55 0 89 -34t34 -85q0 -67 -43.5 -113t-116.5 -46z" />
    <glyph glyph-name="less" unicode="&#x3c;" horiz-adv-x="1269" 
d="M1151 -12l-969 436l31 188l1106 437l-37 -234l-811 -297l717 -297z" />
    <glyph glyph-name="equal" unicode="=" horiz-adv-x="1269" 
d="M1257 666h-1036l27 172h1036zM1186 219h-1036l28 172h1036z" />
    <glyph glyph-name="greater" unicode="&#x3e;" horiz-adv-x="1269" 
d="M1219 424l-1104 -436l37 243l821 299l-727 299l37 220l966 -437z" />
    <glyph glyph-name="question" unicode="?" horiz-adv-x="768" 
d="M588 354h-242l29 185q10 63 41 130.5t67 124.5t71 116t58 128t23 138q0 34 -10.5 55.5t-30.5 21.5q-34 0 -54.5 -27t-27 -60t-6.5 -74q0 -31 5.5 -64t10.5 -50l6 -17l-10 -7q-56 -18 -112 -18q-78 0 -128.5 53.5t-50.5 143.5q0 99 54 172.5t140 109t191 35.5
q158 0 244 -76.5t86 -197.5q0 -74 -29.5 -143.5t-74 -126.5t-90 -113t-84 -126.5t-50.5 -144.5zM569 133q0 -63 -45.5 -104t-111.5 -41q-59 0 -92 33t-33 81q0 67 45 107.5t110 40.5q56 0 91.5 -34t35.5 -83z" />
    <glyph glyph-name="at" unicode="@" horiz-adv-x="1495" 
d="M897 483q7 48 16 102.5t13 80.5t4 34q0 28 -15.5 46t-44.5 18q-36 0 -54.5 -16.5t-24.5 -53.5q-33 -205 -33 -221q0 -57 47 -57q42 0 65.5 19.5t26.5 47.5zM1100 104l12 -14q-20 -95 -131.5 -161t-286.5 -66q-266 0 -410.5 137t-144.5 358q0 72 56 418q41 255 244.5 407
t496.5 152q151 0 267.5 -39.5t188.5 -110.5t108 -164t36 -204q0 -128 -49 -368q-31 -153 -112.5 -222t-229.5 -69q-98 0 -154.5 48t-56.5 126q0 27 2 41h-6q-31 -81 -83.5 -126.5t-141.5 -45.5q-97 0 -150 53t-53 162q0 43 41 299q21 128 119.5 194t234.5 66q135 0 208 -68
t73 -184q0 -45 -25 -190t-25 -164q0 -14 8 -23.5t21 -9.5q83 0 100 113q6 33 16.5 94t15 88.5t10.5 67t8 65.5t2 49q0 154 -97 239t-286 85q-201 0 -337.5 -93t-164.5 -270q-53 -327 -53 -399q0 -154 95 -234t282 -80q170 0 352 43z" />
    <glyph glyph-name="A" unicode="A" horiz-adv-x="1052" 
d="M1022 0h-322q-8 181 -10 281h-229l-88 -281h-338l530 1438h353zM522 485h164l-6 484h-8z" />
    <glyph glyph-name="B" unicode="B" horiz-adv-x="972" 
d="M537 823h8q86 0 136 74.5t50 169.5q0 125 -135 125zM422 0h-350l227 1438h336q211 0 318.5 -85t107.5 -239q0 -135 -71 -237.5t-206 -139.5l-2 -6q96 -21 152.5 -87.5t56.5 -168.5q0 -236 -153.5 -355.5t-415.5 -119.5zM446 246h17q95 0 145.5 69t50.5 172q0 67 -36 97.5
t-119 33.5z" />
    <glyph glyph-name="C" unicode="C" horiz-adv-x="901" 
d="M678 483h8q109 0 167 -39.5t58 -134.5q0 -146 -105.5 -235.5t-311.5 -89.5q-184 0 -274.5 90t-90.5 237q0 79 111 742q12 73 30 128.5t53 108t84 86t124.5 54t173.5 20.5q158 0 241.5 -71.5t83.5 -192.5q0 -69 -31 -221h-313q3 18 11.5 64.5t12 71.5t3.5 44q0 59 -47 59
q-38 0 -59.5 -39t-39.5 -149q-13 -79 -28 -172.5t-23.5 -148.5t-18.5 -117t-15.5 -97.5t-10 -69.5t-6.5 -53t-2 -30q0 -53 14.5 -76t48.5 -23q57 0 91.5 61.5t60.5 192.5z" />
    <glyph glyph-name="D" unicode="D" horiz-adv-x="962" 
d="M446 246h21q74 0 113 45t53 137q9 56 20.5 127.5t17.5 111t14.5 90.5t12.5 78t9 61.5t7.5 53t4.5 39.5t3 34.5t1 25.5q0 143 -127 143zM389 0h-317l227 1438h287q465 0 465 -396q0 -69 -70 -532q-8 -53 -12 -82q-33 -221 -179.5 -324.5t-400.5 -103.5z" />
    <glyph glyph-name="E" unicode="E" horiz-adv-x="819" 
d="M686 367h8q66 -5 101.5 -43t35.5 -105q0 -100 -95 -167.5t-263 -67.5q-174 0 -263 76t-89 212q0 26 7 83t47.5 315t123.5 768h678l-41 -256h-342l-51 -318h319l-37 -237h-319q-47 -283 -47 -324q0 -74 67 -74q48 0 92.5 40.5t67.5 97.5z" />
    <glyph glyph-name="F" unicode="F" horiz-adv-x="778" 
d="M408 0h-336l227 1438h676l-41 -256h-340l-51 -318h329l-36 -237h-330z" />
    <glyph glyph-name="G" unicode="G" horiz-adv-x="972" 
d="M901 0h-113q-78 14 -121.5 72.5t-43.5 120.5h-5q-25 -97 -95.5 -151t-174.5 -54q-110 0 -168.5 70.5t-58.5 203.5q0 15 2 37.5t7 61t11 76.5t16.5 107t20.5 130t27 167t31 197q34 213 150.5 312.5t330.5 99.5q186 0 275 -75.5t89 -207.5q0 -53 -26 -190h-336
q24 137 24 168q0 59 -63 59q-39 0 -67.5 -39.5t-41.5 -120.5q-112 -694 -112 -733q0 -40 18 -59t45 -19q36 0 60.5 20.5t29.5 51.5l50 311h-97l31 197h432z" />
    <glyph glyph-name="H" unicode="H" horiz-adv-x="983" 
d="M905 0h-336l97 618h-156l-96 -618h-336l227 1438h336l-92 -584h156l92 584h336z" />
    <glyph glyph-name="I" unicode="I" horiz-adv-x="499" 
d="M418 0h-336l227 1438h336z" />
    <glyph glyph-name="J" unicode="J" horiz-adv-x="864" 
d="M508 319l178 1119h334l-178 -1121q-27 -169 -141 -251t-298 -82q-165 0 -258.5 75t-93.5 185q0 115 69.5 181.5t194.5 66.5q34 0 74.5 -13t52.5 -28l-2 -17q-73 -73 -73 -145q0 -60 51 -60q76 0 90 90z" />
    <glyph glyph-name="K" unicode="K" horiz-adv-x="1013" 
d="M983 244l6 -2q15 -12 27 -38.5t12 -56.5q0 -72 -53.5 -117.5t-165.5 -45.5q-120 0 -172.5 57t-52.5 145q0 53 27.5 181.5t27.5 189.5q0 60 -26.5 86t-92.5 29l-104 -672h-338l227 1438h338l-86 -531h6l289 531h358l-432 -672q94 -6 143.5 -60.5t49.5 -146.5
q0 -54 -26.5 -166t-26.5 -149q0 -41 28 -41q23 0 37 41z" />
    <glyph glyph-name="L" unicode="L" horiz-adv-x="768" 
d="M752 0h-670l227 1438h336l-188 -1182h334z" />
    <glyph glyph-name="M" unicode="M" horiz-adv-x="1167" 
d="M1090 0h-324l141 903l-137 -307h-172l-61 342l-148 -938h-311l227 1438h289l129 -518l276 518h318z" />
    <glyph glyph-name="N" unicode="N" horiz-adv-x="1003" 
d="M926 0h-240l-176 768l-121 -768h-311l227 1438h285l143 -594l94 594h326z" />
    <glyph glyph-name="O" unicode="O" horiz-adv-x="1003" 
d="M721 1450q99 0 173.5 -28t117.5 -77t63.5 -108t20.5 -129q0 -24 -2 -53.5t-7.5 -73t-11 -82t-16.5 -107t-19.5 -120t-24.5 -149.5t-28 -169q-31 -194 -143 -282t-334 -88q-192 0 -284.5 88t-92.5 243q0 18 2 43.5t8 69t11.5 81t17 110t19.5 124t25 154.5t28 172
q61 381 477 381zM537 229q41 0 73.5 34t42.5 99q18 114 40 250.5t32.5 200.5t21 133t14 103t3.5 55q0 100 -72 100q-97 0 -119 -139q-19 -116 -40 -243.5t-32 -195t-21.5 -134t-14.5 -104t-4 -62.5q0 -97 76 -97z" />
    <glyph glyph-name="P" unicode="P" horiz-adv-x="966" 
d="M414 0h-336l227 1438h273q241 0 376.5 -104t135.5 -306q0 -235 -114.5 -376.5t-332.5 -141.5q-77 0 -117 27l2 16q73 31 125 107.5t74.5 164t22.5 179.5q0 83 -38 129.5t-112 46.5z" />
    <glyph glyph-name="Q" unicode="Q" horiz-adv-x="1009" 
d="M631 367l108 686q6 37 6 63q0 88 -63 88q-87 0 -109 -151l-108 -686q-4 -32 -4 -43q0 -44 18 -67.5t49 -23.5q38 0 65.5 34.5t37.5 99.5zM938 -219l6 -2q27 -20 27 -82q0 -70 -55.5 -118t-155.5 -48q-113 0 -163 50.5t-50 131.5q0 33 12 97t12 100q0 78 -82 78
q-366 0 -366 297q0 50 8 94l105 659q11 68 32.5 126.5t60 112t91.5 91t130 60t171 22.5q189 0 275.5 -74t86.5 -217q0 -53 -8 -100l-106 -680q-21 -133 -83 -208t-165 -105l-2 -7q79 -5 125.5 -40t46.5 -103q0 -20 -8.5 -64t-8.5 -65q0 -37 27 -37t37 31z" />
    <glyph glyph-name="R" unicode="R" horiz-adv-x="933" 
d="M596 1198l-68 -434q44 6 76.5 35t50 71.5t25.5 87t8 89.5q0 60 -22 102t-70 49zM932 244l6 -2q15 -12 27 -38.5t12 -56.5q0 -72 -53.5 -117.5t-165.5 -45.5q-120 0 -173 57.5t-53 144.5q0 60 21.5 153.5t21.5 139.5q0 99 -75 99l-92 -578h-336l227 1438h303
q214 0 319 -98t105 -267q0 -147 -87.5 -260t-238.5 -135l-2 -6q98 -6 148.5 -63.5t50.5 -145.5q0 -39 -15.5 -114.5t-15.5 -104.5q0 -41 29 -41q23 0 37 41z" />
    <glyph glyph-name="S" unicode="S" horiz-adv-x="931" 
d="M506 514l-2 -6q-25 -31 -39.5 -52.5t-27.5 -57.5t-13 -72q0 -37 17 -60.5t51 -23.5q40 0 64.5 26.5t33 62t8.5 81.5q0 43 -20 85.5t-52.5 80t-72 76.5t-78.5 82.5t-71.5 90t-52.5 106t-20 124.5q0 196 117.5 294.5t331.5 98.5q163 0 249.5 -75.5t86.5 -213.5
q0 -44 -23 -149h-323q20 110 20 141q0 51 -43 51q-76 0 -76 -127q0 -52 20 -98.5t52.5 -82.5t71.5 -72.5t78.5 -76t72 -84.5t52.5 -107t20 -134q0 -211 -123 -324.5t-356 -113.5q-182 0 -270.5 77.5t-88.5 212.5q0 118 77 194.5t206 76.5q34 0 64.5 -7.5t44.5 -15.5z" />
    <glyph glyph-name="T" unicode="T" horiz-adv-x="860" 
d="M596 0h-332l187 1182h-234l41 256h799l-41 -256h-234z" />
    <glyph glyph-name="U" unicode="U" horiz-adv-x="1005" 
d="M649 346l174 1092h338l-170 -1071q-62 -379 -479 -379q-104 0 -181.5 26t-121 71t-64 99t-20.5 117q0 14 2 35t8.5 65.5t14 94t23 146.5t31 194.5t42.5 266t53 335.5h336q-23 -141 -45 -278t-36.5 -229t-29 -181t-23.5 -143.5t-17 -105t-12 -78.5t-7.5 -51.5t-4.5 -35
t-1 -19.5q0 -84 80 -84q93 0 110 113z" />
    <glyph glyph-name="V" unicode="V" horiz-adv-x="1038" 
d="M731 0h-362l-103 1182q-3 47 -39 47q-26 0 -47 -25l-6 2q-8 20 -8 45q0 88 60 142.5t155 54.5q126 0 176.5 -60.5t50.5 -193.5l-6 -715h8l293 959h338z" />
    <glyph glyph-name="W" unicode="W" horiz-adv-x="1540" 
d="M1272 0h-326l-37 823l-284 -823h-326q-25 1063 -25 1182q0 47 -38 47q-27 0 -48 -25l-6 2q-8 16 -8 41q0 89 58 145t155 56q116 0 166.5 -57.5t50.5 -167.5q0 -122 -39 -693l299 908h215l82 -912l223 912h326z" />
    <glyph glyph-name="X" unicode="X" horiz-adv-x="1052" 
d="M1028 0h-348l-84 446l-217 -446h-354l448 745l-127 435q-15 47 -57 47q-26 0 -51 -25l-5 2q-8 16 -8 47q0 87 55.5 142t151.5 55q106 0 154 -47.5t67 -147.5l45 -233l195 418h350l-418 -713z" />
    <glyph glyph-name="Y" unicode="Y" horiz-adv-x="968" 
d="M651 0h-336l88 567l-106 615q-5 26 -13 36.5t-26 10.5q-26 0 -47 -25l-6 2q-8 20 -8 43q0 89 51.5 144t146.5 55q111 0 159 -58t54 -196l15 -293h8l207 537h333l-432 -871z" />
    <glyph glyph-name="Z" unicode="Z" horiz-adv-x="882" 
d="M768 352h10q52 -12 83.5 -58.5t31.5 -109.5q0 -92 -58 -144t-159 -52q-56 0 -117 27t-113.5 54t-87.5 27q-42 0 -65 -26.5t-23 -69.5h-245q0 117 26.5 195t69.5 143l549 844h-410l41 256h754l-35 -217l-602 -922l2 -2q27 27 76 27q26 0 83 -26t89 -26q35 0 63 21t37 59z
" />
    <glyph glyph-name="bracketleft" unicode="[" horiz-adv-x="536" 
d="M440 -319h-364l278 1757h365l-29 -174h-139l-223 -1409h139z" />
    <glyph glyph-name="backslash" unicode="\" horiz-adv-x="624" 
d="M612 -12h-180l-199 1491h181z" />
    <glyph glyph-name="bracketright" unicode="]" horiz-adv-x="536" 
d="M358 -319h-362l24 174h140l223 1409h-139l28 174h365z" />
    <glyph glyph-name="asciicircum" unicode="^" horiz-adv-x="1249" 
d="M1214 590h-227l-164 641l-360 -641h-244l512 848h242z" />
    <glyph glyph-name="underscore" unicode="_" horiz-adv-x="1044" 
d="M987 -297h-1022l23 143h1022z" />
    <glyph glyph-name="grave" unicode="`" 
d="M797 1223h-205l-137 297h247z" />
    <glyph glyph-name="a" unicode="a" horiz-adv-x="880" 
d="M809 0h-315l69 451q-73 -6 -119.5 -61.5t-46.5 -137.5q0 -51 35 -51q26 0 45 26h8q11 -22 11 -47q0 -92 -51 -144t-154 -52q-96 0 -154.5 59.5t-58.5 163.5q0 86 29.5 153.5t77.5 110t115.5 71.5t138 41t149.5 13q26 177 26 182q0 45 -45 45q-22 0 -38.5 -15.5
t-20.5 -45.5l-16 -123h-316l15 115q18 130 122 207t279 77q332 0 332 -266q0 -14 -3 -38t-12 -83.5t-20.5 -130.5t-34.5 -216.5t-47 -303.5z" />
    <glyph glyph-name="b" unicode="b" horiz-adv-x="901" 
d="M379 0h-301l233 1479h316l-195 -1225v-12q0 -24 13 -39t32 -15q36 0 54.5 23t29.5 96q3 17 23 135t34.5 213.5t14.5 120.5q0 47 -51 47q-23 0 -41 -6l4 33q22 82 79.5 135t147.5 53q182 0 182 -202q0 -28 -6 -76.5t-15 -100.5t-27 -160t-34 -208q-25 -158 -84 -232.5
t-188 -74.5q-82 0 -131 43t-61 104h-9z" />
    <glyph glyph-name="c" unicode="c" horiz-adv-x="860" 
d="M893 618h-301q4 26 11 64t11 64t4 42q0 35 -34 35q-16 0 -26.5 -4.5t-23.5 -18t-23 -45t-17 -79.5q-56 -358 -56 -383q0 -84 62 -84q50 0 87 53t50 144l6 4q28 8 51 8q72 0 116 -44.5t44 -113.5q0 -116 -110.5 -196t-278.5 -80q-173 0 -255.5 82.5t-82.5 224.5q0 38 5 88
t11 88.5t17.5 106.5t17.5 106q14 86 45.5 150.5t73 103.5t97 63t110 32.5t119.5 8.5q140 0 219.5 -64.5t79.5 -170.5q0 -51 -29 -185z" />
    <glyph glyph-name="d" unicode="d" horiz-adv-x="901" 
d="M823 0h-301l21 131h-8q-32 -61 -88.5 -101t-129.5 -40q-204 0 -204 229q0 20 2.5 45.5t10 76t15 97.5t24.5 152t32 198q21 135 82.5 192.5t166.5 57.5q86 0 132 -52.5t49 -135.5l-4 -33q-18 6 -41 6q-65 0 -74 -57q-14 -91 -28.5 -179.5t-22 -133.5t-14 -86t-9 -63.5
t-2.5 -39.5q0 -69 51 -69q22 0 41 15.5t23 43.5l194 1225h316z" />
    <glyph glyph-name="e" unicode="e" horiz-adv-x="878" 
d="M848 338l-10 -76q-18 -134 -112 -206t-286 -72q-156 0 -239.5 63.5t-83.5 185.5q0 15 1 31.5t4.5 44.5t7 50t11 70l12.5 80t17 104.5t20 121.5q25 141 127 222t287 81q165 0 247.5 -74t82.5 -192q0 -78 -25.5 -139t-69 -101.5t-106 -67.5t-131 -40t-149.5 -16
q-27 -168 -27 -181q0 -39 43 -39q54 0 63 60l15 90h301zM506 741l-37 -227q79 18 120.5 91t41.5 163q0 66 -49 66q-61 0 -76 -93z" />
    <glyph glyph-name="f" unicode="f" horiz-adv-x="661" 
d="M453 0h-316l133 852h-137l29 176h137l16 107q27 165 128 254.5t270 89.5q136 0 203 -63t67 -152q0 -80 -52 -132.5t-149 -52.5q-50 0 -94 23l2 10q4 3 10 9t16.5 29.5t10.5 51.5q0 43 -33 43q-48 0 -63 -110l-17 -107h181l-29 -176h-180z" />
    <glyph glyph-name="g" unicode="g" horiz-adv-x="921" 
d="M358 -18l-2 -11q-39 -30 -39 -71q0 -26 29.5 -40t79.5 -14q57 0 89.5 22.5t35.5 55.5q0 28 -31.5 48t-79.5 30.5t-103 26t-103 32.5t-79.5 50t-31.5 79q0 62 58.5 103t146.5 49q-72 23 -117 81.5t-45 147.5q0 56 22 170q27 145 138.5 221t279.5 76q133 0 187 -41
q19 19 24 52l25 163h258l-13 -79q-25 -169 -200 -193q65 -56 65 -178q0 -35 -22 -168q-25 -145 -139.5 -216t-288.5 -71q-53 0 -80 -7.5t-27 -31.5q0 -20 34.5 -34t85.5 -21t111.5 -24.5t111.5 -41.5t85.5 -74.5t34.5 -121.5q0 -87 -41 -154.5t-110 -107t-151.5 -59
t-174.5 -19.5q-171 0 -262.5 62t-91.5 159q0 74 62.5 124t164.5 50q29 0 60 -7t44 -17zM621 600q4 31 9.5 66.5t8 54t2.5 27.5q0 75 -57 75q-33 0 -54 -18.5t-28 -67.5q-21 -108 -21 -147q0 -33 15 -50.5t41 -17.5q36 0 57.5 15.5t26.5 62.5z" />
    <glyph glyph-name="h" unicode="h" 
d="M963 115l-2 -21q-63 -104 -205 -104q-100 0 -147.5 49t-47.5 135q0 77 43 306.5t43 279.5q0 22 -13.5 36.5t-39.5 14.5q-74 0 -86 -76l-115 -735h-315l233 1479h316l-99 -619h9q28 80 94.5 129t150.5 49q94 0 142.5 -48t48.5 -138q0 -67 -47 -344.5t-47 -319.5
q0 -48 19 -60.5t65 -12.5z" />
    <glyph glyph-name="i" unicode="i" horiz-adv-x="466" 
d="M389 0h-311l162 1028h311zM614 1360q0 -66 -52 -113t-132 -47q-67 0 -106 40t-39 103q0 64 50 111t132 47q73 0 110 -38t37 -103z" />
    <glyph glyph-name="j" unicode="j" horiz-adv-x="514" 
d="M-133 -291l4 23q98 0 158.5 60.5t76.5 160.5l170 1075h316l-166 -1053q-50 -311 -379 -311q-88 0 -180 45zM647 1360q0 -66 -52 -113t-132 -47q-68 0 -107 40t-39 103q0 64 50 111t133 47q73 0 110 -38t37 -103z" />
    <glyph glyph-name="k" unicode="k" horiz-adv-x="907" 
d="M893 244l6 -2q27 -21 27 -88q0 -31 -10 -59t-32 -54t-63.5 -41.5t-97.5 -15.5q-116 0 -164.5 53.5t-48.5 136.5q0 34 13.5 112.5t13.5 104.5q0 38 -17.5 53t-52.5 15l-72 -459h-317l227 1438h318l-109 -676h6l199 266h338l-377 -446q89 -3 129.5 -41.5t40.5 -116.5
q0 -31 -11.5 -97.5t-11.5 -82.5q0 -41 29 -41q23 0 37 41z" />
    <glyph glyph-name="l" unicode="l" horiz-adv-x="466" 
d="M389 0h-311l233 1479h312z" />
    <glyph glyph-name="m" unicode="m" horiz-adv-x="1331" 
d="M1370 115l-2 -21q-63 -104 -205 -104q-100 0 -147 49t-47 135q0 77 43 306.5t43 279.5q0 25 -8 38t-33 13q-29 0 -50 -22.5t-28 -65.5l-113 -723h-315q119 748 119 764q0 26 -10.5 36.5t-32.5 10.5q-31 0 -51.5 -25t-26.5 -63l-113 -723h-315l162 1028h303l-27 -166h12
q28 78 89.5 127t150.5 49q77 0 112 -44t42 -126q28 79 102.5 124.5t157.5 45.5q95 0 146.5 -48.5t51.5 -137.5q0 -67 -47 -344.5t-47 -319.5q0 -48 19 -60.5t65 -12.5z" />
    <glyph glyph-name="n" unicode="n" horiz-adv-x="921" 
d="M963 115l-2 -21q-63 -104 -205 -104q-100 0 -147.5 49t-47.5 135q0 77 43 306.5t43 279.5q0 22 -13.5 36.5t-39.5 14.5q-74 0 -86 -76l-115 -735h-315l162 1028h301l-27 -168h8q27 79 100.5 128.5t159.5 49.5q94 0 142.5 -48t48.5 -138q0 -67 -47 -344.5t-47 -319.5
q0 -48 19 -60.5t65 -12.5z" />
    <glyph glyph-name="o" unicode="o" horiz-adv-x="899" 
d="M481 199q31 0 49 17.5t25 62.5q74 422 74 483t-51 61q-58 0 -72 -78q-74 -439 -74 -487q0 -59 49 -59zM868 279q-22 -142 -125 -218.5t-284 -76.5q-162 0 -249 78t-87 206q0 64 67 475q23 139 133 217t289 78q156 0 241 -79.5t85 -202.5q0 -51 -70 -477z" />
    <glyph glyph-name="p" unicode="p" horiz-adv-x="921" 
d="M338 -338h-315l217 1366h301l-27 -168h2q27 78 104.5 128t163.5 50q98 0 141.5 -49.5t43.5 -146.5q0 -61 -92 -613q-21 -132 -97.5 -188.5t-222.5 -56.5q-75 0 -127 30l2 21q49 12 82.5 57t50.5 150q9 58 23 140.5t22.5 136t17 108t13 87t4.5 44.5q0 53 -51 53
q-33 0 -56.5 -20t-29.5 -56z" />
    <glyph glyph-name="q" unicode="q" horiz-adv-x="921" 
d="M788 -338h-315l170 1073q6 36 -11 56t-50 20q-30 0 -48.5 -19t-23.5 -47l-80 -503q-17 -105 2.5 -150t65.5 -57l-2 -21q-65 -30 -136 -30q-287 0 -245 260l86 536q41 258 262 258q87 0 148.5 -50t64.5 -128h2l27 168h301z" />
    <glyph glyph-name="r" unicode="r" horiz-adv-x="815" 
d="M393 0h-315l162 1028h303l-33 -203h12q33 99 95 156t155 57q87 0 134.5 -44.5t47.5 -121.5q0 -107 -70.5 -174t-189.5 -67q-82 0 -125 31l2 10q27 10 46.5 29.5t19.5 41.5q0 25 -25 25q-97 -3 -143 -289z" />
    <glyph glyph-name="s" unicode="s" horiz-adv-x="819" 
d="M850 684h-289q12 66 12 94q0 45 -38 45q-24 0 -40 -19t-16 -46q0 -38 35 -77t85 -75.5t100 -76.5t85 -95.5t35 -118.5q0 -82 -33 -146.5t-91 -104t-132 -60t-160 -20.5q-159 0 -248 64t-89 163q0 87 63.5 142t167.5 55q65 0 117 -23l-2 -10q-45 -53 -45 -99q0 -57 59 -57
q34 0 55 20t21 58q0 32 -24.5 65t-61.5 59.5t-80 61t-80 69t-61.5 83.5t-24.5 104q0 75 32.5 133.5t88 94t123.5 53.5t145 18q148 0 229.5 -62t81.5 -159q0 -63 -20 -133z" />
    <glyph glyph-name="t" unicode="t" horiz-adv-x="724" 
d="M678 268h12q15 -35 15 -78q0 -89 -67.5 -144.5t-197.5 -55.5q-138 0 -200 71t-62 191q0 62 15.5 174.5t66.5 404.5h-117l31 197h117l49 305h315l-49 -305h211l-31 -197h-211q-18 -111 -35 -213.5t-25.5 -151.5t-15.5 -92.5t-9.5 -65t-2.5 -40.5q0 -63 66 -63q76 0 125 63
z" />
    <glyph glyph-name="u" unicode="u" horiz-adv-x="901" 
d="M823 0h-305l23 152h-4q-63 -168 -234 -168q-90 0 -140 54t-50 159q0 52 86 586q24 153 39 245h315q-115 -713 -118 -752q-1 -10 -1 -16q0 -51 43 -51q28 0 49 21.5t27 58.5l117 739h315z" />
    <glyph glyph-name="v" unicode="v" horiz-adv-x="890" 
d="M641 0h-360l-74 772q-3 47 -39 47q-26 0 -47 -24l-6 2q-4 32 0 67q12 80 67 127t144 47q105 0 145.5 -63t38.5 -191l6 -403h8l203 647h326z" />
    <glyph glyph-name="w" unicode="w" horiz-adv-x="1300" 
d="M1053 0h-291l-21 559l-215 -559h-280l-39 772q0 47 -39 47q-26 0 -47 -24l-6 2q-4 32 0 67q12 80 67 128t144 48q106 0 151 -65t43 -191l-2 -274q34 79 100.5 271t88.5 247h237l27 -516l149 516h320z" />
    <glyph glyph-name="x" unicode="x" horiz-adv-x="872" 
d="M860 0h-307l-70 285l-141 -285h-330l344 518l-84 254q-16 62 -47 62q-25 0 -45 -23l-6 2q-12 18 -12 57q0 73 47.5 120.5t124.5 47.5q83 0 121 -46t75 -165l21 -69l151 270h302l-324 -510z" />
    <glyph glyph-name="y" unicode="y" horiz-adv-x="962" 
d="M569 -373h-299l162 404q-96 15 -137 81.5t-43 202.5q-6 371 -8 467q0 35 -31 35q-26 0 -53 -39h-17q0 130 67 195t163 65q86 0 138 -43t52 -137q0 -115 -14 -295.5t-14 -218.5q0 -29 18 -29l231 713h310z" />
    <glyph glyph-name="z" unicode="z" horiz-adv-x="782" 
d="M711 324h8q34 -15 57 -54.5t23 -83.5q0 -90 -54.5 -143t-158.5 -53q-49 0 -102.5 25.5t-96.5 51t-68 25.5q-28 0 -46.5 -25t-18.5 -67h-240q0 150 97 274l395 527h-311l36 227h654l-27 -172l-440 -569q25 20 55 20q38 0 84.5 -19.5t71.5 -19.5q65 0 82 56z" />
    <glyph glyph-name="braceleft" unicode="{" horiz-adv-x="577" 
d="M492 -254l-11 -65q-156 0 -228.5 63.5t-72.5 173.5q0 71 30 214.5t30 217.5q0 138 -113 152l25 155q82 10 119.5 59t56.5 163l49 299q27 159 113.5 230t275.5 71l-10 -66q-77 0 -112.5 -60.5t-53.5 -172.5l-53 -332q-43 -259 -285 -273l-2 -4q83 -8 142 -66t59 -161
q0 -70 -32 -226t-32 -224q0 -63 25 -105.5t80 -42.5z" />
    <glyph glyph-name="bar" unicode="|" horiz-adv-x="475" 
d="M322 -12h-172l237 1503h172z" />
    <glyph glyph-name="braceright" unicode="}" horiz-adv-x="577" 
d="M-4 -319l8 65q40 0 71.5 24.5t50 64.5t28.5 74.5t16 70.5l53 331q12 73 41.5 128t71 86.5t83.5 47.5t89 21l2 4q-84 7 -143.5 61.5t-59.5 155.5q0 70 30 225t30 222q0 151 -99 151l11 66q160 0 230.5 -58.5t70.5 -179.5q0 -64 -31 -215t-31 -213q0 -74 27.5 -108.5
t85.5 -47.5l-25 -155q-76 -12 -117.5 -62t-58.5 -159l-47 -299q-24 -151 -115.5 -226t-271.5 -75z" />
    <glyph glyph-name="asciitilde" unicode="~" horiz-adv-x="1064" 
d="M948 688h66q0 -154 -63 -242t-177 -88q-59 0 -114.5 20t-91 43.5t-78 43.5t-78.5 20q-44 0 -79.5 -34t-49.5 -82h-66q0 145 72.5 237t183.5 92q59 0 115.5 -20t92.5 -43.5t77 -43.5t73 -20q42 0 72 31t45 86z" />
    <glyph glyph-name="uni007F" horiz-adv-x="0" 
 />
    <glyph glyph-name="uni00A0" unicode="&#xa0;" horiz-adv-x="577" 
 />
    <glyph glyph-name="exclamdown" unicode="&#xa1;" horiz-adv-x="507" 
d="M360 743h152q-47 -670 -104 -1058h-279q29 173 87 437.5t101 442.5zM340 983q0 65 43 108.5t113 43.5q51 0 84.5 -33t33.5 -80q0 -64 -43.5 -107t-111.5 -43q-52 0 -85.5 32t-33.5 79z" />
    <glyph glyph-name="cent" unicode="&#xa2;" horiz-adv-x="921" 
d="M543 -172h-152l25 162q-134 20 -201.5 99.5t-67.5 201.5q0 49 6.5 104.5t23.5 153t22 131.5q15 95 51.5 164t90 108.5t111.5 58.5t130 25l24 146h152l-25 -152q99 -20 154 -80t55 -147q0 -51 -29 -185h-301q4 27 11 64.5t11.5 63.5t4.5 42q0 35 -35 35q-16 0 -26.5 -4.5
t-23.5 -18t-23 -45t-17 -79.5q-53 -339 -53 -363q0 -84 69 -84q47 0 89 47t63 134h8q91 0 132.5 -35t41.5 -107q0 -117 -80 -191t-217 -89z" />
    <glyph glyph-name="sterling" unicode="&#xa3;" horiz-adv-x="921" 
d="M901 0h-860l35 225h92l65 416h-92l25 156h92l39 241q16 100 44 170.5t79 127.5t135.5 85.5t202.5 28.5q161 0 241 -73.5t80 -196.5q0 -68 -20 -174h-322q21 132 21 149q0 49 -41 49q-39 0 -55 -40t-33 -148l-35 -219h225l-24 -156h-226l-65 -416h432z" />
    <glyph glyph-name="currency" unicode="&#xa4;" horiz-adv-x="819" 
d="M840 477l-107 -94l-63 72q-91 -49 -189 -49q-113 0 -184 49l-88 -72l-82 94l82 68q-45 92 -29 184q14 96 86 186l-57 68l110 94l64 -69q84 47 201 47q98 0 172 -47l88 69l78 -94l-80 -68q42 -86 28 -186q-17 -100 -86 -182zM684 729q11 69 -26 112.5t-107 43.5
q-71 0 -122.5 -43.5t-61.5 -112.5q-11 -68 27 -112t108 -44t120.5 44t61.5 112z" />
    <glyph glyph-name="yen" unicode="&#xa5;" horiz-adv-x="921" 
d="M629 0h-336l49 315h-164l25 156h164l20 135h-164l25 156h108l-118 676h297l57 -547h8l213 547h326l-338 -676h110l-24 -156h-164l-21 -135h164l-24 -156h-164z" />
    <glyph glyph-name="brokenbar" unicode="&#xa6;" horiz-adv-x="495" 
d="M332 -12h-172l88 561h172zM479 930h-172l90 561h172z" />
    <glyph glyph-name="section" unicode="&#xa7;" horiz-adv-x="819" 
d="M516 817q-49 -25 -49 -80q0 -52 61 -94q47 29 47 88q0 24 -17 48t-42 38zM678 518l-2 -6q46 -29 79 -86t33 -129q0 -100 -57 -172t-144 -104.5t-192 -32.5q-151 0 -230 62.5t-79 152.5q0 84 53 135t137 51q30 0 72 -10l2 -6q-22 -44 -22 -70q0 -80 73 -80q34 0 60 18
t26 52q0 40 -32.5 78t-78.5 70.5t-92.5 69t-79 88t-32.5 112.5q0 157 180 219l2 6q-42 32 -77 88t-35 131q0 96 53 165t135.5 101.5t181.5 32.5q155 0 236.5 -66t81.5 -169q0 -38 -17 -125h-286q16 83 16 104q0 41 -41 41q-27 0 -43 -19.5t-16 -50.5q0 -41 24 -76
t60.5 -59.5t79 -54t79 -58t60.5 -73.5t24 -100q0 -86 -50.5 -146.5t-141.5 -83.5z" />
    <glyph glyph-name="dieresis" unicode="&#xa8;" 
d="M616 1376q0 -63 -45.5 -109t-115.5 -46q-57 0 -90 35t-33 92q0 63 46 108t114 45q59 0 91.5 -33.5t32.5 -91.5zM1040 1376q0 -63 -45.5 -109t-115.5 -46q-57 0 -90 35t-33 92q0 63 45.5 108t113.5 45q59 0 92 -33.5t33 -91.5z" />
    <glyph glyph-name="copyright" unicode="&#xa9;" horiz-adv-x="1679" 
d="M985 1278q-196 0 -343 -84.5t-222.5 -228t-75.5 -324.5q0 -250 133 -382t381 -132q292 0 457.5 171t165.5 450q0 259 -128 394.5t-368 135.5zM1010 569h8q59 0 92 -34.5t33 -92.5q0 -65 -43.5 -110t-103 -63.5t-126.5 -18.5q-260 0 -260 233q0 72 47 365q29 171 104 239
t218 68q124 0 179.5 -52t55.5 -167q0 -24 -10 -92h-207q9 74 9 82q0 38 -12 53.5t-36 15.5q-30 0 -44.5 -9t-26 -40t-23.5 -100q-51 -306 -51 -359q0 -77 59 -77q106 0 138 159zM997 1417q293 0 464 -181.5t171 -485.5q0 -127 -31.5 -240.5t-96 -209t-156.5 -165
t-219 -108.5t-277 -39q-301 0 -480 173t-179 476q0 125 34 240.5t102.5 213.5t163.5 171t225 114t279 41z" />
    <glyph glyph-name="ordfeminine" unicode="&#xaa;" horiz-adv-x="606" 
d="M690 883h-196l49 307q-62 0 -95.5 -43.5t-33.5 -112.5q0 -45 24 -45q22 0 35 23h4q12 -16 12 -41q0 -38 -27.5 -67.5t-101.5 -29.5q-64 0 -103.5 41.5t-39.5 106.5q0 64 28 109t78 68.5t105.5 33.5t122.5 10q12 72 12 88q0 45 -39 45q-25 0 -36.5 -13t-16.5 -44l-4 -37
h-197l4 37q26 172 256 172q106 0 167 -45.5t61 -118.5q0 -20 -68 -444z" />
    <glyph glyph-name="guillemotleft" unicode="&#xab;" horiz-adv-x="845" 
d="M453 113h-209l-99 405l228 406h209l-191 -426zM799 113h-209l-98 405l227 406h209l-193 -426z" />
    <glyph glyph-name="logicalnot" unicode="&#xac;" horiz-adv-x="1269" 
d="M1186 219h-172l67 426h-864l29 172h1036z" />
    <glyph glyph-name="uni00AD" unicode="&#xad;" horiz-adv-x="647" 
d="M639 438h-496l27 160h496z" />
    <glyph glyph-name="registered" unicode="&#xae;" horiz-adv-x="1605" 
d="M1176 410h4q10 -20 10 -48q0 -40 -38 -70t-103 -30q-69 0 -104.5 32.5t-35.5 92.5q0 27 11.5 84t11.5 92q0 38 -13.5 55t-44.5 17h-24l-59 -367h-209l137 858h227q131 0 203 -51.5t72 -146.5q0 -92 -64.5 -154t-165.5 -80v-6q150 -9 150 -121q0 -29 -11.5 -81.5
t-11.5 -67.5q0 -33 27 -33q21 0 31 25zM870 768h11q54 0 87 44.5t33 105.5q0 39 -21 61t-58 22h-15zM1481 748q0 259 -128 394.5t-368 135.5q-196 0 -343 -84.5t-222.5 -228t-75.5 -324.5q0 -250 133 -382t381 -132q292 0 457.5 171t165.5 450zM1632 750
q0 -127 -31.5 -240.5t-96 -209t-156.5 -165t-219 -108.5t-277 -39q-301 0 -480 173t-179 476q0 125 34 240.5t102.5 213.5t163.5 171t225 114t279 41q293 0 464 -181.5t171 -485.5z" />
    <glyph glyph-name="macron" unicode="&#xaf;" 
d="M948 1317h-540l30 192h541z" />
    <glyph glyph-name="degree" unicode="&#xb0;" horiz-adv-x="860" 
d="M928 1208q0 -142 -99.5 -234.5t-240.5 -92.5q-125 0 -204 74.5t-79 203.5q0 140 104.5 234t235.5 94q130 0 206.5 -74t76.5 -205zM588 989q96 0 154.5 65t58.5 150q0 174 -164 174q-83 0 -144 -64.5t-61 -150.5q0 -82 39 -128t117 -46z" />
    <glyph glyph-name="plusminus" unicode="&#xb1;" horiz-adv-x="1134" 
d="M1124 584h-374l-62 -379h-180l61 379h-374l24 155h375l59 381h181l-60 -381h375zM1032 0h-930l23 154h930z" />
    <glyph glyph-name="twosuperior" unicode="&#xb2;" horiz-adv-x="573" 
d="M686 1014h-485l20 141l248 309q26 34 42.5 58t36 59t29 71t9.5 72q0 31 -21 31q-24 0 -30 -47l-17 -102h-209l15 106q12 91 75.5 140t175.5 49q106 0 164 -50t58 -137q0 -128 -115 -270l-223 -268h252z" />
    <glyph glyph-name="threesuperior" unicode="&#xb3;" horiz-adv-x="573" 
d="M461 1389h-68l25 153h63q39 0 55.5 12.5t22.5 53.5q19 126 19 129q0 22 -17 22q-22 0 -29 -51l-10 -72h-219l10 72q13 92 84 142.5t187 50.5q100 0 153.5 -50t53.5 -139q0 -20 -9 -76q-14 -77 -44.5 -111.5t-102.5 -51.5v-3q96 -22 96 -147q0 -53 -10 -111
q-35 -215 -279 -215q-103 0 -159 47.5t-56 118.5t43 113.5t119 42.5q35 0 63 -15t35 -38q-51 -34 -51 -88q0 -19 7.5 -30t19.5 -11q25 0 35 61q20 120 20 139q0 27 -12 39.5t-45 12.5z" />
    <glyph glyph-name="acute" unicode="&#xb4;" 
d="M735 1223h-205l148 297h268z" />
    <glyph glyph-name="mu" unicode="&#xb5;" horiz-adv-x="862" 
d="M786 0h-305l23 152h-4q-44 -116 -146 -150l-59 -375h-313l219 1401h315l-117 -731q-2 -12 -2 -31q0 -51 43 -51q25 0 47.5 21t28.5 53l117 739h315z" />
    <glyph glyph-name="paragraph" unicode="&#xb6;" horiz-adv-x="921" 
d="M844 0h-221l213 1356h-107l-213 -1356h-221l131 838q-90 0 -143.5 69t-53.5 176q0 103 46 193t133.5 146.5t197.5 56.5h471z" />
    <glyph glyph-name="middot" unicode="&#xb7;" 
d="M743 756q0 -66 -52 -113t-132 -47q-67 0 -106 40t-39 103q0 64 50 111t132 47q73 0 110 -38t37 -103z" />
    <glyph glyph-name="cedilla" unicode="&#xb8;" 
d="M598 16l-76 -102q40 -20 65 -58.5t25 -91.5q0 -79 -55 -131.5t-139 -52.5q-73 0 -112.5 31t-39.5 78q0 23 8 39l5 2q27 -17 45 -17q30 0 45.5 23t15.5 57q0 66 -55 105l55 118h213z" />
    <glyph glyph-name="onesuperior" unicode="&#xb9;" horiz-adv-x="573" 
d="M584 1008h-226l103 655l-125 -47l22 149l215 115h148z" />
    <glyph glyph-name="ordmasculine" unicode="&#xba;" horiz-adv-x="618" 
d="M723 1061q-30 -187 -274 -187q-113 0 -166.5 46t-53.5 120q0 10 1 22.5t4.5 34.5t7 44.5t10.5 69.5t14 92q12 84 77.5 136t201.5 52q112 0 165.5 -45.5t53.5 -118.5q0 -28 -41 -266zM463 1300q-39 -247 -39 -264q0 -47 43 -47q48 0 61 76q39 247 39 264q0 47 -39 47
q-29 0 -44 -19t-21 -57z" />
    <glyph glyph-name="guillemotright" unicode="&#xbb;" horiz-adv-x="845" 
d="M289 113h-209l194 426l-65 385h209l100 -406zM635 113h-209l195 426l-66 385h209l100 -406z" />
    <glyph glyph-name="onequarter" unicode="&#xbc;" horiz-adv-x="1122" 
d="M1038 0h-215l25 162h-234l19 112l373 598h170l-89 -557h54l-25 -153h-53zM872 315l23 150h-6l-90 -150h73zM522 610h-225l102 656l-125 -47l23 149l215 115h147zM401 -12h-141l752 1503h147z" />
    <glyph glyph-name="onehalf" unicode="&#xbd;" horiz-adv-x="1228" 
d="M522 610h-225l102 656l-125 -47l23 149l215 115h147zM401 -12h-141l752 1503h147zM1182 0h-486l21 141l248 310q35 46 56 78.5t40.5 83t19.5 98.5q0 30 -20 30q-25 0 -31 -47l-16 -102h-209l14 106q12 91 76 140t176 49q106 0 163.5 -50t57.5 -137q0 -129 -114 -270
l-224 -268h252z" />
    <glyph glyph-name="threequarters" unicode="&#xbe;" horiz-adv-x="1177" 
d="M1094 0h-215l24 162h-233l18 112l373 598h170l-88 -557h53l-25 -153h-53zM928 315l22 150h-6l-90 -150h74zM426 1047h-68l25 153h63q39 0 55.5 12.5t22.5 53.5q19 126 19 129q0 22 -17 22q-21 0 -28 -51l-11 -72h-219l11 72q13 92 83.5 142.5t186.5 50.5q100 0 153.5 -50
t53.5 -139q0 -26 -8 -76q-14 -77 -45 -112t-103 -52v-2q96 -22 96 -147q0 -53 -10 -111q-35 -215 -278 -215q-103 0 -159 47.5t-56 118.5t42.5 113.5t118.5 42.5q35 0 63.5 -15t35.5 -38q-52 -35 -52 -88q0 -19 7.5 -30t19.5 -11q25 0 35 61q20 120 20 139q0 27 -12 39.5
t-45 12.5zM457 -12h-142l752 1503h147z" />
    <glyph glyph-name="questiondown" unicode="&#xbf;" horiz-adv-x="768" 
d="M356 768h242l-29 -184q-10 -63 -41 -130.5t-67 -124.5t-71 -116t-58 -128t-23 -138q0 -34 11 -56t30 -22q34 0 54.5 27.5t27 60.5t6.5 74q0 31 -5.5 64t-10.5 50l-6 17l10 6q55 18 113 18q78 0 128 -53t50 -143q0 -99 -54 -172.5t-140.5 -109.5t-190.5 -36
q-158 0 -244 77t-86 198q0 74 29.5 143.5t74 126t90 112.5t84 126.5t50.5 144.5zM375 989q0 63 45.5 104.5t111.5 41.5q59 0 92 -33.5t33 -81.5q0 -67 -45 -107.5t-110 -40.5q-56 0 -91.5 34t-35.5 83z" />
    <glyph glyph-name="Agrave" unicode="&#xc0;" horiz-adv-x="1052" 
d="M1022 0h-322q-8 181 -10 281h-229l-88 -281h-338l530 1438h353zM522 485h164l-6 484h-8zM903 1536h-205l-137 297h248z" />
    <glyph glyph-name="Aacute" unicode="&#xc1;" horiz-adv-x="1052" 
d="M1022 0h-322q-8 181 -10 281h-229l-88 -281h-338l530 1438h353zM522 485h164l-6 484h-8zM834 1536h-205l147 297h268z" />
    <glyph glyph-name="Acircumflex" unicode="&#xc2;" horiz-adv-x="1052" 
d="M1022 0h-322q-8 181 -10 281h-229l-88 -281h-338l530 1438h353zM522 485h164l-6 484h-8zM1071 1513l-285 107l-329 -107l28 187l320 131h8l283 -152z" />
    <glyph glyph-name="Atilde" unicode="&#xc3;" horiz-adv-x="1052" 
d="M1022 0h-322q-8 181 -10 281h-229l-88 -281h-338l530 1438h353zM522 485h164l-6 484h-8zM981 1792h90q-5 -122 -57.5 -193t-143.5 -71q-63 0 -146 27.5t-112 27.5q-55 0 -75 -67h-91q6 124 58.5 194t142.5 70q63 0 150 -28t118 -28q29 0 42 14.5t24 53.5z" />
    <glyph glyph-name="Adieresis" unicode="&#xc4;" horiz-adv-x="1052" 
d="M1022 0h-322q-8 181 -10 281h-229l-88 -281h-338l530 1438h353zM522 485h164l-6 484h-8zM721 1692q0 -63 -46 -109.5t-116 -46.5q-57 0 -90 35t-33 92q0 63 46 108.5t114 45.5q59 0 92 -33.5t33 -91.5zM1145 1692q0 -63 -46 -109.5t-116 -46.5q-57 0 -90 35t-33 92
q0 63 46 108.5t114 45.5q59 0 92 -33.5t33 -91.5z" />
    <glyph glyph-name="Aring" unicode="&#xc5;" horiz-adv-x="1052" 
d="M1022 0h-322q-8 181 -10 281h-229l-88 -281h-338l543 1438q-23 44 -23 96q0 94 68.5 155.5t154.5 61.5q87 0 137 -48.5t50 -135.5q0 -77 -47 -137zM522 485h164l-6 484h-8zM745 1460q45 0 73 31t28 70q0 79 -76 79q-40 0 -68 -29.5t-28 -70.5q0 -37 18 -58.5t53 -21.5z
" />
    <glyph glyph-name="AE" unicode="&#xc6;" horiz-adv-x="1392" 
d="M717 506l47 463h-8l-197 -463h158zM1262 367h8q66 -5 101.5 -43t35.5 -105q0 -100 -95 -167.5t-263 -67.5q-174 0 -263.5 76t-89.5 212v29h-223l-127 -301h-336l664 1438h868l-41 -256h-403l-29 -318h358l-36 -237h-340l-27 -303q0 -55 17.5 -75t52.5 -20q48 0 97 41
t71 97z" />
    <glyph glyph-name="Ccedilla" unicode="&#xc7;" horiz-adv-x="901" 
d="M543 -14l-51 -72q40 -20 65 -58.5t25 -91.5q0 -78 -55.5 -131t-139.5 -53q-73 0 -112 31t-39 78q0 23 8 39l4 2q27 -17 45 -17q30 0 45.5 23t15.5 57q0 66 -55 105l49 104q-111 32 -165 113.5t-54 195.5q0 79 111 742q12 73 30 128.5t53 108t84 86t124.5 54t173.5 20.5
q158 0 241.5 -71.5t83.5 -192.5q0 -69 -31 -221h-313q3 18 11.5 64.5t12 71.5t3.5 44q0 59 -47 59q-38 0 -59.5 -39t-39.5 -149q-13 -79 -28 -172.5t-23.5 -148.5t-18.5 -117t-15.5 -97.5t-10 -69.5t-6.5 -53t-2 -30q0 -53 14.5 -76t48.5 -23q57 0 91.5 61.5t60.5 192.5h8
q109 0 167 -39.5t58 -134.5q0 -137 -93 -225t-275 -98z" />
    <glyph glyph-name="Egrave" unicode="&#xc8;" horiz-adv-x="819" 
d="M686 367h8q66 -5 101.5 -43t35.5 -105q0 -100 -95 -167.5t-263 -67.5q-174 0 -263 76t-89 212q0 26 7 83t47.5 315t123.5 768h678l-41 -256h-342l-51 -318h319l-37 -237h-319q-47 -283 -47 -324q0 -74 67 -74q48 0 92.5 40.5t67.5 97.5zM758 1536h-205l-137 297h248z" />
    <glyph glyph-name="Eacute" unicode="&#xc9;" horiz-adv-x="819" 
d="M686 367h8q66 -5 101.5 -43t35.5 -105q0 -100 -95 -167.5t-263 -67.5q-174 0 -263 76t-89 212q0 26 7 83t47.5 315t123.5 768h678l-41 -256h-342l-51 -318h319l-37 -237h-319q-47 -283 -47 -324q0 -74 67 -74q48 0 92.5 40.5t67.5 97.5zM752 1536h-205l147 297h269z" />
    <glyph glyph-name="Ecircumflex" unicode="&#xca;" horiz-adv-x="819" 
d="M686 367h8q66 -5 101.5 -43t35.5 -105q0 -100 -95 -167.5t-263 -67.5q-174 0 -263 76t-89 212q0 26 7 83t47.5 315t123.5 768h678l-41 -256h-342l-51 -318h319l-37 -237h-319q-47 -283 -47 -324q0 -74 67 -74q48 0 92.5 40.5t67.5 97.5zM956 1516l-284 106l-330 -106
l29 186l319 131h8l283 -152z" />
    <glyph glyph-name="Edieresis" unicode="&#xcb;" horiz-adv-x="819" 
d="M686 367h8q66 -5 101.5 -43t35.5 -105q0 -100 -95 -167.5t-263 -67.5q-174 0 -263 76t-89 212q0 26 7 83t47.5 315t123.5 768h678l-41 -256h-342l-51 -318h319l-37 -237h-319q-47 -283 -47 -324q0 -74 67 -74q48 0 92.5 40.5t67.5 97.5zM606 1692q0 -63 -46 -109.5
t-116 -46.5q-57 0 -89.5 35t-32.5 92q0 63 45.5 108.5t113.5 45.5q59 0 92 -33.5t33 -91.5zM1030 1692q0 -63 -46 -109.5t-116 -46.5q-57 0 -90 35t-33 92q0 63 46 108.5t114 45.5q59 0 92 -33.5t33 -91.5z" />
    <glyph glyph-name="Igrave" unicode="&#xcc;" horiz-adv-x="499" 
d="M418 0h-336l227 1438h336zM621 1536h-205l-137 297h247z" />
    <glyph glyph-name="Iacute" unicode="&#xcd;" horiz-adv-x="499" 
d="M418 0h-336l227 1438h336zM557 1536h-205l148 297h268z" />
    <glyph glyph-name="Icircumflex" unicode="&#xce;" horiz-adv-x="499" 
d="M418 0h-336l227 1438h336zM797 1516l-285 106l-330 -106l29 186l319 131h9l282 -152z" />
    <glyph glyph-name="Idieresis" unicode="&#xcf;" horiz-adv-x="499" 
d="M418 0h-336l227 1438h336zM451 1692q0 -63 -46 -109.5t-116 -46.5q-57 0 -90 35t-33 92q0 63 46 108.5t114 45.5q59 0 92 -33.5t33 -91.5zM874 1692q0 -63 -45.5 -109.5t-115.5 -46.5q-57 0 -90 35t-33 92q0 63 46 108.5t114 45.5q59 0 91.5 -33.5t32.5 -91.5z" />
    <glyph glyph-name="Eth" unicode="&#xd0;" horiz-adv-x="1003" 
d="M453 0h-340l98 618h-115l27 164h113l104 656h287q465 0 465 -396q0 -69 -70 -532q-8 -53 -12 -82q-33 -224 -168 -326t-389 -102zM487 246h21q138 0 166 182q9 56 20.5 127.5t17.5 111t14.5 90.5t12.5 78t9 61.5t7.5 53t4.5 39.5t3 34.5t1 25.5q0 68 -31 100.5t-98 32.5
l-64 -400h93l-27 -164h-92z" />
    <glyph glyph-name="Ntilde" unicode="&#xd1;" horiz-adv-x="1003" 
d="M926 0h-240l-176 768l-121 -768h-311l227 1438h285l143 -594l94 594h326zM969 1790h90q-5 -122 -57.5 -193t-143.5 -71q-63 0 -146 27.5t-112 27.5q-56 0 -76 -68h-90q6 124 58.5 194.5t142.5 70.5q63 0 150 -28t118 -28q29 0 42 14.5t24 53.5z" />
    <glyph glyph-name="Ograve" unicode="&#xd2;" horiz-adv-x="1003" 
d="M721 1450q99 0 173.5 -28t117.5 -77t63.5 -108t20.5 -129q0 -24 -2 -53.5t-7.5 -73t-11 -82t-16.5 -107t-19.5 -120t-24.5 -149.5t-28 -169q-31 -194 -143 -282t-334 -88q-192 0 -284.5 88t-92.5 243q0 18 2 43.5t8 69t11.5 81t17 110t19.5 124t25 154.5t28 172
q61 381 477 381zM537 229q41 0 73.5 34t42.5 99q18 114 40 250.5t32.5 200.5t21 133t14 103t3.5 55q0 100 -72 100q-97 0 -119 -139q-19 -116 -40 -243.5t-32 -195t-21.5 -134t-14.5 -104t-4 -62.5q0 -97 76 -97zM864 1536h-205l-137 297h248z" />
    <glyph glyph-name="Oacute" unicode="&#xd3;" horiz-adv-x="1003" 
d="M721 1450q99 0 173.5 -28t117.5 -77t63.5 -108t20.5 -129q0 -24 -2 -53.5t-7.5 -73t-11 -82t-16.5 -107t-19.5 -120t-24.5 -149.5t-28 -169q-31 -194 -143 -282t-334 -88q-192 0 -284.5 88t-92.5 243q0 18 2 43.5t8 69t11.5 81t17 110t19.5 124t25 154.5t28 172
q61 381 477 381zM537 229q41 0 73.5 34t42.5 99q18 114 40 250.5t32.5 200.5t21 133t14 103t3.5 55q0 100 -72 100q-97 0 -119 -139q-19 -116 -40 -243.5t-32 -195t-21.5 -134t-14.5 -104t-4 -62.5q0 -97 76 -97zM831 1536h-204l147 297h268z" />
    <glyph glyph-name="Ocircumflex" unicode="&#xd4;" horiz-adv-x="1003" 
d="M721 1450q99 0 173.5 -28t117.5 -77t63.5 -108t20.5 -129q0 -24 -2 -53.5t-7.5 -73t-11 -82t-16.5 -107t-19.5 -120t-24.5 -149.5t-28 -169q-31 -194 -143 -282t-334 -88q-192 0 -284.5 88t-92.5 243q0 18 2 43.5t8 69t11.5 81t17 110t19.5 124t25 154.5t28 172
q61 381 477 381zM537 229q41 0 73.5 34t42.5 99q18 114 40 250.5t32.5 200.5t21 133t14 103t3.5 55q0 100 -72 100q-97 0 -119 -139q-19 -116 -40 -243.5t-32 -195t-21.5 -134t-14.5 -104t-4 -62.5q0 -97 76 -97zM1049 1536l-285 106l-330 -106l29 186l319 131h9l282 -151z
" />
    <glyph glyph-name="Otilde" unicode="&#xd5;" horiz-adv-x="1003" 
d="M721 1450q99 0 173.5 -28t117.5 -77t63.5 -108t20.5 -129q0 -24 -2 -53.5t-7.5 -73t-11 -82t-16.5 -107t-19.5 -120t-24.5 -149.5t-28 -169q-31 -194 -143 -282t-334 -88q-192 0 -284.5 88t-92.5 243q0 18 2 43.5t8 69t11.5 81t17 110t19.5 124t25 154.5t28 172
q61 381 477 381zM537 229q41 0 73.5 34t42.5 99q18 114 40 250.5t32.5 200.5t21 133t14 103t3.5 55q0 100 -72 100q-97 0 -119 -139q-19 -116 -40 -243.5t-32 -195t-21.5 -134t-14.5 -104t-4 -62.5q0 -97 76 -97zM983 1790h90q-5 -122 -57.5 -193t-143.5 -71
q-63 0 -146 27.5t-112 27.5q-55 0 -75 -68h-90q6 124 58 194.5t142 70.5q63 0 150.5 -28t118.5 -28q28 0 41 14t24 54z" />
    <glyph glyph-name="Odieresis" unicode="&#xd6;" horiz-adv-x="1003" 
d="M721 1450q99 0 173.5 -28t117.5 -77t63.5 -108t20.5 -129q0 -24 -2 -53.5t-7.5 -73t-11 -82t-16.5 -107t-19.5 -120t-24.5 -149.5t-28 -169q-31 -194 -143 -282t-334 -88q-192 0 -284.5 88t-92.5 243q0 18 2 43.5t8 69t11.5 81t17 110t19.5 124t25 154.5t28 172
q61 381 477 381zM537 229q41 0 73.5 34t42.5 99q18 114 40 250.5t32.5 200.5t21 133t14 103t3.5 55q0 100 -72 100q-97 0 -119 -139q-19 -116 -40 -243.5t-32 -195t-21.5 -134t-14.5 -104t-4 -62.5q0 -97 76 -97zM696 1692q0 -63 -45.5 -109.5t-115.5 -46.5q-57 0 -90 35
t-33 92q0 63 45.5 108.5t113.5 45.5q59 0 92 -33.5t33 -91.5zM1120 1692q0 -63 -46 -109.5t-116 -46.5q-57 0 -89.5 35t-32.5 92q0 63 45.5 108.5t113.5 45.5q59 0 92 -33.5t33 -91.5z" />
    <glyph glyph-name="multiply" unicode="&#xd7;" horiz-adv-x="1269" 
d="M1133 170l-144 -123l-284 342l-400 -346l-119 139l402 344l-289 340l143 123l285 -342l399 346l119 -139l-399 -344z" />
    <glyph glyph-name="Oslash" unicode="&#xd8;" horiz-adv-x="1003" 
d="M203 -70h-107l101 172q-64 82 -64 213q0 18 2 43.5t8 69t11.5 81t17 110t19.5 124t25 154.5t28 172q61 381 477 381q148 0 237 -61l84 143h111l-123 -209q66 -87 66 -215q0 -24 -2 -53.5t-7.5 -73t-11 -82t-16.5 -107t-19.5 -120t-24.5 -149.5t-28 -169
q-31 -194 -143 -282t-334 -88q-149 0 -242 55zM498 612l262 443q4 40 4 49q0 100 -72 100q-97 0 -119 -139q-18 -115 -44.5 -270.5t-30.5 -182.5zM725 811l-262 -442q-2 -16 -2 -43q0 -97 76 -97q41 0 73.5 34t42.5 99q71 442 72 449z" />
    <glyph glyph-name="Ugrave" unicode="&#xd9;" horiz-adv-x="1005" 
d="M649 346l174 1092h338l-170 -1071q-62 -379 -479 -379q-104 0 -181.5 26t-121 71t-64 99t-20.5 117q0 14 2 35t8.5 65.5t14 94t23 146.5t31 194.5t42.5 266t53 335.5h336q-23 -141 -45 -278t-36.5 -229t-29 -181t-23.5 -143.5t-17 -105t-12 -78.5t-7.5 -51.5t-4.5 -35
t-1 -19.5q0 -84 80 -84q93 0 110 113zM842 1536h-205l-137 297h248z" />
    <glyph glyph-name="Uacute" unicode="&#xda;" horiz-adv-x="1005" 
d="M649 346l174 1092h338l-170 -1071q-62 -379 -479 -379q-104 0 -181.5 26t-121 71t-64 99t-20.5 117q0 14 2 35t8.5 65.5t14 94t23 146.5t31 194.5t42.5 266t53 335.5h336q-23 -141 -45 -278t-36.5 -229t-29 -181t-23.5 -143.5t-17 -105t-12 -78.5t-7.5 -51.5t-4.5 -35
t-1 -19.5q0 -84 80 -84q93 0 110 113zM846 1536h-205l147 297h269z" />
    <glyph glyph-name="Ucircumflex" unicode="&#xdb;" horiz-adv-x="1005" 
d="M649 346l174 1092h338l-170 -1071q-62 -379 -479 -379q-104 0 -181.5 26t-121 71t-64 99t-20.5 117q0 14 2 35t8.5 65.5t14 94t23 146.5t31 194.5t42.5 266t53 335.5h336q-23 -141 -45 -278t-36.5 -229t-29 -181t-23.5 -143.5t-17 -105t-12 -78.5t-7.5 -51.5t-4.5 -35
t-1 -19.5q0 -84 80 -84q93 0 110 113zM1047 1534l-285 106l-330 -106l29 186l319 131h8l283 -151z" />
    <glyph glyph-name="Udieresis" unicode="&#xdc;" horiz-adv-x="1005" 
d="M649 346l174 1092h338l-170 -1071q-62 -379 -479 -379q-104 0 -181.5 26t-121 71t-64 99t-20.5 117q0 14 2 35t8.5 65.5t14 94t23 146.5t31 194.5t42.5 266t53 335.5h336q-23 -141 -45 -278t-36.5 -229t-29 -181t-23.5 -143.5t-17 -105t-12 -78.5t-7.5 -51.5t-4.5 -35
t-1 -19.5q0 -84 80 -84q93 0 110 113zM692 1683q0 -63 -46 -109t-116 -46q-57 0 -89.5 35t-32.5 92q0 63 45.5 108t113.5 45q59 0 92 -33.5t33 -91.5zM1116 1683q0 -63 -46 -109t-116 -46q-57 0 -90 35t-33 92q0 63 46 108t114 45q59 0 92 -33.5t33 -91.5z" />
    <glyph glyph-name="Yacute" unicode="&#xdd;" horiz-adv-x="968" 
d="M651 0h-336l88 567l-106 615q-5 26 -13 36.5t-26 10.5q-26 0 -47 -25l-6 2q-8 20 -8 43q0 89 51.5 144t146.5 55q111 0 159 -58t54 -196l15 -293h8l207 537h333l-432 -871zM803 1534h-205l147 297h269z" />
    <glyph glyph-name="Thorn" unicode="&#xde;" horiz-adv-x="964" 
d="M408 0h-336l227 1438h336l-37 -226q213 -12 331 -116t118 -293q0 -235 -114.5 -376.5t-332.5 -141.5q-78 0 -117 26l2 17q73 31 125 107t74.5 163.5t22.5 179.5q0 83 -38 129.5t-112 46.5z" />
    <glyph glyph-name="germandbls" unicode="&#xdf;" horiz-adv-x="1079" 
d="M406 0h-316l174 1106q27 174 150.5 279.5t322.5 105.5q92 0 166 -26t119.5 -70t69.5 -99t24 -116q0 -39 -16 -146q-78 -27 -132.5 -88t-54.5 -141q0 -57 25.5 -119.5t56.5 -110.5t56.5 -113t25.5 -126q0 -158 -89.5 -253t-256.5 -95q-258 0 -258 170q0 46 27.5 92
t72.5 59h9q5 -48 26 -72t66 -24q40 0 64 35t24 90q0 48 -17 98.5t-41 94t-48 86t-41 91.5t-17 95q0 84 52 150.5t138 105.5q15 85 15 112q0 91 -88 91q-62 0 -92 -35t-41 -105z" />
    <glyph glyph-name="agrave" unicode="&#xe0;" horiz-adv-x="880" 
d="M807 0h-315l69 451q-73 -6 -119.5 -61.5t-46.5 -137.5q0 -51 35 -51q26 0 45 26h8q11 -22 11 -47q0 -92 -51 -144t-154 -52q-96 0 -154.5 59.5t-58.5 163.5q0 86 29.5 153.5t77.5 110t115.5 71.5t138 41t149.5 13q26 177 26 182q0 45 -45 45q-22 0 -38.5 -15.5
t-20.5 -45.5l-16 -123h-316l14 115q18 130 122 207t280 77q332 0 332 -266q0 -14 -3 -38t-12 -83.5t-20.5 -130.5t-34.5 -216.5t-47 -303.5zM723 1223h-205l-137 297h248z" />
    <glyph glyph-name="aacute" unicode="&#xe1;" horiz-adv-x="880" 
d="M807 0h-315l69 451q-73 -6 -119.5 -61.5t-46.5 -137.5q0 -51 35 -51q26 0 45 26h8q11 -22 11 -47q0 -92 -51 -144t-154 -52q-96 0 -154.5 59.5t-58.5 163.5q0 86 29.5 153.5t77.5 110t115.5 71.5t138 41t149.5 13q26 177 26 182q0 45 -45 45q-22 0 -38.5 -15.5
t-20.5 -45.5l-16 -123h-316l14 115q18 130 122 207t280 77q332 0 332 -266q0 -14 -3 -38t-12 -83.5t-20.5 -130.5t-34.5 -216.5t-47 -303.5zM774 1223h-205l148 297h268z" />
    <glyph glyph-name="acircumflex" unicode="&#xe2;" horiz-adv-x="880" 
d="M807 0h-315l69 451q-73 -6 -119.5 -61.5t-46.5 -137.5q0 -51 35 -51q26 0 45 26h8q11 -22 11 -47q0 -92 -51 -144t-154 -52q-96 0 -154.5 59.5t-58.5 163.5q0 86 29.5 153.5t77.5 110t115.5 71.5t138 41t149.5 13q26 177 26 182q0 45 -45 45q-22 0 -38.5 -15.5
t-20.5 -45.5l-16 -123h-316l14 115q18 130 122 207t280 77q332 0 332 -266q0 -14 -3 -38t-12 -83.5t-20.5 -130.5t-34.5 -216.5t-47 -303.5zM948 1243l-284 107l-330 -107l28 187l320 131h8l283 -152z" />
    <glyph glyph-name="atilde" unicode="&#xe3;" horiz-adv-x="880" 
d="M807 0h-315l69 451q-73 -6 -119.5 -61.5t-46.5 -137.5q0 -51 35 -51q26 0 45 26h8q11 -22 11 -47q0 -92 -51 -144t-154 -52q-96 0 -154.5 59.5t-58.5 163.5q0 86 29.5 153.5t77.5 110t115.5 71.5t138 41t149.5 13q26 177 26 182q0 45 -45 45q-22 0 -38.5 -15.5
t-20.5 -45.5l-16 -123h-316l14 115q18 130 122 207t280 77q332 0 332 -266q0 -14 -3 -38t-12 -83.5t-20.5 -130.5t-34.5 -216.5t-47 -303.5zM877 1491h90q-5 -122 -57.5 -193t-143.5 -71q-63 0 -146 27.5t-112 27.5q-56 0 -76 -68h-90q6 124 58.5 194.5t142.5 70.5
q63 0 150 -28t118 -28q29 0 42 14.5t24 53.5z" />
    <glyph glyph-name="adieresis" unicode="&#xe4;" horiz-adv-x="880" 
d="M807 0h-315l69 451q-73 -6 -119.5 -61.5t-46.5 -137.5q0 -51 35 -51q26 0 45 26h8q11 -22 11 -47q0 -92 -51 -144t-154 -52q-96 0 -154.5 59.5t-58.5 163.5q0 86 29.5 153.5t77.5 110t115.5 71.5t138 41t149.5 13q26 177 26 182q0 45 -45 45q-22 0 -38.5 -15.5
t-20.5 -45.5l-16 -123h-316l14 115q18 130 122 207t280 77q332 0 332 -266q0 -14 -3 -38t-12 -83.5t-20.5 -130.5t-34.5 -216.5t-47 -303.5zM590 1376q0 -63 -46 -109t-116 -46q-57 0 -90 35t-33 92q0 63 46 108t114 45q59 0 92 -33.5t33 -91.5zM1014 1376q0 -63 -46 -109
t-116 -46q-57 0 -90 35t-33 92q0 63 46 108t114 45q59 0 92 -33.5t33 -91.5z" />
    <glyph glyph-name="aring" unicode="&#xe5;" horiz-adv-x="880" 
d="M807 0h-315l69 451q-73 -6 -119.5 -61.5t-46.5 -137.5q0 -51 35 -51q26 0 45 26h8q11 -22 11 -47q0 -92 -51 -144t-154 -52q-96 0 -154.5 59.5t-58.5 163.5q0 86 29.5 153.5t77.5 110t115.5 71.5t138 41t149.5 13q26 177 26 182q0 45 -45 45q-22 0 -38.5 -15.5
t-20.5 -45.5l-16 -123h-316l14 115q18 130 122 207t280 77q332 0 332 -266q0 -14 -3 -38t-12 -83.5t-20.5 -130.5t-34.5 -216.5t-47 -303.5zM860 1366q0 -95 -64.5 -156t-158.5 -61q-83 0 -134.5 49t-51.5 135q0 94 68.5 155.5t154.5 61.5q87 0 136.5 -48.5t49.5 -135.5z
M641 1260q45 0 72.5 30.5t27.5 69.5q0 80 -75 80q-40 0 -68.5 -30t-28.5 -71q0 -37 18 -58t54 -21z" />
    <glyph glyph-name="ae" unicode="&#xe6;" horiz-adv-x="1280" 
d="M905 741l-28 -182q73 15 114 75.5t41 145.5q0 54 -47 54q-30 0 -51.5 -23.5t-28.5 -69.5zM1247 332l-10 -70q-45 -278 -393 -278q-316 0 -316 217q0 26 35 250q-74 -6 -120 -60.5t-46 -136.5q0 -24 8 -38.5t21 -14.5q25 0 41 32h8q7 -7 14 -27.5t7 -41.5
q0 -77 -50.5 -128.5t-150.5 -51.5q-96 0 -156.5 59.5t-60.5 163.5q0 356 506 364l30 199v12q0 41 -39 41q-20 0 -34 -14t-19 -37l-18 -113h-316l19 111q20 122 117 195t266 73q71 0 131.5 -19.5t85.5 -55.5q30 35 98.5 55t132.5 20q139 0 219 -67.5t80 -188.5
q0 -96 -38 -166t-106.5 -110t-152.5 -59t-188 -21q-27 -175 -27 -190q0 -48 47 -48q49 0 60 70l12 74h303z" />
    <glyph glyph-name="ccedilla" unicode="&#xe7;" horiz-adv-x="860" 
d="M541 -10l-56 -76q40 -20 65 -58.5t25 -91.5q0 -79 -55 -131.5t-139 -52.5q-73 0 -112.5 31t-39.5 78q0 21 9 39l4 2q27 -17 45 -17q30 0 45.5 23t15.5 57q0 66 -55 105l45 100q-108 27 -159.5 103.5t-51.5 189.5q0 38 5 88t11 88.5t17.5 106.5t17.5 106q14 86 45.5 150.5
t73 103.5t97 63t110 32.5t119.5 8.5q140 0 219.5 -64.5t79.5 -170.5q0 -51 -29 -185h-301q4 26 11 64t11 64t4 42q0 35 -34 35q-16 0 -26.5 -4.5t-23.5 -18t-23 -45t-17 -79.5q-56 -358 -56 -383q0 -84 62 -84q50 0 87 53t50 144l6 4q28 8 51 8q72 0 116 -44.5t44 -113.5
q0 -102 -87 -177.5t-226 -92.5z" />
    <glyph glyph-name="egrave" unicode="&#xe8;" horiz-adv-x="878" 
d="M848 338l-10 -76q-18 -134 -112 -206t-286 -72q-156 0 -239.5 63.5t-83.5 185.5q0 15 1 31.5t4.5 44.5t7 50t11 70l12.5 80t17 104.5t20 121.5q25 141 127 222t287 81q165 0 247.5 -74t82.5 -192q0 -78 -25.5 -139t-69 -101.5t-106 -67.5t-131 -40t-149.5 -16
q-27 -168 -27 -181q0 -39 43 -39q54 0 63 60l15 90h301zM506 741l-37 -227q79 18 120.5 91t41.5 163q0 66 -49 66q-61 0 -76 -93zM719 1223h-205l-137 297h248z" />
    <glyph glyph-name="eacute" unicode="&#xe9;" horiz-adv-x="878" 
d="M848 338l-10 -76q-18 -134 -112 -206t-286 -72q-156 0 -239.5 63.5t-83.5 185.5q0 15 1 31.5t4.5 44.5t7 50t11 70l12.5 80t17 104.5t20 121.5q25 141 127 222t287 81q165 0 247.5 -74t82.5 -192q0 -78 -25.5 -139t-69 -101.5t-106 -67.5t-131 -40t-149.5 -16
q-27 -168 -27 -181q0 -39 43 -39q54 0 63 60l15 90h301zM506 741l-37 -227q79 18 120.5 91t41.5 163q0 66 -49 66q-61 0 -76 -93zM745 1223h-204l147 297h268z" />
    <glyph glyph-name="ecircumflex" unicode="&#xea;" horiz-adv-x="878" 
d="M848 338l-10 -76q-18 -134 -112 -206t-286 -72q-156 0 -239.5 63.5t-83.5 185.5q0 15 1 31.5t4.5 44.5t7 50t11 70l12.5 80t17 104.5t20 121.5q25 141 127 222t287 81q165 0 247.5 -74t82.5 -192q0 -78 -25.5 -139t-69 -101.5t-106 -67.5t-131 -40t-149.5 -16
q-27 -168 -27 -181q0 -39 43 -39q54 0 63 60l15 90h301zM506 741l-37 -227q79 18 120.5 91t41.5 163q0 66 -49 66q-61 0 -76 -93zM954 1243l-284 107l-330 -107l29 187l319 131h8l283 -152z" />
    <glyph glyph-name="edieresis" unicode="&#xeb;" horiz-adv-x="878" 
d="M848 338l-10 -76q-18 -134 -112 -206t-286 -72q-156 0 -239.5 63.5t-83.5 185.5q0 15 1 31.5t4.5 44.5t7 50t11 70l12.5 80t17 104.5t20 121.5q25 141 127 222t287 81q165 0 247.5 -74t82.5 -192q0 -78 -25.5 -139t-69 -101.5t-106 -67.5t-131 -40t-149.5 -16
q-27 -168 -27 -181q0 -39 43 -39q54 0 63 60l15 90h301zM506 741l-37 -227q79 18 120.5 91t41.5 163q0 66 -49 66q-61 0 -76 -93zM598 1376q0 -63 -46 -109t-116 -46q-57 0 -90 35t-33 92q0 63 46 108t114 45q59 0 92 -33.5t33 -91.5zM1022 1376q0 -63 -46 -109t-116 -46
q-57 0 -90 35t-33 92q0 63 46 108t114 45q59 0 92 -33.5t33 -91.5z" />
    <glyph glyph-name="igrave" unicode="&#xec;" horiz-adv-x="466" 
d="M389 0h-311l162 1028h311zM510 1223h-205l-137 297h248z" />
    <glyph glyph-name="iacute" unicode="&#xed;" horiz-adv-x="466" 
d="M389 0h-311l162 1028h311zM498 1223h-205l147 297h269z" />
    <glyph glyph-name="icircumflex" unicode="&#xee;" horiz-adv-x="466" 
d="M389 0h-311l162 1028h311zM713 1243l-285 107l-330 -107l29 187l319 131h9l282 -152z" />
    <glyph glyph-name="idieresis" unicode="&#xef;" horiz-adv-x="466" 
d="M389 0h-311l162 1028h311zM381 1376q0 -63 -46 -109t-116 -46q-57 0 -90 35t-33 92q0 63 46 108t114 45q59 0 92 -33.5t33 -91.5zM805 1376q0 -63 -46 -109t-116 -46q-57 0 -90 35t-33 92q0 63 46 108t114 45q59 0 92 -33.5t33 -91.5z" />
    <glyph glyph-name="eth" unicode="&#xf0;" horiz-adv-x="929" 
d="M549 248l84 528q2 10 2 27q0 61 -49 61q-30 0 -48.5 -22t-27.5 -76q-84 -477 -84 -541q0 -31 13 -48t36 -17q60 0 74 88zM954 815l-86 -534q-23 -139 -123.5 -218t-289.5 -79q-163 0 -249.5 63.5t-86.5 179.5q0 74 76 549q21 130 109.5 197t230.5 67q76 0 129 -28.5
t61 -71.5h4q2 10 2 37q0 58 -28 127t-62 100l-172 -71l-53 106l164 64q-43 56 -111 94l240 94q76 -34 129 -90l159 63l50 -104l-154 -57q34 -35 57 -107t23 -154q0 -97 -19 -227z" />
    <glyph glyph-name="ntilde" unicode="&#xf1;" horiz-adv-x="921" 
d="M963 115l-2 -21q-63 -104 -205 -104q-100 0 -147.5 49t-47.5 135q0 77 43 306.5t43 279.5q0 22 -13.5 36.5t-39.5 14.5q-74 0 -86 -76l-115 -735h-315l162 1028h301l-27 -168h8q27 79 100.5 128.5t159.5 49.5q94 0 142.5 -48t48.5 -138q0 -67 -47 -344.5t-47 -319.5
q0 -48 19 -60.5t65 -12.5zM895 1532h90q-5 -122 -57.5 -193t-143.5 -71q-63 0 -146 27.5t-112 27.5q-55 0 -75 -68h-91q6 124 58.5 194.5t142.5 70.5q63 0 150 -28t118 -28q29 0 42 14.5t24 53.5z" />
    <glyph glyph-name="ograve" unicode="&#xf2;" horiz-adv-x="899" 
d="M481 199q31 0 49 17.5t25 62.5q74 422 74 483t-51 61q-58 0 -72 -78q-74 -439 -74 -487q0 -59 49 -59zM868 279q-22 -142 -125 -218.5t-284 -76.5q-162 0 -249 78t-87 206q0 64 67 475q23 139 133 217t289 78q156 0 241 -79.5t85 -202.5q0 -51 -70 -477zM731 1223h-205
l-137 297h248z" />
    <glyph glyph-name="oacute" unicode="&#xf3;" horiz-adv-x="899" 
d="M481 199q31 0 49 17.5t25 62.5q74 422 74 483t-51 61q-58 0 -72 -78q-74 -439 -74 -487q0 -59 49 -59zM868 279q-22 -142 -125 -218.5t-284 -76.5q-162 0 -249 78t-87 206q0 64 67 475q23 139 133 217t289 78q156 0 241 -79.5t85 -202.5q0 -51 -70 -477zM750 1223h-205
l147 297h269z" />
    <glyph glyph-name="ocircumflex" unicode="&#xf4;" horiz-adv-x="899" 
d="M481 199q31 0 49 17.5t25 62.5q74 422 74 483t-51 61q-58 0 -72 -78q-74 -439 -74 -487q0 -59 49 -59zM868 279q-22 -142 -125 -218.5t-284 -76.5q-162 0 -249 78t-87 206q0 64 67 475q23 139 133 217t289 78q156 0 241 -79.5t85 -202.5q0 -51 -70 -477zM954 1243
l-284 107l-330 -107l29 187l319 131h8l283 -152z" />
    <glyph glyph-name="otilde" unicode="&#xf5;" horiz-adv-x="899" 
d="M481 199q31 0 49 17.5t25 62.5q74 422 74 483t-51 61q-58 0 -72 -78q-74 -439 -74 -487q0 -59 49 -59zM868 279q-22 -142 -125 -218.5t-284 -76.5q-162 0 -249 78t-87 206q0 64 67 475q23 139 133 217t289 78q156 0 241 -79.5t85 -202.5q0 -51 -70 -477zM895 1532h90
q-5 -122 -57.5 -193t-143.5 -71q-63 0 -146 27.5t-112 27.5q-55 0 -75 -68h-91q6 124 58.5 194.5t142.5 70.5q63 0 150 -28t118 -28q29 0 42 14.5t24 53.5z" />
    <glyph glyph-name="odieresis" unicode="&#xf6;" horiz-adv-x="899" 
d="M481 199q31 0 49 17.5t25 62.5q74 422 74 483t-51 61q-58 0 -72 -78q-74 -439 -74 -487q0 -59 49 -59zM868 279q-22 -142 -125 -218.5t-284 -76.5q-162 0 -249 78t-87 206q0 64 67 475q23 139 133 217t289 78q156 0 241 -79.5t85 -202.5q0 -51 -70 -477zM598 1376
q0 -63 -46 -109t-116 -46q-57 0 -90 35t-33 92q0 63 46 108t114 45q59 0 92 -33.5t33 -91.5zM1022 1376q0 -63 -46 -109t-116 -46q-57 0 -90 35t-33 92q0 63 46 108t114 45q59 0 92 -33.5t33 -91.5z" />
    <glyph glyph-name="divide" unicode="&#xf7;" horiz-adv-x="1269" 
d="M1223 442h-1037l23 152h1036zM637 0q-46 0 -74 28t-28 72q0 55 36 92t95 37q47 0 74.5 -27.5t27.5 -70.5q0 -57 -35 -94t-96 -37zM766 807q-46 0 -74 28t-28 72q0 55 36 92t95 37q47 0 74.5 -27.5t27.5 -70.5q0 -57 -35 -94t-96 -37z" />
    <glyph glyph-name="oslash" unicode="&#xf8;" horiz-adv-x="899" 
d="M264 -70h-86l60 111q-115 77 -115 227q0 64 67 475q23 139 133 217t289 78q84 0 146 -24l51 94h90l-70 -131q109 -77 109 -221q0 -51 -70 -477q-22 -142 -125 -218.5t-284 -76.5q-86 0 -154 22zM457 451l172 319q-3 53 -51 53q-58 0 -72 -78zM602 557l-170 -315
q6 -43 49 -43q31 0 49 17.5t25 62.5q23 129 47 278z" />
    <glyph glyph-name="ugrave" unicode="&#xf9;" horiz-adv-x="901" 
d="M823 0h-305l23 152h-4q-63 -168 -234 -168q-90 0 -140 54t-50 159q0 52 86 586q24 153 39 245h315q-115 -713 -118 -752q-1 -10 -1 -16q0 -51 43 -51q28 0 49 21.5t27 58.5l117 739h315zM725 1223h-205l-137 297h248z" />
    <glyph glyph-name="uacute" unicode="&#xfa;" horiz-adv-x="901" 
d="M823 0h-305l23 152h-4q-63 -168 -234 -168q-90 0 -140 54t-50 159q0 52 86 586q24 153 39 245h315q-115 -713 -118 -752q-1 -10 -1 -16q0 -51 43 -51q28 0 49 21.5t27 58.5l117 739h315zM750 1223h-205l147 297h269z" />
    <glyph glyph-name="ucircumflex" unicode="&#xfb;" horiz-adv-x="901" 
d="M823 0h-305l23 152h-4q-63 -168 -234 -168q-90 0 -140 54t-50 159q0 52 86 586q24 153 39 245h315q-115 -713 -118 -752q-1 -10 -1 -16q0 -51 43 -51q28 0 49 21.5t27 58.5l117 739h315zM954 1243l-284 107l-330 -107l29 187l319 131h8l283 -152z" />
    <glyph glyph-name="udieresis" unicode="&#xfc;" horiz-adv-x="901" 
d="M823 0h-305l23 152h-4q-63 -168 -234 -168q-90 0 -140 54t-50 159q0 52 86 586q24 153 39 245h315q-115 -713 -118 -752q-1 -10 -1 -16q0 -51 43 -51q28 0 49 21.5t27 58.5l117 739h315zM596 1376q0 -63 -46 -109t-116 -46q-57 0 -90 35t-33 92q0 63 46 108t114 45
q59 0 92 -33.5t33 -91.5zM1020 1376q0 -63 -46 -109t-116 -46q-57 0 -90 35t-33 92q0 63 46 108t114 45q59 0 92 -33.5t33 -91.5z" />
    <glyph glyph-name="yacute" unicode="&#xfd;" horiz-adv-x="962" 
d="M569 -373h-299l162 404q-96 15 -137 81.5t-43 202.5q-6 371 -8 467q0 35 -31 35q-26 0 -53 -39h-17q0 130 67 195t163 65q86 0 138 -43t52 -137q0 -115 -14 -295.5t-14 -218.5q0 -29 18 -29l231 713h310zM780 1223h-205l148 297h268z" />
    <glyph glyph-name="thorn" unicode="&#xfe;" horiz-adv-x="921" 
d="M338 -338h-315l288 1817h316l-99 -619h2q28 79 99.5 128.5t156.5 49.5q222 0 181 -258l-84 -530q-42 -260 -328 -260q-70 0 -125 30l4 21q49 12 82.5 57t50.5 150l78 497q5 27 -8 46.5t-43 19.5q-33 0 -56.5 -20t-29.5 -56z" />
    <glyph glyph-name="ydieresis" unicode="&#xff;" horiz-adv-x="962" 
d="M569 -373h-299l162 404q-96 15 -137 81.5t-43 202.5q-6 371 -8 467q0 35 -31 35q-26 0 -53 -39h-17q0 130 67 195t163 65q86 0 138 -43t52 -137q0 -115 -14 -295.5t-14 -218.5q0 -29 18 -29l231 713h310zM647 1376q0 -63 -46 -109t-116 -46q-57 0 -90 35t-33 92
q0 63 46 108t114 45q59 0 92 -33.5t33 -91.5zM1071 1376q0 -63 -46 -109t-116 -46q-57 0 -90 35t-33 92q0 63 46 108t114 45q59 0 92 -33.5t33 -91.5z" />
    <glyph glyph-name="Amacron" unicode="&#x100;" horiz-adv-x="1052" 
d="M1022 0h-322q-8 181 -10 281h-229l-88 -281h-338l530 1438h353zM522 485h164l-6 484h-8zM1040 1556h-540l30 193h541z" />
    <glyph glyph-name="amacron" unicode="&#x101;" horiz-adv-x="880" 
d="M807 0h-315l69 451q-73 -6 -119.5 -61.5t-46.5 -137.5q0 -51 35 -51q26 0 45 26h8q11 -22 11 -47q0 -92 -51 -144t-154 -52q-96 0 -154.5 59.5t-58.5 163.5q0 86 29.5 153.5t77.5 110t115.5 71.5t138 41t149.5 13q26 177 26 182q0 45 -45 45q-22 0 -38.5 -15.5
t-20.5 -45.5l-16 -123h-316l14 115q18 130 122 207t280 77q332 0 332 -266q0 -14 -3 -38t-12 -83.5t-20.5 -130.5t-34.5 -216.5t-47 -303.5zM913 1255h-540l30 193h541z" />
    <glyph glyph-name="Abreve" unicode="&#x102;" horiz-adv-x="1052" 
d="M1022 0h-322q-8 181 -10 281h-229l-88 -281h-338l530 1438h353zM522 485h164l-6 484h-8zM952 1804h187q-11 -129 -108.5 -210t-250.5 -81q-137 0 -219 66.5t-82 173.5q0 15 4 51h181q0 -63 28.5 -89.5t100.5 -26.5q74 0 110 28.5t49 87.5z" />
    <glyph glyph-name="abreve" unicode="&#x103;" horiz-adv-x="880" 
d="M807 0h-315l69 451q-73 -6 -119.5 -61.5t-46.5 -137.5q0 -51 35 -51q26 0 45 26h8q11 -22 11 -47q0 -92 -51 -144t-154 -52q-96 0 -154.5 59.5t-58.5 163.5q0 86 29.5 153.5t77.5 110t115.5 71.5t138 41t149.5 13q26 177 26 182q0 45 -45 45q-22 0 -38.5 -15.5
t-20.5 -45.5l-16 -123h-316l14 115q18 130 122 207t280 77q332 0 332 -266q0 -14 -3 -38t-12 -83.5t-20.5 -130.5t-34.5 -216.5t-47 -303.5zM825 1516h187q-11 -129 -108.5 -210t-250.5 -81q-137 0 -219 66t-82 173q0 16 4 52h181q0 -63 28.5 -90t100.5 -27q74 0 110 28.5
t49 88.5z" />
    <glyph glyph-name="Aogonek" unicode="&#x104;" horiz-adv-x="1052" 
d="M911 -215l19 -12q-21 -87 -85 -139t-167 -52q-91 0 -135.5 41.5t-44.5 106.5q0 185 262 270q-32 9 -47.5 31.5t-16.5 70.5q-4 99 -6 179h-229l-88 -281h-338l530 1438h353l104 -1438q-63 -8 -126 -31.5t-112 -68.5t-49 -99q0 -59 58 -59q69 0 118 43zM522 485h164l-6 484
h-8z" />
    <glyph glyph-name="aogonek" unicode="&#x105;" horiz-adv-x="880" 
d="M782 -215l19 -12q-21 -86 -87.5 -138.5t-166.5 -52.5q-85 0 -132.5 40.5t-47.5 103.5q0 95 63.5 160t169.5 114q-46 19 -66 45.5t-20 69.5q0 11 4 47l45 289q-73 -6 -119.5 -61.5t-46.5 -137.5q0 -51 35 -51q26 0 45 26h8q11 -22 11 -47q0 -92 -51 -144t-154 -52
q-96 0 -154.5 59.5t-58.5 163.5q0 86 29.5 153.5t77.5 110t115.5 71.5t138 41t149.5 13q26 177 26 182q0 45 -45 45q-22 0 -38.5 -15.5t-20.5 -45.5l-16 -123h-316l15 115q18 130 122 207t279 77q332 0 332 -266q0 -14 -3 -38.5t-12.5 -83t-21.5 -131t-34.5 -215.5
t-47.5 -304q-33 -16 -63.5 -34t-64 -45t-53.5 -60t-20 -68q0 -26 15 -40.5t41 -14.5q67 0 120 47z" />
    <glyph glyph-name="Cacute" unicode="&#x106;" horiz-adv-x="901" 
d="M678 483h8q109 0 167 -39.5t58 -134.5q0 -146 -105.5 -235.5t-311.5 -89.5q-184 0 -274.5 90t-90.5 237q0 79 111 742q12 73 30 128.5t53 108t84 86t124.5 54t173.5 20.5q158 0 241.5 -71.5t83.5 -192.5q0 -69 -31 -221h-313q3 18 11.5 64.5t12 71.5t3.5 44q0 59 -47 59
q-38 0 -59.5 -39t-39.5 -149q-13 -79 -28 -172.5t-23.5 -148.5t-18.5 -117t-15.5 -97.5t-10 -69.5t-6.5 -53t-2 -30q0 -53 14.5 -76t48.5 -23q57 0 91.5 61.5t60.5 192.5zM821 1536h-205l148 297h268z" />
    <glyph glyph-name="cacute" unicode="&#x107;" horiz-adv-x="860" 
d="M893 618h-301q4 26 11 64t11 64t4 42q0 35 -34 35q-16 0 -26.5 -4.5t-23.5 -18t-23 -45t-17 -79.5q-56 -358 -56 -383q0 -84 62 -84q50 0 87 53t50 144l6 4q28 8 51 8q72 0 116 -44.5t44 -113.5q0 -116 -110.5 -196t-278.5 -80q-173 0 -255.5 82.5t-82.5 224.5q0 38 5 88
t11 88.5t17.5 106.5t17.5 106q14 86 45.5 150.5t73 103.5t97 63t110 32.5t119.5 8.5q140 0 219.5 -64.5t79.5 -170.5q0 -51 -29 -185zM776 1223h-205l148 297h268z" />
    <glyph glyph-name="Ccircumflex" unicode="&#x108;" horiz-adv-x="901" 
d="M678 483h8q109 0 167 -39.5t58 -134.5q0 -146 -105.5 -235.5t-311.5 -89.5q-184 0 -274.5 90t-90.5 237q0 79 111 742q12 73 30 128.5t53 108t84 86t124.5 54t173.5 20.5q158 0 241.5 -71.5t83.5 -192.5q0 -69 -31 -221h-313q3 18 11.5 64.5t12 71.5t3.5 44q0 59 -47 59
q-38 0 -59.5 -39t-39.5 -149q-13 -79 -28 -172.5t-23.5 -148.5t-18.5 -117t-15.5 -97.5t-10 -69.5t-6.5 -53t-2 -30q0 -53 14.5 -76t48.5 -23q57 0 91.5 61.5t60.5 192.5zM1044 1516l-284 106l-330 -106l29 186l319 131h8l283 -152z" />
    <glyph glyph-name="ccircumflex" unicode="&#x109;" horiz-adv-x="860" 
d="M893 618h-301q4 26 11 64t11 64t4 42q0 35 -34 35q-16 0 -26.5 -4.5t-23.5 -18t-23 -45t-17 -79.5q-56 -358 -56 -383q0 -84 62 -84q50 0 87 53t50 144l6 4q28 8 51 8q72 0 116 -44.5t44 -113.5q0 -116 -110.5 -196t-278.5 -80q-173 0 -255.5 82.5t-82.5 224.5q0 38 5 88
t11 88.5t17.5 106.5t17.5 106q14 86 45.5 150.5t73 103.5t97 63t110 32.5t119.5 8.5q140 0 219.5 -64.5t79.5 -170.5q0 -51 -29 -185zM956 1243l-284 107l-330 -107l29 187l319 131h8l283 -152z" />
    <glyph glyph-name="Cdotaccent" unicode="&#x10a;" horiz-adv-x="901" 
d="M678 483h8q109 0 167 -39.5t58 -134.5q0 -146 -105.5 -235.5t-311.5 -89.5q-184 0 -274.5 90t-90.5 237q0 79 111 742q12 73 30 128.5t53 108t84 86t124.5 54t173.5 20.5q158 0 241.5 -71.5t83.5 -192.5q0 -69 -31 -221h-313q3 18 11.5 64.5t12 71.5t3.5 44q0 59 -47 59
q-38 0 -59.5 -39t-39.5 -149q-13 -79 -28 -172.5t-23.5 -148.5t-18.5 -117t-15.5 -97.5t-10 -69.5t-6.5 -53t-2 -30q0 -53 14.5 -76t48.5 -23q57 0 91.5 61.5t60.5 192.5zM922 1696q0 -66 -52.5 -113t-132.5 -47q-67 0 -106 40t-39 103q0 64 50 111t132 47q73 0 110.5 -38
t37.5 -103z" />
    <glyph glyph-name="cdotaccent" unicode="&#x10b;" horiz-adv-x="860" 
d="M893 618h-301q4 26 11 64t11 64t4 42q0 35 -34 35q-16 0 -26.5 -4.5t-23.5 -18t-23 -45t-17 -79.5q-56 -358 -56 -383q0 -84 62 -84q50 0 87 53t50 144l6 4q28 8 51 8q72 0 116 -44.5t44 -113.5q0 -116 -110.5 -196t-278.5 -80q-173 0 -255.5 82.5t-82.5 224.5q0 38 5 88
t11 88.5t17.5 106.5t17.5 106q14 86 45.5 150.5t73 103.5t97 63t110 32.5t119.5 8.5q140 0 219.5 -64.5t79.5 -170.5q0 -51 -29 -185zM836 1360q0 -66 -52.5 -113t-132.5 -47q-67 0 -106 40t-39 103q0 64 50 111t132 47q73 0 110.5 -38t37.5 -103z" />
    <glyph glyph-name="Ccaron" unicode="&#x10c;" horiz-adv-x="901" 
d="M678 483h8q109 0 167 -39.5t58 -134.5q0 -146 -105.5 -235.5t-311.5 -89.5q-184 0 -274.5 90t-90.5 237q0 79 111 742q12 73 30 128.5t53 108t84 86t124.5 54t173.5 20.5q158 0 241.5 -71.5t83.5 -192.5q0 -69 -31 -221h-313q3 18 11.5 64.5t12 71.5t3.5 44q0 59 -47 59
q-38 0 -59.5 -39t-39.5 -149q-13 -79 -28 -172.5t-23.5 -148.5t-18.5 -117t-15.5 -97.5t-10 -69.5t-6.5 -53t-2 -30q0 -53 14.5 -76t48.5 -23q57 0 91.5 61.5t60.5 192.5zM1049 1667l-324 -131h-8l-279 152l27 165l278 -106l336 106z" />
    <glyph glyph-name="ccaron" unicode="&#x10d;" horiz-adv-x="860" 
d="M893 618h-301q4 26 11 64t11 64t4 42q0 35 -34 35q-16 0 -26.5 -4.5t-23.5 -18t-23 -45t-17 -79.5q-56 -358 -56 -383q0 -84 62 -84q50 0 87 53t50 144l6 4q28 8 51 8q72 0 116 -44.5t44 -113.5q0 -116 -110.5 -196t-278.5 -80q-173 0 -255.5 82.5t-82.5 224.5q0 38 5 88
t11 88.5t17.5 106.5t17.5 106q14 86 45.5 150.5t73 103.5t97 63t110 32.5t119.5 8.5q140 0 219.5 -64.5t79.5 -170.5q0 -51 -29 -185zM977 1354l-324 -131h-8l-278 151l26 166l279 -106l336 106z" />
    <glyph glyph-name="Dcaron" unicode="&#x10e;" horiz-adv-x="962" 
d="M446 246h21q74 0 113 45t53 137q9 56 20.5 127.5t17.5 111t14.5 90.5t12.5 78t9 61.5t7.5 53t4.5 39.5t3 34.5t1 25.5q0 143 -127 143zM389 0h-317l227 1438h287q465 0 465 -396q0 -69 -70 -532q-8 -53 -12 -82q-33 -221 -179.5 -324.5t-400.5 -103.5zM999 1667
l-323 -131h-8l-279 152l27 165l278 -106l336 106z" />
    <glyph glyph-name="dcaron" unicode="&#x10f;" horiz-adv-x="983" 
d="M823 0h-301l21 131h-8q-32 -61 -88.5 -101t-129.5 -40q-204 0 -204 229q0 20 2.5 45.5t10 76t15 97.5t24.5 152t32 198q21 135 82.5 192.5t166.5 57.5q86 0 132 -52.5t49 -135.5l-4 -33q-18 6 -41 6q-65 0 -74 -57q-14 -91 -28.5 -179.5t-22 -133.5t-14 -86t-9 -63.5
t-2.5 -39.5q0 -69 51 -69q22 0 41 15.5t23 43.5l194 1225h316zM1028 1073l2 10q53 29 79.5 89t41.5 161l25 146h245l-16 -103q-27 -168 -116 -235.5t-261 -67.5z" />
    <glyph glyph-name="Dcroat" unicode="&#x110;" horiz-adv-x="983" 
d="M410 0h-318l94 600h-92l31 193h92l102 645h287q465 0 465 -396q0 -69 -70 -532q-8 -53 -12 -82q-33 -221 -179 -324.5t-400 -103.5zM467 246h20q74 0 113 45t53 137q9 56 20.5 127.5t17.5 111t14.5 90.5t12.5 78t9 61.5t7.5 53t4.5 39.5t3 34.5t1 25.5q0 143 -127 143
l-63 -399h113l-31 -193h-113z" />
    <glyph glyph-name="dcroat" unicode="&#x111;" horiz-adv-x="901" 
d="M823 0h-301l21 131h-8q-32 -61 -88.5 -101t-129.5 -40q-204 0 -204 229q0 20 2.5 45.5t10 76t15 97.5t24.5 152t32 198q21 135 82.5 192.5t166.5 57.5q86 0 132 -52.5t49 -135.5l-4 -33q-18 6 -41 6q-65 0 -74 -57q-14 -91 -28.5 -179.5t-22 -133.5t-14 -86t-9 -63.5
t-2.5 -39.5q0 -69 51 -69q22 0 41 15.5t23 43.5l141 893h-121l31 192h121l22 140h316l-23 -140h99l-31 -192h-98z" />
    <glyph glyph-name="Emacron" unicode="&#x112;" horiz-adv-x="819" 
d="M686 367h8q66 -5 101.5 -43t35.5 -105q0 -100 -95 -167.5t-263 -67.5q-174 0 -263 76t-89 212q0 26 7 83t47.5 315t123.5 768h678l-41 -256h-342l-51 -318h319l-37 -237h-319q-47 -283 -47 -324q0 -74 67 -74q48 0 92.5 40.5t67.5 97.5zM920 1536h-541l31 193h540z" />
    <glyph glyph-name="emacron" unicode="&#x113;" horiz-adv-x="878" 
d="M848 338l-10 -76q-18 -134 -112 -206t-286 -72q-156 0 -239.5 63.5t-83.5 185.5q0 15 1 31.5t4.5 44.5t7 50t11 70l12.5 80t17 104.5t20 121.5q25 141 127 222t287 81q165 0 247.5 -74t82.5 -192q0 -78 -25.5 -139t-69 -101.5t-106 -67.5t-131 -40t-149.5 -16
q-27 -168 -27 -181q0 -39 43 -39q54 0 63 60l15 90h301zM506 741l-37 -227q79 18 120.5 91t41.5 163q0 66 -49 66q-61 0 -76 -93zM920 1255h-541l31 193h540z" />
    <glyph glyph-name="Ebreve" unicode="&#x114;" horiz-adv-x="819" 
d="M686 367h8q66 -5 101.5 -43t35.5 -105q0 -100 -95 -167.5t-263 -67.5q-174 0 -263 76t-89 212q0 26 7 83t47.5 315t123.5 768h678l-41 -256h-342l-51 -318h319l-37 -237h-319q-47 -283 -47 -324q0 -74 67 -74q48 0 92.5 40.5t67.5 97.5zM838 1815h186q-11 -129 -108 -210
t-250 -81q-137 0 -219 66t-82 173q0 16 4 52h180q0 -63 28.5 -90t100.5 -27q74 0 110.5 29t49.5 88z" />
    <glyph glyph-name="ebreve" unicode="&#x115;" horiz-adv-x="878" 
d="M848 338l-10 -76q-18 -134 -112 -206t-286 -72q-156 0 -239.5 63.5t-83.5 185.5q0 15 1 31.5t4.5 44.5t7 50t11 70l12.5 80t17 104.5t20 121.5q25 141 127 222t287 81q165 0 247.5 -74t82.5 -192q0 -78 -25.5 -139t-69 -101.5t-106 -67.5t-131 -40t-149.5 -16
q-27 -168 -27 -181q0 -39 43 -39q54 0 63 60l15 90h301zM506 741l-37 -227q79 18 120.5 91t41.5 163q0 66 -49 66q-61 0 -76 -93zM838 1516h186q-11 -129 -108 -210t-250 -81q-137 0 -219 66t-82 173q0 16 4 52h180q0 -63 28.5 -90t100.5 -27q74 0 110.5 29t49.5 88z" />
    <glyph glyph-name="Edotaccent" unicode="&#x116;" horiz-adv-x="819" 
d="M686 367h8q66 -5 101.5 -43t35.5 -105q0 -100 -95 -167.5t-263 -67.5q-174 0 -263 76t-89 212q0 26 7 83t47.5 315t123.5 768h678l-41 -256h-342l-51 -318h319l-37 -237h-319q-47 -283 -47 -324q0 -74 67 -74q48 0 92.5 40.5t67.5 97.5zM842 1696q0 -66 -52.5 -113
t-132.5 -47q-67 0 -106 40t-39 103q0 64 50 111t132 47q73 0 110.5 -38t37.5 -103z" />
    <glyph glyph-name="edotaccent" unicode="&#x117;" horiz-adv-x="878" 
d="M848 338l-10 -76q-18 -134 -112 -206t-286 -72q-156 0 -239.5 63.5t-83.5 185.5q0 15 1 31.5t4.5 44.5t7 50t11 70l12.5 80t17 104.5t20 121.5q25 141 127 222t287 81q165 0 247.5 -74t82.5 -192q0 -78 -25.5 -139t-69 -101.5t-106 -67.5t-131 -40t-149.5 -16
q-27 -168 -27 -181q0 -39 43 -39q54 0 63 60l15 90h301zM506 741l-37 -227q79 18 120.5 91t41.5 163q0 66 -49 66q-61 0 -76 -93zM829 1360q0 -66 -52 -113t-132 -47q-67 0 -106 40t-39 103q0 64 50 111t132 47q73 0 110 -38t37 -103z" />
    <glyph glyph-name="Eogonek" unicode="&#x118;" horiz-adv-x="819" 
d="M610 -215l19 -12q-21 -86 -87.5 -138.5t-166.5 -52.5q-85 0 -132.5 40.5t-47.5 103.5q0 158 206 262q-139 15 -209.5 88.5t-70.5 195.5q0 26 7 83t47.5 315t123.5 768h678l-41 -256h-342l-51 -318h319l-37 -237h-319q-47 -283 -47 -324q0 -74 67 -74q48 0 92.5 40.5
t67.5 97.5h8q66 -5 101.5 -43t35.5 -105q0 -88 -74.5 -152t-209.5 -79q-113 -104 -113 -193q0 -26 14.5 -41.5t40.5 -15.5q68 0 121 47z" />
    <glyph glyph-name="eogonek" unicode="&#x119;" horiz-adv-x="878" 
d="M569 -215l19 -12q-21 -86 -87.5 -138.5t-166.5 -52.5q-85 0 -132.5 40.5t-47.5 103.5q0 161 208 264q-245 28 -245 243q0 15 1 31.5t4.5 44.5t7 50t11 70l12.5 80t17 104.5t20 121.5q25 141 127 222t287 81q165 0 247.5 -74t82.5 -192q0 -78 -25.5 -139t-69 -101.5
t-106 -67.5t-131 -40t-149.5 -16q-27 -168 -27 -181q0 -39 43 -39q54 0 63 60l15 90h301l-10 -76q-33 -254 -332 -276q-113 -104 -113 -191q0 -26 15 -41.5t41 -15.5q67 0 120 47zM506 741l-37 -227q79 18 120.5 91t41.5 163q0 66 -49 66q-61 0 -76 -93z" />
    <glyph glyph-name="Ecaron" unicode="&#x11a;" horiz-adv-x="819" 
d="M686 367h8q66 -5 101.5 -43t35.5 -105q0 -100 -95 -167.5t-263 -67.5q-174 0 -263 76t-89 212q0 26 7 83t47.5 315t123.5 768h678l-41 -256h-342l-51 -318h319l-37 -237h-319q-47 -283 -47 -324q0 -74 67 -74q48 0 92.5 40.5t67.5 97.5zM981 1667l-324 -131h-8l-278 152
l26 165l279 -106l336 106z" />
    <glyph glyph-name="ecaron" unicode="&#x11b;" horiz-adv-x="878" 
d="M848 338l-10 -76q-18 -134 -112 -206t-286 -72q-156 0 -239.5 63.5t-83.5 185.5q0 15 1 31.5t4.5 44.5t7 50t11 70l12.5 80t17 104.5t20 121.5q25 141 127 222t287 81q165 0 247.5 -74t82.5 -192q0 -78 -25.5 -139t-69 -101.5t-106 -67.5t-131 -40t-149.5 -16
q-27 -168 -27 -181q0 -39 43 -39q54 0 63 60l15 90h301zM506 741l-37 -227q79 18 120.5 91t41.5 163q0 66 -49 66q-61 0 -76 -93zM975 1354l-324 -131h-8l-278 151l26 166l279 -106l336 106z" />
    <glyph glyph-name="Gcircumflex" unicode="&#x11c;" horiz-adv-x="972" 
d="M901 0h-113q-78 14 -121.5 72.5t-43.5 120.5h-5q-25 -97 -95.5 -151t-174.5 -54q-110 0 -168.5 70.5t-58.5 203.5q0 15 2 37.5t7 61t11 76.5t16.5 107t20.5 130t27 167t31 197q34 213 150.5 312.5t330.5 99.5q186 0 275 -75.5t89 -207.5q0 -53 -26 -190h-336
q24 137 24 168q0 59 -63 59q-39 0 -67.5 -39.5t-41.5 -120.5q-112 -694 -112 -733q0 -40 18 -59t45 -19q36 0 60.5 20.5t29.5 51.5l50 311h-97l31 197h432zM1038 1516l-284 106l-330 -106l29 186l319 131h8l283 -152z" />
    <glyph glyph-name="gcircumflex" unicode="&#x11d;" horiz-adv-x="921" 
d="M358 -18l-2 -11q-39 -30 -39 -71q0 -26 29.5 -40t79.5 -14q57 0 89.5 22.5t35.5 55.5q0 28 -31.5 48t-79.5 30.5t-103 26t-103 32.5t-79.5 50t-31.5 79q0 62 58.5 103t146.5 49q-72 23 -117 81.5t-45 147.5q0 56 22 170q27 145 138.5 221t279.5 76q133 0 187 -41
q19 19 24 52l25 163h258l-13 -79q-25 -169 -200 -193q65 -56 65 -178q0 -35 -22 -168q-25 -145 -139.5 -216t-288.5 -71q-53 0 -80 -7.5t-27 -31.5q0 -20 34.5 -34t85.5 -21t111.5 -24.5t111.5 -41.5t85.5 -74.5t34.5 -121.5q0 -87 -41 -154.5t-110 -107t-151.5 -59
t-174.5 -19.5q-171 0 -262.5 62t-91.5 159q0 74 62.5 124t164.5 50q29 0 60 -7t44 -17zM621 600q4 31 9.5 66.5t8 54t2.5 27.5q0 75 -57 75q-33 0 -54 -18.5t-28 -67.5q-21 -108 -21 -147q0 -33 15 -50.5t41 -17.5q36 0 57.5 15.5t26.5 62.5zM961 1243l-285 107l-330 -107
l29 187l319 131h8l283 -152z" />
    <glyph glyph-name="Gbreve" unicode="&#x11e;" horiz-adv-x="972" 
d="M901 0h-113q-78 14 -121.5 72.5t-43.5 120.5h-5q-25 -97 -95.5 -151t-174.5 -54q-110 0 -168.5 70.5t-58.5 203.5q0 15 2 37.5t7 61t11 76.5t16.5 107t20.5 130t27 167t31 197q34 213 150.5 312.5t330.5 99.5q186 0 275 -75.5t89 -207.5q0 -53 -26 -190h-336
q24 137 24 168q0 59 -63 59q-39 0 -67.5 -39.5t-41.5 -120.5q-112 -694 -112 -733q0 -40 18 -59t45 -19q36 0 60.5 20.5t29.5 51.5l50 311h-97l31 197h432zM922 1815h186q-11 -129 -108 -210t-250 -81q-137 0 -219 66t-82 173q0 16 4 52h180q0 -63 28.5 -90t100.5 -27
q74 0 110.5 29t49.5 88z" />
    <glyph glyph-name="gbreve" unicode="&#x11f;" horiz-adv-x="921" 
d="M358 -18l-2 -11q-39 -30 -39 -71q0 -26 29.5 -40t79.5 -14q57 0 89.5 22.5t35.5 55.5q0 28 -31.5 48t-79.5 30.5t-103 26t-103 32.5t-79.5 50t-31.5 79q0 62 58.5 103t146.5 49q-72 23 -117 81.5t-45 147.5q0 56 22 170q27 145 138.5 221t279.5 76q133 0 187 -41
q19 19 24 52l25 163h258l-13 -79q-25 -169 -200 -193q65 -56 65 -178q0 -35 -22 -168q-25 -145 -139.5 -216t-288.5 -71q-53 0 -80 -7.5t-27 -31.5q0 -20 34.5 -34t85.5 -21t111.5 -24.5t111.5 -41.5t85.5 -74.5t34.5 -121.5q0 -87 -41 -154.5t-110 -107t-151.5 -59
t-174.5 -19.5q-171 0 -262.5 62t-91.5 159q0 74 62.5 124t164.5 50q29 0 60 -7t44 -17zM621 600q4 31 9.5 66.5t8 54t2.5 27.5q0 75 -57 75q-33 0 -54 -18.5t-28 -67.5q-21 -108 -21 -147q0 -33 15 -50.5t41 -17.5q36 0 57.5 15.5t26.5 62.5zM836 1516h186
q-11 -129 -108 -210t-250 -81q-137 0 -219.5 66t-82.5 173q0 7 5 52h180q0 -63 28.5 -90t100.5 -27q74 0 110.5 29t49.5 88z" />
    <glyph glyph-name="Gdotaccent" unicode="&#x120;" horiz-adv-x="972" 
d="M901 0h-113q-78 14 -121.5 72.5t-43.5 120.5h-5q-25 -97 -95.5 -151t-174.5 -54q-110 0 -168.5 70.5t-58.5 203.5q0 15 2 37.5t7 61t11 76.5t16.5 107t20.5 130t27 167t31 197q34 213 150.5 312.5t330.5 99.5q186 0 275 -75.5t89 -207.5q0 -53 -26 -190h-336
q24 137 24 168q0 59 -63 59q-39 0 -67.5 -39.5t-41.5 -120.5q-112 -694 -112 -733q0 -40 18 -59t45 -19q36 0 60.5 20.5t29.5 51.5l50 311h-97l31 197h432zM924 1696q0 -66 -52.5 -113t-132.5 -47q-67 0 -106 40t-39 103q0 64 50 111t132 47q73 0 110.5 -38t37.5 -103z" />
    <glyph glyph-name="gdotaccent" unicode="&#x121;" horiz-adv-x="921" 
d="M358 -18l-2 -11q-39 -30 -39 -71q0 -26 29.5 -40t79.5 -14q57 0 89.5 22.5t35.5 55.5q0 28 -31.5 48t-79.5 30.5t-103 26t-103 32.5t-79.5 50t-31.5 79q0 62 58.5 103t146.5 49q-72 23 -117 81.5t-45 147.5q0 56 22 170q27 145 138.5 221t279.5 76q133 0 187 -41
q19 19 24 52l25 163h258l-13 -79q-25 -169 -200 -193q65 -56 65 -178q0 -35 -22 -168q-25 -145 -139.5 -216t-288.5 -71q-53 0 -80 -7.5t-27 -31.5q0 -20 34.5 -34t85.5 -21t111.5 -24.5t111.5 -41.5t85.5 -74.5t34.5 -121.5q0 -87 -41 -154.5t-110 -107t-151.5 -59
t-174.5 -19.5q-171 0 -262.5 62t-91.5 159q0 74 62.5 124t164.5 50q29 0 60 -7t44 -17zM621 600q4 31 9.5 66.5t8 54t2.5 27.5q0 75 -57 75q-33 0 -54 -18.5t-28 -67.5q-21 -108 -21 -147q0 -33 15 -50.5t41 -17.5q36 0 57.5 15.5t26.5 62.5zM836 1360q0 -66 -52.5 -113
t-132.5 -47q-67 0 -106 40t-39 103q0 64 50 111t132 47q73 0 110.5 -38t37.5 -103z" />
    <glyph glyph-name="Gcommaaccent" unicode="&#x122;" horiz-adv-x="972" 
d="M901 0h-113q-78 14 -121.5 72.5t-43.5 120.5h-5q-25 -97 -95.5 -151t-174.5 -54q-110 0 -168.5 70.5t-58.5 203.5q0 15 2 37.5t7 61t11 76.5t16.5 107t20.5 130t27 167t31 197q34 213 150.5 312.5t330.5 99.5q186 0 275 -75.5t89 -207.5q0 -53 -26 -190h-336
q24 137 24 168q0 59 -63 59q-39 0 -67.5 -39.5t-41.5 -120.5q-112 -694 -112 -733q0 -40 18 -59t45 -19q36 0 60.5 20.5t29.5 51.5l50 311h-97l31 197h432zM227 -520l2 10q53 29 79.5 89t41.5 161l25 145h246l-17 -102q-27 -168 -116 -235.5t-261 -67.5z" />
    <glyph glyph-name="gcommaaccent" unicode="&#x123;" horiz-adv-x="921" 
d="M358 -18l-2 -11q-39 -30 -39 -71q0 -26 29.5 -40t79.5 -14q57 0 89.5 22.5t35.5 55.5q0 28 -31.5 48t-79.5 30.5t-103 26t-103 32.5t-79.5 50t-31.5 79q0 62 58.5 103t146.5 49q-72 23 -117 81.5t-45 147.5q0 56 22 170q27 145 138.5 221t279.5 76q133 0 187 -41
q19 19 24 52l25 163h258l-13 -79q-25 -169 -200 -193q65 -56 65 -178q0 -35 -22 -168q-25 -145 -139.5 -216t-288.5 -71q-53 0 -80 -7.5t-27 -31.5q0 -20 34.5 -34t85.5 -21t111.5 -24.5t111.5 -41.5t85.5 -74.5t34.5 -121.5q0 -87 -41 -154.5t-110 -107t-151.5 -59
t-174.5 -19.5q-171 0 -262.5 62t-91.5 159q0 74 62.5 124t164.5 50q29 0 60 -7t44 -17zM621 600q4 31 9.5 66.5t8 54t2.5 27.5q0 75 -57 75q-33 0 -54 -18.5t-28 -67.5q-21 -108 -21 -147q0 -33 15 -50.5t41 -17.5q36 0 57.5 15.5t26.5 62.5zM901 1626l-2 -10
q-53 -29 -79.5 -89t-41.5 -161l-24 -145h-246l16 102q27 168 116 235.5t261 67.5z" />
    <glyph glyph-name="Hcircumflex" unicode="&#x124;" horiz-adv-x="983" 
d="M905 0h-336l97 618h-156l-96 -618h-336l227 1438h336l-92 -584h156l92 584h336zM1036 1516l-284 106l-330 -106l29 186l319 131h8l283 -152z" />
    <glyph glyph-name="hcircumflex" unicode="&#x125;" 
d="M963 115l-2 -21q-63 -104 -205 -104q-100 0 -147.5 49t-47.5 135q0 77 43 306.5t43 279.5q0 22 -13.5 36.5t-39.5 14.5q-74 0 -86 -76l-115 -735h-315l233 1479h316l-99 -619h9q28 80 94.5 129t150.5 49q94 0 142.5 -48t48.5 -138q0 -67 -47 -344.5t-47 -319.5
q0 -48 19 -60.5t65 -12.5zM776 1483l-284 106l-330 -106l28 186l320 131h8l283 -151z" />
    <glyph glyph-name="Hbar" unicode="&#x126;" horiz-adv-x="983" 
d="M905 0h-336l97 618h-156l-96 -618h-336l172 1090h-78l25 153h77l31 195h336l-31 -195h156l31 195h336l-31 -195h78l-25 -153h-78zM705 854l36 236h-155l-37 -236h156z" />
    <glyph glyph-name="hbar" unicode="&#x127;" 
d="M963 115l-2 -21q-63 -104 -209 -104q-123 0 -163.5 69t-19.5 203l76 483q5 27 -8 46.5t-43 19.5q-74 0 -86 -76l-115 -735h-315l180 1147h-98l30 192h99l22 140h316l-23 -140h127l-31 -192h-127l-45 -287h9q28 80 97 129t154 49q114 0 157 -65t22 -193l-82 -520
q-7 -41 -7 -68.5t4.5 -42.5t17.5 -23t26 -9.5t37 -1.5z" />
    <glyph glyph-name="Itilde" unicode="&#x128;" horiz-adv-x="499" 
d="M418 0h-336l227 1438h336zM729 1790h90q-5 -122 -57.5 -193t-143.5 -71q-63 0 -146 27.5t-112 27.5q-55 0 -75 -68h-90q6 124 58 194.5t142 70.5q63 0 150.5 -28t118.5 -28q28 0 41 14t24 54z" />
    <glyph glyph-name="itilde" unicode="&#x129;" horiz-adv-x="466" 
d="M389 0h-311l162 1028h311zM676 1532h90q-5 -122 -57.5 -193t-143.5 -71q-63 0 -146 27.5t-112 27.5q-56 0 -76 -68h-90q6 124 58.5 194.5t142.5 70.5q63 0 150 -28t118 -28q29 0 42 14.5t24 53.5z" />
    <glyph glyph-name="Imacron" unicode="&#x12a;" horiz-adv-x="499" 
d="M418 0h-336l227 1438h336zM766 1556h-541l31 193h541z" />
    <glyph glyph-name="imacron" unicode="&#x12b;" horiz-adv-x="466" 
d="M389 0h-311l162 1028h311zM709 1317h-541l31 192h540z" />
    <glyph glyph-name="Ibreve" unicode="&#x12c;" horiz-adv-x="499" 
d="M418 0h-336l227 1438h336zM676 1815h186q-11 -129 -108 -210t-250 -81q-137 0 -219 66t-82 173q0 16 4 52h180q0 -63 28.5 -90t100.5 -27q74 0 110.5 29t49.5 88z" />
    <glyph glyph-name="ibreve" unicode="&#x12d;" horiz-adv-x="466" 
d="M389 0h-311l162 1028h311zM594 1516h186q-11 -129 -108 -210t-250 -81q-137 0 -219 66t-82 173q0 16 4 52h180q0 -63 28.5 -90t100.5 -27q74 0 110.5 29t49.5 88z" />
    <glyph glyph-name="Iogonek" unicode="&#x12e;" horiz-adv-x="499" 
d="M403 -215l19 -12q-20 -84 -93.5 -137.5t-170.5 -53.5q-79 0 -121.5 43t-42.5 107q0 87 61 155.5t156 112.5q-55 6 -81 39.5t-26 83.5q0 23 2 35l203 1280h336l-227 -1438q-32 -15 -62 -34t-61 -45t-49.5 -59t-18.5 -67q0 -26 15 -41.5t41 -15.5q67 0 120 47z" />
    <glyph glyph-name="iogonek" unicode="&#x12f;" horiz-adv-x="466" 
d="M612 1331q-9 -64 -64.5 -107.5t-129.5 -43.5q-72 0 -113.5 44t-32.5 107q11 64 66.5 108t126.5 44q74 0 116 -44t31 -108zM385 -215l18 -12q-21 -84 -92 -137.5t-168 -53.5t-137 49.5t-29 124.5q13 89 64 146t141 98q-53 20 -72 57t-10 95l140 876h311l-162 -1028
q-79 -36 -124.5 -87.5t-53.5 -100.5q-5 -33 9 -53.5t44 -20.5q68 0 121 47z" />
    <glyph glyph-name="Idotaccent" unicode="&#x130;" horiz-adv-x="499" 
d="M418 0h-336l227 1438h336zM688 1696q0 -66 -52 -113t-132 -47q-68 0 -107 40t-39 103q0 64 50 111t133 47q73 0 110 -38t37 -103z" />
    <glyph glyph-name="dotlessi" unicode="&#x131;" horiz-adv-x="466" 
d="M389 0h-311l162 1028h311z" />
    <glyph glyph-name="IJ" unicode="&#x132;" horiz-adv-x="1355" 
d="M418 0h-336l227 1438h336zM999 319l179 1119h333l-178 -1121q-27 -169 -140.5 -251t-297.5 -82q-165 0 -258.5 75t-93.5 185q0 115 69.5 181.5t194.5 66.5q34 0 74.5 -13t52.5 -28l-2 -17q-74 -74 -74 -145q0 -60 51 -60q76 0 90 90z" />
    <glyph glyph-name="ij" unicode="&#x133;" horiz-adv-x="993" 
d="M389 0h-311l162 1028h311zM614 1360q0 -66 -52 -113t-132 -47q-67 0 -106 40t-39 103q0 64 50 111t132 47q73 0 110 -38t37 -103zM346 -291l4 23q98 0 159 60.5t77 160.5l170 1075h315l-166 -1053q-50 -311 -379 -311q-88 0 -180 45zM1126 1360q0 -66 -52 -113t-132 -47
q-67 0 -106 40t-39 103q0 64 50 111t132 47q73 0 110 -38t37 -103z" />
    <glyph glyph-name="Jcircumflex" unicode="&#x134;" horiz-adv-x="864" 
d="M508 319l178 1119h334l-178 -1121q-27 -169 -141 -251t-298 -82q-165 0 -258.5 75t-93.5 185q0 115 69.5 181.5t194.5 66.5q34 0 74.5 -13t52.5 -28l-2 -17q-73 -73 -73 -145q0 -60 51 -60q76 0 90 90zM1139 1520l-285 106l-330 -106l29 186l319 131h9l282 -151z" />
    <glyph glyph-name="jcircumflex" unicode="&#x135;" horiz-adv-x="514" 
d="M-133 -291l4 23q98 0 158.5 60.5t76.5 160.5l170 1075h316l-166 -1053q-50 -311 -379 -311q-88 0 -180 45zM776 1243l-284 107l-330 -107l28 187l320 131h8l283 -152z" />
    <glyph glyph-name="Kcommaaccent" unicode="&#x136;" horiz-adv-x="1013" 
d="M983 244l6 -2q15 -12 27 -38.5t12 -56.5q0 -72 -53.5 -117.5t-165.5 -45.5q-120 0 -172.5 57t-52.5 145q0 53 27.5 181.5t27.5 189.5q0 60 -26.5 86t-92.5 29l-104 -672h-338l227 1438h338l-86 -531h6l289 531h358l-432 -672q94 -6 143.5 -60.5t49.5 -146.5
q0 -54 -26.5 -166t-26.5 -149q0 -41 28 -41q23 0 37 41zM176 -520l2 10q53 29 79.5 89t41.5 161l25 145h245l-16 -102q-27 -168 -116 -235.5t-261 -67.5z" />
    <glyph glyph-name="kcommaaccent" unicode="&#x137;" horiz-adv-x="907" 
d="M893 244l6 -2q27 -21 27 -88q0 -31 -10 -59t-32 -54t-63.5 -41.5t-97.5 -15.5q-116 0 -164.5 53.5t-48.5 136.5q0 34 13.5 112.5t13.5 104.5q0 38 -17.5 53t-52.5 15l-72 -459h-317l227 1438h318l-109 -676h6l199 266h338l-377 -446q89 -3 129.5 -41.5t40.5 -116.5
q0 -31 -11.5 -97.5t-11.5 -82.5q0 -41 29 -41q23 0 37 41zM180 -520l2 10q53 29 79.5 89t41.5 161l25 145h245l-16 -102q-27 -168 -116 -235.5t-261 -67.5z" />
    <glyph glyph-name="kgreenlandic" unicode="&#x138;" horiz-adv-x="907" 
d="M893 244l6 -2q27 -21 27 -88q0 -31 -10 -59t-32 -54t-63.5 -41.5t-97.5 -15.5q-116 0 -164.5 53.5t-48.5 136.5q0 34 10 102.5t10 94.5q0 38 -17 52.5t-52 14.5l-66 -438h-317l162 1028h317l-47 -287h6l203 287h338l-383 -467q89 -3 129.5 -41t40.5 -117q0 -31 -8.5 -87
t-8.5 -72q0 -41 29 -41q23 0 37 41z" />
    <glyph glyph-name="Lacute" unicode="&#x139;" horiz-adv-x="768" 
d="M752 0h-670l227 1438h336l-188 -1182h334zM569 1536h-204l147 297h268z" />
    <glyph glyph-name="lacute" unicode="&#x13a;" horiz-adv-x="466" 
d="M389 0h-311l233 1479h312zM565 1552h-205l148 297h268z" />
    <glyph glyph-name="Lcommaaccent" unicode="&#x13b;" horiz-adv-x="768" 
d="M752 0h-670l227 1438h336l-188 -1182h334zM150 -520l2 10q53 29 79 89t41 161l25 145h246l-17 -102q-27 -168 -115.5 -235.5t-260.5 -67.5z" />
    <glyph glyph-name="lcommaaccent" unicode="&#x13c;" horiz-adv-x="466" 
d="M389 0h-311l233 1479h312zM-47 -520l2 10q53 29 79.5 89t41.5 161l24 145h246l-16 -102q-27 -168 -116 -235.5t-261 -67.5z" />
    <glyph glyph-name="Lcaron" unicode="&#x13d;" horiz-adv-x="768" 
d="M752 0h-670l227 1438h336l-188 -1182h334zM688 1032l2 10q53 29 79.5 89t41.5 161l25 146h245l-16 -103q-27 -168 -116 -235.5t-261 -67.5z" />
    <glyph glyph-name="lcaron" unicode="&#x13e;" horiz-adv-x="815" 
d="M389 0h-311l233 1479h312zM664 1130l2 11q53 29 79 89t41 161l25 145h246l-17 -102q-27 -168 -116 -236t-260 -68z" />
    <glyph glyph-name="Ldot" unicode="&#x13f;" horiz-adv-x="808" 
d="M752 0h-670l227 1438h336l-188 -1182h334zM928 756q0 -66 -52.5 -113t-132.5 -47q-67 0 -106 40t-39 103q0 64 50 111t132 47q73 0 110.5 -38t37.5 -103z" />
    <glyph glyph-name="ldot" unicode="&#x140;" horiz-adv-x="772" 
d="M389 0h-311l233 1479h312zM901 694q0 -66 -52 -112.5t-132 -46.5q-68 0 -107 40t-39 103q0 64 50 111t133 47q73 0 110 -38.5t37 -103.5z" />
    <glyph glyph-name="Lslash" unicode="&#x141;" horiz-adv-x="768" 
d="M752 0h-670l88 563l-88 -35l29 181l88 34l110 695h336l-88 -551l186 74l-28 -181l-187 -73l-71 -451h334z" />
    <glyph glyph-name="lslash" unicode="&#x142;" horiz-adv-x="487" 
d="M399 0h-311l96 618l-112 -32l28 178l113 33l109 682h311l-92 -584l112 35l-26 -178l-115 -35z" />
    <glyph glyph-name="Nacute" unicode="&#x143;" horiz-adv-x="1003" 
d="M926 0h-240l-176 768l-121 -768h-311l227 1438h285l143 -594l94 594h326zM823 1536h-205l148 297h268z" />
    <glyph glyph-name="nacute" unicode="&#x144;" horiz-adv-x="921" 
d="M963 115l-2 -21q-63 -104 -205 -104q-100 0 -147.5 49t-47.5 135q0 77 43 306.5t43 279.5q0 22 -13.5 36.5t-39.5 14.5q-74 0 -86 -76l-115 -735h-315l162 1028h301l-27 -168h8q27 79 100.5 128.5t159.5 49.5q94 0 142.5 -48t48.5 -138q0 -67 -47 -344.5t-47 -319.5
q0 -48 19 -60.5t65 -12.5zM733 1223h-205l148 297h268z" />
    <glyph glyph-name="Ncommaaccent" unicode="&#x145;" horiz-adv-x="1003" 
d="M926 0h-240l-176 768l-121 -768h-311l227 1438h285l143 -594l94 594h326zM231 -520l2 10q53 29 79.5 89t41.5 161l25 145h246l-17 -102q-27 -168 -116 -235.5t-261 -67.5z" />
    <glyph glyph-name="ncommaaccent" unicode="&#x146;" horiz-adv-x="921" 
d="M963 115l-2 -21q-63 -104 -205 -104q-100 0 -147.5 49t-47.5 135q0 77 43 306.5t43 279.5q0 22 -13.5 36.5t-39.5 14.5q-74 0 -86 -76l-115 -735h-315l162 1028h301l-27 -168h8q27 79 100.5 128.5t159.5 49.5q94 0 142.5 -48t48.5 -138q0 -67 -47 -344.5t-47 -319.5
q0 -48 19 -60.5t65 -12.5zM150 -520l2 10q53 29 79 89t41 161l25 145h246l-17 -102q-27 -168 -115.5 -235.5t-260.5 -67.5z" />
    <glyph glyph-name="Ncaron" unicode="&#x147;" horiz-adv-x="1003" 
d="M926 0h-240l-176 768l-121 -768h-311l227 1438h285l143 -594l94 594h326zM1049 1667l-324 -131h-8l-279 152l27 165l278 -106l336 106z" />
    <glyph glyph-name="ncaron" unicode="&#x148;" horiz-adv-x="921" 
d="M963 115l-2 -21q-63 -104 -205 -104q-100 0 -147.5 49t-47.5 135q0 77 43 306.5t43 279.5q0 22 -13.5 36.5t-39.5 14.5q-74 0 -86 -76l-115 -735h-315l162 1028h301l-27 -168h8q27 79 100.5 128.5t159.5 49.5q94 0 142.5 -48t48.5 -138q0 -67 -47 -344.5t-47 -319.5
q0 -48 19 -60.5t65 -12.5zM979 1354l-324 -131h-8l-278 151l26 166l279 -106l336 106z" />
    <glyph glyph-name="napostrophe" unicode="&#x149;" horiz-adv-x="921" 
d="M963 115l-2 -21q-63 -104 -205 -104q-100 0 -147.5 49t-47.5 135q0 77 43 306.5t43 279.5q0 22 -13.5 36.5t-39.5 14.5q-74 0 -86 -76l-115 -735h-315l162 1028h301l-27 -168h8q27 79 100.5 128.5t159.5 49.5q94 0 142.5 -48t48.5 -138q0 -67 -47 -344.5t-47 -319.5
q0 -48 19 -60.5t65 -12.5zM217 1133l2 10q53 29 79.5 89t41.5 161l25 145h245l-16 -102q-27 -168 -116 -235.5t-261 -67.5z" />
    <glyph glyph-name="Eng" unicode="&#x14a;" horiz-adv-x="991" 
d="M582 -70l49 312l-127 532l-121 -774h-311l227 1438h295l133 -594l94 594h326l-242 -1518q-28 -174 -145.5 -272.5t-313.5 -98.5q-140 0 -205 57.5t-65 133.5q0 61 36.5 102.5t100.5 55.5h9q8 -44 41 -73.5t88 -29.5q59 0 89.5 33.5t41.5 101.5z" />
    <glyph glyph-name="eng" unicode="&#x14b;" horiz-adv-x="921" 
d="M279 -291l4 23q99 0 160 60t77 161q125 728 125 803q0 23 -12.5 39t-38.5 16q-74 0 -86 -76l-115 -735h-315l162 1028h301l-27 -168h2q27 78 102.5 128t161.5 50q193 0 193 -194q0 -21 -4.5 -58.5t-16 -111.5t-25.5 -156.5t-38.5 -235.5t-48.5 -307q-50 -311 -379 -311
q-90 0 -182 45z" />
    <glyph glyph-name="Omacron" unicode="&#x14c;" horiz-adv-x="1003" 
d="M721 1450q99 0 173.5 -28t117.5 -77t63.5 -108t20.5 -129q0 -24 -2 -53.5t-7.5 -73t-11 -82t-16.5 -107t-19.5 -120t-24.5 -149.5t-28 -169q-31 -194 -143 -282t-334 -88q-192 0 -284.5 88t-92.5 243q0 18 2 43.5t8 69t11.5 81t17 110t19.5 124t25 154.5t28 172
q61 381 477 381zM537 229q41 0 73.5 34t42.5 99q18 114 40 250.5t32.5 200.5t21 133t14 103t3.5 55q0 100 -72 100q-97 0 -119 -139q-19 -116 -40 -243.5t-32 -195t-21.5 -134t-14.5 -104t-4 -62.5q0 -97 76 -97zM1016 1556h-541l31 193h541z" />
    <glyph glyph-name="omacron" unicode="&#x14d;" horiz-adv-x="899" 
d="M481 199q31 0 49 17.5t25 62.5q74 422 74 483t-51 61q-58 0 -72 -78q-74 -439 -74 -487q0 -59 49 -59zM868 279q-22 -142 -125 -218.5t-284 -76.5q-162 0 -249 78t-87 206q0 64 67 475q23 139 133 217t289 78q156 0 241 -79.5t85 -202.5q0 -51 -70 -477zM926 1317h-541
l31 192h540z" />
    <glyph glyph-name="Obreve" unicode="&#x14e;" horiz-adv-x="1003" 
d="M721 1450q99 0 173.5 -28t117.5 -77t63.5 -108t20.5 -129q0 -24 -2 -53.5t-7.5 -73t-11 -82t-16.5 -107t-19.5 -120t-24.5 -149.5t-28 -169q-31 -194 -143 -282t-334 -88q-192 0 -284.5 88t-92.5 243q0 18 2 43.5t8 69t11.5 81t17 110t19.5 124t25 154.5t28 172
q61 381 477 381zM537 229q41 0 73.5 34t42.5 99q18 114 40 250.5t32.5 200.5t21 133t14 103t3.5 55q0 100 -72 100q-97 0 -119 -139q-19 -116 -40 -243.5t-32 -195t-21.5 -134t-14.5 -104t-4 -62.5q0 -97 76 -97zM930 1815h186q-11 -129 -108 -210t-250 -81q-137 0 -219 66
t-82 173q0 16 4 52h180q0 -63 28.5 -90t100.5 -27q74 0 110.5 29t49.5 88z" />
    <glyph glyph-name="obreve" unicode="&#x14f;" horiz-adv-x="899" 
d="M481 199q31 0 49 17.5t25 62.5q74 422 74 483t-51 61q-58 0 -72 -78q-74 -439 -74 -487q0 -59 49 -59zM868 279q-22 -142 -125 -218.5t-284 -76.5q-162 0 -249 78t-87 206q0 64 67 475q23 139 133 217t289 78q156 0 241 -79.5t85 -202.5q0 -51 -70 -477zM831 1516h187
q-11 -129 -108.5 -210t-250.5 -81q-137 0 -219 66t-82 173q0 16 4 52h181q0 -63 28.5 -90t100.5 -27q74 0 110 28.5t49 88.5z" />
    <glyph glyph-name="Ohungarumlaut" unicode="&#x150;" horiz-adv-x="1003" 
d="M721 1450q99 0 173.5 -28t117.5 -77t63.5 -108t20.5 -129q0 -24 -2 -53.5t-7.5 -73t-11 -82t-16.5 -107t-19.5 -120t-24.5 -149.5t-28 -169q-31 -194 -143 -282t-334 -88q-192 0 -284.5 88t-92.5 243q0 18 2 43.5t8 69t11.5 81t17 110t19.5 124t25 154.5t28 172
q61 381 477 381zM537 229q41 0 73.5 34t42.5 99q18 114 40 250.5t32.5 200.5t21 133t14 103t3.5 55q0 100 -72 100q-97 0 -119 -139q-19 -116 -40 -243.5t-32 -195t-21.5 -134t-14.5 -104t-4 -62.5q0 -97 76 -97zM981 1536h-182l164 297h260zM688 1536h-178l117 297h241z
" />
    <glyph glyph-name="ohungarumlaut" unicode="&#x151;" horiz-adv-x="899" 
d="M481 199q31 0 49 17.5t25 62.5q74 422 74 483t-51 61q-58 0 -72 -78q-74 -439 -74 -487q0 -59 49 -59zM868 279q-22 -142 -125 -218.5t-284 -76.5q-162 0 -249 78t-87 206q0 64 67 475q23 139 133 217t289 78q156 0 241 -79.5t85 -202.5q0 -51 -70 -477zM889 1223h-182
l163 297h260zM596 1223h-178l117 297h241z" />
    <glyph glyph-name="OE" unicode="&#x152;" horiz-adv-x="1335" 
d="M1202 367h8q66 -5 102 -43t36 -105q0 -102 -86 -168.5t-252 -66.5q-168 0 -246 75q-95 -75 -254 -75q-192 0 -284.5 88t-92.5 243q0 18 2 43.5t8 69t11.5 81t17 110t19.5 124t25 154.5t28 172q61 381 477 381q67 0 119 -12h653l-41 -256h-342l-51 -318h319l-37 -237h-319
q-47 -283 -47 -324q0 -74 67 -74q48 0 92.5 40.5t67.5 97.5zM537 229q41 0 73.5 34t42.5 99q18 114 40 250.5t32.5 200.5t21 133t14 103t3.5 55q0 100 -72 100q-97 0 -119 -139q-19 -116 -40 -243.5t-32 -195t-21.5 -134t-14.5 -104t-4 -62.5q0 -97 76 -97z" />
    <glyph glyph-name="oe" unicode="&#x153;" horiz-adv-x="1316" 
d="M1284 338l-10 -76q-18 -134 -110.5 -206t-284.5 -72q-63 0 -123 23.5t-88 58.5q-35 -37 -98.5 -59.5t-131.5 -22.5q-160 0 -237.5 77t-77.5 207q0 64 67 475q24 141 125 218t277 77q70 0 126 -27.5t89 -64.5q37 39 98.5 65.5t134.5 26.5q168 0 250 -70.5t82 -199.5
q0 -88 -39.5 -156.5t-107.5 -110.5t-153 -63.5t-181 -21.5q-29 -181 -29 -189q0 -39 43 -39q55 0 64 60l14 90h301zM481 199q31 0 49 17.5t25 62.5q74 422 74 483t-51 61q-58 0 -72 -78q-74 -439 -74 -487q0 -59 49 -59zM942 741l-35 -223q77 19 118.5 90.5t41.5 159.5
q0 66 -49 66q-61 0 -76 -93z" />
    <glyph glyph-name="Racute" unicode="&#x154;" horiz-adv-x="933" 
d="M596 1198l-68 -434q44 6 76.5 35t50 71.5t25.5 87t8 89.5q0 60 -22 102t-70 49zM932 244l6 -2q15 -12 27 -38.5t12 -56.5q0 -72 -53.5 -117.5t-165.5 -45.5q-120 0 -173 57.5t-53 144.5q0 60 21.5 153.5t21.5 139.5q0 99 -75 99l-92 -578h-336l227 1438h303
q214 0 319 -98t105 -267q0 -147 -87.5 -260t-238.5 -135l-2 -6q98 -6 148.5 -63.5t50.5 -145.5q0 -39 -15.5 -114.5t-15.5 -104.5q0 -41 29 -41q23 0 37 41zM725 1536h-205l148 297h268z" />
    <glyph glyph-name="racute" unicode="&#x155;" horiz-adv-x="815" 
d="M393 0h-315l162 1028h303l-33 -203h12q33 99 95 156t155 57q87 0 134.5 -44.5t47.5 -121.5q0 -107 -70.5 -174t-189.5 -67q-82 0 -125 31l2 10q27 10 46.5 29.5t19.5 41.5q0 25 -25 25q-97 -3 -143 -289zM684 1223h-205l148 297h268z" />
    <glyph glyph-name="Rcommaaccent" unicode="&#x156;" horiz-adv-x="933" 
d="M596 1198l-68 -434q44 6 76.5 35t50 71.5t25.5 87t8 89.5q0 60 -22 102t-70 49zM932 244l6 -2q15 -12 27 -38.5t12 -56.5q0 -72 -53.5 -117.5t-165.5 -45.5q-120 0 -173 57.5t-53 144.5q0 60 21.5 153.5t21.5 139.5q0 99 -75 99l-92 -578h-336l227 1438h303
q214 0 319 -98t105 -267q0 -147 -87.5 -260t-238.5 -135l-2 -6q98 -6 148.5 -63.5t50.5 -145.5q0 -39 -15.5 -114.5t-15.5 -104.5q0 -41 29 -41q23 0 37 41zM150 -520l2 10q53 29 79 89t41 161l25 145h246l-17 -102q-27 -168 -115.5 -235.5t-260.5 -67.5z" />
    <glyph glyph-name="rcommaaccent" unicode="&#x157;" horiz-adv-x="815" 
d="M393 0h-315l162 1028h303l-33 -203h12q33 99 95 156t155 57q87 0 134.5 -44.5t47.5 -121.5q0 -107 -70.5 -174t-189.5 -67q-82 0 -125 31l2 10q27 10 46.5 29.5t19.5 41.5q0 25 -25 25q-97 -3 -143 -289zM-47 -520l2 10q53 29 79.5 89t41.5 161l24 145h246l-16 -102
q-27 -168 -116 -235.5t-261 -67.5z" />
    <glyph glyph-name="Rcaron" unicode="&#x158;" horiz-adv-x="933" 
d="M596 1198l-68 -434q44 6 76.5 35t50 71.5t25.5 87t8 89.5q0 60 -22 102t-70 49zM932 244l6 -2q15 -12 27 -38.5t12 -56.5q0 -72 -53.5 -117.5t-165.5 -45.5q-120 0 -173 57.5t-53 144.5q0 60 21.5 153.5t21.5 139.5q0 99 -75 99l-92 -578h-336l227 1438h303
q214 0 319 -98t105 -267q0 -147 -87.5 -260t-238.5 -135l-2 -6q98 -6 148.5 -63.5t50.5 -145.5q0 -39 -15.5 -114.5t-15.5 -104.5q0 -41 29 -41q23 0 37 41zM965 1667l-324 -131h-8l-279 152l27 165l278 -106l336 106z" />
    <glyph glyph-name="rcaron" unicode="&#x159;" horiz-adv-x="815" 
d="M393 0h-315l162 1028h303l-33 -203h12q33 99 95 156t155 57q87 0 134.5 -44.5t47.5 -121.5q0 -107 -70.5 -174t-189.5 -67q-82 0 -125 31l2 10q27 10 46.5 29.5t19.5 41.5q0 25 -25 25q-97 -3 -143 -289zM915 1354l-323 -131h-8l-279 151l27 166l278 -106l336 106z" />
    <glyph glyph-name="Sacute" unicode="&#x15a;" horiz-adv-x="931" 
d="M506 514l-2 -6q-25 -31 -39.5 -52.5t-27.5 -57.5t-13 -72q0 -37 17 -60.5t51 -23.5q40 0 64.5 26.5t33 62t8.5 81.5q0 43 -20 85.5t-52.5 80t-72 76.5t-78.5 82.5t-71.5 90t-52.5 106t-20 124.5q0 196 117.5 294.5t331.5 98.5q163 0 249.5 -75.5t86.5 -213.5
q0 -44 -23 -149h-323q20 110 20 141q0 51 -43 51q-76 0 -76 -127q0 -52 20 -98.5t52.5 -82.5t71.5 -72.5t78.5 -76t72 -84.5t52.5 -107t20 -134q0 -211 -123 -324.5t-356 -113.5q-182 0 -270.5 77.5t-88.5 212.5q0 118 77 194.5t206 76.5q34 0 64.5 -7.5t44.5 -15.5z
M786 1536h-204l147 297h268z" />
    <glyph glyph-name="sacute" unicode="&#x15b;" horiz-adv-x="819" 
d="M850 684h-289q12 66 12 94q0 45 -38 45q-24 0 -40 -19t-16 -46q0 -38 35 -77t85 -75.5t100 -76.5t85 -95.5t35 -118.5q0 -82 -33 -146.5t-91 -104t-132 -60t-160 -20.5q-159 0 -248 64t-89 163q0 87 63.5 142t167.5 55q65 0 117 -23l-2 -10q-45 -53 -45 -99q0 -57 59 -57
q34 0 55 20t21 58q0 32 -24.5 65t-61.5 59.5t-80 61t-80 69t-61.5 83.5t-24.5 104q0 75 32.5 133.5t88 94t123.5 53.5t145 18q148 0 229.5 -62t81.5 -159q0 -63 -20 -133zM698 1223h-204l147 297h268z" />
    <glyph glyph-name="Scircumflex" unicode="&#x15c;" horiz-adv-x="931" 
d="M506 514l-2 -6q-25 -31 -39.5 -52.5t-27.5 -57.5t-13 -72q0 -37 17 -60.5t51 -23.5q40 0 64.5 26.5t33 62t8.5 81.5q0 43 -20 85.5t-52.5 80t-72 76.5t-78.5 82.5t-71.5 90t-52.5 106t-20 124.5q0 196 117.5 294.5t331.5 98.5q163 0 249.5 -75.5t86.5 -213.5
q0 -44 -23 -149h-323q20 110 20 141q0 51 -43 51q-76 0 -76 -127q0 -52 20 -98.5t52.5 -82.5t71.5 -72.5t78.5 -76t72 -84.5t52.5 -107t20 -134q0 -211 -123 -324.5t-356 -113.5q-182 0 -270.5 77.5t-88.5 212.5q0 118 77 194.5t206 76.5q34 0 64.5 -7.5t44.5 -15.5z
M1004 1536l-285 106l-330 -106l29 186l319 131h8l283 -151z" />
    <glyph glyph-name="scircumflex" unicode="&#x15d;" horiz-adv-x="819" 
d="M850 684h-289q12 66 12 94q0 45 -38 45q-24 0 -40 -19t-16 -46q0 -38 35 -77t85 -75.5t100 -76.5t85 -95.5t35 -118.5q0 -82 -33 -146.5t-91 -104t-132 -60t-160 -20.5q-159 0 -248 64t-89 163q0 87 63.5 142t167.5 55q65 0 117 -23l-2 -10q-45 -53 -45 -99q0 -57 59 -57
q34 0 55 20t21 58q0 32 -24.5 65t-61.5 59.5t-80 61t-80 69t-61.5 83.5t-24.5 104q0 75 32.5 133.5t88 94t123.5 53.5t145 18q148 0 229.5 -62t81.5 -159q0 -63 -20 -133zM901 1243l-285 107l-329 -107l28 187l320 131h8l283 -152z" />
    <glyph glyph-name="Scedilla" unicode="&#x15e;" horiz-adv-x="931" 
d="M522 -12l-53 -74q40 -20 65 -58.5t25 -91.5q0 -79 -55 -131.5t-139 -52.5q-73 0 -112.5 31t-39.5 78q0 23 8 39l4 2q27 -17 45 -17q30 0 46 23t16 57q0 65 -56 105l46 100q-112 25 -167 97.5t-55 178.5q0 118 77 194.5t206 76.5q34 0 64.5 -7.5t44.5 -15.5l14 -8l-2 -6
q-25 -31 -39.5 -52.5t-27.5 -57.5t-13 -72q0 -37 17 -60.5t51 -23.5q40 0 64.5 26.5t33 62t8.5 81.5q0 43 -20 85.5t-52.5 80t-72 76.5t-78.5 82.5t-71.5 90t-52.5 106t-20 124.5q0 196 117.5 294.5t331.5 98.5q163 0 249.5 -75.5t86.5 -213.5q0 -44 -23 -149h-323
q20 110 20 141q0 51 -43 51q-76 0 -76 -127q0 -52 20 -98.5t52.5 -82.5t71.5 -72.5t78.5 -76t72 -84.5t52.5 -107t20 -134q0 -196 -106.5 -308.5t-309.5 -125.5z" />
    <glyph glyph-name="scedilla" unicode="&#x15f;" horiz-adv-x="819" 
d="M518 -6l-59 -80q40 -20 65 -58.5t25 -91.5q0 -78 -55.5 -131t-139.5 -53q-73 0 -112 31t-39 78q0 23 8 39l4 2q27 -17 45 -17q30 0 46 23t16 57q0 65 -56 105l43 92q-117 18 -180 77.5t-63 143.5q0 87 63.5 142t167.5 55q65 0 117 -23l-2 -10q-45 -53 -45 -99
q0 -57 59 -57q34 0 55 20t21 58q0 32 -24.5 65t-61.5 59.5t-80 61t-80 69t-61.5 83.5t-24.5 104q0 75 32.5 133.5t88 94t123.5 53.5t145 18q148 0 229.5 -62t81.5 -159q0 -63 -20 -133h-289q12 66 12 94q0 45 -38 45q-24 0 -40 -19t-16 -46q0 -38 35 -77t85 -75.5t100 -76.5
t85 -95.5t35 -118.5q0 -134 -82.5 -215t-218.5 -106z" />
    <glyph glyph-name="Scaron" unicode="&#x160;" horiz-adv-x="931" 
d="M506 514l-2 -6q-25 -31 -39.5 -52.5t-27.5 -57.5t-13 -72q0 -37 17 -60.5t51 -23.5q40 0 64.5 26.5t33 62t8.5 81.5q0 43 -20 85.5t-52.5 80t-72 76.5t-78.5 82.5t-71.5 90t-52.5 106t-20 124.5q0 196 117.5 294.5t331.5 98.5q163 0 249.5 -75.5t86.5 -213.5
q0 -44 -23 -149h-323q20 110 20 141q0 51 -43 51q-76 0 -76 -127q0 -52 20 -98.5t52.5 -82.5t71.5 -72.5t78.5 -76t72 -84.5t52.5 -107t20 -134q0 -211 -123 -324.5t-356 -113.5q-182 0 -270.5 77.5t-88.5 212.5q0 118 77 194.5t206 76.5q34 0 64.5 -7.5t44.5 -15.5z
M1026 1667l-324 -131h-8l-278 152l26 165l279 -106l336 106z" />
    <glyph glyph-name="scaron" unicode="&#x161;" horiz-adv-x="819" 
d="M850 684h-289q12 66 12 94q0 45 -38 45q-24 0 -40 -19t-16 -46q0 -38 35 -77t85 -75.5t100 -76.5t85 -95.5t35 -118.5q0 -82 -33 -146.5t-91 -104t-132 -60t-160 -20.5q-159 0 -248 64t-89 163q0 87 63.5 142t167.5 55q65 0 117 -23l-2 -10q-45 -53 -45 -99q0 -57 59 -57
q34 0 55 20t21 58q0 32 -24.5 65t-61.5 59.5t-80 61t-80 69t-61.5 83.5t-24.5 104q0 75 32.5 133.5t88 94t123.5 53.5t145 18q148 0 229.5 -62t81.5 -159q0 -63 -20 -133zM936 1354l-324 -131h-8l-278 151l26 166l279 -106l336 106z" />
    <glyph glyph-name="Tcommaaccent" unicode="&#x162;" horiz-adv-x="860" 
d="M596 0h-332l187 1182h-234l41 256h799l-41 -256h-234zM109 -520l2 10q53 29 79 89t41 161l25 145h246l-17 -102q-27 -168 -115.5 -235.5t-260.5 -67.5z" />
    <glyph glyph-name="tcommaaccent" unicode="&#x163;" horiz-adv-x="724" 
d="M678 268h12q15 -35 15 -78q0 -89 -67.5 -144.5t-197.5 -55.5q-138 0 -200 71t-62 191q0 62 15.5 174.5t66.5 404.5h-117l31 197h117l49 305h315l-49 -305h211l-31 -197h-211q-18 -111 -35 -213.5t-25.5 -151.5t-15.5 -92.5t-9.5 -65t-2.5 -40.5q0 -63 66 -63q76 0 125 63
zM72 -520l2 10q53 29 79.5 89t41.5 161l24 145h246l-16 -102q-27 -168 -116 -235.5t-261 -67.5z" />
    <glyph glyph-name="Tcaron" unicode="&#x164;" horiz-adv-x="860" 
d="M596 0h-332l187 1182h-234l41 256h799l-41 -256h-234zM1001 1667l-323 -131h-8l-279 152l27 165l278 -106l336 106z" />
    <glyph glyph-name="tcaron" unicode="&#x165;" horiz-adv-x="765" 
d="M678 268h12q15 -35 15 -78q0 -89 -67.5 -144.5t-197.5 -55.5q-138 0 -200 71t-62 191q0 62 15.5 174.5t66.5 404.5h-117l31 197h117l49 305h315l-49 -305h211l-31 -197h-211q-18 -111 -35 -213.5t-25.5 -151.5t-15.5 -92.5t-9.5 -65t-2.5 -40.5q0 -63 66 -63q76 0 125 63
zM694 1133l2 10q53 29 79.5 89t41.5 161l25 145h245l-16 -102q-27 -168 -116 -235.5t-261 -67.5z" />
    <glyph glyph-name="Tbar" unicode="&#x166;" horiz-adv-x="860" 
d="M596 0h-332l103 649h-144l27 174h143l58 359h-234l41 256h799l-41 -256h-234l-57 -359h143l-26 -174h-144z" />
    <glyph glyph-name="tbar" unicode="&#x167;" horiz-adv-x="724" 
d="M678 268h12q15 -35 15 -78q0 -89 -67.5 -144.5t-197.5 -55.5q-138 0 -200 71t-62 191q0 73 25 242h-117l31 196h119q7 53 24 141h-117l31 197h117l49 305h315l-49 -305h211l-31 -197h-211l-22 -141h207l-31 -196h-209q-33 -176 -33 -226q0 -63 66 -63q76 0 125 63z" />
    <glyph glyph-name="Utilde" unicode="&#x168;" horiz-adv-x="1005" 
d="M649 346l174 1092h338l-170 -1071q-62 -379 -479 -379q-104 0 -181.5 26t-121 71t-64 99t-20.5 117q0 14 2 35t8.5 65.5t14 94t23 146.5t31 194.5t42.5 266t53 335.5h336q-23 -141 -45 -278t-36.5 -229t-29 -181t-23.5 -143.5t-17 -105t-12 -78.5t-7.5 -51.5t-4.5 -35
t-1 -19.5q0 -84 80 -84q93 0 110 113zM993 1868h90q-5 -122 -57 -193t-143 -71q-63 0 -146 27.5t-112 27.5q-56 0 -76 -68h-90q6 124 58 194t142 70q63 0 150.5 -27.5t118.5 -27.5q28 0 41 14t24 54z" />
    <glyph glyph-name="utilde" unicode="&#x169;" horiz-adv-x="901" 
d="M823 0h-305l23 152h-4q-63 -168 -234 -168q-90 0 -140 54t-50 159q0 52 86 586q24 153 39 245h315q-115 -713 -118 -752q-1 -10 -1 -16q0 -51 43 -51q28 0 49 21.5t27 58.5l117 739h315zM883 1532h90q-5 -122 -57.5 -193t-143.5 -71q-63 0 -146 27.5t-112 27.5
q-56 0 -76 -68h-90q6 124 58.5 194.5t142.5 70.5q63 0 150 -28t118 -28q29 0 42 14.5t24 53.5z" />
    <glyph glyph-name="Umacron" unicode="&#x16a;" horiz-adv-x="1005" 
d="M649 346l174 1092h338l-170 -1071q-62 -379 -479 -379q-104 0 -181.5 26t-121 71t-64 99t-20.5 117q0 14 2 35t8.5 65.5t14 94t23 146.5t31 194.5t42.5 266t53 335.5h336q-23 -141 -45 -278t-36.5 -229t-29 -181t-23.5 -143.5t-17 -105t-12 -78.5t-7.5 -51.5t-4.5 -35
t-1 -19.5q0 -84 80 -84q93 0 110 113zM1016 1559h-541l31 192h541z" />
    <glyph glyph-name="umacron" unicode="&#x16b;" horiz-adv-x="901" 
d="M823 0h-305l23 152h-4q-63 -168 -234 -168q-90 0 -140 54t-50 159q0 52 86 586q24 153 39 245h315q-115 -713 -118 -752q-1 -10 -1 -16q0 -51 43 -51q28 0 49 21.5t27 58.5l117 739h315zM930 1317h-541l31 192h541z" />
    <glyph glyph-name="Ubreve" unicode="&#x16c;" horiz-adv-x="1005" 
d="M649 346l174 1092h338l-170 -1071q-62 -379 -479 -379q-104 0 -181.5 26t-121 71t-64 99t-20.5 117q0 14 2 35t8.5 65.5t14 94t23 146.5t31 194.5t42.5 266t53 335.5h336q-23 -141 -45 -278t-36.5 -229t-29 -181t-23.5 -143.5t-17 -105t-12 -78.5t-7.5 -51.5t-4.5 -35
t-1 -19.5q0 -84 80 -84q93 0 110 113zM924 1812h186q-11 -129 -108 -209.5t-250 -80.5q-137 0 -219 66t-82 173q0 15 4 51h180q0 -63 28.5 -89.5t100.5 -26.5q74 0 111 28.5t49 87.5z" />
    <glyph glyph-name="ubreve" unicode="&#x16d;" horiz-adv-x="901" 
d="M823 0h-305l23 152h-4q-63 -168 -234 -168q-90 0 -140 54t-50 159q0 52 86 586q24 153 39 245h315q-115 -713 -118 -752q-1 -10 -1 -16q0 -51 43 -51q28 0 49 21.5t27 58.5l117 739h315zM831 1516h187q-11 -129 -108.5 -210t-250.5 -81q-137 0 -219 66t-82 173q0 16 4 52
h181q0 -63 28.5 -90t100.5 -27q74 0 110 28.5t49 88.5z" />
    <glyph glyph-name="Uring" unicode="&#x16e;" horiz-adv-x="1005" 
d="M649 346l174 1092h338l-170 -1071q-62 -379 -479 -379q-104 0 -181.5 26t-121 71t-64 99t-20.5 117q0 14 2 35t8.5 65.5t14 94t23 146.5t31 194.5t42.5 266t53 335.5h336q-23 -141 -45 -278t-36.5 -229t-29 -181t-23.5 -143.5t-17 -105t-12 -78.5t-7.5 -51.5t-4.5 -35
t-1 -19.5q0 -84 80 -84q93 0 110 113zM973 1712q0 -95 -64.5 -156t-158.5 -61q-84 0 -135.5 49t-51.5 135q0 94 68.5 155.5t154.5 61.5q87 0 137 -48.5t50 -135.5zM754 1606q45 0 72.5 30.5t27.5 69.5q0 80 -76 80q-40 0 -68 -29.5t-28 -70.5q0 -37 18 -58.5t54 -21.5z" />
    <glyph glyph-name="uring" unicode="&#x16f;" horiz-adv-x="901" 
d="M823 0h-305l23 152h-4q-63 -168 -234 -168q-90 0 -140 54t-50 159q0 52 86 586q24 153 39 245h315q-115 -713 -118 -752q-1 -10 -1 -16q0 -51 43 -51q28 0 49 21.5t27 58.5l117 739h315zM858 1366q0 -95 -64.5 -156t-158.5 -61q-83 0 -134.5 49t-51.5 135
q0 94 68.5 155.5t154.5 61.5q87 0 136.5 -48.5t49.5 -135.5zM639 1260q45 0 72.5 30.5t27.5 69.5q0 80 -75 80q-40 0 -68.5 -30t-28.5 -71q0 -37 18 -58t54 -21z" />
    <glyph glyph-name="Uhungarumlaut" unicode="&#x170;" horiz-adv-x="1005" 
d="M649 346l174 1092h338l-170 -1071q-62 -379 -479 -379q-104 0 -181.5 26t-121 71t-64 99t-20.5 117q0 14 2 35t8.5 65.5t14 94t23 146.5t31 194.5t42.5 266t53 335.5h336q-23 -141 -45 -278t-36.5 -229t-29 -181t-23.5 -143.5t-17 -105t-12 -78.5t-7.5 -51.5t-4.5 -35
t-1 -19.5q0 -84 80 -84q93 0 110 113zM977 1536h-182l163 297h261zM684 1536h-178l117 297h241z" />
    <glyph glyph-name="uhungarumlaut" unicode="&#x171;" horiz-adv-x="901" 
d="M823 0h-305l23 152h-4q-63 -168 -234 -168q-90 0 -140 54t-50 159q0 52 86 586q24 153 39 245h315q-115 -713 -118 -752q-1 -10 -1 -16q0 -51 43 -51q28 0 49 21.5t27 58.5l117 739h315zM860 1223h-182l164 297h260zM567 1223h-178l117 297h242z" />
    <glyph glyph-name="Uogonek" unicode="&#x172;" horiz-adv-x="1005" 
d="M653 -215l19 -12q-21 -86 -87.5 -138.5t-166.5 -52.5q-85 0 -132.5 40.5t-47.5 103.5q0 159 211 264q-87 7 -151.5 36t-101 72.5t-54 94t-17.5 108.5q0 14 2 35t8.5 65.5t14 94t23 146.5t31 194.5t42.5 266t53 335.5h336q-23 -141 -45 -278t-36.5 -229t-29 -181
t-23.5 -143.5t-17 -105t-12 -78.5t-7.5 -51.5t-4.5 -35t-1 -19.5q0 -84 80 -84q93 0 110 113l174 1092h338l-170 -1071q-56 -339 -397 -375q-117 -108 -117 -197q0 -26 14.5 -41.5t40.5 -15.5q68 0 121 47z" />
    <glyph glyph-name="uogonek" unicode="&#x173;" horiz-adv-x="901" 
d="M799 -215l18 -12q-21 -85 -89.5 -138t-164.5 -53q-92 0 -136 43t-44 113q0 160 233 262q-79 28 -79 111q0 13 4 41h-4q-70 -168 -234 -168q-90 0 -140 54t-50 159q0 52 86 586q24 153 39 245h315q-115 -713 -118 -752q-1 -10 -1 -16q0 -51 43 -51q28 0 49 21.5t27 58.5
l117 739h315l-162 -1028q-200 -95 -200 -205q0 -26 14.5 -41.5t40.5 -15.5q68 0 121 47z" />
    <glyph glyph-name="Wcircumflex" unicode="&#x174;" horiz-adv-x="1540" 
d="M1272 0h-326l-37 823l-284 -823h-326q-25 1063 -25 1182q0 47 -38 47q-27 0 -48 -25l-6 2q-8 16 -8 41q0 89 58 145t155 56q116 0 166.5 -57.5t50.5 -167.5q0 -122 -39 -693l299 908h215l82 -912l223 912h326zM1321 1536l-285 106l-329 -106l28 186l320 131h8l283 -151z
" />
    <glyph glyph-name="wcircumflex" unicode="&#x175;" horiz-adv-x="1284" 
d="M1036 0h-291l-20 559l-215 -559h-281l-39 772q0 47 -38 47q-27 0 -48 -24l-6 2q-4 32 0 67q12 80 67 128t144 48q106 0 151.5 -65t43.5 -191l-2 -274q33 78 99.5 270t88.5 248h238l26 -516l150 516h319zM1141 1243l-285 107l-330 -107l29 187l319 131h9l282 -152z" />
    <glyph glyph-name="Ycircumflex" unicode="&#x176;" horiz-adv-x="968" 
d="M651 0h-336l88 567l-106 615q-5 26 -13 36.5t-26 10.5q-26 0 -47 -25l-6 2q-8 20 -8 43q0 89 51.5 144t146.5 55q111 0 159 -58t54 -196l15 -293h8l207 537h333l-432 -871zM1036 1536l-284 106l-330 -106l29 186l319 131h8l283 -151z" />
    <glyph glyph-name="ycircumflex" unicode="&#x177;" horiz-adv-x="962" 
d="M569 -373h-299l162 404q-96 15 -137 81.5t-43 202.5q-6 371 -8 467q0 35 -31 35q-26 0 -53 -39h-17q0 130 67 195t163 65q86 0 138 -43t52 -137q0 -115 -14 -295.5t-14 -218.5q0 -29 18 -29l231 713h310zM1006 1243l-285 107l-330 -107l29 187l319 131h9l282 -152z" />
    <glyph glyph-name="Ydieresis" unicode="&#x178;" horiz-adv-x="968" 
d="M651 0h-336l88 567l-106 615q-5 26 -13 36.5t-26 10.5q-26 0 -47 -25l-6 2q-8 20 -8 43q0 89 51.5 144t146.5 55q111 0 159 -58t54 -196l15 -293h8l207 537h333l-432 -871zM684 1683q0 -63 -46 -109t-116 -46q-57 0 -90 35t-33 92q0 63 46 108t114 45q59 0 92 -33.5
t33 -91.5zM1108 1683q0 -63 -46 -109t-116 -46q-57 0 -90 35t-33 92q0 63 46 108t114 45q59 0 92 -33.5t33 -91.5z" />
    <glyph glyph-name="Zacute" unicode="&#x179;" horiz-adv-x="882" 
d="M768 352h10q52 -12 83.5 -58.5t31.5 -109.5q0 -92 -58 -144t-159 -52q-56 0 -117 27t-113.5 54t-87.5 27q-42 0 -65 -26.5t-23 -69.5h-245q0 117 26.5 195t69.5 143l549 844h-410l41 256h754l-35 -217l-602 -922l2 -2q27 27 76 27q26 0 83 -26t89 -26q35 0 63 21t37 59z
M791 1536h-205l147 297h268z" />
    <glyph glyph-name="zacute" unicode="&#x17a;" horiz-adv-x="782" 
d="M711 324h8q34 -15 57 -54.5t23 -83.5q0 -90 -54.5 -143t-158.5 -53q-49 0 -102.5 25.5t-96.5 51t-68 25.5q-28 0 -46.5 -25t-18.5 -67h-240q0 150 97 274l395 527h-311l36 227h654l-27 -172l-440 -569q25 20 55 20q38 0 84.5 -19.5t71.5 -19.5q65 0 82 56zM733 1223h-205
l148 297h268z" />
    <glyph glyph-name="Zdotaccent" unicode="&#x17b;" horiz-adv-x="882" 
d="M768 352h10q52 -12 83.5 -58.5t31.5 -109.5q0 -92 -58 -144t-159 -52q-56 0 -117 27t-113.5 54t-87.5 27q-42 0 -65 -26.5t-23 -69.5h-245q0 117 26.5 195t69.5 143l549 844h-410l41 256h754l-35 -217l-602 -922l2 -2q27 27 76 27q26 0 83 -26t89 -26q35 0 63 21t37 59z
M858 1694q0 -66 -52 -113t-132 -47q-68 0 -107 40t-39 103q0 64 50 111t133 47q73 0 110 -38t37 -103z" />
    <glyph glyph-name="zdotaccent" unicode="&#x17c;" horiz-adv-x="782" 
d="M711 324h8q34 -15 57 -54.5t23 -83.5q0 -90 -54.5 -143t-158.5 -53q-49 0 -102.5 25.5t-96.5 51t-68 25.5q-28 0 -46.5 -25t-18.5 -67h-240q0 150 97 274l395 527h-311l36 227h654l-27 -172l-440 -569q25 20 55 20q38 0 84.5 -19.5t71.5 -19.5q65 0 82 56zM788 1360
q0 -66 -52 -113t-132 -47q-67 0 -106 40t-39 103q0 64 50 111t132 47q73 0 110 -38t37 -103z" />
    <glyph glyph-name="Zcaron" unicode="&#x17d;" horiz-adv-x="882" 
d="M768 352h10q52 -12 83.5 -58.5t31.5 -109.5q0 -92 -58 -144t-159 -52q-56 0 -117 27t-113.5 54t-87.5 27q-42 0 -65 -26.5t-23 -69.5h-245q0 117 26.5 195t69.5 143l549 844h-410l41 256h754l-35 -217l-602 -922l2 -2q27 27 76 27q26 0 83 -26t89 -26q35 0 63 21t37 59z
M1028 1667l-323 -131h-9l-278 152l26 165l279 -106l336 106z" />
    <glyph glyph-name="zcaron" unicode="&#x17e;" horiz-adv-x="782" 
d="M711 324h8q34 -15 57 -54.5t23 -83.5q0 -90 -54.5 -143t-158.5 -53q-49 0 -102.5 25.5t-96.5 51t-68 25.5q-28 0 -46.5 -25t-18.5 -67h-240q0 150 97 274l395 527h-311l36 227h654l-27 -172l-440 -569q25 20 55 20q38 0 84.5 -19.5t71.5 -19.5q65 0 82 56zM967 1354
l-324 -131h-8l-279 151l27 166l279 -106l335 106z" />
    <glyph glyph-name="longs" unicode="&#x17f;" horiz-adv-x="661" 
d="M453 0h-316l133 852h-137l29 176h137l16 107q27 165 128 254.5t270 89.5q136 0 203 -63t67 -152q0 -80 -52 -132.5t-149 -52.5q-50 0 -94 23l2 10q4 3 10 9t16.5 29.5t10.5 51.5q0 43 -33 43q-48 0 -63 -110z" />
    <glyph glyph-name="florin" unicode="&#x192;" horiz-adv-x="921" 
d="M178 -88l182 729h-163l24 156h178l86 333q37 151 142 235.5t264 84.5q201 0 276 -162l-166 -104q-3 5 -8 13.5t-24 22t-41 13.5q-42 0 -71.5 -20.5t-45.5 -77.5l-90 -338h184l-24 -156h-203l-209 -780q-37 -134 -127 -210.5t-209 -76.5q-108 0 -160.5 43t-52.5 109
q0 56 35 100l10 2q10 -19 18 -29t26 -19t44 -9q88 0 125 141z" />
    <glyph glyph-name="AEacute" unicode="&#x1fc;" horiz-adv-x="1392" 
d="M717 506l47 463h-8l-197 -463h158zM1262 367h8q66 -5 101.5 -43t35.5 -105q0 -100 -95 -167.5t-263 -67.5q-174 0 -263.5 76t-89.5 212v29h-223l-127 -301h-336l664 1438h868l-41 -256h-403l-29 -318h358l-36 -237h-340l-27 -303q0 -55 17.5 -75t52.5 -20q48 0 97 41
t71 97zM1182 1536h-205l147 297h269z" />
    <glyph glyph-name="aeacute" unicode="&#x1fd;" horiz-adv-x="1265" 
d="M905 741l-28 -182q73 15 114 75.5t41 145.5q0 54 -47 54q-30 0 -51.5 -23.5t-28.5 -69.5zM1247 332l-10 -70q-45 -278 -393 -278q-316 0 -316 217q0 26 35 250q-74 -6 -120 -60.5t-46 -136.5q0 -24 8 -38.5t21 -14.5q25 0 41 32h8q7 -7 14 -27.5t7 -41.5
q0 -77 -50.5 -128.5t-150.5 -51.5q-96 0 -156.5 59.5t-60.5 163.5q0 356 506 364l30 199v12q0 41 -39 41q-20 0 -34 -14t-19 -37l-18 -113h-316l19 111q20 122 117 195t266 73q71 0 131.5 -19.5t85.5 -55.5q30 35 98.5 55t132.5 20q139 0 219 -67.5t80 -188.5
q0 -96 -38 -166t-106.5 -110t-152.5 -59t-188 -21q-27 -175 -27 -190q0 -48 47 -48q49 0 60 70l12 74h303zM907 1223h-205l148 297h268z" />
    <glyph glyph-name="Oslashacute" unicode="&#x1fe;" 
d="M844 1536h-205l147 297h269zM203 -70h-107l101 172q-64 82 -64 213q0 18 2 43.5t8 69t11.5 81t17 110t19.5 124t25 154.5t28 172q61 381 477 381q148 0 237 -61l84 143h111l-123 -209q66 -87 66 -215q0 -24 -2 -53.5t-7.5 -73t-11 -82t-16.5 -107t-19.5 -120
t-24.5 -149.5t-28 -169q-31 -194 -143 -282t-334 -88q-149 0 -242 55zM498 612l262 443q4 40 4 49q0 100 -72 100q-97 0 -119 -139q-18 -115 -44.5 -270.5t-30.5 -182.5zM725 811l-262 -442q-2 -16 -2 -43q0 -97 76 -97q41 0 73.5 34t42.5 99q71 442 72 449z" />
    <glyph glyph-name="oslashacute" unicode="&#x1ff;" horiz-adv-x="899" 
d="M731 1223h-205l148 297h268zM264 -70h-86l60 111q-115 77 -115 227q0 64 67 475q23 139 133 217t289 78q84 0 146 -24l51 94h90l-70 -131q109 -77 109 -221q0 -51 -70 -477q-22 -142 -125 -218.5t-284 -76.5q-86 0 -154 22zM457 451l172 319q-3 53 -51 53q-58 0 -72 -78z
M602 557l-170 -315q6 -43 49 -43q31 0 49 17.5t25 62.5q23 129 47 278z" />
    <glyph glyph-name="Scommaaccent" unicode="&#x218;" horiz-adv-x="931" 
d="M506 514l-2 -6q-25 -31 -39.5 -52.5t-27.5 -57.5t-13 -72q0 -37 17 -60.5t51 -23.5q40 0 64.5 26.5t33 62t8.5 81.5q0 43 -20 85.5t-52.5 80t-72 76.5t-78.5 82.5t-71.5 90t-52.5 106t-20 124.5q0 196 117.5 294.5t331.5 98.5q163 0 249.5 -75.5t86.5 -213.5
q0 -44 -23 -149h-323q20 110 20 141q0 51 -43 51q-76 0 -76 -127q0 -52 20 -98.5t52.5 -82.5t71.5 -72.5t78.5 -76t72 -84.5t52.5 -107t20 -134q0 -211 -123 -324.5t-356 -113.5q-182 0 -270.5 77.5t-88.5 212.5q0 118 77 194.5t206 76.5q34 0 64.5 -7.5t44.5 -15.5z
M119 -520l2 10q53 29 79.5 89t41.5 161l24 145h246l-16 -102q-27 -168 -116 -235.5t-261 -67.5z" />
    <glyph glyph-name="scommaaccent" unicode="&#x219;" horiz-adv-x="819" 
d="M850 684h-289q12 66 12 94q0 45 -38 45q-24 0 -40 -19t-16 -46q0 -38 35 -77t85 -75.5t100 -76.5t85 -95.5t35 -118.5q0 -82 -33 -146.5t-91 -104t-132 -60t-160 -20.5q-159 0 -248 64t-89 163q0 87 63.5 142t167.5 55q65 0 117 -23l-2 -10q-45 -53 -45 -99q0 -57 59 -57
q34 0 55 20t21 58q0 32 -24.5 65t-61.5 59.5t-80 61t-80 69t-61.5 83.5t-24.5 104q0 75 32.5 133.5t88 94t123.5 53.5t145 18q148 0 229.5 -62t81.5 -159q0 -63 -20 -133zM127 -520l2 10q53 29 79.5 89t41.5 161l24 145h246l-16 -102q-27 -168 -116 -235.5t-261 -67.5z" />
    <glyph glyph-name="uni021A" unicode="&#x21a;" horiz-adv-x="860" 
d="M596 0h-332l187 1182h-234l41 256h799l-41 -256h-234zM117 -520l2 10q53 29 79.5 89t41.5 161l24 145h246l-16 -102q-27 -168 -116 -235.5t-261 -67.5z" />
    <glyph glyph-name="uni021B" unicode="&#x21b;" horiz-adv-x="724" 
d="M678 268h12q15 -35 15 -78q0 -89 -67.5 -144.5t-197.5 -55.5q-138 0 -200 71t-62 191q0 62 15.5 174.5t66.5 404.5h-117l31 197h117l49 305h315l-49 -305h211l-31 -197h-211q-18 -111 -35 -213.5t-25.5 -151.5t-15.5 -92.5t-9.5 -65t-2.5 -40.5q0 -63 66 -63q76 0 125 63
zM115 -520l2 10q53 29 79.5 89t41.5 161l24 145h246l-16 -102q-27 -168 -116 -235.5t-261 -67.5z" />
    <glyph glyph-name="dotlessj" unicode="&#x237;" horiz-adv-x="514" 
d="M-133 -291l4 23q98 0 158.5 60.5t76.5 160.5l170 1075h316l-166 -1053q-50 -311 -379 -311q-88 0 -180 45z" />
    <glyph glyph-name="circumflex" unicode="&#x2c6;" 
d="M975 1243l-285 107l-330 -107l29 187l320 131h8l282 -152z" />
    <glyph glyph-name="caron" unicode="&#x2c7;" 
d="M991 1354l-323 -131h-9l-278 151l27 166l278 -106l336 106z" />
    <glyph glyph-name="uni02C9" unicode="&#x2c9;" 
d="M948 1317h-540l30 192h541z" />
    <glyph glyph-name="breve" unicode="&#x2d8;" 
d="M852 1516h186q-11 -129 -108 -210t-250 -81q-137 0 -219 66t-82 173q0 16 4 52h180q0 -63 28.5 -90t100.5 -27q74 0 110.5 29t49.5 88z" />
    <glyph glyph-name="dotaccent" unicode="&#x2d9;" 
d="M840 1360q0 -66 -52.5 -113t-132.5 -47q-67 0 -106 40t-39 103q0 64 50 111t132 47q73 0 110.5 -38t37.5 -103z" />
    <glyph glyph-name="ring" unicode="&#x2da;" 
d="M889 1366q0 -95 -64.5 -156t-158.5 -61q-84 0 -135.5 49t-51.5 135q0 94 68.5 155.5t154.5 61.5q87 0 137 -48.5t50 -135.5zM670 1260q45 0 72.5 30.5t27.5 69.5q0 80 -76 80q-40 0 -68 -30t-28 -71q0 -37 18 -58t54 -21z" />
    <glyph glyph-name="ogonek" unicode="&#x2db;" 
d="M649 -215l19 -12q-21 -86 -87.5 -138.5t-166.5 -52.5q-85 0 -133 41t-48 103q0 166 234 274h133q-37 -34 -59.5 -58.5t-45 -66t-22.5 -80.5q0 -26 14.5 -41.5t40.5 -15.5q68 0 121 47z" />
    <glyph glyph-name="tilde" unicode="&#x2dc;" 
d="M913 1532h91q-5 -122 -57.5 -193t-143.5 -71q-63 0 -146 27.5t-112 27.5q-56 0 -76 -68h-90q6 124 58.5 194.5t142.5 70.5q63 0 150 -28t118 -28q28 0 41 14t24 54z" />
    <glyph glyph-name="hungarumlaut" unicode="&#x2dd;" 
d="M909 1223h-182l164 297h260zM616 1223h-178l117 297h242z" />
    <glyph glyph-name="uni037E" unicode="&#x37e;" horiz-adv-x="571" 
d="M-10 -205v10q52 28 79.5 97t43.5 174l20 125h227l-12 -82q-52 -324 -358 -324zM334 750q-54 0 -88.5 34.5t-34.5 85.5q0 66 45.5 112t114.5 46q55 0 89 -34t34 -85q0 -67 -43.5 -113t-116.5 -46z" />
    <glyph glyph-name="tonos" unicode="&#x384;" 
d="M735 1223h-205l148 297h289z" />
    <glyph glyph-name="dieresistonos" unicode="&#x385;" 
d="M700 1223h-192l119 297h268zM479 1366q0 -54 -43.5 -98.5t-109.5 -44.5q-54 0 -84.5 36t-30.5 91q0 56 44.5 98.5t106.5 42.5q55 0 86 -34.5t31 -90.5zM1157 1366q0 -54 -43.5 -98.5t-109.5 -44.5q-54 0 -84.5 36t-30.5 91q0 56 44.5 98.5t106.5 42.5q55 0 86 -34.5
t31 -90.5z" />
    <glyph glyph-name="anoteleia" unicode="&#x387;" horiz-adv-x="555" 
d="M293 563q-54 0 -88.5 35t-34.5 86q0 66 45.5 112t114.5 46q54 0 88.5 -34t34.5 -85q0 -67 -43.5 -113.5t-116.5 -46.5z" />
    <glyph glyph-name="uni03A9" unicode="&#x3a9;" horiz-adv-x="989" 
d="M905 0h-383l27 172q73 75 118 213t83 381l32 205q19 104 15.5 161.5t-27.5 77t-82 19.5q-79 0 -118.5 -53t-65.5 -207l-31 -203q-74 -454 14 -594l-26 -172h-385l30 205h193l2 8q-26 52 -36.5 73.5t-31.5 71.5t-28 85.5t-15.5 89t-5.5 111t13 122.5l30 203
q18 110 56 195.5t86.5 138.5t110.5 87t123 47t128 13q86 0 152.5 -26.5t114.5 -84t62.5 -149t-3.5 -221.5l-31 -203q-7 -46 -16.5 -87.5t-25.5 -81.5t-25.5 -68t-33 -66.5t-32 -55.5t-37.5 -55.5t-34.5 -46t-38.5 -49t-35 -43.5l-3 -8h191z" />
    <glyph glyph-name="pi" unicode="&#x3c0;" horiz-adv-x="966" 
d="M864 0h-250q-6 21 -6 63q0 73 21 205l94 592h-137l-135 -860h-256l135 860q-43 0 -73 -5.5t-44 -12t-39 -21.5q-2 -1 -5 -3t-5 -3q0 119 74.5 194.5t193.5 75.5h670l-35 -225h-88l-94 -590q-23 -149 -23 -223q0 -33 2 -47z" />
    <glyph glyph-name="Wgrave" unicode="&#x1e80;" horiz-adv-x="1540" 
d="M1272 0h-326l-37 823l-284 -823h-326q-25 1063 -25 1182q0 47 -38 47q-27 0 -48 -25l-6 2q-8 16 -8 41q0 89 58 145t155 56q116 0 166.5 -57.5t50.5 -167.5q0 -122 -39 -693l299 908h215l82 -912l223 912h326zM1108 1536h-205l-137 297h248z" />
    <glyph glyph-name="wgrave" unicode="&#x1e81;" horiz-adv-x="1284" 
d="M1036 0h-291l-20 559l-215 -559h-281l-39 772q0 47 -38 47q-27 0 -48 -24l-6 2q-4 32 0 67q12 80 67 128t144 48q106 0 151.5 -65t43.5 -191l-2 -274q33 78 99.5 270t88.5 248h238l26 -516l150 516h319zM920 1200h-205l-137 297h247z" />
    <glyph glyph-name="Wacute" unicode="&#x1e82;" horiz-adv-x="1540" 
d="M1272 0h-326l-37 823l-284 -823h-326q-25 1063 -25 1182q0 47 -38 47q-27 0 -48 -25l-6 2q-8 16 -8 41q0 89 58 145t155 56q116 0 166.5 -57.5t50.5 -167.5q0 -122 -39 -693l299 908h215l82 -912l223 912h326zM1128 1546h-204l147 297h268z" />
    <glyph glyph-name="wacute" unicode="&#x1e83;" horiz-adv-x="1284" 
d="M1036 0h-291l-20 559l-215 -559h-281l-39 772q0 47 -38 47q-27 0 -48 -24l-6 2q-4 32 0 67q12 80 67 128t144 48q106 0 151.5 -65t43.5 -191l-2 -274q33 78 99.5 270t88.5 248h238l26 -516l150 516h319zM967 1223h-205l147 297h269z" />
    <glyph glyph-name="Wdieresis" unicode="&#x1e84;" horiz-adv-x="1540" 
d="M1272 0h-326l-37 823l-284 -823h-326q-25 1063 -25 1182q0 47 -38 47q-27 0 -48 -25l-6 2q-8 16 -8 41q0 89 58 145t155 56q116 0 166.5 -57.5t50.5 -167.5q0 -122 -39 -693l299 908h215l82 -912l223 912h326zM965 1683q0 -63 -46 -109t-116 -46q-57 0 -90 35t-33 92
q0 63 46 108t114 45q59 0 92 -33.5t33 -91.5zM1389 1683q0 -63 -46 -109t-116 -46q-57 0 -90 35t-33 92q0 63 46 108t114 45q59 0 92 -33.5t33 -91.5z" />
    <glyph glyph-name="wdieresis" unicode="&#x1e85;" horiz-adv-x="1284" 
d="M1036 0h-291l-20 559l-215 -559h-281l-39 772q0 47 -38 47q-27 0 -48 -24l-6 2q-4 32 0 67q12 80 67 128t144 48q106 0 151.5 -65t43.5 -191l-2 -274q33 78 99.5 270t88.5 248h238l26 -516l150 516h319zM788 1376q0 -63 -45.5 -109t-115.5 -46q-57 0 -90 35t-33 92
q0 63 46 108t114 45q59 0 91.5 -33.5t32.5 -91.5zM1212 1376q0 -63 -45.5 -109t-115.5 -46q-57 0 -90 35t-33 92q0 63 45.5 108t113.5 45q59 0 92 -33.5t33 -91.5z" />
    <glyph glyph-name="Ygrave" unicode="&#x1ef2;" horiz-adv-x="968" 
d="M651 0h-336l88 567l-106 615q-5 26 -13 36.5t-26 10.5q-26 0 -47 -25l-6 2q-8 20 -8 43q0 89 51.5 144t146.5 55q111 0 159 -58t54 -196l15 -293h8l207 537h333l-432 -871zM799 1538h-205l-137 297h248z" />
    <glyph glyph-name="ygrave" unicode="&#x1ef3;" horiz-adv-x="962" 
d="M569 -373h-299l162 404q-96 15 -137 81.5t-43 202.5q-6 371 -8 467q0 35 -31 35q-26 0 -53 -39h-17q0 130 67 195t163 65q86 0 138 -43t52 -137q0 -115 -14 -295.5t-14 -218.5q0 -29 18 -29l231 713h310zM733 1223h-205l-137 297h248z" />
    <glyph glyph-name="figuredash" unicode="&#x2012;" horiz-adv-x="647" 
d="M657 621h-495l26 159h496z" />
    <glyph glyph-name="endash" unicode="&#x2013;" horiz-adv-x="1064" 
d="M1114 451h-1024l23 135h1024z" />
    <glyph glyph-name="emdash" unicode="&#x2014;" horiz-adv-x="2088" 
d="M2138 451h-2048l23 135h2048z" />
    <glyph glyph-name="quoteleft" unicode="&#x2018;" horiz-adv-x="450" 
d="M487 1073h-258l189 393h182z" />
    <glyph glyph-name="quoteright" unicode="&#x2019;" horiz-adv-x="450" 
d="M432 1073h-182l112 393h259z" />
    <glyph glyph-name="quotesinglbase" unicode="&#x201a;" horiz-adv-x="450" 
d="M240 -152h-183l111 394h258z" />
    <glyph glyph-name="quotedblleft" unicode="&#x201c;" horiz-adv-x="737" 
d="M467 1073h-238l189 393h182zM774 1073h-237l168 393h182z" />
    <glyph glyph-name="quotedblright" unicode="&#x201d;" horiz-adv-x="737" 
d="M719 1073h-182l133 393h237zM432 1073h-182l112 393h238z" />
    <glyph glyph-name="quotedblbase" unicode="&#x201e;" horiz-adv-x="737" 
d="M526 -152h-182l131 394h238zM240 -152h-183l111 394h238z" />
    <glyph glyph-name="dagger" unicode="&#x2020;" horiz-adv-x="798" 
d="M510 0h-221l143 911h-231l30 193h232l59 375h221l-59 -375h231l-30 -193h-232z" />
    <glyph glyph-name="daggerdbl" unicode="&#x2021;" horiz-adv-x="798" 
d="M510 0h-221l65 418h-231l31 192h231l47 301h-231l30 193h232l59 375h221l-59 -375h231l-30 -193h-232l-47 -301h232l-31 -192h-232z" />
    <glyph glyph-name="bullet" unicode="&#x2022;" horiz-adv-x="1067" 
d="M879 467h-158l-133 -115l-96 115h-156l24 156l-98 116l135 117l25 156h153l136 116l98 -116h156l-25 -156l98 -117l-135 -116z" />
    <glyph glyph-name="onedotenleader" unicode="&#x2024;" horiz-adv-x="421" 
d="M213 -6q-54 0 -88.5 35t-34.5 86q0 66 45.5 111.5t114.5 45.5q55 0 89 -34t34 -84q0 -67 -43.5 -113.5t-116.5 -46.5z" />
    <glyph glyph-name="twodotenleader" unicode="&#x2025;" horiz-adv-x="856" 
d="M213 -6q-54 0 -88.5 35t-34.5 86q0 66 45.5 111.5t114.5 45.5q55 0 89 -34t34 -84q0 -67 -43.5 -113.5t-116.5 -46.5zM647 -6q-54 0 -88.5 35t-34.5 86q0 66 45.5 111.5t114.5 45.5q55 0 89 -34t34 -84q0 -67 -43.5 -113.5t-116.5 -46.5z" />
    <glyph glyph-name="ellipsis" unicode="&#x2026;" horiz-adv-x="1335" 
d="M213 -6q-54 0 -88.5 35t-34.5 86q0 66 45.5 111.5t114.5 45.5q55 0 89 -34t34 -84q0 -67 -43.5 -113.5t-116.5 -46.5zM668 -6q-54 0 -88.5 35t-34.5 86q0 66 45.5 111.5t114.5 45.5q55 0 88.5 -34t33.5 -84q0 -67 -43 -113.5t-116 -46.5zM1126 -6q-54 0 -88 35t-34 86
q0 66 45 111.5t114 45.5q55 0 89 -34t34 -84q0 -67 -43.5 -113.5t-116.5 -46.5z" />
    <glyph glyph-name="perthousand" unicode="&#x2030;" horiz-adv-x="1933" 
d="M551 -12h-164l696 1462h164zM662 762q-15 -94 -82 -144.5t-170 -50.5q-95 0 -146 43.5t-51 132.5q0 18 7 60l28.5 171t44.5 286q14 90 79.5 140t170.5 50q96 0 146 -48.5t50 -135.5q0 -12 -1 -27t-4.5 -39.5t-7.5 -49t-11 -68t-13.5 -83t-18 -108t-21.5 -129.5zM479 772
q76 452 76 483t-35 31q-41 0 -47 -41q-76 -450 -76 -483q0 -31 35 -31q41 0 47 41zM1335 182q-15 -94 -82 -144t-170 -50q-196 0 -196 176q0 18 7 60t28.5 170.5t44.5 285.5q14 90 79.5 140t170.5 50q96 0 146 -48.5t50 -135.5q0 -16 -2.5 -39t-9.5 -68.5t-14.5 -88.5
t-23 -135t-28.5 -173zM1153 193q76 452 76 483t-35 31q-41 0 -47 -41q-76 -451 -76 -484q0 -30 35 -30q41 0 47 41zM1868 182q-15 -94 -82 -144t-170 -50q-95 0 -146 43.5t-51 132.5q0 18 7 60t28.5 170.5t44.5 285.5q14 90 79.5 140t170.5 50q96 0 146.5 -48.5t50.5 -135.5
q0 -16 -2.5 -39t-9.5 -68.5t-14.5 -88.5t-23 -135t-28.5 -173zM1686 193q75 452 75 483t-35 31q-41 0 -47 -41q-75 -451 -75 -484q0 -30 34 -30q42 0 48 41z" />
    <glyph glyph-name="guilsinglleft" unicode="&#x2039;" horiz-adv-x="520" 
d="M463 113h-209l-98 405l227 406h209l-191 -426z" />
    <glyph glyph-name="guilsinglright" unicode="&#x203a;" horiz-adv-x="520" 
d="M299 113h-209l195 426l-66 385h209l100 -406z" />
    <glyph glyph-name="exclamdbl" unicode="&#x203c;" horiz-adv-x="962" 
d="M397 379h-151q47 671 104 1059h279q-29 -173 -87 -437.5t-102 -442.5zM418 139q0 -65 -43 -108t-113 -43q-52 0 -85.5 32.5t-33.5 79.5q0 64 44 107t112 43q52 0 85.5 -32t33.5 -79zM836 379h-152q47 671 104 1059h279q-29 -173 -87 -437.5t-101 -442.5zM856 139
q0 -65 -43 -108t-113 -43q-52 0 -85 32.5t-33 79.5q0 64 43.5 107t111.5 43q52 0 85.5 -32t33.5 -79z" />
    <glyph glyph-name="fraction" unicode="&#x2044;" horiz-adv-x="393" 
d="M16 -12h-141l752 1503h147z" />
    <glyph glyph-name="zerosuperior" unicode="&#x2070;" horiz-adv-x="573" 
d="M465 1137q14 0 21 12.5t12 42.5q84 526 84 539q0 28 -19 28q-14 0 -21.5 -11.5t-11.5 -41.5q-84 -518 -84 -543q0 -26 19 -26zM586 1901q114 0 164.5 -47.5t50.5 -139.5q0 -10 -1.5 -24t-8 -51.5t-14 -84.5t-24 -147.5t-34.5 -216.5q-17 -103 -81 -148t-192 -45
q-107 0 -161 45.5t-54 131.5q0 44 80 536q17 103 84.5 147t190.5 44z" />
    <glyph glyph-name="foursuperior" unicode="&#x2074;" horiz-adv-x="573" 
d="M647 1008h-215l25 161h-234l19 113l372 598h170l-88 -557h54l-25 -154h-53zM481 1323l23 150h-6l-90 -150h73z" />
    <glyph glyph-name="fivesuperior" unicode="&#x2075;" horiz-adv-x="573" 
d="M463 1264v-7q-39 -39 -39 -90q0 -37 25 -37q19 0 28 16.5t17 59.5q32 199 32 217q0 25 -16 25q-13 0 -23 -14.5t-18 -55.5h-205l80 502h455l-25 -156h-250l-30 -194h6q14 29 46.5 48t74.5 19q67 0 97 -29.5t30 -88.5q0 -56 -33 -265q-17 -115 -85.5 -169t-193.5 -54
q-107 0 -163 45t-56 109q0 65 45 103t121 38q40 0 80 -22z" />
    <glyph glyph-name="sixsuperior" unicode="&#x2076;" horiz-adv-x="573" 
d="M780 1626h-217q15 92 15 103q0 24 -15 24q-11 0 -16 -11t-10 -40l-35 -221h4q14 29 44.5 48t67.5 19q63 0 92 -32.5t29 -102.5q0 -56 -24 -215q-17 -107 -81.5 -157t-180.5 -50q-217 0 -217 195q0 48 71 487q21 122 90.5 171.5t188.5 49.5q101 0 156 -42.5t55 -118.5
q0 -34 -17 -107zM467 1130q28 0 39 70q22 137 22 162q0 29 -20 29q-26 0 -37 -68q-22 -144 -22 -162q0 -31 18 -31z" />
    <glyph glyph-name="sevensuperior" unicode="&#x2077;" horiz-adv-x="573" 
d="M516 1008h-221l283 716h-254l24 156h473l-18 -119z" />
    <glyph glyph-name="eightsuperior" unicode="&#x2078;" horiz-adv-x="573" 
d="M649 1468v-4q84 -34 84 -147q0 -22 -16 -131q-17 -104 -82 -149.5t-191 -45.5q-106 0 -160.5 50t-54.5 135q0 36 17 133q12 72 46.5 106.5t88.5 48.5v4q-36 13 -58 48.5t-22 89.5q0 39 14 104q40 184 265 184q101 0 157 -48.5t56 -131.5q0 -22 -15 -98
q-14 -69 -45.5 -101t-83.5 -47zM463 1130q15 0 22 14.5t13 53.5q20 132 20 133q0 33 -16 49q-29 -23 -35 -69q-23 -148 -23 -154q0 -27 19 -27zM528 1548q11 5 17 14t8 18.5t6 33.5q19 112 19 121q0 18 -17 18q-13 0 -18 -8t-8 -31q-21 -134 -21 -135q0 -23 14 -31z" />
    <glyph glyph-name="ninesuperior" unicode="&#x2079;" horiz-adv-x="573" 
d="M516 1495q13 0 22 12.5t15 48.5q22 144 22 168q0 31 -18 31q-29 0 -39 -67q-22 -146 -22 -158q0 -35 20 -35zM494 1198l32 207h-4q-14 -29 -45.5 -48.5t-68.5 -19.5q-60 0 -92.5 33.5t-32.5 99.5q0 63 26 213q37 211 266 211q106 0 161 -49t55 -135q0 -10 -1 -22
t-3.5 -33t-6 -42.5t-10 -64t-13 -82t-18 -112.5t-22.5 -142q-19 -109 -81.5 -165t-193.5 -56q-107 0 -161 42t-54 106q0 61 42.5 98t109.5 37q28 0 58.5 -10t37.5 -27v-2q-37 -26 -37 -78q0 -27 21 -27q14 0 21.5 15t13.5 53z" />
    <glyph glyph-name="parenleftsuperior" unicode="&#x207d;" horiz-adv-x="573" 
d="M575 809h-155q-82 220 -82 481q0 118 16 211q29 182 108.5 365t176.5 325h156q-82 -138 -144.5 -321t-91.5 -369q-24 -163 -24 -323q0 -226 40 -369z" />
    <glyph glyph-name="parenrightsuperior" unicode="&#x207e;" horiz-adv-x="573" 
d="M403 809h-155q81 140 144.5 324.5t92.5 367.5q25 166 25 320q0 216 -43 370h156q84 -233 84 -487q0 -87 -17 -203q-30 -183 -110.5 -368.5t-176.5 -323.5z" />
    <glyph glyph-name="nsuperior" unicode="&#x207f;" horiz-adv-x="589" 
d="M416 897l2 12q49 0 67 26t31 103l37 240q9 41 0.5 63.5t-37.5 22.5q-54 0 -67 -94l-62 -387h-197l95 598h186l-16 -99h4q20 55 66.5 81t99.5 26q76 0 110.5 -42t22.5 -122l-43 -270q-15 -95 -67 -138t-146 -43q-19 0 -46 6.5t-40 16.5z" />
    <glyph glyph-name="zeroinferior" unicode="&#x2080;" horiz-adv-x="573" 
d="M236 -317q14 0 20.5 12t11.5 43q84 526 84 538q0 29 -18 29q-14 0 -21.5 -11.5t-11.5 -41.5q-84 -518 -84 -543q0 -26 19 -26zM356 446q114 0 164.5 -47t50.5 -139q0 -10 -1.5 -24t-8 -51.5t-14 -84.5t-24 -147.5t-34.5 -216.5q-17 -103 -80.5 -148t-191.5 -45
q-215 0 -215 176q0 45 80 537q17 103 84 146.5t190 43.5z" />
    <glyph glyph-name="oneinferior" unicode="&#x2081;" horiz-adv-x="573" 
d="M356 -440h-225l102 655l-124 -47l22 149l215 115h148z" />
    <glyph glyph-name="twoinferior" unicode="&#x2082;" horiz-adv-x="573" 
d="M457 -440h-486l21 141l248 309q35 46 56 78.5t40.5 83t19.5 98.5q0 31 -20 31q-25 0 -31 -47l-16 -102h-209l14 106q12 91 76 139.5t176 48.5q106 0 163.5 -49.5t57.5 -136.5q0 -129 -114 -270l-224 -269h252z" />
    <glyph glyph-name="threeinferior" unicode="&#x2083;" horiz-adv-x="573" 
d="M231 -66h-67l24 154h64q39 0 55.5 12.5t22.5 53.5q18 119 18 129q0 22 -16 22q-22 0 -29 -51l-10 -72h-219l10 72q13 92 83.5 142t186.5 50q100 0 153.5 -49.5t53.5 -138.5q0 -26 -8 -76q-14 -77 -45 -112t-102 -52v-2q96 -22 96 -147q0 -53 -10 -111q-35 -215 -279 -215
q-103 0 -159 47.5t-56 118.5t43 113.5t119 42.5q35 0 63 -15t35 -38q-51 -34 -51 -88q0 -41 26 -41q25 0 35 61q21 126 21 139q0 27 -12.5 39t-45.5 12z" />
    <glyph glyph-name="fourinferior" unicode="&#x2084;" horiz-adv-x="573" 
d="M420 -440h-215l24 161h-233l18 113l373 598h170l-88 -557h53l-24 -154h-54zM254 -125l22 150h-6l-90 -150h74z" />
    <glyph glyph-name="fiveinferior" unicode="&#x2085;" horiz-adv-x="573" 
d="M236 -184v-6q-39 -39 -39 -91q0 -36 24 -36q19 0 28 16t17 59q33 205 33 217q0 25 -16 25q-13 0 -23 -14.5t-18 -55.5h-205l80 502h454l-24 -156h-250l-31 -194h6q14 29 46.5 48.5t74.5 19.5q67 0 97 -30t30 -89q0 -55 -33 -264q-17 -115 -85 -169.5t-193 -54.5
q-107 0 -163 45t-56 109q0 65 45 103t121 38q40 0 80 -22z" />
    <glyph glyph-name="sixinferior" unicode="&#x2086;" horiz-adv-x="573" 
d="M553 178h-217q14 86 14 103q0 24 -14 24q-11 0 -16.5 -11.5t-10.5 -39.5l-35 -221h5q14 29 44.5 48t67.5 19q63 0 92 -32.5t29 -102.5q0 -49 -25 -215q-17 -107 -81.5 -157t-180.5 -50q-217 0 -217 195q0 9 1 20t3 28t4 33.5t6 44t7.5 50.5t10 62.5t11.5 70.5t13.5 83.5
t15.5 94.5q21 122 90 171.5t188 49.5q101 0 156 -42.5t55 -118.5q0 -38 -16 -107zM240 -317q29 0 39 69q22 137 22 162q0 29 -20 29q-26 0 -37 -68q-23 -151 -23 -162q0 -30 19 -30z" />
    <glyph glyph-name="seveninferior" unicode="&#x2087;" horiz-adv-x="573" 
d="M289 -440h-221l282 716h-254l25 156h473l-19 -119z" />
    <glyph glyph-name="eightinferior" unicode="&#x2088;" horiz-adv-x="573" 
d="M422 20v-4q84 -34 84 -147q0 -15 -17 -131q-17 -105 -81.5 -150t-190.5 -45q-106 0 -160.5 50t-54.5 135q0 42 16 133q12 72 47 106.5t89 48.5v4q-36 13 -58 48.5t-22 89.5q0 39 14 104q40 184 264 184q101 0 157 -48.5t56 -131.5q0 -27 -14 -98q-14 -69 -45.5 -101
t-83.5 -47zM236 -317q15 0 21.5 13.5t12.5 53.5q5 33 9 59t6 38t3.5 20.5t2 11t0.5 4.5q0 32 -17 49q-28 -22 -34 -69q-23 -148 -23 -154q0 -26 19 -26zM301 100q11 5 17 14t8 18.5t6 33.5q18 106 18 121q0 18 -16 18q-13 0 -18.5 -8.5t-8.5 -30.5q-20 -128 -20 -135
q0 -23 14 -31z" />
    <glyph glyph-name="nineinferior" unicode="&#x2089;" horiz-adv-x="573" 
d="M289 47q27 0 37 62q22 144 22 167q0 31 -18 31q-29 0 -39 -67q-23 -152 -23 -158q0 -35 21 -35zM266 -250l33 207h-4q-14 -29 -46 -48.5t-69 -19.5q-60 0 -92.5 34t-32.5 100q0 57 27 213q37 210 266 210q106 0 160.5 -49t54.5 -135q0 -10 -1 -22t-3.5 -33t-6 -42.5
t-10 -64t-13 -82t-18 -112.5t-22.5 -142q-19 -109 -81 -165t-193 -56q-107 0 -161 42t-54 106q0 61 42.5 98t109.5 37q28 0 58.5 -10t37.5 -27v-2q-37 -26 -37 -78q0 -26 20 -26q14 0 21.5 14.5t13.5 52.5z" />
    <glyph glyph-name="parenleftinferior" unicode="&#x208d;" horiz-adv-x="573" 
d="M336 -721h-156q-82 220 -82 481q0 112 17 211q29 183 108.5 366.5t175.5 324.5h156q-82 -138 -144.5 -321.5t-91.5 -369.5q-24 -164 -24 -323q0 -222 41 -369z" />
    <glyph glyph-name="parenrightinferior" unicode="&#x208e;" horiz-adv-x="573" 
d="M164 -721h-156q81 141 145 325t93 367q24 159 24 320q0 217 -43 371h156q84 -233 84 -488q0 -94 -16 -203q-30 -183 -110.5 -368.5t-176.5 -323.5z" />
    <glyph glyph-name="colonmonetary" unicode="&#x20a1;" horiz-adv-x="921" 
d="M647 -172h-145l22 158q-4 0 -13 -1t-13 -1q-40 0 -74 6l-25 -162h-145l35 201q-142 78 -142 262q0 49 6.5 104.5t23.5 153t22 131.5q41 258 241 328l29 174h145l-22 -146q16 2 51 2q17 0 49 -4l25 148h145l-28 -189q108 -63 108 -190q0 -51 -29 -185h-301q4 27 11 64.5
t11.5 63.5t4.5 42q0 35 -35 35q-16 0 -26.5 -4.5t-23.5 -18t-23 -45t-17 -79.5q-53 -339 -53 -363q0 -84 69 -84q47 0 89 47t63 134h8q91 0 132.5 -35t41.5 -107q0 -91 -48.5 -156.5t-137.5 -99.5z" />
    <glyph glyph-name="cruzeiro" unicode="&#x20a2;" horiz-adv-x="952" 
d="M801 397h8q61 0 100 -40.5t39 -96.5q0 -84 -62 -147t-159 -94t-213 -31q-192 0 -288.5 92t-96.5 246q0 43 109 727q15 91 46 159.5t87 124t148.5 84.5t219.5 29q176 0 254 -76.5t78 -208.5q0 -49 -29 -200h-315q25 152 25 165q0 34 -18.5 54t-47.5 20q-44 0 -73.5 -42
t-45.5 -144q-102 -635 -102 -670q0 -57 31 -88l90 574h211l-21 -136h4q19 71 53.5 103.5t96.5 32.5q88 0 88 -101q0 -39 -18.5 -80.5t-43.5 -70.5q-38 26 -77 26q-55 0 -86.5 -40t-44.5 -128l-27 -161q22 14 46 48t34 70z" />
    <glyph glyph-name="franc" unicode="&#x20a3;" horiz-adv-x="921" 
d="M512 0h-336l70 451h-135l24 155h135l23 135h-135l24 156h135l86 541h678l-41 -256h-342l-45 -285h183l-25 -156h-182l-23 -135h182l-24 -155h-182z" />
    <glyph glyph-name="lira" unicode="&#x20a4;" horiz-adv-x="921" 
d="M901 0h-860l35 225h92l35 226h-92l24 155h92l19 115h-92l24 156h92l27 161q17 100 44.5 170t79 127.5t135.5 86t202 28.5q161 0 241 -73.5t80 -196.5q0 -68 -20 -174h-322q21 132 21 149q0 49 -41 49q-39 0 -55 -40t-33 -148l-23 -139h225l-24 -156h-225l-19 -115h225
l-24 -155h-225l-35 -226h432z" />
    <glyph glyph-name="mill" unicode="&#x20a5;" horiz-adv-x="1331" 
d="M856 20l4 21q46 11 73.5 55t45.5 152q76 480 76 510q0 53 -43 53q-28 0 -48.5 -22.5t-27.5 -65.5l-113 -723h-248l-94 -176h-123l172 321l95 592q2 10 2 27q0 26 -10.5 36.5t-32.5 10.5q-31 0 -51.5 -25t-26.5 -63l-113 -723h-315l162 1028h303l-27 -166h12
q27 75 91.5 125.5t146.5 50.5q147 0 147 -172l193 359h123l-103 -195q36 8 56 8q103 0 147.5 -55.5t44.5 -157.5q0 -59 -86 -600q-21 -132 -92 -183.5t-213 -51.5q-72 0 -127 30z" />
    <glyph glyph-name="naira" unicode="&#x20a6;" horiz-adv-x="1044" 
d="M946 0h-246l-106 492h-107l-77 -492h-312l78 492h-82l17 114h82l22 135h-82l19 115h81l93 582h295l133 -594l94 594h326l-93 -582h82l-18 -115h-82l-23 -135h82l-16 -114h-82zM567 606l-37 168l-26 -168h63z" />
    <glyph glyph-name="peseta" unicode="&#x20a7;" horiz-adv-x="2242" 
d="M2271 684h-289q13 72 13 94q0 45 -39 45q-24 0 -39.5 -19t-15.5 -46q0 -38 35 -77t85 -75.5t100 -76.5t85 -95.5t35 -118.5q0 -82 -33 -146.5t-91 -104t-132 -60t-160 -20.5q-208 0 -295 104q-61 -98 -236 -98q-138 0 -200 71t-62 191q0 62 15.5 174.5t66.5 404.5h-67
q-54 -142 -165 -227.5t-255 -85.5q-51 0 -107 12l2 17q73 31 125 108t74 163.5t22 172.5q0 85 -38 137t-111 52l-186 -1180h-336l227 1438h262q248 0 387 -94t139 -293v-23h58l49 305h315l-49 -305h150l-31 -197h-149q-18 -112 -35 -213.5t-26 -151.5t-16 -93t-9.5 -65
t-2.5 -40q0 -63 66 -63q44 0 80 22q6 80 69 130.5t162 50.5q65 0 117 -23l-2 -10q-45 -53 -45 -99q0 -57 59 -57q34 0 55 20t21 58q0 32 -24.5 65t-61.5 59.5t-80 61t-80 69t-61.5 83.5t-24.5 104q0 75 32.5 133.5t88 94t123.5 53.5t145 18q148 0 230 -62t82 -159
q0 -59 -21 -133z" />
    <glyph glyph-name="rupee" unicode="&#x20a8;" horiz-adv-x="1679" 
d="M1722 684h-288q12 66 12 94q0 45 -39 45q-24 0 -39.5 -19t-15.5 -46q0 -38 35 -77t85 -75.5t100 -76.5t85 -95.5t35 -118.5q0 -82 -33 -146.5t-91 -104t-132 -60t-160 -20.5q-266 0 -318 145q-25 -58 -74 -101.5t-130 -43.5q-62 0 -104.5 16.5t-63 47t-28 63t-7.5 75.5
q0 34 21.5 142t21.5 159q0 47 -19 66.5t-57 19.5l-90 -573h-336l146 922h-78l18 122h78l63 394h283q220 0 332.5 -90.5t112.5 -255.5q0 -24 -3 -48h74l-18 -122h-82q-40 -106 -125 -174.5t-174 -73.5l-2 -6q98 -6 148 -63.5t50 -145.5q0 -39 -15 -114.5t-15 -104.5
q0 -41 28 -41q14 0 25 14q0 86 64 140.5t167 54.5q65 0 117 -23l-2 -10q-45 -53 -45 -99q0 -57 59 -57q34 0 55 20t21 58q0 32 -24.5 65t-61.5 59.5t-80 61t-80 69t-61.5 83.5t-24.5 104q0 99 57 168.5t143 100t190 30.5q148 0 229.5 -62t81.5 -159q0 -59 -21 -133zM686 922
h-113l-26 -162q94 11 139 162zM707 1044v17q0 123 -91 137l-24 -154h115z" />
    <glyph glyph-name="won" unicode="&#x20a9;" horiz-adv-x="1372" 
d="M1130 0h-358l39 774h-8l-207 -774h-363l19 565h-123l21 123h108l4 135h-92l20 123h78l21 492h295l-37 -492h108l136 492h272l-23 -492h95l104 492h301l-141 -492h82l-21 -123h-96l-39 -135h115l-21 -123h-129zM584 688l37 135h-84l-11 -135h58zM1079 688l27 135h-72
l-4 -135h49zM516 442l33 123h-33l-8 -123h8zM1028 444l25 121h-29l-4 -121h8z" />
    <glyph glyph-name="dong" unicode="&#x20ab;" horiz-adv-x="901" 
d="M823 0h-301l21 131h-8q-32 -61 -88.5 -101t-129.5 -40q-204 0 -204 229q0 20 2.5 45.5t10 76t15 97.5t24.5 152t32 198q21 135 82.5 192.5t166.5 57.5q86 0 132 -52.5t49 -135.5l-4 -33q-18 6 -41 6q-65 0 -74 -57q-14 -91 -28.5 -179.5t-22 -133.5t-14 -86t-9 -63.5
t-2.5 -39.5q0 -69 51 -69q22 0 41 15.5t23 43.5l149 950h-127l21 135h129l22 140h316l-23 -140h78l-20 -135h-78zM776 -240h-674l21 136h674z" />
    <glyph glyph-name="Euro" unicode="&#x20ac;" horiz-adv-x="921" 
d="M723 420h8q99 0 149 -47.5t50 -126.5q0 -69 -31.5 -121t-86 -81t-118 -42.5t-137.5 -13.5q-346 0 -346 309q0 57 22 195h-114l24 155h115l16 115h-114l24 156h115l20 120q11 63 24.5 110.5t36 97.5t56.5 84.5t81 63t113 42.5t150 14q152 0 227.5 -74t75.5 -194
q0 -28 -20 -154h-303q18 112 18 131q0 45 -39 45t-55 -40t-33 -148l-16 -98h203l-25 -156h-203l-16 -115h203l-25 -155h-203q-22 -135 -22 -175q0 -84 59 -84q50 0 72 40.5t45 146.5z" />
    <glyph glyph-name="litre" unicode="&#x2113;" horiz-adv-x="765" 
d="M657 305h27q-21 -133 -98 -221t-189 -88q-92 0 -142 58t-50 165q0 46 14 135q-16 -15 -50.5 -44t-47.5 -40l-53 117q16 14 58 50t73 64t51 50l96 608q31 197 101 282t202 85q89 0 142 -63.5t53 -176.5q0 -101 -28 -202t-80.5 -196t-111.5 -176.5t-137 -170.5
q-38 -244 -38 -277q0 -88 63 -88q47 0 84 34t61 95zM586 1157l-62 -393q79 110 127.5 248.5t48.5 273.5q0 47 -11 73.5t-30 26.5q-12 0 -19 -6.5t-15.5 -31.5t-17 -68.5t-21.5 -122.5z" />
    <glyph glyph-name="afii61352" unicode="&#x2116;" horiz-adv-x="1630" 
d="M1622 438h-496l23 144h496zM1694 897q-30 -186 -275 -186q-113 0 -166 46t-53 120q0 15 7.5 63t22.5 140.5t25 160.5q12 84 77.5 136.5t201.5 52.5q112 0 165.5 -45.5t53.5 -118.5q0 -26 -59 -369zM1438 846q46 0 59 76q49 305 49 325q0 47 -28 47q-29 0 -43.5 -18.5
t-20.5 -56.5q-49 -305 -49 -326q0 -47 33 -47zM920 0h-240l-176 768l-121 -768h-311l227 1438h285l143 -594l94 594h326z" />
    <glyph glyph-name="trademark" unicode="&#x2122;" horiz-adv-x="1380" 
d="M575 768h-225l80 508h-141l26 162h510l-26 -162h-144zM1409 768h-219l57 362h-4l-76 -149h-86l-43 149h-6l-57 -362h-219l106 670h193l92 -250l160 250h209z" />
    <glyph glyph-name="Omega" unicode="&#x2126;" horiz-adv-x="989" 
d="M905 0h-379l27 162q72 75 114 206.5t81 376.5q49 305 49 355q0 68 -23.5 98.5t-85.5 30.5q-56 0 -86.5 -15.5t-55 -68t-40.5 -156.5q-68 -436 -68 -573q0 -163 54 -250l-27 -166h-389l30 205h193l2 8q-54 97 -83.5 196.5t-29.5 229.5q0 68 43 350q17 111 53 194t81.5 133
t106 81t119 42t126.5 11q166 0 258 -85.5t92 -266.5q0 -69 -41 -332q-24 -152 -93.5 -282t-184.5 -271l-3 -8h191z" />
    <glyph glyph-name="estimated" unicode="&#x212e;" horiz-adv-x="1802" 
d="M1448 311h129q-103 -145 -283.5 -233t-412.5 -88q-201 0 -350.5 85.5t-224.5 228t-75 321.5q0 170 70.5 328.5t189.5 276t286.5 188.5t352.5 71q190 0 341.5 -82.5t235 -223t83.5 -311.5q0 -64 -23 -176h-1204l-67 -436q54 -86 162.5 -137t236.5 -51q180 0 331.5 69.5
t221.5 169.5zM1454 776l72 459q-52 79 -164 125.5t-244 46.5q-135 0 -261.5 -47t-207.5 -125l-71 -459h876z" />
    <glyph glyph-name="onethird" unicode="&#x2153;" horiz-adv-x="1253" 
d="M981 375h-68l25 153h63q39 0 55.5 12.5t22.5 53.5q19 126 19 129q0 22 -17 22q-21 0 -28 -51l-11 -71h-219l11 71q13 92 83.5 142.5t186.5 50.5q100 0 153.5 -50t53.5 -139q0 -25 -8 -75q-14 -77 -45 -112t-103 -52v-2q96 -22 96 -148q0 -52 -10 -110q-35 -215 -278 -215
q-103 0 -159 47.5t-56 118.5t42.5 113t118.5 42q35 0 63.5 -15t35.5 -38q-52 -35 -52 -88q0 -19 7.5 -30t19.5 -11q25 0 35 61q20 120 20 140q0 27 -12 39t-45 12zM522 610h-225l102 656l-125 -47l23 149l215 115h147zM401 -12h-141l752 1503h147z" />
    <glyph glyph-name="twothirds" unicode="&#x2154;" horiz-adv-x="1331" 
d="M651 672h-485l20 141l248 309q26 34 42.5 58t36 59t29 71t9.5 72q0 31 -21 31q-24 0 -30 -47l-17 -102h-209l15 106q12 91 76 140t176 49q106 0 163.5 -50t57.5 -137q0 -128 -115 -270l-223 -268h252zM1059 375h-68l25 153h63q39 0 55.5 12.5t22.5 53.5q19 126 19 129
q0 22 -17 22q-22 0 -29 -51l-10 -71h-219l10 71q13 92 84 142.5t187 50.5q100 0 153.5 -50t53.5 -139q0 -19 -9 -75q-14 -77 -45 -112t-102 -52v-2q96 -22 96 -148q0 -52 -10 -110q-35 -215 -279 -215q-103 0 -159 47.5t-56 118.5t43 113t119 42q35 0 63 -15t35 -38
q-51 -34 -51 -88q0 -19 7.5 -30t19.5 -11q25 0 35 61q20 120 20 140q0 27 -12 39t-45 12zM510 -12h-141l751 1503h148z" />
    <glyph glyph-name="oneeighth" unicode="&#x215b;" horiz-adv-x="1275" 
d="M1194 461v-4q84 -34 84 -148q0 -22 -16 -131q-17 -104 -82 -149t-191 -45q-106 0 -160.5 49.5t-54.5 134.5q0 36 17 133q13 72 47.5 107t87.5 49v4q-36 13 -58 48t-22 89q0 39 14 104q40 185 264 185q101 0 157 -48.5t56 -131.5q0 -28 -14 -99q-14 -69 -45.5 -100.5
t-83.5 -46.5zM1008 123q15 0 21.5 13.5t12.5 53.5q5 33 9 59t6 38.5t3.5 21t2 11t0.5 4.5q0 33 -16 49q-29 -22 -35 -70q-23 -148 -23 -153q0 -27 19 -27zM1073 541q16 7 21 19t10 46q18 106 18 121q0 18 -16 18q-13 0 -18.5 -8t-8.5 -30q-20 -128 -20 -136q0 -22 14 -30z
M522 610h-225l102 656l-125 -47l23 149l215 115h147zM401 -12h-141l752 1503h147z" />
    <glyph glyph-name="threeeighths" unicode="&#x215c;" horiz-adv-x="1312" 
d="M426 1047h-68l25 153h63q39 0 55.5 12.5t22.5 53.5q19 126 19 129q0 22 -17 22q-21 0 -28 -51l-11 -72h-219l11 72q13 92 83.5 142.5t186.5 50.5q100 0 153.5 -50t53.5 -139q0 -26 -8 -76q-14 -77 -45 -112t-103 -52v-2q96 -22 96 -147q0 -53 -10 -111
q-35 -215 -278 -215q-103 0 -159 47.5t-56 118.5t42.5 113.5t118.5 42.5q35 0 63.5 -15t35.5 -38q-52 -35 -52 -88q0 -19 7.5 -30t19.5 -11q25 0 35 61q20 120 20 139q0 27 -12 39.5t-45 12.5zM1231 461v-4q84 -34 84 -148q0 -15 -17 -131q-17 -104 -81.5 -149t-190.5 -45
q-106 0 -160.5 49.5t-54.5 134.5q0 42 16 133q12 72 47 107t89 49v4q-36 13 -58 48t-22 89q0 39 14 104q40 185 264 185q101 0 157 -48.5t56 -131.5q0 -28 -14 -99q-14 -69 -45.5 -100.5t-83.5 -46.5zM1044 123q15 0 22 14t13 53q5 33 9 59t6 38.5t3.5 21t2 11t0.5 4.5
q0 32 -17 49q-28 -22 -34 -70q-23 -148 -23 -153q0 -27 18 -27zM1110 541q16 7 21 19t10 46q18 106 18 121q0 18 -16 18q-13 0 -18.5 -8t-8.5 -30q-20 -128 -20 -136q0 -22 14 -30zM457 -12h-142l752 1503h147z" />
    <glyph glyph-name="fiveeighths" unicode="&#x215d;" horiz-adv-x="1302" 
d="M1221 461v-4q84 -34 84 -148q0 -15 -17 -131q-17 -104 -81.5 -149t-190.5 -45q-106 0 -160.5 49.5t-54.5 134.5q0 42 16 133q13 72 47.5 107t87.5 49v4q-36 13 -58 48t-22 89q0 35 15 104q40 185 264 185q101 0 157 -48.5t56 -131.5q0 -28 -14 -99q-14 -69 -45.5 -100.5
t-83.5 -46.5zM1034 123q15 0 22 14t13 53q5 33 9 59t6 38.5t3.5 21t2 11t0.5 4.5q0 32 -17 49q-29 -22 -35 -70q-22 -142 -22 -153q0 -27 18 -27zM1100 541q16 7 20.5 18.5t9.5 46.5q19 112 19 121q0 18 -16 18q-13 0 -18.5 -8t-8.5 -30q-21 -134 -21 -136q0 -21 15 -30z
M430 928v-6q-39 -39 -39 -91q0 -36 25 -36q19 0 28 16t17 59q33 205 33 217q0 25 -17 25q-13 0 -23 -14.5t-18 -55.5h-205l80 502h455l-25 -155h-249l-31 -195h6q14 29 46.5 48.5t74.5 19.5q67 0 97 -30t30 -89q0 -55 -33 -264q-17 -115 -85.5 -169.5t-193.5 -54.5
q-107 0 -163 45t-56 109q0 65 45 103t121 38q40 0 80 -22zM461 -12h-142l752 1503h148z" />
    <glyph glyph-name="seveneighths" unicode="&#x215e;" horiz-adv-x="1282" 
d="M1200 461v-4q84 -34 84 -148q0 -22 -16 -131q-17 -104 -82 -149t-191 -45q-106 0 -160.5 49.5t-54.5 134.5q0 36 17 133q13 72 47.5 107t87.5 49v4q-36 13 -58 48t-22 89q0 39 14 104q40 185 264 185q101 0 157 -48.5t56 -131.5q0 -28 -14 -99q-14 -69 -45.5 -100.5
t-83.5 -46.5zM1014 123q15 0 22 14t13 53q20 132 20 134q0 33 -16 49q-29 -22 -35 -70q-23 -148 -23 -153q0 -27 19 -27zM1079 541q16 7 21 19t10 46q18 106 18 121q0 18 -16 18q-13 0 -18.5 -8t-8.5 -30q-20 -128 -20 -136q0 -22 14 -30zM471 672h-221l282 717h-253l24 155
h473l-18 -119zM401 -12h-141l752 1503h147z" />
    <glyph glyph-name="arrowleft" unicode="&#x2190;" horiz-adv-x="1024" 
d="M557 113h-8l-447 610l447 610h8v-370h365l-152 -242l152 -242h-365v-366z" />
    <glyph glyph-name="arrowup" unicode="&#x2191;" horiz-adv-x="1024" 
d="M745 307l-241 152l-242 -152v375h-252v8l492 549l512 -549v-8h-269v-375z" />
    <glyph glyph-name="arrowright" unicode="&#x2192;" horiz-adv-x="1024" 
d="M475 113h-8v366h-365l152 242l-152 242h365v370h8l447 -610z" />
    <glyph glyph-name="arrowdown" unicode="&#x2193;" horiz-adv-x="1024" 
d="M502 307l-492 549v8h252v375l242 -152l241 152v-375h269v-8z" />
    <glyph glyph-name="partialdiff" unicode="&#x2202;" horiz-adv-x="862" 
d="M739 874h2q27 180 27 265q0 254 -170 254q-94 0 -209 -133l-88 112q140 174 334 174q41 0 79 -10.5t78 -38.5t68.5 -71.5t47 -115.5t18.5 -165q0 -158 -86 -664q-41 -247 -143 -364t-269 -117q-120 0 -194 94t-74 266q0 72 13.5 155.5t45 174t77 163t117.5 120t158 47.5
q72 0 115 -42.5t53 -103.5zM446 158q84 0 143.5 83.5t94.5 276.5q31 169 31 189q0 60 -43.5 109.5t-100.5 49.5t-102.5 -37t-72 -92.5t-44 -126.5t-24 -131t-6.5 -114q0 -107 34 -157t90 -50z" />
    <glyph glyph-name="uni2206" unicode="&#x2206;" horiz-adv-x="954" 
d="M887 0h-817l22 152l506 1286h227l86 -1282zM690 188l-43 682l2 226h-2l-67 -226l-261 -682h371z" />
    <glyph glyph-name="product" unicode="&#x220f;" horiz-adv-x="1110" 
d="M893 -201h-266l223 1411h-193l-223 -1411h-266l223 1411h-133l37 226h991l-37 -226h-133z" />
    <glyph glyph-name="summation" unicode="&#x2211;" horiz-adv-x="841" 
d="M750 -242h-725l26 168l467 705l-244 633l29 172h684l-31 -193h-450l-2 -6l235 -631l-426 -624v-7h471z" />
    <glyph glyph-name="minus" unicode="&#x2212;" horiz-adv-x="1269" 
d="M1221 432h-1037l27 172h1036z" />
    <glyph glyph-name="uni2215" unicode="&#x2215;" horiz-adv-x="382" 
d="M18 -12h-120l700 1503h123z" />
    <glyph glyph-name="uni2219" unicode="&#x2219;" horiz-adv-x="421" 
d="M289 475q-54 0 -88.5 35t-34.5 86q0 66 45.5 112t114.5 46q54 0 88.5 -34t34.5 -85q0 -67 -43.5 -113.5t-116.5 -46.5z" />
    <glyph glyph-name="radical" unicode="&#x221a;" horiz-adv-x="1114" 
d="M668 -297h-277l-88 934h-188l26 172h379l27 -598v-254h2q2 8 15 62t26.5 106.5t23.5 85.5l455 1489h256z" />
    <glyph glyph-name="infinity" unicode="&#x221e;" horiz-adv-x="1366" 
d="M797 735q73 72 145.5 110t169.5 38q111 0 183.5 -72t72.5 -188q0 -135 -88.5 -225.5t-230.5 -90.5q-87 0 -156.5 32.5t-128.5 117.5q-78 -75 -154 -112.5t-170 -37.5q-113 0 -185.5 75.5t-72.5 195.5q0 132 93 218.5t235 86.5q181 0 287 -148zM653 592q-54 96 -147 96
q-46 0 -75.5 -27.5t-29.5 -74.5q0 -38 24 -61t62 -23q69 0 166 90zM895 594q40 -55 72.5 -73.5t79.5 -18.5q44 0 71 27.5t27 76.5q0 38 -22 60t-54 22q-37 0 -84.5 -27.5t-89.5 -66.5z" />
    <glyph glyph-name="integral" unicode="&#x222b;" horiz-adv-x="677" 
d="M-20 -315l53 196q49 -14 78 -14q20 0 37 13.5t30.5 40.5t24 55.5t20 70.5t15 72.5t12.5 73.5q28 177 71.5 508t71.5 503q84 537 414 537q26 0 59 -6.5t47 -14.5l-53 -190q-21 12 -67 12q-32 0 -58 -28.5t-44 -83t-30 -109.5t-24 -131q-27 -169 -69.5 -493.5t-69.5 -497.5
q-14 -89 -35 -164.5t-55 -146.5t-76.5 -121t-102.5 -79.5t-131 -29.5q-34 0 -69.5 8.5t-48.5 18.5z" />
    <glyph glyph-name="approxequal" unicode="&#x2248;" horiz-adv-x="1269" 
d="M1106 842h139q-20 -123 -108.5 -203t-204.5 -80q-51 0 -96 13t-79 31.5t-67 36.5t-73.5 31t-84.5 13q-56 0 -94 -34t-51 -87h-141q20 123 108.5 203t204.5 80q61 0 115.5 -19.5t88.5 -43t85 -43t108 -19.5q56 0 96 34t54 87zM1040 428h140q-20 -123 -109 -203t-205 -80
q-62 0 -117.5 19.5t-91 43t-86.5 43t-104 19.5q-56 0 -94 -33.5t-51 -86.5h-142q20 123 109 202.5t205 79.5q61 0 115.5 -19.5t88.5 -43t85 -43t108 -19.5q56 0 95.5 34t53.5 87z" />
    <glyph glyph-name="notequal" unicode="&#x2260;" horiz-adv-x="1269" 
d="M1186 219h-617l-149 -219h-133l145 219h-282l28 172h373l172 254h-506l29 172h596l143 213h145l-147 -213h299l-29 -172h-389l-174 -254h524z" />
    <glyph glyph-name="lessequal" unicode="&#x2264;" horiz-adv-x="1269" 
d="M1161 199l-960 395l24 156l1086 395l-31 -197l-758 -272l-2 -6l672 -275zM1137 0h-1035l25 168h1034z" />
    <glyph glyph-name="greaterequal" unicode="&#x2265;" horiz-adv-x="1269" 
d="M1223 594l-1084 -395l31 207l764 274l2 6l-678 272l31 187l958 -395zM1137 0h-1035l25 168h1034z" />
    <glyph glyph-name="triagup" unicode="&#x25b2;" horiz-adv-x="1316" 
d="M1225 379l-39 -96q-151 43 -531 43q-392 0 -528 -43l-35 98q194 231 327.5 409.5t170.5 241.5l37 62h55l18 -30t59 -88.5t103.5 -145t154 -199t208.5 -252.5z" />
    <glyph glyph-name="triagrt" unicode="&#x25ba;" horiz-adv-x="1316" 
d="M1139 713v-31q-30 -17 -87.5 -52.5t-249.5 -171.5t-401 -304q-16 4 -44 14t-44 14h2l-22 29q13 57 22 193.5t9 289.5q0 374 -39 504q8 3 22.5 9t25 9.5t17.5 4.5q5 1 23.5 7.5t27.5 8.5q150 -121 281 -219.5t211 -152.5t139 -91t83 -49z" />
    <glyph glyph-name="triagdn" unicode="&#x25bc;" horiz-adv-x="1316" 
d="M670 289h-15l-32 16q-17 28 -53 82t-173 235.5t-305 381.5q5 17 16.5 48.5t16.5 49.5q164 -45 530 -45q377 0 531 45l39 -98q-125 -144 -226.5 -271.5t-157 -206t-93 -136t-50.5 -81.5l-12 -24q-3 0 -8 2t-8 2z" />
    <glyph glyph-name="triaglf" unicode="&#x25c4;" horiz-adv-x="1316" 
d="M1026 190l-55 -16q-1 0 -25.5 -10t-38.5 -10q-151 121 -282.5 219.5t-211.5 152.5t-138.5 91t-82.5 49l-24 12l4 33q31 18 88.5 54.5t248.5 172t396 297.5l66 -18l55 -17q-43 -122 -43 -506q0 -382 43 -504z" />
    <glyph glyph-name="lozenge" unicode="&#x25ca;" horiz-adv-x="929" 
d="M539 -70h-183l-161 775l419 776h181l161 -776zM481 154h8q22 67 48 122l206 424l-67 420q-6 43 -6 135h-6q-24 -79 -54 -135l-202 -411l67 -428q11 -60 6 -127z" />
    <glyph glyph-name="commaaccent" unicode="&#xf6c3;" 
d="M203 -520l2 10q53 29 79.5 89t41.5 161l24 145h246l-16 -102q-27 -168 -116 -235.5t-261 -67.5z" />
    <glyph glyph-name="Acute" unicode="&#xf6c9;" 
d="M786 1546h-204l147 297h268z" />
    <glyph glyph-name="Caron" unicode="&#xf6ca;" 
d="M1044 1700l-323 -131h-8l-279 151l27 166l278 -106l336 106z" />
    <glyph glyph-name="Dieresis" unicode="&#xf6cb;" 
d="M662 1663q0 -63 -46 -109.5t-116 -46.5q-57 0 -90 35t-33 92q0 63 46 108.5t114 45.5q59 0 92 -33.5t33 -91.5zM1085 1663q0 -63 -45.5 -109.5t-115.5 -46.5q-57 0 -90 35t-33 92q0 63 46 108.5t114 45.5q59 0 91.5 -33.5t32.5 -91.5z" />
    <glyph glyph-name="DieresisAcute" unicode="&#xf6cc;" 
d="M748 1522h-193l119 297h268zM526 1665q0 -54 -43.5 -98.5t-109.5 -44.5q-54 0 -84.5 36t-30.5 91q0 56 45 98.5t107 42.5q55 0 85.5 -34.5t30.5 -90.5zM1204 1665q0 -54 -43.5 -98.5t-109.5 -44.5q-54 0 -84.5 36t-30.5 91q0 56 44.5 98.5t106.5 42.5q55 0 86 -34.5
t31 -90.5z" />
    <glyph glyph-name="DieresisGrave" unicode="&#xf6cd;" 
d="M879 1524h-205l-117 297h258zM526 1667q0 -54 -43.5 -98.5t-109.5 -44.5q-54 0 -84.5 36t-30.5 91q0 56 45 98.5t107 42.5q55 0 85.5 -34.5t30.5 -90.5zM1204 1667q0 -54 -43.5 -98.5t-109.5 -44.5q-54 0 -84.5 36t-30.5 91q0 56 44.5 98.5t106.5 42.5q55 0 86 -34.5
t31 -90.5z" />
    <glyph glyph-name="Grave" unicode="&#xf6ce;" 
d="M848 1548h-205l-137 297h248z" />
    <glyph glyph-name="Hungarumlaut" unicode="&#xf6cf;" 
d="M963 1563h-183l164 297h260zM670 1563h-178l116 297h242z" />
    <glyph glyph-name="Macron" unicode="&#xf6d0;" 
d="M989 1579h-540l30 193h541z" />
    <glyph glyph-name="cyrBreve" unicode="&#xf6d1;" 
d="M899 1815h186q-11 -129 -108 -210t-250 -81q-137 0 -219 66t-82 173q0 16 4 52h180q0 -63 28.5 -90t100.5 -27q74 0 110.5 29t49.5 88z" />
    <glyph glyph-name="cyrFlex" unicode="&#xf6d2;" 
d="M1020 1530l-285 106l-329 -106l28 186l320 131h8l282 -151z" />
    <glyph glyph-name="dblGrave" unicode="&#xf6d3;" 
d="M866 1546h-182l-147 297h239zM1155 1546h-178l-86 297h211z" />
    <glyph glyph-name="cyrbreve" unicode="&#xf6d4;" 
d="M852 1516h186q-11 -129 -108 -210t-250 -81q-137 0 -219 66t-82 173q0 16 4 52h180q0 -63 28.5 -90t100.5 -27q74 0 110.5 29t49.5 88z" />
    <glyph glyph-name="cyrflex" unicode="&#xf6d5;" 
d="M975 1243l-285 107l-330 -107l29 187l320 131h8l282 -152z" />
    <glyph glyph-name="dblgrave" unicode="&#xf6d6;" 
d="M815 1223h-182l-148 297h240zM1104 1223h-178l-86 297h211z" />
    <glyph glyph-name="dieresisacute" unicode="&#xf6d7;" 
d="M700 1223h-192l119 297h268zM479 1366q0 -54 -43.5 -98.5t-109.5 -44.5q-54 0 -84.5 36t-30.5 91q0 56 44.5 98.5t106.5 42.5q55 0 86 -34.5t31 -90.5zM1157 1366q0 -54 -43.5 -98.5t-109.5 -44.5q-54 0 -84.5 36t-30.5 91q0 56 44.5 98.5t106.5 42.5q55 0 86 -34.5
t31 -90.5z" />
    <glyph glyph-name="dieresisgrave" unicode="&#xf6d8;" 
d="M831 1223h-204l-117 297h258zM479 1366q0 -54 -43.5 -98.5t-109.5 -44.5q-54 0 -84.5 36t-30.5 91q0 56 44.5 98.5t106.5 42.5q55 0 86 -34.5t31 -90.5zM1157 1366q0 -54 -43.5 -98.5t-109.5 -44.5q-54 0 -84.5 36t-30.5 91q0 56 44.5 98.5t106.5 42.5q55 0 86 -34.5
t31 -90.5z" />
    <glyph glyph-name="rupiah" unicode="&#xf6dd;" horiz-adv-x="1802" 
d="M1219 -338h-316l76 469q-31 -68 -93.5 -107.5t-144.5 -39.5q-107 0 -159 51t-52 155q0 42 24 151.5t24 156.5q0 43 -19 59t-61 16l-90 -573h-336l227 1438h283q218 0 332 -95.5t114 -261.5q0 -156 -91 -271.5t-239 -139.5v-4q99 -6 149 -60.5t50 -140.5
q0 -31 -14.5 -108.5t-14.5 -100.5q0 -53 54 -53q67 0 79 71l119 754h301l-26 -168h2q27 78 104.5 128t163.5 50q98 0 141 -49.5t43 -146.5q0 -61 -92 -613q-21 -132 -97 -188.5t-222 -56.5q-75 0 -127 30l2 21q49 12 82.5 57t50.5 150q9 58 23 140.5t22.5 136t17 108t13 87
t4.5 44.5q0 53 -51 53q-33 0 -56.5 -20t-29.5 -56zM596 1198l-70 -438q44 6 77 37t50.5 76.5t26 92t8.5 91.5q0 127 -92 141z" />
    <glyph glyph-name="threequartersemdash" unicode="&#xf6de;" horiz-adv-x="1064" 
d="M1139 612h-1024l22 136h1024z" />
    <glyph glyph-name="centinferior" unicode="&#xf6df;" horiz-adv-x="655" 
d="M303 -590h-106l22 137q-98 9 -147 67.5t-49 154.5q0 12 0.5 24.5t2.5 30.5t4 32.5t5.5 39.5t6.5 42t8.5 50.5t9 53.5t11 62.5t11.5 67.5q11 63 29 109t49.5 85t82 61t119.5 26l17 112h106l-16 -112q174 -19 174 -199q0 -57 -22 -141h-209q16 82 16 116q0 58 -45 58
q-39 0 -59.5 -26.5t-34.5 -113.5q-51 -316 -51 -354q0 -72 65 -72q30 0 52 11.5t37 35t22.5 43.5t17.5 52h10q53 -5 85 -34.5t32 -78.5q0 -90 -62.5 -144t-170.5 -59z" />
    <glyph glyph-name="centsuperior" unicode="&#xf6e0;" horiz-adv-x="655" 
d="M530 858h-106l22 137q-98 9 -147 67.5t-49 154.5q0 12 0.5 24.5t2.5 30.5t4 32.5t5.5 39.5t6.5 42t8.5 50.5t9 53.5t11 62.5t11.5 67.5q22 129 85 201t196 80l16 112h107l-17 -112q174 -19 174 -199q0 -57 -22 -141h-209q16 82 16 116q0 58 -45 58q-39 0 -59.5 -26.5
t-34.5 -113.5q-51 -316 -51 -354q0 -72 65 -72q30 0 52 11.5t37 35t22.5 43.5t17.5 52h11q53 -5 84.5 -34.5t31.5 -78.5q0 -90 -62.5 -144t-170.5 -59z" />
    <glyph glyph-name="commainferior" unicode="&#xf6e1;" horiz-adv-x="307" 
d="M-100 -655l2 8q44 27 69.5 73.5t40.5 133.5l15 102h184l-12 -86q-18 -114 -88 -172.5t-211 -58.5z" />
    <glyph glyph-name="commasuperior" unicode="&#xf6e2;" horiz-adv-x="307" 
d="M135 844l2 8q44 27 70 74t41 133l14 102h184l-12 -86q-18 -114 -88 -172.5t-211 -58.5z" />
    <glyph glyph-name="dollarinferior" unicode="&#xf6e3;" horiz-adv-x="655" 
d="M295 -590h-107l23 137q-92 6 -145.5 56.5t-53.5 130.5q0 103 71 153.5t175 24.5l6 -6q-2 -4 -9 -17.5t-10 -19.5t-9 -19t-8.5 -22t-4.5 -22t-2 -25q0 -62 68 -62q40 0 60 31.5t20 75.5q0 32 -21 60.5t-52.5 49.5t-68 48t-68 54.5t-52.5 70.5t-21 94q0 114 74 182t194 74
l17 106h106l-16 -108q84 -9 130 -65t46 -146q0 -51 -19 -119h-206q16 71 16 111q0 55 -49 55q-76 0 -76 -80q0 -32 21 -60.5t52.5 -49t68 -47t68 -53t52.5 -69.5t21 -94q0 -127 -69 -207.5t-200 -83.5z" />
    <glyph glyph-name="dollarsuperior" unicode="&#xf6e4;" horiz-adv-x="655" 
d="M522 858h-106l22 137q-92 6 -145 56.5t-53 130.5q0 103 70.5 153.5t174.5 24.5l7 -6q-2 -4 -9 -17.5t-10 -19.5t-9 -19t-8.5 -22t-4.5 -22t-2 -25q0 -62 67 -62q40 0 60 31.5t20 75.5q0 32 -21 60.5t-52.5 49.5t-68 48t-68 54.5t-52.5 70.5t-21 94q0 114 74.5 182
t194.5 74l16 106h107l-17 -108q84 -9 130 -65t46 -146q0 -54 -18 -119h-207q16 71 16 111q0 55 -49 55q-76 0 -76 -80q0 -32 21 -60.5t52.5 -49t68 -47t68 -53t52.5 -69.5t21 -94q0 -127 -68.5 -207.5t-199.5 -83.5z" />
    <glyph glyph-name="hypheninferior" unicode="&#xf6e5;" horiz-adv-x="655" 
d="M535 -82h-443l25 150h442z" />
    <glyph glyph-name="hyphensuperior" unicode="&#xf6e6;" horiz-adv-x="655" 
d="M762 1366h-443l25 150h442z" />
    <glyph glyph-name="periodinferior" unicode="&#xf6e7;" horiz-adv-x="307" 
d="M199 -350q-6 -41 -39.5 -68.5t-79.5 -27.5q-45 0 -68.5 27.5t-17.5 68.5q8 43 40 70.5t77 27.5q47 0 71.5 -27.5t16.5 -70.5z" />
    <glyph glyph-name="periodsuperior" unicode="&#xf6e8;" horiz-adv-x="307" 
d="M426 1090q-6 -41 -39.5 -69t-79.5 -28q-45 0 -68.5 28t-17.5 69q8 43 40 70.5t77 27.5q47 0 71.5 -27.5t16.5 -70.5z" />
    <glyph glyph-name="asuperior" unicode="&#xf6e9;" horiz-adv-x="585" 
d="M680 883h-197l47 303q-60 0 -85 -31t-37 -100q-11 -66 26 -66q12 0 27.5 6t21.5 13h4q-8 -58 -40 -96t-109 -38q-62 0 -102 42.5t-27 119.5q15 102 95 151t235 52l12 70q10 67 -37 67q-45 0 -55 -67l-4 -27h-197l4 27q12 79 77 130.5t191 51.5q118 0 175 -48t43 -136z
" />
    <glyph glyph-name="bsuperior" unicode="&#xf6ea;" horiz-adv-x="593" 
d="M379 883h-189l127 809h197l-98 -627q-13 -84 37 -84q36 0 51.5 28.5t25.5 90.5l27 180q12 74 9 94.5t-29 20.5q-12 0 -19 -2t-14 -7l-8 -6h-7q7 42 43 75.5t91 33.5q36 0 61.5 -8.5t47.5 -31.5t26 -64.5t-4 -106.5l-31 -201q-15 -97 -70.5 -150t-146.5 -53
q-45 0 -76 26.5t-35 76.5h-2z" />
    <glyph glyph-name="dsuperior" unicode="&#xf6eb;" horiz-adv-x="593" 
d="M682 883h-188l14 94h-2q-19 -50 -59 -76.5t-85 -26.5q-91 0 -128.5 53t-22.5 150l31 201q20 120 72 165.5t128 45.5q54 0 79 -33t18 -76h-7q-1 1 -3.5 4t-4 4t-5.5 3t-9.5 3t-13.5 1q-26 0 -36 -20t-22 -95l-26 -180q-12 -56 -5 -87.5t42 -31.5q25 0 42 22t23 62l98 627
h197z" />
    <glyph glyph-name="esuperior" unicode="&#xf6ec;" horiz-adv-x="567" 
d="M696 1085v-10q-7 -45 -22 -78t-44 -62.5t-81 -45t-125 -15.5q-127 0 -178 51t-37 136l35 229q14 91 88.5 146t191.5 55q108 0 164 -53.5t43 -143.5q-12 -81 -98 -130.5t-232 -49.5l7 41q49 0 86 36t49 103q10 82 -35 82q-53 0 -66 -76l-36 -235q-8 -35 -0.5 -55.5
t36.5 -20.5q25 0 40.5 13t21.5 49l4 34h188z" />
    <glyph glyph-name="isuperior" unicode="&#xf6ed;" horiz-adv-x="323" 
d="M399 883h-196l94 598h197zM539 1686q-6 -36 -40.5 -58t-82.5 -22t-76.5 22t-22.5 58q6 37 40.5 59t82.5 22q49 0 77 -22t22 -59z" />
    <glyph glyph-name="lsuperior" unicode="&#xf6ee;" horiz-adv-x="319" 
d="M397 883h-196l127 809h196z" />
    <glyph glyph-name="msuperior" unicode="&#xf6ef;" horiz-adv-x="919" 
d="M743 895l2 14q46 0 67.5 27.5t33.5 101.5l31 191q13 77 5 106t-51 29q-39 0 -54 -23.5t-23 -80.5l-60 -377h-194l61 389q10 51 3 71.5t-42 20.5q-38 0 -53.5 -26.5t-22.5 -77.5l-59 -377h-197l95 598h186l-14 -90h4q23 43 71 70.5t109 27.5q55 0 89.5 -27.5t39.5 -70.5
q22 47 70 72.5t96 25.5q177 0 143 -213l-35 -221q-14 -97 -67.5 -139t-145.5 -42q-60 0 -88 21z" />
    <glyph glyph-name="osuperior" unicode="&#xf6f0;" horiz-adv-x="577" 
d="M741 1303l-36 -230q-12 -86 -78 -142.5t-199 -56.5q-127 0 -180 51t-39 136l35 229q14 87 80 144t200 57q127 0 179 -50.5t38 -137.5zM508 1065l37 235q13 76 -37 76q-53 0 -66 -76l-36 -235q-13 -76 40 -76q49 0 62 76z" />
    <glyph glyph-name="rsuperior" unicode="&#xf6f1;" horiz-adv-x="479" 
d="M387 883h-197l95 598h188l-18 -115h2q19 59 51.5 91t89.5 32q126 0 107 -131q-12 -71 -68 -105t-102 -22v6q28 20 36 57q3 41 -32 41q-82 0 -107 -159z" />
    <glyph glyph-name="ssuperior" unicode="&#xf6f2;" horiz-adv-x="542" 
d="M692 1286h-182l6 35q7 55 -24 55q-22 0 -30 -9.5t-13 -37.5q-3 -21 14 -37t44.5 -26t59 -26t57.5 -35.5t40 -56t6 -85.5q-15 -91 -74 -138.5t-197 -47.5q-115 0 -160.5 42t-35.5 103q7 52 48.5 79t92.5 27q41 0 74 -20v-6q-25 -16 -31 -55q-9 -56 35 -56q18 0 32.5 13
t18.5 38q5 36 -17.5 59.5t-58 38.5t-70.5 33t-55.5 55.5t-11.5 94.5q13 81 72.5 124.5t185.5 43.5q64 0 105 -15t56 -39t21 -54.5t-2 -61.5z" />
    <glyph glyph-name="tsuperior" unicode="&#xf6f3;" horiz-adv-x="430" 
d="M588 1024l2 -4q-8 -59 -58 -101t-129 -42q-88 0 -127.5 48t-27.5 134l49 307h-82l18 115h82l27 170h197l-27 -170h115l-19 -115h-114l-45 -285q-7 -53 0.5 -71.5t35.5 -18.5q67 0 103 33z" />
    <glyph glyph-name="Brevesmall" unicode="&#xf6f4;" horiz-adv-x="921" 
d="M858 1630h186q-11 -129 -108 -210t-250 -81q-137 0 -219 66.5t-82 173.5q0 15 4 51h180q0 -63 28.5 -90t100.5 -27q74 0 110.5 29t49.5 88z" />
    <glyph glyph-name="Caronsmall" unicode="&#xf6f5;" 
d="M1008 1468l-324 -131h-8l-279 152l27 166l278 -107l336 107z" />
    <glyph glyph-name="Circumflexsmall" unicode="&#xf6f6;" 
d="M991 1358l-284 106l-330 -106l29 186l319 131h8l283 -151z" />
    <glyph glyph-name="Dotaccentsmall" unicode="&#xf6f7;" 
d="M866 1475q0 -66 -52 -113t-132 -47q-67 0 -106 40t-39 103q0 64 50 111t132 47q73 0 110 -38t37 -103z" />
    <glyph glyph-name="Hungarumlautsmall" unicode="&#xf6f8;" 
d="M926 1337h-183l164 297h260zM633 1337h-178l116 297h242z" />
    <glyph glyph-name="Lslashsmall" unicode="&#xf6f9;" horiz-adv-x="716" 
d="M700 0h-628l61 391l-78 -31l29 179l78 30l84 541h336l-64 -399l111 45l-29 -178l-108 -46l-46 -286h293z" />
    <glyph glyph-name="OEsmall" unicode="&#xf6fa;" horiz-adv-x="1333" 
d="M1147 332h8q96 -23 96 -113q0 -114 -89 -174.5t-224 -60.5q-161 0 -221 84q-41 -38 -107 -61t-143 -23q-181 0 -260.5 83t-79.5 240q0 48 63 445q15 88 43.5 152.5t79.5 115.5t132.5 76.5t193.5 25.5q66 0 119 -12h608l-39 -256h-321l-25 -154h299l-39 -237h-299
q-22 -135 -22 -160q0 -74 73 -74q98 0 154 103zM506 229q38 0 55.5 26.5t28.5 96.5q17 116 35.5 234t25 163.5t6.5 63.5q0 34 -11 49t-38 15q-37 0 -53.5 -25.5t-28.5 -106.5q-67 -429 -67 -454q0 -33 10.5 -47.5t36.5 -14.5z" />
    <glyph glyph-name="Ogoneksmall" unicode="&#xf6fb;" 
d="M649 -215l19 -12q-21 -86 -87.5 -138.5t-166.5 -52.5q-85 0 -133 41t-48 103q0 166 234 274h133q-37 -34 -59.5 -58.5t-45 -66t-22.5 -80.5q0 -26 14.5 -41.5t40.5 -15.5q68 0 121 47z" />
    <glyph glyph-name="Ringsmall" unicode="&#xf6fc;" 
d="M905 1481q0 -95 -64.5 -156t-158.5 -61q-83 0 -134.5 49t-51.5 135q0 94 68.5 155.5t154.5 61.5q87 0 136.5 -48.5t49.5 -135.5zM686 1374q45 0 72.5 31t27.5 70q0 79 -75 79q-40 0 -68.5 -29.5t-28.5 -70.5q0 -37 18 -58.5t54 -21.5z" />
    <glyph glyph-name="Scaronsmall" unicode="&#xf6fd;" horiz-adv-x="894" 
d="M932 745h-326q12 87 12 95q0 20 -7.5 28.5t-26.5 8.5q-54 0 -54 -66q0 -41 27.5 -76.5t69 -61t90 -58.5t90 -66.5t69 -87.5t27.5 -119q0 -181 -118.5 -269.5t-325.5 -88.5q-164 0 -265.5 72t-101.5 177q0 99 69.5 153t186.5 54q30 0 59 -7.5t43 -14.5l13 -8v-7
q-45 -45 -45 -88q0 -28 16.5 -50.5t48.5 -22.5q36 0 57 24.5t21 63.5q0 35 -27.5 67.5t-68 57t-88.5 59t-88.5 70t-68 92.5t-27.5 125q0 155 111.5 238t297.5 83q164 0 254 -67.5t90 -192.5q0 -53 -14 -117zM981 1386l-324 -131h-8l-278 152l26 166l279 -107l336 107z" />
    <glyph glyph-name="Tildesmall" unicode="&#xf6fe;" 
d="M930 1647h90q-5 -122 -57.5 -193.5t-143.5 -71.5q-63 0 -146 28t-112 28q-56 0 -76 -68h-90q6 124 58.5 194t142.5 70q63 0 150 -27.5t118 -27.5q29 0 42 14.5t24 53.5z" />
    <glyph glyph-name="Zcaronsmall" unicode="&#xf6ff;" horiz-adv-x="841" 
d="M741 360h11q39 -19 69.5 -60.5t30.5 -104.5q0 -101 -57.5 -154t-165.5 -53q-46 0 -89.5 17t-71 37t-60 37t-58.5 17q-28 0 -47 -24t-24 -48l-5 -24h-241q0 139 38.5 225.5t112.5 171.5l394 457h-369l39 256h713l-33 -217q-485 -541 -516 -594l4 -2q31 27 69 27
q27 0 71 -18.5t77 -18.5q44 0 66.5 17t41.5 56zM940 1386l-324 -131h-8l-278 152l26 166l279 -107l336 107z" />
    <glyph glyph-name="exclamsmall" unicode="&#xf721;" horiz-adv-x="512" 
d="M383 379h-135q0 370 43 690h266q-24 -137 -67.5 -309.5t-75.5 -276.5zM412 139q0 -65 -43 -108t-113 -43q-52 0 -85.5 32.5t-33.5 79.5q0 64 44 107t112 43q52 0 85.5 -32t33.5 -79z" />
    <glyph glyph-name="dollaroldstyle" unicode="&#xf724;" horiz-adv-x="880" 
d="M451 -178h-95l27 168q-158 7 -235 71.5t-60 171.5q14 92 82.5 143.5t181.5 51.5q23 0 50.5 -5t43.5 -10l17 -5v-7q-24 -31 -31 -46.5t-10 -41.5q-5 -33 5 -50t48 -17q37 0 52 16.5t20 52.5q4 28 -7.5 51.5t-34 41.5t-53 36.5t-64 36t-66.5 40.5t-61.5 49.5t-48.5 64
t-27.5 82.5t1.5 106q19 118 119 198t256 97l23 146h94l-23 -144q154 -6 232 -88.5t55 -228.5l-10 -58h-326l8 56q8 35 2.5 55.5t-32.5 20.5q-53 0 -62 -50q-7 -43 12 -76t54 -56t78.5 -45t85.5 -49t75 -61.5t48.5 -90.5t3.5 -127q-50 -313 -402 -332z" />
    <glyph glyph-name="ampersandsmall" unicode="&#xf726;" horiz-adv-x="1083" 
d="M1073 0h-295l-225 500q-56 -29 -89.5 -82.5t-33.5 -120.5q0 -38 19.5 -59t56.5 -21q62 0 110 51h9q14 -28 14 -67q0 -102 -68 -157.5t-196 -55.5q-126 0 -194 72t-68 182q0 154 108 250.5t279 119.5q-92 119 -92 232q0 128 89 207t228 79q115 0 176.5 -52.5t61.5 -121.5
q0 -120 -142 -161h-8v26q0 52 -17 78.5t-46 26.5q-64 0 -64 -76q0 -16 8 -38t36 -80t65.5 -134.5t114 -239.5t163.5 -358z" />
    <glyph glyph-name="zerooldstyle" unicode="&#xf730;" horiz-adv-x="880" 
d="M473 215q31 0 47.5 27.5t24.5 79.5q76 458 76 512q0 61 -39 61q-56 0 -74 -104q-76 -456 -76 -512q0 -64 41 -64zM860 334q-16 -99 -55 -168.5t-97 -106.5t-123.5 -53t-146.5 -16q-139 0 -224 78.5t-85 228.5q0 50 11.5 133.5t31.5 197.5t25 148q16 100 54.5 170t96 107
t122.5 53t146 16q139 0 224.5 -79t85.5 -230q0 -51 -10.5 -131t-32 -206.5t-23.5 -141.5z" />
    <glyph glyph-name="oneoldstyle" unicode="&#xf731;" horiz-adv-x="696" 
d="M578 0h-316l135 854l-213 -47l31 199l291 104h246z" />
    <glyph glyph-name="twooldstyle" unicode="&#xf732;" horiz-adv-x="880" 
d="M799 313h18q64 -47 64 -123q0 -95 -54.5 -147.5t-154.5 -52.5q-37 0 -77 16t-68 35t-59.5 35t-53.5 16q-27 0 -48.5 -24.5t-21.5 -67.5h-254l19 123q13 81 49 148t83 112t101 84.5t105.5 76.5t94 77.5t68 97.5t25.5 127q0 49 -31 49q-21 0 -33 -21.5t-18 -68.5l-12 -92
h-310l9 92q13 153 119.5 235t279.5 82q157 0 235 -71.5t78 -204.5q0 -84 -27.5 -154t-71.5 -117.5t-97.5 -86.5t-108.5 -67.5t-101 -52.5t-77.5 -50t-36.5 -52l2 -2q34 49 94 49q30 0 92.5 -27.5t96.5 -27.5q25 0 49.5 14t32.5 41z" />
    <glyph glyph-name="threeoldstyle" unicode="&#xf733;" horiz-adv-x="880" 
d="M451 92l-5 -18q-75 -64 -75 -131q0 -21 12.5 -37.5t30.5 -16.5q35 0 51.5 29t28.5 92q36 189 36 238q0 94 -116 94h-113l31 199h127q59 0 91 33t44 108q24 151 24 176q0 43 -26 43q-29 0 -43.5 -23.5t-22.5 -78.5l-16 -113h-313l14 111q22 171 131.5 251t278.5 80
q150 0 229.5 -69.5t79.5 -194.5q0 -32 -21 -162q-18 -111 -82.5 -176t-152.5 -84v-4q79 -20 120.5 -75.5t41.5 -137.5q0 -27 -33 -235q-26 -168 -118.5 -247t-301.5 -79q-159 0 -241.5 69.5t-82.5 168.5q0 107 66 172t176 65q45 0 87.5 -14t62.5 -33z" />
    <glyph glyph-name="fouroldstyle" unicode="&#xf734;" horiz-adv-x="880" 
d="M696 -328h-315l51 328h-387l33 203l526 907h320l-142 -883h90l-34 -227h-90zM467 227l61 383h-6l-209 -383h154z" />
    <glyph glyph-name="fiveoldstyle" unicode="&#xf735;" horiz-adv-x="880" 
d="M457 92l-4 -18q-76 -65 -76 -131q0 -21 12.5 -37.5t30.5 -16.5q36 0 53 29.5t27 91.5q57 355 57 381q0 51 -37 51q-50 0 -65 -92l-11 -59h-315l131 823h696l-38 -237h-381l-50 -342q19 75 78.5 111t126.5 36q193 0 193 -195q0 -40 -76 -497q-13 -83 -39 -140.5t-74 -101
t-124.5 -64t-186.5 -20.5q-83 0 -148.5 21.5t-104 57.5t-58 79t-19.5 90q0 105 70 166t182 61q45 0 87.5 -14t62.5 -33z" />
    <glyph glyph-name="sixoldstyle" unicode="&#xf736;" horiz-adv-x="880" 
d="M956 1001h-311q23 138 23 162q0 27 -9 39t-30 12q-30 0 -46.5 -29t-25.5 -93l-47 -295h4q18 55 75.5 103t135.5 48q184 0 184 -246q0 -66 -45 -358q-31 -196 -133 -276t-299 -80q-148 0 -229.5 75t-81.5 218q0 23 4.5 63t16.5 121t23.5 151.5t36.5 224.5t44 271
q54 340 418 340q167 0 242 -75t75 -203q0 -68 -25 -173zM537 322q53 332 53 340q0 47 -41 47q-28 0 -44.5 -29t-27.5 -94q-47 -283 -47 -316q0 -57 41 -57q28 0 43 26t23 83z" />
    <glyph glyph-name="sevenoldstyle" unicode="&#xf737;" horiz-adv-x="839" 
d="M545 -86h4q20 -36 20 -80q0 -69 -52.5 -119.5t-158.5 -50.5q-103 0 -157 57.5t-54 155.5q0 56 20.5 128.5t64 162.5t84 166.5t108.5 185.5t107.5 170.5t109.5 167.5h-455l41 256h742l-33 -203q-56 -105 -127.5 -236t-110 -201.5t-84.5 -157t-68.5 -134.5t-44.5 -100
t-30 -86.5t-8 -63.5q0 -43 35 -43q22 0 47 25z" />
    <glyph glyph-name="eightoldstyle" unicode="&#xf738;" horiz-adv-x="880" 
d="M756 739q26 -21 44.5 -41t39.5 -49.5t32 -68.5t11 -84q0 -36 -23 -174q-31 -187 -128.5 -260.5t-291.5 -73.5q-317 0 -317 278q0 41 27 203q14 98 71.5 171.5t153.5 100.5q-28 21 -47.5 39t-42 46.5t-34 65t-11.5 79.5q0 41 20 168q26 163 127.5 238t280.5 75
q315 0 315 -274q0 -48 -25 -199q-13 -84 -63.5 -148t-138.5 -92zM524 600q-22 -19 -38 -53t-19 -64q-35 -205 -35 -217q0 -53 43 -53q54 0 64 74q4 24 12.5 72.5t14 83t5.5 46.5q0 71 -47 111zM606 879q32 32 41 84q27 173 27 194q0 57 -41 57q-29 0 -44.5 -20.5
t-23.5 -67.5q-18 -109 -18 -145q0 -61 59 -102z" />
    <glyph glyph-name="nineoldstyle" unicode="&#xf739;" horiz-adv-x="880" 
d="M500 0l57 373h-2q-21 -76 -73 -122t-130 -46q-97 0 -147.5 66t-50.5 192q0 63 41 317q29 176 128.5 262t301.5 86q155 0 233 -73t78 -207q0 -35 -4.5 -81t-17 -131.5t-23.5 -152.5t-36.5 -224t-43.5 -267q-28 -171 -127 -249.5t-295 -78.5q-159 0 -247.5 67t-88.5 169
q0 101 73 166t189 65q91 0 144 -49l-4 -19q-33 -17 -55.5 -47t-22.5 -67q0 -47 45 -47q32 0 50.5 21.5t27.5 76.5zM518 442q28 0 44 27.5t26 95.5q5 30 17.5 107t18 115t5.5 55q0 59 -41 59q-30 0 -44 -27t-24 -88q-5 -34 -17.5 -108.5t-19 -120t-6.5 -61.5q0 -54 41 -54z
" />
    <glyph glyph-name="questionsmall" unicode="&#xf73f;" horiz-adv-x="768" 
d="M584 334h-242q9 85 37 151.5t62.5 107.5t67.5 79t55 86.5t22 109.5q0 58 -49 58q-88 0 -88 -150q0 -25 3.5 -48.5t7.5 -34.5l3 -11l-6 -10q-35 -17 -90 -17q-81 0 -133 50.5t-52 128.5q0 138 108.5 213t264.5 75q161 0 248.5 -70.5t87.5 -179.5q0 -50 -14.5 -93
t-38 -75.5t-52.5 -62.5t-60.5 -61.5t-59 -65t-50 -80t-32.5 -100.5zM571 133q0 -63 -45.5 -104t-111.5 -41q-59 0 -92 33t-33 81q0 67 45 107.5t110 40.5q56 0 91.5 -34t35.5 -83z" />
    <glyph glyph-name="Gravesmall" unicode="&#xf760;" 
d="M813 1337h-205l-137 297h248z" />
    <glyph glyph-name="Asmall" unicode="&#xf761;" horiz-adv-x="1011" 
d="M981 0h-328l-14 168h-207l-59 -168h-342l471 1110h323zM625 362l-25 279h-8l-92 -279h125z" />
    <glyph glyph-name="Bsmall" unicode="&#xf762;" horiz-adv-x="927" 
d="M508 639h8q62 0 105 36.5t43 102.5q0 86 -121 86zM408 0h-336l174 1110h315q121 0 205.5 -19.5t130.5 -57t66 -84t20 -107.5q0 -112 -63 -189t-181 -104q96 -18 145.5 -80.5t49.5 -149.5q0 -151 -95 -241t-259 -90q-104 0 -150 63l4 15q164 62 164 245q0 54 -27.5 84.5
t-95.5 36.5z" />
    <glyph glyph-name="Csmall" unicode="&#xf763;" horiz-adv-x="899" 
d="M940 678h-319q20 109 20 149q0 50 -39 50q-36 0 -50 -28t-32 -128q-61 -362 -61 -420q0 -40 11.5 -56t39.5 -16q55 0 87 50.5t32 142.5l6 6q51 21 90 21q80 0 121 -41.5t41 -133.5q0 -119 -108.5 -204.5t-286.5 -85.5q-184 0 -273.5 85.5t-89.5 229.5q0 65 47 361
q9 59 14 92q11 69 29.5 122t52 101.5t82 79.5t121.5 49t168 18q167 0 246.5 -67.5t79.5 -184.5q0 -66 -29 -192z" />
    <glyph glyph-name="Dsmall" unicode="&#xf764;" horiz-adv-x="952" 
d="M391 0h-319l174 1110h276q243 0 355 -90t112 -299q0 -63 -47 -342q-33 -204 -170 -291.5t-381 -87.5zM545 864l-99 -618q68 0 106 30t56 111q56 257 56 344q0 68 -28 100.5t-91 32.5z" />
    <glyph glyph-name="Esmall" unicode="&#xf765;" horiz-adv-x="798" 
d="M684 332h8q96 -23 96 -113q0 -77 -46.5 -131.5t-118 -79t-158.5 -24.5q-172 0 -260 71t-88 207q0 34 129 848h657l-39 -256h-321l-25 -154h299l-39 -237h-299q-22 -135 -22 -160q0 -74 73 -74q98 0 154 103z" />
    <glyph glyph-name="Fsmall" unicode="&#xf766;" horiz-adv-x="739" 
d="M408 0h-336l174 1110h637l-39 -256h-301l-33 -195h289l-37 -237h-289z" />
    <glyph glyph-name="Gsmall" unicode="&#xf767;" horiz-adv-x="937" 
d="M866 0h-123q-79 14 -122 68t-43 114h-5q-33 -99 -94 -146.5t-160 -47.5q-202 0 -202 239q0 20 2.5 46.5t9.5 78t13 92t21 136.5t25 163q31 208 147 293.5t322 85.5q173 0 256.5 -66.5t83.5 -189.5q0 -59 -26 -176h-332q20 113 20 148q0 22 -9 30.5t-34 8.5q-37 0 -60 -38
t-36 -122q-58 -350 -60 -390q-1 -11 -1 -22q0 -72 47 -72q38 0 52.5 18t19.5 54l16 107h-64l25 155h399z" />
    <glyph glyph-name="Hsmall" unicode="&#xf768;" horiz-adv-x="968" 
d="M897 0h-336l70 444h-154l-69 -444h-336l174 1110h336l-68 -430h154l67 430h336z" />
    <glyph glyph-name="Ismall" unicode="&#xf769;" horiz-adv-x="499" 
d="M418 0h-336l174 1110h336z" />
    <glyph glyph-name="Jsmall" unicode="&#xf76a;" horiz-adv-x="782" 
d="M434 299l127 811h334l-125 -793q-28 -172 -128 -252.5t-284 -80.5q-148 0 -232.5 69.5t-84.5 173.5q0 97 72 160.5t188 63.5q33 0 68 -13t47 -28l-2 -17q-74 -39 -74 -125q0 -28 10.5 -43.5t26.5 -15.5q44 0 57 90z" />
    <glyph glyph-name="Ksmall" unicode="&#xf76b;" horiz-adv-x="987" 
d="M952 244l6 -2q15 -12 27 -38.5t12 -56.5q0 -72 -53.5 -117.5t-165.5 -45.5q-219 0 -219 190q0 34 15.5 123t15.5 115q0 29 -7.5 48.5t-23.5 29t-31 13t-39 5.5l-79 -508h-338l174 1110h338l-58 -367h6l250 367h348l-399 -500q93 -3 141 -53t48 -139q0 -31 -16.5 -94.5
t-16.5 -79.5q0 -41 28 -41q23 0 37 41z" />
    <glyph glyph-name="Lsmall" unicode="&#xf76c;" horiz-adv-x="716" 
d="M700 0h-628l174 1110h336l-136 -864h293z" />
    <glyph glyph-name="Msmall" unicode="&#xf76d;" horiz-adv-x="1112" 
d="M1040 0h-323l90 575l-96 -204h-176l-56 239l-96 -610h-311l174 1110h286l134 -416l235 416h313z" />
    <glyph glyph-name="Nsmall" unicode="&#xf76e;" horiz-adv-x="950" 
d="M879 0h-246l-164 549l-86 -549h-311l174 1110h254l141 -553l86 553h326z" />
    <glyph glyph-name="Osmall" unicode="&#xf76f;" 
d="M922 340q-31 -192 -132.5 -274t-322.5 -82q-183 0 -261.5 79.5t-78.5 243.5q0 66 63 449q15 88 43.5 152t79.5 114t132 75t194 25q181 0 263.5 -80.5t82.5 -242.5q0 -64 -63 -459zM506 229q38 0 55.5 26.5t28.5 96.5q11 74 24 156t19.5 124.5t12.5 84t8.5 63t2.5 33.5
q0 34 -11 49t-38 15q-38 0 -55 -24t-29 -103q-65 -415 -65 -459q0 -33 10.5 -47.5t36.5 -14.5z" />
    <glyph glyph-name="Psmall" unicode="&#xf770;" horiz-adv-x="923" 
d="M408 0h-336l174 1110h274q242 0 358.5 -92t116.5 -285q0 -92 -20 -165.5t-63 -131.5t-117.5 -89.5t-176.5 -31.5q-33 0 -70 10.5t-56 26.5l2 17q163 57 163 340q0 143 -116 143z" />
    <glyph glyph-name="Qsmall" unicode="&#xf771;" 
d="M874 -219l7 -2q26 -19 26 -82q0 -70 -55 -118t-154 -48q-113 0 -163 50.5t-50 131.5q0 33 12.5 97t12.5 100q0 44 -12.5 61t-51.5 17q-164 0 -241.5 79.5t-77.5 239.5q0 97 63 445q16 89 44.5 153t79.5 115t132 76.5t193 25.5q346 0 346 -325q0 -54 -63 -455
q-21 -132 -90 -203.5t-173 -85.5l-2 -6q168 -10 168 -141q0 -20 -10 -62t-10 -63q0 -13 9.5 -22t23.5 -9q26 0 36 31zM506 229q38 0 55.5 26.5t28.5 96.5q17 116 35.5 234t25 163.5t6.5 63.5q0 34 -11 49t-38 15q-37 0 -53 -25.5t-29 -106.5q-47 -286 -57 -352t-10 -102
q0 -33 10.5 -47.5t36.5 -14.5z" />
    <glyph glyph-name="Rsmall" unicode="&#xf772;" horiz-adv-x="933" 
d="M545 870l-37 -233q60 0 99.5 41.5t39.5 107.5q0 84 -102 84zM913 238l7 -2q26 -22 26 -78q0 -73 -54 -123.5t-165 -50.5q-203 0 -203 190q0 37 14.5 111t14.5 100q0 35 -18 50.5t-58 15.5l-69 -451h-336l174 1110h323q406 -4 406 -274q0 -111 -74 -189t-223 -100l-2 -6
q102 -6 147 -47t45 -125q0 -15 -10 -64.5t-10 -62.5q0 -35 26 -35q29 0 39 31z" />
    <glyph glyph-name="Ssmall" unicode="&#xf773;" horiz-adv-x="894" 
d="M932 745h-326q12 87 12 95q0 20 -7.5 28.5t-26.5 8.5q-54 0 -54 -66q0 -41 27.5 -76.5t69 -61t90 -58.5t90 -66.5t69 -87.5t27.5 -119q0 -181 -118.5 -269.5t-325.5 -88.5q-164 0 -265.5 72t-101.5 177q0 99 69.5 153t186.5 54q30 0 59 -7.5t43 -14.5l13 -8v-7
q-45 -45 -45 -88q0 -28 16.5 -50.5t48.5 -22.5q36 0 57 24.5t21 63.5q0 35 -27.5 67.5t-68 57t-88.5 59t-88.5 70t-68 92.5t-27.5 125q0 155 111.5 238t297.5 83q164 0 254 -67.5t90 -192.5q0 -53 -14 -117z" />
    <glyph glyph-name="Tsmall" unicode="&#xf774;" horiz-adv-x="819" 
d="M575 0h-331l133 852h-213l41 256h758l-41 -256h-213z" />
    <glyph glyph-name="Usmall" unicode="&#xf775;" horiz-adv-x="964" 
d="M608 346l121 764h338l-121 -772q-26 -173 -131 -261.5t-328 -88.5q-186 0 -273 86t-87 227q0 85 119 809h336q-15 -92 -31 -189.5t-26 -158.5t-20.5 -125.5t-16.5 -101.5t-12 -76t-9 -59.5t-5.5 -41t-3.5 -32t-1 -21.5q0 -72 61 -72q45 0 63 27.5t27 85.5z" />
    <glyph glyph-name="Vsmall" unicode="&#xf776;" horiz-adv-x="997" 
d="M690 0h-348l-106 854q-5 25 -14 36t-27 11q-27 0 -48 -24l-6 2q-6 18 -6 55q0 77 56.5 131.5t162.5 54.5q116 0 165.5 -63.5t49.5 -190.5l-10 -489h8l207 733h352z" />
    <glyph glyph-name="Wsmall" unicode="&#xf777;" horiz-adv-x="1499" 
d="M1214 0h-325l-58 598l-196 -598h-332q-55 791 -59 854q-3 47 -41 47q-26 0 -47 -24l-6 2q-9 27 -9 57q0 88 58.5 136t158.5 48q114 0 164.5 -55.5t50.5 -161.5q0 -6 -24 -477l256 684h209l69 -686l189 686h336z" />
    <glyph glyph-name="Xsmall" unicode="&#xf778;" horiz-adv-x="1011" 
d="M967 0h-351l-65 266l-152 -266h-354l399 561l-131 291q-12 27 -27.5 38t-43.5 11q-13 0 -30 -8t-26 -19l-6 3q-4 20 -4 51q0 85 57.5 140.5t151.5 55.5q91 0 138.5 -37t72.5 -112l47 -146l135 281h350l-374 -569z" />
    <glyph glyph-name="Ysmall" unicode="&#xf779;" horiz-adv-x="948" 
d="M651 0h-336l64 403l-107 451q-11 47 -53 47q-34 0 -55 -24l-6 2q-6 24 -6 47q0 86 56.5 140t149.5 54q103 0 152.5 -55.5t58.5 -185.5l17 -213h8l180 444h324l-383 -707z" />
    <glyph glyph-name="Zsmall" unicode="&#xf77a;" horiz-adv-x="841" 
d="M741 360h11q39 -19 69.5 -60.5t30.5 -104.5q0 -101 -57.5 -154t-165.5 -53q-46 0 -89.5 17t-71 37t-60 37t-58.5 17q-28 0 -47 -24t-24 -48l-5 -24h-241q0 139 38.5 225.5t112.5 171.5l394 457h-369l39 256h713l-33 -217q-485 -541 -516 -594l4 -2q31 27 69 27
q27 0 71 -18.5t77 -18.5q44 0 66.5 17t41.5 56z" />
    <glyph glyph-name="exclamdownsmall" unicode="&#xf7a1;" horiz-adv-x="512" 
d="M303 690h135q0 -370 -43 -690h-266q24 137 67.5 309.5t75.5 276.5zM274 930q0 65 43 108t113 43q52 0 85.5 -32.5t33.5 -79.5q0 -64 -44 -107t-112 -43q-52 0 -85.5 32t-33.5 79z" />
    <glyph glyph-name="centoldstyle" unicode="&#xf7a2;" horiz-adv-x="880" 
d="M463 -178h-94l26 168q-142 18 -210 99.5t-68 209.5q0 65 47 361q9 59 14 92q13 82 37 142t67.5 111t116 80t174.5 35l23 144h94l-22 -144q149 -7 218.5 -73.5t69.5 -176.5q0 -71 -28 -192h-320q21 114 21 149q0 50 -39 50q-36 0 -50 -28t-32 -128q-62 -368 -62 -420
q0 -39 12 -55.5t40 -16.5q55 0 86.5 50.5t31.5 142.5l7 6q51 21 84 21q167 0 167 -175q0 -123 -100.5 -205t-286.5 -85z" />
    <glyph glyph-name="Dieresissmall" unicode="&#xf7a8;" 
d="M633 1491q0 -63 -46 -109.5t-116 -46.5q-57 0 -90 35t-33 92q0 63 46 108.5t114 45.5q59 0 92 -33.5t33 -91.5zM1057 1491q0 -63 -46 -109.5t-116 -46.5q-57 0 -90 35t-33 92q0 63 46 108.5t114 45.5q59 0 92 -33.5t33 -91.5z" />
    <glyph glyph-name="Macronsmall" unicode="&#xf7af;" 
d="M965 1432h-541l31 192h540z" />
    <glyph glyph-name="Acutesmall" unicode="&#xf7b4;" horiz-adv-x="917" 
d="M752 1337h-205l147 297h269z" />
    <glyph glyph-name="Cedillasmall" unicode="&#xf7b8;" 
d="M598 16l-76 -102q40 -20 65 -58.5t25 -91.5q0 -79 -55 -131.5t-139 -52.5q-73 0 -112.5 31t-39.5 78q0 23 8 39l5 2q27 -17 45 -17q30 0 45.5 23t15.5 57q0 66 -55 105l55 118h213z" />
    <glyph glyph-name="questiondownsmall" unicode="&#xf7bf;" horiz-adv-x="768" 
d="M360 780h242q-9 -85 -37 -151.5t-62.5 -107.5t-67.5 -79t-55 -86.5t-22 -109.5q0 -58 50 -58q88 0 88 150q0 25 -4 48.5t-8 34.5l-3 11l6 10q35 17 91 17q81 0 132.5 -50t51.5 -128q0 -93 -54 -160.5t-136.5 -98t-182.5 -30.5q-161 0 -248.5 70.5t-87.5 179.5
q0 50 14.5 93t38 75.5t52.5 62.5t60.5 61.5t59 65t50 80t32.5 100.5zM373 981q0 63 45.5 104t111.5 41q59 0 92 -33t33 -81q0 -67 -45 -107.5t-110 -40.5q-56 0 -91.5 34t-35.5 83z" />
    <glyph glyph-name="Agravesmall" unicode="&#xf7e0;" horiz-adv-x="1011" 
d="M981 0h-328l-14 168h-207l-59 -168h-342l471 1110h323zM625 362l-25 279h-8l-92 -279h125zM797 1255h-205l-137 297h247z" />
    <glyph glyph-name="Aacutesmall" unicode="&#xf7e1;" horiz-adv-x="1011" 
d="M981 0h-328l-14 168h-207l-59 -168h-342l471 1110h323zM625 362l-25 279h-8l-92 -279h125zM807 1255h-205l148 297h268z" />
    <glyph glyph-name="Acircumflexsmall" unicode="&#xf7e2;" horiz-adv-x="1011" 
d="M981 0h-328l-14 168h-207l-59 -168h-342l471 1110h323zM625 362l-25 279h-8l-92 -279h125zM1014 1276l-285 106l-330 -106l29 186l320 131h8l282 -151z" />
    <glyph glyph-name="Atildesmall" unicode="&#xf7e3;" horiz-adv-x="1011" 
d="M981 0h-328l-14 168h-207l-59 -168h-342l471 1110h323zM625 362l-25 279h-8l-92 -279h125zM952 1565h90q-5 -122 -57 -193.5t-143 -71.5q-63 0 -146 28t-112 28q-56 0 -76 -68h-90q6 124 58 194t142 70q63 0 150.5 -27.5t118.5 -27.5q28 0 41 14t24 54z" />
    <glyph glyph-name="Adieresissmall" unicode="&#xf7e4;" horiz-adv-x="1011" 
d="M981 0h-328l-14 168h-207l-59 -168h-342l471 1110h323zM625 362l-25 279h-8l-92 -279h125zM657 1423q0 -63 -45.5 -109t-115.5 -46q-57 0 -90 35t-33 92q0 63 45.5 108t113.5 45q59 0 92 -33.5t33 -91.5zM1081 1423q0 -63 -45.5 -109t-115.5 -46q-57 0 -90 35t-33 92
q0 63 45.5 108t113.5 45q59 0 92 -33.5t33 -91.5z" />
    <glyph glyph-name="Aringsmall" unicode="&#xf7e5;" horiz-adv-x="1011" 
d="M981 0h-328l-14 168h-207l-59 -168h-342l477 1100q-19 40 -19 92q0 94 69 155.5t155 61.5q87 0 136.5 -48.5t49.5 -139.5q0 -90 -59 -152zM782 1214q0 80 -77 80q-40 0 -69.5 -27.5t-29.5 -68.5q0 -36 19 -58t55 -22q45 0 73.5 28.5t28.5 67.5zM629 362l-19 279h-8
l-98 -279h125z" />
    <glyph glyph-name="AEsmall" unicode="&#xf7e6;" horiz-adv-x="1269" 
d="M1153 336h8q96 -23 96 -113q0 -77 -46.5 -131.5t-118 -79t-158.5 -24.5q-296 0 -334 221h-162l-71 -209h-336l487 1110h807l-39 -256h-342l-8 -176h299l-35 -215h-274q-8 -125 -8 -156q0 -37 23 -55.5t58 -18.5q98 0 154 103zM602 403l21 320h-9l-108 -320h96z" />
    <glyph glyph-name="Ccedillasmall" unicode="&#xf7e7;" horiz-adv-x="899" 
d="M541 -14l-54 -72q40 -20 65.5 -59t25.5 -91q0 -78 -55.5 -131t-139.5 -53q-73 0 -112.5 31t-39.5 78q0 21 9 39l4 2q27 -17 45 -17q30 0 45.5 23t15.5 57q0 66 -55 105l49 104q-110 30 -162.5 107.5t-52.5 189.5q0 65 47 361q9 59 14 92q11 69 29.5 122t52 101.5t82 79.5
t121.5 49t168 18q167 0 246.5 -67.5t79.5 -184.5q0 -66 -29 -192h-319q20 109 20 149q0 50 -39 50q-36 0 -50 -28t-32 -128q-61 -362 -61 -420q0 -40 11.5 -56t39.5 -16q55 0 87 50.5t32 142.5l6 6q51 21 90 21q80 0 121 -41.5t41 -133.5q0 -110 -95 -193t-251 -95z" />
    <glyph glyph-name="Egravesmall" unicode="&#xf7e8;" horiz-adv-x="798" 
d="M684 332h8q96 -23 96 -113q0 -77 -46.5 -131.5t-118 -79t-158.5 -24.5q-172 0 -260 71t-88 207q0 34 129 848h657l-39 -256h-321l-25 -154h299l-39 -237h-299q-22 -135 -22 -160q0 -74 73 -74q98 0 154 103zM709 1255h-205l-137 297h247z" />
    <glyph glyph-name="Eacutesmall" unicode="&#xf7e9;" horiz-adv-x="798" 
d="M684 332h8q96 -23 96 -113q0 -77 -46.5 -131.5t-118 -79t-158.5 -24.5q-172 0 -260 71t-88 207q0 34 129 848h657l-39 -256h-321l-25 -154h299l-39 -237h-299q-22 -135 -22 -160q0 -74 73 -74q98 0 154 103zM676 1255h-205l147 297h269z" />
    <glyph glyph-name="Ecircumflexsmall" unicode="&#xf7ea;" horiz-adv-x="798" 
d="M684 332h8q96 -23 96 -113q0 -77 -46.5 -131.5t-118 -79t-158.5 -24.5q-172 0 -260 71t-88 207q0 34 129 848h657l-39 -256h-321l-25 -154h299l-39 -237h-299q-22 -135 -22 -160q0 -74 73 -74q98 0 154 103zM918 1276l-285 106l-330 -106l29 186l319 131h8l283 -151z" />
    <glyph glyph-name="Edieresissmall" unicode="&#xf7eb;" horiz-adv-x="798" 
d="M684 332h8q96 -23 96 -113q0 -77 -46.5 -131.5t-118 -79t-158.5 -24.5q-172 0 -260 71t-88 207q0 34 129 848h657l-39 -256h-321l-25 -154h299l-39 -237h-299q-22 -135 -22 -160q0 -74 73 -74q98 0 154 103zM561 1423q0 -63 -46 -109t-116 -46q-57 0 -90 35t-33 92
q0 63 46 108t114 45q59 0 92 -33.5t33 -91.5zM985 1423q0 -63 -46 -109t-116 -46q-57 0 -90 35t-33 92q0 63 46 108t114 45q59 0 92 -33.5t33 -91.5z" />
    <glyph glyph-name="Igravesmall" unicode="&#xf7ec;" horiz-adv-x="499" 
d="M418 0h-336l174 1110h336zM586 1255h-205l-137 297h248z" />
    <glyph glyph-name="Iacutesmall" unicode="&#xf7ed;" horiz-adv-x="499" 
d="M418 0h-336l174 1110h336zM524 1255h-205l148 297h268z" />
    <glyph glyph-name="Icircumflexsmall" unicode="&#xf7ee;" horiz-adv-x="499" 
d="M418 0h-336l174 1110h336zM762 1276l-285 106l-330 -106l29 186l320 131h8l282 -151z" />
    <glyph glyph-name="Idieresissmall" unicode="&#xf7ef;" horiz-adv-x="499" 
d="M418 0h-336l174 1110h336zM410 1423q0 -63 -46 -109t-116 -46q-57 0 -90 35t-33 92q0 63 46 108t114 45q59 0 92 -33.5t33 -91.5zM834 1423q0 -63 -46 -109t-116 -46q-57 0 -90 35t-33 92q0 63 46 108t114 45q59 0 92 -33.5t33 -91.5z" />
    <glyph glyph-name="Ethsmall" unicode="&#xf7f0;" horiz-adv-x="993" 
d="M401 0h-288l71 461h-102l22 143h103l80 506h288q242 0 350.5 -83t108.5 -275q0 -111 -28 -279q-17 -104 -41 -179.5t-62 -128t-82 -85t-111 -50.5t-137 -24t-172 -6zM618 461h-98l-33 -205q86 0 124.5 45t58.5 168q35 227 35 262q0 66 -28 94.5t-93 28.5l-41 -250h98z
" />
    <glyph glyph-name="Ntildesmall" unicode="&#xf7f1;" horiz-adv-x="950" 
d="M879 0h-246l-164 549l-86 -549h-311l174 1110h254l141 -553l86 553h326zM928 1565h90q-5 -122 -57.5 -193.5t-143.5 -71.5q-63 0 -146 28t-112 28q-56 0 -76 -68h-90q6 124 58.5 194t142.5 70q63 0 150 -27.5t118 -27.5q29 0 42 14.5t24 53.5z" />
    <glyph glyph-name="Ogravesmall" unicode="&#xf7f2;" 
d="M922 340q-31 -192 -132.5 -274t-322.5 -82q-183 0 -261.5 79.5t-78.5 243.5q0 66 63 449q15 88 43.5 152t79.5 114t132 75t194 25q181 0 263.5 -80.5t82.5 -242.5q0 -64 -63 -459zM506 229q38 0 55.5 26.5t28.5 96.5q11 74 24 156t19.5 124.5t12.5 84t8.5 63t2.5 33.5
q0 34 -11 49t-38 15q-38 0 -55 -24t-29 -103q-65 -415 -65 -459q0 -33 10.5 -47.5t36.5 -14.5zM766 1255h-205l-137 297h248z" />
    <glyph glyph-name="Oacutesmall" unicode="&#xf7f3;" 
d="M922 340q-31 -192 -132.5 -274t-322.5 -82q-183 0 -261.5 79.5t-78.5 243.5q0 66 63 449q15 88 43.5 152t79.5 114t132 75t194 25q181 0 263.5 -80.5t82.5 -242.5q0 -64 -63 -459zM506 229q38 0 55.5 26.5t28.5 96.5q11 74 24 156t19.5 124.5t12.5 84t8.5 63t2.5 33.5
q0 34 -11 49t-38 15q-38 0 -55 -24t-29 -103q-65 -415 -65 -459q0 -33 10.5 -47.5t36.5 -14.5zM805 1255h-205l148 297h268z" />
    <glyph glyph-name="Ocircumflexsmall" unicode="&#xf7f4;" 
d="M922 340q-31 -192 -132.5 -274t-322.5 -82q-183 0 -261.5 79.5t-78.5 243.5q0 66 63 449q15 88 43.5 152t79.5 114t132 75t194 25q181 0 263.5 -80.5t82.5 -242.5q0 -64 -63 -459zM506 229q38 0 55.5 26.5t28.5 96.5q11 74 24 156t19.5 124.5t12.5 84t8.5 63t2.5 33.5
q0 34 -11 49t-38 15q-38 0 -55 -24t-29 -103q-65 -415 -65 -459q0 -33 10.5 -47.5t36.5 -14.5zM979 1276l-285 106l-329 -106l28 186l320 131h8l283 -151z" />
    <glyph glyph-name="Otildesmall" unicode="&#xf7f5;" 
d="M922 340q-31 -192 -132.5 -274t-322.5 -82q-183 0 -261.5 79.5t-78.5 243.5q0 66 63 449q15 88 43.5 152t79.5 114t132 75t194 25q181 0 263.5 -80.5t82.5 -242.5q0 -64 -63 -459zM506 229q38 0 55.5 26.5t28.5 96.5q11 74 24 156t19.5 124.5t12.5 84t8.5 63t2.5 33.5
q0 34 -11 49t-38 15q-38 0 -55 -24t-29 -103q-65 -415 -65 -459q0 -33 10.5 -47.5t36.5 -14.5zM920 1565h90q-5 -122 -57.5 -193.5t-143.5 -71.5q-63 0 -146 28t-112 28q-56 0 -76 -68h-90q6 124 58.5 194t142.5 70q63 0 150 -27.5t118 -27.5q29 0 42 14.5t24 53.5z" />
    </font>
</defs>
</svg>
