<svg xmlns="http://www.w3.org/2000/svg" width="52.674" height="44.148" viewBox="0 0 52.674 44.148">
  <path id="Path_4955" data-name="Path 4955" d="M974.145,985.277l10.59,9.637-3.093,1.318,1.7,3.992a12.583,12.583,0,0,1-23.152,9.863l-1.793-4.208-1.793,4.208a12.582,12.582,0,1,1-23.151-9.863l1.7-3.992-3.094-1.318,10.591-9.637.386,14.314-3.094-1.318-1.7,3.991a7.376,7.376,0,0,0,13.572,5.783l3.754-8.809-6.317-14.826a5.423,5.423,0,1,1,4.79-2.041L958.4,992.6l4.357-10.225a5.423,5.423,0,1,1,4.789,2.041l-6.316,14.826,3.753,8.809a7.376,7.376,0,0,0,13.572-5.783l-1.7-3.991-3.093,1.318Zm-8.339-3.426a3.084,3.084,0,1,0-1.628-4.045A3.084,3.084,0,0,0,965.806,981.851Zm-13.187-4.045a3.084,3.084,0,1,0-1.629,4.045A3.085,3.085,0,0,0,952.619,977.806Z" transform="translate(-932.061 -973.59)" fill="#fcdc3e"/>
</svg>
