<svg id="Group_219" data-name="Group 219" xmlns="http://www.w3.org/2000/svg" width="309.677" height="125.713" viewBox="0 0 309.677 125.713">
  <g id="Group_216" data-name="Group 216" transform="translate(0.901 0.927)">
    <path id="Path_5368" data-name="Path 5368" d="M1684.258,98.612a1.15,1.15,0,0,0,.4-.831,1.13,1.13,0,0,0-.319-.873c-16.73-17.381-60.812-27.765-117.9-27.765-14.143,0-28.7.66-43.293,1.96-66.466,5.921-127.564,18.989-145.51,23.515a1.154,1.154,0,0,0-.842.98,1.176,1.176,0,0,0,.585,1.161c17.063,9.478,48.831,27.136,125.714,32.025,17.827,1.14,33.771,1.693,48.7,1.693C1615.491,130.476,1658.815,120.05,1684.258,98.612ZM1523.357,73.4c14.517-1.3,29.011-1.949,43.09-1.949,27.063,0,52.036,2.428,72.239,7.029,20.012,4.558,34.89,11.172,43.175,19.149-25.155,20.544-67.723,30.534-130.058,30.534-14.89,0-30.778-.554-48.564-1.683-67.914-4.324-99.066-17.722-122.2-30.331C1401.916,91.1,1460.2,79.026,1523.357,73.4Z" transform="translate(-1376.793 -69.143)" fill="#0045ab"/>
    <path id="Path_5369" data-name="Path 5369" d="M1386.059,78.938a1.125,1.125,0,0,1-1.107-1,1.145,1.145,0,0,1,.97-1.289c12.226-1.651,24.24-3.057,35.688-4.185a1.156,1.156,0,0,1,.213,2.3c-11.428,1.118-23.409,2.524-35.613,4.164Z" transform="translate(-1298.154 -37.147)" fill="#0045ab"/>
    <path id="Path_5370" data-name="Path 5370" d="M1382.422,75.718h-.012a1.125,1.125,0,1,1,.012,0Z" transform="translate(-1333.389 -27.995)" fill="#0045ab"/>
    <path id="Path_5371" data-name="Path 5371" d="M1416.1,80.2a.969.969,0,0,1-.416-.085,133.809,133.809,0,0,0-14.058-4.75,1.166,1.166,0,0,1-.863-1.118,1.142,1.142,0,0,1,1.118-1.161,1.455,1.455,0,0,1,.31.043,137.044,137.044,0,0,1,14.313,4.846,1.162,1.162,0,0,1,.628,1.5A1.108,1.108,0,0,1,1416.1,80.2Z" transform="translate(-1145.465 -31.112)" fill="#0045ab"/>
    <path id="Path_5372" data-name="Path 5372" d="M1445.874,76.683l-.117-.011a406.615,406.615,0,0,0-52.462-2.055h-.021a1.151,1.151,0,0,1-.021-2.3,408.934,408.934,0,0,1,52.738,2.066,1.155,1.155,0,0,1-.117,2.3Z" transform="translate(-1228.573 -39.6)" fill="#0045ab"/>
    <path id="Path_5373" data-name="Path 5373" d="M1380.1,89.868a1.129,1.129,0,0,1-1.107-.958,1.151,1.151,0,0,1,.916-1.331c19.5-3.387,38.884-6.358,57.628-8.808,12.194-1.608,24.207-3,35.688-4.164,3.973-.394,8.094-.788,12.588-1.193,9.415-.841,18.958-1.47,28.383-1.864,17.754-.735,35.156-.65,51.738.245l.021.011c13.143.714,25.721,1.96,37.371,3.685,18.3,2.705,34.133,6.571,47.084,11.47a1.15,1.15,0,0,1,.659,1.48,1.119,1.119,0,0,1-1.437.692c-12.8-4.856-28.488-8.669-46.625-11.353-11.577-1.725-24.08-2.961-37.147-3.674h-.031c-16.508-.905-33.847-.98-51.535-.245-9.395.394-18.9,1.012-28.287,1.853-4.483.394-8.595.788-12.557,1.193-11.471,1.15-23.452,2.556-35.624,4.154-18.712,2.449-38.073,5.41-57.542,8.8Z" transform="translate(-1355.765 -50.687)" fill="#0045ab"/>
    <path id="Path_5374" data-name="Path 5374" d="M1527.694,169.941a376.882,376.882,0,0,1-107.342-15.624,1.119,1.119,0,0,1-.671-.554l-42.749-80.525a1.172,1.172,0,0,1,.447-1.566,1.109,1.109,0,0,1,1.523.458l42.524,80.1a372.039,372.039,0,0,0,162.893,11.012c39.745-6.3,66.743-17.658,71.728-20.714L1682.5,74.241a1.114,1.114,0,0,1,1.458-.65,1.18,1.18,0,0,1,.63,1.5l-26.6,68.639a1.139,1.139,0,0,1-.427.543c-4.2,2.8-31.917,14.75-72.9,21.247A364.228,364.228,0,0,1,1527.694,169.941Z" transform="translate(-1376.795 -46.093)" fill="#0045ab"/>
    <path id="Path_5375" data-name="Path 5375" d="M1504.414,98.906a546.165,546.165,0,0,1-123.562-14.495,1.152,1.152,0,0,1-.842-1.374,1.127,1.127,0,0,1,1.344-.873,540.848,540.848,0,0,0,135.1,14.292c42.76-1.065,82.144-7.743,113.892-19.33a1.124,1.124,0,0,1,1.438.7,1.162,1.162,0,0,1-.682,1.47c-31.971,11.672-71.6,18.393-114.594,19.458C1512.509,98.864,1508.461,98.906,1504.414,98.906Z" transform="translate(-1346.028 7.264)" fill="#0045ab"/>
    <path id="Path_5376" data-name="Path 5376" d="M1528.365,100.262q-5.9,0-11.938-.16c-39.991-1.086-84.679-7.37-136.618-19.213a1.153,1.153,0,0,1-.852-1.384,1.111,1.111,0,0,1,1.331-.873c51.8,11.821,96.351,18.084,136.192,19.159,51.567,1.385,95.829-6.166,131.527-22.461a1.1,1.1,0,0,1,1.47.586,1.161,1.161,0,0,1-.564,1.523C1615.7,92.594,1575.194,100.262,1528.365,100.262Z" transform="translate(-1356.209 -10.376)" fill="#0045ab"/>
    <path id="Path_5377" data-name="Path 5377" d="M1414.208,98.823a1.134,1.134,0,0,1-.991-.607l-4.078-7.764-.054-.1-9.031-17.179a1.173,1.173,0,0,1,.458-1.566,1.088,1.088,0,0,1,1.512.469L1411,89.164l.063.1,4.122,7.86a1.169,1.169,0,0,1-.447,1.566A1.073,1.073,0,0,1,1414.208,98.823Z" transform="translate(-1153.645 -46.681)" fill="#0045ab"/>
    <path id="Path_5378" data-name="Path 5378" d="M1415.877,108.325a1.118,1.118,0,0,1-.989-.607l-18.3-34.826a1.175,1.175,0,0,1-.171-.607,1.142,1.142,0,0,1,1.118-1.161,1.13,1.13,0,0,1,.99.607l18.328,34.889a1.17,1.17,0,0,1-.447,1.566A1.071,1.071,0,0,1,1415.877,108.325Z" transform="translate(-1187.413 -50.017)" fill="#0045ab"/>
    <path id="Path_5379" data-name="Path 5379" d="M1412.742,111.551a1.124,1.124,0,0,1-.991-.6l-20.01-38.084a1.175,1.175,0,0,1-.172-.607,1.141,1.141,0,0,1,1.119-1.161,1.115,1.115,0,0,1,.989.607l20.044,38.148a1.157,1.157,0,0,1-.447,1.555A1.073,1.073,0,0,1,1412.742,111.551Z" transform="translate(-1234.217 -50.239)" fill="#0045ab"/>
    <path id="Path_5380" data-name="Path 5380" d="M1406.685,107.655a1.107,1.107,0,0,1-1.013-.682L1387.865,73.1a1.162,1.162,0,0,1,.459-1.566,1.09,1.09,0,0,1,1.512.469l17.84,33.942a1.269,1.269,0,0,1,.138.554A1.144,1.144,0,0,1,1406.685,107.655Z" transform="translate(-1271.28 -47.472)" fill="#0045ab"/>
    <path id="Path_5381" data-name="Path 5381" d="M1399.4,100.522a1.12,1.12,0,0,1-.99-.607l-13.888-26.433a1.17,1.17,0,0,1,.447-1.566,1.111,1.111,0,0,1,1.522.469l13.889,26.433a1.171,1.171,0,0,1-.448,1.565A1.076,1.076,0,0,1,1399.4,100.522Z" transform="translate(-1303.589 -43.704)" fill="#0045ab"/>
  </g>
  <g id="Group_217" data-name="Group 217" transform="translate(0.901 0.927)">
    <path id="Path_5382" data-name="Path 5382" d="M1684.258,98.612a1.15,1.15,0,0,0,.4-.831,1.13,1.13,0,0,0-.319-.873c-16.73-17.381-60.812-27.765-117.9-27.765-14.143,0-28.7.66-43.293,1.96-66.466,5.921-127.564,18.989-145.51,23.515a1.154,1.154,0,0,0-.842.98,1.176,1.176,0,0,0,.585,1.161c17.063,9.478,48.831,27.136,125.714,32.025,17.827,1.14,33.771,1.693,48.7,1.693C1615.491,130.476,1658.815,120.05,1684.258,98.612ZM1523.357,73.4c14.517-1.3,29.011-1.949,43.09-1.949,27.063,0,52.036,2.428,72.239,7.029,20.012,4.558,34.89,11.172,43.175,19.149-25.155,20.544-67.723,30.534-130.058,30.534-14.89,0-30.778-.554-48.564-1.683-67.914-4.324-99.066-17.722-122.2-30.331C1401.916,91.1,1460.2,79.026,1523.357,73.4Z" transform="translate(-1376.793 -69.143)" fill="#0045ab"/>
    <path id="Path_5383" data-name="Path 5383" d="M1386.059,78.938a1.125,1.125,0,0,1-1.107-1,1.145,1.145,0,0,1,.97-1.289c12.226-1.651,24.24-3.057,35.688-4.185a1.156,1.156,0,0,1,.213,2.3c-11.428,1.118-23.409,2.524-35.613,4.164Z" transform="translate(-1298.154 -37.147)" fill="#0045ab"/>
    <path id="Path_5384" data-name="Path 5384" d="M1382.422,75.718h-.012a1.125,1.125,0,1,1,.012,0Z" transform="translate(-1333.389 -27.995)" fill="#0045ab"/>
    <path id="Path_5385" data-name="Path 5385" d="M1416.1,80.2a.969.969,0,0,1-.416-.085,133.809,133.809,0,0,0-14.058-4.75,1.166,1.166,0,0,1-.863-1.118,1.142,1.142,0,0,1,1.118-1.161,1.455,1.455,0,0,1,.31.043,137.044,137.044,0,0,1,14.313,4.846,1.162,1.162,0,0,1,.628,1.5A1.108,1.108,0,0,1,1416.1,80.2Z" transform="translate(-1145.465 -31.112)" fill="#0045ab"/>
    <path id="Path_5386" data-name="Path 5386" d="M1445.874,76.683l-.117-.011a406.615,406.615,0,0,0-52.462-2.055h-.021a1.151,1.151,0,0,1-.021-2.3,408.934,408.934,0,0,1,52.738,2.066,1.155,1.155,0,0,1-.117,2.3Z" transform="translate(-1228.573 -39.6)" fill="#0045ab"/>
    <path id="Path_5387" data-name="Path 5387" d="M1380.1,89.868a1.129,1.129,0,0,1-1.107-.958,1.151,1.151,0,0,1,.916-1.331c19.5-3.387,38.884-6.358,57.628-8.808,12.194-1.608,24.207-3,35.688-4.164,3.973-.394,8.094-.788,12.588-1.193,9.415-.841,18.958-1.47,28.383-1.864,17.754-.735,35.156-.65,51.738.245l.021.011c13.143.714,25.721,1.96,37.371,3.685,18.3,2.705,34.133,6.571,47.084,11.47a1.15,1.15,0,0,1,.659,1.48,1.119,1.119,0,0,1-1.437.692c-12.8-4.856-28.488-8.669-46.625-11.353-11.577-1.725-24.08-2.961-37.147-3.674h-.031c-16.508-.905-33.847-.98-51.535-.245-9.395.394-18.9,1.012-28.287,1.853-4.483.394-8.595.788-12.557,1.193-11.471,1.15-23.452,2.556-35.624,4.154-18.712,2.449-38.073,5.41-57.542,8.8Z" transform="translate(-1355.765 -50.687)" fill="#0045ab"/>
    <path id="Path_5388" data-name="Path 5388" d="M1527.694,169.941a376.882,376.882,0,0,1-107.342-15.624,1.119,1.119,0,0,1-.671-.554l-42.749-80.525a1.172,1.172,0,0,1,.447-1.566,1.109,1.109,0,0,1,1.523.458l42.524,80.1a372.039,372.039,0,0,0,162.893,11.012c39.745-6.3,66.743-17.658,71.728-20.714L1682.5,74.241a1.114,1.114,0,0,1,1.458-.65,1.18,1.18,0,0,1,.63,1.5l-26.6,68.639a1.139,1.139,0,0,1-.427.543c-4.2,2.8-31.917,14.75-72.9,21.247A364.228,364.228,0,0,1,1527.694,169.941Z" transform="translate(-1376.795 -46.093)" fill="#0045ab"/>
    <path id="Path_5389" data-name="Path 5389" d="M1504.414,98.906a546.165,546.165,0,0,1-123.562-14.495,1.152,1.152,0,0,1-.842-1.374,1.127,1.127,0,0,1,1.344-.873,540.848,540.848,0,0,0,135.1,14.292c42.76-1.065,82.144-7.743,113.892-19.33a1.124,1.124,0,0,1,1.438.7,1.162,1.162,0,0,1-.682,1.47c-31.971,11.672-71.6,18.393-114.594,19.458C1512.509,98.864,1508.461,98.906,1504.414,98.906Z" transform="translate(-1346.028 7.264)" fill="#0045ab"/>
    <path id="Path_5390" data-name="Path 5390" d="M1528.365,100.262q-5.9,0-11.938-.16c-39.991-1.086-84.679-7.37-136.618-19.213a1.153,1.153,0,0,1-.852-1.384,1.111,1.111,0,0,1,1.331-.873c51.8,11.821,96.351,18.084,136.192,19.159,51.567,1.385,95.829-6.166,131.527-22.461a1.1,1.1,0,0,1,1.47.586,1.161,1.161,0,0,1-.564,1.523C1615.7,92.594,1575.194,100.262,1528.365,100.262Z" transform="translate(-1356.209 -10.376)" fill="#0045ab"/>
    <path id="Path_5391" data-name="Path 5391" d="M1414.208,98.823a1.134,1.134,0,0,1-.991-.607l-4.078-7.764-.054-.1-9.031-17.179a1.173,1.173,0,0,1,.458-1.566,1.088,1.088,0,0,1,1.512.469L1411,89.164l.063.1,4.122,7.86a1.169,1.169,0,0,1-.447,1.566A1.073,1.073,0,0,1,1414.208,98.823Z" transform="translate(-1153.645 -46.681)" fill="#0045ab"/>
    <path id="Path_5392" data-name="Path 5392" d="M1415.877,108.325a1.118,1.118,0,0,1-.989-.607l-18.3-34.826a1.175,1.175,0,0,1-.171-.607,1.142,1.142,0,0,1,1.118-1.161,1.13,1.13,0,0,1,.99.607l18.328,34.889a1.17,1.17,0,0,1-.447,1.566A1.071,1.071,0,0,1,1415.877,108.325Z" transform="translate(-1187.413 -50.017)" fill="#0045ab"/>
    <path id="Path_5393" data-name="Path 5393" d="M1412.742,111.551a1.124,1.124,0,0,1-.991-.6l-20.01-38.084a1.175,1.175,0,0,1-.172-.607,1.141,1.141,0,0,1,1.119-1.161,1.115,1.115,0,0,1,.989.607l20.044,38.148a1.157,1.157,0,0,1-.447,1.555A1.073,1.073,0,0,1,1412.742,111.551Z" transform="translate(-1234.217 -50.239)" fill="#0045ab"/>
    <path id="Path_5394" data-name="Path 5394" d="M1406.685,107.655a1.107,1.107,0,0,1-1.013-.682L1387.865,73.1a1.162,1.162,0,0,1,.459-1.566,1.09,1.09,0,0,1,1.512.469l17.84,33.942a1.269,1.269,0,0,1,.138.554A1.144,1.144,0,0,1,1406.685,107.655Z" transform="translate(-1271.28 -47.472)" fill="#0045ab"/>
    <path id="Path_5395" data-name="Path 5395" d="M1399.4,100.522a1.12,1.12,0,0,1-.99-.607l-13.888-26.433a1.17,1.17,0,0,1,.447-1.566,1.111,1.111,0,0,1,1.522.469l13.889,26.433a1.171,1.171,0,0,1-.448,1.565A1.076,1.076,0,0,1,1399.4,100.522Z" transform="translate(-1303.589 -43.704)" fill="#0045ab"/>
  </g>
  <g id="Group_218" data-name="Group 218">
    <path id="Path_5396" data-name="Path 5396" d="M1685.641,100.165a2.073,2.073,0,0,0,.745-1.5,2.139,2.139,0,0,0-.585-1.565c-16.9-17.562-61.206-28.042-118.535-28.042-14.165,0-28.755.66-43.366,1.96-66.53,5.932-127.694,19.01-145.65,23.547a2.079,2.079,0,0,0-1.522,1.747,2.116,2.116,0,0,0,1.044,2.1c17.125,9.521,49.011,27.243,126.086,32.142,17.848,1.14,33.8,1.693,48.766,1.693C1616.533,132.242,1660.038,121.752,1685.641,100.165Zm-1.118-1.768-.021.33c-25.262,21.3-68.405,31.662-131.879,31.662-14.931,0-30.842-.554-48.648-1.693-76.691-4.878-108.343-22.471-125.341-31.918a.223.223,0,0,1-.117-.224.215.215,0,0,1,.171-.192c17.913-4.526,78.947-17.573,145.372-23.494,14.548-1.3,29.1-1.96,43.207-1.96C1624.116,70.909,1667.951,81.186,1684.522,98.4Zm-1.289.809.82-.671-.756-.735c-8.393-8.094-23.474-14.793-43.6-19.383-20.258-4.611-45.306-7.05-72.432-7.05-14.1,0-28.627.65-43.176,1.949-60.3,5.378-117.905,16.848-142.432,22.78l-2.344.564,2.13,1.15c24.4,13.313,56.147,26.21,122.55,30.438,17.807,1.129,33.718,1.683,48.628,1.683C1615.191,129.931,1657.919,119.878,1683.233,99.206ZM1524.25,75.169c14.5-1.3,28.969-1.949,43.016-1.949,27,0,51.909,2.418,72.048,7.008,19.191,4.377,33.675,10.65,41.971,18.19-25.1,19.958-67.2,29.66-128.662,29.66-14.867,0-30.747-.554-48.511-1.683-64.135-4.079-95.722-16.263-119.685-29.064C1410.1,91.272,1465.91,80.366,1524.25,75.169Z" transform="translate(-1376.71 -69.056)" fill="#0045ab"/>
    <path id="Path_5397" data-name="Path 5397" d="M1387.143,80.689c12.185-1.64,24.166-3.046,35.583-4.164a2.1,2.1,0,0,0,1.1-3.674,1.943,1.943,0,0,0-1.479-.469c-11.471,1.129-23.494,2.535-35.72,4.175a2.084,2.084,0,0,0-1.748,2.332,2.043,2.043,0,0,0,2,1.81Zm35.6-6.262a.212.212,0,0,1-.191.245c-11.438,1.129-23.44,2.535-35.646,4.175l-.033.927v-.927a.225.225,0,0,1-.021-.447c12.205-1.651,24.207-3.046,35.656-4.175h.011A.239.239,0,0,1,1422.746,74.427Z" transform="translate(-1298.071 -37.056)" fill="#0045ab"/>
    <path id="Path_5398" data-name="Path 5398" d="M1385.255,75.4a2.024,2.024,0,1,0-2.034,2.087h.012A2.064,2.064,0,0,0,1385.255,75.4Zm-1.811,0a.225.225,0,0,1-.212.234h-.012a.225.225,0,0,1-.212-.234.218.218,0,1,1,.436,0Z" transform="translate(-1333.299 -27.908)" fill="#0045ab"/>
    <path id="Path_5399" data-name="Path 5399" d="M1418.788,80.647a2.127,2.127,0,0,0-.021-1.6,2.008,2.008,0,0,0-1.118-1.108,134.7,134.7,0,0,0-14.41-4.878,2.082,2.082,0,0,0-2.556,2.013,2.055,2.055,0,0,0,1.512,2.013,131.269,131.269,0,0,1,13.974,4.718,1.8,1.8,0,0,0,.746.149A2.006,2.006,0,0,0,1418.788,80.647Zm-16.028-5.794a136.131,136.131,0,0,1,14.229,4.814l.127.3a.214.214,0,0,1-.2.138l-.086-.021a136.816,136.816,0,0,0-14.175-4.793.228.228,0,0,1-.17-.213c0-.128.084-.224.255-.224Z" transform="translate(-1145.375 -31.018)" fill="#0045ab"/>
    <path id="Path_5400" data-name="Path 5400" d="M1448.707,76.585a2.071,2.071,0,0,0-1.8-2.29,410.625,410.625,0,0,0-52.855-2.066,2.078,2.078,0,0,0,.085,4.154,405.221,405.221,0,0,1,52.356,2.055l.2.011A2.033,2.033,0,0,0,1448.707,76.585Zm-54.613-2.055a.224.224,0,0,1-.01-.447,407.025,407.025,0,0,1,52.633,2.055.236.236,0,0,1,.2.256.221.221,0,0,1-.224.2h-.021a392.094,392.094,0,0,0-42.313-2.173C1400.974,74.423,1397.545,74.455,1394.094,74.53Z" transform="translate(-1228.491 -39.513)" fill="#0045ab"/>
    <path id="Path_5401" data-name="Path 5401" d="M1381.242,91.612c19.458-3.387,38.8-6.347,57.511-8.8,12.173-1.6,24.154-2.993,35.593-4.143,3.961-.4,8.071-.8,12.556-1.2,9.361-.831,18.861-1.448,28.233-1.842,17.657-.735,34.975-.65,51.481.245,13.046.714,25.518,1.949,37.073,3.664,18.084,2.673,33.707,6.475,46.444,11.3a2.008,2.008,0,0,0,2.6-1.235,2.153,2.153,0,0,0-.064-1.587,2.02,2.02,0,0,0-1.14-1.076c-13-4.931-28.9-8.808-47.265-11.523-11.684-1.736-24.282-2.982-37.478-3.706-16.613-.895-34.048-.98-51.823-.234-9.415.383-18.978,1.012-28.414,1.853-4.5.4-8.627.8-12.6,1.2-11.491,1.15-23.5,2.556-35.72,4.164-18.776,2.46-38.182,5.421-57.66,8.808a2.015,2.015,0,0,0-1.309.852,2.1,2.1,0,0,0-.343,1.555,2.035,2.035,0,0,0,1.992,1.736Zm185.48-18.041c13.111.714,25.657,1.949,37.286,3.674,18.232,2.705,34.017,6.55,46.9,11.427l.128.288a.219.219,0,0,1-.277.138c-12.865-4.867-28.616-8.7-46.817-11.406-11.607-1.715-24.133-2.961-37.253-3.674-16.551-.905-33.91-.98-51.621-.245-9.4.394-18.935,1.012-28.329,1.853-4.494.4-8.6.788-12.566,1.193-11.47,1.161-23.462,2.556-35.656,4.154-18.724,2.46-38.1,5.421-57.563,8.808l-.043.927V89.78a.207.207,0,0,1-.212-.181l.17-.266c19.457-3.387,38.841-6.347,57.595-8.808,12.185-1.6,24.187-2.993,35.667-4.154,3.962-.4,8.084-.8,12.566-1.193,9.415-.841,18.947-1.47,28.34-1.853q11.966-.511,23.676-.5C1548.235,72.825,1557.6,73.07,1566.723,73.57Z" transform="translate(-1355.677 -50.598)" fill="#0045ab"/>
    <path id="Path_5402" data-name="Path 5402" d="M1585.615,167.275c41.119-6.518,69.022-18.552,73.25-21.385a2.052,2.052,0,0,0,.777-.969l26.594-68.65a2.09,2.09,0,0,0-1.119-2.695,1.971,1.971,0,0,0-1.555.011,2.08,2.08,0,0,0-1.075,1.15l-26.349,67.99c-6.006,3.515-32.823,14.367-71.143,20.437a371.237,371.237,0,0,1-162.146-10.884l-42.344-79.747a2,2,0,0,0-1.2-1,1.928,1.928,0,0,0-1.533.17,2.068,2.068,0,0,0-.979,1.235,2.155,2.155,0,0,0,.17,1.587l42.749,80.514a2.041,2.041,0,0,0,1.215,1.012,377.666,377.666,0,0,0,107.586,15.666A366.293,366.293,0,0,0,1585.615,167.275ZM1378.93,73.416l42.516,80.1.181.341.362.107A373.073,373.073,0,0,0,1585.273,165c39.16-6.209,66.521-17.445,72.048-20.831l.266-.16,26.572-68.586.287-.128a.231.231,0,0,1,.117.3l-26.677,68.746c-4.166,2.78-31.717,14.633-72.548,21.108a364.064,364.064,0,0,1-56.829,4.409,373.779,373.779,0,0,1-107.225-15.7l-42.75-80.525a.254.254,0,0,1,.1-.3Z" transform="translate(-1376.709 -46.003)" fill="#0045ab"/>
    <path id="Path_5403" data-name="Path 5403" d="M1517.345,100.523c43.089-1.065,82.815-7.806,114.87-19.5a2.029,2.029,0,0,0,1.15-1.076,2.1,2.1,0,0,0,.076-1.587,2,2,0,0,0-1.034-1.182,1.952,1.952,0,0,0-1.544-.085C1599.2,88.649,1559.913,95.3,1517.249,96.37A539.857,539.857,0,0,1,1382.366,82.1a2.021,2.021,0,0,0-1.522.266,2.1,2.1,0,0,0,.628,3.791,548.823,548.823,0,0,0,123.753,14.516C1509.271,100.672,1513.352,100.63,1517.345,100.523ZM1381.962,83.909a541.981,541.981,0,0,0,135.33,14.314c42.854-1.065,82.335-7.764,114.178-19.383l.277.138h0a.225.225,0,0,1-.138.288C1599.733,90.9,1560.2,97.605,1517.3,98.67a544.064,544.064,0,0,1-135.437-14.314.226.226,0,0,1-.159-.277.241.241,0,0,1,.224-.17Z" transform="translate(-1345.938 7.351)" fill="#0045ab"/>
    <path id="Path_5404" data-name="Path 5404" d="M1650.095,79.133a2.055,2.055,0,0,0,1.064-1.15,2.128,2.128,0,0,0-.031-1.6,2.034,2.034,0,0,0-1.13-1.1,1.9,1.9,0,0,0-1.543.043c-35.562,16.231-79.685,23.771-131.123,22.376-39.789-1.076-84.285-7.327-136.023-19.138a1.98,1.98,0,0,0-1.522.277,2.054,2.054,0,0,0-.894,1.3,2.144,2.144,0,0,0,.266,1.576,2.076,2.076,0,0,0,1.267.916c52,11.864,96.746,18.148,136.8,19.234,3.993.107,8.019.16,11.959.16C1576.119,102.031,1616.8,94.331,1650.095,79.133ZM1517.278,99.56c51.727,1.384,96.095-6.2,131.911-22.535l.287.117a.266.266,0,0,1-.106.3c-33.068,15.08-73.5,22.738-120.186,22.738-3.931,0-7.935-.053-11.918-.17-39.926-1.065-84.561-7.349-136.446-19.181a.242.242,0,0,1-.172-.277l.267-.17C1432.771,92.211,1477.372,98.484,1517.278,99.56Z" transform="translate(-1356.128 -10.292)" fill="#0045ab"/>
    <path id="Path_5405" data-name="Path 5405" d="M1415.98,100.343a2.059,2.059,0,0,0,.979-1.246,2.125,2.125,0,0,0-.159-1.576l-13.163-25.038a2,2,0,0,0-2.748-.852,2.117,2.117,0,0,0-.809,2.822l13.162,25.038a1.993,1.993,0,0,0,2.737.852ZM1402.05,73.356,1415.215,98.4a.217.217,0,0,1-.1.3c-.053.032-.16.16-.287-.085l-13.164-25.049a.212.212,0,0,1,.086-.3Z" transform="translate(-1153.559 -46.593)" fill="#0045ab"/>
    <path id="Path_5406" data-name="Path 5406" d="M1417.656,109.836a2.075,2.075,0,0,0,.979-1.235,2.124,2.124,0,0,0-.16-1.576l-18.339-34.889a2.016,2.016,0,0,0-1.778-1.1,2.058,2.058,0,0,0-2.024,2.087,1.948,1.948,0,0,0,.289,1.044l18.3,34.826a2,2,0,0,0,1.778,1.1A1.934,1.934,0,0,0,1417.656,109.836Zm-19.1-36.817,18.33,34.879a.266.266,0,0,1-.1.309.2.2,0,0,1-.287-.085l-18.36-35a.218.218,0,0,1,.213-.234A.235.235,0,0,1,1398.56,73.019Z" transform="translate(-1187.333 -49.93)" fill="#0045ab"/>
    <path id="Path_5407" data-name="Path 5407" d="M1414.511,113.072a2.072,2.072,0,0,0,.98-1.235,2.157,2.157,0,0,0-.16-1.587l-20.043-38.138a2.033,2.033,0,0,0-1.789-1.1,2.1,2.1,0,0,0-1.736,3.142l20.011,38.074a1.971,1.971,0,0,0,2.737.841ZM1393.7,73l20.045,38.138a.254.254,0,0,1-.1.309c-.053.032-.17.149-.287-.1L1393.286,73.1a.225.225,0,0,1,.213-.234A.236.236,0,0,1,1393.7,73Z" transform="translate(-1234.126 -50.152)" fill="#0045ab"/>
    <path id="Path_5408" data-name="Path 5408" d="M1409.521,107.335a2.136,2.136,0,0,0-.244-.99l-17.829-33.952a2.051,2.051,0,0,0-1.215-1,1.933,1.933,0,0,0-1.532.16,2.116,2.116,0,0,0-.811,2.822l17.776,33.824a2,2,0,0,0,1.831,1.225A2.057,2.057,0,0,0,1409.521,107.335Zm-19.659-34.059,17.859,34.059c0,.234-.33.3-.447.043l-17.8-33.888a.228.228,0,0,1,.084-.309Z" transform="translate(-1271.193 -47.386)" fill="#0045ab"/>
    <path id="Path_5409" data-name="Path 5409" d="M1401.171,102.035a2.1,2.1,0,0,0,.811-2.812L1388.093,72.79a2.021,2.021,0,0,0-1.2-1.012,1.933,1.933,0,0,0-1.533.17,2.022,2.022,0,0,0-.969,1.235,2.081,2.081,0,0,0,.148,1.576l13.9,26.433a2,2,0,0,0,1.778,1.1A1.927,1.927,0,0,0,1401.171,102.035Zm-14.654-28.372L1400.4,100.1a.235.235,0,0,1-.095.309c-.086.053-.192.107-.3-.085l-13.887-26.433a.266.266,0,0,1,.1-.309Z" transform="translate(-1303.505 -43.62)" fill="#0045ab"/>
  </g>
</svg>
