<svg xmlns="http://www.w3.org/2000/svg" width="185.578" height="75.567" viewBox="0 0 185.578 75.567">
  <path id="Path_5009" data-name="Path 5009" d="M1502.013,252.719c6.378.4,18.234,1.163,24.994,1.521,6.76.334,8.433.279,9.523.016s1.609-.756,2.4-3.074a71.486,71.486,0,0,0,2.611-12.238c.789-5.749,1.331-13.035,1.53-19.174a159.749,159.749,0,0,0-.3-16.546c-.357-5.43-.907-11.291-1.576-17.358-.684-6.044-1.489-12.294-2.182-18.139-.677-5.821-1.258-11.243-1.608-16.212s-.5-9.452-.407-14.579.4-10.885.94-16.14,1.29-10.025,2.022-14.046,1.418-7.278,1.879-10.909a55.094,55.094,0,0,0,.447-10.917,22.141,22.141,0,0,0-2.166-8,16.1,16.1,0,0,0-3.91-5.263,11.764,11.764,0,0,0-5.239-2.54,14.964,14.964,0,0,0-7.151.534,102.679,102.679,0,0,0-12.468,4.626c-5.192,2.222-11.395,5.032-16.18,7.294-4.77,2.253-8.122,3.965-10.232,5.04a21.533,21.533,0,0,0-3.853,2.206,13.662,13.662,0,0,0-2.684,2.827,24.148,24.148,0,0,0-1.951,3.551,38.691,38.691,0,0,0-2.023,5.064c-.859,2.628-2.021,6.665-3.176,11.593-1.139,4.953-2.277,10.773-2.939,15.75a75.742,75.742,0,0,0-.66,13.114,71.06,71.06,0,0,0,1.464,11.88,81.03,81.03,0,0,0,3.472,11.45c1.474,3.933,3.249,8.114,5.327,13.512,2.054,5.4,4.4,12.015,6.442,18.72,2.046,6.689,3.79,13.5,5.088,19.874,1.306,6.4,2.173,12.374,2.683,17.016.486,4.618.637,7.923.765,10.646s.23,4.873.366,6.187.326,1.784.885,2.03c.557.263,1.481.295,7.875.685ZM1518.05,81.572,1507.8,94.153c-1.091.406-2.253.82-3.464,1.25l16.395-20.719c-.851,2.054-1.688,4.1-2.683,6.848ZM1510.1,93.317l6.8-8.353c-.551,1.8-1.131,3.878-1.681,6.37-1.362.549-2.954,1.163-5.12,1.983Zm-8.137,2.938,15.24-20.066-6.721,2.859-13.21,18.863c1.513-.526,3.122-1.1,4.691-1.656Zm5.749-15.989L1494.863,98.8c-1.9.677-3.568,1.282-5.064,1.831l11.745-17.685c1.968-.868,4.03-1.76,6.171-2.675Zm-24.285,12.008-5.725,9.6-.223.613c-.334.924-.677,1.919-1.028,2.946,1.194-.414,2.39-.844,3.567-1.258l10.2-16.029a32.76,32.76,0,0,0-6.791,4.125Zm15.383-8.13-11.3,17.319c-.948.35-1.856.685-2.786,1.011-.805.311-1.6.6-2.422.884l10.447-16.435c1.768-.836,3.806-1.776,6.06-2.779ZM1514,97.824c-1.951-.685-3.925-1.362-6-2.062-1.035.35-2.133.741-3.312,1.131l-.565.183c3.121,1.139,6.3,2.309,9.468,3.5.135-.948.262-1.863.406-2.755Zm-3.52-2.938,3.8,1.282c.158-.987.342-1.935.517-2.819l-3.527,1.25Zm2.907,7.365c-3.146-1.171-6.314-2.357-9.921-3.679-.589-.223-1.219-.438-1.848-.669-1.6.51-3.217,1.043-4.658,1.545l-.255.08c5.256,2.166,10.725,4.483,16.212,6.8.151-1.393.295-2.747.47-4.077Zm-.614,5.8c-3.105-1.346-6.274-2.7-9.857-4.172-2.636-1.115-5.5-2.277-8.544-3.5-1.378.51-2.723,1.019-4.237,1.592l-.542.2c1.052.462,2.135.94,3.217,1.425,6.234,2.787,12.924,5.908,19.667,9.053l.08-1.768c.072-.955.135-1.9.215-2.835Zm-.374,6.37c-2.961-1.4-6-2.835-9.412-4.4-4.109-1.871-8.766-3.973-13.886-6.195-.612-.271-1.234-.541-1.84-.812-1.7.605-3.479,1.234-5.119,1.8l-.088.048c3.448,1.473,6.975,3.018,10.653,4.666,6.227,2.795,12.891,5.892,19.611,9.037-.008-1.378.04-2.771.08-4.141Zm-.08,5.94c-2.969-1.409-6-2.843-9.419-4.411-4.109-1.9-8.783-3.989-13.886-6.211-3.01-1.314-6.163-2.659-9.364-4.021-1.291.462-2.516.908-3.719,1.346l-.152.478c5.717,2.437,11.491,4.9,17.7,7.684,6.02,2.7,12.453,5.677,18.936,8.7-.057-1.178-.08-2.373-.1-3.567Zm.192,5.423c-2.8-1.314-5.662-2.667-8.855-4.141-4.109-1.9-8.767-3.989-13.885-6.211-4.587-1.983-9.531-4.1-14.509-6.2-.286.908-.558,1.855-.812,2.795,5.917,2.516,11.864,5.064,18.306,7.947,6.346,2.851,13.154,6.028,20.01,9.213-.1-1.131-.192-2.253-.255-3.4Zm.454,5.3c-3.177-1.489-6.378-3.01-10.033-4.7-4.109-1.9-8.767-3.989-13.887-6.211-4.745-2.07-9.889-4.252-15.065-6.442-.191.693-.367,1.4-.549,2.1-.056.231-.111.47-.176.725,3.759,1.5,7.509,3.018,11.292,4.634,4.188,1.784,8.4,3.679,12.318,5.438,3.917,1.784,7.532,3.448,10.478,4.865,2.357,1.115,4.26,2.078,6.084,3.018-.143-.916-.271-1.839-.374-2.771l-.088-.661Zm-40.147-12.668c3.758,1.521,7.6,3.089,12.637,5.239,5.51,2.325,12.4,5.327,17.637,7.771,4.436,2.062,7.659,3.71,10.7,5.3.319,1.871.709,3.726,1.138,5.526-.445-.326-.939-.685-1.457-1.019-1.234-.812-2.707-1.672-4.865-2.835-2.166-1.147-5.016-2.572-8.8-4.34s-8.5-3.846-13.49-5.948c-4.6-1.927-9.427-3.87-14.292-5.789.24-1.3.5-2.6.789-3.91Zm42.822,26.714a26.731,26.731,0,0,0-3.321-2.524,75.38,75.38,0,0,0-7.611-4.2c-3.073-1.569-6.657-3.281-10.319-4.993s-7.406-3.384-11.4-5.04c-3.608-1.5-7.4-2.954-11.228-4.4-.231,1.362-.414,2.747-.574,4.141,3.042,1.131,6.108,2.309,9.356,3.591,3.655,1.465,7.556,3.105,11.043,4.666,3.512,1.561,6.633,3.05,9.372,4.443s5.089,2.7,6.992,3.87a31.105,31.105,0,0,1,4.427,3.273c.238.2.445.39.661.605a1.885,1.885,0,0,1,1.981.247c.534-.207,1.036-.4,1.5-.549-.3-1.035-.59-2.07-.877-3.121Zm-34.127,18.823a1.056,1.056,0,0,0,1.529.51,1.389,1.389,0,0,0,.733-1.632,1.047,1.047,0,0,0-1.521-.51,1.4,1.4,0,0,0-.74,1.632Zm30.879-12.844a1.045,1.045,0,0,0,1.521.5,1.389,1.389,0,0,0,.741-1.632,1.048,1.048,0,0,0-1.529-.5,1.393,1.393,0,0,0-.733,1.632Zm-7.676,2.962a1.047,1.047,0,0,0,1.521.51,1.412,1.412,0,0,0,.74-1.656,1.056,1.056,0,0,0-1.52-.5,1.412,1.412,0,0,0-.741,1.648Zm-7.189,3.4a1.038,1.038,0,0,0,1.5.5,1.384,1.384,0,0,0,.741-1.648,1.028,1.028,0,0,0-1.506-.5,1.365,1.365,0,0,0-.74,1.648Zm-7.231,2.771a1.069,1.069,0,0,0,1.529.5,1.409,1.409,0,0,0,.741-1.648,1.056,1.056,0,0,0-1.53-.51,1.433,1.433,0,0,0-.74,1.656Zm32.217,5.3c-.924,1.784-1.983,3.838-4,7.588-2.39,4.4-6.084,11.163-10.2,18.513-4.117,7.326-8.655,15.24-11.514,20.2-1.935,3.4-3.09,5.4-4,6.959.453,2.437.844,4.881,1.218,7.365,2.651-4.268,5.3-8.576,8.154-13.337,3.161-5.3,6.577-11.155,9.658-16.49s5.861-10.144,8.154-14.38c1.919-3.519,3.5-6.649,5.025-9.722-.454-1.242-.908-2.476-1.37-3.679-.367-1.027-.749-2.03-1.122-3.018Zm-30.161,50.873c3.567-6.235,7.077-12.374,9.921-17.358,3.138-5.51,5.454-9.6,7.54-13.258s3.918-6.9,5.566-9.889,3.13-5.749,4.307-7.931c.852-1.608,1.552-2.882,2.214-4.1-1.608-4.3-3.161-8.472-4.555-12.9-.088-.279-.183-.557-.27-.852-.479.191-.979.366-1.481.557a2.7,2.7,0,0,1-.2.573,24.17,24.17,0,0,1,1.936,3.137,6.337,6.337,0,0,1,.915,2.938,10.346,10.346,0,0,1-1.107,4.109,108.1,108.1,0,0,1-4.944,9.7c-2.755,4.993-6.92,12.254-10.837,19.126-3.7,6.481-7.159,12.629-10.614,18.736.175.756.342,1.481.517,2.237.366,1.712.74,3.448,1.092,5.176Zm-2.166-9.8c1.369-2.269,2.866-4.754,5.119-8.719,2.627-4.61,6.306-11.2,9.491-16.817,3.2-5.637,5.908-10.3,7.8-13.783a65.8,65.8,0,0,0,3.5-7.254,5.576,5.576,0,0,0,.589-2.994,7.077,7.077,0,0,0-.892-2.413c-.422-.733-.956-1.433-1.52-2.222l-.072.032a1.947,1.947,0,0,1-2.373-.326c-.247.08-.518.183-.765.287-.971.39-1.974.788-3.033,1.218.207.151.4.318.589.47,1.473,1.2,2.389,2.086,2.779,3.3a6.947,6.947,0,0,1-.621,4.746c-.852,2.062-2.4,4.642-6.274,11.378-3.774,6.545-9.738,17.008-15.75,27.55.493,1.855.963,3.7,1.426,5.55Zm21.689-57.163-.326-.287a28.609,28.609,0,0,0-5.025-3.647c-2.214-1.338-4.993-2.811-7.867-4.244-2.851-1.425-5.812-2.811-9.38-4.364-3.559-1.529-7.748-3.209-11.076-4.523-2.819-1.1-5.048-1.951-7.158-2.771-.16,1.68-.271,3.384-.31,5.072,3.567,1.37,7.142,2.763,10.789,4.308,4.084,1.7,8.24,3.591,11.847,5.407,3.6,1.839,6.657,3.647,9.214,5.287.963.653,1.871,1.266,2.69,1.855a1.932,1.932,0,0,1,2.23.342c1.489-.629,2.835-1.2,4.006-1.7a2.976,2.976,0,0,1,.366-.733ZM1488.19,199c2.548-4.459,5.073-8.886,7.453-12.947,2.548-4.363,4.929-8.321,7.007-11.96s3.854-6.967,5.057-9.276a28.511,28.511,0,0,0,2.15-4.6,3.532,3.532,0,0,0,.024-2.317,5.5,5.5,0,0,0-1.7-2.19c-.262-.247-.582-.533-.939-.828a2.208,2.208,0,0,1-.709.526,1.981,1.981,0,0,1-2.261-.207c-.7.279-1.418.6-2.158.916l-1.345.549a1.833,1.833,0,0,1-.04.358c.637.5,1.2.987,1.672,1.4,1.465,1.282,2,2.07,2.1,2.9s-.231,1.72-1.29,3.814c-1.043,2.094-2.819,5.375-5.064,9.332-2.237,3.941-4.953,8.52-7.039,12.079-1.784,3.034-3.121,5.311-4.372,7.469l.216.717c.414,1.4.836,2.835,1.233,4.268Zm15.958-46.493-.437-.3c-1.736-1.226-3.5-2.357-5.71-3.663s-4.889-2.8-8.137-4.363-7.063-3.2-10.559-4.618c-3.058-1.258-5.845-2.333-8.6-3.4q-.048,2.6.071,5.152c3.766,1.616,7.446,3.209,10.312,4.539,3.09,1.417,5.223,2.516,7.588,3.75,2.357,1.218,4.929,2.58,7.406,4.156.628.4,1.257.812,1.863,1.242l.015-.016a2.006,2.006,0,0,1,2.118.1c1.17-.494,2.3-1,3.4-1.465l.271-.119a2.48,2.48,0,0,1,.4-1Zm-33.243-9.3c3.725,1.616,7.437,3.249,10.781,4.793,3.615,1.68,6.816,3.273,9.475,4.754,2.253,1.258,4.116,2.429,5.614,3.432a3.86,3.86,0,0,0-.143.382c-1.2.494-2.389,1-3.543,1.489a1.949,1.949,0,0,0-2.349-.3l-.056.032c-1.034-.637-2.2-1.3-3.718-2.062-2.086-1.075-4.833-2.325-7.723-3.615-2.476-1.091-5.056-2.19-7.652-3.3-.295-1.784-.526-3.663-.684-5.606Zm28.959,15.248c.43.35.8.661,1.138.956.821.685,1.434,1.218,1.513,2.078.064.844-.382,2.007-1.633,4.459-1.233,2.429-3.256,6.115-5.988,10.853-2.516,4.411-5.653,9.714-8.823,15.073-.5-1.624-1.019-3.217-1.552-4.817,1.09-1.919,2.245-3.957,3.83-6.76,1.9-3.344,4.372-7.771,5.932-10.7s2.2-4.4,2.3-5.55a3.355,3.355,0,0,0-1.179-2.882,12.46,12.46,0,0,0-1.751-1.449c1.059-.454,2.143-.924,3.217-1.37a1.921,1.921,0,0,0,2.476.462,2.266,2.266,0,0,0,.518-.35Zm-16.125,26.324c1.227-2.022,2.452-4.045,3.663-6.1,1.362-2.309,2.723-4.658,4.021-7.055a42.485,42.485,0,0,0,3.026-6.434,2.722,2.722,0,0,0-.892-3.392c-.239-.215-.51-.43-.812-.661a3.37,3.37,0,0,1-.629.438,1.965,1.965,0,0,1-2.285-.255c-1.616.669-3.145,1.3-4.6,1.919l.167.1a5.742,5.742,0,0,1,2.325,2.158,3.886,3.886,0,0,1,.087,2.922,29.431,29.431,0,0,1-2.325,5.327c-.963,1.863-2.158,4.053-3.392,6.3.559,1.561,1.115,3.137,1.649,4.73Zm5.8-25.767c-.4-.239-.82-.486-1.242-.709-2.142-1.218-4.428-2.365-6.833-3.48-2.388-1.139-4.9-2.237-6.735-3.01-1.139-.486-2.008-.836-2.8-1.155.319,1.6.677,3.113,1.06,4.5.135.526.286,1.019.445,1.5,2.094,1.091,4.181,2.206,6.21,3.312.861.47,1.712.955,2.525,1.417a1.873,1.873,0,0,1,2.063.326c1.544-.669,3.248-1.354,5.111-2.11a2.516,2.516,0,0,1,.2-.6Zm-8.146,19.054c.725-1.171,1.434-2.357,2.11-3.591.813-1.465,1.569-2.986,2.11-4.2a8.9,8.9,0,0,0,.916-2.859,2.208,2.208,0,0,0-.859-1.967,13.807,13.807,0,0,0-1.331-1.027,2.723,2.723,0,0,1-1,.892,1.984,1.984,0,0,1-2.261-.231c-.987.462-1.927.908-2.875,1.362.439.247.861.486,1.219.725a4.851,4.851,0,0,1,1.656,1.513,3.114,3.114,0,0,1,.414,1.815,6.952,6.952,0,0,1-.573,2.182c-.232.533-.534,1.123-.868,1.736.439,1.194.892,2.437,1.346,3.655Zm-.462-15.662c-.963-.541-2-1.075-3.042-1.632-1.234-.669-2.5-1.338-3.774-2.007.694,2.038,1.5,4.061,2.445,6.481,1.266-.621,2.572-1.258,4-1.919a2.562,2.562,0,0,1,.374-.924Zm-1.624,10.041a9.82,9.82,0,0,0,.493-1.083,2.608,2.608,0,0,0,.12-1.5,2.025,2.025,0,0,0-.955-1.21,13.357,13.357,0,0,0-1.4-.836c.549,1.457,1.14,3,1.744,4.626Zm46.374,1.728c-1.091,2.373-2.326,4.961-4.348,8.727-2.476,4.579-6.107,10.9-9.658,17.064-3.527,6.155-6.975,12.167-9.962,17.231-2.675,4.523-4.992,8.313-7.269,12.008.334,2.675.653,5.391.907,7.851,1.282-1.871,2.62-3.838,4.244-6.394,2.078-3.281,4.61-7.461,7.733-12.828,3.128-5.391,6.815-11.928,9.706-17.207s4.976-9.292,6.767-12.812c1.435-2.8,2.652-5.311,3.854-7.771-.628-1.967-1.282-3.941-1.975-5.868Zm2.762,8.393c-1.114,2.4-2.436,5.168-4.721,9.6-2.826,5.494-7.174,13.56-11.505,21.156-4.34,7.62-8.671,14.731-11.634,19.524-2.189,3.535-3.63,5.821-4.881,7.74.136,1.21.239,2.317.334,3.225.351,3.527.463,4.411.957,4.913a1.688,1.688,0,0,0,.485.311c1.163-1.776,2.35-3.543,3.552-5.367,1.553-2.365,3.145-4.817,5.845-9.1s6.5-10.375,9.754-15.989c3.249-5.629,5.964-10.757,8.312-15.447,2.127-4.22,3.959-8.082,5.75-11.888-.255-1.21-.542-2.4-.844-3.623-.438-1.68-.908-3.384-1.4-5.056ZM1499.8,249.422c1.831-2.874,3.7-5.8,5.8-9.069,2.389-3.758,5.048-8,7.628-12.294,2.58-4.276,5.071-8.584,7.007-12.127,1.951-3.535,3.353-6.306,4.937-9.452,1.569-3.129,3.313-6.657,4.523-9.229.62-1.322,1.129-2.381,1.553-3.328.5,2.62.922,5.271,1.289,7.994-1.569,3.344-3.122,6.665-4.666,9.77-1.823,3.663-3.623,7.039-5.511,10.487s-3.894,6.975-5.835,10.272c-1.928,3.312-3.814,6.4-5.709,9.436-1.712,2.683-3.432,5.343-5.168,8-2.285-.191-4.141-.334-5.47-.43Zm33.116-44.3c-1.273,2.683-2.6,5.446-4.244,8.7-2,3.973-4.443,8.671-7.134,13.5-2.667,4.825-5.558,9.786-8,13.791-2.1,3.48-3.854,6.259-5.574,8.942l.461.024c1.736.151,3.624.3,5.511.438,1.13-1.712,2.364-3.679,4.148-6.792,2.293-4.013,5.487-9.921,7.693-14.054s3.462-6.489,4.752-9.149c1.051-2.134,2.117-4.483,3.193-6.84-.151-2-.327-3.965-.518-5.9-.1-.9-.167-1.784-.287-2.667Zm1.027,11.8c-1.012,2.293-2.1,4.666-3.457,7.437-1.807,3.663-4.107,8.018-6.338,12.087-2.205,4.061-4.355,7.835-5.86,10.407-.987,1.68-1.688,2.827-2.309,3.83,1.33.072,2.628.159,3.854.215,1.369.08,2.62.119,3.783.151l10.988-19.819c-.017-.669-.049-1.362-.057-2.07-.127-3.838-.326-8.01-.6-12.238Zm.74,16.976-9.46,17.2c1.2.04,2.278.072,3.3.119,1.251.064,2.406.167,3.353.143l3-5.566v-.748c-.048-2.715-.088-6.585-.192-11.148Zm4.237,7.389c-.239.534-.487,1.059-.733,1.577-.287.621-.589,1.242-.876,1.847.015,1.155.032,2.293.048,3.448.526-2.07,1.068-4.133,1.562-6.872Zm-1.657-.056c.453-.868.908-1.752,1.313-2.683.407-.908.774-1.847,1.156-2.827.374-3.241.684-7,.859-10.956.063-1.266.112-2.572.127-3.886-.389,1.155-.781,2.23-1.138,3.177-.565,1.449-1.052,2.508-1.609,3.727-.311.661-.62,1.346-.954,2.062l.007.263c.12,3.782.192,7.477.24,11.124Zm-.374-15.264c.469-1,.922-2.031,1.352-3.082.679-1.64,1.283-3.352,1.776-4.937.28-.892.526-1.728.749-2.54-.022-2.6-.1-5.215-.27-7.867-.087-1.489-.183-3-.319-4.5-.3.892-.6,1.792-.932,2.659-.652,1.744-1.336,3.424-2,4.961-.342.764-.676,1.5-.987,2.229.246,4,.462,8.52.63,13.075ZM1536,209.156c.733-1.712,1.45-3.472,2.117-5.3.6-1.593,1.147-3.233,1.681-4.913-.279-2.89-.62-5.693-.932-8.241-.222.772-.477,1.585-.771,2.452-.613,1.728-1.37,3.687-2.047,5.223-.334.756-.644,1.441-.939,2.07.382,2.8.669,5.614.891,8.7Zm-1.377-11.872c.414-.868.851-1.8,1.314-2.9.708-1.7,1.465-3.8,2-5.438.2-.637.367-1.218.51-1.744-.382-2.89-.74-5.55-1.115-8.193l-.095.39a30.016,30.016,0,0,1-.9,3.066c-.382,1.163-.891,2.58-1.52,4.164-.472,1.171-1.012,2.445-1.562,3.719.5,2.277.971,4.634,1.37,6.935Zm2.038-23.02c-.127.892-.294,1.8-.517,2.795a54.849,54.849,0,0,1-1.514,5.279c-.516,1.5-.93,2.476-1.409,3.559-.214.47-.429.987-.653,1.5-.294-1.155-.564-2.269-.851-3.344-.462-1.768-.915-3.368-1.4-4.953a38.245,38.245,0,0,0,1.648-3.934,39.277,39.277,0,0,0,1.506-5.622,34.678,34.678,0,0,0,.572-5.518,45.575,45.575,0,0,0-.175-5.685,23.937,23.937,0,0,0-.812-4.308,20.5,20.5,0,0,0-1.107-2.914c-.136-.3-.278-.589-.423-.868.845.159,1.681.326,2.54.494.239,4.236.638,8.345,1.075,12.167.487,4.053,1,7.771,1.521,11.347Zm-7.333-24.349a21.772,21.772,0,0,1,1.584,3.042,19.123,19.123,0,0,1,1.353,4.833,32.285,32.285,0,0,1,.312,6.028,37.709,37.709,0,0,1-.749,5.8,30.945,30.945,0,0,1-1.314,4.5c-.328.844-.669,1.624-1.027,2.381-.4-1.21-.852-2.452-1.346-3.8-.238-.661-.518-1.346-.779-2.054.2-.6.382-1.178.525-1.784a27.019,27.019,0,0,0,.7-3.718,32.175,32.175,0,0,0,.255-3.91,25.852,25.852,0,0,0-.271-3.9,25.3,25.3,0,0,0-.922-3.814,14.659,14.659,0,0,0-1.251-2.835,13.012,13.012,0,0,0-.747-1.178c1.106.08,2.276.207,3.462.382Zm-5.645-.518a13.4,13.4,0,0,1,1.863,2.715,18.958,18.958,0,0,1,1.657,5.3,30.993,30.993,0,0,1,.287,5.8,20.377,20.377,0,0,1-.519,3.766c-.118.51-.262,1.051-.4,1.577-.781-2.038-1.609-4.141-2.4-6.155.112-.51.216-1.019.287-1.553a19.393,19.393,0,0,0,.19-2.946,14.659,14.659,0,0,0-.279-2.771,11.116,11.116,0,0,0-.747-2.317,11.424,11.424,0,0,0-1.044-1.728,12.389,12.389,0,0,0-.979-1.258c-.192-.183-.358-.35-.533-.518.813.016,1.616.032,2.467.056Zm-3.846.669c.558.565,1.138,1.115,1.625,1.712a8.177,8.177,0,0,1,1.336,2.118,11.58,11.58,0,0,1,.732,2.675,9.71,9.71,0,0,1,.032,2.309c-.048.462-.119.956-.2,1.433-.095-.263-.19-.518-.285-.756-1.331-3.527-2.35-6.545-3.242-9.491Zm-3.066-12.621a7.51,7.51,0,0,1,1.028.677,6.63,6.63,0,0,1,1.449,1.529,6.04,6.04,0,0,1,.844,1.983,8.066,8.066,0,0,1,.222,2.237,7.242,7.242,0,0,1-.334,2.07,12.641,12.641,0,0,1-.844,1.784,82.462,82.462,0,0,1-2.365-10.28Zm4.1,10.288c.192-.685.351-1.346.462-1.975a10.156,10.156,0,0,0,.183-2.182,10.586,10.586,0,0,0-.271-2.166,8.643,8.643,0,0,0-.723-1.959,7.749,7.749,0,0,0-1.011-1.489,7.01,7.01,0,0,0-1.1-.987,11.279,11.279,0,0,0-1.2-.8c-.222-.127-.469-.247-.693-.382-.23-1.465-.422-3.05-.6-4.7a10.064,10.064,0,0,1,1.616.557,11.193,11.193,0,0,1,2.58,1.815,12.089,12.089,0,0,1,2.134,2.675,12.352,12.352,0,0,1,1.369,3.3,15.031,15.031,0,0,1,.511,3.838,11.476,11.476,0,0,1-.423,3.066c-.158.525-.334,1-.518,1.449-.779-.04-1.48-.056-2.133-.072Zm-5.382-21.682a16.747,16.747,0,0,1,2.094.51,12.922,12.922,0,0,1,3.09,1.465,14.336,14.336,0,0,1,2.778,2.365,20.219,20.219,0,0,1,2.6,3.5,25.512,25.512,0,0,1,2.031,4.459,21.55,21.55,0,0,1,1.107,4.555,30.687,30.687,0,0,1,.175,4.069c0,.605-.007,1.051-.032,1.409-1.457-.191-3.017-.358-4.331-.47h-.015a21.026,21.026,0,0,0,.5-6.521,16.029,16.029,0,0,0-1.02-4.093,17.2,17.2,0,0,0-1.657-3.137,11.218,11.218,0,0,0-4.8-4.156,11.077,11.077,0,0,0-2.278-.693c-.1-1.067-.167-2.15-.246-3.257Zm15.654,22.574c.025-.868.015-1.776-.015-2.715a29.87,29.87,0,0,0-.374-3.8,29.571,29.571,0,0,0-.988-3.886,27.587,27.587,0,0,0-1.633-3.918,23.5,23.5,0,0,0-2.3-3.591,20.3,20.3,0,0,0-2.7-2.9,13.545,13.545,0,0,0-2.779-1.823,13.371,13.371,0,0,0-2.858-1.067c-.7-.183-1.385-.318-2.095-.446-.048-1.035-.079-2.07-.1-3.129.613.072,1.29.151,2.2.342a22.252,22.252,0,0,1,3.956,1.226,15.147,15.147,0,0,1,3.832,2.46,28.735,28.735,0,0,1,3.854,4.117,30.105,30.105,0,0,1,2.81,4.658,36.617,36.617,0,0,1,1.744,4.156,3.018,3.018,0,0,1,.1.319c-.024,2.691-.008,5.3.08,7.9.032.86.056,1.712.1,2.564-.891-.151-1.8-.318-2.835-.47Zm2.771-14.906c-.469-.78-.932-1.553-1.425-2.309a37.669,37.669,0,0,0-2.6-3.559,32.057,32.057,0,0,0-3.161-3.352,19.5,19.5,0,0,0-3.694-2.6,17.523,17.523,0,0,0-3.647-1.378,24.856,24.856,0,0,0-2.906-.629c-.463-.064-.829-.119-1.2-.151.016-1.3.024-2.564.079-3.854a16.5,16.5,0,0,1,2.07.04,18.291,18.291,0,0,1,3.065.565,14,14,0,0,1,2.851,1.163,23.337,23.337,0,0,1,3.041,2.086c1.122.892,2.382,1.983,3.5,3.082a31.4,31.4,0,0,1,2.978,3.328c.47.613.885,1.218,1.29,1.823l-.024.7c-.1,1.712-.168,3.392-.224,5.048Zm.4-8.361c-.5-.613-1.035-1.258-1.672-1.935-1.027-1.163-2.294-2.46-3.423-3.519a30.151,30.151,0,0,0-3.258-2.659,19.8,19.8,0,0,0-3.52-1.967,14.342,14.342,0,0,0-3.432-.964,13.989,13.989,0,0,0-2.468-.183c-.382.008-.741-.008-1.1,0q.144-2.64.406-5.152a21.435,21.435,0,0,1,3.025.279,24.177,24.177,0,0,1,5.192,1.545,23.3,23.3,0,0,1,5.1,2.97,29.136,29.136,0,0,1,3.91,3.766c.645.717,1.178,1.362,1.665,1.983-.152,1.935-.3,3.894-.423,5.837Zm.661-8.416c-.732-.733-1.433-1.441-2.1-2.062a30.76,30.76,0,0,0-3.073-2.572,25.914,25.914,0,0,0-3.305-2.078,24.776,24.776,0,0,0-3.24-1.385,26.359,26.359,0,0,0-3.815-1.083,34.34,34.34,0,0,0-3.424-.4c.159-1.5.342-2.946.534-4.308.789.048,1.624.111,2.707.271a36.981,36.981,0,0,1,4.922,1.043,21.124,21.124,0,0,1,4.379,1.768,22.2,22.2,0,0,1,3.455,2.365,24.414,24.414,0,0,1,2.508,2.453c.334.414.654.78.956,1.17-.175,1.569-.35,3.185-.5,4.817Zm-9.435-38.969c.851.685,1.719,1.4,2.579,2.238a28.457,28.457,0,0,1,3.105,3.583,31.187,31.187,0,0,1,2.866,4.586,48.858,48.858,0,0,1,2.557,5.789c.4,1.115.749,2.2,1.066,3.257-.365,2.452-.828,5.1-1.28,7.923-.248-1.091-.526-2.222-.861-3.424-.621-2.237-1.409-4.738-2.222-6.935a55.2,55.2,0,0,0-2.515-5.829,27.246,27.246,0,0,0-2.6-4.308,24.953,24.953,0,0,0-2.818-3.058c-.662-.605-1.243-1.115-1.808-1.6a16.852,16.852,0,0,1,1.936-2.222Zm12.557,16.291c-.334-.9-.7-1.823-1.107-2.755a46.385,46.385,0,0,0-2.485-5.088,31.212,31.212,0,0,0-2.627-3.886,36.042,36.042,0,0,0-2.357-2.787,25.12,25.12,0,0,0-1.9-1.855c-.341-.319-.66-.605-.971-.876a10.612,10.612,0,0,1,1.282-.8,6.37,6.37,0,0,1,3.623-.621,23.622,23.622,0,0,1,2.389,2.6,22.94,22.94,0,0,1,2.9,5.072c.533,1.29,1.02,2.7,1.474,4.141a49.382,49.382,0,0,1-.222,6.864Zm-15.344-12.78a22.058,22.058,0,0,1,2.986,2.437,22.4,22.4,0,0,1,3.583,4.953,51.039,51.039,0,0,1,3.051,6.88,62.807,62.807,0,0,1,2.238,7.365c.542,2.365.859,4.555,1.161,6.72-.844-.812-1.7-1.624-2.683-2.413a28.2,28.2,0,0,0-3.17-2.182,19.824,19.824,0,0,0-3.256-1.545,33.2,33.2,0,0,0-4.109-1.25,33.577,33.577,0,0,0-3.806-.677c-.749-.088-1.377-.135-1.966-.207.158-1.083.342-2.11.533-3.113a20.2,20.2,0,0,1,2.779.462,27,27,0,0,1,4.37,1.513,28.382,28.382,0,0,1,4.093,2.253c1.258.812,2.413,1.688,3.559,2.564-.421-2.007-.866-4.013-1.433-5.956a42.092,42.092,0,0,0-2.046-5.534,24.623,24.623,0,0,0-2.4-4.156,21.362,21.362,0,0,0-2.309-2.723,18.112,18.112,0,0,0-1.808-1.553c-.35-.239-.676-.446-.995-.653a27.77,27.77,0,0,1,1.625-3.185Zm-2.324,4.945a13.941,13.941,0,0,1,1.951,1.194A14.616,14.616,0,0,1,1525,90.251a23.038,23.038,0,0,1,2.253,3.559,20.647,20.647,0,0,1,1.467,3.5c.4,1.25.764,2.7,1.114,4.148-1-.613-2.007-1.226-3.144-1.8a34.345,34.345,0,0,0-3.672-1.5,25.885,25.885,0,0,0-3.471-.948,18.88,18.88,0,0,0-1.942-.3c.183-.892.358-1.752.549-2.6a13.383,13.383,0,0,1,2.086.39,15.688,15.688,0,0,1,3,1.163,15.9,15.9,0,0,1,2,1.242c.582.39,1.139.756,1.7,1.1a9,9,0,0,0-.248-1.186,11.072,11.072,0,0,0-1-2.572,12.467,12.467,0,0,0-2.168-2.723A11.344,11.344,0,0,0,1521,89.925a15.918,15.918,0,0,0-1.5-.685c.295-.987.613-1.911.932-2.811Zm-1.409,4.443a9.4,9.4,0,0,1,1.99.78,9.888,9.888,0,0,1,2.421,1.823,8.251,8.251,0,0,1,1.282,1.823,10.625,10.625,0,0,0-1.7-1.115,18.326,18.326,0,0,0-2.564-.979c-.669-.175-1.29-.311-1.926-.446.175-.637.327-1.266.494-1.887Z" transform="translate(254.472 -1467.592) rotate(90)" fill="#fcdc3e" fill-rule="evenodd"/>
</svg>
