<svg xmlns="http://www.w3.org/2000/svg" width="25.842" height="22.295" viewBox="0 0 25.842 22.295">
  <path id="Path_4717" data-name="Path 4717" d="M20.041,10.219,14.9,2.513a1.166,1.166,0,0,0-.975-.493,1.148,1.148,0,0,0-.975.505L7.8,10.219H2.175A1.178,1.178,0,0,0,1,11.394a.989.989,0,0,0,.047.317L4.031,22.6a2.336,2.336,0,0,0,2.255,1.715H21.556A2.361,2.361,0,0,0,23.824,22.6l2.984-10.889.035-.317a1.178,1.178,0,0,0-1.175-1.175Zm-9.644,0,3.524-5.168,3.524,5.168Zm3.524,9.4a2.349,2.349,0,1,1,2.349-2.349A2.356,2.356,0,0,1,13.921,19.616Z" transform="translate(-1 -2.02)" fill="#fff"/>
</svg>
