<svg xmlns="http://www.w3.org/2000/svg" width="51.094" height="35.934" viewBox="0 0 51.094 35.934">
  <path id="delivery-truck" d="M48.061,98.044a5.39,5.39,0,1,1-5.39-5.39A5.4,5.4,0,0,1,48.061,98.044ZM40.425,85.8a1.8,1.8,0,0,0,1.8,1.8h7.057a.9.9,0,0,0,.746-1.4c-.481-.715-1.317-1.925-2.846-4.166a4.488,4.488,0,0,0-3.71-1.96H41.324a.9.9,0,0,0-.9.9Zm1.8,3.593A3.593,3.593,0,0,1,38.629,85.8V80.975a.9.9,0,0,0-.9-.9h-.112a.9.9,0,0,0-.9.9V91.732a.9.9,0,0,0,1.455.71,7.2,7.2,0,0,1,11.684,5.594c0,.78,1.234,1.066,1.234.008V90.3a.9.9,0,0,0-.9-.9ZM3.444,85.355a.9.9,0,1,0,0-1.8H2.021a.9.9,0,1,0,0,1.8Zm31.48-14.261v26.95a.9.9,0,0,1-.9.9H23.8a.9.9,0,0,1-.9-.91,7.188,7.188,0,0,0-14.376,0,.9.9,0,0,1-.9.91H6.962a.9.9,0,0,1-.9-.9V90.969H.9a.9.9,0,0,1-.9-.958.919.919,0,0,1,.927-.839H6.064V88.05a.9.9,0,0,1,.9-.9h5.053a.9.9,0,0,0,.9-.958.919.919,0,0,0-.927-.839H6.962a.9.9,0,0,1-.9-.9V82.435a.9.9,0,0,1,.9-.9h4.6a.9.9,0,0,0,.9-.958.919.919,0,0,0-.927-.839H4.267a.9.9,0,0,1-.9-.958.919.919,0,0,1,.927-.839H6.064V76.82a.9.9,0,0,1,.9-.9h4.6a.9.9,0,0,0,.9-.958.919.919,0,0,0-.927-.839H.9a.9.9,0,0,1-.9-.958.919.919,0,0,1,.927-.839H6.064V71.093A3.593,3.593,0,0,1,9.657,67.5H31.33A3.593,3.593,0,0,1,34.923,71.093ZM11.791,90.071a.9.9,0,0,0-.9-.9H8.31a.9.9,0,1,0,0,1.8h2.583A.9.9,0,0,0,11.791,90.071Zm6.064-11.229a.9.9,0,0,0-.9-.9H15.609a.9.9,0,0,0,0,1.8h1.348A.9.9,0,0,0,17.854,78.842ZM15.721,92.654a5.39,5.39,0,1,0,5.39,5.39A5.4,5.4,0,0,0,15.721,92.654Z" transform="translate(0 -67.5)" fill="#fcdc3e"/>
</svg>
