<svg id="details" xmlns="http://www.w3.org/2000/svg" width="41.605" height="41.605" viewBox="0 0 41.605 41.605">
  <path id="Path_9036" data-name="Path 9036" d="M30.769,7.5H14.3a1.3,1.3,0,0,0,0,2.6H30.769a1.3,1.3,0,1,0,0-2.6Z" transform="translate(9.536 5.502)" fill="#fcdc3e"/>
  <path id="Path_9037" data-name="Path 9037" d="M30.769,10.5H14.3a1.3,1.3,0,0,0,0,2.6H30.769a1.3,1.3,0,1,0,0-2.6Z" transform="translate(9.536 7.702)" fill="#fcdc3e"/>
  <path id="Path_9038" data-name="Path 9038" d="M30.769,13.5H14.3a1.3,1.3,0,0,0,0,2.6H30.769a1.3,1.3,0,1,0,0-2.6Z" transform="translate(9.536 9.903)" fill="#fcdc3e"/>
  <path id="Path_9039" data-name="Path 9039" d="M30.769,16.5H14.3a1.3,1.3,0,0,0,0,2.6H30.769a1.3,1.3,0,1,0,0-2.6Z" transform="translate(9.536 12.104)" fill="#fcdc3e"/>
  <path id="Path_9040" data-name="Path 9040" d="M30.769,19.5H14.3a1.3,1.3,0,0,0,0,2.6H30.769a1.3,1.3,0,1,0,0-2.6Z" transform="translate(9.536 14.304)" fill="#fcdc3e"/>
  <path id="Path_9041" data-name="Path 9041" d="M3.034,20.5h13a3.037,3.037,0,0,0,3.034-3.034V10.534A3.037,3.037,0,0,0,16.035,7.5h-13A3.037,3.037,0,0,0,0,10.534v6.934A3.037,3.037,0,0,0,3.034,20.5Z" transform="translate(0 5.502)" fill="#fcdc3e"/>
  <path id="Path_9042" data-name="Path 9042" d="M3.034,29.5h13a3.037,3.037,0,0,0,3.034-3.034V19.534A3.037,3.037,0,0,0,16.035,16.5h-13A3.037,3.037,0,0,0,0,19.534v6.934A3.037,3.037,0,0,0,3.034,29.5Z" transform="translate(0 12.104)" fill="#fcdc3e"/>
  <path id="Path_9043" data-name="Path 9043" d="M30.769,22.5H14.3a1.3,1.3,0,0,0,0,2.6H30.769a1.3,1.3,0,1,0,0-2.6Z" transform="translate(9.536 16.505)" fill="#fcdc3e"/>
  <path id="Path_9044" data-name="Path 9044" d="M32.7,0H11.034A3.037,3.037,0,0,0,8,3.034V7.368A3.037,3.037,0,0,0,11.034,10.4H32.7a3.037,3.037,0,0,0,3.034-3.034V3.034A3.037,3.037,0,0,0,32.7,0Z" transform="translate(5.868)" fill="#fcdc3e"/>
  <circle id="Ellipse_230" data-name="Ellipse 230" cx="5.223" cy="5.223" r="5.223" fill="#fcdc3e"/>
</svg>
