<svg xmlns="http://www.w3.org/2000/svg" width="37.87" height="28.4" viewBox="0 0 37.87 28.4">
  <g id="Group_3085" data-name="Group 3085" transform="translate(-343.338 -1793)">
    <path id="Path_6997" data-name="Path 6997" d="M2856.91,1329.243c.286-.568.464-.66,1.1-.615a8.393,8.393,0,0,1,4.819,1.748,20.169,20.169,0,0,1,1.592,1.6.283.283,0,0,0,.083-.036c1.248-.693,2.489-1.4,3.746-2.072.254-.136.34-.24.241-.525-.651-1.871-1.288-3.747-1.929-5.621-.036-.1-.077-.208-.111-.313a.793.793,0,0,1,.919-1.1c1.41.226,2.823.442,4.221.727a21.894,21.894,0,0,1,6.154,2.132,8.779,8.779,0,0,1,2.4,1.83.649.649,0,0,0,.375.182,18.812,18.812,0,0,1,5.692,1.632,18.542,18.542,0,0,1,7.313,6.239c.389.553.725,1.144,1.091,1.714a.915.915,0,0,1,0,1.038,19.2,19.2,0,0,1-7.58,7.54,17.654,17.654,0,0,1-6.518,2.03c-.563.061-1.13.087-1.694.145a.6.6,0,0,0-.351.146,9.7,9.7,0,0,1-5.5,2.727,24.038,24.038,0,0,1-2.455.3c-.663.055-1.021-.287-.962-.948.094-1.051.229-2.1.389-3.143a4.987,4.987,0,0,1,.375-.982,32.335,32.335,0,0,1-5.913-3.052c-.438.477-.823.976-1.286,1.387a8.512,8.512,0,0,1-5.361,2.01.884.884,0,0,1-.854-.586v-1.332c.023-.131.055-.262.068-.394a11.28,11.28,0,0,1,1.132-4.286c.4-.741.905-1.423,1.378-2.156-.109-.124-.279-.3-.433-.493a10.011,10.011,0,0,1-2-5.157c-.044-.352-.1-.7-.147-1.055Zm1.549,15.087c2.158-.386,3.875-1.221,4.848-3.187.357-.722.859-.814,1.474-.3a9.162,9.162,0,0,0,.95.7,34.578,34.578,0,0,0,7.594,3.5,15.523,15.523,0,0,0,8.267.6,16.941,16.941,0,0,0,11.384-8.185.407.407,0,0,0,0-.351,16.883,16.883,0,0,0-10.735-8.033,14.911,14.911,0,0,0-5.5-.354,20.689,20.689,0,0,0-4.8,1.288,26.692,26.692,0,0,0-7.385,3.892.747.747,0,0,1-1.1-.209c-.088-.133-.148-.284-.223-.425-1-1.862-2.688-2.641-4.768-3.03.132.843.2,1.628.383,2.387a6.3,6.3,0,0,0,2.462,4.029.766.766,0,0,1-.023,1.286,6.324,6.324,0,0,0-.636.5,6.809,6.809,0,0,0-1.8,3.459C2858.676,1342.676,2858.594,1343.471,2858.459,1344.33Zm9.945-20.3,1.694,5.021a27.208,27.208,0,0,1,7.612-2.055A25.022,25.022,0,0,0,2868.4,1324.029Zm7.915,23.364-.14-.039c-1.353-.359-2.708-.712-4.057-1.082a.325.325,0,0,0-.435.2,6.073,6.073,0,0,0-.54,2.564A10.208,10.208,0,0,0,2876.318,1347.394Z" transform="translate(-2513.572 470.706)" fill="#0055b8"/>
    <path id="Path_6998" data-name="Path 6998" d="M3095.3,1414.886a14.077,14.077,0,0,1,1.6-6.863,1.212,1.212,0,0,1,.381-.438.723.723,0,0,1,.892.071.779.779,0,0,1,.183.973,18.354,18.354,0,0,0-.918,2.209,12.566,12.566,0,0,0,.844,9.507.85.85,0,0,1-.016,1.03.675.675,0,0,1-.827.231,1.187,1.187,0,0,1-.5-.453,11.609,11.609,0,0,1-1.447-4.35C3095.388,1416.06,3095.343,1415.309,3095.3,1414.886Z" transform="translate(-2729.871 393.429)" fill="#0055b8"/>
    <path id="Path_6999" data-name="Path 6999" d="M3061.1,1415.375a14.13,14.13,0,0,1,1.63-6.948,1.059,1.059,0,0,1,.623-.5,1.017,1.017,0,0,1,.738.275.739.739,0,0,1,.055.895,18.575,18.575,0,0,0-.839,1.965,13.021,13.021,0,0,0,.04,8,3.955,3.955,0,0,1,.137.459.789.789,0,0,1-.516.942.759.759,0,0,1-.973-.512,17.751,17.751,0,0,1-.589-2.17C3061.243,1416.862,3061.171,1415.927,3061.1,1415.375Z" transform="translate(-2698.843 393.014)" fill="#0055b8"/>
    <path id="Path_7000" data-name="Path 7000" d="M3149.721,1443.073a1.568,1.568,0,1,1-1.553-1.591A1.571,1.571,0,0,1,3149.721,1443.073Z" transform="translate(-2776.402 362.564)" fill="#0055b8"/>
  </g>
</svg>
