<svg xmlns="http://www.w3.org/2000/svg" width="143.342" height="63.296" viewBox="0 0 143.342 63.296">
  <g id="Group_131" data-name="Group 131" transform="translate(259.394 -1453.525) rotate(90)">
    <g id="Group_130" data-name="Group 130" transform="translate(1479.369 229.992)">
      <path id="Path_5020" data-name="Path 5020" d="M1461.473,128.166a2.857,2.857,0,1,1-2.807-2.907,2.861,2.861,0,0,1,2.807,2.907Z" transform="translate(-1453.344 -122.841)" fill="#fcdc3e" fill-rule="evenodd"/>
      <path id="Path_5021" data-name="Path 5021" d="M1466.111,130.431h0a5.265,5.265,0,0,0-5.182-5.359,5.035,5.035,0,0,0-3.754,1.479,5.271,5.271,0,0,0,3.576,9.062h.09A5.282,5.282,0,0,0,1466.111,130.431Zm-4.828-.088a.448.448,0,0,1-.441.442c-.217-.076-.443-.24-.443-.455a.454.454,0,0,1,.443-.43C1461.029,129.812,1461.283,130.14,1461.283,130.343Zm2.439.051h0Z" transform="translate(-1455.569 -125.068)" fill="#fcdc3e"/>
    </g>
    <path id="Path_5022" data-name="Path 5022" d="M1458.232,193.291h-.037a2.411,2.411,0,0,1-2.375-2.452l1.16-70.23a2.425,2.425,0,0,1,2.416-2.376h.037a2.416,2.416,0,0,1,2.377,2.452l-1.164,70.23A2.421,2.421,0,0,1,1458.232,193.291Z" transform="translate(26.724 25.383)" fill="#fcdc3e"/>
    <path id="Path_5023" data-name="Path 5023" d="M1482.385,166.879c11.133-4.714,29.574-27.8,27.729-37.308-.279-1.428-1.467-4.79-6.508-4.866l-42.982-.72c-5.02-.013-6.346,3.235-6.674,4.663-2.16,9.428,15.508,33.125,26.477,38.193a2.408,2.408,0,0,0,1.012.228A2.438,2.438,0,0,0,1482.385,166.879Zm-21.838-38.066,42.982.72c1.656.025,1.768.569,1.846.96,1.213,6.256-14.359,26.515-23.887,31.469-9.352-5.27-24.254-26.035-22.824-32.24.088-.379.2-.91,1.756-.91Z" transform="translate(2.838 92.325)" fill="#fcdc3e"/>
    <path id="Path_5024" data-name="Path 5024" d="M1477.533,148.279c8.48-3.3,21.688-21.535,22.318-27.551a3.463,3.463,0,0,0-1.439-3.5c-1.922-1.251-4.221.063-5.094.556l-16.352,9.3-16.027-9.845h0c-.846-.518-3.121-1.908-5.08-.72a3.442,3.442,0,0,0-1.541,3.45c.43,6.028,13.016,24.695,21.383,28.271a2.3,2.3,0,0,0,.961.2A2.6,2.6,0,0,0,1477.533,148.279Zm-1.869-16.328a2.4,2.4,0,0,0,2.451.038l16.039-9.125c-2.781,5.75-11.414,17.339-17.453,20.486-5.941-3.349-14.182-15.216-16.76-21.055Z" transform="translate(9.066)" fill="#fcdc3e"/>
    <path id="Path_5025" data-name="Path 5025" d="M1486.852,131.073a137.382,137.382,0,0,1-31.469-3.589,2.415,2.415,0,1,1,1.111-4.7c18.414,4.335,37.219,4.638,57.479.935a2.416,2.416,0,0,1,.871,4.752A155.844,155.844,0,0,1,1486.852,131.073Z" transform="translate(0.002 77.578)" fill="#fcdc3e"/>
    <path id="Path_5026" data-name="Path 5026" d="M1484,129.832a113.248,113.248,0,0,1-28.422-3.564,2.414,2.414,0,1,1,1.2-4.676c16.645,4.3,33.629,4.575,51.941.847a2.418,2.418,0,0,1,.963,4.739A128.757,128.757,0,0,1,1484,129.832Z" transform="translate(2.736 63.54)" fill="#fcdc3e"/>
    <path id="Path_5027" data-name="Path 5027" d="M1479.156,128.548a78.315,78.315,0,0,1-23.3-3.513,2.415,2.415,0,0,1,1.43-4.613c13.533,4.2,27.387,4.423,42.324.682a2.415,2.415,0,0,1,1.162,4.689A88.827,88.827,0,0,1,1479.156,128.548Z" transform="translate(7.305 49.544)" fill="#fcdc3e"/>
    <path id="Path_5028" data-name="Path 5028" d="M1473.621,127.257a45.758,45.758,0,0,1-17.518-3.5,2.412,2.412,0,1,1,1.834-4.461c9.857,4.044,19.943,4.208,30.848.48a2.416,2.416,0,1,1,1.555,4.575A51.639,51.639,0,0,1,1473.621,127.257Z" transform="translate(12.639 35.556)" fill="#fcdc3e"/>
  </g>
</svg>
