<svg xmlns="http://www.w3.org/2000/svg" width="208.98" height="80.554" viewBox="0 0 208.98 80.554">
  <g id="Group_129" data-name="Group 129" transform="translate(-947.221 -676.715)">
    <path id="Path_4956" data-name="Path 4956" d="M1190.8,686.565a3.711,3.711,0,1,0-3.712,3.712A3.716,3.716,0,0,0,1190.8,686.565Zm-1.369,0a2.342,2.342,0,1,1-2.343-2.343A2.346,2.346,0,0,1,1189.432,686.565Z" transform="translate(-40.935 -1.064)" fill="#fff"/>
    <path id="Path_4957" data-name="Path 4957" d="M1198.974,705.693a2.5,2.5,0,1,0-2.5,2.5A2.5,2.5,0,0,0,1198.974,705.693Zm-1.369,0a1.129,1.129,0,1,1-1.128-1.128A1.13,1.13,0,0,1,1197.6,705.693Z" transform="translate(-42.773 -4.59)" fill="#fff"/>
    <path id="Path_4958" data-name="Path 4958" d="M1190.521,729.057a1.643,1.643,0,1,0-1.643,1.643A1.645,1.645,0,0,0,1190.521,729.057Zm-1.369,0a.274.274,0,1,1-.273-.274A.274.274,0,0,1,1189.152,729.057Z" transform="translate(-41.604 -8.788)" fill="#fff"/>
    <g id="Group_126" data-name="Group 126" transform="translate(947.221 676.715)">
      <g id="Group_101" data-name="Group 101" transform="translate(23.907 19.601)">
        <path id="Path_4959" data-name="Path 4959" d="M1111.173,738.6a90.491,90.491,0,0,0,14.049-6.7c1.1-.611,2.135-1.187,3.142-1.724,6.356-3.387,13.705-7.612,14.12-10.248a1.478,1.478,0,0,0-.448-1.333,3.973,3.973,0,0,0-2.914-.968,16.061,16.061,0,0,0-2.055.174,11.114,11.114,0,0,1-1.26.12,1.413,1.413,0,0,1-.278-.021,3.609,3.609,0,0,1,1.815-1.34,5.1,5.1,0,0,1,1.667-.261,12.026,12.026,0,0,1,3.11.537c.226.061.441.119.643.169a1.972,1.972,0,0,0,.467.058,1.905,1.905,0,0,0,1.667-1.04,3.377,3.377,0,0,0-.545-3.658c-3.041-3.866-15-6.913-35.551-9.054-15.989-1.667-33.528-2.341-41.417-2.389h-.53c-9.8,0-34.854,1.44-54.988,2.6-12.5.718-22.365,1.286-24.762,1.286a21.1,21.1,0,0,1-7.971-1.666.643.643,0,0,0-.567.045c-2.166,1.316-2.263,7.224-1.5,10.984.885,4.363,2.539,5.312,3.446,5.49a.635.635,0,0,0,.469-.089c3.728-2.435,8.8-4.945,11.713-5.062.178-.007.358-.011.549-.011,9.038,0,29.819,7.806,39.6,12.969,10.78,5.692,38.293,14.187,56.868,14.543.436.009.875.013,1.305.013A59.052,59.052,0,0,0,1111.173,738.6ZM992.643,713.4c-3.3.132-8.522,2.8-12.106,5.1-.931-.4-1.795-2.091-2.291-4.538-.8-3.917-.41-8.475.756-9.669a22.077,22.077,0,0,0,8.105,1.622c2.434,0,12.321-.569,24.837-1.288,20.116-1.157,45.153-2.6,54.913-2.6h.522c18.072.108,69.655,2.913,76.006,10.987a2.35,2.35,0,0,1,.445,2.5.735.735,0,0,1-.6.432.642.642,0,0,1-.158-.021c-.193-.048-.4-.1-.618-.162a13.22,13.22,0,0,0-3.444-.581,6.434,6.434,0,0,0-2.08.329,4.593,4.593,0,0,0-2.53,2.024,1.019,1.019,0,0,0,.078.955,1.548,1.548,0,0,0,1.329.536,11.974,11.974,0,0,0,1.425-.13,15.225,15.225,0,0,1,1.89-.163,2.786,2.786,0,0,1,2.045.622.42.42,0,0,1,.131.409c-.175,1.113-2.664,3.655-13.531,9.445-1.016.542-2.058,1.121-3.161,1.734-7.98,4.438-17.911,9.961-33.588,9.962-.423,0-.853,0-1.28-.013-18.391-.354-45.629-8.764-56.3-14.4a155.687,155.687,0,0,0-20.489-8.582c-8.556-2.923-15.553-4.533-19.7-4.533C993.035,713.386,992.839,713.39,992.643,713.4Z" transform="translate(-976.227 -700.513)" fill="#fff"/>
        <path id="Path_4960" data-name="Path 4960" d="M1111.225,738.9a90.854,90.854,0,0,0,14.111-6.731c1.1-.609,2.13-1.185,3.135-1.72,9.695-5.165,13.981-8.318,14.332-10.545a1.9,1.9,0,0,0-.566-1.69,4.357,4.357,0,0,0-3.2-1.084,16.306,16.306,0,0,0-2.107.177c-.166.022-.333.043-.494.062a3.771,3.771,0,0,1,.957-.511,4.655,4.655,0,0,1,1.534-.239,11.669,11.669,0,0,1,3,.522c.229.062.447.12.653.172a2.315,2.315,0,0,0,2.59-1.183,3.781,3.781,0,0,0-.582-4.108c-3.112-3.956-15.166-7.054-35.83-9.207-15.995-1.667-33.555-2.344-41.456-2.392l-.533,0c-9.8,0-34.853,1.44-55.01,2.6l-.175.01c-12.4.713-22.19,1.275-24.565,1.275a20.726,20.726,0,0,1-7.819-1.636,1.049,1.049,0,0,0-.932.075c-2.432,1.477-2.445,7.683-1.689,11.414.932,4.6,2.761,5.612,3.767,5.809a1.035,1.035,0,0,0,.771-.147c3.682-2.4,8.667-4.882,11.5-5,.174-.007.348-.011.534-.011,8.977,0,29.665,7.778,39.408,12.922,10.815,5.71,38.417,14.233,57.051,14.59.438.009.881.013,1.314.013A59.456,59.456,0,0,0,1111.225,738.9ZM992.593,714.013c-2.994.121-8.145,2.663-11.921,5.129a.228.228,0,0,1-.167.03c-.649-.127-2.254-.886-3.123-5.171-.833-4.109-.5-9.453,1.312-10.552a.234.234,0,0,1,.2-.016,21.48,21.48,0,0,0,8.123,1.694c2.4,0,12.2-.562,24.612-1.275l.2-.011c20.118-1.157,45.154-2.6,54.934-2.6l.529,0c7.884.048,25.409.723,41.375,2.387,20.435,2.13,32.3,5.125,35.273,8.9a2.977,2.977,0,0,1,.508,3.21,1.5,1.5,0,0,1-1.678.782c-.2-.05-.411-.106-.635-.168a12.371,12.371,0,0,0-3.217-.551,5.49,5.49,0,0,0-1.8.283,3.879,3.879,0,0,0-2.072,1.6l-.146.436.451.093a6.822,6.822,0,0,0,1.672-.094,15.884,15.884,0,0,1,2-.17,3.6,3.6,0,0,1,2.629.852,1.072,1.072,0,0,1,.329.978c-.436,2.774-10.224,7.988-13.909,9.951-1.009.538-2.048,1.115-3.154,1.731a90.189,90.189,0,0,1-13.982,6.67,58.7,58.7,0,0,1-21.316,3.382c-18.516-.356-45.941-8.823-56.686-14.5-9.815-5.183-30.691-13.017-39.79-13.017C992.962,714,992.777,714.007,992.593,714.013Zm98.339,27.222c15.783,0,25.765-5.554,33.786-10.014l.131-.073c1.053-.585,2.051-1.138,3.025-1.658,8.969-4.778,13.463-7.965,13.743-9.741a.823.823,0,0,0-.249-.765,3.154,3.154,0,0,0-2.33-.738,15.535,15.535,0,0,0-1.955.168,11.6,11.6,0,0,1-1.36.126c-.188,0-.758,0-.986-.35a.619.619,0,0,1-.039-.589,4.276,4.276,0,0,1,2.28-1.781,6.045,6.045,0,0,1,1.949-.307,12.907,12.907,0,0,1,3.337.566c.221.06.431.116.626.165a1.082,1.082,0,0,0,1.215-.612,2.758,2.758,0,0,0-.482-2.95c-6.443-8.191-58.2-11.034-76.323-11.142l-.527,0c-9.76,0-34.769,1.437-54.936,2.6-12.506.719-22.384,1.288-24.815,1.288a21.573,21.573,0,0,1-7.957-1.594l-.251-.1-.188.193c-1.279,1.309-1.683,6-.865,10.036.531,2.614,1.453,4.375,2.532,4.834l.2.083.182-.116c3.484-2.245,8.692-4.912,11.9-5.04,4.022-.157,11.219,1.446,20.156,4.5a155.157,155.157,0,0,1,20.43,8.557c10.706,5.653,38.032,14.09,56.484,14.446.428.008.86.013,1.285.013ZM992.542,712.9c-3.308.133-8.382,2.665-12.107,5.039-.589-.406-1.373-1.677-1.874-4.146-.77-3.8-.375-7.819.486-9.1a22.27,22.27,0,0,0,7.974,1.542c2.455,0,12.343-.569,24.933-1.293,20.085-1.155,45.081-2.591,54.817-2.591l.521,0c18.019.108,69.43,2.874,75.687,10.83a1.975,1.975,0,0,1,.408,2.052c-.02.036-.131.218-.3.212-.19-.047-.394-.1-.613-.162a13.583,13.583,0,0,0-3.545-.593,6.861,6.861,0,0,0-2.212.35,4.957,4.957,0,0,0-2.78,2.265,1.44,1.44,0,0,0,.117,1.323,1.849,1.849,0,0,0,1.671.722,12.326,12.326,0,0,0,1.477-.134,14.682,14.682,0,0,1,1.838-.16,2.25,2.25,0,0,1,1.772.56c-.105.672-1.615,2.911-13.32,9.146-.978.521-1.979,1.078-3.037,1.666l-.131.073c-7.938,4.414-17.818,9.91-33.39,9.911-.42,0-.847,0-1.273-.013-18.332-.352-45.481-8.734-56.117-14.35a155.986,155.986,0,0,0-20.548-8.608c-8.6-2.937-15.642-4.555-19.835-4.555C992.944,712.891,992.744,712.9,992.542,712.9Z" transform="translate(-976.141 -700.427)" fill="#fff"/>
      </g>
      <g id="Group_102" data-name="Group 102" transform="translate(0 8.161)">
        <path id="Path_4961" data-name="Path 4961" d="M951.864,736.3a2.23,2.23,0,0,1-.455-.045c-3.387-.714-1.807-8.729.608-19.132a54.392,54.392,0,0,0,1.267-6.274c.083-1.632-1.344-6.33-2.723-10.873-.873-2.873-1.774-5.843-2.316-8.11-.74-3.094-.71-4.319.114-4.681.508-.223,1.454-.638,13.9,6.508,6.024,3.458,11.9,7.061,11.955,7.1a.53.53,0,0,1,.168.77.627.627,0,0,1-.83.156c-.056-.035-5.7-3.5-11.582-6.882-9.921-5.71-12.414-6.54-13.033-6.619-.066.285-.083,1.17.587,3.859.542,2.17,1.379,4.93,2.19,7.6,1.47,4.842,2.859,9.415,2.768,11.226a53.09,53.09,0,0,1-1.293,6.456c-.836,3.6-1.878,8.086-2.313,11.682-.634,5.25.347,6.038.8,6.133.712.15,3.414-.427,13.1-9.017,5.408-4.794,10.355-9.761,10.4-9.811a.633.633,0,0,1,.847-.031.527.527,0,0,1,.034.785c-.05.05-5.023,5.043-10.457,9.861C956.6,734.937,953.364,736.3,951.864,736.3Z" transform="translate(-947.307 -686.674)" fill="#fff"/>
        <path id="Path_4962" data-name="Path 4962" d="M965.793,727.174c5.462-4.843,10.427-9.831,10.475-9.879a.934.934,0,0,0-.058-1.383,1.035,1.035,0,0,0-1.4.054c-.046.047-4.967,4.99-10.385,9.792-10.072,8.93-12.385,9-12.748,8.924-.011,0-1.127-.3-.477-5.684.431-3.573,1.47-8.044,2.311-11.664a52.383,52.383,0,0,0,1.3-6.5c.1-1.883-1.3-6.489-2.784-11.366-.808-2.661-1.644-5.412-2.185-7.58a18.21,18.21,0,0,1-.6-3.246c1.043.336,4.043,1.621,12.449,6.459,5.875,3.381,11.519,6.844,11.571,6.876a1.031,1.031,0,0,0,1.377-.267.927.927,0,0,0,.156-.729.966.966,0,0,0-.442-.625c-.05-.031-5.893-3.618-11.966-7.1-12.628-7.249-13.577-6.832-14.27-6.528-1.2.527-1.047,2.217-.345,5.151.546,2.281,1.448,5.256,2.322,8.133,1.305,4.3,2.785,9.172,2.707,10.732a54.907,54.907,0,0,1-1.257,6.2c-2.065,8.891-3.511,15.9-1.829,18.54a2.344,2.344,0,0,0,1.533,1.083,2.562,2.562,0,0,0,.54.055C953.22,736.62,956.241,735.641,965.793,727.174Zm-3.821-33.215c6.021,3.456,11.89,7.058,11.944,7.092a.145.145,0,0,1,.07.093.116.116,0,0,1-.021.091.222.222,0,0,1-.283.046c-.05-.031-5.739-3.52-11.592-6.89-9.684-5.573-12.417-6.571-13.185-6.67l-.368-.047-.083.361a11.883,11.883,0,0,0,.589,4.049c.546,2.188,1.385,4.95,2.2,7.62,1.459,4.807,2.837,9.346,2.75,11.087a53.134,53.134,0,0,1-1.283,6.386c-.839,3.612-1.882,8.106-2.32,11.723-.5,4.105-.119,6.32,1.12,6.582,1.673.343,6.335-2.8,13.459-9.111,5.453-4.835,10.38-9.785,10.423-9.829a.226.226,0,0,1,.292-.009.131.131,0,0,1,.05.094.124.124,0,0,1-.04.093c-.049.049-5,5.019-10.439,9.843-6.917,6.131-11.449,9.24-13.472,9.24a1.734,1.734,0,0,1-.37-.037,1.533,1.533,0,0,1-1.014-.724c-1.506-2.363.057-9.822,1.941-17.936a54.205,54.205,0,0,0,1.273-6.326c.086-1.7-1.287-6.226-2.741-11.013-.87-2.864-1.769-5.827-2.31-8.086-.655-2.741-.689-3.961-.12-4.213a.694.694,0,0,1,.279-.048C949.6,687.421,952.322,688.418,961.972,693.958Z" transform="translate(-947.221 -686.588)" fill="#fff"/>
      </g>
      <g id="Group_103" data-name="Group 103" transform="translate(2.818 20.328)">
        <path id="Path_4963" data-name="Path 4963" d="M961.01,702.911h-9.286a.557.557,0,1,1,0-1.111h9.286a.557.557,0,1,1,0,1.111Z" transform="translate(-950.716 -701.392)" fill="#fff"/>
        <path id="Path_4964" data-name="Path 4964" d="M961.932,702.27a.987.987,0,0,0-1.007-.964h-9.287a.965.965,0,1,0,0,1.928h9.287A.988.988,0,0,0,961.932,702.27Zm-1.007-.147a.152.152,0,1,1,0,.294h-9.287a.152.152,0,1,1,0-.294Z" transform="translate(-950.63 -701.306)" fill="#fff"/>
      </g>
      <g id="Group_104" data-name="Group 104" transform="translate(4.429 25.754)">
        <path id="Path_4965" data-name="Path 4965" d="M964.834,709.475H953.671a.557.557,0,1,1,0-1.111h11.162a.557.557,0,1,1,0,1.111Z" transform="translate(-952.664 -707.956)" fill="#fff"/>
        <path id="Path_4966" data-name="Path 4966" d="M965.756,708.834a.988.988,0,0,0-1.008-.964H953.586a.965.965,0,1,0,0,1.928h11.162A.988.988,0,0,0,965.756,708.834Zm-1.008-.146a.152.152,0,1,1,0,.293H953.586a.152.152,0,1,1,0-.293Z" transform="translate(-952.578 -707.87)" fill="#fff"/>
      </g>
      <g id="Group_105" data-name="Group 105" transform="translate(5.573 31.181)">
        <path id="Path_4967" data-name="Path 4967" d="M966.576,716.039H955.055a.557.557,0,1,1,0-1.111h11.521a.557.557,0,1,1,0,1.111Z" transform="translate(-954.048 -714.52)" fill="#fff"/>
        <path id="Path_4968" data-name="Path 4968" d="M967.5,715.4a.988.988,0,0,0-1.008-.964H954.97a.965.965,0,1,0,0,1.928H966.49A.988.988,0,0,0,967.5,715.4Zm-1.008-.147a.152.152,0,1,1,0,.293H954.97a.152.152,0,1,1,0-.293Z" transform="translate(-953.962 -714.435)" fill="#fff"/>
      </g>
      <g id="Group_106" data-name="Group 106" transform="translate(4.557 36.608)">
        <path id="Path_4969" data-name="Path 4969" d="M964.018,722.6H953.827a.557.557,0,1,1,0-1.111h10.191a.557.557,0,1,1,0,1.111Z" transform="translate(-952.82 -721.085)" fill="#fff"/>
        <path id="Path_4970" data-name="Path 4970" d="M964.94,721.963a.988.988,0,0,0-1.008-.964H953.742a.965.965,0,1,0,0,1.928h10.191A.988.988,0,0,0,964.94,721.963Zm-1.008-.147a.152.152,0,1,1,0,.294H953.742a.152.152,0,1,1,0-.294Z" transform="translate(-952.734 -720.999)" fill="#fff"/>
      </g>
      <g id="Group_107" data-name="Group 107" transform="translate(3.316 42.035)">
        <path id="Path_4971" data-name="Path 4971" d="M960.746,729.168h-8.42a.557.557,0,1,1,0-1.111h8.42a.557.557,0,1,1,0,1.111Z" transform="translate(-951.318 -727.649)" fill="#fff"/>
        <path id="Path_4972" data-name="Path 4972" d="M961.669,728.528a.988.988,0,0,0-1.009-.964h-8.42a.965.965,0,1,0,0,1.928h8.42A.989.989,0,0,0,961.669,728.528Zm-1.009-.147a.152.152,0,1,1,0,.293h-8.42a.152.152,0,1,1,0-.293Z" transform="translate(-951.232 -727.564)" fill="#fff"/>
      </g>
      <g id="Group_108" data-name="Group 108" transform="translate(145.425 25.98)">
        <path id="Path_4973" data-name="Path 4973" d="M1139.191,730.944a16.915,16.915,0,0,1-8.665-2.241,14.039,14.039,0,0,1-6.691-9.783,7.683,7.683,0,0,1,1.513-6.8c2.818-3.245,8.05-3.474,8.271-3.483a.584.584,0,0,1,.623.533.574.574,0,0,1-.574.577c-.053,0-4.92.224-7.391,3.073a6.691,6.691,0,0,0-1.263,5.907,12.96,12.96,0,0,0,6.157,9.039c3.572,2.115,8.19,2.626,13,1.442a.606.606,0,0,1,.733.395.553.553,0,0,1-.426.679A22.153,22.153,0,0,1,1139.191,730.944Z" transform="translate(-1123.226 -708.229)" fill="#fff"/>
        <path id="Path_4974" data-name="Path 4974" d="M1144.493,730.593a1,1,0,0,0,.63-.465.926.926,0,0,0,.091-.723,1.02,1.02,0,0,0-1.223-.679c-4.707,1.16-9.217.664-12.7-1.4a12.557,12.557,0,0,1-5.963-8.764A6.3,6.3,0,0,1,1126.5,713c2.328-2.685,7.053-2.931,7.1-2.933a1.028,1.028,0,0,0,.716-.326.933.933,0,0,0,.251-.677.993.993,0,0,0-1.046-.924c-.228.008-5.629.243-8.565,3.623a8.073,8.073,0,0,0-1.607,7.146,14.437,14.437,0,0,0,6.885,10.056,17.4,17.4,0,0,0,8.873,2.3A22.536,22.536,0,0,0,1144.493,730.593ZM1133.75,709.1a.122.122,0,0,1-.035.088.21.21,0,0,1-.15.063c-.208.009-5.125.268-7.68,3.214a7.077,7.077,0,0,0-1.356,6.252,13.351,13.351,0,0,0,6.35,9.312,17.7,17.7,0,0,0,13.307,1.487.2.2,0,0,1,.244.111.112.112,0,0,1-.012.088.187.187,0,0,1-.118.083,18.341,18.341,0,0,1-13.649-1.534,13.642,13.642,0,0,1-6.5-9.507,7.3,7.3,0,0,1,1.421-6.457c2.707-3.116,7.765-3.335,7.978-3.342h.007A.181.181,0,0,1,1133.75,709.1Z" transform="translate(-1123.14 -708.143)" fill="#fff"/>
      </g>
      <g id="Group_109" data-name="Group 109" transform="translate(166.616 27.403)">
        <path id="Path_4975" data-name="Path 4975" d="M1158.809,714.782a4.783,4.783,0,1,0-4.77,4.422A4.611,4.611,0,0,0,1158.809,714.782Zm-1.2,0a3.581,3.581,0,1,1-3.571-3.311A3.452,3.452,0,0,1,1157.61,714.782Z" transform="translate(-1148.86 -709.951)" fill="#fff"/>
        <path id="Path_4976" data-name="Path 4976" d="M1159.131,714.7a5.191,5.191,0,1,0-5.178,4.83A5.019,5.019,0,0,0,1159.131,714.7Zm-.817,0a4.377,4.377,0,1,1-4.362-4.013A4.2,4.2,0,0,1,1158.315,714.7Zm-.382,0a3.989,3.989,0,1,0-3.979,3.719A3.861,3.861,0,0,0,1157.932,714.7Zm-.817,0a3.175,3.175,0,1,1-3.163-2.9A3.044,3.044,0,0,1,1157.116,714.7Z" transform="translate(-1148.774 -709.865)" fill="#fff"/>
      </g>
      <g id="Group_110" data-name="Group 110" transform="translate(169.836 30.389)">
        <path id="Path_4977" data-name="Path 4977" d="M1156.264,715.408a1.555,1.555,0,1,0-1.55,1.438A1.5,1.5,0,0,0,1156.264,715.408Zm-1.2,0a.353.353,0,1,1-.352-.327A.34.34,0,0,1,1155.066,715.408Z" transform="translate(-1152.755 -713.562)" fill="#fff"/>
        <path id="Path_4978" data-name="Path 4978" d="M1156.588,715.322a1.963,1.963,0,1,0-1.959,1.846A1.907,1.907,0,0,0,1156.588,715.322Zm-.818,0a1.148,1.148,0,1,1-1.142-1.029A1.09,1.09,0,0,1,1155.77,715.322Zm-.381,0a.761.761,0,1,0-.761.735A.749.749,0,0,0,1155.389,715.322Zm-.7,0c0,.092-.112.092-.112,0,0-.046.03-.082.056-.082S1154.684,715.276,1154.684,715.322Z" transform="translate(-1152.669 -713.476)" fill="#fff"/>
      </g>
      <g id="Group_111" data-name="Group 111" transform="translate(125.957 44.661)">
        <path id="Path_4979" data-name="Path 4979" d="M1109.784,741.96a12.069,12.069,0,0,1-7.991-3.412,5,5,0,0,1-1.652-4.333c.331-1.925,3.678-2.9,10.234-2.974,4.6-.053,9.177.372,9.223.377a.568.568,0,0,1,.536.608.59.59,0,0,1-.656.5c-.046,0-4.563-.424-9.1-.371-2.046.024-8.748.241-9.056,2.037a4.079,4.079,0,0,0,1.357,3.414,10.762,10.762,0,0,0,7.421,3.038c3.875-.194,12.493-4.681,12.58-4.726a.623.623,0,0,1,.816.211.533.533,0,0,1-.227.756c-.363.19-8.95,4.66-13.1,4.868C1110.041,741.956,1109.913,741.96,1109.784,741.96Z" transform="translate(-1099.675 -730.827)" fill="#fff"/>
        <path id="Path_4980" data-name="Path 4980" d="M1110.1,742.272c4.253-.212,12.906-4.722,13.273-4.914a.974.974,0,0,0,.49-.6.92.92,0,0,0-.1-.733,1.029,1.029,0,0,0-1.354-.361c-.086.046-8.664,4.494-12.411,4.68a10.331,10.331,0,0,1-7.107-2.915,3.692,3.692,0,0,1-1.248-3.059c.161-.942,3.721-1.639,8.658-1.7,4.323-.051,8.579.326,9.053.369a1,1,0,0,0,1.1-.86.927.927,0,0,0-.207-.692,1.034,1.034,0,0,0-.7-.369c-.483-.044-4.838-.431-9.26-.377-6.88.08-10.257,1.133-10.631,3.313a5.384,5.384,0,0,0,1.76,4.687,12.489,12.489,0,0,0,8.284,3.536C1109.834,742.282,1109.97,742.279,1110.1,742.272Zm9.371-10.333a.2.2,0,0,1,.141.07.117.117,0,0,1,.028.088.191.191,0,0,1-.218.134c-.476-.045-4.776-.426-9.135-.372-4.135.05-9.132.5-9.454,2.376A4.466,4.466,0,0,0,1102.3,738a11.191,11.191,0,0,0,7.734,3.16c3.923-.2,12.389-4.585,12.748-4.772a.219.219,0,0,1,.278.062.112.112,0,0,1,.014.089.156.156,0,0,1-.082.093c-.36.188-8.858,4.618-12.935,4.822a11.547,11.547,0,0,1-8.062-3.279,4.61,4.61,0,0,1-1.542-3.979c.288-1.676,3.6-2.562,9.836-2.635q.408,0,.814,0C1115.195,731.56,1119.021,731.9,1119.473,731.939Z" transform="translate(-1099.589 -730.742)" fill="#fff"/>
      </g>
      <g id="Group_112" data-name="Group 112" transform="translate(127.974 49.469)">
        <path id="Path_4981" data-name="Path 4981" d="M1103.122,740.178a.6.6,0,0,1-.571-.389.549.549,0,0,1,.391-.7l6.886-2.016a.61.61,0,0,1,.752.362.55.55,0,0,1-.39.7l-6.887,2.015A.628.628,0,0,1,1103.122,740.178Z" transform="translate(-1102.115 -736.643)" fill="#fff"/>
        <path id="Path_4982" data-name="Path 4982" d="M1103.333,740.459l6.886-2.016a1,1,0,0,0,.607-.493.921.921,0,0,0,.055-.728,1.022,1.022,0,0,0-1.253-.622l-6.886,2.015a1,1,0,0,0-.607.493.925.925,0,0,0-.056.728,1,1,0,0,0,.959.665A1.07,1.07,0,0,0,1103.333,740.459Zm6.776-2.974a.108.108,0,0,1-.007.088.178.178,0,0,1-.112.085l-6.888,2.016a.215.215,0,0,1-.25-.1.107.107,0,0,1,.008-.088.175.175,0,0,1,.112-.085l6.888-2.016a.241.241,0,0,1,.065-.009A.19.19,0,0,1,1110.109,737.485Z" transform="translate(-1102.029 -736.557)" fill="#fff"/>
      </g>
      <g id="Group_113" data-name="Group 113" transform="translate(95.891 53.435)">
        <path id="Path_4983" data-name="Path 4983" d="M1071.765,768.152c-.063,0-.124,0-.185-.007-2.427-.185-4.4-2.21-5.877-6.021a31.583,31.583,0,0,1-1.669-6.605,27.785,27.785,0,0,1-.322-3.869c0-4.234,4.511-7.891,7.2-9.694a.633.633,0,0,1,.838.125.53.53,0,0,1-.136.775c-2.017,1.352-6.708,4.914-6.706,8.794a26.824,26.824,0,0,0,.311,3.718,30.589,30.589,0,0,0,1.61,6.38c.894,2.312,2.46,5.106,4.847,5.288.9.069,3.146-.861,7.981-7.862,3.165-4.58,6.226-10.026,7.77-12.865a.622.622,0,0,1,.8-.245.537.537,0,0,1,.266.746c-1.553,2.858-4.637,8.342-7.83,12.964a44.287,44.287,0,0,1-4.7,5.9C1074.307,767.34,1072.931,768.152,1071.765,768.152Z" transform="translate(-1063.305 -741.441)" fill="#fff"/>
        <path id="Path_4984" data-name="Path 4984" d="M1076.168,765.876a44.7,44.7,0,0,0,4.751-5.953c3.206-4.643,6.3-10.139,7.853-13a.924.924,0,0,0,.067-.736.981.981,0,0,0-.519-.576,1.024,1.024,0,0,0-1.336.421c-1.539,2.831-4.592,8.262-7.747,12.828-5.03,7.283-7.09,7.74-7.613,7.686-2.174-.164-3.646-2.825-4.5-5.029a30.089,30.089,0,0,1-1.586-6.292,26.335,26.335,0,0,1-.306-3.659c0-3.684,4.562-7.139,6.525-8.454a.965.965,0,0,0,.417-.644.923.923,0,0,0-.188-.722,1.031,1.031,0,0,0-1.386-.212c-2.759,1.848-7.386,5.609-7.383,10.032a28.316,28.316,0,0,0,.326,3.928,32.068,32.068,0,0,0,1.692,6.693c1.534,3.97,3.629,6.082,6.23,6.282.07,0,.141.007.212.007C1072.961,768.475,1074.429,767.625,1076.168,765.876Zm-4.824-23.629a.111.111,0,0,1,.026.091.144.144,0,0,1-.065.094c-2.072,1.388-6.89,5.057-6.887,9.133a27.294,27.294,0,0,0,.314,3.779,30.987,30.987,0,0,0,1.633,6.467c.937,2.422,2.6,5.351,5.2,5.549,1.74.116,4.626-2.649,8.348-8.038,3.176-4.6,6.245-10.057,7.792-12.9a.215.215,0,0,1,.273-.072.16.16,0,0,1,.088.092.111.111,0,0,1-.009.089c-1.55,2.85-4.623,8.316-7.808,12.927a43.742,43.742,0,0,1-4.657,5.842c-1.556,1.565-2.872,2.359-3.909,2.359-.054,0-.107,0-.155-.006-2.256-.172-4.115-2.111-5.527-5.761a31.3,31.3,0,0,1-1.646-6.517,27.49,27.49,0,0,1-.317-3.809c0-4.045,4.4-7.6,7.022-9.354a.226.226,0,0,1,.124-.036A.2.2,0,0,1,1071.344,742.247Z" transform="translate(-1063.219 -741.355)" fill="#fff"/>
      </g>
      <g id="Group_114" data-name="Group 114" transform="translate(96.207 60.645)">
        <path id="Path_4985" data-name="Path 4985" d="M1064.694,757.512a.621.621,0,0,1-.418-.158.526.526,0,0,1-.01-.785l6.122-5.828a.634.634,0,0,1,.848-.011.528.528,0,0,1,.01.785l-6.123,5.829A.62.62,0,0,1,1064.694,757.512Z" transform="translate(-1063.687 -750.163)" fill="#fff"/>
        <path id="Path_4986" data-name="Path 4986" d="M1065.32,757.553l6.122-5.828a.935.935,0,0,0-.018-1.385,1.038,1.038,0,0,0-1.4.018l-6.122,5.828a.935.935,0,0,0,.018,1.385,1.042,1.042,0,0,0,1.4-.019Zm5.556-6.606a.119.119,0,0,1,0,.187l-6.121,5.827a.233.233,0,0,1-.293,0,.126.126,0,0,1-.046-.093.129.129,0,0,1,.043-.094l6.122-5.828a.215.215,0,0,1,.148-.055A.21.21,0,0,1,1070.876,750.948Z" transform="translate(-1063.601 -750.077)" fill="#fff"/>
      </g>
      <g id="Group_115" data-name="Group 115" transform="translate(97.846 65.531)">
        <path id="Path_4987" data-name="Path 4987" d="M1066.677,765.029a.623.623,0,0,1-.418-.157.528.528,0,0,1-.011-.786l7.805-7.434a.633.633,0,0,1,.847-.011.527.527,0,0,1,.011.785l-7.806,7.435A.621.621,0,0,1,1066.677,765.029Z" transform="translate(-1065.67 -756.074)" fill="#fff"/>
        <path id="Path_4988" data-name="Path 4988" d="M1067.3,765.071l7.806-7.435a.937.937,0,0,0-.02-1.385,1.039,1.039,0,0,0-1.4.018l-7.805,7.434a.936.936,0,0,0,.02,1.385,1.04,1.04,0,0,0,1.4-.018Zm7.239-8.213a.12.12,0,0,1,0,.187l-7.805,7.434a.233.233,0,0,1-.293,0,.13.13,0,0,1-.046-.093.128.128,0,0,1,.044-.094l7.8-7.434a.217.217,0,0,1,.148-.055A.214.214,0,0,1,1074.542,756.858Z" transform="translate(-1065.584 -755.988)" fill="#fff"/>
      </g>
      <g id="Group_116" data-name="Group 116" transform="translate(47.669 35.637)">
        <path id="Path_4989" data-name="Path 4989" d="M1022.087,740.359c-2.254,0-6.645-3.66-8.15-4.914s-3.034-2.621-4.444-3.978c-1.07-1.026-3.6-3.521-4.025-4.512-.4-.934.557-1.995,3.186-3.549a66.327,66.327,0,0,1,6-3.031.621.621,0,0,1,.8.256.538.538,0,0,1-.276.742c-8.6,3.882-8.6,5.171-8.6,5.183a24.572,24.572,0,0,0,3.77,4.139c1.391,1.338,2.907,2.694,4.383,3.923,5.83,4.859,7.293,4.66,7.442,4.621,1.439-.376,6.407-4.275,13.289-10.427a.633.633,0,0,1,.847.014.527.527,0,0,1-.016.785c-9.263,8.282-12.615,10.389-13.8,10.7A1.648,1.648,0,0,1,1022.087,740.359Z" transform="translate(-1004.972 -719.911)" fill="#fff"/>
        <path id="Path_4990" data-name="Path 4990" d="M1022,740.682h0a2.1,2.1,0,0,0,.522-.063c1.781-.466,6.48-4.1,13.965-10.789a.936.936,0,0,0,.026-1.385,1.035,1.035,0,0,0-1.4-.023c-8.049,7.2-12.055,10.059-13.107,10.334-.051.013-1.467.148-7.09-4.538-1.467-1.221-2.975-2.571-4.361-3.9a30.7,30.7,0,0,1-3.6-3.865c.254-.362,1.593-1.76,8.31-4.791a.981.981,0,0,0,.526-.569.919.919,0,0,0-.057-.736,1.034,1.034,0,0,0-1.33-.437,66.462,66.462,0,0,0-6.045,3.051c-2.107,1.247-3.973,2.6-3.353,4.061.434,1.022,2.766,3.35,4.118,4.647,1.419,1.366,2.964,2.748,4.47,4,2.579,2.148,6.255,5,8.406,5Zm-6.989-19.948a.113.113,0,0,1,.008.089.164.164,0,0,1-.09.092c-8.105,3.657-8.879,5.13-8.836,5.593l.031.123a24.531,24.531,0,0,0,3.862,4.273c1.4,1.345,2.922,2.708,4.4,3.942,5.558,4.633,7.308,4.83,7.806,4.7,2.16-.565,10.131-7.544,13.458-10.519a.227.227,0,0,1,.292,0,.13.13,0,0,1,.043.093.127.127,0,0,1-.047.094c-9.687,8.66-12.7,10.363-13.625,10.607a1.29,1.29,0,0,1-.317.036h0c-1.4,0-4.049-1.62-7.888-4.82-1.487-1.237-3.016-2.606-4.423-3.958a23.478,23.478,0,0,1-3.932-4.377c-.29-.685.669-1.65,3.017-3.037a65.345,65.345,0,0,1,5.965-3.011.231.231,0,0,1,.094-.02A.2.2,0,0,1,1015.012,720.734Z" transform="translate(-1004.886 -719.825)" fill="#fff"/>
      </g>
      <g id="Group_117" data-name="Group 117" transform="translate(51.614 41.918)">
        <path id="Path_4991" data-name="Path 4991" d="M1010.751,732.954a.609.609,0,0,1-.522-.283.535.535,0,0,1,.228-.757l7.516-3.923a.624.624,0,0,1,.816.212.534.534,0,0,1-.228.756l-7.516,3.923A.628.628,0,0,1,1010.751,732.954Z" transform="translate(-1009.743 -727.509)" fill="#fff"/>
        <path id="Path_4992" data-name="Path 4992" d="M1011.149,733.159l7.515-3.923a.976.976,0,0,0,.492-.6.923.923,0,0,0-.1-.734,1.029,1.029,0,0,0-1.355-.361l-7.516,3.924a.978.978,0,0,0-.49.6.926.926,0,0,0,.1.734,1.02,1.02,0,0,0,.872.479A1.035,1.035,0,0,0,1011.149,733.159Zm7.206-4.829a.111.111,0,0,1,.014.089.152.152,0,0,1-.082.092l-7.519,3.925a.187.187,0,0,1-.275-.061.112.112,0,0,1-.014-.09.153.153,0,0,1,.082-.093l7.515-3.923a.219.219,0,0,1,.106-.026A.2.2,0,0,1,1018.354,728.329Z" transform="translate(-1009.658 -727.424)" fill="#fff"/>
      </g>
      <g id="Group_118" data-name="Group 118" transform="translate(56.027 46.111)">
        <path id="Path_4993" data-name="Path 4993" d="M1016.091,737.784a.608.608,0,0,1-.523-.283.535.535,0,0,1,.228-.756l7.054-3.682a.625.625,0,0,1,.816.212.535.535,0,0,1-.228.757l-7.053,3.681A.633.633,0,0,1,1016.091,737.784Z" transform="translate(-1015.082 -732.581)" fill="#fff"/>
        <path id="Path_4994" data-name="Path 4994" d="M1016.488,737.989l7.053-3.682a.977.977,0,0,0,.491-.6.922.922,0,0,0-.1-.734,1.029,1.029,0,0,0-1.354-.361l-7.053,3.682a.978.978,0,0,0-.491.6.923.923,0,0,0,.1.733,1.019,1.019,0,0,0,.871.479A1.053,1.053,0,0,0,1016.488,737.989Zm6.744-4.589a.111.111,0,0,1,.014.089.156.156,0,0,1-.082.093l-7.054,3.682a.225.225,0,0,1-.279-.061.113.113,0,0,1-.013-.09.155.155,0,0,1,.082-.092l7.053-3.682a.227.227,0,0,1,.106-.025A.2.2,0,0,1,1023.231,733.4Z" transform="translate(-1014.996 -732.495)" fill="#fff"/>
      </g>
      <g id="Group_119" data-name="Group 119" transform="translate(51.603 12.718)">
        <path id="Path_4995" data-name="Path 4995" d="M1015.2,703.332a.629.629,0,0,1-.387-.131c-1.227-.962-4.96-3.891-4.659-5.953a6.2,6.2,0,0,1,3.637-4.117,4.877,4.877,0,0,1,4.411-.018c2.069,1.13,7.28,5.834,10.2,8.538a.528.528,0,0,1,0,.785.634.634,0,0,1-.848,0c-4.9-4.537-8.536-7.586-9.964-8.367a3.736,3.736,0,0,0-3.28.06,5.1,5.1,0,0,0-2.973,3.266c-.133.913,1.453,2.766,4.245,4.956a.527.527,0,0,1,.07.783A.618.618,0,0,1,1015.2,703.332Z" transform="translate(-1009.729 -692.186)" fill="#fff"/>
        <path id="Path_4996" data-name="Path 4996" d="M1015.874,703.324a.93.93,0,0,0,.245-.711.952.952,0,0,0-.365-.669c-3.372-2.646-4.159-4.121-4.093-4.576a4.742,4.742,0,0,1,2.736-2.952,3.337,3.337,0,0,1,2.916-.074c1.4.764,5,3.793,9.883,8.308a1.035,1.035,0,0,0,1.4,0,.936.936,0,0,0,0-1.384c-2.935-2.716-8.174-7.444-10.284-8.6a5.271,5.271,0,0,0-4.774.005,6.62,6.62,0,0,0-3.874,4.43c-.3,2.058,2.6,4.6,4.811,6.334a1.045,1.045,0,0,0,.639.216A1.025,1.025,0,0,0,1015.874,703.324Zm2.048-9.94c2.031,1.11,7.213,5.789,10.12,8.48a.129.129,0,0,1,.046.094.127.127,0,0,1-.045.093.226.226,0,0,1-.293,0c-4.928-4.56-8.59-7.631-10.045-8.426a4.134,4.134,0,0,0-3.644.047,5.439,5.439,0,0,0-3.208,3.578c-.216,1.472,2.662,3.975,4.4,5.336a.13.13,0,0,1,.055.094.121.121,0,0,1-.035.093.23.23,0,0,1-.29.019c-3.168-2.485-4.684-4.359-4.507-5.573a5.858,5.858,0,0,1,3.4-3.8,5.3,5.3,0,0,1,2.169-.5A3.887,3.887,0,0,1,1017.922,693.385Z" transform="translate(-1009.644 -692.1)" fill="#fff"/>
      </g>
      <g id="Group_120" data-name="Group 120" transform="translate(103.252)">
        <path id="Path_4997" data-name="Path 4997" d="M1124.415,700.211a.617.617,0,0,1-.451-.189,142.437,142.437,0,0,0-13.318-11.638c-6.257-4.9-11.523-8.391-14.925-9.9-2.131,3.35-7.994,6.656-10.5,7.963-3.6,1.876-8.107,3.725-10.912,4.089l4.849,6.594a.53.53,0,0,1-.157.772.629.629,0,0,1-.832-.146l-5.445-7.4a.522.522,0,0,1-.027-.585.609.609,0,0,1,.552-.283c2,.094,6.676-1.555,11.384-4.008,5.267-2.745,9.115-5.72,10.291-7.958a.619.619,0,0,1,.779-.265c7.727,3.135,23.978,16.527,29.167,22.034a.529.529,0,0,1-.058.785A.624.624,0,0,1,1124.415,700.211Z" transform="translate(-1072.209 -676.801)" fill="#fff"/>
        <path id="Path_4998" data-name="Path 4998" d="M1124.98,700.306a.937.937,0,0,0,.1-1.381c-5.208-5.528-21.535-18.978-29.31-22.132a1.03,1.03,0,0,0-1.294.455c-1.138,2.167-4.92,5.077-10.117,7.785-4.652,2.424-9.263,4.051-11.177,3.962a1.025,1.025,0,0,0-.921.479.931.931,0,0,0,.048,1.037l5.444,7.4a1.032,1.032,0,0,0,1.38.249.965.965,0,0,0,.436-.632.922.922,0,0,0-.168-.727l-4.453-6.055a44.46,44.46,0,0,0,10.375-4.024c2.4-1.252,8.127-4.47,10.461-7.809,3.375,1.562,8.512,4.991,14.526,9.7a142.065,142.065,0,0,1,13.273,11.6,1.043,1.043,0,0,0,1.4.088Zm-29.69-22.125c-2.086,3.278-7.931,6.56-10.347,7.819-3.125,1.628-7.822,3.664-10.776,4.047l-.687.089,5.26,7.153a.11.11,0,0,1,.023.09.142.142,0,0,1-.069.093.219.219,0,0,1-.285-.042l-5.444-7.4a.116.116,0,0,1-.007-.132.2.2,0,0,1,.184-.087c2.1.107,6.75-1.53,11.593-4.052,5.339-2.783,9.249-5.821,10.463-8.131a.217.217,0,0,1,.264-.077c7.68,3.116,23.854,16.45,29.021,21.935a.118.118,0,0,1,.037.093.132.132,0,0,1-.053.094.233.233,0,0,1-.292-.016,142.837,142.837,0,0,0-13.363-11.68c-6.254-4.9-11.586-8.433-15.012-9.949l-.321-.142Z" transform="translate(-1072.124 -676.716)" fill="#fff"/>
      </g>
      <g id="Group_121" data-name="Group 121" transform="translate(112.91 11.936)">
        <path id="Path_4999" data-name="Path 4999" d="M1089,697.307a.617.617,0,0,1-.46-.2l-4.1-4.545a.528.528,0,0,1,.076-.783.632.632,0,0,1,.844.07l4.1,4.545a.528.528,0,0,1-.075.782A.63.63,0,0,1,1089,697.307Z" transform="translate(-1083.892 -691.24)" fill="#fff"/>
        <path id="Path_5000" data-name="Path 5000" d="M1089.546,697.414a.937.937,0,0,0,.369-.666.927.927,0,0,0-.24-.713l-4.1-4.545a1.032,1.032,0,0,0-1.4-.119.944.944,0,0,0-.37.666.93.93,0,0,0,.24.713l4.1,4.546a1.042,1.042,0,0,0,1.4.118Zm-4.575-5.376,4.1,4.545a.115.115,0,0,1,.034.092.13.13,0,0,1-.057.094.231.231,0,0,1-.289-.021l-4.1-4.545a.119.119,0,0,1-.034-.092.133.133,0,0,1,.056-.094.22.22,0,0,1,.135-.044A.2.2,0,0,1,1084.97,692.038Z" transform="translate(-1083.806 -691.154)" fill="#fff"/>
      </g>
      <g id="Group_122" data-name="Group 122" transform="translate(119.904 9.664)">
        <path id="Path_5001" data-name="Path 5001" d="M1097.459,694.558a.619.619,0,0,1-.46-.2l-4.1-4.545a.527.527,0,0,1,.075-.782.633.633,0,0,1,.844.069l4.1,4.545a.528.528,0,0,1-.076.782A.618.618,0,0,1,1097.459,694.558Z" transform="translate(-1092.353 -688.492)" fill="#fff"/>
        <path id="Path_5002" data-name="Path 5002" d="M1098.008,694.666a.946.946,0,0,0,.37-.666.931.931,0,0,0-.241-.713l-4.1-4.543a1.034,1.034,0,0,0-1.4-.121.945.945,0,0,0-.369.668.93.93,0,0,0,.241.711l4.1,4.546a1.026,1.026,0,0,0,.762.332A1.039,1.039,0,0,0,1098.008,694.666Zm-4.576-5.376,4.1,4.544a.114.114,0,0,1,.034.092.128.128,0,0,1-.056.093.23.23,0,0,1-.29-.02l-4.1-4.545a.122.122,0,0,1-.034-.092.136.136,0,0,1,.056-.094.221.221,0,0,1,.134-.044A.21.21,0,0,1,1093.431,689.29Z" transform="translate(-1092.268 -688.406)" fill="#fff"/>
      </g>
      <g id="Group_123" data-name="Group 123" transform="translate(126.898 7.392)">
        <path id="Path_5003" data-name="Path 5003" d="M1105.919,691.809a.617.617,0,0,1-.46-.2l-4.1-4.545a.528.528,0,0,1,.075-.782.633.633,0,0,1,.845.069l4.1,4.545a.528.528,0,0,1-.075.783A.627.627,0,0,1,1105.919,691.809Z" transform="translate(-1100.814 -685.743)" fill="#fff"/>
        <path id="Path_5004" data-name="Path 5004" d="M1106.468,691.917a.946.946,0,0,0,.369-.668.928.928,0,0,0-.241-.712l-4.1-4.544a1.035,1.035,0,0,0-1.4-.12.958.958,0,0,0-.371.669.934.934,0,0,0,.242.71l4.1,4.545a1.025,1.025,0,0,0,.763.334A1.042,1.042,0,0,0,1106.468,691.917Zm-4.576-5.377,4.1,4.544a.12.12,0,0,1,.034.092.137.137,0,0,1-.055.094.229.229,0,0,1-.291-.02l-4.1-4.545a.119.119,0,0,1-.034-.091.134.134,0,0,1,.056-.1.217.217,0,0,1,.134-.044A.209.209,0,0,1,1101.892,686.541Z" transform="translate(-1100.728 -685.657)" fill="#fff"/>
      </g>
      <g id="Group_124" data-name="Group 124" transform="translate(30.809 27.78)">
        <path id="Path_5005" data-name="Path 5005" d="M1084.9,712.757h0a1.011,1.011,0,0,0,1.048-.972h0a1.012,1.012,0,0,0-1.048-.972h0a.975.975,0,1,0,0,1.944Zm-8.989,0h0a1.011,1.011,0,0,0,1.048-.972h0a1.012,1.012,0,0,0-1.048-.972h0a.975.975,0,1,0,0,1.944Zm-8.988,0h0a1.011,1.011,0,0,0,1.048-.972h0a1.012,1.012,0,0,0-1.048-.972h0a.975.975,0,1,0,0,1.944Zm-8.988,0h0a1.011,1.011,0,0,0,1.048-.972h0a1.012,1.012,0,0,0-1.048-.972h0a.975.975,0,1,0,0,1.944Zm-8.988,0h0a1.011,1.011,0,0,0,1.048-.972h0a1.012,1.012,0,0,0-1.048-.972h0a.975.975,0,1,0,0,1.944Zm-8.989,0h0a1.011,1.011,0,0,0,1.048-.972h0a1.012,1.012,0,0,0-1.048-.972h0a.975.975,0,1,0,0,1.944Zm-8.988,0h0a1.011,1.011,0,0,0,1.048-.972h0a1.012,1.012,0,0,0-1.048-.972h0a.975.975,0,1,0,0,1.944Zm-8.988,0h0a1.011,1.011,0,0,0,1.048-.972h0a1.012,1.012,0,0,0-1.048-.972h0a.975.975,0,1,0,0,1.944Zm-8.988,0h0a1.011,1.011,0,0,0,1.048-.972h0a1.012,1.012,0,0,0-1.048-.972h0a.975.975,0,1,0,0,1.944Zm-8.989,0h0a1.011,1.011,0,0,0,1.048-.972h0a1.012,1.012,0,0,0-1.048-.972h0a.975.975,0,1,0,0,1.944Zm-8.988,0h0a1.011,1.011,0,0,0,1.048-.972h0a1.012,1.012,0,0,0-1.048-.972h0a.975.975,0,1,0,0,1.944Zm-8.988,0h0a1.011,1.011,0,0,0,1.048-.972h0a1.012,1.012,0,0,0-1.048-.972h0a.975.975,0,1,0,0,1.944Z" transform="translate(-984.576 -710.406)" fill="#fff"/>
        <path id="Path_5006" data-name="Path 5006" d="M1086.275,711.7a1.459,1.459,0,1,0-1.457,1.38A1.421,1.421,0,0,0,1086.275,711.7Zm-.817,0a.646.646,0,1,1-.64-.563A.606.606,0,0,1,1085.459,711.7Zm-8.172,0a1.459,1.459,0,1,0-1.458,1.38A1.421,1.421,0,0,0,1077.287,711.7Zm-.817,0a.646.646,0,1,1-.641-.563A.606.606,0,0,1,1076.47,711.7Zm-8.172,0a1.459,1.459,0,1,0-1.457,1.38A1.421,1.421,0,0,0,1068.3,711.7Zm-.817,0a.645.645,0,1,1-.64-.563A.606.606,0,0,1,1067.482,711.7Zm-8.172,0a1.459,1.459,0,1,0-1.457,1.38A1.421,1.421,0,0,0,1059.31,711.7Zm-.817,0a.645.645,0,1,1-.641-.563A.606.606,0,0,1,1058.494,711.7Zm-8.171,0a1.459,1.459,0,1,0-1.457,1.38A1.421,1.421,0,0,0,1050.322,711.7Zm-.817,0a.646.646,0,1,1-.64-.563A.606.606,0,0,1,1049.505,711.7Zm-8.171,0a1.459,1.459,0,1,0-1.457,1.38A1.421,1.421,0,0,0,1041.334,711.7Zm-.817,0a.646.646,0,1,1-.64-.563A.606.606,0,0,1,1040.517,711.7Zm-8.172,0a1.459,1.459,0,1,0-1.457,1.38A1.421,1.421,0,0,0,1032.346,711.7Zm-.817,0a.646.646,0,1,1-.64-.563A.606.606,0,0,1,1031.529,711.7Zm-8.172,0a1.459,1.459,0,1,0-1.457,1.38A1.421,1.421,0,0,0,1023.357,711.7Zm-.817,0a.646.646,0,1,1-.64-.563A.606.606,0,0,1,1022.54,711.7Zm-8.172,0a1.459,1.459,0,1,0-1.456,1.38A1.421,1.421,0,0,0,1014.369,711.7Zm-.817,0a.646.646,0,1,1-.64-.563A.606.606,0,0,1,1013.552,711.7Zm-8.171,0a1.459,1.459,0,1,0-1.457,1.38A1.421,1.421,0,0,0,1005.381,711.7Zm-.817,0a.645.645,0,1,1-.64-.563A.606.606,0,0,1,1004.564,711.7Zm-8.171,0a1.459,1.459,0,1,0-1.457,1.38A1.421,1.421,0,0,0,996.392,711.7Zm-.817,0a.646.646,0,1,1-.64-.563A.606.606,0,0,1,995.576,711.7Zm-8.172,0a1.459,1.459,0,1,0-1.457,1.38A1.421,1.421,0,0,0,987.4,711.7Zm-.817,0a.646.646,0,1,1-.64-.563A.606.606,0,0,1,986.587,711.7Z" transform="translate(-984.49 -710.32)" fill="#fff"/>
      </g>
      <g id="Group_125" data-name="Group 125" transform="translate(78.299 34.72)">
        <path id="Path_5007" data-name="Path 5007" d="M1088.422,721.154h0a1.013,1.013,0,0,0,1.049-.972h0a1.014,1.014,0,0,0-1.049-.972h0a.975.975,0,1,0,0,1.944Zm-8.988,0h0a1.013,1.013,0,0,0,1.049-.972h0a1.014,1.014,0,0,0-1.049-.972h0a.975.975,0,1,0,0,1.944Zm-8.988,0h0a1.013,1.013,0,0,0,1.049-.972h0a1.013,1.013,0,0,0-1.049-.972h0a.975.975,0,1,0,0,1.944Zm-8.988,0h0a1.013,1.013,0,0,0,1.049-.972h0a1.013,1.013,0,0,0-1.049-.972h0a.975.975,0,1,0,0,1.944Zm-8.988,0h0a1.013,1.013,0,0,0,1.049-.972h0a1.013,1.013,0,0,0-1.049-.972h0a.975.975,0,1,0,0,1.944Zm-8.989,0h0a1.013,1.013,0,0,0,1.049-.972h0a1.014,1.014,0,0,0-1.049-.972h0a.975.975,0,1,0,0,1.944Z" transform="translate(-1042.024 -718.802)" fill="#fff"/>
        <path id="Path_5008" data-name="Path 5008" d="M1089.794,720.1a1.46,1.46,0,1,0-1.457,1.38A1.422,1.422,0,0,0,1089.794,720.1Zm-.818,0a.645.645,0,1,1-.64-.564A.606.606,0,0,1,1088.976,720.1Zm-8.171,0a1.459,1.459,0,1,0-1.457,1.38A1.422,1.422,0,0,0,1080.805,720.1Zm-.817,0a.645.645,0,1,1-.64-.564A.606.606,0,0,1,1079.988,720.1Zm-8.171,0a1.459,1.459,0,1,0-1.458,1.38A1.422,1.422,0,0,0,1071.817,720.1Zm-.818,0a.645.645,0,1,1-.64-.564A.606.606,0,0,1,1071,720.1Zm-8.17,0a1.459,1.459,0,1,0-1.458,1.38A1.422,1.422,0,0,0,1062.829,720.1Zm-.817,0a.646.646,0,1,1-.641-.564A.606.606,0,0,1,1062.012,720.1Zm-8.172,0a1.459,1.459,0,1,0-1.458,1.38A1.422,1.422,0,0,0,1053.84,720.1Zm-.817,0a.645.645,0,1,1-.641-.564A.606.606,0,0,1,1053.024,720.1Zm-8.172,0a1.459,1.459,0,1,0-1.457,1.38A1.422,1.422,0,0,0,1044.852,720.1Zm-.817,0a.645.645,0,1,1-.641-.564A.606.606,0,0,1,1044.035,720.1Z" transform="translate(-1041.938 -718.716)" fill="#fff"/>
      </g>
    </g>
  </g>
</svg>
