<svg xmlns="http://www.w3.org/2000/svg" width="35.703" height="35.692" viewBox="0 0 35.703 35.692">
  <g id="Group_3080" data-name="Group 3080" transform="translate(-344.148 -1465)">
    <g id="Group_3079" data-name="Group 3079">
      <path id="Path_6978" data-name="Path 6978" d="M756.282,1287.735c.091-.665.159-1.334.275-1.994a17.522,17.522,0,0,1,4.931-9.484c.292-.295.591-.332.824-.117.25.231.232.538-.078.849a15.937,15.937,0,0,0-4.093,6.712,16.4,16.4,0,0,0,3.247,16.056,15.981,15.981,0,0,0,10.409,5.72,16.294,16.294,0,0,0,13.221-3.866,16.126,16.126,0,0,0,5.647-9.891A16.336,16.336,0,0,0,786.927,1278a16.088,16.088,0,0,0-9.188-5.55,16.5,16.5,0,0,0-13.206,2.608c-.106.072-.207.15-.313.221a.544.544,0,0,1-.8-.068.531.531,0,0,1,.19-.778,17.228,17.228,0,0,1,3.723-2.094,17.85,17.85,0,1,1,10.418,33.984c-.726.146-1.47.206-2.205.307-.1.014-.2.04-.3.061h-2.231c-.078-.019-.154-.044-.233-.056-.814-.119-1.636-.2-2.442-.359a17.846,17.846,0,0,1-13.775-14.286c-.109-.674-.187-1.353-.279-2.029Z" transform="translate(-412.134 193.997)" fill="#0055B8"/>
      <path id="Path_6979" data-name="Path 6979" d="M810.193,1338.885a7.1,7.1,0,0,0,.434,5.748,15.869,15.869,0,0,0,1.367,1.876,2.042,2.042,0,0,0,.147.149.522.522,0,0,1,.037.774.537.537,0,0,1-.778-.039,7.524,7.524,0,0,1-2.023-2.965c-.265-.748-.392-1.544-.585-2.318a2.7,2.7,0,0,0-.159-.527,12.968,12.968,0,0,1-.134-11.56.891.891,0,0,0,.061-.5,9.329,9.329,0,0,1-.1-2.981,3.268,3.268,0,0,1,2.884-2.959,10.407,10.407,0,0,1,3.6-.048,1.283,1.283,0,0,0,.6-.06,13.067,13.067,0,0,1,6.467-.762c.449.06.639.269.6.608s-.305.477-.741.421a12.092,12.092,0,0,0-4.665.3c.13.066.2.106.275.139.823.372,1.65.737,2.468,1.121a.406.406,0,0,0,.466-.019,2.835,2.835,0,0,1,3.127-.114c1.181.67,2.35,1.361,3.514,2.059a2.6,2.6,0,0,1,1.2,3,2.075,2.075,0,0,1-.871,1.178c-.349.247-.718.467-1.1.717.175.445.354.893.527,1.344.1.249.186.5.265.755a.522.522,0,1,1-.987.322c-.14-.369-.269-.741-.408-1.11a13.264,13.264,0,0,0-6.227-7.223q-.229-.125-.461-.244a.312.312,0,0,0-.091-.005,13.455,13.455,0,0,1-7.383,8.135c.453.583.877,1.159,1.332,1.708a13.569,13.569,0,0,0,8.044,4.495c1.089.228,2.2.347,3.291.568a7.111,7.111,0,0,1,2.977,1.452.752.752,0,0,1,.3.876,3.559,3.559,0,0,0,1.328,3.713.648.648,0,0,0,1.06-.326c.2-.58.386-1.167.565-1.755a2.014,2.014,0,0,1,1.211-1.348c.525-.218,1.046-.445,1.565-.677a.67.67,0,0,0,.22-1.21,3.448,3.448,0,0,0-3.626-.88.874.874,0,0,1-1.023-.247,7.671,7.671,0,0,1-2-3.457.532.532,0,0,1,.347-.72.524.524,0,0,1,.649.424,6.662,6.662,0,0,0,1.521,2.783.428.428,0,0,0,.448.14c.625-.094,1.258-.133,1.961-.2a10.476,10.476,0,0,0,.539-2.429,11.983,11.983,0,0,0-7.776-12.623c-.436-.161-.6-.47-.429-.788a.554.554,0,0,1,.757-.2,12.512,12.512,0,0,1,4.052,2.4,12.831,12.831,0,0,1,4.421,11.377,18.352,18.352,0,0,1-.51,2.412c-.05.212-.007.285.173.4a9.088,9.088,0,0,1,1.309.97,1.635,1.635,0,0,1-.346,2.656,14.737,14.737,0,0,1-1.649.738,1.321,1.321,0,0,0-.873.952c-.14.538-.33,1.063-.508,1.59a1.687,1.687,0,0,1-2.748.809c-.333-.267-.625-.584-.926-.869-.71.332-1.431.7-2.178,1.01a12.2,12.2,0,0,1-3.716.855,2.1,2.1,0,0,0-.663.175,8.322,8.322,0,0,1-6.794.095c-.408-.169-.551-.434-.418-.743s.421-.382.828-.215a7.334,7.334,0,0,0,8.268-1.787c.109-.119.211-.245.341-.4l-.913-.513c-.089.1-.171.189-.26.277a6.109,6.109,0,0,1-6.524,1.636,6.043,6.043,0,0,1-4.255-5.161,5.578,5.578,0,0,1,.169-2.447c.047-.165.036-.256-.122-.333C810.7,1339.166,810.469,1339.034,810.193,1338.885Zm-1.138-7.513a12.052,12.052,0,0,0-.158,8.143c.159-.474.288-.907.449-1.328.24-.629.469-.705,1.053-.385l13.245,7.258c.59.323.657.565.255,1.092-.324.424-.68.824-1.042,1.258a11.647,11.647,0,0,0,3.81-1.561,4.868,4.868,0,0,1-.3-2.611.437.437,0,0,0-.179-.324,5.917,5.917,0,0,0-2.433-1.068c-1.2-.222-2.408-.374-3.6-.637a14.477,14.477,0,0,1-9.19-6.1A16.434,16.434,0,0,1,809.055,1331.372Zm1.956,1.806a12.364,12.364,0,0,0,6.945-7.7,11.353,11.353,0,0,0-6.221-.9c-1.549.269-2.124.844-2.253,2.414a10.6,10.6,0,0,0,.176,2.588A11.206,11.206,0,0,0,811.011,1333.178Zm14.778-2c.309-.182.576-.341.845-.5a1.457,1.457,0,0,0,0-2.472c-1.241-.746-2.489-1.482-3.751-2.192a1.727,1.727,0,0,0-1.717.041A13.382,13.382,0,0,1,825.788,1331.173Zm-13.18,12.775,3.161-2.011-3.7-2.027A5.264,5.264,0,0,0,812.609,1343.949Zm4.763-1.132v3.683a5.343,5.343,0,0,0,3.608-1.706Zm-1.087.036-3.048,1.936a5.169,5.169,0,0,0,3.048,1.647Z" transform="translate(-458.314 147.208)" fill="#0055B8"/>
    </g>
    <path id="Path_6980" data-name="Path 6980" d="M863.152,1356.452a1.626,1.626,0,0,1-1.632,1.634,1.645,1.645,0,0,1-1.629-1.646,1.624,1.624,0,0,1,1.641-1.626A1.606,1.606,0,0,1,863.152,1356.452Zm-1.634-.591a.587.587,0,0,0-.581.6.6.6,0,0,0,.578.577.587.587,0,0,0,.591-.591A.569.569,0,0,0,861.519,1355.861Z" transform="translate(-506.094 117.991)" fill="#0055B8"/>
  </g>
</svg>
