<svg xmlns="http://www.w3.org/2000/svg" width="35.035" height="28.698" viewBox="0 0 35.035 28.698">
  <g id="Group_3084" data-name="Group 3084" transform="translate(-343.338 -1712)">
    <path id="Path_6995" data-name="Path 6995" d="M2190.193,1315.06a7.358,7.358,0,0,1,.5-1.149,2.117,2.117,0,0,1,2.8-.824c1.014.437,2.026.882,3.039,1.323.133.058.268.112.443.185-.061-.966-.119-1.885-.177-2.8s-.118-1.867-.176-2.8a2.947,2.947,0,0,1,4.38-2.76c1.339.731,2.71,1.406,4.1,2.121.214-.653.461-1.279.623-1.926.9-3.609,4.956-4.217,7.286-2.812a17.021,17.021,0,0,1,2.244,1.729,35.828,35.828,0,0,1,5.586,6.089,2.534,2.534,0,0,0,.531.519,13.306,13.306,0,0,1,2.66,2.547,4.434,4.434,0,0,1,0,6.056,13.575,13.575,0,0,1-2.66,2.549,3.173,3.173,0,0,0-.583.566,34.6,34.6,0,0,1-7.146,6.887,5.444,5.444,0,0,1-5.677.484,3.857,3.857,0,0,1-2.085-2.334c-.238-.664-.463-1.332-.7-2.029-.131.061-.241.107-.347.162-1.265.653-2.546,1.279-3.792,1.967a2.953,2.953,0,0,1-4.411-2.781c.113-1.627.208-3.255.311-4.883.013-.214.026-.428.042-.692l-1.412.612c-.658.285-1.33.544-1.973.86a2.285,2.285,0,0,1-3.258-1.479c-.051-.15-.095-.3-.142-.453Zm27.019-4.214a30.27,30.27,0,0,0,0,13.333c.088-.031.131-.042.17-.06a17.393,17.393,0,0,0,4.081-2.533,8.3,8.3,0,0,0,2.277-2.74,2.792,2.792,0,0,0,.28-1.822,5.021,5.021,0,0,0-1.207-2.229A16.073,16.073,0,0,0,2217.212,1310.846Zm-3.248,14.5a30.864,30.864,0,0,1,0-15.64c-.868-.11-1.712-.213-2.555-.328-.262-.036-.37.044-.438.315a33.071,33.071,0,0,0-.5,13.3c.14.9.366,1.78.568,2.742Zm-6.557-15.677c-1.011.345-1.936.654-2.853.986-.093.034-.17.2-.2.316a29.548,29.548,0,0,0-.081,12.825.876.876,0,0,0,.664.774c.8.238,1.594.509,2.461.79A35.964,35.964,0,0,1,2207.407,1309.667Zm2.433,16.01a34.987,34.987,0,0,1,0-16.307c-.3.029-.55.072-.8.072-.279,0-.378.124-.446.389a32.777,32.777,0,0,0-.849,9.5,28.589,28.589,0,0,0,.867,5.908c.031.123.128.3.222.321A8.951,8.951,0,0,0,2209.84,1325.677Zm-9.4-12.719a9.891,9.891,0,0,0-2.834,3.1,2.908,2.908,0,0,0-.083,2.756,9.584,9.584,0,0,0,2.915,3.274A33.65,33.65,0,0,1,2200.436,1312.958Zm5.74-4.1c.378-.092.673-.186.975-.23a.542.542,0,0,0,.514-.486c.062-.3.191-.584.268-.881a2.772,2.772,0,0,1,4.479-1.346,21.975,21.975,0,0,1,2.29,2.2,3.78,3.78,0,0,0,1.861,1.274,16.954,16.954,0,0,1,1.676.676c-.063-.088-.087-.126-.115-.161a30.64,30.64,0,0,0-4.729-4.59,6.42,6.42,0,0,0-1.532-.942,3.629,3.629,0,0,0-5,2.361c-.053.162-.109.324-.162.486C2206.534,1307.739,2206.365,1308.266,2206.176,1308.854Zm8.912,1.2a29.357,29.357,0,0,0,0,14.932c.224-.072.387-.121.548-.177s.315-.118.476-.178a31.5,31.5,0,0,1,0-14.226Zm-8.869,16.156c.36.932.658,1.812,1.04,2.654a2.357,2.357,0,0,0,1.3,1.165,4.326,4.326,0,0,0,4.414-.431c.9-.642,1.763-1.336,2.593-2.066s1.624-1.554,2.432-2.336l-.054-.071c-.082.029-.165.056-.246.086-.8.3-1.6.593-2.393.907a1.88,1.88,0,0,0-.529.342c-.811.715-1.578,1.484-2.425,2.154a2.816,2.816,0,0,1-4.441-1.422,2.749,2.749,0,0,0-.171-.482.333.333,0,0,0-.175-.175C2207.146,1326.424,2206.728,1326.331,2206.218,1326.21Zm-3.159-2.478a32.188,32.188,0,0,1,0-12.408c-.336.186-.6.36-.892.489a.764.764,0,0,0-.476.708c-.113,1.191-.287,2.377-.359,3.569a28.187,28.187,0,0,0,.4,6.642.511.511,0,0,0,.146.32C2202.242,1323.283,2202.623,1323.484,2203.059,1323.732Zm1.493-14.323c-.078-.05-.132-.091-.19-.121q-2-1.035-4.008-2.066a1.823,1.823,0,0,0-.48-.17,1.759,1.759,0,0,0-2.077,1.756c.018.957.105,1.912.165,2.867.036.586.078,1.173.121,1.819.268-.243.477-.466.72-.644a.681.681,0,0,0,.284-.7c-.058-.532-.1-1.067-.124-1.6a1.546,1.546,0,0,1,2.347-1.554c.572.281,1.138.575,1.714.85a.556.556,0,0,0,.379.058C2203.785,1309.759,2204.152,1309.583,2204.552,1309.409Zm-6.468,12.142c-.1,1.549-.185,3.027-.295,4.5a1.8,1.8,0,0,0,2.712,1.713c1.232-.69,2.506-1.3,3.761-1.953.094-.048.184-.1.307-.173-.383-.164-.711-.325-1.055-.443a.7.7,0,0,0-.471.007c-.611.28-1.194.623-1.814.876a2.123,2.123,0,0,1-1.051.159,1.44,1.44,0,0,1-1.216-1.51c.02-.672.092-1.342.126-2.014a.483.483,0,0,0-.1-.333C2198.719,1322.109,2198.423,1321.859,2198.083,1321.551Zm-4.363-7.087v6.123l2.685-1.168a10.224,10.224,0,0,1-.347-1.894,10.356,10.356,0,0,1,.349-1.894Zm-1.208-.421a1.39,1.39,0,0,0-1.15,1.431c-.012.683,0,1.367,0,2.05s-.009,1.367,0,2.05a1.345,1.345,0,0,0,1.15,1.416Zm20.846-5.6.054-.105c-.55-.489-1.092-.987-1.652-1.464a1.727,1.727,0,0,0-1.945-.279c-.71.32-.759,1.027-.961,1.7A14.6,14.6,0,0,1,2213.358,1308.446Zm-4.324,18.341a1.369,1.369,0,0,0,1.32,1.217c1.1.12,1.719-.663,2.41-1.217Zm-7.092-16.163c-.116-.063-.193-.108-.273-.148-.336-.167-.669-.344-1.012-.5a.349.349,0,0,0-.527.322c.007.45.055.9.089,1.394Zm.013,13.806-1.737-1.079c-.034.5-.082.951-.087,1.4a.343.343,0,0,0,.5.322C2201.068,1324.882,2201.489,1324.66,2201.956,1324.431Z" transform="translate(-1846.855 409.084)" fill="#0055b8"/>
    <path id="Path_6996" data-name="Path 6996" d="M2492.189,1424.41a1.748,1.748,0,0,1-.05,3.495,1.748,1.748,0,1,1,.05-3.495Zm-.011,1.167a.588.588,0,0,0-.6.572.6.6,0,0,0,.587.59.583.583,0,0,0,.574-.561A.568.568,0,0,0,2492.178,1425.577Z" transform="translate(-2119.619 298.701)" fill="#0055b8"/>
  </g>
</svg>
