<svg xmlns="http://www.w3.org/2000/svg" width="29.059" height="22.222" viewBox="0 0 29.059 22.222">
  <path id="Path_6974" data-name="Path 6974" d="M5.709,66.256h5.128a1.714,1.714,0,0,0,1.709-1.709V57.709A1.714,1.714,0,0,0,10.837,56H5.709A1.714,1.714,0,0,0,4,57.709v6.837A1.714,1.714,0,0,0,5.709,66.256Zm0,11.966h5.128a1.714,1.714,0,0,0,1.709-1.709V69.675a1.714,1.714,0,0,0-1.709-1.709H5.709A1.714,1.714,0,0,0,4,69.675v6.837A1.714,1.714,0,0,0,5.709,78.222Zm10.256,0h5.128A1.714,1.714,0,0,0,22.8,76.512V69.675a1.714,1.714,0,0,0-1.709-1.709H15.966a1.714,1.714,0,0,0-1.709,1.709v6.837A1.714,1.714,0,0,0,15.966,78.222Zm10.256,0H31.35a1.714,1.714,0,0,0,1.709-1.709V69.675a1.714,1.714,0,0,0-1.709-1.709H26.222a1.714,1.714,0,0,0-1.709,1.709v6.837A1.714,1.714,0,0,0,26.222,78.222ZM15.966,66.256h5.128A1.714,1.714,0,0,0,22.8,64.547V57.709A1.714,1.714,0,0,0,21.094,56H15.966a1.714,1.714,0,0,0-1.709,1.709v6.837A1.714,1.714,0,0,0,15.966,66.256Zm8.547-8.547v6.837a1.714,1.714,0,0,0,1.709,1.709H31.35a1.714,1.714,0,0,0,1.709-1.709V57.709A1.714,1.714,0,0,0,31.35,56H26.222A1.714,1.714,0,0,0,24.512,57.709Z" transform="translate(-4 -56)" fill="#0055B8"/>
</svg>
