<svg xmlns="http://www.w3.org/2000/svg" width="37.134" height="33.612" viewBox="0 0 37.134 33.612">
  <path id="Path_7002" data-name="Path 7002" d="M241.328,253.939V243.848H249.4v10.091a2.024,2.024,0,0,0,2.018,2.018h6.054a2.024,2.024,0,0,0,2.018-2.018V239.812h3.431a1,1,0,0,0,.666-1.756l-16.871-15.2a2.033,2.033,0,0,0-2.7,0l-16.871,15.2a1,1,0,0,0,.666,1.756h3.431v14.127a2.024,2.024,0,0,0,2.018,2.018h6.054A2.024,2.024,0,0,0,241.328,253.939Z" transform="translate(-226.802 -222.345)" fill="#0055b8"/>
</svg>
