<svg xmlns="http://www.w3.org/2000/svg" width="26.984" height="22.222" viewBox="0 0 26.984 22.222">
  <path id="Path_6973" data-name="Path 6973" d="M508.587,14.285h3.175a1.592,1.592,0,0,0,1.587-1.587V9.524a1.592,1.592,0,0,0-1.587-1.587h-3.175A1.592,1.592,0,0,0,507,9.524V12.7A1.592,1.592,0,0,0,508.587,14.285Zm0,7.936h3.175a1.592,1.592,0,0,0,1.587-1.587V17.46a1.592,1.592,0,0,0-1.587-1.587h-3.175A1.592,1.592,0,0,0,507,17.46v3.175A1.592,1.592,0,0,0,508.587,22.222Zm0-15.873h3.175a1.592,1.592,0,0,0,1.587-1.587V1.587A1.592,1.592,0,0,0,511.762,0h-3.175A1.592,1.592,0,0,0,507,1.587V4.762A1.592,1.592,0,0,0,508.587,6.349Zm7.936,7.936H532.4a1.592,1.592,0,0,0,1.587-1.587V9.524A1.592,1.592,0,0,0,532.4,7.936H516.524a1.592,1.592,0,0,0-1.587,1.587V12.7A1.592,1.592,0,0,0,516.524,14.285Zm0,7.936H532.4a1.592,1.592,0,0,0,1.587-1.587V17.46a1.592,1.592,0,0,0-1.587-1.587H516.524a1.592,1.592,0,0,0-1.587,1.587v3.175A1.592,1.592,0,0,0,516.524,22.222ZM514.936,1.587V4.762a1.592,1.592,0,0,0,1.587,1.587H532.4a1.592,1.592,0,0,0,1.587-1.587V1.587A1.592,1.592,0,0,0,532.4,0H516.524A1.592,1.592,0,0,0,514.936,1.587Z" transform="translate(-507)" fill="#0055B8"/>
</svg>
