<svg xmlns="http://www.w3.org/2000/svg" width="204.629" height="31.166" viewBox="0 0 204.629 31.166">
  <g id="Group_2120" data-name="Group 2120" transform="translate(-93.747 -118.299)">
    <g id="Group_308" data-name="Group 308" transform="translate(93.747 118.556)">
      <path id="Path_5805" data-name="Path 5805" d="M104.329,149.289v-27.02c-4.154,0-5.64,1.4-5.64,4.153,0,2.317,1.049,3.584,3.847,3.584l.043.219c0,1.662-1.355,2.929-3.935,2.929-2.4,0-4.9-2.012-4.9-6.208,0-5.509,4.373-8.35,10.582-8.35h13.116v3.083a1.42,1.42,0,0,1-1.42,1.419h-6.013v8.613h7.083v2.646a1.419,1.419,0,0,1-1.419,1.419h-5.663v13.511Z" transform="translate(-93.747 -118.597)" fill="#0045ab"/>
    </g>
    <g id="Group_309" data-name="Group 309" transform="translate(206.937 118.37)">
      <path id="Path_5806" data-name="Path 5806" d="M238.692,149.215a3.839,3.839,0,0,1-3.048-3.222h-.173a4.617,4.617,0,0,1-4.573,3.484c-4.095,0-5.88-2.788-5.88-7.8V126.874c0-6.055,3.135-8.493,8.056-8.493,5.183,0,7.839,2.308,7.839,6.576v.263a2,2,0,0,1-2,2h-3.658v-2.178c0-1.786-.784-2.439-2.221-2.439-1.481,0-2.351,1.219-2.351,4.182v15.155c0,2.264.957,3.309,2.221,3.309a2.154,2.154,0,0,0,2.351-2.177v-6.358h-2.744v-4.05h8.4v16.548Z" transform="translate(-225.018 -118.381)" fill="#0045ab"/>
    </g>
    <path id="Path_5807" data-name="Path 5807" d="M125.875,149.25V118.561h5.683V149.25Z" transform="translate(-4.425 -0.036)" fill="#0045ab"/>
    <path id="Path_5808" data-name="Path 5808" d="M171.762,149.25V135.523h-4.546V149.25h-5.683V118.561h5.683v13.028h4.546V118.561h5.684V149.25Z" transform="translate(-9.337 -0.036)" fill="#0045ab"/>
    <path id="Path_5809" data-name="Path 5809" d="M186.537,149.25V118.561h5.682V149.25Z" transform="translate(-12.781 -0.036)" fill="#0045ab"/>
    <path id="Path_5810" data-name="Path 5810" d="M211.566,149.25l-6.6-18.141h-.174V149.25h-5.115V118.561h4.9l5.989,16.175h.175V118.561h5.552V149.25Z" transform="translate(-14.591 -0.036)" fill="#0045ab"/>
    <path id="Path_5811" data-name="Path 5811" d="M257.426,149.25V118.561h5.682v26.186h7.432v4.5Z" transform="translate(-22.545 -0.036)" fill="#0045ab"/>
    <path id="Path_5812" data-name="Path 5812" d="M302.437,149.25l-6.6-18.141h-.174V149.25h-5.115V118.561h4.9l5.988,16.175h.176V118.561h5.551V149.25Z" transform="translate(-27.107 -0.036)" fill="#0045ab"/>
    <path id="Path_5813" data-name="Path 5813" d="M316.109,149.25V118.561H328.83v2.745a1.758,1.758,0,0,1-1.758,1.759h-5.28v8.655h5.238v2.307a1.758,1.758,0,0,1-1.758,1.758h-3.48v8.961H329v4.5Z" transform="translate(-30.628 -0.036)" fill="#0045ab"/>
    <g id="Group_310" data-name="Group 310" transform="translate(129.933 118.299)">
      <path id="Path_5814" data-name="Path 5814" d="M144.233,125.315c0-2.013.7-2.8,2.013-2.8,1.172,0,1.7.841,1.7,2.275v2.439h3.617a1.924,1.924,0,0,0,1.924-1.925v-.556c0-4.232-2.922-6.451-7.071-6.451-5.1,0-7.843,2.3-7.843,7.5,0,7.361,9.676,10.5,9.676,15.825,0,2.439-.786,3.266-2.1,3.266a2.548,2.548,0,0,1-2.773-2.724,9.574,9.574,0,0,1,.942-3.873s-4.962-.936-5.243,3.482c-3,.11-3.69,2.685-3.233,5.06,4.071-1.29,5.034,2.591,10.224,2.591s7.761-2.964,7.761-8.105C153.827,133.986,144.233,131.5,144.233,125.315Z" transform="translate(-135.713 -118.299)" fill="#0045ab"/>
    </g>
    <path id="Path_5815" data-name="Path 5815" d="M277.408,149.25V118.561h5.683V149.25Z" transform="translate(-25.297 -0.036)" fill="#0045ab"/>
  </g>
</svg>
