<svg xmlns="http://www.w3.org/2000/svg" width="310" height="137" viewBox="0 0 310 137">
  <g id="Group_2233" data-name="Group 2233" transform="translate(-278)">
    <path id="Rectangle_1386" data-name="Rectangle 1386" d="M0,0H310a0,0,0,0,1,0,0V115a22,22,0,0,1-22,22H22A22,22,0,0,1,0,115V0A0,0,0,0,1,0,0Z" transform="translate(278)" fill="#0055b8"/>
    <g id="Group_2120" data-name="Group 2120" transform="translate(214.253 -62.059)">
      <g id="Group_308" data-name="Group 308" transform="translate(93.747 118.602)">
        <path id="Path_5805" data-name="Path 5805" d="M106.228,154.8v-31.87c-4.9,0-6.653,1.65-6.653,4.9,0,2.733,1.238,4.228,4.538,4.228l.051.258c0,1.96-1.6,3.455-4.641,3.455-2.837,0-5.777-2.373-5.777-7.323,0-6.5,5.158-9.849,12.481-9.849H121.7v3.637a1.674,1.674,0,0,1-1.675,1.674h-7.092v10.159h8.354v3.121a1.674,1.674,0,0,1-1.674,1.674h-6.68V154.8Z" transform="translate(-93.747 -118.597)" fill="#fff"/>
      </g>
      <g id="Group_309" data-name="Group 309" transform="translate(227.256 118.382)">
        <path id="Path_5806" data-name="Path 5806" d="M241.146,154.75a4.528,4.528,0,0,1-3.6-3.8h-.2a5.446,5.446,0,0,1-5.393,4.109c-4.83,0-6.935-3.288-6.935-9.2V128.4c0-7.142,3.7-10.018,9.5-10.018,6.113,0,9.246,2.723,9.246,7.756v.31a2.363,2.363,0,0,1-2.363,2.363h-4.314v-2.569c0-2.106-.924-2.877-2.62-2.877-1.747,0-2.773,1.438-2.773,4.933v17.876c0,2.671,1.129,3.9,2.62,3.9a2.541,2.541,0,0,0,2.773-2.568v-7.5h-3.236V135.23h9.913V154.75Z" transform="translate(-225.018 -118.381)" fill="#fff"/>
      </g>
      <path id="Path_5807" data-name="Path 5807" d="M125.875,154.759v-36.2h6.7v36.2Z" transform="translate(0.548 0.004)" fill="#fff"/>
      <path id="Path_5808" data-name="Path 5808" d="M173.6,154.759v-16.19h-5.362v16.19h-6.7v-36.2h6.7v15.367H173.6V118.561h6.7v36.2Z" transform="translate(1.156 0.004)" fill="#fff"/>
      <path id="Path_5809" data-name="Path 5809" d="M186.537,154.759v-36.2h6.7v36.2Z" transform="translate(1.582 0.004)" fill="#fff"/>
      <path id="Path_5810" data-name="Path 5810" d="M213.7,154.759l-7.786-21.4h-.205v21.4h-6.033v-36.2h5.774l7.064,19.079h.206V118.561h6.549v36.2Z" transform="translate(1.806 0.004)" fill="#fff"/>
      <path id="Path_5811" data-name="Path 5811" d="M257.426,154.759v-36.2h6.7v30.887h8.766v5.311Z" transform="translate(2.79 0.004)" fill="#fff"/>
      <path id="Path_5812" data-name="Path 5812" d="M304.571,154.759l-7.785-21.4h-.206v21.4h-6.033v-36.2h5.775l7.063,19.079h.207V118.561h6.548v36.2Z" transform="translate(3.355 0.004)" fill="#fff"/>
      <path id="Path_5813" data-name="Path 5813" d="M316.109,154.759v-36.2h15V121.8a2.074,2.074,0,0,1-2.074,2.075h-6.228v10.209h6.179V136.8a2.074,2.074,0,0,1-2.074,2.074h-4.1v10.57h8.508v5.311Z" transform="translate(3.791 0.004)" fill="#fff"/>
      <g id="Group_310" data-name="Group 310" transform="translate(136.429 118.299)">
        <path id="Path_5814" data-name="Path 5814" d="M145.762,126.575c0-2.374.83-3.3,2.374-3.3,1.382,0,2,.992,2,2.683v2.877H154.4a2.269,2.269,0,0,0,2.269-2.27v-.656c0-4.992-3.447-7.61-8.341-7.61-6.016,0-9.251,2.715-9.251,8.845,0,8.683,11.413,12.39,11.413,18.666,0,2.877-.927,3.853-2.471,3.853a3,3,0,0,1-3.271-3.213,11.293,11.293,0,0,1,1.112-4.569s-5.853-1.1-6.185,4.107c-3.544.13-4.352,3.167-3.813,5.968,4.8-1.521,5.938,3.056,12.059,3.056s9.154-3.5,9.154-9.56C157.079,136.8,145.762,133.875,145.762,126.575Z" transform="translate(-135.713 -118.299)" fill="#fff"/>
      </g>
      <path id="Path_5815" data-name="Path 5815" d="M277.408,154.759v-36.2h6.7v36.2Z" transform="translate(3.131 0.004)" fill="#fff"/>
    </g>
  </g>
</svg>
