<svg xmlns="http://www.w3.org/2000/svg" width="26.393" height="30.686" viewBox="0 0 26.393 30.686">
  <g id="online-support" transform="translate(-35.817)">
    <g id="Group_2612" data-name="Group 2612" transform="translate(35.817)">
      <path id="Path_7393" data-name="Path 7393" d="M62.072,27.189c-.829-2.448-1.86-5.553-5.866-5.553H54.036a8.129,8.129,0,0,0,1.7-1.8h.471a4.5,4.5,0,0,0,4.5-4.5v-3.6a11.688,11.688,0,1,0-23.373.152c0,1.98,0,1.26,0,3.444a4.5,4.5,0,0,0,4.5,4.5h.471a8.129,8.129,0,0,0,1.7,1.8H41.821c-4.006,0-5.038,3.105-5.866,5.552a2.686,2.686,0,0,0,2.581,3.5H59.491A2.686,2.686,0,0,0,62.072,27.189ZM41.013,10.848h-.99a2.659,2.659,0,0,0-.822.142A9.854,9.854,0,0,1,58.865,11,2.661,2.661,0,0,0,58,10.848h-.99a8.039,8.039,0,0,0-16,0Zm8,17.44-3.6-4.854H52.61Zm0-6.652a6.3,6.3,0,0,1-6.293-6.293v-.9h2.7a4.478,4.478,0,0,0,3.6-1.826,4.478,4.478,0,0,0,3.6,1.826h2.7v.9a6.22,6.22,0,0,1-.631,2.7H50.812a.9.9,0,1,0,0,1.792H53.4A6.272,6.272,0,0,1,49.013,21.636Z" transform="translate(-35.817)" fill="#0055b8"/>
    </g>
  </g>
</svg>
