<svg xmlns="http://www.w3.org/2000/svg" width="28.821" height="33.746" viewBox="0 0 28.821 33.746">
  <g id="Group_2329" data-name="Group 2329" transform="translate(-2422.69 -875.021)">
    <path id="Path_5794" data-name="Path 5794" d="M2437.365,875.021a15.608,15.608,0,0,1,1.675,1.135,2.477,2.477,0,0,0,2.55.588,7.219,7.219,0,0,1,1.384-.279,1.279,1.279,0,0,1,1.5.86c.223.488.412.992.587,1.5a2.085,2.085,0,0,0,1.479,1.413c.4.114.8.246,1.188.387a1.591,1.591,0,0,1,1.208,2.133c-.074.377-.143.755-.236,1.127a2.315,2.315,0,0,0,.465,2.069c.424.558.831,1.132,1.209,1.722a1.31,1.31,0,0,1-.107,1.571c-.316.434-.654.855-1.007,1.26a2.164,2.164,0,0,0-.508,2.046,12.239,12.239,0,0,1,.284,1.585,1.371,1.371,0,0,1-.98,1.591c-.342.141-.7.253-1.066.386.066.12.121.224.18.325l4.071,7c.044.076.09.151.131.228.314.594.1.986-.579,1.024-.9.05-1.8.085-2.7.124a2.377,2.377,0,0,0-2.026,1.153c-.48.761-.954,1.526-1.438,2.285-.405.635-.871.63-1.251-.022q-2.125-3.638-4.239-7.283c-.07-.121-.147-.238-.241-.39-.138.1-.252.18-.36.267a1.866,1.866,0,0,1-2.729.073c-.547-.4-.474-.392-.812.191q-2.048,3.53-4.092,7.063c-.473.817-.9.821-1.405.014q-.677-1.072-1.354-2.143a2.356,2.356,0,0,0-2.022-1.153c-.889-.03-1.777-.077-2.666-.117-.73-.033-.962-.437-.6-1.074.995-1.732,2-3.457,3-5.185q.586-1.011,1.17-2.023c.191-.331.168-.366-.2-.5a9.212,9.212,0,0,1-1-.415,1.29,1.29,0,0,1-.685-1.441c.069-.543.175-1.083.3-1.616a2.133,2.133,0,0,0-.514-1.985c-.331-.381-.645-.777-.957-1.174a1.522,1.522,0,0,1-.049-1.949c.321-.471.669-.926,1.035-1.363a2.225,2.225,0,0,0,.506-2.112,10.109,10.109,0,0,1-.281-1.519,1.343,1.343,0,0,1,.943-1.58,13.349,13.349,0,0,1,1.458-.51,2.151,2.151,0,0,0,1.537-1.486c.119-.364.256-.724.394-1.081a1.57,1.57,0,0,1,2.173-1.163c.481.108.962.22,1.445.323a1.458,1.458,0,0,0,1.256-.306c.671-.507,1.391-.948,2.1-1.41a2.316,2.316,0,0,1,.353-.157Zm-.272,23.092a9.871,9.871,0,1,0-9.863-9.553A9.832,9.832,0,0,0,2437.093,898.113Z" fill="#fcdc3e"/>
    <path id="Path_5795" data-name="Path 5795" d="M2492.349,926.1a8.344,8.344,0,1,1-8.713-8.4A8.4,8.4,0,0,1,2492.349,926.1Zm-11.758,4.4c-.008.564.255.762.678.565.576-.269,1.131-.583,1.7-.872a2.3,2.3,0,0,1,2.208,0c.547.28,1.082.584,1.639.842a.636.636,0,0,0,.542.011.7.7,0,0,0,.174-.546c-.069-.61-.187-1.214-.288-1.82a2.282,2.282,0,0,1,.69-2.1c.42-.418.863-.816,1.262-1.253a.724.724,0,0,0,.2-.568c-.052-.153-.313-.289-.506-.332a10.816,10.816,0,0,0-1.4-.21,2.543,2.543,0,0,1-2.283-1.618,12.158,12.158,0,0,0-.663-1.323c-.1-.171-.312-.4-.462-.388a.784.784,0,0,0-.5.391c-.283.494-.514,1.018-.767,1.529a2.324,2.324,0,0,1-1.855,1.353c-.565.079-1.133.146-1.691.263-.2.043-.483.18-.536.338a.77.77,0,0,0,.23.589c.392.429.827.818,1.241,1.228a2.322,2.322,0,0,1,.681,2.164C2480.782,929.365,2480.679,929.981,2480.591,930.5Z" transform="translate(-46.922 -37.799)" fill="#fcdc3e"/>
  </g>
</svg>
