<svg xmlns="http://www.w3.org/2000/svg" width="33.377" height="33.377" viewBox="0 0 33.377 33.377">
  <g id="quality" transform="translate(0)">
    <path id="Path_7394" data-name="Path 7394" d="M31.976,9.833,28.569,7.794,27.8,4.616A2.928,2.928,0,0,0,24.723,2.38l-3.9.3L18.591.7a2.923,2.923,0,0,0-3.8,0L12.553,2.682l-3.9-.3A2.912,2.912,0,0,0,5.611,4.5L4.483,8.006,1.4,9.832A2.921,2.921,0,0,0,.225,13.451l1.33,3.224L.226,19.9A2.919,2.919,0,0,0,1.4,23.516l3.4,2.024.771,3.192A2.928,2.928,0,0,0,8.654,30.97l3.857-.3,2.276,2a2.92,2.92,0,0,0,3.8,0l2.276-2,3.857.3A2.906,2.906,0,0,0,27.8,28.733l.768-3.178,3.408-2.039A2.922,2.922,0,0,0,33.152,19.9l-1.33-3.223,1.331-3.225a2.921,2.921,0,0,0-1.176-3.617ZM16.688,27.445A10.756,10.756,0,1,1,27.445,16.689,10.769,10.769,0,0,1,16.688,27.445Z" transform="translate(0)" fill="#0055b8"/>
    <path id="Path_7395" data-name="Path 7395" d="M129.8,121a8.8,8.8,0,1,0,8.8,8.8A8.81,8.81,0,0,0,129.8,121Zm5.581,6.558-5.867,5.867a.977.977,0,0,1-1.383,0l-3.911-3.911a.978.978,0,0,1,1.383-1.383l3.22,3.22L134,126.176a.978.978,0,1,1,1.383,1.383Z" transform="translate(-113.112 -113.112)" fill="#0055b8"/>
  </g>
</svg>
