<svg xmlns="http://www.w3.org/2000/svg" width="1976.99" height="5.946" viewBox="0 0 1976.99 5.946">
  <g id="Group_3078" data-name="Group 3078" transform="translate(-605.006 -6066.877)">
    <g id="Group_2129" data-name="Group 2129" transform="translate(605.006 6066.877)">
      <g id="Group_2127" data-name="Group 2127" transform="translate(494.006 0)">
        <g id="Group_2124" data-name="Group 2124" transform="translate(0 0)">
          <path id="Path_5818" data-name="Path 5818" d="M1618.615,85.443a8.579,8.579,0,0,0-5.269,1.659,11.51,11.51,0,0,1-13.03,0,9.189,9.189,0,0,0-10.534,0,11.525,11.525,0,0,1-13.039,0,8.581,8.581,0,0,0-5.269-1.659,1.133,1.133,0,1,1,0-2.266,10.912,10.912,0,0,1,6.519,2.017,9.185,9.185,0,0,0,10.538,0,11.519,11.519,0,0,1,13.035,0,9.181,9.181,0,0,0,10.529,0,10.866,10.866,0,0,1,6.519-2.021,1.133,1.133,0,1,1,0,2.266Z" transform="translate(-1453.063 -83.177)" fill="#00b2e3"/>
          <path id="Path_5819" data-name="Path 5819" d="M1608.555,85.443a8.583,8.583,0,0,0-5.27,1.659,11.511,11.511,0,0,1-13.03,0,9.188,9.188,0,0,0-10.533,0,11.525,11.525,0,0,1-13.039,0,8.582,8.582,0,0,0-5.269-1.659,1.133,1.133,0,1,1,0-2.266,10.9,10.9,0,0,1,6.519,2.017,9.186,9.186,0,0,0,10.539,0,11.518,11.518,0,0,1,13.034,0,9.18,9.18,0,0,0,10.528,0,10.883,10.883,0,0,1,6.521-2.021,1.133,1.133,0,1,1,0,2.266Z" transform="translate(-1490.291 -83.177)" fill="#00b2e3"/>
          <path id="Path_5820" data-name="Path 5820" d="M1598.7,85.443a8.566,8.566,0,0,0-5.265,1.659,11.518,11.518,0,0,1-13.035,0,9.188,9.188,0,0,0-10.534,0,11.525,11.525,0,0,1-13.039,0,8.58,8.58,0,0,0-5.269-1.659,1.133,1.133,0,1,1,0-2.266,10.9,10.9,0,0,1,6.52,2.017,9.185,9.185,0,0,0,10.538,0,11.518,11.518,0,0,1,13.035,0,9.189,9.189,0,0,0,10.534,0,10.855,10.855,0,0,1,6.515-2.021,1.133,1.133,0,1,1,0,2.266Z" transform="translate(-1526.751 -83.177)" fill="#00b2e3"/>
          <path id="Path_5821" data-name="Path 5821" d="M1593.672,85.443a8.567,8.567,0,0,0-5.265,1.659,11.517,11.517,0,0,1-13.034,0,9.189,9.189,0,0,0-10.534,0,11.524,11.524,0,0,1-13.039,0,8.584,8.584,0,0,0-5.27-1.659,1.133,1.133,0,1,1,0-2.266,10.9,10.9,0,0,1,6.52,2.017,9.186,9.186,0,0,0,10.539,0,11.517,11.517,0,0,1,13.034,0,9.19,9.19,0,0,0,10.535,0,10.85,10.85,0,0,1,6.515-2.021,1.133,1.133,0,1,1,0,2.266Z" transform="translate(-1545.369 -83.177)" fill="#00b2e3"/>
        </g>
        <g id="Group_2125" data-name="Group 2125" transform="translate(164.523 0)">
          <path id="Path_5818-2" data-name="Path 5818" d="M1618.615,85.443a8.579,8.579,0,0,0-5.269,1.659,11.51,11.51,0,0,1-13.03,0,9.189,9.189,0,0,0-10.534,0,11.525,11.525,0,0,1-13.039,0,8.581,8.581,0,0,0-5.269-1.659,1.133,1.133,0,1,1,0-2.266,10.912,10.912,0,0,1,6.519,2.017,9.185,9.185,0,0,0,10.538,0,11.519,11.519,0,0,1,13.035,0,9.181,9.181,0,0,0,10.529,0,10.866,10.866,0,0,1,6.519-2.021,1.133,1.133,0,1,1,0,2.266Z" transform="translate(-1453.063 -83.177)" fill="#00b2e3"/>
          <path id="Path_5819-2" data-name="Path 5819" d="M1608.555,85.443a8.583,8.583,0,0,0-5.27,1.659,11.511,11.511,0,0,1-13.03,0,9.188,9.188,0,0,0-10.533,0,11.525,11.525,0,0,1-13.039,0,8.582,8.582,0,0,0-5.269-1.659,1.133,1.133,0,1,1,0-2.266,10.9,10.9,0,0,1,6.519,2.017,9.186,9.186,0,0,0,10.539,0,11.518,11.518,0,0,1,13.034,0,9.18,9.18,0,0,0,10.528,0,10.883,10.883,0,0,1,6.521-2.021,1.133,1.133,0,1,1,0,2.266Z" transform="translate(-1490.291 -83.177)" fill="#00b2e3"/>
          <path id="Path_5820-2" data-name="Path 5820" d="M1598.7,85.443a8.566,8.566,0,0,0-5.265,1.659,11.518,11.518,0,0,1-13.035,0,9.188,9.188,0,0,0-10.534,0,11.525,11.525,0,0,1-13.039,0,8.58,8.58,0,0,0-5.269-1.659,1.133,1.133,0,1,1,0-2.266,10.9,10.9,0,0,1,6.52,2.017,9.185,9.185,0,0,0,10.538,0,11.518,11.518,0,0,1,13.035,0,9.189,9.189,0,0,0,10.534,0,10.855,10.855,0,0,1,6.515-2.021,1.133,1.133,0,1,1,0,2.266Z" transform="translate(-1526.751 -83.177)" fill="#00b2e3"/>
          <path id="Path_5821-2" data-name="Path 5821" d="M1593.672,85.443a8.567,8.567,0,0,0-5.265,1.659,11.517,11.517,0,0,1-13.034,0,9.189,9.189,0,0,0-10.534,0,11.524,11.524,0,0,1-13.039,0,8.584,8.584,0,0,0-5.27-1.659,1.133,1.133,0,1,1,0-2.266,10.9,10.9,0,0,1,6.52,2.017,9.186,9.186,0,0,0,10.539,0,11.517,11.517,0,0,1,13.034,0,9.19,9.19,0,0,0,10.535,0,10.85,10.85,0,0,1,6.515-2.021,1.133,1.133,0,1,1,0,2.266Z" transform="translate(-1545.369 -83.177)" fill="#00b2e3"/>
        </g>
        <g id="Group_2126" data-name="Group 2126" transform="translate(328.9 0)">
          <path id="Path_5818-3" data-name="Path 5818" d="M1618.615,85.443a8.579,8.579,0,0,0-5.269,1.659,11.51,11.51,0,0,1-13.03,0,9.189,9.189,0,0,0-10.534,0,11.525,11.525,0,0,1-13.039,0,8.581,8.581,0,0,0-5.269-1.659,1.133,1.133,0,1,1,0-2.266,10.912,10.912,0,0,1,6.519,2.017,9.185,9.185,0,0,0,10.538,0,11.519,11.519,0,0,1,13.035,0,9.181,9.181,0,0,0,10.529,0,10.866,10.866,0,0,1,6.519-2.021,1.133,1.133,0,1,1,0,2.266Z" transform="translate(-1453.063 -83.177)" fill="#00b2e3"/>
          <path id="Path_5819-3" data-name="Path 5819" d="M1608.555,85.443a8.583,8.583,0,0,0-5.27,1.659,11.511,11.511,0,0,1-13.03,0,9.188,9.188,0,0,0-10.533,0,11.525,11.525,0,0,1-13.039,0,8.582,8.582,0,0,0-5.269-1.659,1.133,1.133,0,1,1,0-2.266,10.9,10.9,0,0,1,6.519,2.017,9.186,9.186,0,0,0,10.539,0,11.518,11.518,0,0,1,13.034,0,9.18,9.18,0,0,0,10.528,0,10.883,10.883,0,0,1,6.521-2.021,1.133,1.133,0,1,1,0,2.266Z" transform="translate(-1490.291 -83.177)" fill="#00b2e3"/>
          <path id="Path_5820-3" data-name="Path 5820" d="M1598.7,85.443a8.566,8.566,0,0,0-5.265,1.659,11.518,11.518,0,0,1-13.035,0,9.188,9.188,0,0,0-10.534,0,11.525,11.525,0,0,1-13.039,0,8.58,8.58,0,0,0-5.269-1.659,1.133,1.133,0,1,1,0-2.266,10.9,10.9,0,0,1,6.52,2.017,9.185,9.185,0,0,0,10.538,0,11.518,11.518,0,0,1,13.035,0,9.189,9.189,0,0,0,10.534,0,10.855,10.855,0,0,1,6.515-2.021,1.133,1.133,0,1,1,0,2.266Z" transform="translate(-1526.751 -83.177)" fill="#00b2e3"/>
          <path id="Path_5821-3" data-name="Path 5821" d="M1593.672,85.443a8.567,8.567,0,0,0-5.265,1.659,11.517,11.517,0,0,1-13.034,0,9.189,9.189,0,0,0-10.534,0,11.524,11.524,0,0,1-13.039,0,8.584,8.584,0,0,0-5.27-1.659,1.133,1.133,0,1,1,0-2.266,10.9,10.9,0,0,1,6.52,2.017,9.186,9.186,0,0,0,10.539,0,11.517,11.517,0,0,1,13.034,0,9.19,9.19,0,0,0,10.535,0,10.85,10.85,0,0,1,6.515-2.021,1.133,1.133,0,1,1,0,2.266Z" transform="translate(-1545.369 -83.177)" fill="#00b2e3"/>
        </g>
      </g>
      <g id="Group_2128" data-name="Group 2128" transform="translate(0 0)">
        <g id="Group_2124-2" data-name="Group 2124" transform="translate(0 0)">
          <path id="Path_5818-4" data-name="Path 5818" d="M1618.615,85.443a8.579,8.579,0,0,0-5.269,1.659,11.51,11.51,0,0,1-13.03,0,9.189,9.189,0,0,0-10.534,0,11.525,11.525,0,0,1-13.039,0,8.581,8.581,0,0,0-5.269-1.659,1.133,1.133,0,1,1,0-2.266,10.912,10.912,0,0,1,6.519,2.017,9.185,9.185,0,0,0,10.538,0,11.519,11.519,0,0,1,13.035,0,9.181,9.181,0,0,0,10.529,0,10.866,10.866,0,0,1,6.519-2.021,1.133,1.133,0,1,1,0,2.266Z" transform="translate(-1453.063 -83.177)" fill="#00b2e3"/>
          <path id="Path_5819-4" data-name="Path 5819" d="M1608.555,85.443a8.583,8.583,0,0,0-5.27,1.659,11.511,11.511,0,0,1-13.03,0,9.188,9.188,0,0,0-10.533,0,11.525,11.525,0,0,1-13.039,0,8.582,8.582,0,0,0-5.269-1.659,1.133,1.133,0,1,1,0-2.266,10.9,10.9,0,0,1,6.519,2.017,9.186,9.186,0,0,0,10.539,0,11.518,11.518,0,0,1,13.034,0,9.18,9.18,0,0,0,10.528,0,10.883,10.883,0,0,1,6.521-2.021,1.133,1.133,0,1,1,0,2.266Z" transform="translate(-1490.291 -83.177)" fill="#00b2e3"/>
          <path id="Path_5820-4" data-name="Path 5820" d="M1598.7,85.443a8.566,8.566,0,0,0-5.265,1.659,11.518,11.518,0,0,1-13.035,0,9.188,9.188,0,0,0-10.534,0,11.525,11.525,0,0,1-13.039,0,8.58,8.58,0,0,0-5.269-1.659,1.133,1.133,0,1,1,0-2.266,10.9,10.9,0,0,1,6.52,2.017,9.185,9.185,0,0,0,10.538,0,11.518,11.518,0,0,1,13.035,0,9.189,9.189,0,0,0,10.534,0,10.855,10.855,0,0,1,6.515-2.021,1.133,1.133,0,1,1,0,2.266Z" transform="translate(-1526.751 -83.177)" fill="#00b2e3"/>
          <path id="Path_5821-4" data-name="Path 5821" d="M1593.672,85.443a8.567,8.567,0,0,0-5.265,1.659,11.517,11.517,0,0,1-13.034,0,9.189,9.189,0,0,0-10.534,0,11.524,11.524,0,0,1-13.039,0,8.584,8.584,0,0,0-5.27-1.659,1.133,1.133,0,1,1,0-2.266,10.9,10.9,0,0,1,6.52,2.017,9.186,9.186,0,0,0,10.539,0,11.517,11.517,0,0,1,13.034,0,9.19,9.19,0,0,0,10.535,0,10.85,10.85,0,0,1,6.515-2.021,1.133,1.133,0,1,1,0,2.266Z" transform="translate(-1545.369 -83.177)" fill="#00b2e3"/>
        </g>
        <g id="Group_2125-2" data-name="Group 2125" transform="translate(164.523 0)">
          <path id="Path_5818-5" data-name="Path 5818" d="M1618.615,85.443a8.579,8.579,0,0,0-5.269,1.659,11.51,11.51,0,0,1-13.03,0,9.189,9.189,0,0,0-10.534,0,11.525,11.525,0,0,1-13.039,0,8.581,8.581,0,0,0-5.269-1.659,1.133,1.133,0,1,1,0-2.266,10.912,10.912,0,0,1,6.519,2.017,9.185,9.185,0,0,0,10.538,0,11.519,11.519,0,0,1,13.035,0,9.181,9.181,0,0,0,10.529,0,10.866,10.866,0,0,1,6.519-2.021,1.133,1.133,0,1,1,0,2.266Z" transform="translate(-1453.063 -83.177)" fill="#00b2e3"/>
          <path id="Path_5819-5" data-name="Path 5819" d="M1608.555,85.443a8.583,8.583,0,0,0-5.27,1.659,11.511,11.511,0,0,1-13.03,0,9.188,9.188,0,0,0-10.533,0,11.525,11.525,0,0,1-13.039,0,8.582,8.582,0,0,0-5.269-1.659,1.133,1.133,0,1,1,0-2.266,10.9,10.9,0,0,1,6.519,2.017,9.186,9.186,0,0,0,10.539,0,11.518,11.518,0,0,1,13.034,0,9.18,9.18,0,0,0,10.528,0,10.883,10.883,0,0,1,6.521-2.021,1.133,1.133,0,1,1,0,2.266Z" transform="translate(-1490.291 -83.177)" fill="#00b2e3"/>
          <path id="Path_5820-5" data-name="Path 5820" d="M1598.7,85.443a8.566,8.566,0,0,0-5.265,1.659,11.518,11.518,0,0,1-13.035,0,9.188,9.188,0,0,0-10.534,0,11.525,11.525,0,0,1-13.039,0,8.58,8.58,0,0,0-5.269-1.659,1.133,1.133,0,1,1,0-2.266,10.9,10.9,0,0,1,6.52,2.017,9.185,9.185,0,0,0,10.538,0,11.518,11.518,0,0,1,13.035,0,9.189,9.189,0,0,0,10.534,0,10.855,10.855,0,0,1,6.515-2.021,1.133,1.133,0,1,1,0,2.266Z" transform="translate(-1526.751 -83.177)" fill="#00b2e3"/>
          <path id="Path_5821-5" data-name="Path 5821" d="M1593.672,85.443a8.567,8.567,0,0,0-5.265,1.659,11.517,11.517,0,0,1-13.034,0,9.189,9.189,0,0,0-10.534,0,11.524,11.524,0,0,1-13.039,0,8.584,8.584,0,0,0-5.27-1.659,1.133,1.133,0,1,1,0-2.266,10.9,10.9,0,0,1,6.52,2.017,9.186,9.186,0,0,0,10.539,0,11.517,11.517,0,0,1,13.034,0,9.19,9.19,0,0,0,10.535,0,10.85,10.85,0,0,1,6.515-2.021,1.133,1.133,0,1,1,0,2.266Z" transform="translate(-1545.369 -83.177)" fill="#00b2e3"/>
        </g>
        <g id="Group_2126-2" data-name="Group 2126" transform="translate(328.9 0)">
          <path id="Path_5818-6" data-name="Path 5818" d="M1618.615,85.443a8.579,8.579,0,0,0-5.269,1.659,11.51,11.51,0,0,1-13.03,0,9.189,9.189,0,0,0-10.534,0,11.525,11.525,0,0,1-13.039,0,8.581,8.581,0,0,0-5.269-1.659,1.133,1.133,0,1,1,0-2.266,10.912,10.912,0,0,1,6.519,2.017,9.185,9.185,0,0,0,10.538,0,11.519,11.519,0,0,1,13.035,0,9.181,9.181,0,0,0,10.529,0,10.866,10.866,0,0,1,6.519-2.021,1.133,1.133,0,1,1,0,2.266Z" transform="translate(-1453.063 -83.177)" fill="#00b2e3"/>
          <path id="Path_5819-6" data-name="Path 5819" d="M1608.555,85.443a8.583,8.583,0,0,0-5.27,1.659,11.511,11.511,0,0,1-13.03,0,9.188,9.188,0,0,0-10.533,0,11.525,11.525,0,0,1-13.039,0,8.582,8.582,0,0,0-5.269-1.659,1.133,1.133,0,1,1,0-2.266,10.9,10.9,0,0,1,6.519,2.017,9.186,9.186,0,0,0,10.539,0,11.518,11.518,0,0,1,13.034,0,9.18,9.18,0,0,0,10.528,0,10.883,10.883,0,0,1,6.521-2.021,1.133,1.133,0,1,1,0,2.266Z" transform="translate(-1490.291 -83.177)" fill="#00b2e3"/>
          <path id="Path_5820-6" data-name="Path 5820" d="M1598.7,85.443a8.566,8.566,0,0,0-5.265,1.659,11.518,11.518,0,0,1-13.035,0,9.188,9.188,0,0,0-10.534,0,11.525,11.525,0,0,1-13.039,0,8.58,8.58,0,0,0-5.269-1.659,1.133,1.133,0,1,1,0-2.266,10.9,10.9,0,0,1,6.52,2.017,9.185,9.185,0,0,0,10.538,0,11.518,11.518,0,0,1,13.035,0,9.189,9.189,0,0,0,10.534,0,10.855,10.855,0,0,1,6.515-2.021,1.133,1.133,0,1,1,0,2.266Z" transform="translate(-1526.751 -83.177)" fill="#00b2e3"/>
          <path id="Path_5821-6" data-name="Path 5821" d="M1593.672,85.443a8.567,8.567,0,0,0-5.265,1.659,11.517,11.517,0,0,1-13.034,0,9.189,9.189,0,0,0-10.534,0,11.524,11.524,0,0,1-13.039,0,8.584,8.584,0,0,0-5.27-1.659,1.133,1.133,0,1,1,0-2.266,10.9,10.9,0,0,1,6.52,2.017,9.186,9.186,0,0,0,10.539,0,11.517,11.517,0,0,1,13.034,0,9.19,9.19,0,0,0,10.535,0,10.85,10.85,0,0,1,6.515-2.021,1.133,1.133,0,1,1,0,2.266Z" transform="translate(-1545.369 -83.177)" fill="#00b2e3"/>
        </g>
      </g>
    </g>
    <g id="Group_2127-2" data-name="Group 2127" transform="translate(2086.387 6066.877)">
      <g id="Group_2124-3" data-name="Group 2124" transform="translate(0 0)">
        <path id="Path_5818-7" data-name="Path 5818" d="M1618.615,85.443a8.579,8.579,0,0,0-5.269,1.659,11.51,11.51,0,0,1-13.03,0,9.189,9.189,0,0,0-10.534,0,11.525,11.525,0,0,1-13.039,0,8.581,8.581,0,0,0-5.269-1.659,1.133,1.133,0,1,1,0-2.266,10.912,10.912,0,0,1,6.519,2.017,9.185,9.185,0,0,0,10.538,0,11.519,11.519,0,0,1,13.035,0,9.181,9.181,0,0,0,10.529,0,10.866,10.866,0,0,1,6.519-2.021,1.133,1.133,0,1,1,0,2.266Z" transform="translate(-1453.063 -83.177)" fill="#00b2e3"/>
        <path id="Path_5819-7" data-name="Path 5819" d="M1608.555,85.443a8.583,8.583,0,0,0-5.27,1.659,11.511,11.511,0,0,1-13.03,0,9.188,9.188,0,0,0-10.533,0,11.525,11.525,0,0,1-13.039,0,8.582,8.582,0,0,0-5.269-1.659,1.133,1.133,0,1,1,0-2.266,10.9,10.9,0,0,1,6.519,2.017,9.186,9.186,0,0,0,10.539,0,11.518,11.518,0,0,1,13.034,0,9.18,9.18,0,0,0,10.528,0,10.883,10.883,0,0,1,6.521-2.021,1.133,1.133,0,1,1,0,2.266Z" transform="translate(-1490.291 -83.177)" fill="#00b2e3"/>
        <path id="Path_5820-7" data-name="Path 5820" d="M1598.7,85.443a8.566,8.566,0,0,0-5.265,1.659,11.518,11.518,0,0,1-13.035,0,9.188,9.188,0,0,0-10.534,0,11.525,11.525,0,0,1-13.039,0,8.58,8.58,0,0,0-5.269-1.659,1.133,1.133,0,1,1,0-2.266,10.9,10.9,0,0,1,6.52,2.017,9.185,9.185,0,0,0,10.538,0,11.518,11.518,0,0,1,13.035,0,9.189,9.189,0,0,0,10.534,0,10.855,10.855,0,0,1,6.515-2.021,1.133,1.133,0,1,1,0,2.266Z" transform="translate(-1526.751 -83.177)" fill="#00b2e3"/>
        <path id="Path_5821-7" data-name="Path 5821" d="M1593.672,85.443a8.567,8.567,0,0,0-5.265,1.659,11.517,11.517,0,0,1-13.034,0,9.189,9.189,0,0,0-10.534,0,11.524,11.524,0,0,1-13.039,0,8.584,8.584,0,0,0-5.27-1.659,1.133,1.133,0,1,1,0-2.266,10.9,10.9,0,0,1,6.52,2.017,9.186,9.186,0,0,0,10.539,0,11.517,11.517,0,0,1,13.034,0,9.19,9.19,0,0,0,10.535,0,10.85,10.85,0,0,1,6.515-2.021,1.133,1.133,0,1,1,0,2.266Z" transform="translate(-1545.369 -83.177)" fill="#00b2e3"/>
      </g>
      <g id="Group_2125-3" data-name="Group 2125" transform="translate(164.523 0)">
        <path id="Path_5818-8" data-name="Path 5818" d="M1618.615,85.443a8.579,8.579,0,0,0-5.269,1.659,11.51,11.51,0,0,1-13.03,0,9.189,9.189,0,0,0-10.534,0,11.525,11.525,0,0,1-13.039,0,8.581,8.581,0,0,0-5.269-1.659,1.133,1.133,0,1,1,0-2.266,10.912,10.912,0,0,1,6.519,2.017,9.185,9.185,0,0,0,10.538,0,11.519,11.519,0,0,1,13.035,0,9.181,9.181,0,0,0,10.529,0,10.866,10.866,0,0,1,6.519-2.021,1.133,1.133,0,1,1,0,2.266Z" transform="translate(-1453.063 -83.177)" fill="#00b2e3"/>
        <path id="Path_5819-8" data-name="Path 5819" d="M1608.555,85.443a8.583,8.583,0,0,0-5.27,1.659,11.511,11.511,0,0,1-13.03,0,9.188,9.188,0,0,0-10.533,0,11.525,11.525,0,0,1-13.039,0,8.582,8.582,0,0,0-5.269-1.659,1.133,1.133,0,1,1,0-2.266,10.9,10.9,0,0,1,6.519,2.017,9.186,9.186,0,0,0,10.539,0,11.518,11.518,0,0,1,13.034,0,9.18,9.18,0,0,0,10.528,0,10.883,10.883,0,0,1,6.521-2.021,1.133,1.133,0,1,1,0,2.266Z" transform="translate(-1490.291 -83.177)" fill="#00b2e3"/>
        <path id="Path_5820-8" data-name="Path 5820" d="M1598.7,85.443a8.566,8.566,0,0,0-5.265,1.659,11.518,11.518,0,0,1-13.035,0,9.188,9.188,0,0,0-10.534,0,11.525,11.525,0,0,1-13.039,0,8.58,8.58,0,0,0-5.269-1.659,1.133,1.133,0,1,1,0-2.266,10.9,10.9,0,0,1,6.52,2.017,9.185,9.185,0,0,0,10.538,0,11.518,11.518,0,0,1,13.035,0,9.189,9.189,0,0,0,10.534,0,10.855,10.855,0,0,1,6.515-2.021,1.133,1.133,0,1,1,0,2.266Z" transform="translate(-1526.751 -83.177)" fill="#00b2e3"/>
        <path id="Path_5821-8" data-name="Path 5821" d="M1593.672,85.443a8.567,8.567,0,0,0-5.265,1.659,11.517,11.517,0,0,1-13.034,0,9.189,9.189,0,0,0-10.534,0,11.524,11.524,0,0,1-13.039,0,8.584,8.584,0,0,0-5.27-1.659,1.133,1.133,0,1,1,0-2.266,10.9,10.9,0,0,1,6.52,2.017,9.186,9.186,0,0,0,10.539,0,11.517,11.517,0,0,1,13.034,0,9.19,9.19,0,0,0,10.535,0,10.85,10.85,0,0,1,6.515-2.021,1.133,1.133,0,1,1,0,2.266Z" transform="translate(-1545.369 -83.177)" fill="#00b2e3"/>
      </g>
      <g id="Group_2126-3" data-name="Group 2126" transform="translate(328.9 0)">
        <path id="Path_5818-9" data-name="Path 5818" d="M1618.615,85.443a8.579,8.579,0,0,0-5.269,1.659,11.51,11.51,0,0,1-13.03,0,9.189,9.189,0,0,0-10.534,0,11.525,11.525,0,0,1-13.039,0,8.581,8.581,0,0,0-5.269-1.659,1.133,1.133,0,1,1,0-2.266,10.912,10.912,0,0,1,6.519,2.017,9.185,9.185,0,0,0,10.538,0,11.519,11.519,0,0,1,13.035,0,9.181,9.181,0,0,0,10.529,0,10.866,10.866,0,0,1,6.519-2.021,1.133,1.133,0,1,1,0,2.266Z" transform="translate(-1453.063 -83.177)" fill="#00b2e3"/>
        <path id="Path_5819-9" data-name="Path 5819" d="M1608.555,85.443a8.583,8.583,0,0,0-5.27,1.659,11.511,11.511,0,0,1-13.03,0,9.188,9.188,0,0,0-10.533,0,11.525,11.525,0,0,1-13.039,0,8.582,8.582,0,0,0-5.269-1.659,1.133,1.133,0,1,1,0-2.266,10.9,10.9,0,0,1,6.519,2.017,9.186,9.186,0,0,0,10.539,0,11.518,11.518,0,0,1,13.034,0,9.18,9.18,0,0,0,10.528,0,10.883,10.883,0,0,1,6.521-2.021,1.133,1.133,0,1,1,0,2.266Z" transform="translate(-1490.291 -83.177)" fill="#00b2e3"/>
        <path id="Path_5820-9" data-name="Path 5820" d="M1598.7,85.443a8.566,8.566,0,0,0-5.265,1.659,11.518,11.518,0,0,1-13.035,0,9.188,9.188,0,0,0-10.534,0,11.525,11.525,0,0,1-13.039,0,8.58,8.58,0,0,0-5.269-1.659,1.133,1.133,0,1,1,0-2.266,10.9,10.9,0,0,1,6.52,2.017,9.185,9.185,0,0,0,10.538,0,11.518,11.518,0,0,1,13.035,0,9.189,9.189,0,0,0,10.534,0,10.855,10.855,0,0,1,6.515-2.021,1.133,1.133,0,1,1,0,2.266Z" transform="translate(-1526.751 -83.177)" fill="#00b2e3"/>
        <path id="Path_5821-9" data-name="Path 5821" d="M1593.672,85.443a8.567,8.567,0,0,0-5.265,1.659,11.517,11.517,0,0,1-13.034,0,9.189,9.189,0,0,0-10.534,0,11.524,11.524,0,0,1-13.039,0,8.584,8.584,0,0,0-5.27-1.659,1.133,1.133,0,1,1,0-2.266,10.9,10.9,0,0,1,6.52,2.017,9.186,9.186,0,0,0,10.539,0,11.517,11.517,0,0,1,13.034,0,9.19,9.19,0,0,0,10.535,0,10.85,10.85,0,0,1,6.515-2.021,1.133,1.133,0,1,1,0,2.266Z" transform="translate(-1545.369 -83.177)" fill="#00b2e3"/>
      </g>
    </g>
    <g id="Group_2128-2" data-name="Group 2128" transform="translate(1592.381 6066.877)">
      <g id="Group_2124-4" data-name="Group 2124" transform="translate(0 0)">
        <path id="Path_5818-10" data-name="Path 5818" d="M1618.615,85.443a8.579,8.579,0,0,0-5.269,1.659,11.51,11.51,0,0,1-13.03,0,9.189,9.189,0,0,0-10.534,0,11.525,11.525,0,0,1-13.039,0,8.581,8.581,0,0,0-5.269-1.659,1.133,1.133,0,1,1,0-2.266,10.912,10.912,0,0,1,6.519,2.017,9.185,9.185,0,0,0,10.538,0,11.519,11.519,0,0,1,13.035,0,9.181,9.181,0,0,0,10.529,0,10.866,10.866,0,0,1,6.519-2.021,1.133,1.133,0,1,1,0,2.266Z" transform="translate(-1453.063 -83.177)" fill="#00b2e3"/>
        <path id="Path_5819-10" data-name="Path 5819" d="M1608.555,85.443a8.583,8.583,0,0,0-5.27,1.659,11.511,11.511,0,0,1-13.03,0,9.188,9.188,0,0,0-10.533,0,11.525,11.525,0,0,1-13.039,0,8.582,8.582,0,0,0-5.269-1.659,1.133,1.133,0,1,1,0-2.266,10.9,10.9,0,0,1,6.519,2.017,9.186,9.186,0,0,0,10.539,0,11.518,11.518,0,0,1,13.034,0,9.18,9.18,0,0,0,10.528,0,10.883,10.883,0,0,1,6.521-2.021,1.133,1.133,0,1,1,0,2.266Z" transform="translate(-1490.291 -83.177)" fill="#00b2e3"/>
        <path id="Path_5820-10" data-name="Path 5820" d="M1598.7,85.443a8.566,8.566,0,0,0-5.265,1.659,11.518,11.518,0,0,1-13.035,0,9.188,9.188,0,0,0-10.534,0,11.525,11.525,0,0,1-13.039,0,8.58,8.58,0,0,0-5.269-1.659,1.133,1.133,0,1,1,0-2.266,10.9,10.9,0,0,1,6.52,2.017,9.185,9.185,0,0,0,10.538,0,11.518,11.518,0,0,1,13.035,0,9.189,9.189,0,0,0,10.534,0,10.855,10.855,0,0,1,6.515-2.021,1.133,1.133,0,1,1,0,2.266Z" transform="translate(-1526.751 -83.177)" fill="#00b2e3"/>
        <path id="Path_5821-10" data-name="Path 5821" d="M1593.672,85.443a8.567,8.567,0,0,0-5.265,1.659,11.517,11.517,0,0,1-13.034,0,9.189,9.189,0,0,0-10.534,0,11.524,11.524,0,0,1-13.039,0,8.584,8.584,0,0,0-5.27-1.659,1.133,1.133,0,1,1,0-2.266,10.9,10.9,0,0,1,6.52,2.017,9.186,9.186,0,0,0,10.539,0,11.517,11.517,0,0,1,13.034,0,9.19,9.19,0,0,0,10.535,0,10.85,10.85,0,0,1,6.515-2.021,1.133,1.133,0,1,1,0,2.266Z" transform="translate(-1545.369 -83.177)" fill="#00b2e3"/>
      </g>
      <g id="Group_2125-4" data-name="Group 2125" transform="translate(164.523 0)">
        <path id="Path_5818-11" data-name="Path 5818" d="M1618.615,85.443a8.579,8.579,0,0,0-5.269,1.659,11.51,11.51,0,0,1-13.03,0,9.189,9.189,0,0,0-10.534,0,11.525,11.525,0,0,1-13.039,0,8.581,8.581,0,0,0-5.269-1.659,1.133,1.133,0,1,1,0-2.266,10.912,10.912,0,0,1,6.519,2.017,9.185,9.185,0,0,0,10.538,0,11.519,11.519,0,0,1,13.035,0,9.181,9.181,0,0,0,10.529,0,10.866,10.866,0,0,1,6.519-2.021,1.133,1.133,0,1,1,0,2.266Z" transform="translate(-1453.063 -83.177)" fill="#00b2e3"/>
        <path id="Path_5819-11" data-name="Path 5819" d="M1608.555,85.443a8.583,8.583,0,0,0-5.27,1.659,11.511,11.511,0,0,1-13.03,0,9.188,9.188,0,0,0-10.533,0,11.525,11.525,0,0,1-13.039,0,8.582,8.582,0,0,0-5.269-1.659,1.133,1.133,0,1,1,0-2.266,10.9,10.9,0,0,1,6.519,2.017,9.186,9.186,0,0,0,10.539,0,11.518,11.518,0,0,1,13.034,0,9.18,9.18,0,0,0,10.528,0,10.883,10.883,0,0,1,6.521-2.021,1.133,1.133,0,1,1,0,2.266Z" transform="translate(-1490.291 -83.177)" fill="#00b2e3"/>
        <path id="Path_5820-11" data-name="Path 5820" d="M1598.7,85.443a8.566,8.566,0,0,0-5.265,1.659,11.518,11.518,0,0,1-13.035,0,9.188,9.188,0,0,0-10.534,0,11.525,11.525,0,0,1-13.039,0,8.58,8.58,0,0,0-5.269-1.659,1.133,1.133,0,1,1,0-2.266,10.9,10.9,0,0,1,6.52,2.017,9.185,9.185,0,0,0,10.538,0,11.518,11.518,0,0,1,13.035,0,9.189,9.189,0,0,0,10.534,0,10.855,10.855,0,0,1,6.515-2.021,1.133,1.133,0,1,1,0,2.266Z" transform="translate(-1526.751 -83.177)" fill="#00b2e3"/>
        <path id="Path_5821-11" data-name="Path 5821" d="M1593.672,85.443a8.567,8.567,0,0,0-5.265,1.659,11.517,11.517,0,0,1-13.034,0,9.189,9.189,0,0,0-10.534,0,11.524,11.524,0,0,1-13.039,0,8.584,8.584,0,0,0-5.27-1.659,1.133,1.133,0,1,1,0-2.266,10.9,10.9,0,0,1,6.52,2.017,9.186,9.186,0,0,0,10.539,0,11.517,11.517,0,0,1,13.034,0,9.19,9.19,0,0,0,10.535,0,10.85,10.85,0,0,1,6.515-2.021,1.133,1.133,0,1,1,0,2.266Z" transform="translate(-1545.369 -83.177)" fill="#00b2e3"/>
      </g>
      <g id="Group_2126-4" data-name="Group 2126" transform="translate(328.9 0)">
        <path id="Path_5818-12" data-name="Path 5818" d="M1618.615,85.443a8.579,8.579,0,0,0-5.269,1.659,11.51,11.51,0,0,1-13.03,0,9.189,9.189,0,0,0-10.534,0,11.525,11.525,0,0,1-13.039,0,8.581,8.581,0,0,0-5.269-1.659,1.133,1.133,0,1,1,0-2.266,10.912,10.912,0,0,1,6.519,2.017,9.185,9.185,0,0,0,10.538,0,11.519,11.519,0,0,1,13.035,0,9.181,9.181,0,0,0,10.529,0,10.866,10.866,0,0,1,6.519-2.021,1.133,1.133,0,1,1,0,2.266Z" transform="translate(-1453.063 -83.177)" fill="#00b2e3"/>
        <path id="Path_5819-12" data-name="Path 5819" d="M1608.555,85.443a8.583,8.583,0,0,0-5.27,1.659,11.511,11.511,0,0,1-13.03,0,9.188,9.188,0,0,0-10.533,0,11.525,11.525,0,0,1-13.039,0,8.582,8.582,0,0,0-5.269-1.659,1.133,1.133,0,1,1,0-2.266,10.9,10.9,0,0,1,6.519,2.017,9.186,9.186,0,0,0,10.539,0,11.518,11.518,0,0,1,13.034,0,9.18,9.18,0,0,0,10.528,0,10.883,10.883,0,0,1,6.521-2.021,1.133,1.133,0,1,1,0,2.266Z" transform="translate(-1490.291 -83.177)" fill="#00b2e3"/>
        <path id="Path_5820-12" data-name="Path 5820" d="M1598.7,85.443a8.566,8.566,0,0,0-5.265,1.659,11.518,11.518,0,0,1-13.035,0,9.188,9.188,0,0,0-10.534,0,11.525,11.525,0,0,1-13.039,0,8.58,8.58,0,0,0-5.269-1.659,1.133,1.133,0,1,1,0-2.266,10.9,10.9,0,0,1,6.52,2.017,9.185,9.185,0,0,0,10.538,0,11.518,11.518,0,0,1,13.035,0,9.189,9.189,0,0,0,10.534,0,10.855,10.855,0,0,1,6.515-2.021,1.133,1.133,0,1,1,0,2.266Z" transform="translate(-1526.751 -83.177)" fill="#00b2e3"/>
        <path id="Path_5821-12" data-name="Path 5821" d="M1593.672,85.443a8.567,8.567,0,0,0-5.265,1.659,11.517,11.517,0,0,1-13.034,0,9.189,9.189,0,0,0-10.534,0,11.524,11.524,0,0,1-13.039,0,8.584,8.584,0,0,0-5.27-1.659,1.133,1.133,0,1,1,0-2.266,10.9,10.9,0,0,1,6.52,2.017,9.186,9.186,0,0,0,10.539,0,11.517,11.517,0,0,1,13.034,0,9.19,9.19,0,0,0,10.535,0,10.85,10.85,0,0,1,6.515-2.021,1.133,1.133,0,1,1,0,2.266Z" transform="translate(-1545.369 -83.177)" fill="#00b2e3"/>
      </g>
    </g>
  </g>
</svg>
