<svg xmlns="http://www.w3.org/2000/svg" width="639.31" height="639.31" viewBox="0 0 639.31 639.31">
  <g id="Group_2140" data-name="Group 2140" transform="translate(-151.954 -306.655)" opacity="0.04">
    <g id="Group_1" data-name="Group 1" transform="translate(175.471 582.09)">
      <path id="Path_2" data-name="Path 2" d="M158.617,358.818l58.283,8.744-1.243,8.3-58.288-8.744Z" transform="translate(-154.84 -358.818)" fill="#0045ab"/>
      <path id="Path_3" data-name="Path 3" d="M157.274,370.76l51.87,2.358.459-10.067,7.047.32-1.3,28.536-7.053-.325.459-10.067L156.9,379.152Z" transform="translate(-156.895 -340.469)" fill="#0045ab"/>
      <path id="Path_4" data-name="Path 4" d="M178.1,381.36c-1.936-.934-4.342-1.483-8.194-1.147-4.769.411-6.023,2.459-5.735,5.809.3,3.43,2.31,5.276,8.253,4.764,11.214-.971,14.7-20.075,29.267-21.334,9.618-.838,14.393,3.644,15.162,12.51.613,7.117-3.046,12.574-10.824,13.246l-6.194.539-.683-7.869,6.108-.528c3.43-.3,5.319-1.894,5.036-5.154-.3-3.435-2.193-4.87-6.882-4.465-13.972,1.211-13.817,19.573-29.715,20.955-9.709.838-15.86-3.014-16.655-12.216-.731-8.456,3.638-13.471,11.422-14.143,5.858-.507,9.6,2.8,9.939,6.727a5.67,5.67,0,0,1-.16,2.038Z" transform="translate(-156.587 -313.149)" fill="#0045ab"/>
      <path id="Path_5" data-name="Path 5" d="M217.635,381.054l2.342,8.066-45.095,13.108c-8.386,2.438-13.38-1.189-15.514-8.53-1.968-6.775.779-11.774,5.217-13.065a7.565,7.565,0,0,1,9.7,5.4,8.769,8.769,0,0,1,.32,2.006l-.32.1a10.016,10.016,0,0,0-6.29-.272,3.028,3.028,0,0,0-2.315,4.081c.731,2.5,2.5,3.478,6.935,2.188Z" transform="translate(-148.977 -265.801)" fill="#0045ab"/>
      <path id="Path_6" data-name="Path 6" d="M219.771,402.373l3.446,7.661-40.523,18.213c-6.434,2.892-15.023,3.254-19.739-7.239s1.248-16.677,7.688-19.573l40.517-18.213,3.447,7.661-41.825,18.8c-3.756,1.691-5.644,4.657-3.852,8.637s5.265,4.54,9.016,2.854Z" transform="translate(-137.967 -253.036)" fill="#0045ab"/>
      <path id="Path_7" data-name="Path 7" d="M183.794,414.571c-2.139.075-4.529.709-7.783,2.79-4.033,2.582-4.193,4.977-2.385,7.8,1.857,2.9,4.5,3.6,9.523.389,9.48-6.066,3.7-24.6,16.01-32.478,8.136-5.2,14.436-3.452,19.232,4.044,3.846,6.018,3.142,12.547-3.436,16.757l-5.234,3.351-4.257-6.653,5.169-3.3c2.9-1.857,3.825-4.145,2.059-6.9-1.856-2.9-4.2-3.3-8.162-.763-11.811,7.56-3.147,23.756-16.591,32.35-8.2,5.249-15.439,4.695-20.416-3.083-4.572-7.149-3.03-13.615,3.553-17.824,4.951-3.169,9.795-1.984,11.923,1.339a5.512,5.512,0,0,1,.8,1.883Z" transform="translate(-122.194 -223.255)" fill="#0045ab"/>
      <path id="Path_8" data-name="Path 8" d="M169.175,439.492l39.744-33.353-6.476-7.72,5.4-4.535,18.352,21.867-5.4,4.529-6.482-7.714-39.739,33.353Z" transform="translate(-103.664 -206.81)" fill="#0045ab"/>
      <path id="Path_9" data-name="Path 9" d="M176.185,451.723l33.049-39.995-7.768-6.418,4.5-5.436,22,18.187-4.492,5.436-7.767-6.418-33.054,39.99Z" transform="translate(-73.277 -180.849)" fill="#0045ab"/>
      <path id="Path_10" data-name="Path 10" d="M197.477,464.25l14.2-23.116-9.517-5.841-14.2,23.11-7.154-4.4,30.856-50.232,7.159,4.4L205.41,430l9.517,5.847,13.406-21.825,7.159,4.4-30.862,50.232Z" transform="translate(-53.246 -163.939)" fill="#0045ab"/>
      <path id="Path_11" data-name="Path 11" d="M207.8,458.336c1.942,1.217,2.31,3.3,1.366,5.457-1.547,3.537-5.639,5.964-12.793,2.833-7-3.068-9.773-8.872-6.375-16.639l18.773-42.849,20.923,9.17-2.833,6.461-13.225-5.8-7.282,16.618,12.462,5.463-2.5,5.692-12.462-5.463-6.129,14c-1.755,4-.491,5.927,1.894,6.973,3.692,1.616,5.879.186,7.869-2.059Z" transform="translate(-19.687 -149.361)" fill="#0045ab"/>
      <path id="Path_12" data-name="Path 12" d="M223.58,473.813l1.238-40.5-.171-.033L211.1,471.54l-9.827-1.792.944-51.561c.032-2.048-.384-3.062-1.952-3.345a2.465,2.465,0,0,0-1.761.277l-.16-.032c.736-4.049,3.82-5.538,7.127-4.929,3.137.571,5.068,2.63,4.828,7.709l-1.792,41.675.165.027,16.143-45.463,7.106,1.3-1.35,48.157.16.032,15.231-45.629,7.768,1.414L233.5,475.616Z" transform="translate(22.791 -136.836)" fill="#0045ab"/>
      <path id="Path_13" data-name="Path 13" d="M235.017,470.776l-2.684-15.5L219.5,455.06l-3.11,15.412-8.226-.139,13.646-58.762,9.736.16,11.7,59.184ZM226.6,421.4h-.171l-5.655,27.469,10.488.171Z" transform="translate(65.336 -130.145)" fill="#0045ab"/>
      <path id="Path_14" data-name="Path 14" d="M234.62,471.878l-2.854-23-13.166-26.3c-.9-1.83-1.44-2.784-2.859-2.6a2.455,2.455,0,0,0-1.6.789l-.165.016c-.507-4.081,1.659-6.381,4.994-6.8,3.254-.4,4.881,1.088,7,5.906l8.792,19.728.171-.021,4.849-27.768,7.666-.949L240.1,447.839l2.86,23.009Z" transform="translate(90.237 -133.166)" fill="#0045ab"/>
      <path id="Path_15" data-name="Path 15" d="M275.445,469.013l-20.08-35.177-.16.064,8.418,39.685-9.32,3.6-26.108-44.454c-1.035-1.761-1.915-2.406-3.4-1.836a2.515,2.515,0,0,0-1.355,1.152l-.16.065c-1.483-3.836.379-6.717,3.51-7.928,2.971-1.147,5.692-.4,8.136,4.055l20.224,36.468.155-.058-9.965-47.186,6.738-2.609,23.985,41.766.155-.059-10.829-46.855,7.362-2.843,12.1,58.517Z" transform="translate(128.606 -150.553)" fill="#0045ab"/>
      <path id="Path_16" data-name="Path 16" d="M274.085,446.076c2.112-.891,4.028.005,5.255,2.011,2.006,3.3,1.643,8.039-5.025,12.1-6.524,3.969-12.867,2.913-17.274-4.331l-24.305-39.942,19.515-11.87,3.66,6.023-12.334,7.506L253,433.064,264.616,426l3.228,5.308-11.614,7.069,7.938,13.049c2.273,3.729,4.572,3.8,6.8,2.449,3.446-2.091,3.526-4.7,2.838-7.618Z" transform="translate(171.855 -162.777)" fill="#0045ab"/>
      <path id="Path_17" data-name="Path 17" d="M268.746,433.984a14.946,14.946,0,0,0,4.1,7.175c3.233,3.526,5.617,3.27,8.093.992,2.534-2.326,2.769-5.047-1.27-9.437-7.613-8.274-24.855.624-34.745-10.125-6.53-7.106-5.9-13.614.645-19.638,5.255-4.828,11.806-5.265,17.093.48l4.2,4.572-5.81,5.34-4.15-4.513c-2.326-2.529-4.737-3.046-7.149-.832-2.534,2.332-2.513,4.706.667,8.168,9.491,10.318,23.921-1.019,34.719,10.723,6.594,7.165,7.3,14.383.5,20.63-6.242,5.74-12.878,5.345-18.16-.4-3.974-4.326-3.654-9.3-.747-11.977a5.672,5.672,0,0,1,1.707-1.109Z" transform="translate(204.796 -183.659)" fill="#0045ab"/>
      <path id="Path_18" data-name="Path 18" d="M292.893,426.9c1.712-1.521,3.814-1.291,5.617.213,2.966,2.481,4.15,7.084-.864,13.076-4.9,5.857-11.246,6.9-17.754,1.456l-35.866-30.019,14.66-17.514,5.41,4.529-9.267,11.075,13.908,11.641,8.728-10.435,4.764,3.99-8.728,10.43,11.721,9.811c3.345,2.8,5.548,2.128,7.223.134,2.588-3.089,1.825-5.591.235-8.131Z" transform="translate(220.799 -205.839)" fill="#0045ab"/>
      <path id="Path_19" data-name="Path 19" d="M306.1,417.2l-14.692-5.618-6.749,10.932,11.646,10.552-4.321,7L248.479,398.3l5.111-8.29,56.837,20.181ZM259.373,399.2l-.091.144,20.7,18.9,5.516-8.936Z" transform="translate(240.102 -223.599)" fill="#0045ab"/>
      <path id="Path_20" data-name="Path 20" d="M307.751,421.81l-55.487-19.947,7.725-21.494,6.642,2.385-4.887,13.593,17.071,6.14,4.6-12.809,5.847,2.1-4.6,12.809,25.922,9.314Z" transform="translate(256.509 -265.399)" fill="#0045ab"/>
      <path id="Path_21" data-name="Path 21" d="M301.786,381.024c9.2,1.915,13.812,7.415,11.72,17.45s-8.5,13.241-17.706,11.326l-28.365-5.9c-8.3-1.728-14.852-6.946-12.627-17.637s10.307-12.868,18.608-11.139Zm-30.734,2.187c-6.087-1.265-9.064.688-9.832,4.391s1.184,6.679,7.271,7.943L298,401.68c5.345,1.109,8.391-1.168,9.09-4.54s-1.184-6.679-6.529-7.789Z" transform="translate(265.638 -290.418)" fill="#0045ab"/>
      <path id="Path_22" data-name="Path 22" d="M300.974,369.208c9.389.5,14.772,5.244,14.223,15.471s-6.4,14.377-15.791,13.871l-28.925-1.542c-8.466-.453-15.727-4.625-15.145-15.524s8.248-14.276,16.708-13.822Zm-30.046,6.8c-6.2-.331-8.856,2.054-9.053,5.826s2.177,6.423,8.381,6.754l30.1,1.606c5.452.293,8.119-2.427,8.3-5.863s-2.176-6.423-7.634-6.711Z" transform="translate(269.678 -320.656)" fill="#0045ab"/>
      <path id="Path_23" data-name="Path 23" d="M315.1,386.673l-58.688,5.708-.96-9.864c-1.2-12.286,4.748-18.859,16.783-20.032l23.911-2.326c11.2-1.088,16.932,5.777,17.9,15.727ZM273.053,370.85c-9.2.891-11.838,3.259-11.07,11.118l.133,1.419,45.65-4.444-.234-2.422c-.566-5.767-3.217-8.717-10.574-8Z" transform="translate(269.676 -353.496)" fill="#0045ab"/>
    </g>
    <g id="Group_2" data-name="Group 2" transform="translate(198.613 332.951)">
      <path id="Path_24" data-name="Path 24" d="M218.07,383.366l-45.879-24.3-4.721,8.909-6.236-3.3L174.6,339.434l6.236,3.3-4.721,8.909L222,375.94Z" transform="translate(-161.233 -193.704)" fill="#0045ab"/>
      <path id="Path_25" data-name="Path 25" d="M224.305,374.462l-21.9-15.988-6.578,9.021,21.9,15.983-4.951,6.781-47.6-34.746,4.951-6.78,20.683,15.1,6.583-9.016-20.683-15.1,4.951-6.781,47.6,34.745Z" transform="translate(-144.171 -221.871)" fill="#0045ab"/>
      <path id="Path_26" data-name="Path 26" d="M218,362.625c1.819-1.4,3.905-1.014,5.591.624,2.774,2.689,3.622,7.368-1.814,12.974-5.319,5.5-11.726,6.066-17.818.166l-33.6-32.558,15.9-16.4,5.068,4.908L181.273,342.71,194.3,355.338l9.469-9.773,4.465,4.327-9.469,9.768L209.745,370.3c3.137,3.041,5.383,2.529,7.2.656,2.806-2.891,2.23-5.436.822-8.088Z" transform="translate(-121.678 -245.756)" fill="#0045ab"/>
      <path id="Path_27" data-name="Path 27" d="M212.046,382.191,178.33,333.848l18.73-13.06,4.038,5.783-11.849,8.258L199.626,349.7l11.155-7.778,3.553,5.1L203.179,354.8l15.754,22.588Z" transform="translate(-87.121 -274.53)" fill="#0045ab"/>
      <path id="Path_28" data-name="Path 28" d="M212.659,374.37,184.027,322.83l7.341-4.081L220,370.294Z" transform="translate(-62.426 -283.369)" fill="#0045ab"/>
      <path id="Path_29" data-name="Path 29" d="M208.779,354.394c-.3,2.123-.091,4.583,1.4,8.146,1.846,4.422,4.177,4.993,7.277,3.7,3.174-1.328,4.327-3.809,2.027-9.309-4.332-10.387-23.58-7.906-29.2-21.387-3.718-8.914-.907-14.815,7.309-18.245,6.588-2.747,12.9-.918,15.9,6.29l2.4,5.73-7.287,3.04-2.358-5.655c-1.328-3.18-3.42-4.492-6.439-3.227-3.18,1.323-3.974,3.564-2.161,7.906,5.394,12.937,22.839,7.212,28.979,21.936,3.745,8.989,1.947,16.015-6.578,19.568-7.826,3.265-13.929.63-16.933-6.578-2.262-5.425-.256-9.992,3.382-11.513a5.63,5.63,0,0,1,1.99-.464Z" transform="translate(-42.329 -294.916)" fill="#0045ab"/>
      <path id="Path_30" data-name="Path 30" d="M228.912,372.434l-6.6-26.316-10.835,2.721,6.6,26.317-8.152,2.043-14.34-57.205,8.146-2.043,6.231,24.855,10.84-2.715-6.231-24.855,8.146-2.043,14.345,57.2Z" transform="translate(-12.32 -307.461)" fill="#0045ab"/>
      <path id="Path_31" data-name="Path 31" d="M211.281,372.046,203.8,313.588l8.327-1.067,7.485,58.459Z" transform="translate(23.269 -310.366)" fill="#0045ab"/>
      <path id="Path_32" data-name="Path 32" d="M232.3,371.2l-16.026-40.155-.171.005.667,40.406-7.383.123-.971-58.976,7.383-.123,14.7,35.892h.165l-.592-36.127,7.885-.128.976,58.971Z" transform="translate(43.304 -312.117)" fill="#0045ab"/>
      <path id="Path_33" data-name="Path 33" d="M239.064,373.273a6.825,6.825,0,0,1-4.252-6.749l-.251-.037a8.345,8.345,0,0,1-9.277,5.233c-7.058-1.062-10.27-6.807-8.877-16.106l4.364-29.064c1.638-10.957,7.762-14.964,16.479-13.657,8.888,1.334,13.012,5.516,11.865,13.156l-1.019,6.807-8.306-1.243.859-5.729c.64-4.236-1.211-6.039-4.455-6.525-3.569-.534-6.124,1.8-7.084,8.189l-4.476,29.811c-.752,5.063,1.045,7.794,4.2,8.269,3.814.571,6.066-1.381,6.514-4.375l2.064-13.78-5.473-.821.912-6.146,13.785,2.07-4.668,31.133Z" transform="translate(76.553 -309.783)" fill="#0045ab"/>
      <path id="Path_34" data-name="Path 34" d="M225.465,370.241l20.518-55.258,7.869,2.924-18.063,48.648,14.014,5.2-2.454,6.61Z" transform="translate(117.199 -299.693)" fill="#0045ab"/>
      <path id="Path_35" data-name="Path 35" d="M230.659,370.427l26.06-52.916,7.538,3.713L238.2,374.14Z" transform="translate(139.714 -288.735)" fill="#0045ab"/>
      <path id="Path_36" data-name="Path 36" d="M252.925,381.579l9.213-42.23-.144-.091-22.081,33.833-6.188-4.044,32.233-49.373,6.188,4.044-7.927,37.951.139.091L284.1,331.522l6.61,4.316-32.233,49.368Z" transform="translate(153.004 -279.359)" fill="#0045ab"/>
      <path id="Path_37" data-name="Path 37" d="M258.658,373.2c1.478,1.75,1.2,3.846-.352,5.617-2.55,2.9-7.18,3.974-13.049-1.184-5.74-5.041-6.631-11.411-1.03-17.786l30.878-35.14,17.162,15.082-4.657,5.3-10.851-9.533-11.971,13.625L275,358.166l-4.1,4.668L260.68,353.85l-10.088,11.486c-2.886,3.281-2.262,5.5-.3,7.218,3.025,2.662,5.537,1.963,8.114.427Z" transform="translate(182.193 -257.525)" fill="#0045ab"/>
      <path id="Path_38" data-name="Path 38" d="M266.669,370.809c1.6,2.8,2.555,5.442-1.051,8.189-3.878,2.95-10.6,3-15.636-3.617-5.692-7.485-3.51-14.745,3.238-19.883l23.526-17.9c8.349-6.364,15.567-5.623,20.955,1.457,5.041,6.62,4.092,12.724-1.926,17.306l-4.876,3.708-4.78-6.279,4.343-3.307c3.073-2.337,3.9-4.983,1.926-7.591-2.038-2.673-4.876-2.94-10.691,1.489l-23.66,18.01c-3.478,2.646-4.561,5.794-2.219,8.872,2.5,3.276,6.386,2.422,10.648-.715Z" transform="translate(209.327 -220.518)" fill="#0045ab"/>
      <path id="Path_39" data-name="Path 39" d="M272.974,381.937c-8.242,4.535-15.316,3.345-20.256-5.633s-2.144-15.588,6.1-20.118L284.2,342.23c7.426-4.092,15.8-4.38,21.062,5.185s.528,16.479-6.9,20.565ZM294.906,360.3c5.447-2.992,6.439-6.412,4.62-9.725s-5.244-4.305-10.691-1.312l-26.413,14.527c-4.791,2.63-5.618,6.343-3.959,9.357s5.239,4.31,10.019,1.68Z" transform="translate(224.751 -193.278)" fill="#0045ab"/>
      <path id="Path_40" data-name="Path 40" d="M256.168,350.105a5.208,5.208,0,1,1-2.865,6.786A5.239,5.239,0,0,1,256.168,350.105Z" transform="translate(236.227 -149.08)" fill="#0045ab"/>
    </g>
    <circle id="Ellipse_1" data-name="Ellipse 1" cx="208.778" cy="208.778" r="208.778" transform="translate(262.831 417.532)" fill="none" stroke="#0045ab" stroke-miterlimit="10" stroke-width="1.312"/>
    <circle id="Ellipse_2" data-name="Ellipse 2" cx="318.999" cy="318.999" r="318.999" transform="translate(152.61 307.311)" fill="none" stroke="#0045ab" stroke-miterlimit="10" stroke-width="1.312"/>
    <path id="Path_41" data-name="Path 41" d="M292.42,342.585v-.021c-50.622.011-86.269,23.191-86.264,68.12.005,34.233,20.336,50.638,39.947,50.638,21.03,0,32.089-10.344,32.089-23.894l-.363-1.782c-22.817,0-31.379-10.339-31.379-29.24-.005-22.428,12.089-33.828,45.8-33.876l.021,181.948c.005,19.931-7.378,29.027-18.144,29.027-10.659,0-20.811-5.4-20.811-22.145,0-16.644,7.666-31.593,7.666-31.593s-40.454-7.671-42.737,28.4c-24.513.9-30.093,21.926-26.4,41.259,33.278-10.467,41.051,21.126,83.5,21.126,42.342,0,63.271-24.124,63.265-66.077l-.011-71.433h31.251a12.182,12.182,0,0,0,12.185-12.19V448.427H338.6l-.011-69.069,62.833-.005a12.192,12.192,0,0,0,12.2-12.2l-.005-24.578Z" transform="translate(165.602 152.815)" fill="#0045ab"/>
  </g>
</svg>
