<svg xmlns="http://www.w3.org/2000/svg" width="33.954" height="31.673" viewBox="0 0 33.954 31.673">
  <g id="Group_3083" data-name="Group 3083" transform="translate(-345.023 -1548)">
    <g id="Group_3082" data-name="Group 3082">
      <path id="Path_6985" data-name="Path 6985" d="M1332.8,1521.714c.623-.337,1.188-.675,1.781-.954.434-.205.75-.079.883.265s-.038.625-.488.785a1.2,1.2,0,1,0,.04,2.233c.361.126.533.367.485.652a.556.556,0,0,1-.807.424c-.528-.24-1.025-.548-1.531-.833a2.229,2.229,0,0,1-.277-.215c-1.569,1.567-3.529,1.757-5.567,1.634a6.205,6.205,0,0,1-2.982-.887,3.814,3.814,0,0,1-.648-.51,1.865,1.865,0,0,1,.007-2.791,4.748,4.748,0,0,1,2.364-1.189,9.158,9.158,0,0,1,4.3.027A4.491,4.491,0,0,1,1332.8,1521.714Zm-4.645-.542c-.609.086-1.225.143-1.827.267a3.564,3.564,0,0,0-1.824.875.728.728,0,0,0,0,1.2,3.338,3.338,0,0,0,.972.609,7.277,7.277,0,0,0,5.328,0,3.525,3.525,0,0,0,1.064-.7.649.649,0,0,0,0-1.023,3.153,3.153,0,0,0-.8-.577A7.32,7.32,0,0,0,1328.154,1521.171Z" transform="translate(-967.293 48.834)" fill="#0055b8"/>
      <path id="Path_6986" data-name="Path 6986" d="M1259.281,1520.788a.547.547,0,0,1,.566-.558.566.566,0,0,1,.557.541.583.583,0,0,1-.556.583A.567.567,0,0,1,1259.281,1520.788Z" transform="translate(-909.159 48.701)" fill="#0055b8"/>
      <path id="Path_6987" data-name="Path 6987" d="M1259.833,1495.828a.566.566,0,0,1-.548-.583.544.544,0,0,1,.583-.537.56.56,0,0,1,.539.557A.581.581,0,0,1,1259.833,1495.828Z" transform="translate(-909.162 71.965)" fill="#0055b8"/>
      <path id="Path_6988" data-name="Path 6988" d="M1522.32,1520.8a.583.583,0,0,1-.581.558.559.559,0,0,1-.541-.588.541.541,0,0,1,.553-.534A.567.567,0,0,1,1522.32,1520.8Z" transform="translate(-1147.885 48.696)" fill="#0055b8"/>
      <path id="Path_6989" data-name="Path 6989" d="M1260.407,1546.292a.579.579,0,0,1-.562.576.56.56,0,0,1-.561-.535.554.554,0,0,1,.536-.589A.572.572,0,0,1,1260.407,1546.292Z" transform="translate(-909.162 25.447)" fill="#0055b8"/>
      <path id="Path_6990" data-name="Path 6990" d="M1521.738,1545.745a.562.562,0,1,1,.012,1.124.562.562,0,0,1-.012-1.124Z" transform="translate(-1147.883 25.445)" fill="#0055b8"/>
      <path id="Path_6991" data-name="Path 6991" d="M1522.314,1495.261a.582.582,0,0,1-.567.572.562.562,0,0,1-.554-.542.54.54,0,0,1,.541-.578A.562.562,0,0,1,1522.314,1495.261Z" transform="translate(-1147.879 71.961)" fill="#0055b8"/>
    </g>
    <g id="Group_3081" data-name="Group 3081">
      <path id="Path_6981" data-name="Path 6981" d="M1201.7,1307.563v-15.775a.336.336,0,0,0,.043-.089,5.875,5.875,0,0,1,2.04-3.5,14.708,14.708,0,0,1,5.456-2.964,29.012,29.012,0,0,1,7.968-1.359,30.917,30.917,0,0,1,10.882,1.358,14.713,14.713,0,0,1,5.434,2.937,5.95,5.95,0,0,1,2.13,4.715c-.055,4.649-.026,9.3-.013,13.949a5.2,5.2,0,0,1-1.11,3.256,10.589,10.589,0,0,1-3.989,3.047,26.027,26.027,0,0,1-9.759,2.311,33.375,33.375,0,0,1-7.691-.392,22.28,22.28,0,0,1-6.954-2.254,10.227,10.227,0,0,1-3.321-2.69A5.974,5.974,0,0,1,1201.7,1307.563Zm16.7-7.884a33.072,33.072,0,0,0,5.314-.4,22.554,22.554,0,0,0,6.524-1.994,9.135,9.135,0,0,0,3.486-2.73,3.574,3.574,0,0,0-.016-4.483,8.067,8.067,0,0,0-2.454-2.143,21.437,21.437,0,0,0-8.028-2.628,31.265,31.265,0,0,0-7.3-.208,25.921,25.921,0,0,0-7.8,1.805,11.385,11.385,0,0,0-3.958,2.538,3.807,3.807,0,0,0,0,5.778,11.53,11.53,0,0,0,4.11,2.6A27.656,27.656,0,0,0,1218.4,1299.679Zm-15.57-.682v.413c0,1.679.023,3.358-.009,5.037a3.748,3.748,0,0,0,1.06,2.7,9.15,9.15,0,0,0,2.816,2,25.17,25.17,0,0,0,8.8,2.257,34.1,34.1,0,0,0,6.978-.062,26.705,26.705,0,0,0,6.687-1.544,11.792,11.792,0,0,0,4-2.349,3.98,3.98,0,0,0,1.362-3.14c-.049-1.644-.012-3.291-.012-4.937v-.365a1.756,1.756,0,0,0-.145.114,10.112,10.112,0,0,1-3.034,2.1,27.147,27.147,0,0,1-9.567,2.3,39.029,39.029,0,0,1-6.816-.055,29.935,29.935,0,0,1-6.7-1.342,13.832,13.832,0,0,1-4.769-2.519C1203.272,1299.423,1203.082,1299.229,1202.833,1299Zm.021-3.514a3.3,3.3,0,0,0,1.126,3.072,9.138,9.138,0,0,0,2.657,1.716,27.069,27.069,0,0,0,9.041,2.115,36.687,36.687,0,0,0,7.8-.19,25.771,25.771,0,0,0,6.776-1.725,9.273,9.273,0,0,0,3.453-2.277,3.091,3.091,0,0,0,.793-2.537c-.251.209-.568.45-.86.719a14.137,14.137,0,0,1-4.781,2.77,28.168,28.168,0,0,1-8.451,1.614,31.705,31.705,0,0,1-9.59-.894C1207.813,1299.084,1204.993,1297.939,1202.854,1295.482Zm.078,12.33a4.419,4.419,0,0,0,.844,1.658,9.638,9.638,0,0,0,3.476,2.589,25.254,25.254,0,0,0,9.367,2.255,30.783,30.783,0,0,0,8.139-.523,20.1,20.1,0,0,0,6.381-2.3,7.5,7.5,0,0,0,2.85-2.656,10.132,10.132,0,0,0,.421-.933,3.23,3.23,0,0,0-.613.5,13.529,13.529,0,0,1-4.6,2.613,29.109,29.109,0,0,1-8.421,1.605,34.284,34.284,0,0,1-9.674-.749C1208.091,1311.171,1205.232,1310.149,1202.932,1307.812Z" transform="translate(-856.681 264.158)" fill="#0055b8"/>
      <path id="Path_6982" data-name="Path 6982" d="M1227.2,1320.975a2.9,2.9,0,0,1,.677-1.709,8.356,8.356,0,0,1,2.874-2.19,20.6,20.6,0,0,1,5.35-1.777.571.571,0,0,1,.7.445.582.582,0,0,1-.495.668c-1.1.3-2.223.563-3.308.926a10.221,10.221,0,0,0-3.774,2.134,4.07,4.07,0,0,0-.384.41,1.481,1.481,0,0,0,.023,2.241,7.729,7.729,0,0,0,2.571,1.832,21.009,21.009,0,0,0,6.523,1.859c.569.076,1.141.12,1.711.184a.564.564,0,1,1-.057,1.124,22.055,22.055,0,0,1-9.719-2.738,7.217,7.217,0,0,1-1.967-1.655A2.911,2.911,0,0,1,1227.2,1320.975Z" transform="translate(-879.923 235.499)" fill="#0055b8"/>
      <path id="Path_6983" data-name="Path 6983" d="M1425.313,1320.922a2.952,2.952,0,0,1-.758,1.824,8.614,8.614,0,0,1-2.812,2.114,21.068,21.068,0,0,1-6.586,1.992c-.72.106-1.446.174-2.17.249a.576.576,0,0,1-.676-.4.512.512,0,0,1,.236-.628.869.869,0,0,1,.376-.1,26.993,26.993,0,0,0,4.7-.773,15.468,15.468,0,0,0,4.536-1.872,7.909,7.909,0,0,0,1.494-1.242,1.446,1.446,0,0,0,.016-2.232,7.938,7.938,0,0,0-2.725-1.949,19.126,19.126,0,0,0-4.452-1.456,3.086,3.086,0,0,1-.387-.088.558.558,0,0,1-.362-.661.544.544,0,0,1,.622-.426,16.773,16.773,0,0,1,7.431,3.108,3.744,3.744,0,0,1,1.491,2.275C1425.3,1320.753,1425.306,1320.852,1425.313,1320.922Z" transform="translate(-1048.612 235.521)" fill="#0055b8"/>
      <path id="Path_6984" data-name="Path 6984" d="M1355.239,1318.35a14.439,14.439,0,0,1-1.784-.013,2.21,2.21,0,0,1-1.868-2.51c.183-1.289.354-2.579.56-3.865a3.162,3.162,0,0,1,6.229-.019c.213,1.317.4,2.64.571,3.963a2.255,2.255,0,0,1-2.25,2.483c-.485.015-.972,0-1.457,0Zm.01-1.087c.463,0,.927.009,1.39,0a1.135,1.135,0,0,0,1.165-1.381q-.25-1.751-.493-3.5a2.053,2.053,0,0,0-4.094-.026c-.165,1.167-.326,2.336-.493,3.5a1.141,1.141,0,0,0,1.2,1.408C1354.367,1317.269,1354.808,1317.263,1355.249,1317.263Z" transform="translate(-993.271 240.92)" fill="#0055b8"/>
      <path id="Path_6992" data-name="Path 6992" d="M1381.759,1373.278c.187,0,.376-.013.562,0a.545.545,0,0,1,.535.525.535.535,0,0,1-.51.582,9.482,9.482,0,0,1-1.255,0,.526.526,0,0,1-.487-.568.543.543,0,0,1,.527-.533C1381.339,1373.265,1381.55,1373.279,1381.759,1373.278Z" transform="translate(-1019.739 182.646)" fill="#0055b8"/>
      <path id="Path_6993" data-name="Path 6993" d="M1388.141,1335.489a.558.558,0,0,1-1.115-.009.558.558,0,1,1,1.115.009Z" transform="translate(-1025.592 217.609)" fill="#0055b8"/>
    </g>
  </g>
</svg>
