<svg xmlns="http://www.w3.org/2000/svg" width="22.674" height="22.69" viewBox="0 0 22.674 22.69">
  <g id="Group_91" data-name="Group 91" transform="translate(-752.606 -406.696)">
    <path id="Path_4718" data-name="Path 4718" d="M769.169,424.818a10.179,10.179,0,1,1-.294-16.077,9.885,9.885,0,0,1,4,6.857,10.056,10.056,0,0,1-2.182,7.689,1.716,1.716,0,0,1,.271.18q1.963,1.955,3.92,3.915a1.149,1.149,0,0,1,.372,1.1,1.129,1.129,0,0,1-1.85.623c-.114-.1-.217-.208-.323-.315q-1.875-1.873-3.748-3.749A1.87,1.87,0,0,1,769.169,424.818Zm1.531-7.925a7.919,7.919,0,1,0-7.929,7.916A7.9,7.9,0,0,0,770.7,416.893Z" transform="translate(0)" fill="#fff"/>
  </g>
</svg>
