<svg xmlns="http://www.w3.org/2000/svg" width="33.689" height="14.342" viewBox="0 0 33.689 14.342">
  <path id="Path_6994" data-name="Path 6994" d="M1701.4,1391.655a1.241,1.241,0,0,1-1.365.842c-.251-.016-.5,0-.81,0v.325c0,.526.007,1.053,0,1.579a1.025,1.025,0,0,1-1,1.059c-.6.023-1.207.024-1.808,0a1.028,1.028,0,0,1-.993-1.064c-.011-.515,0-1.031,0-1.546,0-.107-.01-.214-.016-.333h-8.948c0,.585,0,1.153,0,1.72a1.084,1.084,0,0,1-1.229,1.233c-.482,0-.965.005-1.447,0a1.056,1.056,0,0,1-1.126-1.137c0-.6,0-1.2,0-1.834-.625,0-1.214,0-1.8,0a3.517,3.517,0,0,1-.46-.012.474.474,0,0,1-.45-.51.466.466,0,0,1,.495-.462c.109-.007.219,0,.329,0h19.622v-2.468H1668.7v.851c0,.45.008.9,0,1.349-.005.2.063.286.263.27.087-.007.175,0,.263,0h8.618a2.74,2.74,0,0,1,.361.01.409.409,0,0,1,.4.442.857.857,0,0,1-.315.477c-.09.076-.272.054-.413.055-1.261,0-2.522,0-3.783,0h-.4c0,.584,0,1.139,0,1.695,0,.893-.386,1.276-1.285,1.277-.438,0-.877,0-1.316,0a1.072,1.072,0,0,1-1.2-1.193c0-.579,0-1.158,0-1.779-.329,0-.632,0-.935,0a1.109,1.109,0,0,1-1.24-1.238q0-.954,0-1.908a1.142,1.142,0,0,1,1.069-1.347q0-1.708,0-3.414a1.316,1.316,0,0,1,1.51-1.476,3.634,3.634,0,0,0,2.417-.744,6.211,6.211,0,0,1,7.5.076c.086.066.175.128.263.193.308-.206.6-.416.908-.6a.491.491,0,0,1,.718.127.484.484,0,0,1-.2.7,5.266,5.266,0,0,1-2.061,1.113c-.465.062-.935.094-1.4.113-.411.017-.475.062-.479.479,0,.176,0,.351,0,.526a.646.646,0,0,0,.038.127,8.325,8.325,0,0,0,6.622-3.1l-.621.055c-.4.037-.656-.123-.686-.434s.187-.506.6-.551a6.208,6.208,0,0,1,4.449,1.234c.071.052.14.106.21.158.018.013.038.021.011.006a18.413,18.413,0,0,1,1.808-.963,6.012,6.012,0,0,1,6.117.816,3.24,3.24,0,0,0,1.98.67c.143,0,.285,0,.428,0a1.3,1.3,0,0,1,1.419,1.375c.009,1.171,0,2.342,0,3.541a1.2,1.2,0,0,1,1.069.806Zm-6.206-8.9c-.249-.108-.463-.212-.686-.295-.506-.189-.506-.183-.861.239a9.47,9.47,0,0,1-6.333,3.444c-.4.047-.8.061-1.227.092,0,.46,0,.9,0,1.334,0,.371.1.463.472.464,1.151,0,2.3,0,3.454-.005a.676.676,0,0,0,.382-.134c.631-.492,1.258-.989,1.872-1.5A12.324,12.324,0,0,0,1695.2,1382.753Zm-15.912.352.03-.122c-.378-.177-.749-.372-1.136-.526-.491-.2-.5-.18-.834.224a9.47,9.47,0,0,1-6.35,3.461c-.4.047-.8.06-1.224.091,0,.472,0,.92,0,1.367,0,.3.138.435.441.434,1.15-.006,2.3,0,3.45-.007a.525.525,0,0,0,.3-.1c.745-.575,1.473-1.173,2.226-1.737a1.789,1.789,0,0,0,.8-1.721,1.24,1.24,0,0,1,1.4-1.368C1678.686,1383.108,1678.986,1383.1,1679.286,1383.1Zm8.163,0,.014-.1a3.255,3.255,0,0,0-.331-.2c-.288-.132-.586-.243-.871-.381a.486.486,0,0,0-.686.181,9.411,9.411,0,0,1-6.024,3.49c-.516.081-1.041.1-1.6.15,0,.452,0,.9,0,1.347,0,.359.087.439.455.44,1.129,0,2.258,0,3.387,0a.582.582,0,0,0,.331-.1c.739-.566,1.458-1.16,2.207-1.713a1.587,1.587,0,0,0,.766-1.692.149.149,0,0,1,0-.033,1.31,1.31,0,0,1,1.44-1.388C1686.845,1383.108,1687.147,1383.1,1687.449,1383.1Zm8.573.2a14.578,14.578,0,0,1-4.112,4.695c.483.035.935,0,1.38.044a1.578,1.578,0,0,0,1.19-.42,7.007,7.007,0,0,1,2.957-1.436c.617-.132,1.249-.194,1.912-.293,0-.413,0-.849,0-1.285s-.082-.524-.516-.511A4.1,4.1,0,0,1,1696.021,1383.3Zm-26.25,1.882c2.126.28,5.88-1.444,6.665-3.041a.533.533,0,0,0-.092-.017,1.967,1.967,0,0,0-.2.006,5.613,5.613,0,0,0-3.08,1.186,3.21,3.21,0,0,1-1.671.707,11.939,11.939,0,0,1-1.211.063c-.274,0-.41.118-.414.389C1669.769,1384.705,1669.771,1384.934,1669.771,1385.183Zm22.988-3.02a5.282,5.282,0,0,0-3.352,1.14,3.294,3.294,0,0,1-1.7.722c-.4.045-.807.054-1.211.063-.217,0-.378.073-.4.3-.02.268,0,.539,0,.837A8.439,8.439,0,0,0,1692.76,1382.163Zm-9.086,10.352v1.937h1.785v-1.937Zm12.755,1.94h1.791v-1.938h-1.791Zm-25.531-1.942v1.946h1.787v-1.946Zm24.843-4.481h2.684c.965,0,.965,0,.919-.964a.53.53,0,0,0-.04-.117A5.986,5.986,0,0,0,1695.741,1388.031Zm-20.237-.019h1.448v-1.155Zm9.581.007v-1.128l-1.407,1.128Z" transform="translate(-1667.715 -1381.133)" fill="#0055b8"/>
</svg>
