<svg xmlns="http://www.w3.org/2000/svg" width="29.003" height="22.319" viewBox="0 0 29.003 22.319">
  <g id="van" transform="translate(-1.91 -5.503)">
    <path id="Path_7396" data-name="Path 7396" d="M20.524,5.5H2.85a.921.921,0,0,0-.93.93V17.595a.927.927,0,0,0,.93.93H20.524a.933.933,0,0,0,.93-.93V6.433a.927.927,0,0,0-.93-.93Z" transform="translate(-0.001)" fill="#0055b8"/>
    <path id="Path_7397" data-name="Path 7397" d="M1.91,24.281a.933.933,0,0,0,.93.93h1A4.686,4.686,0,0,1,7.826,21.49H2.849a2.629,2.629,0,0,1-.939-.168Z" transform="translate(0 -1.105)" fill="#0055b8"/>
    <path id="Path_7398" data-name="Path 7398" d="M29.364,24.455h1.153a.933.933,0,0,0,.93-.93V15.377c0-1.46-3.563-4.874-5.516-4.874H23.848v7.441a2.8,2.8,0,0,1-2.791,2.791H9.57a4.686,4.686,0,0,1,3.981,3.721h6.642a4.675,4.675,0,0,1,9.172,0ZM25.374,12.791c4.763-.233,4.567,4.688,4.567,4.688H25.374Z" transform="translate(-0.535 -0.349)" fill="#0055b8"/>
    <circle id="Ellipse_172" data-name="Ellipse 172" cx="2.809" cy="2.809" r="2.809" transform="translate(21.431 22.203)" fill="#0055b8"/>
    <circle id="Ellipse_173" data-name="Ellipse 173" cx="2.809" cy="2.809" r="2.809" transform="translate(5.618 22.203)" fill="#0055b8"/>
  </g>
</svg>
