<svg xmlns="http://www.w3.org/2000/svg" width="361.331" height="140.823" viewBox="0 0 361.331 140.823">
  <g id="Group_128" data-name="Group 128" transform="translate(-1404.997 -106.499)">
    <path id="Path_5010" data-name="Path 5010" d="M1497.2,122.558a8.306,8.306,0,0,1-7.2,5.542l-8.313,24.095a24,24,0,0,1,8.141,26.795l-2.589,7.519a2.509,2.509,0,0,1-2.384,1.671,2.467,2.467,0,0,1-.8-.132,2.442,2.442,0,0,1-1.578-3.107l2.6-7.519a19.182,19.182,0,0,0-7.753-22.271,2.42,2.42,0,0,1-.978-2.822l9.5-27.518a2.543,2.543,0,0,1,2.813-1.64,3.372,3.372,0,0,0,3.789-2.18l.428-1.223a3.206,3.206,0,0,0-.183-2.527,3.343,3.343,0,0,0-1.956-1.661l-12.145-3.994a3.408,3.408,0,0,0-2.588.173,3.323,3.323,0,0,0-1.712,1.905l-.417,1.212a3.258,3.258,0,0,0,1.661,3.984,2.434,2.434,0,0,1,1.232,2.965l-9.5,27.518a2.494,2.494,0,0,1-2.527,1.671,19.942,19.942,0,0,0-19.979,13.153l-7.315,21.181a2.514,2.514,0,0,1-3.179,1.538,2.434,2.434,0,0,1-1.579-3.107l7.315-21.181a24.88,24.88,0,0,1,23.086-16.525l8.313-24.085a8.036,8.036,0,0,1-2.293-8.67l.428-1.223a8.218,8.218,0,0,1,4.238-4.737,8.577,8.577,0,0,1,6.43-.428l12.144,3.994a8.3,8.3,0,0,1,4.85,4.136,7.966,7.966,0,0,1,.438,6.276Z" transform="translate(253.01 0)" fill="#fff"/>
    <path id="Path_5011" data-name="Path 5011" d="M1432.457,119.056c7.121,0,10.84,2.323,14.131,4.381,3.1,1.936,5.767,3.6,11.422,3.6s8.322-1.661,11.42-3.6c3.281-2.058,7-4.381,14.131-4.381,7.111,0,10.84,2.323,14.121,4.381,3.086,1.936,5.757,3.6,11.41,3.6s8.324-1.661,11.41-3.6c3.281-2.058,7.01-4.381,14.132-4.381a2.456,2.456,0,1,1,0,4.911c-5.654,0-8.323,1.671-11.422,3.6-3.279,2.058-7,4.381-14.12,4.381s-10.84-2.323-14.12-4.381c-3.1-1.925-5.766-3.6-11.411-3.6s-8.334,1.671-11.421,3.607c-3.29,2.048-7.009,4.371-14.13,4.371s-10.852-2.323-14.132-4.371c-3.1-1.936-5.766-3.607-11.421-3.607a2.456,2.456,0,1,1,0-4.911Z" transform="translate(229.188 115.377)" fill="#fff"/>
    <path id="Path_5012" data-name="Path 5012" d="M1432.457,116.791c7.121,0,10.84,2.323,14.131,4.381,3.1,1.926,5.767,3.6,11.422,3.6s8.322-1.671,11.42-3.6c3.281-2.058,7-4.381,14.131-4.381,7.111,0,10.84,2.323,14.121,4.381,3.086,1.926,5.757,3.6,11.41,3.6s8.324-1.671,11.41-3.6c3.281-2.058,7.01-4.381,14.132-4.381a2.456,2.456,0,1,1,0,4.911c-5.654,0-8.323,1.671-11.422,3.6-3.279,2.048-7,4.381-14.12,4.381s-10.84-2.333-14.12-4.381c-3.1-1.936-5.766-3.6-11.411-3.6s-8.334,1.671-11.421,3.6c-3.29,2.048-7.009,4.381-14.13,4.381s-10.852-2.333-14.132-4.381c-3.1-1.926-5.766-3.6-11.421-3.6a2.456,2.456,0,1,1,0-4.911Z" transform="translate(229.188 94.566)" fill="#fff"/>
    <path id="Path_5013" data-name="Path 5013" d="M1534.634,119.427c-5.654,0-8.323,1.671-11.422,3.607-3.279,2.048-7,4.371-14.12,4.371s-10.84-2.323-14.12-4.371c-3.1-1.936-5.766-3.607-11.411-3.607s-8.334,1.671-11.421,3.607c-3.29,2.048-7.009,4.371-14.13,4.371s-10.852-2.323-14.132-4.371c-3.1-1.936-5.766-3.607-11.421-3.607a2.451,2.451,0,1,1,0-4.9c7.121,0,10.84,2.323,14.131,4.371,3.1,1.936,5.767,3.607,11.422,3.607s8.322-1.671,11.42-3.607c3.281-2.048,7-4.371,14.131-4.371,7.111,0,10.84,2.323,14.121,4.371,3.086,1.936,5.757,3.607,11.41,3.607s8.324-1.671,11.41-3.607c3.281-2.048,7.01-4.371,14.132-4.371a2.451,2.451,0,1,1,0,4.9Z" transform="translate(229.188 73.755)" fill="#fff"/>
    <path id="Path_5014" data-name="Path 5014" d="M1422.4,116.791c7.121,0,10.85,2.323,14.131,4.381,3.1,1.926,5.767,3.6,11.42,3.6s8.324-1.671,11.421-3.6c3.28-2.058,7.009-4.381,14.132-4.381s10.84,2.323,14.12,4.381c3.087,1.926,5.766,3.6,11.411,3.6s8.323-1.671,11.41-3.6c3.291-2.058,7.01-4.381,14.131-4.381a2.456,2.456,0,1,1,0,4.911c-5.654,0-8.324,1.671-11.421,3.6-3.28,2.048-7,4.381-14.12,4.381s-10.84-2.333-14.121-4.381c-3.1-1.936-5.767-3.6-11.41-3.6s-8.324,1.671-11.422,3.6c-3.291,2.048-7.01,4.381-14.131,4.381s-10.85-2.333-14.13-4.381c-3.1-1.926-5.768-3.6-11.421-3.6a2.456,2.456,0,1,1,0-4.911Z" transform="translate(136.756 94.566)" fill="#fff"/>
    <path id="Path_5015" data-name="Path 5015" d="M1524.574,119.427c-5.654,0-8.324,1.671-11.421,3.607-3.28,2.048-7,4.371-14.12,4.371s-10.84-2.323-14.121-4.371c-3.1-1.936-5.767-3.607-11.41-3.607s-8.324,1.671-11.422,3.607c-3.291,2.048-7.01,4.371-14.131,4.371s-10.85-2.323-14.13-4.371c-3.1-1.936-5.768-3.607-11.421-3.607a2.451,2.451,0,1,1,0-4.9c7.121,0,10.85,2.323,14.131,4.371,3.1,1.936,5.767,3.607,11.42,3.607s8.324-1.671,11.421-3.607c3.28-2.048,7.009-4.371,14.132-4.371s10.84,2.323,14.12,4.371c3.087,1.936,5.766,3.607,11.411,3.607s8.323-1.671,11.41-3.607c3.291-2.048,7.01-4.371,14.131-4.371a2.451,2.451,0,1,1,0,4.9Z" transform="translate(136.756 73.755)" fill="#fff"/>
    <path id="Path_5016" data-name="Path 5016" d="M1514.721,119.427c-5.644,0-8.322,1.671-11.41,3.607-3.291,2.048-7.01,4.371-14.131,4.371s-10.84-2.323-14.12-4.371c-3.1-1.936-5.768-3.607-11.411-3.607s-8.323,1.671-11.421,3.607c-3.28,2.048-7.009,4.371-14.131,4.371s-10.851-2.323-14.131-4.371c-3.1-1.936-5.767-3.607-11.421-3.607a2.451,2.451,0,1,1,0-4.9c7.121,0,10.85,2.323,14.131,4.371,3.1,1.936,5.767,3.607,11.421,3.607s8.323-1.671,11.421-3.607c3.28-2.048,7.01-4.371,14.131-4.371s10.84,2.323,14.121,4.371c3.1,1.936,5.767,3.607,11.41,3.607s8.324-1.671,11.421-3.607c3.28-2.048,7-4.371,14.12-4.371a2.451,2.451,0,1,1,0,4.9Z" transform="translate(46.225 73.755)" fill="#fff"/>
    <path id="Path_5017" data-name="Path 5017" d="M1509.69,119.427c-5.645,0-8.323,1.671-11.411,3.607-3.291,2.048-7.009,4.371-14.13,4.371s-10.84-2.323-14.121-4.371c-3.1-1.936-5.767-3.607-11.41-3.607s-8.324,1.671-11.421,3.607c-3.281,2.048-7.01,4.371-14.132,4.371s-10.85-2.323-14.131-4.371c-3.1-1.936-5.767-3.607-11.42-3.607a2.451,2.451,0,1,1,0-4.9c7.121,0,10.85,2.323,14.13,4.371,3.1,1.936,5.768,3.607,11.421,3.607s8.324-1.671,11.422-3.607c3.279-2.048,7.01-4.371,14.131-4.371s10.84,2.323,14.12,4.371c3.1,1.936,5.767,3.607,11.411,3.607s8.323-1.671,11.42-3.607c3.281-2.048,7-4.371,14.121-4.371a2.451,2.451,0,1,1,0,4.9Z" transform="translate(0 73.755)" fill="#fff"/>
    <path id="Path_5018" data-name="Path 5018" d="M1469.144,125.21a1.252,1.252,0,0,1-1.183.825,1.2,1.2,0,0,1-.417-.071l-32.877-11.146a1.219,1.219,0,0,1-.775-1.569,1.266,1.266,0,0,1,1.6-.754l32.876,11.156A1.223,1.223,0,0,1,1469.144,125.21Z" transform="translate(264.807 54.493)" fill="#fff"/>
    <path id="Path_5019" data-name="Path 5019" d="M1436.479,117.763a1.28,1.28,0,0,1-1.773.132,1.207,1.207,0,0,1-.142-1.722,14.1,14.1,0,0,1,11.5-4.8,1.234,1.234,0,0,1,1.183,1.294,1.253,1.253,0,0,1-1.334,1.151A11.764,11.764,0,0,0,1436.479,117.763Z" transform="translate(268.925 44.549)" fill="#fff"/>
  </g>
</svg>
