<svg id="Group_142" data-name="Group 142" xmlns="http://www.w3.org/2000/svg" width="377.715" height="147.208" viewBox="0 0 377.715 147.208">
  <path id="Path_5043" data-name="Path 5043" d="M1433.437,123.286a8.684,8.684,0,0,0,7.53,5.794l8.689,25.187a25.083,25.083,0,0,0-8.509,28.01l2.705,7.86a2.624,2.624,0,0,0,2.492,1.747,2.583,2.583,0,0,0,.842-.138,2.552,2.552,0,0,0,1.649-3.248l-2.714-7.86a20.049,20.049,0,0,1,8.1-23.281,2.53,2.53,0,0,0,1.021-2.95l-9.926-28.766a2.658,2.658,0,0,0-2.939-1.715,3.525,3.525,0,0,1-3.961-2.279l-.447-1.278a3.352,3.352,0,0,1,.19-2.641,3.493,3.493,0,0,1,2.045-1.736l12.7-4.175a3.563,3.563,0,0,1,2.705.181,3.469,3.469,0,0,1,1.789,1.992l.437,1.267a3.406,3.406,0,0,1-1.736,4.164,2.543,2.543,0,0,0-1.288,3.1l9.936,28.766a2.606,2.606,0,0,0,2.642,1.747,20.847,20.847,0,0,1,20.885,13.749l7.647,22.141a2.629,2.629,0,0,0,3.323,1.608,2.544,2.544,0,0,0,1.65-3.248l-7.646-22.141a26.01,26.01,0,0,0-24.133-17.274l-8.69-25.177a8.4,8.4,0,0,0,2.4-9.063l-.447-1.278a8.591,8.591,0,0,0-4.43-4.952,8.966,8.966,0,0,0-6.722-.447l-12.693,4.175a8.681,8.681,0,0,0-5.07,4.324,8.327,8.327,0,0,0-.458,6.56Z" transform="translate(-1416.588 -106.499)" fill="#0045ab"/>
  <path id="Path_5044" data-name="Path 5044" d="M1539.37,119.056c-7.444,0-11.331,2.428-14.772,4.579-3.238,2.024-6.028,3.759-11.939,3.759s-8.7-1.736-11.938-3.759c-3.43-2.151-7.316-4.579-14.771-4.579-7.434,0-11.331,2.428-14.761,4.579-3.227,2.024-6.018,3.759-11.928,3.759s-8.7-1.736-11.928-3.759c-3.43-2.151-7.327-4.579-14.773-4.579a2.567,2.567,0,1,0,0,5.133c5.911,0,8.7,1.747,11.94,3.759,3.429,2.151,7.315,4.58,14.761,4.58s11.331-2.428,14.761-4.58c3.237-2.013,6.027-3.759,11.928-3.759s8.712,1.747,11.938,3.77c3.44,2.141,7.327,4.569,14.771,4.569s11.343-2.428,14.772-4.569c3.237-2.023,6.027-3.77,11.939-3.77a2.567,2.567,0,1,0,0-5.133Z" transform="translate(-1429.94 14.679)" fill="#0045ab"/>
  <path id="Path_5045" data-name="Path 5045" d="M1539.37,116.791c-7.444,0-11.331,2.428-14.772,4.58-3.238,2.013-6.028,3.759-11.939,3.759s-8.7-1.747-11.938-3.759c-3.43-2.151-7.316-4.58-14.771-4.58-7.434,0-11.331,2.428-14.761,4.58-3.227,2.013-6.018,3.759-11.928,3.759s-8.7-1.747-11.928-3.759c-3.43-2.151-7.327-4.58-14.773-4.58a2.567,2.567,0,1,0,0,5.133c5.911,0,8.7,1.746,11.94,3.759,3.429,2.141,7.315,4.579,14.761,4.579s11.331-2.439,14.761-4.579c3.237-2.024,6.027-3.759,11.928-3.759s8.712,1.746,11.938,3.759c3.44,2.141,7.327,4.579,14.771,4.579s11.343-2.439,14.772-4.579c3.237-2.013,6.027-3.759,11.939-3.759a2.567,2.567,0,1,0,0-5.133Z" transform="translate(-1429.94 -7.178)" fill="#0045ab"/>
  <path id="Path_5046" data-name="Path 5046" d="M1432.56,119.649c5.911,0,8.7,1.746,11.94,3.77,3.429,2.141,7.315,4.569,14.761,4.569s11.331-2.428,14.761-4.569c3.237-2.024,6.027-3.77,11.928-3.77s8.712,1.746,11.938,3.77c3.44,2.141,7.327,4.569,14.771,4.569s11.343-2.428,14.772-4.569c3.237-2.024,6.027-3.77,11.939-3.77a2.562,2.562,0,1,0,0-5.123c-7.444,0-11.331,2.428-14.772,4.569-3.238,2.023-6.028,3.77-11.939,3.77s-8.7-1.747-11.938-3.77c-3.43-2.141-7.316-4.569-14.771-4.569-7.434,0-11.331,2.428-14.761,4.569-3.227,2.023-6.018,3.77-11.928,3.77s-8.7-1.747-11.928-3.77c-3.43-2.141-7.327-4.569-14.773-4.569a2.562,2.562,0,1,0,0,5.123Z" transform="translate(-1429.94 -29.035)" fill="#0045ab"/>
  <path id="Path_5047" data-name="Path 5047" d="M1529.32,116.791c-7.444,0-11.342,2.428-14.771,4.58-3.237,2.013-6.028,3.759-11.939,3.759s-8.7-1.747-11.938-3.759c-3.43-2.151-7.327-4.58-14.772-4.58s-11.331,2.428-14.761,4.58c-3.227,2.013-6.027,3.759-11.928,3.759s-8.7-1.747-11.928-3.759c-3.44-2.151-7.327-4.58-14.771-4.58a2.567,2.567,0,1,0,0,5.133c5.91,0,8.7,1.746,11.938,3.759,3.43,2.141,7.316,4.579,14.761,4.579s11.331-2.439,14.761-4.579c3.238-2.024,6.028-3.759,11.928-3.759s8.7,1.746,11.939,3.759c3.44,2.141,7.327,4.579,14.771,4.579s11.342-2.439,14.772-4.579c3.238-2.013,6.028-3.759,11.938-3.759a2.567,2.567,0,1,0,0-5.133Z" transform="translate(-1312.752 -7.178)" fill="#0045ab"/>
  <path id="Path_5048" data-name="Path 5048" d="M1422.512,119.649c5.91,0,8.7,1.746,11.938,3.77,3.43,2.141,7.316,4.569,14.761,4.569s11.331-2.428,14.761-4.569c3.238-2.024,6.028-3.77,11.928-3.77s8.7,1.746,11.939,3.77c3.44,2.141,7.327,4.569,14.771,4.569s11.342-2.428,14.772-4.569c3.238-2.024,6.028-3.77,11.938-3.77a2.562,2.562,0,1,0,0-5.123c-7.444,0-11.342,2.428-14.771,4.569-3.237,2.023-6.028,3.77-11.939,3.77s-8.7-1.747-11.938-3.77c-3.43-2.141-7.327-4.569-14.772-4.569s-11.331,2.428-14.761,4.569c-3.227,2.023-6.027,3.77-11.928,3.77s-8.7-1.747-11.928-3.77c-3.44-2.141-7.327-4.569-14.771-4.569a2.562,2.562,0,1,0,0,5.123Z" transform="translate(-1312.752 -29.035)" fill="#0045ab"/>
  <path id="Path_5049" data-name="Path 5049" d="M1412.659,119.649c5.9,0,8.7,1.746,11.928,3.77,3.44,2.141,7.327,4.569,14.771,4.569s11.331-2.428,14.761-4.569c3.237-2.024,6.028-3.77,11.928-3.77s8.7,1.746,11.938,3.77c3.43,2.141,7.327,4.569,14.773,4.569s11.342-2.428,14.771-4.569c3.237-2.024,6.028-3.77,11.938-3.77a2.562,2.562,0,1,0,0-5.123c-7.444,0-11.342,2.428-14.771,4.569-3.237,2.023-6.028,3.77-11.938,3.77s-8.7-1.747-11.94-3.77c-3.428-2.141-7.327-4.569-14.771-4.569s-11.331,2.428-14.761,4.569c-3.236,2.023-6.028,3.77-11.928,3.77s-8.7-1.747-11.938-3.77c-3.43-2.141-7.316-4.569-14.761-4.569a2.562,2.562,0,1,0,0,5.123Z" transform="translate(-1197.964 -29.035)" fill="#0045ab"/>
  <path id="Path_5050" data-name="Path 5050" d="M1407.628,119.649c5.9,0,8.7,1.746,11.929,3.77,3.439,2.141,7.327,4.569,14.771,4.569s11.332-2.428,14.761-4.569c3.237-2.024,6.028-3.77,11.929-3.77s8.7,1.746,11.938,3.77c3.43,2.141,7.327,4.569,14.773,4.569s11.342-2.428,14.771-4.569c3.237-2.024,6.028-3.77,11.938-3.77a2.562,2.562,0,1,0,0-5.123c-7.444,0-11.342,2.428-14.771,4.569-3.238,2.023-6.028,3.77-11.938,3.77s-8.7-1.747-11.94-3.77c-3.428-2.141-7.327-4.569-14.771-4.569s-11.332,2.428-14.761,4.569c-3.237,2.023-6.028,3.77-11.929,3.77s-8.7-1.747-11.938-3.77c-3.429-2.141-7.316-4.569-14.761-4.569a2.562,2.562,0,1,0,0,5.123Z" transform="translate(-1139.353 -29.035)" fill="#0045ab"/>
  <path id="Path_5051" data-name="Path 5051" d="M1433.888,125.789a1.308,1.308,0,0,0,1.236.863,1.25,1.25,0,0,0,.436-.074l34.368-11.651a1.274,1.274,0,0,0,.811-1.64,1.324,1.324,0,0,0-1.674-.788L1434.7,124.16A1.279,1.279,0,0,0,1433.888,125.789Z" transform="translate(-1400.042 -49.266)" fill="#0045ab"/>
  <path id="Path_5052" data-name="Path 5052" d="M1445.526,118.053a1.338,1.338,0,0,0,1.854.138,1.262,1.262,0,0,0,.148-1.8,14.739,14.739,0,0,0-12.023-5.016,1.291,1.291,0,0,0-1.237,1.353,1.31,1.31,0,0,0,1.4,1.2A12.3,12.3,0,0,1,1445.526,118.053Z" transform="translate(-1381.838 -59.71)" fill="#0045ab"/>
</svg>
