<svg id="Group_2603" data-name="Group 2603" xmlns="http://www.w3.org/2000/svg" width="410.59" height="70.419" viewBox="0 0 410.59 70.419">
  <path id="Path_7383" data-name="Path 7383" d="M1634.917,119.056c-13.943,0-21.225,4.548-27.669,8.578-6.065,3.79-11.291,7.042-22.365,7.042-11.051,0-16.3-3.251-22.361-7.042-6.425-4.03-13.707-8.578-27.669-8.578-13.925,0-21.225,4.548-27.65,8.578-6.043,3.79-11.272,7.042-22.342,7.042-11.052,0-16.3-3.251-22.342-7.042-6.425-4.03-13.726-8.578-27.671-8.578a4.809,4.809,0,1,0,0,9.615c11.072,0,16.3,3.272,22.365,7.042,6.421,4.03,13.7,8.578,27.648,8.578s21.225-4.548,27.648-8.578c6.066-3.77,11.29-7.042,22.344-7.042s16.318,3.272,22.363,7.062c6.442,4.01,13.724,8.558,27.667,8.558,13.966,0,21.248-4.548,27.671-8.558,6.063-3.79,11.289-7.062,22.363-7.062a4.809,4.809,0,1,0,0-9.615Z" transform="translate(-1429.941 -73.872)" fill="#0045AB"/>
  <path id="Path_7384" data-name="Path 7384" d="M1634.917,116.791c-13.943,0-21.225,4.548-27.669,8.578-6.065,3.771-11.291,7.042-22.365,7.042-11.051,0-16.3-3.271-22.361-7.042-6.425-4.03-13.707-8.578-27.669-8.578-13.925,0-21.225,4.548-27.65,8.578-6.043,3.771-11.272,7.042-22.342,7.042-11.052,0-16.3-3.271-22.342-7.042-6.425-4.03-13.726-8.578-27.671-8.578a4.809,4.809,0,1,0,0,9.615c11.072,0,16.3,3.271,22.365,7.042,6.421,4.01,13.7,8.578,27.648,8.578s21.225-4.568,27.648-8.578c6.066-3.79,11.29-7.042,22.344-7.042s16.318,3.271,22.363,7.042c6.442,4.01,13.724,8.578,27.667,8.578,13.966,0,21.248-4.568,27.671-8.578,6.063-3.771,11.289-7.042,22.363-7.042a4.809,4.809,0,1,0,0-9.615Z" transform="translate(-1429.941 -116.791)" fill="#0045AB"/>
  <path id="Path_7385" data-name="Path 7385" d="M1624.876,116.791c-13.944,0-21.245,4.548-27.669,8.578-6.064,3.771-11.292,7.042-22.361,7.042-11.051,0-16.3-3.271-22.363-7.042-6.423-4.03-13.723-8.578-27.671-8.578s-21.225,4.548-27.648,8.578c-6.044,3.771-11.29,7.042-22.343,7.042s-16.3-3.271-22.342-7.042c-6.444-4.03-13.725-8.578-27.669-8.578a4.809,4.809,0,1,0,0,9.615c11.072,0,16.3,3.271,22.363,7.042,6.423,4.01,13.7,8.578,27.648,8.578s21.225-4.568,27.649-8.578c6.066-3.79,11.292-7.042,22.342-7.042,11.073,0,16.3,3.271,22.365,7.042,6.444,4.01,13.725,8.578,27.669,8.578s21.245-4.568,27.667-8.578c6.067-3.771,11.293-7.042,22.363-7.042a4.809,4.809,0,1,0,0-9.615Z" transform="translate(-1219.215 -116.791)" fill="#0045AB"/>
</svg>
